<?xml version="1.0" encoding="utf-8"?>
<svg xmlns="http://www.w3.org/2000/svg" xmlns:xlink="http://www.w3.org/1999/xlink" width="600" height="400" viewBox="0 0 2400 1600">
<defs>
  <clipPath id="clip560">
    <rect x="0" y="0" width="2400" height="1600"/>
  </clipPath>
</defs>
<path clip-path="url(#clip560)" d="M0 1600 L2400 1600 L2400 0 L0 0  Z" fill="#ffffff" fill-rule="evenodd" fill-opacity="1"/>
<defs>
  <clipPath id="clip561">
    <rect x="480" y="0" width="1681" height="1600"/>
  </clipPath>
</defs>
<path clip-path="url(#clip560)" d="M307.593 1474.16 L2352.76 1474.16 L2352.76 47.2441 L307.593 47.2441  Z" fill="#ffffff" fill-rule="evenodd" fill-opacity="1"/>
<defs>
  <clipPath id="clip562">
    <rect x="307" y="47" width="2046" height="1428"/>
  </clipPath>
</defs>
<polyline clip-path="url(#clip562)" style="stroke:#000000; stroke-linecap:round; stroke-linejoin:round; stroke-width:2; stroke-opacity:0.1; fill:none" points="365.475,1474.16 365.475,47.2441 "/>
<polyline clip-path="url(#clip562)" style="stroke:#000000; stroke-linecap:round; stroke-linejoin:round; stroke-width:2; stroke-opacity:0.1; fill:none" points="1571.35,1474.16 1571.35,47.2441 "/>
<polyline clip-path="url(#clip560)" style="stroke:#000000; stroke-linecap:round; stroke-linejoin:round; stroke-width:4; stroke-opacity:1; fill:none" points="307.593,1474.16 2352.76,1474.16 "/>
<polyline clip-path="url(#clip560)" style="stroke:#000000; stroke-linecap:round; stroke-linejoin:round; stroke-width:4; stroke-opacity:1; fill:none" points="365.475,1474.16 365.475,1455.27 "/>
<polyline clip-path="url(#clip560)" style="stroke:#000000; stroke-linecap:round; stroke-linejoin:round; stroke-width:4; stroke-opacity:1; fill:none" points="1571.35,1474.16 1571.35,1455.27 "/>
<path clip-path="url(#clip560)" d="M302.838 1548.29 L310.477 1548.29 L310.477 1521.92 L302.167 1523.59 L302.167 1519.33 L310.431 1517.66 L315.107 1517.66 L315.107 1548.29 L322.746 1548.29 L322.746 1552.22 L302.838 1552.22 L302.838 1548.29 Z" fill="#000000" fill-rule="nonzero" fill-opacity="1" /><path clip-path="url(#clip560)" d="M342.19 1520.74 Q338.579 1520.74 336.75 1524.31 Q334.945 1527.85 334.945 1534.98 Q334.945 1542.09 336.75 1545.65 Q338.579 1549.19 342.19 1549.19 Q345.824 1549.19 347.63 1545.65 Q349.459 1542.09 349.459 1534.98 Q349.459 1527.85 347.63 1524.31 Q345.824 1520.74 342.19 1520.74 M342.19 1517.04 Q348 1517.04 351.056 1521.65 Q354.134 1526.23 354.134 1534.98 Q354.134 1543.71 351.056 1548.31 Q348 1552.9 342.19 1552.9 Q336.38 1552.9 333.301 1548.31 Q330.246 1543.71 330.246 1534.98 Q330.246 1526.23 333.301 1521.65 Q336.38 1517.04 342.19 1517.04 Z" fill="#000000" fill-rule="nonzero" fill-opacity="1" /><path clip-path="url(#clip560)" d="M354.134 1511.14 L378.246 1511.14 L378.246 1514.34 L354.134 1514.34 L354.134 1511.14 Z" fill="#000000" fill-rule="nonzero" fill-opacity="1" /><path clip-path="url(#clip560)" d="M387.104 1521.62 L393.311 1521.62 L393.311 1500.19 L386.559 1501.55 L386.559 1498.09 L393.273 1496.73 L397.073 1496.73 L397.073 1521.62 L403.279 1521.62 L403.279 1524.81 L387.104 1524.81 L387.104 1521.62 Z" fill="#000000" fill-rule="nonzero" fill-opacity="1" /><path clip-path="url(#clip560)" d="M419.078 1499.24 Q416.144 1499.24 414.658 1502.13 Q413.191 1505.01 413.191 1510.8 Q413.191 1516.58 414.658 1519.47 Q416.144 1522.35 419.078 1522.35 Q422.03 1522.35 423.497 1519.47 Q424.983 1516.58 424.983 1510.8 Q424.983 1505.01 423.497 1502.13 Q422.03 1499.24 419.078 1499.24 M419.078 1496.23 Q423.798 1496.23 426.281 1499.97 Q428.782 1503.69 428.782 1510.8 Q428.782 1517.89 426.281 1521.64 Q423.798 1525.36 419.078 1525.36 Q414.357 1525.36 411.855 1521.64 Q409.373 1517.89 409.373 1510.8 Q409.373 1503.69 411.855 1499.97 Q414.357 1496.23 419.078 1496.23 Z" fill="#000000" fill-rule="nonzero" fill-opacity="1" /><path clip-path="url(#clip560)" d="M1521.37 1548.29 L1529.01 1548.29 L1529.01 1521.92 L1520.7 1523.59 L1520.7 1519.33 L1528.96 1517.66 L1533.64 1517.66 L1533.64 1548.29 L1541.28 1548.29 L1541.28 1552.22 L1521.37 1552.22 L1521.37 1548.29 Z" fill="#000000" fill-rule="nonzero" fill-opacity="1" /><path clip-path="url(#clip560)" d="M1560.72 1520.74 Q1557.11 1520.74 1555.28 1524.31 Q1553.48 1527.85 1553.48 1534.98 Q1553.48 1542.09 1555.28 1545.65 Q1557.11 1549.19 1560.72 1549.19 Q1564.36 1549.19 1566.16 1545.65 Q1567.99 1542.09 1567.99 1534.98 Q1567.99 1527.85 1566.16 1524.31 Q1564.36 1520.74 1560.72 1520.74 M1560.72 1517.04 Q1566.53 1517.04 1569.59 1521.65 Q1572.67 1526.23 1572.67 1534.98 Q1572.67 1543.71 1569.59 1548.31 Q1566.53 1552.9 1560.72 1552.9 Q1554.91 1552.9 1551.83 1548.31 Q1548.78 1543.71 1548.78 1534.98 Q1548.78 1526.23 1551.83 1521.65 Q1554.91 1517.04 1560.72 1517.04 Z" fill="#000000" fill-rule="nonzero" fill-opacity="1" /><path clip-path="url(#clip560)" d="M1572.67 1511.14 L1596.78 1511.14 L1596.78 1514.34 L1572.67 1514.34 L1572.67 1511.14 Z" fill="#000000" fill-rule="nonzero" fill-opacity="1" /><path clip-path="url(#clip560)" d="M1605.02 1496.73 L1619.93 1496.73 L1619.93 1499.93 L1608.5 1499.93 L1608.5 1506.82 Q1609.32 1506.53 1610.15 1506.4 Q1610.98 1506.25 1611.81 1506.25 Q1616.51 1506.25 1619.25 1508.83 Q1622 1511.4 1622 1515.81 Q1622 1520.34 1619.18 1522.86 Q1616.36 1525.36 1611.22 1525.36 Q1609.45 1525.36 1607.61 1525.06 Q1605.79 1524.76 1603.83 1524.16 L1603.83 1520.34 Q1605.52 1521.26 1607.33 1521.71 Q1609.13 1522.16 1611.15 1522.16 Q1614.4 1522.16 1616.3 1520.45 Q1618.2 1518.74 1618.2 1515.81 Q1618.2 1512.87 1616.3 1511.16 Q1614.4 1509.45 1611.15 1509.45 Q1609.62 1509.45 1608.1 1509.79 Q1606.6 1510.13 1605.02 1510.84 L1605.02 1496.73 Z" fill="#000000" fill-rule="nonzero" fill-opacity="1" /><polyline clip-path="url(#clip562)" style="stroke:#000000; stroke-linecap:round; stroke-linejoin:round; stroke-width:2; stroke-opacity:0.1; fill:none" points="307.593,1433.78 2352.76,1433.78 "/>
<polyline clip-path="url(#clip562)" style="stroke:#000000; stroke-linecap:round; stroke-linejoin:round; stroke-width:2; stroke-opacity:0.1; fill:none" points="307.593,1230.37 2352.76,1230.37 "/>
<polyline clip-path="url(#clip562)" style="stroke:#000000; stroke-linecap:round; stroke-linejoin:round; stroke-width:2; stroke-opacity:0.1; fill:none" points="307.593,1026.97 2352.76,1026.97 "/>
<polyline clip-path="url(#clip562)" style="stroke:#000000; stroke-linecap:round; stroke-linejoin:round; stroke-width:2; stroke-opacity:0.1; fill:none" points="307.593,823.561 2352.76,823.561 "/>
<polyline clip-path="url(#clip562)" style="stroke:#000000; stroke-linecap:round; stroke-linejoin:round; stroke-width:2; stroke-opacity:0.1; fill:none" points="307.593,620.155 2352.76,620.155 "/>
<polyline clip-path="url(#clip562)" style="stroke:#000000; stroke-linecap:round; stroke-linejoin:round; stroke-width:2; stroke-opacity:0.1; fill:none" points="307.593,416.749 2352.76,416.749 "/>
<polyline clip-path="url(#clip562)" style="stroke:#000000; stroke-linecap:round; stroke-linejoin:round; stroke-width:2; stroke-opacity:0.1; fill:none" points="307.593,213.343 2352.76,213.343 "/>
<polyline clip-path="url(#clip560)" style="stroke:#000000; stroke-linecap:round; stroke-linejoin:round; stroke-width:4; stroke-opacity:1; fill:none" points="307.593,1474.16 307.593,47.2441 "/>
<polyline clip-path="url(#clip560)" style="stroke:#000000; stroke-linecap:round; stroke-linejoin:round; stroke-width:4; stroke-opacity:1; fill:none" points="307.593,1433.78 326.49,1433.78 "/>
<polyline clip-path="url(#clip560)" style="stroke:#000000; stroke-linecap:round; stroke-linejoin:round; stroke-width:4; stroke-opacity:1; fill:none" points="307.593,1230.37 326.49,1230.37 "/>
<polyline clip-path="url(#clip560)" style="stroke:#000000; stroke-linecap:round; stroke-linejoin:round; stroke-width:4; stroke-opacity:1; fill:none" points="307.593,1026.97 326.49,1026.97 "/>
<polyline clip-path="url(#clip560)" style="stroke:#000000; stroke-linecap:round; stroke-linejoin:round; stroke-width:4; stroke-opacity:1; fill:none" points="307.593,823.561 326.49,823.561 "/>
<polyline clip-path="url(#clip560)" style="stroke:#000000; stroke-linecap:round; stroke-linejoin:round; stroke-width:4; stroke-opacity:1; fill:none" points="307.593,620.155 326.49,620.155 "/>
<polyline clip-path="url(#clip560)" style="stroke:#000000; stroke-linecap:round; stroke-linejoin:round; stroke-width:4; stroke-opacity:1; fill:none" points="307.593,416.749 326.49,416.749 "/>
<polyline clip-path="url(#clip560)" style="stroke:#000000; stroke-linecap:round; stroke-linejoin:round; stroke-width:4; stroke-opacity:1; fill:none" points="307.593,213.343 326.49,213.343 "/>
<path clip-path="url(#clip560)" d="M259.648 1419.58 Q256.037 1419.58 254.209 1423.14 Q252.403 1426.69 252.403 1433.81 Q252.403 1440.92 254.209 1444.49 Q256.037 1448.03 259.648 1448.03 Q263.283 1448.03 265.088 1444.49 Q266.917 1440.92 266.917 1433.81 Q266.917 1426.69 265.088 1423.14 Q263.283 1419.58 259.648 1419.58 M259.648 1415.88 Q265.459 1415.88 268.514 1420.48 Q271.593 1425.06 271.593 1433.81 Q271.593 1442.54 268.514 1447.15 Q265.459 1451.73 259.648 1451.73 Q253.838 1451.73 250.76 1447.15 Q247.704 1442.54 247.704 1433.81 Q247.704 1425.06 250.76 1420.48 Q253.838 1415.88 259.648 1415.88 Z" fill="#000000" fill-rule="nonzero" fill-opacity="1" /><path clip-path="url(#clip560)" d="M57.7745 1250.17 L74.0939 1250.17 L74.0939 1254.1 L52.1495 1254.1 L52.1495 1250.17 Q54.8115 1247.41 59.3949 1242.78 Q64.0013 1238.13 65.1819 1236.79 Q67.4272 1234.26 68.3068 1232.53 Q69.2096 1230.77 69.2096 1229.08 Q69.2096 1226.32 67.2652 1224.59 Q65.3439 1222.85 62.2421 1222.85 Q60.043 1222.85 57.5893 1223.62 Q55.1588 1224.38 52.381 1225.93 L52.381 1221.21 Q55.2051 1220.07 57.6588 1219.5 Q60.1124 1218.92 62.1495 1218.92 Q67.5198 1218.92 70.7142 1221.6 Q73.9087 1224.29 73.9087 1228.78 Q73.9087 1230.91 73.0985 1232.83 Q72.3115 1234.73 70.205 1237.32 Q69.6263 1237.99 66.5245 1241.21 Q63.4226 1244.4 57.7745 1250.17 Z" fill="#000000" fill-rule="nonzero" fill-opacity="1" /><path clip-path="url(#clip560)" d="M83.9086 1248.22 L88.7928 1248.22 L88.7928 1254.1 L83.9086 1254.1 L83.9086 1248.22 Z" fill="#000000" fill-rule="nonzero" fill-opacity="1" /><path clip-path="url(#clip560)" d="M108.978 1222.62 Q105.367 1222.62 103.538 1226.18 Q101.733 1229.73 101.733 1236.86 Q101.733 1243.96 103.538 1247.53 Q105.367 1251.07 108.978 1251.07 Q112.612 1251.07 114.418 1247.53 Q116.246 1243.96 116.246 1236.86 Q116.246 1229.73 114.418 1226.18 Q112.612 1222.62 108.978 1222.62 M108.978 1218.92 Q114.788 1218.92 117.844 1223.52 Q120.922 1228.11 120.922 1236.86 Q120.922 1245.58 117.844 1250.19 Q114.788 1254.77 108.978 1254.77 Q103.168 1254.77 100.089 1250.19 Q97.0335 1245.58 97.0335 1236.86 Q97.0335 1228.11 100.089 1223.52 Q103.168 1218.92 108.978 1218.92 Z" fill="#000000" fill-rule="nonzero" fill-opacity="1" /><path clip-path="url(#clip560)" d="M139.14 1222.62 Q135.529 1222.62 133.7 1226.18 Q131.894 1229.73 131.894 1236.86 Q131.894 1243.96 133.7 1247.53 Q135.529 1251.07 139.14 1251.07 Q142.774 1251.07 144.58 1247.53 Q146.408 1243.96 146.408 1236.86 Q146.408 1229.73 144.58 1226.18 Q142.774 1222.62 139.14 1222.62 M139.14 1218.92 Q144.95 1218.92 148.005 1223.52 Q151.084 1228.11 151.084 1236.86 Q151.084 1245.58 148.005 1250.19 Q144.95 1254.77 139.14 1254.77 Q133.33 1254.77 130.251 1250.19 Q127.195 1245.58 127.195 1236.86 Q127.195 1228.11 130.251 1223.52 Q133.33 1218.92 139.14 1218.92 Z" fill="#000000" fill-rule="nonzero" fill-opacity="1" /><path clip-path="url(#clip560)" d="M187.473 1228.64 L176.894 1239.26 L187.473 1249.84 L184.718 1252.64 L174.093 1242.02 L163.468 1252.64 L160.737 1249.84 L171.292 1239.26 L160.737 1228.64 L163.468 1225.84 L174.093 1236.46 L184.718 1225.84 L187.473 1228.64 Z" fill="#000000" fill-rule="nonzero" fill-opacity="1" /><path clip-path="url(#clip560)" d="M199.834 1250.17 L207.473 1250.17 L207.473 1223.8 L199.163 1225.47 L199.163 1221.21 L207.426 1219.54 L212.102 1219.54 L212.102 1250.17 L219.741 1250.17 L219.741 1254.1 L199.834 1254.1 L199.834 1250.17 Z" fill="#000000" fill-rule="nonzero" fill-opacity="1" /><path clip-path="url(#clip560)" d="M239.186 1222.62 Q235.574 1222.62 233.746 1226.18 Q231.94 1229.73 231.94 1236.86 Q231.94 1243.96 233.746 1247.53 Q235.574 1251.07 239.186 1251.07 Q242.82 1251.07 244.625 1247.53 Q246.454 1243.96 246.454 1236.86 Q246.454 1229.73 244.625 1226.18 Q242.82 1222.62 239.186 1222.62 M239.186 1218.92 Q244.996 1218.92 248.051 1223.52 Q251.13 1228.11 251.13 1236.86 Q251.13 1245.58 248.051 1250.19 Q244.996 1254.77 239.186 1254.77 Q233.375 1254.77 230.297 1250.19 Q227.241 1245.58 227.241 1236.86 Q227.241 1228.11 230.297 1223.52 Q233.375 1218.92 239.186 1218.92 Z" fill="#000000" fill-rule="nonzero" fill-opacity="1" /><path clip-path="url(#clip560)" d="M263.806 1201.92 L254.214 1216.91 L263.806 1216.91 L263.806 1201.92 M262.81 1198.61 L267.587 1198.61 L267.587 1216.91 L271.593 1216.91 L271.593 1220.07 L267.587 1220.07 L267.587 1226.69 L263.806 1226.69 L263.806 1220.07 L251.13 1220.07 L251.13 1216.4 L262.81 1198.61 Z" fill="#000000" fill-rule="nonzero" fill-opacity="1" /><path clip-path="url(#clip560)" d="M66.5939 1020.21 L54.7884 1038.66 L66.5939 1038.66 L66.5939 1020.21 M65.367 1016.14 L71.2466 1016.14 L71.2466 1038.66 L76.1772 1038.66 L76.1772 1042.55 L71.2466 1042.55 L71.2466 1050.7 L66.5939 1050.7 L66.5939 1042.55 L50.9921 1042.55 L50.9921 1038.03 L65.367 1016.14 Z" fill="#000000" fill-rule="nonzero" fill-opacity="1" /><path clip-path="url(#clip560)" d="M83.9086 1044.82 L88.7928 1044.82 L88.7928 1050.7 L83.9086 1050.7 L83.9086 1044.82 Z" fill="#000000" fill-rule="nonzero" fill-opacity="1" /><path clip-path="url(#clip560)" d="M108.978 1019.21 Q105.367 1019.21 103.538 1022.78 Q101.733 1026.32 101.733 1033.45 Q101.733 1040.56 103.538 1044.12 Q105.367 1047.66 108.978 1047.66 Q112.612 1047.66 114.418 1044.12 Q116.246 1040.56 116.246 1033.45 Q116.246 1026.32 114.418 1022.78 Q112.612 1019.21 108.978 1019.21 M108.978 1015.51 Q114.788 1015.51 117.844 1020.12 Q120.922 1024.7 120.922 1033.45 Q120.922 1042.18 117.844 1046.78 Q114.788 1051.37 108.978 1051.37 Q103.168 1051.37 100.089 1046.78 Q97.0335 1042.18 97.0335 1033.45 Q97.0335 1024.7 100.089 1020.12 Q103.168 1015.51 108.978 1015.51 Z" fill="#000000" fill-rule="nonzero" fill-opacity="1" /><path clip-path="url(#clip560)" d="M139.14 1019.21 Q135.529 1019.21 133.7 1022.78 Q131.894 1026.32 131.894 1033.45 Q131.894 1040.56 133.7 1044.12 Q135.529 1047.66 139.14 1047.66 Q142.774 1047.66 144.58 1044.12 Q146.408 1040.56 146.408 1033.45 Q146.408 1026.32 144.58 1022.78 Q142.774 1019.21 139.14 1019.21 M139.14 1015.51 Q144.95 1015.51 148.005 1020.12 Q151.084 1024.7 151.084 1033.45 Q151.084 1042.18 148.005 1046.78 Q144.95 1051.37 139.14 1051.37 Q133.33 1051.37 130.251 1046.78 Q127.195 1042.18 127.195 1033.45 Q127.195 1024.7 130.251 1020.12 Q133.33 1015.51 139.14 1015.51 Z" fill="#000000" fill-rule="nonzero" fill-opacity="1" /><path clip-path="url(#clip560)" d="M187.473 1025.23 L176.894 1035.86 L187.473 1046.44 L184.718 1049.24 L174.093 1038.61 L163.468 1049.24 L160.737 1046.44 L171.292 1035.86 L160.737 1025.23 L163.468 1022.43 L174.093 1033.06 L184.718 1022.43 L187.473 1025.23 Z" fill="#000000" fill-rule="nonzero" fill-opacity="1" /><path clip-path="url(#clip560)" d="M199.834 1046.76 L207.473 1046.76 L207.473 1020.39 L199.163 1022.06 L199.163 1017.8 L207.426 1016.14 L212.102 1016.14 L212.102 1046.76 L219.741 1046.76 L219.741 1050.7 L199.834 1050.7 L199.834 1046.76 Z" fill="#000000" fill-rule="nonzero" fill-opacity="1" /><path clip-path="url(#clip560)" d="M239.186 1019.21 Q235.574 1019.21 233.746 1022.78 Q231.94 1026.32 231.94 1033.45 Q231.94 1040.56 233.746 1044.12 Q235.574 1047.66 239.186 1047.66 Q242.82 1047.66 244.625 1044.12 Q246.454 1040.56 246.454 1033.45 Q246.454 1026.32 244.625 1022.78 Q242.82 1019.21 239.186 1019.21 M239.186 1015.51 Q244.996 1015.51 248.051 1020.12 Q251.13 1024.7 251.13 1033.45 Q251.13 1042.18 248.051 1046.78 Q244.996 1051.37 239.186 1051.37 Q233.375 1051.37 230.297 1046.78 Q227.241 1042.18 227.241 1033.45 Q227.241 1024.7 230.297 1020.12 Q233.375 1015.51 239.186 1015.51 Z" fill="#000000" fill-rule="nonzero" fill-opacity="1" /><path clip-path="url(#clip560)" d="M263.806 998.515 L254.214 1013.5 L263.806 1013.5 L263.806 998.515 M262.81 995.205 L267.587 995.205 L267.587 1013.5 L271.593 1013.5 L271.593 1016.66 L267.587 1016.66 L267.587 1023.28 L263.806 1023.28 L263.806 1016.66 L251.13 1016.66 L251.13 1013 L262.81 995.205 Z" fill="#000000" fill-rule="nonzero" fill-opacity="1" /><path clip-path="url(#clip560)" d="M64.3254 828.146 Q61.1773 828.146 59.3254 830.298 Q57.4967 832.451 57.4967 836.201 Q57.4967 839.928 59.3254 842.104 Q61.1773 844.257 64.3254 844.257 Q67.4735 844.257 69.3022 842.104 Q71.1541 839.928 71.1541 836.201 Q71.1541 832.451 69.3022 830.298 Q67.4735 828.146 64.3254 828.146 M73.6077 813.493 L73.6077 817.752 Q71.8485 816.919 70.0429 816.479 Q68.2606 816.039 66.5013 816.039 Q61.8717 816.039 59.418 819.164 Q56.9875 822.289 56.6402 828.609 Q58.006 826.595 60.0662 825.53 Q62.1263 824.442 64.6032 824.442 Q69.8115 824.442 72.8207 827.613 Q75.8531 830.761 75.8531 836.201 Q75.8531 841.525 72.705 844.743 Q69.5568 847.96 64.3254 847.96 Q58.33 847.96 55.1588 843.377 Q51.9875 838.771 51.9875 830.044 Q51.9875 821.849 55.8764 816.988 Q59.7652 812.104 66.3161 812.104 Q68.0754 812.104 69.8578 812.451 Q71.6633 812.798 73.6077 813.493 Z" fill="#000000" fill-rule="nonzero" fill-opacity="1" /><path clip-path="url(#clip560)" d="M83.9086 841.409 L88.7928 841.409 L88.7928 847.289 L83.9086 847.289 L83.9086 841.409 Z" fill="#000000" fill-rule="nonzero" fill-opacity="1" /><path clip-path="url(#clip560)" d="M108.978 815.808 Q105.367 815.808 103.538 819.373 Q101.733 822.914 101.733 830.044 Q101.733 837.15 103.538 840.715 Q105.367 844.257 108.978 844.257 Q112.612 844.257 114.418 840.715 Q116.246 837.15 116.246 830.044 Q116.246 822.914 114.418 819.373 Q112.612 815.808 108.978 815.808 M108.978 812.104 Q114.788 812.104 117.844 816.71 Q120.922 821.294 120.922 830.044 Q120.922 838.771 117.844 843.377 Q114.788 847.96 108.978 847.96 Q103.168 847.96 100.089 843.377 Q97.0335 838.771 97.0335 830.044 Q97.0335 821.294 100.089 816.71 Q103.168 812.104 108.978 812.104 Z" fill="#000000" fill-rule="nonzero" fill-opacity="1" /><path clip-path="url(#clip560)" d="M139.14 815.808 Q135.529 815.808 133.7 819.373 Q131.894 822.914 131.894 830.044 Q131.894 837.15 133.7 840.715 Q135.529 844.257 139.14 844.257 Q142.774 844.257 144.58 840.715 Q146.408 837.15 146.408 830.044 Q146.408 822.914 144.58 819.373 Q142.774 815.808 139.14 815.808 M139.14 812.104 Q144.95 812.104 148.005 816.71 Q151.084 821.294 151.084 830.044 Q151.084 838.771 148.005 843.377 Q144.95 847.96 139.14 847.96 Q133.33 847.96 130.251 843.377 Q127.195 838.771 127.195 830.044 Q127.195 821.294 130.251 816.71 Q133.33 812.104 139.14 812.104 Z" fill="#000000" fill-rule="nonzero" fill-opacity="1" /><path clip-path="url(#clip560)" d="M187.473 821.826 L176.894 832.451 L187.473 843.03 L184.718 845.831 L174.093 835.206 L163.468 845.831 L160.737 843.03 L171.292 832.451 L160.737 821.826 L163.468 819.025 L174.093 829.65 L184.718 819.025 L187.473 821.826 Z" fill="#000000" fill-rule="nonzero" fill-opacity="1" /><path clip-path="url(#clip560)" d="M199.834 843.354 L207.473 843.354 L207.473 816.988 L199.163 818.655 L199.163 814.396 L207.426 812.729 L212.102 812.729 L212.102 843.354 L219.741 843.354 L219.741 847.289 L199.834 847.289 L199.834 843.354 Z" fill="#000000" fill-rule="nonzero" fill-opacity="1" /><path clip-path="url(#clip560)" d="M239.186 815.808 Q235.574 815.808 233.746 819.373 Q231.94 822.914 231.94 830.044 Q231.94 837.15 233.746 840.715 Q235.574 844.257 239.186 844.257 Q242.82 844.257 244.625 840.715 Q246.454 837.15 246.454 830.044 Q246.454 822.914 244.625 819.373 Q242.82 815.808 239.186 815.808 M239.186 812.104 Q244.996 812.104 248.051 816.71 Q251.13 821.294 251.13 830.044 Q251.13 838.771 248.051 843.377 Q244.996 847.96 239.186 847.96 Q233.375 847.96 230.297 843.377 Q227.241 838.771 227.241 830.044 Q227.241 821.294 230.297 816.71 Q233.375 812.104 239.186 812.104 Z" fill="#000000" fill-rule="nonzero" fill-opacity="1" /><path clip-path="url(#clip560)" d="M263.806 795.109 L254.214 810.099 L263.806 810.099 L263.806 795.109 M262.81 791.799 L267.587 791.799 L267.587 810.099 L271.593 810.099 L271.593 813.258 L267.587 813.258 L267.587 819.879 L263.806 819.879 L263.806 813.258 L251.13 813.258 L251.13 809.591 L262.81 791.799 Z" fill="#000000" fill-rule="nonzero" fill-opacity="1" /><path clip-path="url(#clip560)" d="M63.7467 627.471 Q60.4134 627.471 58.4921 629.253 Q56.5939 631.036 56.5939 634.161 Q56.5939 637.286 58.4921 639.068 Q60.4134 640.85 63.7467 640.85 Q67.08 640.85 69.0013 639.068 Q70.9226 637.262 70.9226 634.161 Q70.9226 631.036 69.0013 629.253 Q67.1032 627.471 63.7467 627.471 M59.0708 625.48 Q56.0615 624.739 54.3717 622.679 Q52.7051 620.619 52.7051 617.656 Q52.7051 613.513 55.6449 611.105 Q58.6078 608.698 63.7467 608.698 Q68.9087 608.698 71.8485 611.105 Q74.7883 613.513 74.7883 617.656 Q74.7883 620.619 73.0985 622.679 Q71.4318 624.739 68.4457 625.48 Q71.8253 626.267 73.7003 628.559 Q75.5985 630.85 75.5985 634.161 Q75.5985 639.184 72.5198 641.869 Q69.4642 644.554 63.7467 644.554 Q58.0291 644.554 54.9504 641.869 Q51.8949 639.184 51.8949 634.161 Q51.8949 630.85 53.793 628.559 Q55.6912 626.267 59.0708 625.48 M57.3578 618.096 Q57.3578 620.781 59.0245 622.286 Q60.7143 623.79 63.7467 623.79 Q66.7559 623.79 68.4457 622.286 Q70.1587 620.781 70.1587 618.096 Q70.1587 615.411 68.4457 613.906 Q66.7559 612.401 63.7467 612.401 Q60.7143 612.401 59.0245 613.906 Q57.3578 615.411 57.3578 618.096 Z" fill="#000000" fill-rule="nonzero" fill-opacity="1" /><path clip-path="url(#clip560)" d="M83.9086 638.003 L88.7928 638.003 L88.7928 643.883 L83.9086 643.883 L83.9086 638.003 Z" fill="#000000" fill-rule="nonzero" fill-opacity="1" /><path clip-path="url(#clip560)" d="M108.978 612.401 Q105.367 612.401 103.538 615.966 Q101.733 619.508 101.733 626.638 Q101.733 633.744 103.538 637.309 Q105.367 640.85 108.978 640.85 Q112.612 640.85 114.418 637.309 Q116.246 633.744 116.246 626.638 Q116.246 619.508 114.418 615.966 Q112.612 612.401 108.978 612.401 M108.978 608.698 Q114.788 608.698 117.844 613.304 Q120.922 617.888 120.922 626.638 Q120.922 635.364 117.844 639.971 Q114.788 644.554 108.978 644.554 Q103.168 644.554 100.089 639.971 Q97.0335 635.364 97.0335 626.638 Q97.0335 617.888 100.089 613.304 Q103.168 608.698 108.978 608.698 Z" fill="#000000" fill-rule="nonzero" fill-opacity="1" /><path clip-path="url(#clip560)" d="M139.14 612.401 Q135.529 612.401 133.7 615.966 Q131.894 619.508 131.894 626.638 Q131.894 633.744 133.7 637.309 Q135.529 640.85 139.14 640.85 Q142.774 640.85 144.58 637.309 Q146.408 633.744 146.408 626.638 Q146.408 619.508 144.58 615.966 Q142.774 612.401 139.14 612.401 M139.14 608.698 Q144.95 608.698 148.005 613.304 Q151.084 617.888 151.084 626.638 Q151.084 635.364 148.005 639.971 Q144.95 644.554 139.14 644.554 Q133.33 644.554 130.251 639.971 Q127.195 635.364 127.195 626.638 Q127.195 617.888 130.251 613.304 Q133.33 608.698 139.14 608.698 Z" fill="#000000" fill-rule="nonzero" fill-opacity="1" /><path clip-path="url(#clip560)" d="M187.473 618.42 L176.894 629.045 L187.473 639.624 L184.718 642.424 L174.093 631.8 L163.468 642.424 L160.737 639.624 L171.292 629.045 L160.737 618.42 L163.468 615.619 L174.093 626.244 L184.718 615.619 L187.473 618.42 Z" fill="#000000" fill-rule="nonzero" fill-opacity="1" /><path clip-path="url(#clip560)" d="M199.834 639.948 L207.473 639.948 L207.473 613.582 L199.163 615.249 L199.163 610.989 L207.426 609.323 L212.102 609.323 L212.102 639.948 L219.741 639.948 L219.741 643.883 L199.834 643.883 L199.834 639.948 Z" fill="#000000" fill-rule="nonzero" fill-opacity="1" /><path clip-path="url(#clip560)" d="M239.186 612.401 Q235.574 612.401 233.746 615.966 Q231.94 619.508 231.94 626.638 Q231.94 633.744 233.746 637.309 Q235.574 640.85 239.186 640.85 Q242.82 640.85 244.625 637.309 Q246.454 633.744 246.454 626.638 Q246.454 619.508 244.625 615.966 Q242.82 612.401 239.186 612.401 M239.186 608.698 Q244.996 608.698 248.051 613.304 Q251.13 617.888 251.13 626.638 Q251.13 635.364 248.051 639.971 Q244.996 644.554 239.186 644.554 Q233.375 644.554 230.297 639.971 Q227.241 635.364 227.241 626.638 Q227.241 617.888 230.297 613.304 Q233.375 608.698 239.186 608.698 Z" fill="#000000" fill-rule="nonzero" fill-opacity="1" /><path clip-path="url(#clip560)" d="M263.806 591.703 L254.214 606.692 L263.806 606.692 L263.806 591.703 M262.81 588.392 L267.587 588.392 L267.587 606.692 L271.593 606.692 L271.593 609.852 L267.587 609.852 L267.587 616.472 L263.806 616.472 L263.806 609.852 L251.13 609.852 L251.13 606.185 L262.81 588.392 Z" fill="#000000" fill-rule="nonzero" fill-opacity="1" /><path clip-path="url(#clip560)" d="M56.8515 436.541 L64.4903 436.541 L64.4903 410.176 L56.1802 411.842 L56.1802 407.583 L64.444 405.917 L69.1199 405.917 L69.1199 436.541 L76.7588 436.541 L76.7588 440.477 L56.8515 440.477 L56.8515 436.541 Z" fill="#000000" fill-rule="nonzero" fill-opacity="1" /><path clip-path="url(#clip560)" d="M86.2032 434.597 L91.0874 434.597 L91.0874 440.477 L86.2032 440.477 L86.2032 434.597 Z" fill="#000000" fill-rule="nonzero" fill-opacity="1" /><path clip-path="url(#clip560)" d="M111.272 408.995 Q107.661 408.995 105.833 412.56 Q104.027 416.102 104.027 423.231 Q104.027 430.338 105.833 433.903 Q107.661 437.444 111.272 437.444 Q114.907 437.444 116.712 433.903 Q118.541 430.338 118.541 423.231 Q118.541 416.102 116.712 412.56 Q114.907 408.995 111.272 408.995 M111.272 405.292 Q117.083 405.292 120.138 409.898 Q123.217 414.481 123.217 423.231 Q123.217 431.958 120.138 436.565 Q117.083 441.148 111.272 441.148 Q105.462 441.148 102.384 436.565 Q99.3281 431.958 99.3281 423.231 Q99.3281 414.481 102.384 409.898 Q105.462 405.292 111.272 405.292 Z" fill="#000000" fill-rule="nonzero" fill-opacity="1" /><path clip-path="url(#clip560)" d="M141.434 408.995 Q137.823 408.995 135.995 412.56 Q134.189 416.102 134.189 423.231 Q134.189 430.338 135.995 433.903 Q137.823 437.444 141.434 437.444 Q145.069 437.444 146.874 433.903 Q148.703 430.338 148.703 423.231 Q148.703 416.102 146.874 412.56 Q145.069 408.995 141.434 408.995 M141.434 405.292 Q147.245 405.292 150.3 409.898 Q153.379 414.481 153.379 423.231 Q153.379 431.958 150.3 436.565 Q147.245 441.148 141.434 441.148 Q135.624 441.148 132.546 436.565 Q129.49 431.958 129.49 423.231 Q129.49 414.481 132.546 409.898 Q135.624 405.292 141.434 405.292 Z" fill="#000000" fill-rule="nonzero" fill-opacity="1" /><path clip-path="url(#clip560)" d="M189.767 415.014 L179.189 425.639 L189.767 436.217 L187.013 439.018 L176.388 428.393 L165.763 439.018 L163.031 436.217 L173.587 425.639 L163.031 415.014 L165.763 412.213 L176.388 422.838 L187.013 412.213 L189.767 415.014 Z" fill="#000000" fill-rule="nonzero" fill-opacity="1" /><path clip-path="url(#clip560)" d="M202.128 436.541 L209.767 436.541 L209.767 410.176 L201.457 411.842 L201.457 407.583 L209.721 405.917 L214.397 405.917 L214.397 436.541 L222.036 436.541 L222.036 440.477 L202.128 440.477 L202.128 436.541 Z" fill="#000000" fill-rule="nonzero" fill-opacity="1" /><path clip-path="url(#clip560)" d="M241.48 408.995 Q237.869 408.995 236.04 412.56 Q234.235 416.102 234.235 423.231 Q234.235 430.338 236.04 433.903 Q237.869 437.444 241.48 437.444 Q245.114 437.444 246.92 433.903 Q248.749 430.338 248.749 423.231 Q248.749 416.102 246.92 412.56 Q245.114 408.995 241.48 408.995 M241.48 405.292 Q247.29 405.292 250.346 409.898 Q253.424 414.481 253.424 423.231 Q253.424 431.958 250.346 436.565 Q247.29 441.148 241.48 441.148 Q235.67 441.148 232.591 436.565 Q229.536 431.958 229.536 423.231 Q229.536 414.481 232.591 409.898 Q235.67 405.292 241.48 405.292 Z" fill="#000000" fill-rule="nonzero" fill-opacity="1" /><path clip-path="url(#clip560)" d="M254.609 384.986 L269.524 384.986 L269.524 388.183 L258.089 388.183 L258.089 395.067 Q258.916 394.785 259.744 394.653 Q260.571 394.503 261.399 394.503 Q266.101 394.503 268.847 397.08 Q271.593 399.656 271.593 404.057 Q271.593 408.59 268.772 411.11 Q265.95 413.612 260.816 413.612 Q259.048 413.612 257.205 413.311 Q255.38 413.01 253.424 412.408 L253.424 408.59 Q255.117 409.511 256.923 409.963 Q258.728 410.414 260.741 410.414 Q263.994 410.414 265.894 408.703 Q267.794 406.991 267.794 404.057 Q267.794 401.123 265.894 399.412 Q263.994 397.7 260.741 397.7 Q259.217 397.7 257.694 398.039 Q256.189 398.377 254.609 399.092 L254.609 384.986 Z" fill="#000000" fill-rule="nonzero" fill-opacity="1" /><path clip-path="url(#clip560)" d="M56.8515 233.135 L64.4903 233.135 L64.4903 206.77 L56.1802 208.436 L56.1802 204.177 L64.444 202.51 L69.1199 202.51 L69.1199 233.135 L76.7588 233.135 L76.7588 237.07 L56.8515 237.07 L56.8515 233.135 Z" fill="#000000" fill-rule="nonzero" fill-opacity="1" /><path clip-path="url(#clip560)" d="M86.2032 231.191 L91.0874 231.191 L91.0874 237.07 L86.2032 237.07 L86.2032 231.191 Z" fill="#000000" fill-rule="nonzero" fill-opacity="1" /><path clip-path="url(#clip560)" d="M105.3 233.135 L121.62 233.135 L121.62 237.07 L99.6753 237.07 L99.6753 233.135 Q102.337 230.381 106.921 225.751 Q111.527 221.098 112.708 219.756 Q114.953 217.232 115.833 215.496 Q116.735 213.737 116.735 212.047 Q116.735 209.293 114.791 207.557 Q112.87 205.82 109.768 205.82 Q107.569 205.82 105.115 206.584 Q102.685 207.348 99.9068 208.899 L99.9068 204.177 Q102.731 203.043 105.185 202.464 Q107.638 201.885 109.675 201.885 Q115.046 201.885 118.24 204.57 Q121.434 207.256 121.434 211.746 Q121.434 213.876 120.624 215.797 Q119.837 217.695 117.731 220.288 Q117.152 220.959 114.05 224.177 Q110.948 227.371 105.3 233.135 Z" fill="#000000" fill-rule="nonzero" fill-opacity="1" /><path clip-path="url(#clip560)" d="M141.434 205.589 Q137.823 205.589 135.995 209.154 Q134.189 212.695 134.189 219.825 Q134.189 226.931 135.995 230.496 Q137.823 234.038 141.434 234.038 Q145.069 234.038 146.874 230.496 Q148.703 226.931 148.703 219.825 Q148.703 212.695 146.874 209.154 Q145.069 205.589 141.434 205.589 M141.434 201.885 Q147.245 201.885 150.3 206.492 Q153.379 211.075 153.379 219.825 Q153.379 228.552 150.3 233.158 Q147.245 237.742 141.434 237.742 Q135.624 237.742 132.546 233.158 Q129.49 228.552 129.49 219.825 Q129.49 211.075 132.546 206.492 Q135.624 201.885 141.434 201.885 Z" fill="#000000" fill-rule="nonzero" fill-opacity="1" /><path clip-path="url(#clip560)" d="M189.767 211.607 L179.189 222.232 L189.767 232.811 L187.013 235.612 L176.388 224.987 L165.763 235.612 L163.031 232.811 L173.587 222.232 L163.031 211.607 L165.763 208.807 L176.388 219.432 L187.013 208.807 L189.767 211.607 Z" fill="#000000" fill-rule="nonzero" fill-opacity="1" /><path clip-path="url(#clip560)" d="M202.128 233.135 L209.767 233.135 L209.767 206.77 L201.457 208.436 L201.457 204.177 L209.721 202.51 L214.397 202.51 L214.397 233.135 L222.036 233.135 L222.036 237.07 L202.128 237.07 L202.128 233.135 Z" fill="#000000" fill-rule="nonzero" fill-opacity="1" /><path clip-path="url(#clip560)" d="M241.48 205.589 Q237.869 205.589 236.04 209.154 Q234.235 212.695 234.235 219.825 Q234.235 226.931 236.04 230.496 Q237.869 234.038 241.48 234.038 Q245.114 234.038 246.92 230.496 Q248.749 226.931 248.749 219.825 Q248.749 212.695 246.92 209.154 Q245.114 205.589 241.48 205.589 M241.48 201.885 Q247.29 201.885 250.346 206.492 Q253.424 211.075 253.424 219.825 Q253.424 228.552 250.346 233.158 Q247.29 237.742 241.48 237.742 Q235.67 237.742 232.591 233.158 Q229.536 228.552 229.536 219.825 Q229.536 211.075 232.591 206.492 Q235.67 201.885 241.48 201.885 Z" fill="#000000" fill-rule="nonzero" fill-opacity="1" /><path clip-path="url(#clip560)" d="M254.609 181.58 L269.524 181.58 L269.524 184.777 L258.089 184.777 L258.089 191.661 Q258.916 191.379 259.744 191.247 Q260.571 191.097 261.399 191.097 Q266.101 191.097 268.847 193.673 Q271.593 196.25 271.593 200.651 Q271.593 205.184 268.772 207.704 Q265.95 210.205 260.816 210.205 Q259.048 210.205 257.205 209.904 Q255.38 209.603 253.424 209.002 L253.424 205.184 Q255.117 206.105 256.923 206.557 Q258.728 207.008 260.741 207.008 Q263.994 207.008 265.894 205.297 Q267.794 203.585 267.794 200.651 Q267.794 197.717 265.894 196.005 Q263.994 194.294 260.741 194.294 Q259.217 194.294 257.694 194.633 Q256.189 194.971 254.609 195.686 L254.609 181.58 Z" fill="#000000" fill-rule="nonzero" fill-opacity="1" /><path clip-path="url(#clip562)" d="M365.475 1428.55 L404.85 1428.55 L404.85 1428.55 L444.226 1428.55 L444.226 1428.55 L483.601 1428.55 L483.601 1428.55 L522.977 1428.55 L522.977 1428.55 L562.352 1428.55 L562.352 1428.55 L601.728 1428.55 L601.728 1428.54 L641.103 1428.54 L641.103 1428.54 L680.479 1428.54 L680.479 1428.54 L719.854 1428.54 L719.854 1428.53 L759.23 1428.53 L759.23 1428.52 L798.605 1428.52 L798.605 1428.51 L837.981 1428.51 L837.981 1428.49 L877.356 1428.49 L877.356 1428.46 L916.732 1428.46 L916.732 1428.41 L956.107 1428.41 L956.107 1428.35 L995.483 1428.35 L995.483 1428.25 L1034.86 1428.25 L1034.86 1428.11 L1074.23 1428.11 L1074.23 1427.9 L1113.61 1427.9 L1113.61 1427.57 L1152.98 1427.57 L1152.98 1427.08 L1192.36 1427.08 L1192.36 1426.29 L1231.74 1426.29 L1231.74 1424.98 L1271.11 1424.98 L1271.11 1422.72 L1310.49 1422.72 L1310.49 1418.49 L1349.86 1418.49 L1349.86 1409.76 L1389.24 1409.76 L1389.24 1389.36 L1428.61 1389.36 L1428.61 1334.5 L1467.99 1334.5 L1467.99 1169.63 L1507.36 1169.63 L1507.36 704.068 L1546.74 704.068 L1546.74 87.6286 L1586.12 87.6286 L1586.12 912.153 L1625.49 912.153 L1625.49 1431.13 L1664.87 1431.13 L1664.87 1433.78 L1704.24 1433.78 L1704.24 1433.78 L1743.62 1433.78 L1743.62 1433.78 L1782.99 1433.78 L1782.99 1433.78 L1822.37 1433.78 L1822.37 1433.78 L1861.74 1433.78 L1861.74 1433.78 L1901.12 1433.78 L1901.12 1433.78 L1940.49 1433.78 L1940.49 1433.78 L1979.87 1433.78 L1979.87 1433.78 L2019.25 1433.78 L2019.25 1433.78 L2058.62 1433.78 L2058.62 1433.78 L2098 1433.78 L2098 1433.78 L2137.37 1433.78 L2137.37 1433.78 L2176.75 1433.78 L2176.75 1433.78 L2216.12 1433.78 L2216.12 1433.78 L2255.5 1433.78 L2255.5 1433.78 L2294.87 1433.78 L2294.87 1433.78 L2255.5 1433.78 L2255.5 1433.78 L2216.12 1433.78 L2216.12 1433.78 L2176.75 1433.78 L2176.75 1433.78 L2137.37 1433.78 L2137.37 1433.78 L2098 1433.78 L2098 1433.78 L2058.62 1433.78 L2058.62 1433.78 L2019.25 1433.78 L2019.25 1433.78 L1979.87 1433.78 L1979.87 1433.78 L1940.49 1433.78 L1940.49 1433.78 L1901.12 1433.78 L1901.12 1433.78 L1861.74 1433.78 L1861.74 1433.78 L1822.37 1433.78 L1822.37 1433.78 L1782.99 1433.78 L1782.99 1433.78 L1743.62 1433.78 L1743.62 1433.78 L1704.24 1433.78 L1704.24 1433.78 L1664.87 1433.78 L1664.87 1433.78 L1625.49 1433.78 L1625.49 1433.78 L1586.12 1433.78 L1586.12 1433.78 L1546.74 1433.78 L1546.74 1433.78 L1507.36 1433.78 L1507.36 1433.78 L1467.99 1433.78 L1467.99 1433.78 L1428.61 1433.78 L1428.61 1433.78 L1389.24 1433.78 L1389.24 1433.78 L1349.86 1433.78 L1349.86 1433.78 L1310.49 1433.78 L1310.49 1433.78 L1271.11 1433.78 L1271.11 1433.78 L1231.74 1433.78 L1231.74 1433.78 L1192.36 1433.78 L1192.36 1433.78 L1152.98 1433.78 L1152.98 1433.78 L1113.61 1433.78 L1113.61 1433.78 L1074.23 1433.78 L1074.23 1433.78 L1034.86 1433.78 L1034.86 1433.78 L995.483 1433.78 L995.483 1433.78 L956.107 1433.78 L956.107 1433.78 L916.732 1433.78 L916.732 1433.78 L877.356 1433.78 L877.356 1433.78 L837.981 1433.78 L837.981 1433.78 L798.605 1433.78 L798.605 1433.78 L759.23 1433.78 L759.23 1433.78 L719.854 1433.78 L719.854 1433.78 L680.479 1433.78 L680.479 1433.78 L641.103 1433.78 L641.103 1433.78 L601.728 1433.78 L601.728 1433.78 L562.352 1433.78 L562.352 1433.78 L522.977 1433.78 L522.977 1433.78 L483.601 1433.78 L483.601 1433.78 L444.226 1433.78 L444.226 1433.78 L404.85 1433.78 L404.85 1433.78 L365.475 1433.78  Z" fill="#009af9" fill-rule="evenodd" fill-opacity="1"/>
<polyline clip-path="url(#clip562)" style="stroke:#009af9; stroke-linecap:round; stroke-linejoin:round; stroke-width:4; stroke-opacity:1; fill:none" points="365.475,1428.55 404.85,1428.55 404.85,1428.55 444.226,1428.55 444.226,1428.55 483.601,1428.55 483.601,1428.55 522.977,1428.55 522.977,1428.55 562.352,1428.55 562.352,1428.55 601.728,1428.55 601.728,1428.54 641.103,1428.54 641.103,1428.54 680.479,1428.54 680.479,1428.54 719.854,1428.54 719.854,1428.53 759.23,1428.53 759.23,1428.52 798.605,1428.52 798.605,1428.51 837.981,1428.51 837.981,1428.49 877.356,1428.49 877.356,1428.46 916.732,1428.46 916.732,1428.41 956.107,1428.41 956.107,1428.35 995.483,1428.35 995.483,1428.25 1034.86,1428.25 1034.86,1428.11 1074.23,1428.11 1074.23,1427.9 1113.61,1427.9 1113.61,1427.57 1152.98,1427.57 1152.98,1427.08 1192.36,1427.08 1192.36,1426.29 1231.74,1426.29 1231.74,1424.98 1271.11,1424.98 1271.11,1422.72 1310.49,1422.72 1310.49,1418.49 1349.86,1418.49 1349.86,1409.76 1389.24,1409.76 1389.24,1389.36 1428.61,1389.36 1428.61,1334.5 1467.99,1334.5 1467.99,1169.63 1507.36,1169.63 1507.36,704.068 1546.74,704.068 1546.74,87.6286 1586.12,87.6286 1586.12,912.153 1625.49,912.153 1625.49,1431.13 1664.87,1431.13 1664.87,1433.78 1704.24,1433.78 1704.24,1433.78 1743.62,1433.78 1782.99,1433.78 1822.37,1433.78 1861.74,1433.78 1901.12,1433.78 1940.49,1433.78 1979.87,1433.78 2019.25,1433.78 2058.62,1433.78 2098,1433.78 2137.37,1433.78 2176.75,1433.78 2216.12,1433.78 2255.5,1433.78 2294.87,1433.78 "/>
<path clip-path="url(#clip560)" d="M1935.55 198.488 L2284.58 198.488 L2284.58 94.8081 L1935.55 94.8081  Z" fill="#ffffff" fill-rule="evenodd" fill-opacity="1"/>
<polyline clip-path="url(#clip560)" style="stroke:#000000; stroke-linecap:round; stroke-linejoin:round; stroke-width:4; stroke-opacity:1; fill:none" points="1935.55,198.488 2284.58,198.488 2284.58,94.8081 1935.55,94.8081 1935.55,198.488 "/>
<path clip-path="url(#clip560)" d="M1958.28 167.384 L2094.62 167.384 L2094.62 125.912 L1958.28 125.912 L1958.28 167.384  Z" fill="#009af9" fill-rule="evenodd" fill-opacity="1"/>
<polyline clip-path="url(#clip560)" style="stroke:#009af9; stroke-linecap:round; stroke-linejoin:round; stroke-width:4; stroke-opacity:1; fill:none" points="1958.28,125.912 2094.62,125.912 "/>
<path clip-path="url(#clip560)" d="M2117.35 158.049 L2122.23 158.049 L2122.23 163.928 L2117.35 163.928 L2117.35 158.049 M2117.35 139.414 L2122.23 139.414 L2122.23 145.294 L2117.35 145.294 L2117.35 139.414 Z" fill="#000000" fill-rule="nonzero" fill-opacity="1" /><path clip-path="url(#clip560)" d="M2132.23 127.91 L2136.49 127.91 L2136.49 163.928 L2132.23 163.928 L2132.23 127.91 Z" fill="#000000" fill-rule="nonzero" fill-opacity="1" /><path clip-path="url(#clip560)" d="M2145.4 138.002 L2149.66 138.002 L2149.66 163.928 L2145.4 163.928 L2145.4 138.002 M2145.4 127.91 L2149.66 127.91 L2149.66 133.303 L2145.4 133.303 L2145.4 127.91 Z" fill="#000000" fill-rule="nonzero" fill-opacity="1" /><path clip-path="url(#clip560)" d="M2180.12 148.28 L2180.12 163.928 L2175.86 163.928 L2175.86 148.419 Q2175.86 144.738 2174.43 142.91 Q2172.99 141.081 2170.12 141.081 Q2166.68 141.081 2164.68 143.28 Q2162.69 145.479 2162.69 149.275 L2162.69 163.928 L2158.41 163.928 L2158.41 138.002 L2162.69 138.002 L2162.69 142.03 Q2164.22 139.692 2166.28 138.535 Q2168.36 137.377 2171.07 137.377 Q2175.54 137.377 2177.83 140.155 Q2180.12 142.91 2180.12 148.28 Z" fill="#000000" fill-rule="nonzero" fill-opacity="1" /><path clip-path="url(#clip560)" d="M2210.8 149.9 L2210.8 151.984 L2191.21 151.984 Q2191.49 156.382 2193.85 158.697 Q2196.24 160.988 2200.47 160.988 Q2202.92 160.988 2205.22 160.386 Q2207.53 159.785 2209.8 158.581 L2209.8 162.609 Q2207.51 163.581 2205.1 164.09 Q2202.69 164.599 2200.22 164.599 Q2194.01 164.599 2190.38 160.988 Q2186.77 157.377 2186.77 151.22 Q2186.77 144.854 2190.19 141.127 Q2193.64 137.377 2199.48 137.377 Q2204.71 137.377 2207.74 140.757 Q2210.8 144.113 2210.8 149.9 M2206.54 148.65 Q2206.49 145.155 2204.57 143.072 Q2202.67 140.988 2199.52 140.988 Q2195.96 140.988 2193.8 143.002 Q2191.67 145.016 2191.35 148.674 L2206.54 148.65 Z" fill="#000000" fill-rule="nonzero" fill-opacity="1" /><path clip-path="url(#clip560)" d="M2229.57 150.896 Q2224.41 150.896 2222.42 152.076 Q2220.42 153.257 2220.42 156.104 Q2220.42 158.373 2221.91 159.715 Q2223.41 161.035 2225.98 161.035 Q2229.52 161.035 2231.65 158.535 Q2233.8 156.011 2233.8 151.845 L2233.8 150.896 L2229.57 150.896 M2238.06 149.137 L2238.06 163.928 L2233.8 163.928 L2233.8 159.993 Q2232.35 162.354 2230.17 163.488 Q2227.99 164.599 2224.85 164.599 Q2220.86 164.599 2218.5 162.377 Q2216.17 160.132 2216.17 156.382 Q2216.17 152.007 2219.08 149.785 Q2222.02 147.562 2227.83 147.562 L2233.8 147.562 L2233.8 147.146 Q2233.8 144.206 2231.86 142.609 Q2229.94 140.988 2226.44 140.988 Q2224.22 140.988 2222.11 141.521 Q2220.01 142.053 2218.06 143.118 L2218.06 139.183 Q2220.4 138.28 2222.6 137.84 Q2224.8 137.377 2226.88 137.377 Q2232.51 137.377 2235.29 140.294 Q2238.06 143.211 2238.06 149.137 Z" fill="#000000" fill-rule="nonzero" fill-opacity="1" /><path clip-path="url(#clip560)" d="M2261.86 141.984 Q2261.14 141.567 2260.29 141.382 Q2259.45 141.174 2258.43 141.174 Q2254.82 141.174 2252.88 143.535 Q2250.96 145.873 2250.96 150.271 L2250.96 163.928 L2246.67 163.928 L2246.67 138.002 L2250.96 138.002 L2250.96 142.03 Q2252.3 139.669 2254.45 138.535 Q2256.61 137.377 2259.68 137.377 Q2260.12 137.377 2260.66 137.447 Q2261.19 137.493 2261.84 137.609 L2261.86 141.984 Z" fill="#000000" fill-rule="nonzero" fill-opacity="1" /></svg>
