<?xml version="1.0" encoding="utf-8"?>
<svg xmlns="http://www.w3.org/2000/svg" xmlns:xlink="http://www.w3.org/1999/xlink" width="600" height="400" viewBox="0 0 2400 1600">
<defs>
  <clipPath id="clip160">
    <rect x="0" y="0" width="2400" height="1600"/>
  </clipPath>
</defs>
<path clip-path="url(#clip160)" d="M0 1600 L2400 1600 L2400 0 L0 0  Z" fill="#ffffff" fill-rule="evenodd" fill-opacity="1"/>
<defs>
  <clipPath id="clip161">
    <rect x="480" y="0" width="1681" height="1600"/>
  </clipPath>
</defs>
<path clip-path="url(#clip160)" d="M156.112 1474.16 L2352.76 1474.16 L2352.76 47.2441 L156.112 47.2441  Z" fill="#ffffff" fill-rule="evenodd" fill-opacity="1"/>
<defs>
  <clipPath id="clip162">
    <rect x="156" y="47" width="2198" height="1428"/>
  </clipPath>
</defs>
<polyline clip-path="url(#clip162)" style="stroke:#000000; stroke-linecap:round; stroke-linejoin:round; stroke-width:2; stroke-opacity:0.1; fill:none" points="218.281,1474.16 218.281,47.2441 "/>
<polyline clip-path="url(#clip162)" style="stroke:#000000; stroke-linecap:round; stroke-linejoin:round; stroke-width:2; stroke-opacity:0.1; fill:none" points="1513.47,1474.16 1513.47,47.2441 "/>
<polyline clip-path="url(#clip160)" style="stroke:#000000; stroke-linecap:round; stroke-linejoin:round; stroke-width:4; stroke-opacity:1; fill:none" points="156.112,1474.16 2352.76,1474.16 "/>
<polyline clip-path="url(#clip160)" style="stroke:#000000; stroke-linecap:round; stroke-linejoin:round; stroke-width:4; stroke-opacity:1; fill:none" points="218.281,1474.16 218.281,1455.27 "/>
<polyline clip-path="url(#clip160)" style="stroke:#000000; stroke-linecap:round; stroke-linejoin:round; stroke-width:4; stroke-opacity:1; fill:none" points="1513.47,1474.16 1513.47,1455.27 "/>
<path clip-path="url(#clip160)" d="M155.645 1548.29 L163.284 1548.29 L163.284 1521.92 L154.974 1523.59 L154.974 1519.33 L163.237 1517.66 L167.913 1517.66 L167.913 1548.29 L175.552 1548.29 L175.552 1552.22 L155.645 1552.22 L155.645 1548.29 Z" fill="#000000" fill-rule="nonzero" fill-opacity="1" /><path clip-path="url(#clip160)" d="M194.997 1520.74 Q191.385 1520.74 189.557 1524.31 Q187.751 1527.85 187.751 1534.98 Q187.751 1542.09 189.557 1545.65 Q191.385 1549.19 194.997 1549.19 Q198.631 1549.19 200.436 1545.65 Q202.265 1542.09 202.265 1534.98 Q202.265 1527.85 200.436 1524.31 Q198.631 1520.74 194.997 1520.74 M194.997 1517.04 Q200.807 1517.04 203.862 1521.65 Q206.941 1526.23 206.941 1534.98 Q206.941 1543.71 203.862 1548.31 Q200.807 1552.9 194.997 1552.9 Q189.186 1552.9 186.108 1548.31 Q183.052 1543.71 183.052 1534.98 Q183.052 1526.23 186.108 1521.65 Q189.186 1517.04 194.997 1517.04 Z" fill="#000000" fill-rule="nonzero" fill-opacity="1" /><path clip-path="url(#clip160)" d="M206.941 1511.14 L231.052 1511.14 L231.052 1514.34 L206.941 1514.34 L206.941 1511.14 Z" fill="#000000" fill-rule="nonzero" fill-opacity="1" /><path clip-path="url(#clip160)" d="M239.911 1521.62 L246.118 1521.62 L246.118 1500.19 L239.366 1501.55 L239.366 1498.09 L246.08 1496.73 L249.879 1496.73 L249.879 1521.62 L256.086 1521.62 L256.086 1524.81 L239.911 1524.81 L239.911 1521.62 Z" fill="#000000" fill-rule="nonzero" fill-opacity="1" /><path clip-path="url(#clip160)" d="M271.884 1499.24 Q268.95 1499.24 267.464 1502.13 Q265.997 1505.01 265.997 1510.8 Q265.997 1516.58 267.464 1519.47 Q268.95 1522.35 271.884 1522.35 Q274.837 1522.35 276.304 1519.47 Q277.79 1516.58 277.79 1510.8 Q277.79 1505.01 276.304 1502.13 Q274.837 1499.24 271.884 1499.24 M271.884 1496.23 Q276.605 1496.23 279.088 1499.97 Q281.589 1503.69 281.589 1510.8 Q281.589 1517.89 279.088 1521.64 Q276.605 1525.36 271.884 1525.36 Q267.163 1525.36 264.662 1521.64 Q262.179 1517.89 262.179 1510.8 Q262.179 1503.69 264.662 1499.97 Q267.163 1496.23 271.884 1496.23 Z" fill="#000000" fill-rule="nonzero" fill-opacity="1" /><path clip-path="url(#clip160)" d="M1463.49 1548.29 L1471.13 1548.29 L1471.13 1521.92 L1462.82 1523.59 L1462.82 1519.33 L1471.09 1517.66 L1475.76 1517.66 L1475.76 1548.29 L1483.4 1548.29 L1483.4 1552.22 L1463.49 1552.22 L1463.49 1548.29 Z" fill="#000000" fill-rule="nonzero" fill-opacity="1" /><path clip-path="url(#clip160)" d="M1502.85 1520.74 Q1499.23 1520.74 1497.41 1524.31 Q1495.6 1527.85 1495.6 1534.98 Q1495.6 1542.09 1497.41 1545.65 Q1499.23 1549.19 1502.85 1549.19 Q1506.48 1549.19 1508.28 1545.65 Q1510.11 1542.09 1510.11 1534.98 Q1510.11 1527.85 1508.28 1524.31 Q1506.48 1520.74 1502.85 1520.74 M1502.85 1517.04 Q1508.66 1517.04 1511.71 1521.65 Q1514.79 1526.23 1514.79 1534.98 Q1514.79 1543.71 1511.71 1548.31 Q1508.66 1552.9 1502.85 1552.9 Q1497.03 1552.9 1493.96 1548.31 Q1490.9 1543.71 1490.9 1534.98 Q1490.9 1526.23 1493.96 1521.65 Q1497.03 1517.04 1502.85 1517.04 Z" fill="#000000" fill-rule="nonzero" fill-opacity="1" /><path clip-path="url(#clip160)" d="M1514.79 1511.14 L1538.9 1511.14 L1538.9 1514.34 L1514.79 1514.34 L1514.79 1511.14 Z" fill="#000000" fill-rule="nonzero" fill-opacity="1" /><path clip-path="url(#clip160)" d="M1547.14 1496.73 L1562.05 1496.73 L1562.05 1499.93 L1550.62 1499.93 L1550.62 1506.82 Q1551.45 1506.53 1552.27 1506.4 Q1553.1 1506.25 1553.93 1506.25 Q1558.63 1506.25 1561.38 1508.83 Q1564.12 1511.4 1564.12 1515.81 Q1564.12 1520.34 1561.3 1522.86 Q1558.48 1525.36 1553.35 1525.36 Q1551.58 1525.36 1549.73 1525.06 Q1547.91 1524.76 1545.95 1524.16 L1545.95 1520.34 Q1547.65 1521.26 1549.45 1521.71 Q1551.26 1522.16 1553.27 1522.16 Q1556.52 1522.16 1558.42 1520.45 Q1560.32 1518.74 1560.32 1515.81 Q1560.32 1512.87 1558.42 1511.16 Q1556.52 1509.45 1553.27 1509.45 Q1551.75 1509.45 1550.22 1509.79 Q1548.72 1510.13 1547.14 1510.84 L1547.14 1496.73 Z" fill="#000000" fill-rule="nonzero" fill-opacity="1" /><polyline clip-path="url(#clip162)" style="stroke:#000000; stroke-linecap:round; stroke-linejoin:round; stroke-width:2; stroke-opacity:0.1; fill:none" points="156.112,1433.79 2352.76,1433.79 "/>
<polyline clip-path="url(#clip162)" style="stroke:#000000; stroke-linecap:round; stroke-linejoin:round; stroke-width:2; stroke-opacity:0.1; fill:none" points="156.112,1096.13 2352.76,1096.13 "/>
<polyline clip-path="url(#clip162)" style="stroke:#000000; stroke-linecap:round; stroke-linejoin:round; stroke-width:2; stroke-opacity:0.1; fill:none" points="156.112,758.478 2352.76,758.478 "/>
<polyline clip-path="url(#clip162)" style="stroke:#000000; stroke-linecap:round; stroke-linejoin:round; stroke-width:2; stroke-opacity:0.1; fill:none" points="156.112,420.822 2352.76,420.822 "/>
<polyline clip-path="url(#clip162)" style="stroke:#000000; stroke-linecap:round; stroke-linejoin:round; stroke-width:2; stroke-opacity:0.1; fill:none" points="156.112,83.1671 2352.76,83.1671 "/>
<polyline clip-path="url(#clip160)" style="stroke:#000000; stroke-linecap:round; stroke-linejoin:round; stroke-width:4; stroke-opacity:1; fill:none" points="156.112,1474.16 156.112,47.2441 "/>
<polyline clip-path="url(#clip160)" style="stroke:#000000; stroke-linecap:round; stroke-linejoin:round; stroke-width:4; stroke-opacity:1; fill:none" points="156.112,1433.79 175.01,1433.79 "/>
<polyline clip-path="url(#clip160)" style="stroke:#000000; stroke-linecap:round; stroke-linejoin:round; stroke-width:4; stroke-opacity:1; fill:none" points="156.112,1096.13 175.01,1096.13 "/>
<polyline clip-path="url(#clip160)" style="stroke:#000000; stroke-linecap:round; stroke-linejoin:round; stroke-width:4; stroke-opacity:1; fill:none" points="156.112,758.478 175.01,758.478 "/>
<polyline clip-path="url(#clip160)" style="stroke:#000000; stroke-linecap:round; stroke-linejoin:round; stroke-width:4; stroke-opacity:1; fill:none" points="156.112,420.822 175.01,420.822 "/>
<polyline clip-path="url(#clip160)" style="stroke:#000000; stroke-linecap:round; stroke-linejoin:round; stroke-width:4; stroke-opacity:1; fill:none" points="156.112,83.1671 175.01,83.1671 "/>
<path clip-path="url(#clip160)" d="M62.9365 1419.59 Q59.3254 1419.59 57.4967 1423.15 Q55.6912 1426.69 55.6912 1433.82 Q55.6912 1440.93 57.4967 1444.49 Q59.3254 1448.04 62.9365 1448.04 Q66.5707 1448.04 68.3763 1444.49 Q70.205 1440.93 70.205 1433.82 Q70.205 1426.69 68.3763 1423.15 Q66.5707 1419.59 62.9365 1419.59 M62.9365 1415.88 Q68.7467 1415.88 71.8022 1420.49 Q74.8809 1425.07 74.8809 1433.82 Q74.8809 1442.55 71.8022 1447.16 Q68.7467 1451.74 62.9365 1451.74 Q57.1264 1451.74 54.0477 1447.16 Q50.9921 1442.55 50.9921 1433.82 Q50.9921 1425.07 54.0477 1420.49 Q57.1264 1415.88 62.9365 1415.88 Z" fill="#000000" fill-rule="nonzero" fill-opacity="1" /><path clip-path="url(#clip160)" d="M83.0984 1445.19 L87.9827 1445.19 L87.9827 1451.07 L83.0984 1451.07 L83.0984 1445.19 Z" fill="#000000" fill-rule="nonzero" fill-opacity="1" /><path clip-path="url(#clip160)" d="M108.168 1419.59 Q104.557 1419.59 102.728 1423.15 Q100.922 1426.69 100.922 1433.82 Q100.922 1440.93 102.728 1444.49 Q104.557 1448.04 108.168 1448.04 Q111.802 1448.04 113.608 1444.49 Q115.436 1440.93 115.436 1433.82 Q115.436 1426.69 113.608 1423.15 Q111.802 1419.59 108.168 1419.59 M108.168 1415.88 Q113.978 1415.88 117.033 1420.49 Q120.112 1425.07 120.112 1433.82 Q120.112 1442.55 117.033 1447.16 Q113.978 1451.74 108.168 1451.74 Q102.358 1451.74 99.2789 1447.16 Q96.2234 1442.55 96.2234 1433.82 Q96.2234 1425.07 99.2789 1420.49 Q102.358 1415.88 108.168 1415.88 Z" fill="#000000" fill-rule="nonzero" fill-opacity="1" /><path clip-path="url(#clip160)" d="M63.9319 1081.93 Q60.3208 1081.93 58.4921 1085.5 Q56.6865 1089.04 56.6865 1096.17 Q56.6865 1103.27 58.4921 1106.84 Q60.3208 1110.38 63.9319 1110.38 Q67.5661 1110.38 69.3717 1106.84 Q71.2004 1103.27 71.2004 1096.17 Q71.2004 1089.04 69.3717 1085.5 Q67.5661 1081.93 63.9319 1081.93 M63.9319 1078.23 Q69.742 1078.23 72.7976 1082.83 Q75.8763 1087.42 75.8763 1096.17 Q75.8763 1104.89 72.7976 1109.5 Q69.742 1114.08 63.9319 1114.08 Q58.1217 1114.08 55.043 1109.5 Q51.9875 1104.89 51.9875 1096.17 Q51.9875 1087.42 55.043 1082.83 Q58.1217 1078.23 63.9319 1078.23 Z" fill="#000000" fill-rule="nonzero" fill-opacity="1" /><path clip-path="url(#clip160)" d="M84.0938 1107.53 L88.978 1107.53 L88.978 1113.41 L84.0938 1113.41 L84.0938 1107.53 Z" fill="#000000" fill-rule="nonzero" fill-opacity="1" /><path clip-path="url(#clip160)" d="M99.2095 1078.85 L117.566 1078.85 L117.566 1082.79 L103.492 1082.79 L103.492 1091.26 Q104.51 1090.91 105.529 1090.75 Q106.547 1090.57 107.566 1090.57 Q113.353 1090.57 116.733 1093.74 Q120.112 1096.91 120.112 1102.32 Q120.112 1107.9 116.64 1111.01 Q113.168 1114.08 106.848 1114.08 Q104.672 1114.08 102.404 1113.71 Q100.159 1113.34 97.7511 1112.6 L97.7511 1107.9 Q99.8345 1109.04 102.057 1109.59 Q104.279 1110.15 106.756 1110.15 Q110.76 1110.15 113.098 1108.04 Q115.436 1105.94 115.436 1102.32 Q115.436 1098.71 113.098 1096.61 Q110.76 1094.5 106.756 1094.5 Q104.881 1094.5 103.006 1094.92 Q101.154 1095.33 99.2095 1096.21 L99.2095 1078.85 Z" fill="#000000" fill-rule="nonzero" fill-opacity="1" /><path clip-path="url(#clip160)" d="M53.7467 771.822 L61.3856 771.822 L61.3856 745.457 L53.0754 747.123 L53.0754 742.864 L61.3393 741.198 L66.0152 741.198 L66.0152 771.822 L73.654 771.822 L73.654 775.758 L53.7467 775.758 L53.7467 771.822 Z" fill="#000000" fill-rule="nonzero" fill-opacity="1" /><path clip-path="url(#clip160)" d="M83.0984 769.878 L87.9827 769.878 L87.9827 775.758 L83.0984 775.758 L83.0984 769.878 Z" fill="#000000" fill-rule="nonzero" fill-opacity="1" /><path clip-path="url(#clip160)" d="M108.168 744.276 Q104.557 744.276 102.728 747.841 Q100.922 751.383 100.922 758.512 Q100.922 765.619 102.728 769.184 Q104.557 772.725 108.168 772.725 Q111.802 772.725 113.608 769.184 Q115.436 765.619 115.436 758.512 Q115.436 751.383 113.608 747.841 Q111.802 744.276 108.168 744.276 M108.168 740.573 Q113.978 740.573 117.033 745.179 Q120.112 749.762 120.112 758.512 Q120.112 767.239 117.033 771.846 Q113.978 776.429 108.168 776.429 Q102.358 776.429 99.2789 771.846 Q96.2234 767.239 96.2234 758.512 Q96.2234 749.762 99.2789 745.179 Q102.358 740.573 108.168 740.573 Z" fill="#000000" fill-rule="nonzero" fill-opacity="1" /><path clip-path="url(#clip160)" d="M54.7421 434.167 L62.381 434.167 L62.381 407.802 L54.0708 409.468 L54.0708 405.209 L62.3347 403.542 L67.0106 403.542 L67.0106 434.167 L74.6494 434.167 L74.6494 438.102 L54.7421 438.102 L54.7421 434.167 Z" fill="#000000" fill-rule="nonzero" fill-opacity="1" /><path clip-path="url(#clip160)" d="M84.0938 432.223 L88.978 432.223 L88.978 438.102 L84.0938 438.102 L84.0938 432.223 Z" fill="#000000" fill-rule="nonzero" fill-opacity="1" /><path clip-path="url(#clip160)" d="M99.2095 403.542 L117.566 403.542 L117.566 407.477 L103.492 407.477 L103.492 415.95 Q104.51 415.602 105.529 415.44 Q106.547 415.255 107.566 415.255 Q113.353 415.255 116.733 418.426 Q120.112 421.598 120.112 427.014 Q120.112 432.593 116.64 435.695 Q113.168 438.774 106.848 438.774 Q104.672 438.774 102.404 438.403 Q100.159 438.033 97.7511 437.292 L97.7511 432.593 Q99.8345 433.727 102.057 434.283 Q104.279 434.838 106.756 434.838 Q110.76 434.838 113.098 432.732 Q115.436 430.626 115.436 427.014 Q115.436 423.403 113.098 421.297 Q110.76 419.19 106.756 419.19 Q104.881 419.19 103.006 419.607 Q101.154 420.024 99.2095 420.903 L99.2095 403.542 Z" fill="#000000" fill-rule="nonzero" fill-opacity="1" /><path clip-path="url(#clip160)" d="M56.9643 96.5119 L73.2837 96.5119 L73.2837 100.447 L51.3393 100.447 L51.3393 96.5119 Q54.0014 93.7573 58.5847 89.1277 Q63.1911 84.4749 64.3717 83.1323 Q66.617 80.6092 67.4967 78.8731 Q68.3994 77.1139 68.3994 75.4241 Q68.3994 72.6694 66.455 70.9333 Q64.5337 69.1972 61.4319 69.1972 Q59.2328 69.1972 56.7791 69.9611 Q54.3486 70.725 51.5708 72.2759 L51.5708 67.5537 Q54.3949 66.4195 56.8486 65.8408 Q59.3023 65.2621 61.3393 65.2621 Q66.7096 65.2621 69.9041 67.9472 Q73.0985 70.6324 73.0985 75.1231 Q73.0985 77.2528 72.2883 79.174 Q71.5013 81.0722 69.3948 83.6648 Q68.8161 84.336 65.7143 87.5536 Q62.6124 90.748 56.9643 96.5119 Z" fill="#000000" fill-rule="nonzero" fill-opacity="1" /><path clip-path="url(#clip160)" d="M83.0984 94.5675 L87.9827 94.5675 L87.9827 100.447 L83.0984 100.447 L83.0984 94.5675 Z" fill="#000000" fill-rule="nonzero" fill-opacity="1" /><path clip-path="url(#clip160)" d="M108.168 68.9658 Q104.557 68.9658 102.728 72.5306 Q100.922 76.0722 100.922 83.2018 Q100.922 90.3082 102.728 93.873 Q104.557 97.4147 108.168 97.4147 Q111.802 97.4147 113.608 93.873 Q115.436 90.3082 115.436 83.2018 Q115.436 76.0722 113.608 72.5306 Q111.802 68.9658 108.168 68.9658 M108.168 65.2621 Q113.978 65.2621 117.033 69.8685 Q120.112 74.4518 120.112 83.2018 Q120.112 91.9286 117.033 96.5351 Q113.978 101.118 108.168 101.118 Q102.358 101.118 99.2789 96.5351 Q96.2234 91.9286 96.2234 83.2018 Q96.2234 74.4518 99.2789 69.8685 Q102.358 65.2621 108.168 65.2621 Z" fill="#000000" fill-rule="nonzero" fill-opacity="1" /><polyline clip-path="url(#clip162)" style="stroke:#009af9; stroke-linecap:round; stroke-linejoin:round; stroke-width:12; stroke-opacity:1; fill:none" points="218.281,1433.71 239.214,1433.69 260.146,1433.67 281.078,1433.65 302.011,1433.62 322.943,1433.59 343.876,1433.55 364.808,1433.5 385.74,1433.44 406.673,1433.37 427.605,1433.29 448.537,1433.18 469.47,1433.06 490.402,1432.91 511.335,1432.74 532.267,1432.52 553.199,1432.26 574.132,1431.95 595.064,1431.58 615.996,1431.13 636.929,1430.6 657.861,1429.95 678.794,1429.17 699.726,1428.24 720.658,1427.11 741.591,1425.77 762.523,1424.15 783.456,1422.21 804.388,1419.88 825.32,1417.1 846.253,1413.76 867.185,1409.78 888.117,1405.02 909.05,1399.35 929.982,1392.61 950.915,1384.61 971.847,1375.14 992.779,1363.96 1013.71,1350.83 1034.64,1335.46 1055.58,1317.58 1076.51,1296.91 1097.44,1273.18 1118.37,1246.2 1139.31,1215.83 1160.24,1182.08 1181.17,1145.11 1202.1,1105.32 1223.04,1063.33 1243.97,1020.08 1264.9,976.748 1285.83,934.711 1306.76,895.448 1327.7,860.353 1348.63,830.547 1369.56,806.69 1390.49,788.86 1411.43,776.549 1432.36,768.792 1453.29,764.393 1474.22,762.183 1495.16,761.216 1516.09,760.855 1537.02,760.743 1557.95,760.715 1578.89,760.71 1599.82,760.709 1620.75,760.709 1641.68,760.709 1662.62,760.709 1683.55,760.709 1704.48,760.709 1725.41,760.709 1746.34,760.709 1767.28,760.709 1788.21,760.709 1809.14,760.709 1830.07,760.709 1851.01,760.709 1871.94,760.709 1892.87,760.709 1913.8,760.709 1934.74,760.709 1955.67,760.709 1976.6,760.709 1997.53,760.709 2018.47,760.709 2039.4,760.709 2060.33,760.709 2081.26,760.709 2102.2,760.709 2123.13,760.709 2144.06,760.709 2164.99,760.709 2185.92,760.709 2206.86,760.709 2227.79,760.709 2248.72,760.709 2269.65,760.709 2290.59,760.709 "/>
<polyline clip-path="url(#clip162)" style="stroke:#e26f46; stroke-linecap:round; stroke-linejoin:round; stroke-width:12; stroke-opacity:1; fill:none" points="218.281,1433.78 239.214,1433.78 260.146,1433.78 281.078,1433.77 302.011,1433.77 322.943,1433.77 343.876,1433.76 364.808,1433.76 385.74,1433.75 406.673,1433.75 427.605,1433.74 448.537,1433.73 469.47,1433.71 490.402,1433.7 511.335,1433.68 532.267,1433.66 553.199,1433.63 574.132,1433.6 595.064,1433.56 615.996,1433.52 636.929,1433.46 657.861,1433.4 678.794,1433.32 699.726,1433.22 720.658,1433.11 741.591,1432.97 762.523,1432.81 783.456,1432.61 804.388,1432.37 825.32,1432.08 846.253,1431.73 867.185,1431.31 888.117,1430.81 909.05,1430.21 929.982,1429.48 950.915,1428.61 971.847,1427.56 992.779,1426.3 1013.71,1424.79 1034.64,1422.98 1055.58,1420.8 1076.51,1418.2 1097.44,1415.08 1118.37,1411.35 1139.31,1406.9 1160.24,1401.59 1181.17,1395.27 1202.1,1387.77 1223.04,1378.87 1243.97,1368.37 1264.9,1356 1285.83,1341.5 1306.76,1324.6 1327.7,1305 1348.63,1282.45 1369.56,1256.71 1390.49,1227.62 1411.43,1195.13 1432.36,1159.33 1453.29,1120.54 1474.22,1079.28 1495.16,1036.38 1516.09,992.924 1537.02,950.229 1557.95,909.754 1578.89,872.945 1599.82,841.05 1620.75,814.921 1641.68,794.859 1662.62,780.572 1683.55,771.241 1704.48,765.726 1725.41,762.821 1746.34,761.479 1767.28,760.947 1788.21,760.769 1809.14,760.721 1830.07,760.71 1851.01,760.708 1871.94,760.708 1892.87,760.708 1913.8,760.708 1934.74,760.708 1955.67,760.708 1976.6,760.708 1997.53,760.708 2018.47,760.708 2039.4,760.708 2060.33,760.708 2081.26,760.708 2102.2,760.708 2123.13,760.708 2144.06,760.708 2164.99,760.708 2185.92,760.708 2206.86,760.708 2227.79,760.708 2248.72,760.708 2269.65,760.708 2290.59,760.708 "/>
<polyline clip-path="url(#clip162)" style="stroke:#3da44d; stroke-linecap:round; stroke-linejoin:round; stroke-width:12; stroke-opacity:1; fill:none" points="218.281,1433.7 239.214,1433.68 260.146,1433.66 281.078,1433.64 302.011,1433.61 322.943,1433.57 343.876,1433.52 364.808,1433.47 385.74,1433.41 406.673,1433.33 427.605,1433.24 448.537,1433.12 469.47,1432.99 490.402,1432.83 511.335,1432.63 532.267,1432.39 553.199,1432.11 574.132,1431.77 595.064,1431.36 615.996,1430.87 636.929,1430.27 657.861,1429.56 678.794,1428.7 699.726,1427.67 720.658,1426.44 741.591,1424.95 762.523,1423.17 783.456,1421.03 804.388,1418.46 825.32,1415.38 846.253,1411.7 867.185,1407.3 888.117,1402.04 909.05,1395.77 929.982,1388.3 950.915,1379.43 971.847,1368.91 992.779,1356.47 1013.71,1341.83 1034.64,1324.65 1055.58,1304.6 1076.51,1281.32 1097.44,1254.48 1118.37,1223.76 1139.31,1188.95 1160.24,1149.89 1181.17,1106.6 1202.1,1059.3 1223.04,1008.42 1243.97,954.663 1264.9,898.959 1285.83,842.427 1306.76,786.26 1327.7,731.57 1348.63,679.21 1369.56,629.611 1390.49,582.69 1411.43,537.887 1432.36,494.337 1453.29,451.142 1474.22,407.676 1495.16,363.809 1516.09,319.991 1537.02,277.184 1557.95,236.681 1578.89,199.867 1599.82,167.971 1620.75,141.841 1641.68,121.78 1662.62,107.492 1683.55,98.1615 1704.48,92.6469 1725.41,89.7415 1746.34,88.4 1767.28,87.8676 1788.21,87.6899 1809.14,87.6413 1830.07,87.6307 1851.01,87.6289 1871.94,87.6287 1892.87,87.6286 1913.8,87.6286 1934.74,87.6286 1955.67,87.6286 1976.6,87.6286 1997.53,87.6286 2018.47,87.6286 2039.4,87.6286 2060.33,87.6286 2081.26,87.6286 2102.2,87.6286 2123.13,87.6286 2144.06,87.6286 2164.99,87.6286 2185.92,87.6286 2206.86,87.6286 2227.79,87.6286 2248.72,87.6286 2269.65,87.6286 2290.59,87.6286 "/>
<path clip-path="url(#clip160)" d="M229.334 302.168 L705.64 302.168 L705.64 94.8081 L229.334 94.8081  Z" fill="#ffffff" fill-rule="evenodd" fill-opacity="1"/>
<polyline clip-path="url(#clip160)" style="stroke:#000000; stroke-linecap:round; stroke-linejoin:round; stroke-width:4; stroke-opacity:1; fill:none" points="229.334,302.168 705.64,302.168 705.64,94.8081 229.334,94.8081 229.334,302.168 "/>
<polyline clip-path="url(#clip160)" style="stroke:#009af9; stroke-linecap:round; stroke-linejoin:round; stroke-width:12; stroke-opacity:1; fill:none" points="253.741,146.648 400.184,146.648 "/>
<path clip-path="url(#clip160)" d="M428.873 160.039 L428.873 173.789 L424.591 173.789 L424.591 138.002 L428.873 138.002 L428.873 141.937 Q430.216 139.623 432.253 138.512 Q434.313 137.377 437.16 137.377 Q441.882 137.377 444.822 141.127 Q447.785 144.877 447.785 150.988 Q447.785 157.099 444.822 160.849 Q441.882 164.599 437.16 164.599 Q434.313 164.599 432.253 163.488 Q430.216 162.354 428.873 160.039 M443.364 150.988 Q443.364 146.289 441.419 143.627 Q439.498 140.942 436.119 140.942 Q432.739 140.942 430.794 143.627 Q428.873 146.289 428.873 150.988 Q428.873 155.687 430.794 158.373 Q432.739 161.035 436.119 161.035 Q439.498 161.035 441.419 158.373 Q443.364 155.687 443.364 150.988 Z" fill="#000000" fill-rule="nonzero" fill-opacity="1" /><path clip-path="url(#clip160)" d="M477.021 149.9 L477.021 151.984 L457.438 151.984 Q457.716 156.382 460.077 158.697 Q462.461 160.988 466.697 160.988 Q469.151 160.988 471.442 160.386 Q473.757 159.785 476.026 158.581 L476.026 162.609 Q473.734 163.581 471.327 164.09 Q468.919 164.599 466.442 164.599 Q460.239 164.599 456.605 160.988 Q452.993 157.377 452.993 151.22 Q452.993 144.854 456.419 141.127 Q459.868 137.377 465.702 137.377 Q470.933 137.377 473.966 140.757 Q477.021 144.113 477.021 149.9 M472.762 148.65 Q472.716 145.155 470.794 143.072 Q468.896 140.988 465.748 140.988 Q462.183 140.988 460.03 143.002 Q457.901 145.016 457.577 148.674 L472.762 148.65 Z" fill="#000000" fill-rule="nonzero" fill-opacity="1" /><path clip-path="url(#clip160)" d="M495.794 150.896 Q490.632 150.896 488.641 152.076 Q486.651 153.257 486.651 156.104 Q486.651 158.373 488.132 159.715 Q489.637 161.035 492.206 161.035 Q495.748 161.035 497.877 158.535 Q500.03 156.011 500.03 151.845 L500.03 150.896 L495.794 150.896 M504.289 149.137 L504.289 163.928 L500.03 163.928 L500.03 159.993 Q498.572 162.354 496.396 163.488 Q494.22 164.599 491.072 164.599 Q487.09 164.599 484.729 162.377 Q482.391 160.132 482.391 156.382 Q482.391 152.007 485.308 149.785 Q488.248 147.562 494.058 147.562 L500.03 147.562 L500.03 147.146 Q500.03 144.206 498.086 142.609 Q496.165 140.988 492.669 140.988 Q490.447 140.988 488.34 141.521 Q486.234 142.053 484.29 143.118 L484.29 139.183 Q486.628 138.28 488.827 137.84 Q491.026 137.377 493.109 137.377 Q498.734 137.377 501.512 140.294 Q504.289 143.211 504.289 149.137 Z" fill="#000000" fill-rule="nonzero" fill-opacity="1" /><path clip-path="url(#clip160)" d="M512.901 127.91 L517.183 127.91 L517.183 149.183 L529.891 138.002 L535.331 138.002 L521.581 150.132 L535.91 163.928 L530.354 163.928 L517.183 151.266 L517.183 163.928 L512.901 163.928 L512.901 127.91 Z" fill="#000000" fill-rule="nonzero" fill-opacity="1" /><path clip-path="url(#clip160)" d="M567.322 133.975 L560.979 151.174 L573.687 151.174 L567.322 133.975 M564.683 129.368 L569.984 129.368 L583.155 163.928 L578.294 163.928 L575.146 155.062 L559.567 155.062 L556.419 163.928 L551.488 163.928 L564.683 129.368 Z" fill="#000000" fill-rule="nonzero" fill-opacity="1" /><polyline clip-path="url(#clip160)" style="stroke:#e26f46; stroke-linecap:round; stroke-linejoin:round; stroke-width:12; stroke-opacity:1; fill:none" points="253.741,198.488 400.184,198.488 "/>
<path clip-path="url(#clip160)" d="M428.873 211.879 L428.873 225.629 L424.591 225.629 L424.591 189.842 L428.873 189.842 L428.873 193.777 Q430.216 191.463 432.253 190.352 Q434.313 189.217 437.16 189.217 Q441.882 189.217 444.822 192.967 Q447.785 196.717 447.785 202.828 Q447.785 208.939 444.822 212.689 Q441.882 216.439 437.16 216.439 Q434.313 216.439 432.253 215.328 Q430.216 214.194 428.873 211.879 M443.364 202.828 Q443.364 198.129 441.419 195.467 Q439.498 192.782 436.119 192.782 Q432.739 192.782 430.794 195.467 Q428.873 198.129 428.873 202.828 Q428.873 207.527 430.794 210.213 Q432.739 212.875 436.119 212.875 Q439.498 212.875 441.419 210.213 Q443.364 207.527 443.364 202.828 Z" fill="#000000" fill-rule="nonzero" fill-opacity="1" /><path clip-path="url(#clip160)" d="M477.021 201.74 L477.021 203.824 L457.438 203.824 Q457.716 208.222 460.077 210.537 Q462.461 212.828 466.697 212.828 Q469.151 212.828 471.442 212.226 Q473.757 211.625 476.026 210.421 L476.026 214.449 Q473.734 215.421 471.327 215.93 Q468.919 216.439 466.442 216.439 Q460.239 216.439 456.605 212.828 Q452.993 209.217 452.993 203.06 Q452.993 196.694 456.419 192.967 Q459.868 189.217 465.702 189.217 Q470.933 189.217 473.966 192.597 Q477.021 195.953 477.021 201.74 M472.762 200.49 Q472.716 196.995 470.794 194.912 Q468.896 192.828 465.748 192.828 Q462.183 192.828 460.03 194.842 Q457.901 196.856 457.577 200.514 L472.762 200.49 Z" fill="#000000" fill-rule="nonzero" fill-opacity="1" /><path clip-path="url(#clip160)" d="M495.794 202.736 Q490.632 202.736 488.641 203.916 Q486.651 205.097 486.651 207.944 Q486.651 210.213 488.132 211.555 Q489.637 212.875 492.206 212.875 Q495.748 212.875 497.877 210.375 Q500.03 207.851 500.03 203.685 L500.03 202.736 L495.794 202.736 M504.289 200.977 L504.289 215.768 L500.03 215.768 L500.03 211.833 Q498.572 214.194 496.396 215.328 Q494.22 216.439 491.072 216.439 Q487.09 216.439 484.729 214.217 Q482.391 211.972 482.391 208.222 Q482.391 203.847 485.308 201.625 Q488.248 199.402 494.058 199.402 L500.03 199.402 L500.03 198.986 Q500.03 196.046 498.086 194.449 Q496.165 192.828 492.669 192.828 Q490.447 192.828 488.34 193.361 Q486.234 193.893 484.29 194.958 L484.29 191.023 Q486.628 190.12 488.827 189.68 Q491.026 189.217 493.109 189.217 Q498.734 189.217 501.512 192.134 Q504.289 195.051 504.289 200.977 Z" fill="#000000" fill-rule="nonzero" fill-opacity="1" /><path clip-path="url(#clip160)" d="M512.901 179.75 L517.183 179.75 L517.183 201.023 L529.891 189.842 L535.331 189.842 L521.581 201.972 L535.91 215.768 L530.354 215.768 L517.183 203.106 L517.183 215.768 L512.901 215.768 L512.901 179.75 Z" fill="#000000" fill-rule="nonzero" fill-opacity="1" /><path clip-path="url(#clip160)" d="M560.447 199.264 L560.447 211.926 L567.947 211.926 Q571.72 211.926 573.525 210.375 Q575.354 208.801 575.354 205.583 Q575.354 202.342 573.525 200.814 Q571.72 199.264 567.947 199.264 L560.447 199.264 M560.447 185.051 L560.447 195.467 L567.368 195.467 Q570.794 195.467 572.46 194.194 Q574.15 192.898 574.15 190.259 Q574.15 187.643 572.46 186.347 Q570.794 185.051 567.368 185.051 L560.447 185.051 M555.771 181.208 L567.715 181.208 Q573.062 181.208 575.956 183.43 Q578.849 185.653 578.849 189.75 Q578.849 192.921 577.368 194.796 Q575.886 196.671 573.016 197.134 Q576.465 197.875 578.363 200.236 Q580.284 202.574 580.284 206.092 Q580.284 210.722 577.136 213.245 Q573.988 215.768 568.178 215.768 L555.771 215.768 L555.771 181.208 Z" fill="#000000" fill-rule="nonzero" fill-opacity="1" /><polyline clip-path="url(#clip160)" style="stroke:#3da44d; stroke-linecap:round; stroke-linejoin:round; stroke-width:12; stroke-opacity:1; fill:none" points="253.741,250.328 400.184,250.328 "/>
<path clip-path="url(#clip160)" d="M443.364 254.668 Q443.364 249.969 441.419 247.307 Q439.498 244.622 436.119 244.622 Q432.739 244.622 430.794 247.307 Q428.873 249.969 428.873 254.668 Q428.873 259.367 430.794 262.053 Q432.739 264.715 436.119 264.715 Q439.498 264.715 441.419 262.053 Q443.364 259.367 443.364 254.668 M428.873 245.617 Q430.216 243.303 432.253 242.192 Q434.313 241.057 437.16 241.057 Q441.882 241.057 444.822 244.807 Q447.785 248.557 447.785 254.668 Q447.785 260.779 444.822 264.529 Q441.882 268.279 437.16 268.279 Q434.313 268.279 432.253 267.168 Q430.216 266.034 428.873 263.719 L428.873 267.608 L424.591 267.608 L424.591 231.59 L428.873 231.59 L428.873 245.617 Z" fill="#000000" fill-rule="nonzero" fill-opacity="1" /><path clip-path="url(#clip160)" d="M464.892 244.668 Q461.466 244.668 459.475 247.354 Q457.484 250.016 457.484 254.668 Q457.484 259.321 459.452 262.006 Q461.442 264.668 464.892 264.668 Q468.294 264.668 470.285 261.983 Q472.276 259.298 472.276 254.668 Q472.276 250.062 470.285 247.377 Q468.294 244.668 464.892 244.668 M464.892 241.057 Q470.447 241.057 473.618 244.668 Q476.79 248.28 476.79 254.668 Q476.79 261.034 473.618 264.668 Q470.447 268.279 464.892 268.279 Q459.313 268.279 456.142 264.668 Q452.993 261.034 452.993 254.668 Q452.993 248.28 456.142 244.668 Q459.313 241.057 464.892 241.057 Z" fill="#000000" fill-rule="nonzero" fill-opacity="1" /><path clip-path="url(#clip160)" d="M488.063 234.321 L488.063 241.682 L496.836 241.682 L496.836 244.992 L488.063 244.992 L488.063 259.066 Q488.063 262.238 488.919 263.141 Q489.799 264.043 492.461 264.043 L496.836 264.043 L496.836 267.608 L492.461 267.608 Q487.53 267.608 485.655 265.779 Q483.78 263.928 483.78 259.066 L483.78 244.992 L480.655 244.992 L480.655 241.682 L483.78 241.682 L483.78 234.321 L488.063 234.321 Z" fill="#000000" fill-rule="nonzero" fill-opacity="1" /><path clip-path="url(#clip160)" d="M523.988 251.96 L523.988 267.608 L519.729 267.608 L519.729 252.099 Q519.729 248.418 518.294 246.59 Q516.859 244.761 513.988 244.761 Q510.539 244.761 508.549 246.96 Q506.558 249.159 506.558 252.955 L506.558 267.608 L502.276 267.608 L502.276 231.59 L506.558 231.59 L506.558 245.71 Q508.086 243.372 510.146 242.215 Q512.229 241.057 514.938 241.057 Q519.405 241.057 521.697 243.835 Q523.988 246.59 523.988 251.96 Z" fill="#000000" fill-rule="nonzero" fill-opacity="1" /><path clip-path="url(#clip160)" d="M551.673 263.719 L551.673 277.469 L547.391 277.469 L547.391 241.682 L551.673 241.682 L551.673 245.617 Q553.016 243.303 555.053 242.192 Q557.113 241.057 559.96 241.057 Q564.683 241.057 567.622 244.807 Q570.585 248.557 570.585 254.668 Q570.585 260.779 567.622 264.529 Q564.683 268.279 559.96 268.279 Q557.113 268.279 555.053 267.168 Q553.016 266.034 551.673 263.719 M566.164 254.668 Q566.164 249.969 564.22 247.307 Q562.298 244.622 558.919 244.622 Q555.539 244.622 553.595 247.307 Q551.673 249.969 551.673 254.668 Q551.673 259.367 553.595 262.053 Q555.539 264.715 558.919 264.715 Q562.298 264.715 564.22 262.053 Q566.164 259.367 566.164 254.668 Z" fill="#000000" fill-rule="nonzero" fill-opacity="1" /><path clip-path="url(#clip160)" d="M599.821 253.58 L599.821 255.664 L580.238 255.664 Q580.516 260.062 582.877 262.377 Q585.261 264.668 589.497 264.668 Q591.951 264.668 594.243 264.066 Q596.557 263.465 598.826 262.261 L598.826 266.289 Q596.534 267.261 594.127 267.77 Q591.72 268.279 589.243 268.279 Q583.039 268.279 579.405 264.668 Q575.794 261.057 575.794 254.9 Q575.794 248.534 579.22 244.807 Q582.669 241.057 588.502 241.057 Q593.733 241.057 596.766 244.437 Q599.821 247.793 599.821 253.58 M595.562 252.33 Q595.516 248.835 593.595 246.752 Q591.696 244.668 588.548 244.668 Q584.983 244.668 582.831 246.682 Q580.701 248.696 580.377 252.354 L595.562 252.33 Z" fill="#000000" fill-rule="nonzero" fill-opacity="1" /><path clip-path="url(#clip160)" d="M618.594 254.576 Q613.432 254.576 611.442 255.756 Q609.451 256.937 609.451 259.784 Q609.451 262.053 610.932 263.395 Q612.437 264.715 615.006 264.715 Q618.548 264.715 620.678 262.215 Q622.83 259.691 622.83 255.525 L622.83 254.576 L618.594 254.576 M627.09 252.817 L627.09 267.608 L622.83 267.608 L622.83 263.673 Q621.372 266.034 619.196 267.168 Q617.02 268.279 613.872 268.279 Q609.891 268.279 607.53 266.057 Q605.192 263.812 605.192 260.062 Q605.192 255.687 608.108 253.465 Q611.048 251.242 616.858 251.242 L622.83 251.242 L622.83 250.826 Q622.83 247.886 620.886 246.289 Q618.965 244.668 615.469 244.668 Q613.247 244.668 611.141 245.201 Q609.034 245.733 607.09 246.798 L607.09 242.863 Q609.428 241.96 611.627 241.52 Q613.826 241.057 615.909 241.057 Q621.534 241.057 624.312 243.974 Q627.09 246.891 627.09 252.817 Z" fill="#000000" fill-rule="nonzero" fill-opacity="1" /><path clip-path="url(#clip160)" d="M635.701 231.59 L639.983 231.59 L639.983 252.863 L652.691 241.682 L658.131 241.682 L644.381 253.812 L658.71 267.608 L653.154 267.608 L639.983 254.946 L639.983 267.608 L635.701 267.608 L635.701 231.59 Z" fill="#000000" fill-rule="nonzero" fill-opacity="1" /><path clip-path="url(#clip160)" d="M679.844 242.446 L679.844 246.474 Q678.039 245.548 676.094 245.085 Q674.15 244.622 672.066 244.622 Q668.895 244.622 667.298 245.594 Q665.724 246.567 665.724 248.511 Q665.724 249.992 666.858 250.849 Q667.992 251.682 671.418 252.446 L672.877 252.77 Q677.414 253.742 679.312 255.525 Q681.233 257.284 681.233 260.455 Q681.233 264.066 678.363 266.173 Q675.515 268.279 670.515 268.279 Q668.432 268.279 666.164 267.863 Q663.918 267.469 661.418 266.659 L661.418 262.261 Q663.779 263.488 666.071 264.113 Q668.363 264.715 670.608 264.715 Q673.617 264.715 675.238 263.696 Q676.858 262.654 676.858 260.779 Q676.858 259.043 675.677 258.117 Q674.52 257.192 670.562 256.335 L669.08 255.988 Q665.122 255.154 663.363 253.442 Q661.603 251.705 661.603 248.696 Q661.603 245.039 664.196 243.048 Q666.789 241.057 671.557 241.057 Q673.918 241.057 676.002 241.405 Q678.085 241.752 679.844 242.446 Z" fill="#000000" fill-rule="nonzero" fill-opacity="1" /></svg>
