<?xml version="1.0" encoding="utf-8"?>
<svg xmlns="http://www.w3.org/2000/svg" xmlns:xlink="http://www.w3.org/1999/xlink" width="600" height="400" viewBox="0 0 2400 1600">
<defs>
  <clipPath id="clip860">
    <rect x="0" y="0" width="2400" height="1600"/>
  </clipPath>
</defs>
<path clip-path="url(#clip860)" d="M0 1600 L2400 1600 L2400 0 L0 0  Z" fill="#ffffff" fill-rule="evenodd" fill-opacity="1"/>
<defs>
  <clipPath id="clip861">
    <rect x="480" y="0" width="1681" height="1600"/>
  </clipPath>
</defs>
<path clip-path="url(#clip860)" d="M305.298 1474.16 L2352.76 1474.16 L2352.76 47.2441 L305.298 47.2441  Z" fill="#ffffff" fill-rule="evenodd" fill-opacity="1"/>
<defs>
  <clipPath id="clip862">
    <rect x="305" y="47" width="2048" height="1428"/>
  </clipPath>
</defs>
<polyline clip-path="url(#clip862)" style="stroke:#000000; stroke-linecap:round; stroke-linejoin:round; stroke-width:2; stroke-opacity:0.1; fill:none" points="305.298,1474.16 305.298,47.2441 "/>
<polyline clip-path="url(#clip862)" style="stroke:#000000; stroke-linecap:round; stroke-linejoin:round; stroke-width:2; stroke-opacity:0.1; fill:none" points="817.163,1474.16 817.163,47.2441 "/>
<polyline clip-path="url(#clip862)" style="stroke:#000000; stroke-linecap:round; stroke-linejoin:round; stroke-width:2; stroke-opacity:0.1; fill:none" points="1329.03,1474.16 1329.03,47.2441 "/>
<polyline clip-path="url(#clip862)" style="stroke:#000000; stroke-linecap:round; stroke-linejoin:round; stroke-width:2; stroke-opacity:0.1; fill:none" points="1840.89,1474.16 1840.89,47.2441 "/>
<polyline clip-path="url(#clip862)" style="stroke:#000000; stroke-linecap:round; stroke-linejoin:round; stroke-width:2; stroke-opacity:0.1; fill:none" points="2352.76,1474.16 2352.76,47.2441 "/>
<polyline clip-path="url(#clip862)" style="stroke:#000000; stroke-linecap:round; stroke-linejoin:round; stroke-width:2; stroke-opacity:0.1; fill:none" points="305.298,1433.78 2352.76,1433.78 "/>
<polyline clip-path="url(#clip862)" style="stroke:#000000; stroke-linecap:round; stroke-linejoin:round; stroke-width:2; stroke-opacity:0.1; fill:none" points="305.298,1231.55 2352.76,1231.55 "/>
<polyline clip-path="url(#clip862)" style="stroke:#000000; stroke-linecap:round; stroke-linejoin:round; stroke-width:2; stroke-opacity:0.1; fill:none" points="305.298,1029.31 2352.76,1029.31 "/>
<polyline clip-path="url(#clip862)" style="stroke:#000000; stroke-linecap:round; stroke-linejoin:round; stroke-width:2; stroke-opacity:0.1; fill:none" points="305.298,827.078 2352.76,827.078 "/>
<polyline clip-path="url(#clip862)" style="stroke:#000000; stroke-linecap:round; stroke-linejoin:round; stroke-width:2; stroke-opacity:0.1; fill:none" points="305.298,624.843 2352.76,624.843 "/>
<polyline clip-path="url(#clip862)" style="stroke:#000000; stroke-linecap:round; stroke-linejoin:round; stroke-width:2; stroke-opacity:0.1; fill:none" points="305.298,422.609 2352.76,422.609 "/>
<polyline clip-path="url(#clip862)" style="stroke:#000000; stroke-linecap:round; stroke-linejoin:round; stroke-width:2; stroke-opacity:0.1; fill:none" points="305.298,220.375 2352.76,220.375 "/>
<polyline clip-path="url(#clip860)" style="stroke:#000000; stroke-linecap:round; stroke-linejoin:round; stroke-width:4; stroke-opacity:1; fill:none" points="305.298,1474.16 2352.76,1474.16 "/>
<polyline clip-path="url(#clip860)" style="stroke:#000000; stroke-linecap:round; stroke-linejoin:round; stroke-width:4; stroke-opacity:1; fill:none" points="305.298,1474.16 305.298,1455.27 "/>
<polyline clip-path="url(#clip860)" style="stroke:#000000; stroke-linecap:round; stroke-linejoin:round; stroke-width:4; stroke-opacity:1; fill:none" points="817.163,1474.16 817.163,1455.27 "/>
<polyline clip-path="url(#clip860)" style="stroke:#000000; stroke-linecap:round; stroke-linejoin:round; stroke-width:4; stroke-opacity:1; fill:none" points="1329.03,1474.16 1329.03,1455.27 "/>
<polyline clip-path="url(#clip860)" style="stroke:#000000; stroke-linecap:round; stroke-linejoin:round; stroke-width:4; stroke-opacity:1; fill:none" points="1840.89,1474.16 1840.89,1455.27 "/>
<polyline clip-path="url(#clip860)" style="stroke:#000000; stroke-linecap:round; stroke-linejoin:round; stroke-width:4; stroke-opacity:1; fill:none" points="2352.76,1474.16 2352.76,1455.27 "/>
<path clip-path="url(#clip860)" d="M242.662 1548.29 L250.301 1548.29 L250.301 1521.92 L241.991 1523.59 L241.991 1519.33 L250.254 1517.66 L254.93 1517.66 L254.93 1548.29 L262.569 1548.29 L262.569 1552.22 L242.662 1552.22 L242.662 1548.29 Z" fill="#000000" fill-rule="nonzero" fill-opacity="1" /><path clip-path="url(#clip860)" d="M282.014 1520.74 Q278.402 1520.74 276.574 1524.31 Q274.768 1527.85 274.768 1534.98 Q274.768 1542.09 276.574 1545.65 Q278.402 1549.19 282.014 1549.19 Q285.648 1549.19 287.453 1545.65 Q289.282 1542.09 289.282 1534.98 Q289.282 1527.85 287.453 1524.31 Q285.648 1520.74 282.014 1520.74 M282.014 1517.04 Q287.824 1517.04 290.879 1521.65 Q293.958 1526.23 293.958 1534.98 Q293.958 1543.71 290.879 1548.31 Q287.824 1552.9 282.014 1552.9 Q276.203 1552.9 273.125 1548.31 Q270.069 1543.71 270.069 1534.98 Q270.069 1526.23 273.125 1521.65 Q276.203 1517.04 282.014 1517.04 Z" fill="#000000" fill-rule="nonzero" fill-opacity="1" /><path clip-path="url(#clip860)" d="M293.958 1511.14 L318.069 1511.14 L318.069 1514.34 L293.958 1514.34 L293.958 1511.14 Z" fill="#000000" fill-rule="nonzero" fill-opacity="1" /><path clip-path="url(#clip860)" d="M326.928 1521.62 L333.134 1521.62 L333.134 1500.19 L326.382 1501.55 L326.382 1498.09 L333.097 1496.73 L336.896 1496.73 L336.896 1521.62 L343.103 1521.62 L343.103 1524.81 L326.928 1524.81 L326.928 1521.62 Z" fill="#000000" fill-rule="nonzero" fill-opacity="1" /><path clip-path="url(#clip860)" d="M358.901 1499.24 Q355.967 1499.24 354.481 1502.13 Q353.014 1505.01 353.014 1510.8 Q353.014 1516.58 354.481 1519.47 Q355.967 1522.35 358.901 1522.35 Q361.854 1522.35 363.321 1519.47 Q364.807 1516.58 364.807 1510.8 Q364.807 1505.01 363.321 1502.13 Q361.854 1499.24 358.901 1499.24 M358.901 1496.23 Q363.622 1496.23 366.104 1499.97 Q368.606 1503.69 368.606 1510.8 Q368.606 1517.89 366.104 1521.64 Q363.622 1525.36 358.901 1525.36 Q354.18 1525.36 351.679 1521.64 Q349.196 1517.89 349.196 1510.8 Q349.196 1503.69 351.679 1499.97 Q354.18 1496.23 358.901 1496.23 Z" fill="#000000" fill-rule="nonzero" fill-opacity="1" /><path clip-path="url(#clip860)" d="M766.817 1548.29 L774.456 1548.29 L774.456 1521.92 L766.146 1523.59 L766.146 1519.33 L774.41 1517.66 L779.086 1517.66 L779.086 1548.29 L786.724 1548.29 L786.724 1552.22 L766.817 1552.22 L766.817 1548.29 Z" fill="#000000" fill-rule="nonzero" fill-opacity="1" /><path clip-path="url(#clip860)" d="M806.169 1520.74 Q802.558 1520.74 800.729 1524.31 Q798.923 1527.85 798.923 1534.98 Q798.923 1542.09 800.729 1545.65 Q802.558 1549.19 806.169 1549.19 Q809.803 1549.19 811.609 1545.65 Q813.437 1542.09 813.437 1534.98 Q813.437 1527.85 811.609 1524.31 Q809.803 1520.74 806.169 1520.74 M806.169 1517.04 Q811.979 1517.04 815.034 1521.65 Q818.113 1526.23 818.113 1534.98 Q818.113 1543.71 815.034 1548.31 Q811.979 1552.9 806.169 1552.9 Q800.359 1552.9 797.28 1548.31 Q794.224 1543.71 794.224 1534.98 Q794.224 1526.23 797.28 1521.65 Q800.359 1517.04 806.169 1517.04 Z" fill="#000000" fill-rule="nonzero" fill-opacity="1" /><path clip-path="url(#clip860)" d="M818.113 1511.14 L842.225 1511.14 L842.225 1514.34 L818.113 1514.34 L818.113 1511.14 Z" fill="#000000" fill-rule="nonzero" fill-opacity="1" /><path clip-path="url(#clip860)" d="M858.55 1511.48 Q855.842 1511.48 854.281 1512.93 Q852.738 1514.38 852.738 1516.92 Q852.738 1519.45 854.281 1520.9 Q855.842 1522.35 858.55 1522.35 Q861.258 1522.35 862.819 1520.9 Q864.38 1519.44 864.38 1516.92 Q864.38 1514.38 862.819 1512.93 Q861.277 1511.48 858.55 1511.48 M854.751 1509.86 Q852.306 1509.26 850.933 1507.59 Q849.579 1505.91 849.579 1503.51 Q849.579 1500.14 851.967 1498.18 Q854.375 1496.23 858.55 1496.23 Q862.744 1496.23 865.133 1498.18 Q867.521 1500.14 867.521 1503.51 Q867.521 1505.91 866.148 1507.59 Q864.794 1509.26 862.368 1509.86 Q865.114 1510.5 866.637 1512.36 Q868.179 1514.23 868.179 1516.92 Q868.179 1521 865.678 1523.18 Q863.195 1525.36 858.55 1525.36 Q853.904 1525.36 851.403 1523.18 Q848.92 1521 848.92 1516.92 Q848.92 1514.23 850.463 1512.36 Q852.005 1510.5 854.751 1509.86 M853.359 1503.86 Q853.359 1506.04 854.713 1507.27 Q856.086 1508.49 858.55 1508.49 Q860.995 1508.49 862.368 1507.27 Q863.76 1506.04 863.76 1503.86 Q863.76 1501.68 862.368 1500.46 Q860.995 1499.24 858.55 1499.24 Q856.086 1499.24 854.713 1500.46 Q853.359 1501.68 853.359 1503.86 Z" fill="#000000" fill-rule="nonzero" fill-opacity="1" /><path clip-path="url(#clip860)" d="M1278.58 1548.29 L1286.22 1548.29 L1286.22 1521.92 L1277.91 1523.59 L1277.91 1519.33 L1286.17 1517.66 L1290.85 1517.66 L1290.85 1548.29 L1298.49 1548.29 L1298.49 1552.22 L1278.58 1552.22 L1278.58 1548.29 Z" fill="#000000" fill-rule="nonzero" fill-opacity="1" /><path clip-path="url(#clip860)" d="M1317.93 1520.74 Q1314.32 1520.74 1312.49 1524.31 Q1310.68 1527.85 1310.68 1534.98 Q1310.68 1542.09 1312.49 1545.65 Q1314.32 1549.19 1317.93 1549.19 Q1321.56 1549.19 1323.37 1545.65 Q1325.2 1542.09 1325.2 1534.98 Q1325.2 1527.85 1323.37 1524.31 Q1321.56 1520.74 1317.93 1520.74 M1317.93 1517.04 Q1323.74 1517.04 1326.8 1521.65 Q1329.87 1526.23 1329.87 1534.98 Q1329.87 1543.71 1326.8 1548.31 Q1323.74 1552.9 1317.93 1552.9 Q1312.12 1552.9 1309.04 1548.31 Q1305.99 1543.71 1305.99 1534.98 Q1305.99 1526.23 1309.04 1521.65 Q1312.12 1517.04 1317.93 1517.04 Z" fill="#000000" fill-rule="nonzero" fill-opacity="1" /><path clip-path="url(#clip860)" d="M1329.87 1511.14 L1353.99 1511.14 L1353.99 1514.34 L1329.87 1514.34 L1329.87 1511.14 Z" fill="#000000" fill-rule="nonzero" fill-opacity="1" /><path clip-path="url(#clip860)" d="M1370.78 1509.26 Q1368.22 1509.26 1366.72 1511.01 Q1365.23 1512.76 1365.23 1515.81 Q1365.23 1518.83 1366.72 1520.6 Q1368.22 1522.35 1370.78 1522.35 Q1373.34 1522.35 1374.82 1520.6 Q1376.33 1518.83 1376.33 1515.81 Q1376.33 1512.76 1374.82 1511.01 Q1373.34 1509.26 1370.78 1509.26 M1378.32 1497.35 L1378.32 1500.82 Q1376.89 1500.14 1375.43 1499.78 Q1373.98 1499.42 1372.55 1499.42 Q1368.79 1499.42 1366.79 1501.96 Q1364.82 1504.5 1364.54 1509.64 Q1365.65 1508 1367.32 1507.13 Q1368.99 1506.25 1371.01 1506.25 Q1375.24 1506.25 1377.68 1508.83 Q1380.15 1511.39 1380.15 1515.81 Q1380.15 1520.13 1377.59 1522.75 Q1375.03 1525.36 1370.78 1525.36 Q1365.91 1525.36 1363.33 1521.64 Q1360.76 1517.89 1360.76 1510.8 Q1360.76 1504.14 1363.92 1500.19 Q1367.08 1496.23 1372.4 1496.23 Q1373.83 1496.23 1375.28 1496.51 Q1376.74 1496.79 1378.32 1497.35 Z" fill="#000000" fill-rule="nonzero" fill-opacity="1" /><path clip-path="url(#clip860)" d="M1790.31 1548.29 L1797.95 1548.29 L1797.95 1521.92 L1789.64 1523.59 L1789.64 1519.33 L1797.9 1517.66 L1802.58 1517.66 L1802.58 1548.29 L1810.22 1548.29 L1810.22 1552.22 L1790.31 1552.22 L1790.31 1548.29 Z" fill="#000000" fill-rule="nonzero" fill-opacity="1" /><path clip-path="url(#clip860)" d="M1829.66 1520.74 Q1826.05 1520.74 1824.22 1524.31 Q1822.42 1527.85 1822.42 1534.98 Q1822.42 1542.09 1824.22 1545.65 Q1826.05 1549.19 1829.66 1549.19 Q1833.3 1549.19 1835.1 1545.65 Q1836.93 1542.09 1836.93 1534.98 Q1836.93 1527.85 1835.1 1524.31 Q1833.3 1520.74 1829.66 1520.74 M1829.66 1517.04 Q1835.47 1517.04 1838.53 1521.65 Q1841.61 1526.23 1841.61 1534.98 Q1841.61 1543.71 1838.53 1548.31 Q1835.47 1552.9 1829.66 1552.9 Q1823.85 1552.9 1820.77 1548.31 Q1817.72 1543.71 1817.72 1534.98 Q1817.72 1526.23 1820.77 1521.65 Q1823.85 1517.04 1829.66 1517.04 Z" fill="#000000" fill-rule="nonzero" fill-opacity="1" /><path clip-path="url(#clip860)" d="M1841.61 1511.14 L1865.72 1511.14 L1865.72 1514.34 L1841.61 1514.34 L1841.61 1511.14 Z" fill="#000000" fill-rule="nonzero" fill-opacity="1" /><path clip-path="url(#clip860)" d="M1884.36 1500.04 L1874.77 1515.03 L1884.36 1515.03 L1884.36 1500.04 M1883.36 1496.73 L1888.14 1496.73 L1888.14 1515.03 L1892.14 1515.03 L1892.14 1518.19 L1888.14 1518.19 L1888.14 1524.81 L1884.36 1524.81 L1884.36 1518.19 L1871.68 1518.19 L1871.68 1514.53 L1883.36 1496.73 Z" fill="#000000" fill-rule="nonzero" fill-opacity="1" /><path clip-path="url(#clip860)" d="M2303.02 1548.29 L2310.66 1548.29 L2310.66 1521.92 L2302.35 1523.59 L2302.35 1519.33 L2310.61 1517.66 L2315.29 1517.66 L2315.29 1548.29 L2322.93 1548.29 L2322.93 1552.22 L2303.02 1552.22 L2303.02 1548.29 Z" fill="#000000" fill-rule="nonzero" fill-opacity="1" /><path clip-path="url(#clip860)" d="M2342.37 1520.74 Q2338.76 1520.74 2336.93 1524.31 Q2335.13 1527.85 2335.13 1534.98 Q2335.13 1542.09 2336.93 1545.65 Q2338.76 1549.19 2342.37 1549.19 Q2346.01 1549.19 2347.81 1545.65 Q2349.64 1542.09 2349.64 1534.98 Q2349.64 1527.85 2347.81 1524.31 Q2346.01 1520.74 2342.37 1520.74 M2342.37 1517.04 Q2348.18 1517.04 2351.24 1521.65 Q2354.32 1526.23 2354.32 1534.98 Q2354.32 1543.71 2351.24 1548.31 Q2348.18 1552.9 2342.37 1552.9 Q2336.56 1552.9 2333.48 1548.31 Q2330.43 1543.71 2330.43 1534.98 Q2330.43 1526.23 2333.48 1521.65 Q2336.56 1517.04 2342.37 1517.04 Z" fill="#000000" fill-rule="nonzero" fill-opacity="1" /><path clip-path="url(#clip860)" d="M2354.32 1511.14 L2378.43 1511.14 L2378.43 1514.34 L2354.32 1514.34 L2354.32 1511.14 Z" fill="#000000" fill-rule="nonzero" fill-opacity="1" /><path clip-path="url(#clip860)" d="M2389.9 1521.62 L2403.16 1521.62 L2403.16 1524.81 L2385.33 1524.81 L2385.33 1521.62 Q2387.49 1519.38 2391.22 1515.62 Q2394.96 1511.84 2395.92 1510.75 Q2397.74 1508.7 2398.46 1507.29 Q2399.19 1505.86 2399.19 1504.48 Q2399.19 1502.24 2397.61 1500.83 Q2396.05 1499.42 2393.53 1499.42 Q2391.75 1499.42 2389.75 1500.04 Q2387.78 1500.67 2385.52 1501.93 L2385.52 1498.09 Q2387.81 1497.17 2389.81 1496.7 Q2391.8 1496.23 2393.46 1496.23 Q2397.82 1496.23 2400.42 1498.41 Q2403.01 1500.59 2403.01 1504.24 Q2403.01 1505.97 2402.35 1507.53 Q2401.71 1509.07 2400 1511.18 Q2399.53 1511.72 2397.01 1514.34 Q2394.49 1516.93 2389.9 1521.62 Z" fill="#000000" fill-rule="nonzero" fill-opacity="1" /><polyline clip-path="url(#clip860)" style="stroke:#000000; stroke-linecap:round; stroke-linejoin:round; stroke-width:4; stroke-opacity:1; fill:none" points="305.298,1474.16 305.298,47.2441 "/>
<polyline clip-path="url(#clip860)" style="stroke:#000000; stroke-linecap:round; stroke-linejoin:round; stroke-width:4; stroke-opacity:1; fill:none" points="305.298,1433.78 324.196,1433.78 "/>
<polyline clip-path="url(#clip860)" style="stroke:#000000; stroke-linecap:round; stroke-linejoin:round; stroke-width:4; stroke-opacity:1; fill:none" points="305.298,1231.55 324.196,1231.55 "/>
<polyline clip-path="url(#clip860)" style="stroke:#000000; stroke-linecap:round; stroke-linejoin:round; stroke-width:4; stroke-opacity:1; fill:none" points="305.298,1029.31 324.196,1029.31 "/>
<polyline clip-path="url(#clip860)" style="stroke:#000000; stroke-linecap:round; stroke-linejoin:round; stroke-width:4; stroke-opacity:1; fill:none" points="305.298,827.078 324.196,827.078 "/>
<polyline clip-path="url(#clip860)" style="stroke:#000000; stroke-linecap:round; stroke-linejoin:round; stroke-width:4; stroke-opacity:1; fill:none" points="305.298,624.843 324.196,624.843 "/>
<polyline clip-path="url(#clip860)" style="stroke:#000000; stroke-linecap:round; stroke-linejoin:round; stroke-width:4; stroke-opacity:1; fill:none" points="305.298,422.609 324.196,422.609 "/>
<polyline clip-path="url(#clip860)" style="stroke:#000000; stroke-linecap:round; stroke-linejoin:round; stroke-width:4; stroke-opacity:1; fill:none" points="305.298,220.375 324.196,220.375 "/>
<path clip-path="url(#clip860)" d="M257.354 1419.58 Q253.743 1419.58 251.914 1423.14 Q250.109 1426.69 250.109 1433.81 Q250.109 1440.92 251.914 1444.49 Q253.743 1448.03 257.354 1448.03 Q260.988 1448.03 262.794 1444.49 Q264.622 1440.92 264.622 1433.81 Q264.622 1426.69 262.794 1423.14 Q260.988 1419.58 257.354 1419.58 M257.354 1415.88 Q263.164 1415.88 266.22 1420.48 Q269.298 1425.06 269.298 1433.81 Q269.298 1442.54 266.22 1447.15 Q263.164 1451.73 257.354 1451.73 Q251.544 1451.73 248.465 1447.15 Q245.409 1442.54 245.409 1433.81 Q245.409 1425.06 248.465 1420.48 Q251.544 1415.88 257.354 1415.88 Z" fill="#000000" fill-rule="nonzero" fill-opacity="1" /><path clip-path="url(#clip860)" d="M57.7745 1251.34 L74.0939 1251.34 L74.0939 1255.27 L52.1495 1255.27 L52.1495 1251.34 Q54.8115 1248.58 59.3949 1243.95 Q64.0013 1239.3 65.1819 1237.96 Q67.4272 1235.44 68.3068 1233.7 Q69.2096 1231.94 69.2096 1230.25 Q69.2096 1227.5 67.2652 1225.76 Q65.3439 1224.02 62.2421 1224.02 Q60.043 1224.02 57.5893 1224.79 Q55.1588 1225.55 52.381 1227.1 L52.381 1222.38 Q55.2051 1221.25 57.6588 1220.67 Q60.1124 1220.09 62.1495 1220.09 Q67.5198 1220.09 70.7142 1222.77 Q73.9087 1225.46 73.9087 1229.95 Q73.9087 1232.08 73.0985 1234 Q72.3115 1235.9 70.205 1238.49 Q69.6263 1239.16 66.5245 1242.38 Q63.4226 1245.57 57.7745 1251.34 Z" fill="#000000" fill-rule="nonzero" fill-opacity="1" /><path clip-path="url(#clip860)" d="M83.9086 1249.39 L88.7928 1249.39 L88.7928 1255.27 L83.9086 1255.27 L83.9086 1249.39 Z" fill="#000000" fill-rule="nonzero" fill-opacity="1" /><path clip-path="url(#clip860)" d="M108.978 1223.79 Q105.367 1223.79 103.538 1227.36 Q101.733 1230.9 101.733 1238.03 Q101.733 1245.13 103.538 1248.7 Q105.367 1252.24 108.978 1252.24 Q112.612 1252.24 114.418 1248.7 Q116.246 1245.13 116.246 1238.03 Q116.246 1230.9 114.418 1227.36 Q112.612 1223.79 108.978 1223.79 M108.978 1220.09 Q114.788 1220.09 117.844 1224.7 Q120.922 1229.28 120.922 1238.03 Q120.922 1246.76 117.844 1251.36 Q114.788 1255.94 108.978 1255.94 Q103.168 1255.94 100.089 1251.36 Q97.0335 1246.76 97.0335 1238.03 Q97.0335 1229.28 100.089 1224.7 Q103.168 1220.09 108.978 1220.09 Z" fill="#000000" fill-rule="nonzero" fill-opacity="1" /><path clip-path="url(#clip860)" d="M139.14 1223.79 Q135.529 1223.79 133.7 1227.36 Q131.894 1230.9 131.894 1238.03 Q131.894 1245.13 133.7 1248.7 Q135.529 1252.24 139.14 1252.24 Q142.774 1252.24 144.58 1248.7 Q146.408 1245.13 146.408 1238.03 Q146.408 1230.9 144.58 1227.36 Q142.774 1223.79 139.14 1223.79 M139.14 1220.09 Q144.95 1220.09 148.005 1224.7 Q151.084 1229.28 151.084 1238.03 Q151.084 1246.76 148.005 1251.36 Q144.95 1255.94 139.14 1255.94 Q133.33 1255.94 130.251 1251.36 Q127.195 1246.76 127.195 1238.03 Q127.195 1229.28 130.251 1224.7 Q133.33 1220.09 139.14 1220.09 Z" fill="#000000" fill-rule="nonzero" fill-opacity="1" /><path clip-path="url(#clip860)" d="M187.473 1229.81 L176.894 1240.44 L187.473 1251.01 L184.718 1253.82 L174.093 1243.19 L163.468 1253.82 L160.737 1251.01 L171.292 1240.44 L160.737 1229.81 L163.468 1227.01 L174.093 1237.63 L184.718 1227.01 L187.473 1229.81 Z" fill="#000000" fill-rule="nonzero" fill-opacity="1" /><path clip-path="url(#clip860)" d="M199.834 1251.34 L207.473 1251.34 L207.473 1224.97 L199.163 1226.64 L199.163 1222.38 L207.426 1220.71 L212.102 1220.71 L212.102 1251.34 L219.741 1251.34 L219.741 1255.27 L199.834 1255.27 L199.834 1251.34 Z" fill="#000000" fill-rule="nonzero" fill-opacity="1" /><path clip-path="url(#clip860)" d="M239.186 1223.79 Q235.574 1223.79 233.746 1227.36 Q231.94 1230.9 231.94 1238.03 Q231.94 1245.13 233.746 1248.7 Q235.574 1252.24 239.186 1252.24 Q242.82 1252.24 244.625 1248.7 Q246.454 1245.13 246.454 1238.03 Q246.454 1230.9 244.625 1227.36 Q242.82 1223.79 239.186 1223.79 M239.186 1220.09 Q244.996 1220.09 248.051 1224.7 Q251.13 1229.28 251.13 1238.03 Q251.13 1246.76 248.051 1251.36 Q244.996 1255.94 239.186 1255.94 Q233.375 1255.94 230.297 1251.36 Q227.241 1246.76 227.241 1238.03 Q227.241 1229.28 230.297 1224.7 Q233.375 1220.09 239.186 1220.09 Z" fill="#000000" fill-rule="nonzero" fill-opacity="1" /><path clip-path="url(#clip860)" d="M252.315 1199.78 L267.229 1199.78 L267.229 1202.98 L255.794 1202.98 L255.794 1209.86 Q256.622 1209.58 257.449 1209.45 Q258.277 1209.3 259.104 1209.3 Q263.806 1209.3 266.552 1211.88 Q269.298 1214.45 269.298 1218.85 Q269.298 1223.39 266.477 1225.91 Q263.656 1228.41 258.521 1228.41 Q256.753 1228.41 254.91 1228.11 Q253.086 1227.81 251.13 1227.2 L251.13 1223.39 Q252.823 1224.31 254.628 1224.76 Q256.434 1225.21 258.446 1225.21 Q261.7 1225.21 263.599 1223.5 Q265.499 1221.79 265.499 1218.85 Q265.499 1215.92 263.599 1214.21 Q261.7 1212.5 258.446 1212.5 Q256.923 1212.5 255.399 1212.84 Q253.895 1213.17 252.315 1213.89 L252.315 1199.78 Z" fill="#000000" fill-rule="nonzero" fill-opacity="1" /><path clip-path="url(#clip860)" d="M66.5939 1022.55 L54.7884 1041 L66.5939 1041 L66.5939 1022.55 M65.367 1018.48 L71.2466 1018.48 L71.2466 1041 L76.1772 1041 L76.1772 1044.89 L71.2466 1044.89 L71.2466 1053.04 L66.5939 1053.04 L66.5939 1044.89 L50.9921 1044.89 L50.9921 1040.38 L65.367 1018.48 Z" fill="#000000" fill-rule="nonzero" fill-opacity="1" /><path clip-path="url(#clip860)" d="M83.9086 1047.16 L88.7928 1047.16 L88.7928 1053.04 L83.9086 1053.04 L83.9086 1047.16 Z" fill="#000000" fill-rule="nonzero" fill-opacity="1" /><path clip-path="url(#clip860)" d="M108.978 1021.56 Q105.367 1021.56 103.538 1025.12 Q101.733 1028.66 101.733 1035.79 Q101.733 1042.9 103.538 1046.47 Q105.367 1050.01 108.978 1050.01 Q112.612 1050.01 114.418 1046.47 Q116.246 1042.9 116.246 1035.79 Q116.246 1028.66 114.418 1025.12 Q112.612 1021.56 108.978 1021.56 M108.978 1017.85 Q114.788 1017.85 117.844 1022.46 Q120.922 1027.04 120.922 1035.79 Q120.922 1044.52 117.844 1049.13 Q114.788 1053.71 108.978 1053.71 Q103.168 1053.71 100.089 1049.13 Q97.0335 1044.52 97.0335 1035.79 Q97.0335 1027.04 100.089 1022.46 Q103.168 1017.85 108.978 1017.85 Z" fill="#000000" fill-rule="nonzero" fill-opacity="1" /><path clip-path="url(#clip860)" d="M139.14 1021.56 Q135.529 1021.56 133.7 1025.12 Q131.894 1028.66 131.894 1035.79 Q131.894 1042.9 133.7 1046.47 Q135.529 1050.01 139.14 1050.01 Q142.774 1050.01 144.58 1046.47 Q146.408 1042.9 146.408 1035.79 Q146.408 1028.66 144.58 1025.12 Q142.774 1021.56 139.14 1021.56 M139.14 1017.85 Q144.95 1017.85 148.005 1022.46 Q151.084 1027.04 151.084 1035.79 Q151.084 1044.52 148.005 1049.13 Q144.95 1053.71 139.14 1053.71 Q133.33 1053.71 130.251 1049.13 Q127.195 1044.52 127.195 1035.79 Q127.195 1027.04 130.251 1022.46 Q133.33 1017.85 139.14 1017.85 Z" fill="#000000" fill-rule="nonzero" fill-opacity="1" /><path clip-path="url(#clip860)" d="M187.473 1027.58 L176.894 1038.2 L187.473 1048.78 L184.718 1051.58 L174.093 1040.96 L163.468 1051.58 L160.737 1048.78 L171.292 1038.2 L160.737 1027.58 L163.468 1024.78 L174.093 1035.4 L184.718 1024.78 L187.473 1027.58 Z" fill="#000000" fill-rule="nonzero" fill-opacity="1" /><path clip-path="url(#clip860)" d="M199.834 1049.1 L207.473 1049.1 L207.473 1022.74 L199.163 1024.41 L199.163 1020.15 L207.426 1018.48 L212.102 1018.48 L212.102 1049.1 L219.741 1049.1 L219.741 1053.04 L199.834 1053.04 L199.834 1049.1 Z" fill="#000000" fill-rule="nonzero" fill-opacity="1" /><path clip-path="url(#clip860)" d="M239.186 1021.56 Q235.574 1021.56 233.746 1025.12 Q231.94 1028.66 231.94 1035.79 Q231.94 1042.9 233.746 1046.47 Q235.574 1050.01 239.186 1050.01 Q242.82 1050.01 244.625 1046.47 Q246.454 1042.9 246.454 1035.79 Q246.454 1028.66 244.625 1025.12 Q242.82 1021.56 239.186 1021.56 M239.186 1017.85 Q244.996 1017.85 248.051 1022.46 Q251.13 1027.04 251.13 1035.79 Q251.13 1044.52 248.051 1049.13 Q244.996 1053.71 239.186 1053.71 Q233.375 1053.71 230.297 1049.13 Q227.241 1044.52 227.241 1035.79 Q227.241 1027.04 230.297 1022.46 Q233.375 1017.85 239.186 1017.85 Z" fill="#000000" fill-rule="nonzero" fill-opacity="1" /><path clip-path="url(#clip860)" d="M252.315 997.549 L267.229 997.549 L267.229 1000.75 L255.794 1000.75 L255.794 1007.63 Q256.622 1007.35 257.449 1007.22 Q258.277 1007.07 259.104 1007.07 Q263.806 1007.07 266.552 1009.64 Q269.298 1012.22 269.298 1016.62 Q269.298 1021.15 266.477 1023.67 Q263.656 1026.17 258.521 1026.17 Q256.753 1026.17 254.91 1025.87 Q253.086 1025.57 251.13 1024.97 L251.13 1021.15 Q252.823 1022.07 254.628 1022.53 Q256.434 1022.98 258.446 1022.98 Q261.7 1022.98 263.599 1021.27 Q265.499 1019.55 265.499 1016.62 Q265.499 1013.69 263.599 1011.97 Q261.7 1010.26 258.446 1010.26 Q256.923 1010.26 255.399 1010.6 Q253.895 1010.94 252.315 1011.65 L252.315 997.549 Z" fill="#000000" fill-rule="nonzero" fill-opacity="1" /><path clip-path="url(#clip860)" d="M64.3254 831.662 Q61.1773 831.662 59.3254 833.815 Q57.4967 835.967 57.4967 839.717 Q57.4967 843.444 59.3254 845.62 Q61.1773 847.773 64.3254 847.773 Q67.4735 847.773 69.3022 845.62 Q71.1541 843.444 71.1541 839.717 Q71.1541 835.967 69.3022 833.815 Q67.4735 831.662 64.3254 831.662 M73.6077 817.009 L73.6077 821.268 Q71.8485 820.435 70.0429 819.995 Q68.2606 819.555 66.5013 819.555 Q61.8717 819.555 59.418 822.68 Q56.9875 825.805 56.6402 832.125 Q58.006 830.111 60.0662 829.046 Q62.1263 827.958 64.6032 827.958 Q69.8115 827.958 72.8207 831.129 Q75.8531 834.278 75.8531 839.717 Q75.8531 845.041 72.705 848.259 Q69.5568 851.477 64.3254 851.477 Q58.33 851.477 55.1588 846.893 Q51.9875 842.287 51.9875 833.56 Q51.9875 825.366 55.8764 820.504 Q59.7652 815.62 66.3161 815.62 Q68.0754 815.62 69.8578 815.967 Q71.6633 816.315 73.6077 817.009 Z" fill="#000000" fill-rule="nonzero" fill-opacity="1" /><path clip-path="url(#clip860)" d="M83.9086 844.926 L88.7928 844.926 L88.7928 850.805 L83.9086 850.805 L83.9086 844.926 Z" fill="#000000" fill-rule="nonzero" fill-opacity="1" /><path clip-path="url(#clip860)" d="M108.978 819.324 Q105.367 819.324 103.538 822.889 Q101.733 826.43 101.733 833.56 Q101.733 840.666 103.538 844.231 Q105.367 847.773 108.978 847.773 Q112.612 847.773 114.418 844.231 Q116.246 840.666 116.246 833.56 Q116.246 826.43 114.418 822.889 Q112.612 819.324 108.978 819.324 M108.978 815.62 Q114.788 815.62 117.844 820.227 Q120.922 824.81 120.922 833.56 Q120.922 842.287 117.844 846.893 Q114.788 851.477 108.978 851.477 Q103.168 851.477 100.089 846.893 Q97.0335 842.287 97.0335 833.56 Q97.0335 824.81 100.089 820.227 Q103.168 815.62 108.978 815.62 Z" fill="#000000" fill-rule="nonzero" fill-opacity="1" /><path clip-path="url(#clip860)" d="M139.14 819.324 Q135.529 819.324 133.7 822.889 Q131.894 826.43 131.894 833.56 Q131.894 840.666 133.7 844.231 Q135.529 847.773 139.14 847.773 Q142.774 847.773 144.58 844.231 Q146.408 840.666 146.408 833.56 Q146.408 826.43 144.58 822.889 Q142.774 819.324 139.14 819.324 M139.14 815.62 Q144.95 815.62 148.005 820.227 Q151.084 824.81 151.084 833.56 Q151.084 842.287 148.005 846.893 Q144.95 851.477 139.14 851.477 Q133.33 851.477 130.251 846.893 Q127.195 842.287 127.195 833.56 Q127.195 824.81 130.251 820.227 Q133.33 815.62 139.14 815.62 Z" fill="#000000" fill-rule="nonzero" fill-opacity="1" /><path clip-path="url(#clip860)" d="M187.473 825.342 L176.894 835.967 L187.473 846.546 L184.718 849.347 L174.093 838.722 L163.468 849.347 L160.737 846.546 L171.292 835.967 L160.737 825.342 L163.468 822.541 L174.093 833.166 L184.718 822.541 L187.473 825.342 Z" fill="#000000" fill-rule="nonzero" fill-opacity="1" /><path clip-path="url(#clip860)" d="M199.834 846.87 L207.473 846.87 L207.473 820.504 L199.163 822.171 L199.163 817.912 L207.426 816.245 L212.102 816.245 L212.102 846.87 L219.741 846.87 L219.741 850.805 L199.834 850.805 L199.834 846.87 Z" fill="#000000" fill-rule="nonzero" fill-opacity="1" /><path clip-path="url(#clip860)" d="M239.186 819.324 Q235.574 819.324 233.746 822.889 Q231.94 826.43 231.94 833.56 Q231.94 840.666 233.746 844.231 Q235.574 847.773 239.186 847.773 Q242.82 847.773 244.625 844.231 Q246.454 840.666 246.454 833.56 Q246.454 826.43 244.625 822.889 Q242.82 819.324 239.186 819.324 M239.186 815.62 Q244.996 815.62 248.051 820.227 Q251.13 824.81 251.13 833.56 Q251.13 842.287 248.051 846.893 Q244.996 851.477 239.186 851.477 Q233.375 851.477 230.297 846.893 Q227.241 842.287 227.241 833.56 Q227.241 824.81 230.297 820.227 Q233.375 815.62 239.186 815.62 Z" fill="#000000" fill-rule="nonzero" fill-opacity="1" /><path clip-path="url(#clip860)" d="M252.315 795.315 L267.229 795.315 L267.229 798.512 L255.794 798.512 L255.794 805.396 Q256.622 805.114 257.449 804.982 Q258.277 804.832 259.104 804.832 Q263.806 804.832 266.552 807.408 Q269.298 809.985 269.298 814.386 Q269.298 818.919 266.477 821.439 Q263.656 823.94 258.521 823.94 Q256.753 823.94 254.91 823.639 Q253.086 823.338 251.13 822.737 L251.13 818.919 Q252.823 819.84 254.628 820.292 Q256.434 820.743 258.446 820.743 Q261.7 820.743 263.599 819.031 Q265.499 817.32 265.499 814.386 Q265.499 811.452 263.599 809.74 Q261.7 808.029 258.446 808.029 Q256.923 808.029 255.399 808.367 Q253.895 808.706 252.315 809.421 L252.315 795.315 Z" fill="#000000" fill-rule="nonzero" fill-opacity="1" /><path clip-path="url(#clip860)" d="M63.7467 632.159 Q60.4134 632.159 58.4921 633.941 Q56.5939 635.724 56.5939 638.849 Q56.5939 641.974 58.4921 643.756 Q60.4134 645.539 63.7467 645.539 Q67.08 645.539 69.0013 643.756 Q70.9226 641.951 70.9226 638.849 Q70.9226 635.724 69.0013 633.941 Q67.1032 632.159 63.7467 632.159 M59.0708 630.168 Q56.0615 629.428 54.3717 627.367 Q52.7051 625.307 52.7051 622.344 Q52.7051 618.201 55.6449 615.793 Q58.6078 613.386 63.7467 613.386 Q68.9087 613.386 71.8485 615.793 Q74.7883 618.201 74.7883 622.344 Q74.7883 625.307 73.0985 627.367 Q71.4318 629.428 68.4457 630.168 Q71.8253 630.955 73.7003 633.247 Q75.5985 635.539 75.5985 638.849 Q75.5985 643.872 72.5198 646.557 Q69.4642 649.242 63.7467 649.242 Q58.0291 649.242 54.9504 646.557 Q51.8949 643.872 51.8949 638.849 Q51.8949 635.539 53.793 633.247 Q55.6912 630.955 59.0708 630.168 M57.3578 622.784 Q57.3578 625.469 59.0245 626.974 Q60.7143 628.479 63.7467 628.479 Q66.7559 628.479 68.4457 626.974 Q70.1587 625.469 70.1587 622.784 Q70.1587 620.099 68.4457 618.594 Q66.7559 617.09 63.7467 617.09 Q60.7143 617.09 59.0245 618.594 Q57.3578 620.099 57.3578 622.784 Z" fill="#000000" fill-rule="nonzero" fill-opacity="1" /><path clip-path="url(#clip860)" d="M83.9086 642.691 L88.7928 642.691 L88.7928 648.571 L83.9086 648.571 L83.9086 642.691 Z" fill="#000000" fill-rule="nonzero" fill-opacity="1" /><path clip-path="url(#clip860)" d="M108.978 617.09 Q105.367 617.09 103.538 620.655 Q101.733 624.196 101.733 631.326 Q101.733 638.432 103.538 641.997 Q105.367 645.539 108.978 645.539 Q112.612 645.539 114.418 641.997 Q116.246 638.432 116.246 631.326 Q116.246 624.196 114.418 620.655 Q112.612 617.09 108.978 617.09 M108.978 613.386 Q114.788 613.386 117.844 617.993 Q120.922 622.576 120.922 631.326 Q120.922 640.053 117.844 644.659 Q114.788 649.242 108.978 649.242 Q103.168 649.242 100.089 644.659 Q97.0335 640.053 97.0335 631.326 Q97.0335 622.576 100.089 617.993 Q103.168 613.386 108.978 613.386 Z" fill="#000000" fill-rule="nonzero" fill-opacity="1" /><path clip-path="url(#clip860)" d="M139.14 617.09 Q135.529 617.09 133.7 620.655 Q131.894 624.196 131.894 631.326 Q131.894 638.432 133.7 641.997 Q135.529 645.539 139.14 645.539 Q142.774 645.539 144.58 641.997 Q146.408 638.432 146.408 631.326 Q146.408 624.196 144.58 620.655 Q142.774 617.09 139.14 617.09 M139.14 613.386 Q144.95 613.386 148.005 617.993 Q151.084 622.576 151.084 631.326 Q151.084 640.053 148.005 644.659 Q144.95 649.242 139.14 649.242 Q133.33 649.242 130.251 644.659 Q127.195 640.053 127.195 631.326 Q127.195 622.576 130.251 617.993 Q133.33 613.386 139.14 613.386 Z" fill="#000000" fill-rule="nonzero" fill-opacity="1" /><path clip-path="url(#clip860)" d="M187.473 623.108 L176.894 633.733 L187.473 644.312 L184.718 647.113 L174.093 636.488 L163.468 647.113 L160.737 644.312 L171.292 633.733 L160.737 623.108 L163.468 620.307 L174.093 630.932 L184.718 620.307 L187.473 623.108 Z" fill="#000000" fill-rule="nonzero" fill-opacity="1" /><path clip-path="url(#clip860)" d="M199.834 644.636 L207.473 644.636 L207.473 618.27 L199.163 619.937 L199.163 615.678 L207.426 614.011 L212.102 614.011 L212.102 644.636 L219.741 644.636 L219.741 648.571 L199.834 648.571 L199.834 644.636 Z" fill="#000000" fill-rule="nonzero" fill-opacity="1" /><path clip-path="url(#clip860)" d="M239.186 617.09 Q235.574 617.09 233.746 620.655 Q231.94 624.196 231.94 631.326 Q231.94 638.432 233.746 641.997 Q235.574 645.539 239.186 645.539 Q242.82 645.539 244.625 641.997 Q246.454 638.432 246.454 631.326 Q246.454 624.196 244.625 620.655 Q242.82 617.09 239.186 617.09 M239.186 613.386 Q244.996 613.386 248.051 617.993 Q251.13 622.576 251.13 631.326 Q251.13 640.053 248.051 644.659 Q244.996 649.242 239.186 649.242 Q233.375 649.242 230.297 644.659 Q227.241 640.053 227.241 631.326 Q227.241 622.576 230.297 617.993 Q233.375 613.386 239.186 613.386 Z" fill="#000000" fill-rule="nonzero" fill-opacity="1" /><path clip-path="url(#clip860)" d="M252.315 593.081 L267.229 593.081 L267.229 596.278 L255.794 596.278 L255.794 603.162 Q256.622 602.879 257.449 602.748 Q258.277 602.597 259.104 602.597 Q263.806 602.597 266.552 605.174 Q269.298 607.751 269.298 612.152 Q269.298 616.684 266.477 619.205 Q263.656 621.706 258.521 621.706 Q256.753 621.706 254.91 621.405 Q253.086 621.104 251.13 620.502 L251.13 616.684 Q252.823 617.606 254.628 618.057 Q256.434 618.509 258.446 618.509 Q261.7 618.509 263.599 616.797 Q265.499 615.086 265.499 612.152 Q265.499 609.218 263.599 607.506 Q261.7 605.795 258.446 605.795 Q256.923 605.795 255.399 606.133 Q253.895 606.472 252.315 607.186 L252.315 593.081 Z" fill="#000000" fill-rule="nonzero" fill-opacity="1" /><path clip-path="url(#clip860)" d="M53.3344 442.402 L60.9733 442.402 L60.9733 416.036 L52.6631 417.703 L52.6631 413.444 L60.927 411.777 L65.6029 411.777 L65.6029 442.402 L73.2417 442.402 L73.2417 446.337 L53.3344 446.337 L53.3344 442.402 Z" fill="#000000" fill-rule="nonzero" fill-opacity="1" /><path clip-path="url(#clip860)" d="M82.6861 440.457 L87.5703 440.457 L87.5703 446.337 L82.6861 446.337 L82.6861 440.457 Z" fill="#000000" fill-rule="nonzero" fill-opacity="1" /><path clip-path="url(#clip860)" d="M107.755 414.856 Q104.144 414.856 102.316 418.42 Q100.51 421.962 100.51 429.092 Q100.51 436.198 102.316 439.763 Q104.144 443.304 107.755 443.304 Q111.39 443.304 113.195 439.763 Q115.024 436.198 115.024 429.092 Q115.024 421.962 113.195 418.42 Q111.39 414.856 107.755 414.856 M107.755 411.152 Q113.566 411.152 116.621 415.758 Q119.7 420.342 119.7 429.092 Q119.7 437.818 116.621 442.425 Q113.566 447.008 107.755 447.008 Q101.945 447.008 98.8666 442.425 Q95.811 437.818 95.811 429.092 Q95.811 420.342 98.8666 415.758 Q101.945 411.152 107.755 411.152 Z" fill="#000000" fill-rule="nonzero" fill-opacity="1" /><path clip-path="url(#clip860)" d="M137.917 414.856 Q134.306 414.856 132.478 418.42 Q130.672 421.962 130.672 429.092 Q130.672 436.198 132.478 439.763 Q134.306 443.304 137.917 443.304 Q141.552 443.304 143.357 439.763 Q145.186 436.198 145.186 429.092 Q145.186 421.962 143.357 418.42 Q141.552 414.856 137.917 414.856 M137.917 411.152 Q143.727 411.152 146.783 415.758 Q149.862 420.342 149.862 429.092 Q149.862 437.818 146.783 442.425 Q143.727 447.008 137.917 447.008 Q132.107 447.008 129.028 442.425 Q125.973 437.818 125.973 429.092 Q125.973 420.342 129.028 415.758 Q132.107 411.152 137.917 411.152 Z" fill="#000000" fill-rule="nonzero" fill-opacity="1" /><path clip-path="url(#clip860)" d="M186.25 420.874 L175.672 431.499 L186.25 442.078 L183.496 444.879 L172.871 434.254 L162.246 444.879 L159.514 442.078 L170.07 431.499 L159.514 420.874 L162.246 418.073 L172.871 428.698 L183.496 418.073 L186.25 420.874 Z" fill="#000000" fill-rule="nonzero" fill-opacity="1" /><path clip-path="url(#clip860)" d="M198.611 442.402 L206.25 442.402 L206.25 416.036 L197.94 417.703 L197.94 413.444 L206.204 411.777 L210.88 411.777 L210.88 442.402 L218.519 442.402 L218.519 446.337 L198.611 446.337 L198.611 442.402 Z" fill="#000000" fill-rule="nonzero" fill-opacity="1" /><path clip-path="url(#clip860)" d="M237.963 414.856 Q234.352 414.856 232.523 418.42 Q230.718 421.962 230.718 429.092 Q230.718 436.198 232.523 439.763 Q234.352 443.304 237.963 443.304 Q241.597 443.304 243.403 439.763 Q245.232 436.198 245.232 429.092 Q245.232 421.962 243.403 418.42 Q241.597 414.856 237.963 414.856 M237.963 411.152 Q243.773 411.152 246.829 415.758 Q249.907 420.342 249.907 429.092 Q249.907 437.818 246.829 442.425 Q243.773 447.008 237.963 447.008 Q232.153 447.008 229.074 442.425 Q226.019 437.818 226.019 429.092 Q226.019 420.342 229.074 415.758 Q232.153 411.152 237.963 411.152 Z" fill="#000000" fill-rule="nonzero" fill-opacity="1" /><path clip-path="url(#clip860)" d="M259.932 403.372 Q257.374 403.372 255.87 405.122 Q254.384 406.871 254.384 409.918 Q254.384 412.946 255.87 414.714 Q257.374 416.463 259.932 416.463 Q262.49 416.463 263.976 414.714 Q265.48 412.946 265.48 409.918 Q265.48 406.871 263.976 405.122 Q262.49 403.372 259.932 403.372 M267.474 391.467 L267.474 394.928 Q266.045 394.251 264.577 393.893 Q263.129 393.536 261.7 393.536 Q257.938 393.536 255.945 396.075 Q253.97 398.614 253.688 403.749 Q254.797 402.112 256.471 401.247 Q258.145 400.363 260.158 400.363 Q264.389 400.363 266.834 402.94 Q269.298 405.498 269.298 409.918 Q269.298 414.243 266.74 416.858 Q264.183 419.472 259.932 419.472 Q255.061 419.472 252.484 415.748 Q249.907 412.005 249.907 404.915 Q249.907 398.257 253.067 394.307 Q256.227 390.339 261.549 390.339 Q262.979 390.339 264.427 390.621 Q265.894 390.903 267.474 391.467 Z" fill="#000000" fill-rule="nonzero" fill-opacity="1" /><path clip-path="url(#clip860)" d="M53.3344 240.168 L60.9733 240.168 L60.9733 213.802 L52.6631 215.469 L52.6631 211.209 L60.927 209.543 L65.6029 209.543 L65.6029 240.168 L73.2417 240.168 L73.2417 244.103 L53.3344 244.103 L53.3344 240.168 Z" fill="#000000" fill-rule="nonzero" fill-opacity="1" /><path clip-path="url(#clip860)" d="M82.6861 238.223 L87.5703 238.223 L87.5703 244.103 L82.6861 244.103 L82.6861 238.223 Z" fill="#000000" fill-rule="nonzero" fill-opacity="1" /><path clip-path="url(#clip860)" d="M101.783 240.168 L118.103 240.168 L118.103 244.103 L96.1583 244.103 L96.1583 240.168 Q98.8203 237.413 103.404 232.783 Q108.01 228.131 109.191 226.788 Q111.436 224.265 112.316 222.529 Q113.218 220.769 113.218 219.08 Q113.218 216.325 111.274 214.589 Q109.353 212.853 106.251 212.853 Q104.052 212.853 101.598 213.617 Q99.1675 214.381 96.3897 215.932 L96.3897 211.209 Q99.2138 210.075 101.667 209.496 Q104.121 208.918 106.158 208.918 Q111.529 208.918 114.723 211.603 Q117.917 214.288 117.917 218.779 Q117.917 220.908 117.107 222.83 Q116.32 224.728 114.214 227.32 Q113.635 227.992 110.533 231.209 Q107.431 234.404 101.783 240.168 Z" fill="#000000" fill-rule="nonzero" fill-opacity="1" /><path clip-path="url(#clip860)" d="M137.917 212.621 Q134.306 212.621 132.478 216.186 Q130.672 219.728 130.672 226.857 Q130.672 233.964 132.478 237.529 Q134.306 241.07 137.917 241.07 Q141.552 241.07 143.357 237.529 Q145.186 233.964 145.186 226.857 Q145.186 219.728 143.357 216.186 Q141.552 212.621 137.917 212.621 M137.917 208.918 Q143.727 208.918 146.783 213.524 Q149.862 218.107 149.862 226.857 Q149.862 235.584 146.783 240.191 Q143.727 244.774 137.917 244.774 Q132.107 244.774 129.028 240.191 Q125.973 235.584 125.973 226.857 Q125.973 218.107 129.028 213.524 Q132.107 208.918 137.917 208.918 Z" fill="#000000" fill-rule="nonzero" fill-opacity="1" /><path clip-path="url(#clip860)" d="M186.25 218.64 L175.672 229.265 L186.25 239.843 L183.496 242.644 L172.871 232.019 L162.246 242.644 L159.514 239.843 L170.07 229.265 L159.514 218.64 L162.246 215.839 L172.871 226.464 L183.496 215.839 L186.25 218.64 Z" fill="#000000" fill-rule="nonzero" fill-opacity="1" /><path clip-path="url(#clip860)" d="M198.611 240.168 L206.25 240.168 L206.25 213.802 L197.94 215.469 L197.94 211.209 L206.204 209.543 L210.88 209.543 L210.88 240.168 L218.519 240.168 L218.519 244.103 L198.611 244.103 L198.611 240.168 Z" fill="#000000" fill-rule="nonzero" fill-opacity="1" /><path clip-path="url(#clip860)" d="M237.963 212.621 Q234.352 212.621 232.523 216.186 Q230.718 219.728 230.718 226.857 Q230.718 233.964 232.523 237.529 Q234.352 241.07 237.963 241.07 Q241.597 241.07 243.403 237.529 Q245.232 233.964 245.232 226.857 Q245.232 219.728 243.403 216.186 Q241.597 212.621 237.963 212.621 M237.963 208.918 Q243.773 208.918 246.829 213.524 Q249.907 218.107 249.907 226.857 Q249.907 235.584 246.829 240.191 Q243.773 244.774 237.963 244.774 Q232.153 244.774 229.074 240.191 Q226.019 235.584 226.019 226.857 Q226.019 218.107 229.074 213.524 Q232.153 208.918 237.963 208.918 Z" fill="#000000" fill-rule="nonzero" fill-opacity="1" /><path clip-path="url(#clip860)" d="M259.932 201.138 Q257.374 201.138 255.87 202.887 Q254.384 204.637 254.384 207.683 Q254.384 210.711 255.87 212.479 Q257.374 214.228 259.932 214.228 Q262.49 214.228 263.976 212.479 Q265.48 210.711 265.48 207.683 Q265.48 204.637 263.976 202.887 Q262.49 201.138 259.932 201.138 M267.474 189.233 L267.474 192.694 Q266.045 192.017 264.577 191.659 Q263.129 191.302 261.7 191.302 Q257.938 191.302 255.945 193.841 Q253.97 196.38 253.688 201.514 Q254.797 199.878 256.471 199.013 Q258.145 198.129 260.158 198.129 Q264.389 198.129 266.834 200.706 Q269.298 203.264 269.298 207.683 Q269.298 212.009 266.74 214.623 Q264.183 217.238 259.932 217.238 Q255.061 217.238 252.484 213.514 Q249.907 209.771 249.907 202.681 Q249.907 196.023 253.067 192.073 Q256.227 188.104 261.549 188.104 Q262.979 188.104 264.427 188.387 Q265.894 188.669 267.474 189.233 Z" fill="#000000" fill-rule="nonzero" fill-opacity="1" /><path clip-path="url(#clip862)" d="M305.298 1428.06 L318.628 1428.06 L441.884 1428.04 L515.956 1428.02 L578.582 1427.99 L646.612 1427.93 L709.33 1427.84 L776.57 1427.64 L854.474 1427.19 L923.706 1426.33 L984.416 1424.76 L1017.51 1423.23 L1050.61 1420.8 L1067.25 1419.01 L1083.9 1416.66 L1100.54 1413.5 L1117.19 1409.18 L1126.39 1406.1 L1135.59 1402.37 L1144.8 1397.82 L1154 1392.24 L1163.2 1385.34 L1172.4 1376.74 L1181.6 1365.98 L1190.81 1352.4 L1195.18 1344.71 L1199.56 1336.1 L1203.94 1326.44 L1208.32 1315.58 L1212.7 1303.37 L1217.07 1289.64 L1221.45 1274.19 L1225.83 1256.8 L1230.21 1237.22 L1234.58 1215.2 L1238.96 1190.45 L1243.34 1162.65 L1245.53 1147.52 L1247.72 1131.5 L1249.91 1114.56 L1252.1 1096.65 L1254.28 1077.74 L1256.47 1057.78 L1258.66 1036.74 L1260.85 1014.58 L1263.13 990.312 L1265.4 964.765 L1267.68 937.912 L1269.96 909.733 L1272.23 880.215 L1274.51 849.359 L1276.78 817.176 L1279.06 783.691 L1281.33 748.947 L1283.61 713.005 L1285.89 675.946 L1288.16 637.877 L1292.71 559.264 L1297.27 478.581 L1301.82 397.773 L1306.37 319.36 L1308.65 282.003 L1310.92 246.456 L1313.2 213.192 L1315.47 182.711 L1316.61 168.676 L1317.75 155.533 L1318.89 143.349 L1320.03 132.19 L1321.16 122.123 L1322.3 113.215 L1323.44 105.531 L1324.58 99.1343 L1325.72 94.0876 L1326.85 90.4503 L1327.99 88.2795 L1329.13 87.6286 L1330.27 88.5475 L1331.41 91.0815 L1332.54 95.2711 L1333.68 101.151 L1334.64 107.433 L1335.6 114.948 L1336.56 123.705 L1337.51 133.712 L1338.47 144.971 L1339.43 157.481 L1340.39 171.236 L1341.34 186.228 L1342.3 202.44 L1343.26 219.856 L1344.22 238.45 L1345.18 258.195 L1346.13 279.058 L1347.09 301.002 L1348.05 323.983 L1349.01 347.956 L1350.92 398.663 L1352.84 452.662 L1354.76 509.427 L1356.67 568.377 L1360.5 690.311 L1364.34 813.204 L1366.25 873.352 L1368.17 931.796 L1370.08 987.966 L1372 1041.35 L1372.96 1066.86 L1373.91 1091.52 L1374.87 1115.29 L1375.83 1138.13 L1376.79 1160.01 L1377.75 1180.92 L1378.7 1200.82 L1379.66 1219.72 L1380.62 1237.61 L1381.58 1254.48 L1382.54 1270.35 L1383.49 1285.22 L1384.45 1299.11 L1385.41 1312.04 L1386.37 1324.03 L1387.33 1335.12 L1389.24 1354.71 L1391.16 1371.09 L1393.07 1384.57 L1394.99 1395.49 L1397.33 1405.84 L1399.67 1413.48 L1402.01 1418.96 L1404.35 1422.76 L1409.02 1426.94 L1413.7 1428.47 L1423.06 1428.59 L1432.41 1427.7 L1451.13 1424.94 L1469.84 1420.45 L1478.41 1417.51 L1486.98 1413.8 L1495.55 1409.13 L1504.12 1403.28 L1512.69 1396 L1521.26 1387.06 L1529.83 1376.27 L1538.41 1363.62 L1546.32 1350.49 L1554.24 1336.53 L1562.15 1322.71 L1570.07 1310.56 L1574.03 1305.71 L1577.98 1302.05 L1581.94 1299.85 L1585.9 1299.37 L1589.86 1300.82 L1593.82 1304.36 L1597.77 1310.02 L1601.73 1317.74 L1605.74 1327.46 L1609.75 1338.73 L1613.76 1351.08 L1617.77 1363.94 L1621.78 1376.7 L1625.79 1388.78 L1629.8 1399.67 L1633.81 1409.02 L1637.82 1416.64 L1641.82 1422.51 L1645.83 1426.77 L1649.84 1429.68 L1657.86 1432.64 L1665.88 1433.55 L1683.85 1433.78 L1701.83 1433.78 L1719.8 1433.78 L1737.77 1433.78 L1770.34 1433.78 L1802.92 1433.78 L1877.51 1433.78 L1946.57 1433.78 L2014.65 1433.78 L2080.76 1433.78 L2148.53 1433.78 L2222.77 1433.78 L2330.63 1433.78 L2352.76 1433.78 L2352.76 1433.78 L2330.63 1433.78 L2222.77 1433.78 L2148.53 1433.78 L2080.76 1433.78 L2014.65 1433.78 L1946.57 1433.78 L1877.51 1433.78 L1802.92 1433.78 L1770.34 1433.78 L1737.77 1433.78 L1719.8 1433.78 L1701.83 1433.78 L1683.85 1433.78 L1665.88 1433.78 L1657.86 1433.78 L1649.84 1433.78 L1645.83 1433.78 L1641.82 1433.78 L1637.82 1433.78 L1633.81 1433.78 L1629.8 1433.78 L1625.79 1433.78 L1621.78 1433.78 L1617.77 1433.78 L1613.76 1433.78 L1609.75 1433.78 L1605.74 1433.78 L1601.73 1433.78 L1597.77 1433.78 L1593.82 1433.78 L1589.86 1433.78 L1585.9 1433.78 L1581.94 1433.78 L1577.98 1433.78 L1574.03 1433.78 L1570.07 1433.78 L1562.15 1433.78 L1554.24 1433.78 L1546.32 1433.78 L1538.41 1433.78 L1529.83 1433.78 L1521.26 1433.78 L1512.69 1433.78 L1504.12 1433.78 L1495.55 1433.78 L1486.98 1433.78 L1478.41 1433.78 L1469.84 1433.78 L1451.13 1433.78 L1432.41 1433.78 L1423.06 1433.78 L1413.7 1433.78 L1409.02 1433.78 L1404.35 1433.78 L1402.01 1433.78 L1399.67 1433.78 L1397.33 1433.78 L1394.99 1433.78 L1393.07 1433.78 L1391.16 1433.78 L1389.24 1433.78 L1387.33 1433.78 L1386.37 1433.78 L1385.41 1433.78 L1384.45 1433.78 L1383.49 1433.78 L1382.54 1433.78 L1381.58 1433.78 L1380.62 1433.78 L1379.66 1433.78 L1378.7 1433.78 L1377.75 1433.78 L1376.79 1433.78 L1375.83 1433.78 L1374.87 1433.78 L1373.91 1433.78 L1372.96 1433.78 L1372 1433.78 L1370.08 1433.78 L1368.17 1433.78 L1366.25 1433.78 L1364.34 1433.78 L1360.5 1433.78 L1356.67 1433.78 L1354.76 1433.78 L1352.84 1433.78 L1350.92 1433.78 L1349.01 1433.78 L1348.05 1433.78 L1347.09 1433.78 L1346.13 1433.78 L1345.18 1433.78 L1344.22 1433.78 L1343.26 1433.78 L1342.3 1433.78 L1341.34 1433.78 L1340.39 1433.78 L1339.43 1433.78 L1338.47 1433.78 L1337.51 1433.78 L1336.56 1433.78 L1335.6 1433.78 L1334.64 1433.78 L1333.68 1433.78 L1332.54 1433.78 L1331.41 1433.78 L1330.27 1433.78 L1329.13 1433.78 L1327.99 1433.78 L1326.85 1433.78 L1325.72 1433.78 L1324.58 1433.78 L1323.44 1433.78 L1322.3 1433.78 L1321.16 1433.78 L1320.03 1433.78 L1318.89 1433.78 L1317.75 1433.78 L1316.61 1433.78 L1315.47 1433.78 L1313.2 1433.78 L1310.92 1433.78 L1308.65 1433.78 L1306.37 1433.78 L1301.82 1433.78 L1297.27 1433.78 L1292.71 1433.78 L1288.16 1433.78 L1285.89 1433.78 L1283.61 1433.78 L1281.33 1433.78 L1279.06 1433.78 L1276.78 1433.78 L1274.51 1433.78 L1272.23 1433.78 L1269.96 1433.78 L1267.68 1433.78 L1265.4 1433.78 L1263.13 1433.78 L1260.85 1433.78 L1258.66 1433.78 L1256.47 1433.78 L1254.28 1433.78 L1252.1 1433.78 L1249.91 1433.78 L1247.72 1433.78 L1245.53 1433.78 L1243.34 1433.78 L1238.96 1433.78 L1234.58 1433.78 L1230.21 1433.78 L1225.83 1433.78 L1221.45 1433.78 L1217.07 1433.78 L1212.7 1433.78 L1208.32 1433.78 L1203.94 1433.78 L1199.56 1433.78 L1195.18 1433.78 L1190.81 1433.78 L1181.6 1433.78 L1172.4 1433.78 L1163.2 1433.78 L1154 1433.78 L1144.8 1433.78 L1135.59 1433.78 L1126.39 1433.78 L1117.19 1433.78 L1100.54 1433.78 L1083.9 1433.78 L1067.25 1433.78 L1050.61 1433.78 L1017.51 1433.78 L984.416 1433.78 L923.706 1433.78 L854.474 1433.78 L776.57 1433.78 L709.33 1433.78 L646.612 1433.78 L578.582 1433.78 L515.956 1433.78 L441.884 1433.78 L318.628 1433.78 L305.298 1433.78  Z" fill="#009af9" fill-rule="evenodd" fill-opacity="1"/>
<polyline clip-path="url(#clip862)" style="stroke:#009af9; stroke-linecap:round; stroke-linejoin:round; stroke-width:4; stroke-opacity:1; fill:none" points="305.298,1428.06 318.628,1428.06 441.884,1428.04 515.956,1428.02 578.582,1427.99 646.612,1427.93 709.33,1427.84 776.57,1427.64 854.474,1427.19 923.706,1426.33 984.416,1424.76 1017.51,1423.23 1050.61,1420.8 1067.25,1419.01 1083.9,1416.66 1100.54,1413.5 1117.19,1409.18 1126.39,1406.1 1135.59,1402.37 1144.8,1397.82 1154,1392.24 1163.2,1385.34 1172.4,1376.74 1181.6,1365.98 1190.81,1352.4 1195.18,1344.71 1199.56,1336.1 1203.94,1326.44 1208.32,1315.58 1212.7,1303.37 1217.07,1289.64 1221.45,1274.19 1225.83,1256.8 1230.21,1237.22 1234.58,1215.2 1238.96,1190.45 1243.34,1162.65 1245.53,1147.52 1247.72,1131.5 1249.91,1114.56 1252.1,1096.65 1254.28,1077.74 1256.47,1057.78 1258.66,1036.74 1260.85,1014.58 1263.13,990.312 1265.4,964.765 1267.68,937.912 1269.96,909.733 1272.23,880.215 1274.51,849.359 1276.78,817.176 1279.06,783.691 1281.33,748.947 1283.61,713.005 1285.89,675.946 1288.16,637.877 1292.71,559.264 1297.27,478.581 1301.82,397.773 1306.37,319.36 1308.65,282.003 1310.92,246.456 1313.2,213.192 1315.47,182.711 1316.61,168.676 1317.75,155.533 1318.89,143.349 1320.03,132.19 1321.16,122.123 1322.3,113.215 1323.44,105.531 1324.58,99.1343 1325.72,94.0876 1326.85,90.4503 1327.99,88.2795 1329.13,87.6286 1330.27,88.5475 1331.41,91.0815 1332.54,95.2711 1333.68,101.151 1334.64,107.433 1335.6,114.948 1336.56,123.705 1337.51,133.712 1338.47,144.971 1339.43,157.481 1340.39,171.236 1341.34,186.228 1342.3,202.44 1343.26,219.856 1344.22,238.45 1345.18,258.195 1346.13,279.058 1347.09,301.002 1348.05,323.983 1349.01,347.956 1350.92,398.663 1352.84,452.662 1354.76,509.427 1356.67,568.377 1360.5,690.311 1364.34,813.204 1366.25,873.352 1368.17,931.796 1370.08,987.966 1372,1041.35 1372.96,1066.86 1373.91,1091.52 1374.87,1115.29 1375.83,1138.13 1376.79,1160.01 1377.75,1180.92 1378.7,1200.82 1379.66,1219.72 1380.62,1237.61 1381.58,1254.48 1382.54,1270.35 1383.49,1285.22 1384.45,1299.11 1385.41,1312.04 1386.37,1324.03 1387.33,1335.12 1389.24,1354.71 1391.16,1371.09 1393.07,1384.57 1394.99,1395.49 1397.33,1405.84 1399.67,1413.48 1402.01,1418.96 1404.35,1422.76 1409.02,1426.94 1413.7,1428.47 1423.06,1428.59 1432.41,1427.7 1451.13,1424.94 1469.84,1420.45 1478.41,1417.51 1486.98,1413.8 1495.55,1409.13 1504.12,1403.28 1512.69,1396 1521.26,1387.06 1529.83,1376.27 1538.41,1363.62 1546.32,1350.49 1554.24,1336.53 1562.15,1322.71 1570.07,1310.56 1574.03,1305.71 1577.98,1302.05 1581.94,1299.85 1585.9,1299.37 1589.86,1300.82 1593.82,1304.36 1597.77,1310.02 1601.73,1317.74 1605.74,1327.46 1609.75,1338.73 1613.76,1351.08 1617.77,1363.94 1621.78,1376.7 1625.79,1388.78 1629.8,1399.67 1633.81,1409.02 1637.82,1416.64 1641.82,1422.51 1645.83,1426.77 1649.84,1429.68 1657.86,1432.64 1665.88,1433.55 1683.85,1433.78 1701.83,1433.78 1719.8,1433.78 1737.77,1433.78 1770.34,1433.78 1802.92,1433.78 1877.51,1433.78 1946.57,1433.78 2014.65,1433.78 2080.76,1433.78 2148.53,1433.78 2222.77,1433.78 2330.63,1433.78 2352.76,1433.78 "/>
<path clip-path="url(#clip860)" d="M1909.97 198.488 L2284.51 198.488 L2284.51 94.8081 L1909.97 94.8081  Z" fill="#ffffff" fill-rule="evenodd" fill-opacity="1"/>
<polyline clip-path="url(#clip860)" style="stroke:#000000; stroke-linecap:round; stroke-linejoin:round; stroke-width:4; stroke-opacity:1; fill:none" points="1909.97,198.488 2284.51,198.488 2284.51,94.8081 1909.97,94.8081 1909.97,198.488 "/>
<path clip-path="url(#clip860)" d="M1932.72 167.384 L2069.22 167.384 L2069.22 125.912 L1932.72 125.912 L1932.72 167.384  Z" fill="#009af9" fill-rule="evenodd" fill-opacity="1"/>
<polyline clip-path="url(#clip860)" style="stroke:#009af9; stroke-linecap:round; stroke-linejoin:round; stroke-width:4; stroke-opacity:1; fill:none" points="1932.72,125.912 2069.22,125.912 "/>
<path clip-path="url(#clip860)" d="M2110.88 141.937 L2110.88 127.91 L2115.14 127.91 L2115.14 163.928 L2110.88 163.928 L2110.88 160.039 Q2109.54 162.354 2107.48 163.488 Q2105.44 164.599 2102.57 164.599 Q2097.87 164.599 2094.91 160.849 Q2091.97 157.099 2091.97 150.988 Q2091.97 144.877 2094.91 141.127 Q2097.87 137.377 2102.57 137.377 Q2105.44 137.377 2107.48 138.512 Q2109.54 139.623 2110.88 141.937 M2096.37 150.988 Q2096.37 155.687 2098.29 158.373 Q2100.23 161.035 2103.61 161.035 Q2106.99 161.035 2108.93 158.373 Q2110.88 155.687 2110.88 150.988 Q2110.88 146.289 2108.93 143.627 Q2106.99 140.942 2103.61 140.942 Q2100.23 140.942 2098.29 143.627 Q2096.37 146.289 2096.37 150.988 Z" fill="#000000" fill-rule="nonzero" fill-opacity="1" /><path clip-path="url(#clip860)" d="M2146.09 149.9 L2146.09 151.984 L2126.5 151.984 Q2126.78 156.382 2129.14 158.697 Q2131.53 160.988 2135.76 160.988 Q2138.22 160.988 2140.51 160.386 Q2142.82 159.785 2145.09 158.581 L2145.09 162.609 Q2142.8 163.581 2140.39 164.09 Q2137.99 164.599 2135.51 164.599 Q2129.3 164.599 2125.67 160.988 Q2122.06 157.377 2122.06 151.22 Q2122.06 144.854 2125.49 141.127 Q2128.93 137.377 2134.77 137.377 Q2140 137.377 2143.03 140.757 Q2146.09 144.113 2146.09 149.9 M2141.83 148.65 Q2141.78 145.155 2139.86 143.072 Q2137.96 140.988 2134.81 140.988 Q2131.25 140.988 2129.1 143.002 Q2126.97 145.016 2126.64 148.674 L2141.83 148.65 Z" fill="#000000" fill-rule="nonzero" fill-opacity="1" /><path clip-path="url(#clip860)" d="M2174.63 148.28 L2174.63 163.928 L2170.37 163.928 L2170.37 148.419 Q2170.37 144.738 2168.93 142.91 Q2167.5 141.081 2164.63 141.081 Q2161.18 141.081 2159.19 143.28 Q2157.2 145.479 2157.2 149.275 L2157.2 163.928 L2152.92 163.928 L2152.92 138.002 L2157.2 138.002 L2157.2 142.03 Q2158.73 139.692 2160.79 138.535 Q2162.87 137.377 2165.58 137.377 Q2170.05 137.377 2172.34 140.155 Q2174.63 142.91 2174.63 148.28 Z" fill="#000000" fill-rule="nonzero" fill-opacity="1" /><path clip-path="url(#clip860)" d="M2199.65 138.766 L2199.65 142.794 Q2197.85 141.868 2195.9 141.405 Q2193.96 140.942 2191.87 140.942 Q2188.7 140.942 2187.11 141.914 Q2185.53 142.887 2185.53 144.831 Q2185.53 146.312 2186.67 147.169 Q2187.8 148.002 2191.23 148.766 L2192.68 149.09 Q2197.22 150.062 2199.12 151.845 Q2201.04 153.604 2201.04 156.775 Q2201.04 160.386 2198.17 162.493 Q2195.32 164.599 2190.32 164.599 Q2188.24 164.599 2185.97 164.183 Q2183.73 163.789 2181.23 162.979 L2181.23 158.581 Q2183.59 159.808 2185.88 160.433 Q2188.17 161.035 2190.42 161.035 Q2193.42 161.035 2195.05 160.016 Q2196.67 158.974 2196.67 157.099 Q2196.67 155.363 2195.48 154.437 Q2194.33 153.512 2190.37 152.655 L2188.89 152.308 Q2184.93 151.474 2183.17 149.762 Q2181.41 148.025 2181.41 145.016 Q2181.41 141.359 2184 139.368 Q2186.6 137.377 2191.36 137.377 Q2193.73 137.377 2195.81 137.725 Q2197.89 138.072 2199.65 138.766 Z" fill="#000000" fill-rule="nonzero" fill-opacity="1" /><path clip-path="url(#clip860)" d="M2207.82 138.002 L2212.08 138.002 L2212.08 163.928 L2207.82 163.928 L2207.82 138.002 M2207.82 127.91 L2212.08 127.91 L2212.08 133.303 L2207.82 133.303 L2207.82 127.91 Z" fill="#000000" fill-rule="nonzero" fill-opacity="1" /><path clip-path="url(#clip860)" d="M2225.21 130.641 L2225.21 138.002 L2233.98 138.002 L2233.98 141.312 L2225.21 141.312 L2225.21 155.386 Q2225.21 158.558 2226.06 159.461 Q2226.94 160.363 2229.61 160.363 L2233.98 160.363 L2233.98 163.928 L2229.61 163.928 Q2224.67 163.928 2222.8 162.099 Q2220.92 160.248 2220.92 155.386 L2220.92 141.312 L2217.8 141.312 L2217.8 138.002 L2220.92 138.002 L2220.92 130.641 L2225.21 130.641 Z" fill="#000000" fill-rule="nonzero" fill-opacity="1" /><path clip-path="url(#clip860)" d="M2250.37 166.336 Q2248.56 170.965 2246.85 172.377 Q2245.14 173.789 2242.27 173.789 L2238.86 173.789 L2238.86 170.224 L2241.36 170.224 Q2243.12 170.224 2244.1 169.391 Q2245.07 168.558 2246.25 165.456 L2247.01 163.511 L2236.53 138.002 L2241.04 138.002 L2249.14 158.28 L2257.24 138.002 L2261.76 138.002 L2250.37 166.336 Z" fill="#000000" fill-rule="nonzero" fill-opacity="1" /></svg>
