<?xml version="1.0" encoding="utf-8"?>
<svg xmlns="http://www.w3.org/2000/svg" xmlns:xlink="http://www.w3.org/1999/xlink" width="600" height="400" viewBox="0 0 2400 1600">
<defs>
  <clipPath id="clip420">
    <rect x="0" y="0" width="2400" height="1600"/>
  </clipPath>
</defs>
<path clip-path="url(#clip420)" d="M0 1600 L2400 1600 L2400 0 L0 0  Z" fill="#ffffff" fill-rule="evenodd" fill-opacity="1"/>
<defs>
  <clipPath id="clip421">
    <rect x="480" y="0" width="1681" height="1600"/>
  </clipPath>
</defs>
<path clip-path="url(#clip420)" d="M110.881 1474.16 L2352.76 1474.16 L2352.76 47.2441 L110.881 47.2441  Z" fill="#ffffff" fill-rule="evenodd" fill-opacity="1"/>
<defs>
  <clipPath id="clip422">
    <rect x="110" y="47" width="2243" height="1428"/>
  </clipPath>
</defs>
<polyline clip-path="url(#clip422)" style="stroke:#000000; stroke-linecap:round; stroke-linejoin:round; stroke-width:2; stroke-opacity:0.1; fill:none" points="174.33,1474.16 174.33,47.2441 "/>
<polyline clip-path="url(#clip422)" style="stroke:#000000; stroke-linecap:round; stroke-linejoin:round; stroke-width:2; stroke-opacity:0.1; fill:none" points="1496.19,1474.16 1496.19,47.2441 "/>
<polyline clip-path="url(#clip420)" style="stroke:#000000; stroke-linecap:round; stroke-linejoin:round; stroke-width:4; stroke-opacity:1; fill:none" points="110.881,1474.16 2352.76,1474.16 "/>
<polyline clip-path="url(#clip420)" style="stroke:#000000; stroke-linecap:round; stroke-linejoin:round; stroke-width:4; stroke-opacity:1; fill:none" points="174.33,1474.16 174.33,1455.27 "/>
<polyline clip-path="url(#clip420)" style="stroke:#000000; stroke-linecap:round; stroke-linejoin:round; stroke-width:4; stroke-opacity:1; fill:none" points="1496.19,1474.16 1496.19,1455.27 "/>
<path clip-path="url(#clip420)" d="M111.694 1548.29 L119.333 1548.29 L119.333 1521.92 L111.023 1523.59 L111.023 1519.33 L119.286 1517.66 L123.962 1517.66 L123.962 1548.29 L131.601 1548.29 L131.601 1552.22 L111.694 1552.22 L111.694 1548.29 Z" fill="#000000" fill-rule="nonzero" fill-opacity="1" /><path clip-path="url(#clip420)" d="M151.045 1520.74 Q147.434 1520.74 145.606 1524.31 Q143.8 1527.85 143.8 1534.98 Q143.8 1542.09 145.606 1545.65 Q147.434 1549.19 151.045 1549.19 Q154.68 1549.19 156.485 1545.65 Q158.314 1542.09 158.314 1534.98 Q158.314 1527.85 156.485 1524.31 Q154.68 1520.74 151.045 1520.74 M151.045 1517.04 Q156.856 1517.04 159.911 1521.65 Q162.99 1526.23 162.99 1534.98 Q162.99 1543.71 159.911 1548.31 Q156.856 1552.9 151.045 1552.9 Q145.235 1552.9 142.157 1548.31 Q139.101 1543.71 139.101 1534.98 Q139.101 1526.23 142.157 1521.65 Q145.235 1517.04 151.045 1517.04 Z" fill="#000000" fill-rule="nonzero" fill-opacity="1" /><path clip-path="url(#clip420)" d="M162.99 1511.14 L187.101 1511.14 L187.101 1514.34 L162.99 1514.34 L162.99 1511.14 Z" fill="#000000" fill-rule="nonzero" fill-opacity="1" /><path clip-path="url(#clip420)" d="M195.96 1521.62 L202.166 1521.62 L202.166 1500.19 L195.414 1501.55 L195.414 1498.09 L202.129 1496.73 L205.928 1496.73 L205.928 1521.62 L212.135 1521.62 L212.135 1524.81 L195.96 1524.81 L195.96 1521.62 Z" fill="#000000" fill-rule="nonzero" fill-opacity="1" /><path clip-path="url(#clip420)" d="M227.933 1499.24 Q224.999 1499.24 223.513 1502.13 Q222.046 1505.01 222.046 1510.8 Q222.046 1516.58 223.513 1519.47 Q224.999 1522.35 227.933 1522.35 Q230.886 1522.35 232.353 1519.47 Q233.839 1516.58 233.839 1510.8 Q233.839 1505.01 232.353 1502.13 Q230.886 1499.24 227.933 1499.24 M227.933 1496.23 Q232.654 1496.23 235.136 1499.97 Q237.638 1503.69 237.638 1510.8 Q237.638 1517.89 235.136 1521.64 Q232.654 1525.36 227.933 1525.36 Q223.212 1525.36 220.711 1521.64 Q218.228 1517.89 218.228 1510.8 Q218.228 1503.69 220.711 1499.97 Q223.212 1496.23 227.933 1496.23 Z" fill="#000000" fill-rule="nonzero" fill-opacity="1" /><path clip-path="url(#clip420)" d="M1446.21 1548.29 L1453.85 1548.29 L1453.85 1521.92 L1445.54 1523.59 L1445.54 1519.33 L1453.8 1517.66 L1458.48 1517.66 L1458.48 1548.29 L1466.12 1548.29 L1466.12 1552.22 L1446.21 1552.22 L1446.21 1548.29 Z" fill="#000000" fill-rule="nonzero" fill-opacity="1" /><path clip-path="url(#clip420)" d="M1485.56 1520.74 Q1481.95 1520.74 1480.12 1524.31 Q1478.32 1527.85 1478.32 1534.98 Q1478.32 1542.09 1480.12 1545.65 Q1481.95 1549.19 1485.56 1549.19 Q1489.2 1549.19 1491 1545.65 Q1492.83 1542.09 1492.83 1534.98 Q1492.83 1527.85 1491 1524.31 Q1489.2 1520.74 1485.56 1520.74 M1485.56 1517.04 Q1491.37 1517.04 1494.43 1521.65 Q1497.51 1526.23 1497.51 1534.98 Q1497.51 1543.71 1494.43 1548.31 Q1491.37 1552.9 1485.56 1552.9 Q1479.75 1552.9 1476.67 1548.31 Q1473.62 1543.71 1473.62 1534.98 Q1473.62 1526.23 1476.67 1521.65 Q1479.75 1517.04 1485.56 1517.04 Z" fill="#000000" fill-rule="nonzero" fill-opacity="1" /><path clip-path="url(#clip420)" d="M1497.51 1511.14 L1521.62 1511.14 L1521.62 1514.34 L1497.51 1514.34 L1497.51 1511.14 Z" fill="#000000" fill-rule="nonzero" fill-opacity="1" /><path clip-path="url(#clip420)" d="M1529.86 1496.73 L1544.77 1496.73 L1544.77 1499.93 L1533.34 1499.93 L1533.34 1506.82 Q1534.16 1506.53 1534.99 1506.4 Q1535.82 1506.25 1536.65 1506.25 Q1541.35 1506.25 1544.09 1508.83 Q1546.84 1511.4 1546.84 1515.81 Q1546.84 1520.34 1544.02 1522.86 Q1541.2 1525.36 1536.06 1525.36 Q1534.3 1525.36 1532.45 1525.06 Q1530.63 1524.76 1528.67 1524.16 L1528.67 1520.34 Q1530.36 1521.26 1532.17 1521.71 Q1533.98 1522.16 1535.99 1522.16 Q1539.24 1522.16 1541.14 1520.45 Q1543.04 1518.74 1543.04 1515.81 Q1543.04 1512.87 1541.14 1511.16 Q1539.24 1509.45 1535.99 1509.45 Q1534.46 1509.45 1532.94 1509.79 Q1531.44 1510.13 1529.86 1510.84 L1529.86 1496.73 Z" fill="#000000" fill-rule="nonzero" fill-opacity="1" /><polyline clip-path="url(#clip422)" style="stroke:#000000; stroke-linecap:round; stroke-linejoin:round; stroke-width:2; stroke-opacity:0.1; fill:none" points="110.881,1433.78 2352.76,1433.78 "/>
<polyline clip-path="url(#clip422)" style="stroke:#000000; stroke-linecap:round; stroke-linejoin:round; stroke-width:2; stroke-opacity:0.1; fill:none" points="110.881,973.553 2352.76,973.553 "/>
<polyline clip-path="url(#clip422)" style="stroke:#000000; stroke-linecap:round; stroke-linejoin:round; stroke-width:2; stroke-opacity:0.1; fill:none" points="110.881,513.326 2352.76,513.326 "/>
<polyline clip-path="url(#clip422)" style="stroke:#000000; stroke-linecap:round; stroke-linejoin:round; stroke-width:2; stroke-opacity:0.1; fill:none" points="110.881,53.0982 2352.76,53.0982 "/>
<polyline clip-path="url(#clip420)" style="stroke:#000000; stroke-linecap:round; stroke-linejoin:round; stroke-width:4; stroke-opacity:1; fill:none" points="110.881,1474.16 110.881,47.2441 "/>
<polyline clip-path="url(#clip420)" style="stroke:#000000; stroke-linecap:round; stroke-linejoin:round; stroke-width:4; stroke-opacity:1; fill:none" points="110.881,1433.78 129.779,1433.78 "/>
<polyline clip-path="url(#clip420)" style="stroke:#000000; stroke-linecap:round; stroke-linejoin:round; stroke-width:4; stroke-opacity:1; fill:none" points="110.881,973.553 129.779,973.553 "/>
<polyline clip-path="url(#clip420)" style="stroke:#000000; stroke-linecap:round; stroke-linejoin:round; stroke-width:4; stroke-opacity:1; fill:none" points="110.881,513.326 129.779,513.326 "/>
<polyline clip-path="url(#clip420)" style="stroke:#000000; stroke-linecap:round; stroke-linejoin:round; stroke-width:4; stroke-opacity:1; fill:none" points="110.881,53.0982 129.779,53.0982 "/>
<path clip-path="url(#clip420)" d="M62.9365 1419.58 Q59.3254 1419.58 57.4967 1423.14 Q55.6912 1426.69 55.6912 1433.81 Q55.6912 1440.92 57.4967 1444.49 Q59.3254 1448.03 62.9365 1448.03 Q66.5707 1448.03 68.3763 1444.49 Q70.205 1440.92 70.205 1433.81 Q70.205 1426.69 68.3763 1423.14 Q66.5707 1419.58 62.9365 1419.58 M62.9365 1415.88 Q68.7467 1415.88 71.8022 1420.48 Q74.8809 1425.06 74.8809 1433.81 Q74.8809 1442.54 71.8022 1447.15 Q68.7467 1451.73 62.9365 1451.73 Q57.1264 1451.73 54.0477 1447.15 Q50.9921 1442.54 50.9921 1433.81 Q50.9921 1425.06 54.0477 1420.48 Q57.1264 1415.88 62.9365 1415.88 Z" fill="#000000" fill-rule="nonzero" fill-opacity="1" /><path clip-path="url(#clip420)" d="M54.9736 986.898 L62.6124 986.898 L62.6124 960.532 L54.3023 962.199 L54.3023 957.939 L62.5661 956.273 L67.242 956.273 L67.242 986.898 L74.8809 986.898 L74.8809 990.833 L54.9736 990.833 L54.9736 986.898 Z" fill="#000000" fill-rule="nonzero" fill-opacity="1" /><path clip-path="url(#clip420)" d="M58.5615 526.67 L74.8809 526.67 L74.8809 530.606 L52.9366 530.606 L52.9366 526.67 Q55.5986 523.916 60.1819 519.286 Q64.7883 514.633 65.9689 513.291 Q68.2143 510.768 69.0939 509.032 Q69.9967 507.272 69.9967 505.583 Q69.9967 502.828 68.0522 501.092 Q66.1309 499.356 63.0291 499.356 Q60.83 499.356 58.3763 500.12 Q55.9458 500.883 53.168 502.434 L53.168 497.712 Q55.9921 496.578 58.4458 495.999 Q60.8995 495.421 62.9365 495.421 Q68.3068 495.421 71.5013 498.106 Q74.6957 500.791 74.6957 505.282 Q74.6957 507.411 73.8855 509.332 Q73.0985 511.231 70.992 513.823 Q70.4133 514.494 67.3115 517.712 Q64.2096 520.906 58.5615 526.67 Z" fill="#000000" fill-rule="nonzero" fill-opacity="1" /><path clip-path="url(#clip420)" d="M67.7513 51.7441 Q71.1078 52.4616 72.9827 54.7301 Q74.8809 56.9987 74.8809 60.332 Q74.8809 65.4477 71.3624 68.2486 Q67.8439 71.0495 61.3624 71.0495 Q59.1865 71.0495 56.8717 70.6097 Q54.5801 70.193 52.1264 69.3366 L52.1264 64.8227 Q54.0708 65.9569 56.3856 66.5356 Q58.7004 67.1143 61.2236 67.1143 Q65.6217 67.1143 67.9133 65.3782 Q70.2281 63.6421 70.2281 60.332 Q70.2281 57.2764 68.0754 55.5635 Q65.9457 53.8274 62.1263 53.8274 L58.0986 53.8274 L58.0986 49.9848 L62.3115 49.9848 Q65.7606 49.9848 67.5893 48.6191 Q69.418 47.2302 69.418 44.6376 Q69.418 41.9756 67.5198 40.5636 Q65.6448 39.1284 62.1263 39.1284 Q60.205 39.1284 58.006 39.545 Q55.8069 39.9617 53.168 40.8413 L53.168 36.6747 Q55.8301 35.934 58.1449 35.5636 Q60.4828 35.1932 62.543 35.1932 Q67.867 35.1932 70.9689 37.6238 Q74.0707 40.0312 74.0707 44.1515 Q74.0707 47.0219 72.4272 49.0126 Q70.7837 50.9802 67.7513 51.7441 Z" fill="#000000" fill-rule="nonzero" fill-opacity="1" /><polyline clip-path="url(#clip422)" style="stroke:#009af9; stroke-linecap:round; stroke-linejoin:round; stroke-width:4; stroke-opacity:1; fill:none" points="174.33,1433.78 217.493,1433.78 217.493,1433.78 260.656,1433.78 260.656,1433.78 303.819,1433.78 303.819,1433.78 346.981,1433.78 346.981,1433.78 390.144,1433.78 390.144,1433.78 433.307,1433.78 433.307,1433.78 476.47,1433.78 476.47,1433.78 519.632,1433.78 519.632,1433.78 562.795,1433.78 562.795,1433.78 605.958,1433.78 605.958,1433.78 649.121,1433.78 649.121,1433.78 692.284,1433.78 692.284,1433.77 735.446,1433.77 735.446,1433.77 778.609,1433.77 778.609,1433.77 821.772,1433.77 821.772,1433.76 864.935,1433.76 864.935,1433.75 908.098,1433.75 908.098,1433.74 951.26,1433.74 951.26,1433.72 994.423,1433.72 994.423,1433.68 1037.59,1433.68 1037.59,1433.62 1080.75,1433.62 1080.75,1433.53 1123.91,1433.53 1123.91,1433.35 1167.07,1433.35 1167.07,1432.98 1210.24,1432.98 1210.24,1432.18 1253.4,1432.18 1253.4,1430.11 1296.56,1430.11 1296.56,1423.91 1339.73,1423.91 1339.73,1401.64 1382.89,1401.64 1382.89,1309.24 1426.05,1309.24 1426.05,932.724 1469.21,932.724 1469.21,87.6286 1512.38,87.6286 1512.38,674.11 1555.54,674.11 1555.54,1428.16 1598.7,1428.16 1598.7,1433.78 1641.86,1433.78 1641.86,1433.78 1685.03,1433.78 1728.19,1433.78 1771.35,1433.78 1814.52,1433.78 1857.68,1433.78 1900.84,1433.78 1944,1433.78 1987.17,1433.78 2030.33,1433.78 2073.49,1433.78 2116.66,1433.78 2159.82,1433.78 2202.98,1433.78 2246.14,1433.78 2289.31,1433.78 "/>
<polyline clip-path="url(#clip422)" style="stroke:#000000; stroke-linecap:round; stroke-linejoin:round; stroke-width:4; stroke-opacity:0.5; fill:none" stroke-dasharray="16, 10" points="174.33,1433.78 174.33,87.6286 "/>
<polyline clip-path="url(#clip422)" style="stroke:#000000; stroke-linecap:round; stroke-linejoin:round; stroke-width:4; stroke-opacity:0.5; fill:none" stroke-dasharray="16, 10" points="1231.82,1433.78 1231.82,87.6286 "/>
<polyline clip-path="url(#clip422)" style="stroke:#000000; stroke-linecap:round; stroke-linejoin:round; stroke-width:4; stroke-opacity:0.5; fill:none" stroke-dasharray="16, 10" points="1231.82,1433.78 1231.82,87.6286 "/>
<polyline clip-path="url(#clip422)" style="stroke:#000000; stroke-linecap:round; stroke-linejoin:round; stroke-width:4; stroke-opacity:0.5; fill:none" stroke-dasharray="16, 10" points="1760.56,1433.78 1760.56,87.6286 "/>
<polyline clip-path="url(#clip422)" style="stroke:#000000; stroke-linecap:round; stroke-linejoin:round; stroke-width:4; stroke-opacity:0.5; fill:none" stroke-dasharray="16, 10" points="1760.56,1433.78 1760.56,87.6286 "/>
<polyline clip-path="url(#clip422)" style="stroke:#000000; stroke-linecap:round; stroke-linejoin:round; stroke-width:4; stroke-opacity:0.5; fill:none" stroke-dasharray="16, 10" points="2289.31,1433.78 2289.31,87.6286 "/>
<path clip-path="url(#clip420)" d="M1967.91 198.488 L2278.03 198.488 L2278.03 94.8081 L1967.91 94.8081  Z" fill="#ffffff" fill-rule="evenodd" fill-opacity="1"/>
<polyline clip-path="url(#clip420)" style="stroke:#000000; stroke-linecap:round; stroke-linejoin:round; stroke-width:4; stroke-opacity:1; fill:none" points="1967.91,198.488 2278.03,198.488 2278.03,94.8081 1967.91,94.8081 1967.91,198.488 "/>
<polyline clip-path="url(#clip420)" style="stroke:#009af9; stroke-linecap:round; stroke-linejoin:round; stroke-width:4; stroke-opacity:1; fill:none" points="1992.82,146.648 2142.28,146.648 "/>
<path clip-path="url(#clip420)" d="M2186.1 150.664 Q2186.1 146.035 2184.18 143.488 Q2182.28 140.942 2178.84 140.942 Q2175.41 140.942 2173.49 143.488 Q2171.59 146.035 2171.59 150.664 Q2171.59 155.271 2173.49 157.817 Q2175.41 160.363 2178.84 160.363 Q2182.28 160.363 2184.18 157.817 Q2186.1 155.271 2186.1 150.664 M2190.36 160.711 Q2190.36 167.331 2187.42 170.548 Q2184.48 173.789 2178.42 173.789 Q2176.17 173.789 2174.18 173.442 Q2172.19 173.118 2170.32 172.423 L2170.32 168.28 Q2172.19 169.298 2174.02 169.785 Q2175.85 170.271 2177.75 170.271 Q2181.94 170.271 2184.02 168.072 Q2186.1 165.896 2186.1 161.474 L2186.1 159.368 Q2184.78 161.66 2182.72 162.794 Q2180.66 163.928 2177.79 163.928 Q2173.02 163.928 2170.11 160.294 Q2167.19 156.66 2167.19 150.664 Q2167.19 144.646 2170.11 141.012 Q2173.02 137.377 2177.79 137.377 Q2180.66 137.377 2182.72 138.512 Q2184.78 139.646 2186.1 141.937 L2186.1 138.002 L2190.36 138.002 L2190.36 160.711 Z" fill="#000000" fill-rule="nonzero" fill-opacity="1" /><path clip-path="url(#clip420)" d="M2214.16 141.984 Q2213.44 141.567 2212.58 141.382 Q2211.75 141.174 2210.73 141.174 Q2207.12 141.174 2205.18 143.535 Q2203.26 145.873 2203.26 150.271 L2203.26 163.928 L2198.97 163.928 L2198.97 138.002 L2203.26 138.002 L2203.26 142.03 Q2204.6 139.669 2206.75 138.535 Q2208.9 137.377 2211.98 137.377 Q2212.42 137.377 2212.96 137.447 Q2213.49 137.493 2214.14 137.609 L2214.16 141.984 Z" fill="#000000" fill-rule="nonzero" fill-opacity="1" /><path clip-path="url(#clip420)" d="M2218.63 138.002 L2222.89 138.002 L2222.89 163.928 L2218.63 163.928 L2218.63 138.002 M2218.63 127.91 L2222.89 127.91 L2222.89 133.303 L2218.63 133.303 L2218.63 127.91 Z" fill="#000000" fill-rule="nonzero" fill-opacity="1" /><path clip-path="url(#clip420)" d="M2248.86 141.937 L2248.86 127.91 L2253.12 127.91 L2253.12 163.928 L2248.86 163.928 L2248.86 160.039 Q2247.52 162.354 2245.46 163.488 Q2243.42 164.599 2240.55 164.599 Q2235.85 164.599 2232.89 160.849 Q2229.95 157.099 2229.95 150.988 Q2229.95 144.877 2232.89 141.127 Q2235.85 137.377 2240.55 137.377 Q2243.42 137.377 2245.46 138.512 Q2247.52 139.623 2248.86 141.937 M2234.34 150.988 Q2234.34 155.687 2236.27 158.373 Q2238.21 161.035 2241.59 161.035 Q2244.97 161.035 2246.91 158.373 Q2248.86 155.687 2248.86 150.988 Q2248.86 146.289 2246.91 143.627 Q2244.97 140.942 2241.59 140.942 Q2238.21 140.942 2236.27 143.627 Q2234.34 146.289 2234.34 150.988 Z" fill="#000000" fill-rule="nonzero" fill-opacity="1" /><path clip-path="url(#clip420)" d="M175.169 373.54 L184.718 373.54 L184.718 340.583 L174.33 342.666 L174.33 337.342 L184.66 335.259 L190.505 335.259 L190.505 373.54 L200.053 373.54 L200.053 378.459 L175.169 378.459 L175.169 373.54 Z" fill="#000000" fill-rule="nonzero" fill-opacity="1" /><path clip-path="url(#clip420)" d="M211.859 371.109 L217.964 371.109 L217.964 378.459 L211.859 378.459 L211.859 371.109 Z" fill="#000000" fill-rule="nonzero" fill-opacity="1" /><path clip-path="url(#clip420)" d="M235.73 373.54 L256.13 373.54 L256.13 378.459 L228.699 378.459 L228.699 373.54 Q232.027 370.097 237.756 364.31 Q243.514 358.494 244.99 356.816 Q247.796 353.662 248.896 351.491 Q250.024 349.292 250.024 347.18 Q250.024 343.737 247.594 341.567 Q245.192 339.397 241.315 339.397 Q238.566 339.397 235.499 340.352 Q232.461 341.306 228.988 343.245 L228.988 337.342 Q232.519 335.924 235.586 335.201 Q238.653 334.478 241.199 334.478 Q247.912 334.478 251.905 337.834 Q255.898 341.191 255.898 346.804 Q255.898 349.466 254.885 351.868 Q253.902 354.24 251.268 357.481 Q250.545 358.32 246.668 362.342 Q242.79 366.335 235.73 373.54 Z" fill="#000000" fill-rule="nonzero" fill-opacity="1" /><path clip-path="url(#clip420)" d="M281.621 354.53 Q277.686 354.53 275.371 357.221 Q273.085 359.912 273.085 364.599 Q273.085 369.258 275.371 371.977 Q277.686 374.668 281.621 374.668 Q285.556 374.668 287.842 371.977 Q290.157 369.258 290.157 364.599 Q290.157 359.912 287.842 357.221 Q285.556 354.53 281.621 354.53 M293.224 336.214 L293.224 341.538 Q291.025 340.496 288.768 339.946 Q286.54 339.397 284.341 339.397 Q278.554 339.397 275.487 343.303 Q272.449 347.209 272.015 355.108 Q273.722 352.591 276.297 351.26 Q278.872 349.9 281.968 349.9 Q288.479 349.9 292.24 353.864 Q296.031 357.799 296.031 364.599 Q296.031 371.254 292.096 375.276 Q288.161 379.298 281.621 379.298 Q274.127 379.298 270.163 373.569 Q266.199 367.811 266.199 356.902 Q266.199 346.659 271.06 340.583 Q275.921 334.478 284.11 334.478 Q286.309 334.478 288.537 334.912 Q290.794 335.346 293.224 336.214 Z" fill="#000000" fill-rule="nonzero" fill-opacity="1" /><path clip-path="url(#clip420)" d="M333.068 360.924 L333.068 363.528 L308.589 363.528 Q308.936 369.026 311.887 371.92 Q314.868 374.784 320.163 374.784 Q323.23 374.784 326.094 374.032 Q328.988 373.28 331.824 371.775 L331.824 376.81 Q328.959 378.025 325.95 378.661 Q322.94 379.298 319.844 379.298 Q312.09 379.298 307.547 374.784 Q303.033 370.27 303.033 362.574 Q303.033 354.616 307.316 349.958 Q311.627 345.27 318.919 345.27 Q325.458 345.27 329.248 349.495 Q333.068 353.691 333.068 360.924 M327.744 359.362 Q327.686 354.993 325.284 352.388 Q322.912 349.784 318.976 349.784 Q314.52 349.784 311.829 352.302 Q309.167 354.819 308.762 359.391 L327.744 359.362 Z" fill="#000000" fill-rule="nonzero" fill-opacity="1" /><path clip-path="url(#clip420)" d="M339.115 359.854 L354.711 359.854 L354.711 364.599 L339.115 364.599 L339.115 359.854 Z" fill="#000000" fill-rule="nonzero" fill-opacity="1" /><path clip-path="url(#clip420)" d="M376.441 339.107 Q371.928 339.107 369.642 343.563 Q367.385 347.99 367.385 356.902 Q367.385 365.785 369.642 370.241 Q371.928 374.668 376.441 374.668 Q380.984 374.668 383.241 370.241 Q385.527 365.785 385.527 356.902 Q385.527 347.99 383.241 343.563 Q380.984 339.107 376.441 339.107 M376.441 334.478 Q383.704 334.478 387.523 340.236 Q391.372 345.965 391.372 356.902 Q391.372 367.811 387.523 373.569 Q383.704 379.298 376.441 379.298 Q369.179 379.298 365.33 373.569 Q361.511 367.811 361.511 356.902 Q361.511 345.965 365.33 340.236 Q369.179 334.478 376.441 334.478 Z" fill="#000000" fill-rule="nonzero" fill-opacity="1" /><path clip-path="url(#clip420)" d="M419.352 355.166 Q423.548 356.063 425.891 358.899 Q428.264 361.734 428.264 365.901 Q428.264 372.296 423.866 375.797 Q419.468 379.298 411.366 379.298 Q408.646 379.298 405.753 378.748 Q402.888 378.227 399.821 377.157 L399.821 371.515 Q402.251 372.932 405.145 373.656 Q408.038 374.379 411.192 374.379 Q416.69 374.379 419.555 372.209 Q422.448 370.039 422.448 365.901 Q422.448 362.082 419.757 359.941 Q417.095 357.77 412.321 357.77 L407.286 357.77 L407.286 352.967 L412.552 352.967 Q416.864 352.967 419.149 351.26 Q421.435 349.524 421.435 346.283 Q421.435 342.956 419.063 341.191 Q416.719 339.397 412.321 339.397 Q409.919 339.397 407.17 339.917 Q404.422 340.438 401.123 341.538 L401.123 336.33 Q404.45 335.404 407.344 334.941 Q410.266 334.478 412.842 334.478 Q419.497 334.478 423.374 337.516 Q427.251 340.525 427.251 345.676 Q427.251 349.263 425.197 351.752 Q423.143 354.211 419.352 355.166 Z" fill="#000000" fill-rule="nonzero" fill-opacity="1" /><path clip-path="url(#clip420)" d="M1234.6 242.947 L1234.6 237.623 Q1236.8 238.664 1239.05 239.214 Q1241.31 239.764 1243.48 239.764 Q1249.27 239.764 1252.3 235.887 Q1255.37 231.98 1255.81 224.052 Q1254.13 226.541 1251.55 227.872 Q1248.98 229.203 1245.85 229.203 Q1239.37 229.203 1235.58 225.296 Q1231.82 221.361 1231.82 214.562 Q1231.82 207.906 1235.75 203.885 Q1239.69 199.863 1246.23 199.863 Q1253.72 199.863 1257.66 205.621 Q1261.62 211.35 1261.62 222.287 Q1261.62 232.501 1256.76 238.607 Q1251.93 244.683 1243.74 244.683 Q1241.54 244.683 1239.28 244.249 Q1237.03 243.815 1234.6 242.947 M1246.23 224.631 Q1250.16 224.631 1252.45 221.94 Q1254.76 219.249 1254.76 214.562 Q1254.76 209.903 1252.45 207.212 Q1250.16 204.492 1246.23 204.492 Q1242.29 204.492 1239.98 207.212 Q1237.69 209.903 1237.69 214.562 Q1237.69 219.249 1239.98 221.94 Q1242.29 224.631 1246.23 224.631 Z" fill="#000000" fill-rule="nonzero" fill-opacity="1" /><path clip-path="url(#clip420)" d="M1272.12 236.494 L1278.23 236.494 L1278.23 243.844 L1272.12 243.844 L1272.12 236.494 Z" fill="#000000" fill-rule="nonzero" fill-opacity="1" /><path clip-path="url(#clip420)" d="M1303.46 223.329 Q1299.29 223.329 1296.89 225.557 Q1294.52 227.785 1294.52 231.691 Q1294.52 235.597 1296.89 237.825 Q1299.29 240.053 1303.46 240.053 Q1307.63 240.053 1310.03 237.825 Q1312.43 235.568 1312.43 231.691 Q1312.43 227.785 1310.03 225.557 Q1307.66 223.329 1303.46 223.329 M1297.62 220.84 Q1293.86 219.915 1291.74 217.339 Q1289.66 214.764 1289.66 211.06 Q1289.66 205.881 1293.33 202.872 Q1297.04 199.863 1303.46 199.863 Q1309.91 199.863 1313.59 202.872 Q1317.26 205.881 1317.26 211.06 Q1317.26 214.764 1315.15 217.339 Q1313.07 219.915 1309.34 220.84 Q1313.56 221.824 1315.9 224.689 Q1318.28 227.553 1318.28 231.691 Q1318.28 237.97 1314.43 241.326 Q1310.61 244.683 1303.46 244.683 Q1296.31 244.683 1292.47 241.326 Q1288.65 237.97 1288.65 231.691 Q1288.65 227.553 1291.02 224.689 Q1293.39 221.824 1297.62 220.84 M1295.48 211.61 Q1295.48 214.967 1297.56 216.847 Q1299.67 218.728 1303.46 218.728 Q1307.22 218.728 1309.34 216.847 Q1311.48 214.967 1311.48 211.61 Q1311.48 208.254 1309.34 206.373 Q1307.22 204.492 1303.46 204.492 Q1299.67 204.492 1297.56 206.373 Q1295.48 208.254 1295.48 211.61 Z" fill="#000000" fill-rule="nonzero" fill-opacity="1" /><path clip-path="url(#clip420)" d="M1341.16 223.329 Q1337 223.329 1334.6 225.557 Q1332.22 227.785 1332.22 231.691 Q1332.22 235.597 1334.6 237.825 Q1337 240.053 1341.16 240.053 Q1345.33 240.053 1347.73 237.825 Q1350.13 235.568 1350.13 231.691 Q1350.13 227.785 1347.73 225.557 Q1345.36 223.329 1341.16 223.329 M1335.32 220.84 Q1331.56 219.915 1329.45 217.339 Q1327.36 214.764 1327.36 211.06 Q1327.36 205.881 1331.04 202.872 Q1334.74 199.863 1341.16 199.863 Q1347.62 199.863 1351.29 202.872 Q1354.97 205.881 1354.97 211.06 Q1354.97 214.764 1352.85 217.339 Q1350.77 219.915 1347.04 220.84 Q1351.26 221.824 1353.61 224.689 Q1355.98 227.553 1355.98 231.691 Q1355.98 237.97 1352.13 241.326 Q1348.31 244.683 1341.16 244.683 Q1334.02 244.683 1330.17 241.326 Q1326.35 237.97 1326.35 231.691 Q1326.35 227.553 1328.72 224.689 Q1331.09 221.824 1335.32 220.84 M1333.18 211.61 Q1333.18 214.967 1335.26 216.847 Q1337.37 218.728 1341.16 218.728 Q1344.93 218.728 1347.04 216.847 Q1349.18 214.967 1349.18 211.61 Q1349.18 208.254 1347.04 206.373 Q1344.93 204.492 1341.16 204.492 Q1337.37 204.492 1335.26 206.373 Q1333.18 208.254 1333.18 211.61 Z" fill="#000000" fill-rule="nonzero" fill-opacity="1" /><path clip-path="url(#clip420)" d="M1393.33 226.309 L1393.33 228.913 L1368.85 228.913 Q1369.2 234.411 1372.15 237.304 Q1375.13 240.169 1380.43 240.169 Q1383.5 240.169 1386.36 239.417 Q1389.25 238.664 1392.09 237.16 L1392.09 242.194 Q1389.22 243.41 1386.22 244.046 Q1383.21 244.683 1380.11 244.683 Q1372.36 244.683 1367.81 240.169 Q1363.3 235.655 1363.3 227.958 Q1363.3 220.001 1367.58 215.343 Q1371.89 210.655 1379.18 210.655 Q1385.72 210.655 1389.51 214.88 Q1393.33 219.075 1393.33 226.309 M1388.01 224.747 Q1387.95 220.377 1385.55 217.773 Q1383.18 215.169 1379.24 215.169 Q1374.79 215.169 1372.1 217.687 Q1369.43 220.204 1369.03 224.776 L1388.01 224.747 Z" fill="#000000" fill-rule="nonzero" fill-opacity="1" /><path clip-path="url(#clip420)" d="M1399.38 225.239 L1414.98 225.239 L1414.98 229.984 L1399.38 229.984 L1399.38 225.239 Z" fill="#000000" fill-rule="nonzero" fill-opacity="1" /><path clip-path="url(#clip420)" d="M1436.71 204.492 Q1432.19 204.492 1429.91 208.948 Q1427.65 213.375 1427.65 222.287 Q1427.65 231.17 1429.91 235.626 Q1432.19 240.053 1436.71 240.053 Q1441.25 240.053 1443.51 235.626 Q1445.79 231.17 1445.79 222.287 Q1445.79 213.375 1443.51 208.948 Q1441.25 204.492 1436.71 204.492 M1436.71 199.863 Q1443.97 199.863 1447.79 205.621 Q1451.64 211.35 1451.64 222.287 Q1451.64 233.196 1447.79 238.954 Q1443.97 244.683 1436.71 244.683 Q1429.44 244.683 1425.6 238.954 Q1421.78 233.196 1421.78 222.287 Q1421.78 211.35 1425.6 205.621 Q1429.44 199.863 1436.71 199.863 Z" fill="#000000" fill-rule="nonzero" fill-opacity="1" /><path clip-path="url(#clip420)" d="M1462.92 238.925 L1472.47 238.925 L1472.47 205.968 L1462.08 208.051 L1462.08 202.727 L1472.41 200.644 L1478.26 200.644 L1478.26 238.925 L1487.81 238.925 L1487.81 243.844 L1462.92 243.844 L1462.92 238.925 Z" fill="#000000" fill-rule="nonzero" fill-opacity="1" /><path clip-path="url(#clip420)" d="M1760.56 335.259 L1788.34 335.259 L1788.34 337.747 L1772.66 378.459 L1766.55 378.459 L1781.31 340.178 L1760.56 340.178 L1760.56 335.259 Z" fill="#000000" fill-rule="nonzero" fill-opacity="1" /><path clip-path="url(#clip420)" d="M1799.74 371.109 L1805.85 371.109 L1805.85 378.459 L1799.74 378.459 L1799.74 371.109 Z" fill="#000000" fill-rule="nonzero" fill-opacity="1" /><path clip-path="url(#clip420)" d="M1834.64 340.352 L1819.88 363.413 L1834.64 363.413 L1834.64 340.352 M1833.1 335.259 L1840.45 335.259 L1840.45 363.413 L1846.62 363.413 L1846.62 368.274 L1840.45 368.274 L1840.45 378.459 L1834.64 378.459 L1834.64 368.274 L1815.13 368.274 L1815.13 362.631 L1833.1 335.259 Z" fill="#000000" fill-rule="nonzero" fill-opacity="1" /><path clip-path="url(#clip420)" d="M1856.45 377.562 L1856.45 372.238 Q1858.65 373.28 1860.91 373.829 Q1863.17 374.379 1865.34 374.379 Q1871.12 374.379 1874.16 370.502 Q1877.23 366.596 1877.66 358.667 Q1875.98 361.156 1873.41 362.487 Q1870.83 363.818 1867.71 363.818 Q1861.23 363.818 1857.44 359.912 Q1853.68 355.976 1853.68 349.177 Q1853.68 342.522 1857.61 338.5 Q1861.55 334.478 1868.09 334.478 Q1875.58 334.478 1879.51 340.236 Q1883.48 345.965 1883.48 356.902 Q1883.48 367.116 1878.62 373.222 Q1873.79 379.298 1865.6 379.298 Q1863.4 379.298 1861.14 378.864 Q1858.88 378.43 1856.45 377.562 M1868.09 359.246 Q1872.02 359.246 1874.31 356.555 Q1876.62 353.864 1876.62 349.177 Q1876.62 344.518 1874.31 341.827 Q1872.02 339.107 1868.09 339.107 Q1864.15 339.107 1861.84 341.827 Q1859.55 344.518 1859.55 349.177 Q1859.55 353.864 1861.84 356.555 Q1864.15 359.246 1868.09 359.246 Z" fill="#000000" fill-rule="nonzero" fill-opacity="1" /><path clip-path="url(#clip420)" d="M1920.95 360.924 L1920.95 363.528 L1896.47 363.528 Q1896.82 369.026 1899.77 371.92 Q1902.75 374.784 1908.04 374.784 Q1911.11 374.784 1913.98 374.032 Q1916.87 373.28 1919.71 371.775 L1919.71 376.81 Q1916.84 378.025 1913.83 378.661 Q1910.82 379.298 1907.73 379.298 Q1899.97 379.298 1895.43 374.784 Q1890.91 370.27 1890.91 362.574 Q1890.91 354.616 1895.2 349.958 Q1899.51 345.27 1906.8 345.27 Q1913.34 345.27 1917.13 349.495 Q1920.95 353.691 1920.95 360.924 M1915.63 359.362 Q1915.57 354.993 1913.17 352.388 Q1910.79 349.784 1906.86 349.784 Q1902.4 349.784 1899.71 352.302 Q1897.05 354.819 1896.64 359.391 L1915.63 359.362 Z" fill="#000000" fill-rule="nonzero" fill-opacity="1" /><path clip-path="url(#clip420)" d="M1927 359.854 L1942.59 359.854 L1942.59 364.599 L1927 364.599 L1927 359.854 Z" fill="#000000" fill-rule="nonzero" fill-opacity="1" /><path clip-path="url(#clip420)" d="M1952.84 373.54 L1962.38 373.54 L1962.38 340.583 L1952 342.666 L1952 337.342 L1962.33 335.259 L1968.17 335.259 L1968.17 373.54 L1977.72 373.54 L1977.72 378.459 L1952.84 378.459 L1952.84 373.54 Z" fill="#000000" fill-rule="nonzero" fill-opacity="1" /><path clip-path="url(#clip420)" d="M2002.75 354.53 Q1998.81 354.53 1996.5 357.221 Q1994.21 359.912 1994.21 364.599 Q1994.21 369.258 1996.5 371.977 Q1998.81 374.668 2002.75 374.668 Q2006.68 374.668 2008.97 371.977 Q2011.28 369.258 2011.28 364.599 Q2011.28 359.912 2008.97 357.221 Q2006.68 354.53 2002.75 354.53 M2014.35 336.214 L2014.35 341.538 Q2012.15 340.496 2009.9 339.946 Q2007.67 339.397 2005.47 339.397 Q1999.68 339.397 1996.61 343.303 Q1993.58 347.209 1993.14 355.108 Q1994.85 352.591 1997.42 351.26 Q2000 349.9 2003.1 349.9 Q2009.61 349.9 2013.37 353.864 Q2017.16 357.799 2017.16 364.599 Q2017.16 371.254 2013.22 375.276 Q2009.29 379.298 2002.75 379.298 Q1995.25 379.298 1991.29 373.569 Q1987.33 367.811 1987.33 356.902 Q1987.33 346.659 1992.19 340.583 Q1997.05 334.478 2005.24 334.478 Q2007.44 334.478 2009.66 334.912 Q2011.92 335.346 2014.35 336.214 Z" fill="#000000" fill-rule="nonzero" fill-opacity="1" /><path clip-path="url(#clip420)" d="M2027.29 335.259 L2050.23 335.259 L2050.23 340.178 L2032.64 340.178 L2032.64 350.768 Q2033.91 350.334 2035.18 350.132 Q2036.46 349.9 2037.73 349.9 Q2044.96 349.9 2049.19 353.864 Q2053.41 357.828 2053.41 364.599 Q2053.41 371.572 2049.07 375.45 Q2044.73 379.298 2036.83 379.298 Q2034.11 379.298 2031.28 378.835 Q2028.47 378.372 2025.46 377.446 L2025.46 371.572 Q2028.07 372.99 2030.84 373.685 Q2033.62 374.379 2036.72 374.379 Q2041.72 374.379 2044.65 371.746 Q2047.57 369.113 2047.57 364.599 Q2047.57 360.085 2044.65 357.452 Q2041.72 354.819 2036.72 354.819 Q2034.37 354.819 2032.03 355.34 Q2029.72 355.861 2027.29 356.96 L2027.29 335.259 Z" fill="#000000" fill-rule="nonzero" fill-opacity="1" /></svg>
