<?xml version="1.0" encoding="utf-8"?>
<svg xmlns="http://www.w3.org/2000/svg" xmlns:xlink="http://www.w3.org/1999/xlink" width="600" height="400" viewBox="0 0 2400 1600">
<defs>
  <clipPath id="clip500">
    <rect x="0" y="0" width="2400" height="1600"/>
  </clipPath>
</defs>
<path clip-path="url(#clip500)" d="M0 1600 L2400 1600 L2400 0 L0 0  Z" fill="#ffffff" fill-rule="evenodd" fill-opacity="1"/>
<defs>
  <clipPath id="clip501">
    <rect x="480" y="0" width="1681" height="1600"/>
  </clipPath>
</defs>
<path clip-path="url(#clip500)" d="M156.598 1474.16 L2352.76 1474.16 L2352.76 47.2441 L156.598 47.2441  Z" fill="#ffffff" fill-rule="evenodd" fill-opacity="1"/>
<defs>
  <clipPath id="clip502">
    <rect x="156" y="47" width="2197" height="1428"/>
  </clipPath>
</defs>
<polyline clip-path="url(#clip502)" style="stroke:#000000; stroke-linecap:round; stroke-linejoin:round; stroke-width:2; stroke-opacity:0.1; fill:none" points="218.754,1474.16 218.754,47.2441 "/>
<polyline clip-path="url(#clip502)" style="stroke:#000000; stroke-linecap:round; stroke-linejoin:round; stroke-width:2; stroke-opacity:0.1; fill:none" points="1513.66,1474.16 1513.66,47.2441 "/>
<polyline clip-path="url(#clip500)" style="stroke:#000000; stroke-linecap:round; stroke-linejoin:round; stroke-width:4; stroke-opacity:1; fill:none" points="156.598,1474.16 2352.76,1474.16 "/>
<polyline clip-path="url(#clip500)" style="stroke:#000000; stroke-linecap:round; stroke-linejoin:round; stroke-width:4; stroke-opacity:1; fill:none" points="218.754,1474.16 218.754,1455.27 "/>
<polyline clip-path="url(#clip500)" style="stroke:#000000; stroke-linecap:round; stroke-linejoin:round; stroke-width:4; stroke-opacity:1; fill:none" points="1513.66,1474.16 1513.66,1455.27 "/>
<path clip-path="url(#clip500)" d="M156.117 1548.29 L163.756 1548.29 L163.756 1521.92 L155.446 1523.59 L155.446 1519.33 L163.71 1517.66 L168.386 1517.66 L168.386 1548.29 L176.025 1548.29 L176.025 1552.22 L156.117 1552.22 L156.117 1548.29 Z" fill="#000000" fill-rule="nonzero" fill-opacity="1" /><path clip-path="url(#clip500)" d="M195.469 1520.74 Q191.858 1520.74 190.029 1524.31 Q188.224 1527.85 188.224 1534.98 Q188.224 1542.09 190.029 1545.65 Q191.858 1549.19 195.469 1549.19 Q199.103 1549.19 200.909 1545.65 Q202.737 1542.09 202.737 1534.98 Q202.737 1527.85 200.909 1524.31 Q199.103 1520.74 195.469 1520.74 M195.469 1517.04 Q201.279 1517.04 204.335 1521.65 Q207.413 1526.23 207.413 1534.98 Q207.413 1543.71 204.335 1548.31 Q201.279 1552.9 195.469 1552.9 Q189.659 1552.9 186.58 1548.31 Q183.525 1543.71 183.525 1534.98 Q183.525 1526.23 186.58 1521.65 Q189.659 1517.04 195.469 1517.04 Z" fill="#000000" fill-rule="nonzero" fill-opacity="1" /><path clip-path="url(#clip500)" d="M207.413 1511.14 L231.525 1511.14 L231.525 1514.34 L207.413 1514.34 L207.413 1511.14 Z" fill="#000000" fill-rule="nonzero" fill-opacity="1" /><path clip-path="url(#clip500)" d="M240.383 1521.62 L246.59 1521.62 L246.59 1500.19 L239.838 1501.55 L239.838 1498.09 L246.552 1496.73 L250.351 1496.73 L250.351 1521.62 L256.558 1521.62 L256.558 1524.81 L240.383 1524.81 L240.383 1521.62 Z" fill="#000000" fill-rule="nonzero" fill-opacity="1" /><path clip-path="url(#clip500)" d="M272.357 1499.24 Q269.422 1499.24 267.937 1502.13 Q266.47 1505.01 266.47 1510.8 Q266.47 1516.58 267.937 1519.47 Q269.422 1522.35 272.357 1522.35 Q275.309 1522.35 276.776 1519.47 Q278.262 1516.58 278.262 1510.8 Q278.262 1505.01 276.776 1502.13 Q275.309 1499.24 272.357 1499.24 M272.357 1496.23 Q277.077 1496.23 279.56 1499.97 Q282.061 1503.69 282.061 1510.8 Q282.061 1517.89 279.56 1521.64 Q277.077 1525.36 272.357 1525.36 Q267.636 1525.36 265.134 1521.64 Q262.652 1517.89 262.652 1510.8 Q262.652 1503.69 265.134 1499.97 Q267.636 1496.23 272.357 1496.23 Z" fill="#000000" fill-rule="nonzero" fill-opacity="1" /><path clip-path="url(#clip500)" d="M1463.68 1548.29 L1471.32 1548.29 L1471.32 1521.92 L1463.01 1523.59 L1463.01 1519.33 L1471.27 1517.66 L1475.95 1517.66 L1475.95 1548.29 L1483.59 1548.29 L1483.59 1552.22 L1463.68 1552.22 L1463.68 1548.29 Z" fill="#000000" fill-rule="nonzero" fill-opacity="1" /><path clip-path="url(#clip500)" d="M1503.03 1520.74 Q1499.42 1520.74 1497.59 1524.31 Q1495.79 1527.85 1495.79 1534.98 Q1495.79 1542.09 1497.59 1545.65 Q1499.42 1549.19 1503.03 1549.19 Q1506.67 1549.19 1508.47 1545.65 Q1510.3 1542.09 1510.3 1534.98 Q1510.3 1527.85 1508.47 1524.31 Q1506.67 1520.74 1503.03 1520.74 M1503.03 1517.04 Q1508.84 1517.04 1511.9 1521.65 Q1514.98 1526.23 1514.98 1534.98 Q1514.98 1543.71 1511.9 1548.31 Q1508.84 1552.9 1503.03 1552.9 Q1497.22 1552.9 1494.14 1548.31 Q1491.09 1543.71 1491.09 1534.98 Q1491.09 1526.23 1494.14 1521.65 Q1497.22 1517.04 1503.03 1517.04 Z" fill="#000000" fill-rule="nonzero" fill-opacity="1" /><path clip-path="url(#clip500)" d="M1514.98 1511.14 L1539.09 1511.14 L1539.09 1514.34 L1514.98 1514.34 L1514.98 1511.14 Z" fill="#000000" fill-rule="nonzero" fill-opacity="1" /><path clip-path="url(#clip500)" d="M1547.32 1496.73 L1562.24 1496.73 L1562.24 1499.93 L1550.8 1499.93 L1550.8 1506.82 Q1551.63 1506.53 1552.46 1506.4 Q1553.29 1506.25 1554.11 1506.25 Q1558.82 1506.25 1561.56 1508.83 Q1564.31 1511.4 1564.31 1515.81 Q1564.31 1520.34 1561.49 1522.86 Q1558.67 1525.36 1553.53 1525.36 Q1551.76 1525.36 1549.92 1525.06 Q1548.1 1524.76 1546.14 1524.16 L1546.14 1520.34 Q1547.83 1521.26 1549.64 1521.71 Q1551.44 1522.16 1553.46 1522.16 Q1556.71 1522.16 1558.61 1520.45 Q1560.51 1518.74 1560.51 1515.81 Q1560.51 1512.87 1558.61 1511.16 Q1556.71 1509.45 1553.46 1509.45 Q1551.93 1509.45 1550.41 1509.79 Q1548.9 1510.13 1547.32 1510.84 L1547.32 1496.73 Z" fill="#000000" fill-rule="nonzero" fill-opacity="1" /><polyline clip-path="url(#clip502)" style="stroke:#000000; stroke-linecap:round; stroke-linejoin:round; stroke-width:2; stroke-opacity:0.1; fill:none" points="156.598,1433.78 2352.76,1433.78 "/>
<polyline clip-path="url(#clip502)" style="stroke:#000000; stroke-linecap:round; stroke-linejoin:round; stroke-width:2; stroke-opacity:0.1; fill:none" points="156.598,1151.89 2352.76,1151.89 "/>
<polyline clip-path="url(#clip502)" style="stroke:#000000; stroke-linecap:round; stroke-linejoin:round; stroke-width:2; stroke-opacity:0.1; fill:none" points="156.598,870.002 2352.76,870.002 "/>
<polyline clip-path="url(#clip502)" style="stroke:#000000; stroke-linecap:round; stroke-linejoin:round; stroke-width:2; stroke-opacity:0.1; fill:none" points="156.598,588.112 2352.76,588.112 "/>
<polyline clip-path="url(#clip502)" style="stroke:#000000; stroke-linecap:round; stroke-linejoin:round; stroke-width:2; stroke-opacity:0.1; fill:none" points="156.598,306.223 2352.76,306.223 "/>
<polyline clip-path="url(#clip500)" style="stroke:#000000; stroke-linecap:round; stroke-linejoin:round; stroke-width:4; stroke-opacity:1; fill:none" points="156.598,1474.16 156.598,47.2441 "/>
<polyline clip-path="url(#clip500)" style="stroke:#000000; stroke-linecap:round; stroke-linejoin:round; stroke-width:4; stroke-opacity:1; fill:none" points="156.598,1433.78 175.496,1433.78 "/>
<polyline clip-path="url(#clip500)" style="stroke:#000000; stroke-linecap:round; stroke-linejoin:round; stroke-width:4; stroke-opacity:1; fill:none" points="156.598,1151.89 175.496,1151.89 "/>
<polyline clip-path="url(#clip500)" style="stroke:#000000; stroke-linecap:round; stroke-linejoin:round; stroke-width:4; stroke-opacity:1; fill:none" points="156.598,870.002 175.496,870.002 "/>
<polyline clip-path="url(#clip500)" style="stroke:#000000; stroke-linecap:round; stroke-linejoin:round; stroke-width:4; stroke-opacity:1; fill:none" points="156.598,588.112 175.496,588.112 "/>
<polyline clip-path="url(#clip500)" style="stroke:#000000; stroke-linecap:round; stroke-linejoin:round; stroke-width:4; stroke-opacity:1; fill:none" points="156.598,306.223 175.496,306.223 "/>
<path clip-path="url(#clip500)" d="M63.4226 1419.58 Q59.8115 1419.58 57.9828 1423.14 Q56.1773 1426.69 56.1773 1433.81 Q56.1773 1440.92 57.9828 1444.49 Q59.8115 1448.03 63.4226 1448.03 Q67.0569 1448.03 68.8624 1444.49 Q70.6911 1440.92 70.6911 1433.81 Q70.6911 1426.69 68.8624 1423.14 Q67.0569 1419.58 63.4226 1419.58 M63.4226 1415.88 Q69.2328 1415.88 72.2883 1420.48 Q75.367 1425.06 75.367 1433.81 Q75.367 1442.54 72.2883 1447.15 Q69.2328 1451.73 63.4226 1451.73 Q57.6125 1451.73 54.5338 1447.15 Q51.4782 1442.54 51.4782 1433.81 Q51.4782 1425.06 54.5338 1420.48 Q57.6125 1415.88 63.4226 1415.88 Z" fill="#000000" fill-rule="nonzero" fill-opacity="1" /><path clip-path="url(#clip500)" d="M83.5845 1445.18 L88.4688 1445.18 L88.4688 1451.06 L83.5845 1451.06 L83.5845 1445.18 Z" fill="#000000" fill-rule="nonzero" fill-opacity="1" /><path clip-path="url(#clip500)" d="M108.654 1419.58 Q105.043 1419.58 103.214 1423.14 Q101.409 1426.69 101.409 1433.81 Q101.409 1440.92 103.214 1444.49 Q105.043 1448.03 108.654 1448.03 Q112.288 1448.03 114.094 1444.49 Q115.922 1440.92 115.922 1433.81 Q115.922 1426.69 114.094 1423.14 Q112.288 1419.58 108.654 1419.58 M108.654 1415.88 Q114.464 1415.88 117.52 1420.48 Q120.598 1425.06 120.598 1433.81 Q120.598 1442.54 117.52 1447.15 Q114.464 1451.73 108.654 1451.73 Q102.844 1451.73 99.765 1447.15 Q96.7095 1442.54 96.7095 1433.81 Q96.7095 1425.06 99.765 1420.48 Q102.844 1415.88 108.654 1415.88 Z" fill="#000000" fill-rule="nonzero" fill-opacity="1" /><path clip-path="url(#clip500)" d="M64.6495 1137.69 Q61.0384 1137.69 59.2097 1141.25 Q57.4041 1144.8 57.4041 1151.93 Q57.4041 1159.03 59.2097 1162.6 Q61.0384 1166.14 64.6495 1166.14 Q68.2837 1166.14 70.0892 1162.6 Q71.9179 1159.03 71.9179 1151.93 Q71.9179 1144.8 70.0892 1141.25 Q68.2837 1137.69 64.6495 1137.69 M64.6495 1133.99 Q70.4596 1133.99 73.5152 1138.59 Q76.5938 1143.18 76.5938 1151.93 Q76.5938 1160.65 73.5152 1165.26 Q70.4596 1169.84 64.6495 1169.84 Q58.8393 1169.84 55.7606 1165.26 Q52.7051 1160.65 52.7051 1151.93 Q52.7051 1143.18 55.7606 1138.59 Q58.8393 1133.99 64.6495 1133.99 Z" fill="#000000" fill-rule="nonzero" fill-opacity="1" /><path clip-path="url(#clip500)" d="M84.8114 1163.29 L89.6956 1163.29 L89.6956 1169.17 L84.8114 1169.17 L84.8114 1163.29 Z" fill="#000000" fill-rule="nonzero" fill-opacity="1" /><path clip-path="url(#clip500)" d="M100.691 1165.24 L108.33 1165.24 L108.33 1138.87 L100.02 1140.54 L100.02 1136.28 L108.283 1134.61 L112.959 1134.61 L112.959 1165.24 L120.598 1165.24 L120.598 1169.17 L100.691 1169.17 L100.691 1165.24 Z" fill="#000000" fill-rule="nonzero" fill-opacity="1" /><path clip-path="url(#clip500)" d="M65.0198 855.8 Q61.4087 855.8 59.58 859.365 Q57.7745 862.907 57.7745 870.036 Q57.7745 877.143 59.58 880.708 Q61.4087 884.249 65.0198 884.249 Q68.6541 884.249 70.4596 880.708 Q72.2883 877.143 72.2883 870.036 Q72.2883 862.907 70.4596 859.365 Q68.6541 855.8 65.0198 855.8 M65.0198 852.097 Q70.83 852.097 73.8855 856.703 Q76.9642 861.286 76.9642 870.036 Q76.9642 878.763 73.8855 883.37 Q70.83 887.953 65.0198 887.953 Q59.2097 887.953 56.131 883.37 Q53.0754 878.763 53.0754 870.036 Q53.0754 861.286 56.131 856.703 Q59.2097 852.097 65.0198 852.097 Z" fill="#000000" fill-rule="nonzero" fill-opacity="1" /><path clip-path="url(#clip500)" d="M85.1818 881.402 L90.066 881.402 L90.066 887.282 L85.1818 887.282 L85.1818 881.402 Z" fill="#000000" fill-rule="nonzero" fill-opacity="1" /><path clip-path="url(#clip500)" d="M104.279 883.347 L120.598 883.347 L120.598 887.282 L98.6539 887.282 L98.6539 883.347 Q101.316 880.592 105.899 875.962 Q110.506 871.31 111.686 869.967 Q113.932 867.444 114.811 865.708 Q115.714 863.948 115.714 862.259 Q115.714 859.504 113.77 857.768 Q111.848 856.032 108.746 856.032 Q106.547 856.032 104.094 856.796 Q101.663 857.56 98.8854 859.111 L98.8854 854.388 Q101.709 853.254 104.163 852.675 Q106.617 852.097 108.654 852.097 Q114.024 852.097 117.219 854.782 Q120.413 857.467 120.413 861.958 Q120.413 864.087 119.603 866.009 Q118.816 867.907 116.709 870.499 Q116.131 871.171 113.029 874.388 Q109.927 877.583 104.279 883.347 Z" fill="#000000" fill-rule="nonzero" fill-opacity="1" /><path clip-path="url(#clip500)" d="M64.0708 573.911 Q60.4597 573.911 58.631 577.476 Q56.8254 581.018 56.8254 588.147 Q56.8254 595.254 58.631 598.818 Q60.4597 602.36 64.0708 602.36 Q67.705 602.36 69.5105 598.818 Q71.3392 595.254 71.3392 588.147 Q71.3392 581.018 69.5105 577.476 Q67.705 573.911 64.0708 573.911 M64.0708 570.207 Q69.8809 570.207 72.9365 574.814 Q76.0151 579.397 76.0151 588.147 Q76.0151 596.874 72.9365 601.48 Q69.8809 606.064 64.0708 606.064 Q58.2606 606.064 55.1819 601.48 Q52.1264 596.874 52.1264 588.147 Q52.1264 579.397 55.1819 574.814 Q58.2606 570.207 64.0708 570.207 Z" fill="#000000" fill-rule="nonzero" fill-opacity="1" /><path clip-path="url(#clip500)" d="M84.2327 599.513 L89.1169 599.513 L89.1169 605.392 L84.2327 605.392 L84.2327 599.513 Z" fill="#000000" fill-rule="nonzero" fill-opacity="1" /><path clip-path="url(#clip500)" d="M113.469 586.758 Q116.825 587.476 118.7 589.744 Q120.598 592.013 120.598 595.346 Q120.598 600.462 117.08 603.263 Q113.561 606.064 107.08 606.064 Q104.904 606.064 102.589 605.624 Q100.297 605.207 97.8437 604.351 L97.8437 599.837 Q99.7882 600.971 102.103 601.55 Q104.418 602.129 106.941 602.129 Q111.339 602.129 113.631 600.392 Q115.945 598.656 115.945 595.346 Q115.945 592.291 113.793 590.578 Q111.663 588.842 107.844 588.842 L103.816 588.842 L103.816 584.999 L108.029 584.999 Q111.478 584.999 113.307 583.633 Q115.135 582.244 115.135 579.652 Q115.135 576.99 113.237 575.578 Q111.362 574.143 107.844 574.143 Q105.922 574.143 103.723 574.559 Q101.524 574.976 98.8854 575.856 L98.8854 571.689 Q101.547 570.948 103.862 570.578 Q106.2 570.207 108.26 570.207 Q113.584 570.207 116.686 572.638 Q119.788 575.045 119.788 579.166 Q119.788 582.036 118.145 584.027 Q116.501 585.994 113.469 586.758 Z" fill="#000000" fill-rule="nonzero" fill-opacity="1" /><path clip-path="url(#clip500)" d="M62.9365 292.022 Q59.3254 292.022 57.4967 295.587 Q55.6912 299.128 55.6912 306.258 Q55.6912 313.364 57.4967 316.929 Q59.3254 320.471 62.9365 320.471 Q66.5707 320.471 68.3763 316.929 Q70.205 313.364 70.205 306.258 Q70.205 299.128 68.3763 295.587 Q66.5707 292.022 62.9365 292.022 M62.9365 288.318 Q68.7467 288.318 71.8022 292.925 Q74.8809 297.508 74.8809 306.258 Q74.8809 314.985 71.8022 319.591 Q68.7467 324.175 62.9365 324.175 Q57.1264 324.175 54.0477 319.591 Q50.9921 314.985 50.9921 306.258 Q50.9921 297.508 54.0477 292.925 Q57.1264 288.318 62.9365 288.318 Z" fill="#000000" fill-rule="nonzero" fill-opacity="1" /><path clip-path="url(#clip500)" d="M83.0984 317.624 L87.9827 317.624 L87.9827 323.503 L83.0984 323.503 L83.0984 317.624 Z" fill="#000000" fill-rule="nonzero" fill-opacity="1" /><path clip-path="url(#clip500)" d="M111.015 293.017 L99.2095 311.466 L111.015 311.466 L111.015 293.017 M109.788 288.943 L115.668 288.943 L115.668 311.466 L120.598 311.466 L120.598 315.355 L115.668 315.355 L115.668 323.503 L111.015 323.503 L111.015 315.355 L95.4132 315.355 L95.4132 310.841 L109.788 288.943 Z" fill="#000000" fill-rule="nonzero" fill-opacity="1" /><path clip-path="url(#clip502)" d="M1487.23 1433.78 L1487.23 87.6286 L1529.51 87.6286 L1529.51 1433.78 L1529.51 1433.78 L1529.51 1433.78 L1487.23 1433.78 L1487.23 1433.78  Z" fill="#191970" fill-rule="evenodd" fill-opacity="1"/>
<polyline clip-path="url(#clip502)" style="stroke:#000000; stroke-linecap:round; stroke-linejoin:round; stroke-width:4; stroke-opacity:1; fill:none" points="1487.23,1433.78 1487.23,87.6286 1529.51,87.6286 1529.51,1433.78 "/>
<path clip-path="url(#clip502)" d="M1529.51 1433.78 L1529.51 674.11 L1571.8 674.11 L1571.8 1433.78 L1571.8 1433.78 L1571.8 1433.78 L1529.51 1433.78 L1529.51 1433.78  Z" fill="#191970" fill-rule="evenodd" fill-opacity="0.564327"/>
<polyline clip-path="url(#clip502)" style="stroke:#000000; stroke-linecap:round; stroke-linejoin:round; stroke-width:4; stroke-opacity:1; fill:none" points="1529.51,1433.78 1529.51,674.11 1571.8,674.11 1571.8,1433.78 "/>
<path clip-path="url(#clip502)" d="M810.71 1433.78 L810.71 1433.77 L852.992 1433.77 L852.992 1433.78 L852.992 1433.78 L852.992 1433.78 L810.71 1433.78 L810.71 1433.78  Z" fill="#191970" fill-rule="evenodd" fill-opacity="9.73791e-06"/>
<polyline clip-path="url(#clip502)" style="stroke:#000000; stroke-linecap:round; stroke-linejoin:round; stroke-width:4; stroke-opacity:1; fill:none" points="810.71,1433.78 810.71,1433.77 852.992,1433.77 852.992,1433.78 "/>
<path clip-path="url(#clip502)" d="M1952.34 1433.78 L1952.34 1433.78 L1994.62 1433.78 L1994.62 1433.78 L1994.62 1433.78 L1994.62 1433.78 L1952.34 1433.78 L1952.34 1433.78  Z" fill="#191970" fill-rule="evenodd" fill-opacity="0"/>
<polyline clip-path="url(#clip502)" style="stroke:#000000; stroke-linecap:round; stroke-linejoin:round; stroke-width:4; stroke-opacity:1; fill:none" points="1952.34,1433.78 1952.34,1433.78 1994.62,1433.78 "/>
<path clip-path="url(#clip502)" d="M387.884 1433.78 L387.884 1433.78 L430.167 1433.78 L430.167 1433.78 L430.167 1433.78 L430.167 1433.78 L387.884 1433.78 L387.884 1433.78  Z" fill="#191970" fill-rule="evenodd" fill-opacity="2.21132e-07"/>
<polyline clip-path="url(#clip502)" style="stroke:#000000; stroke-linecap:round; stroke-linejoin:round; stroke-width:4; stroke-opacity:1; fill:none" points="387.884,1433.78 387.884,1433.78 430.167,1433.78 430.167,1433.78 "/>
<path clip-path="url(#clip502)" d="M768.427 1433.78 L768.427 1433.77 L810.71 1433.77 L810.71 1433.78 L810.71 1433.78 L810.71 1433.78 L768.427 1433.78 L768.427 1433.78  Z" fill="#191970" fill-rule="evenodd" fill-opacity="6.63166e-06"/>
<polyline clip-path="url(#clip502)" style="stroke:#000000; stroke-linecap:round; stroke-linejoin:round; stroke-width:4; stroke-opacity:1; fill:none" points="768.427,1433.78 768.427,1433.77 810.71,1433.77 810.71,1433.78 "/>
<path clip-path="url(#clip502)" d="M1233.54 1433.78 L1233.54 1432.18 L1275.82 1432.18 L1275.82 1433.78 L1275.82 1433.78 L1275.82 1433.78 L1233.54 1433.78 L1233.54 1433.78  Z" fill="#191970" fill-rule="evenodd" fill-opacity="0.00119069"/>
<polyline clip-path="url(#clip502)" style="stroke:#000000; stroke-linecap:round; stroke-linejoin:round; stroke-width:4; stroke-opacity:1; fill:none" points="1233.54,1433.78 1233.54,1432.18 1275.82,1432.18 1275.82,1433.78 "/>
<path clip-path="url(#clip502)" d="M345.601 1433.78 L345.601 1433.78 L387.884 1433.78 L387.884 1433.78 L387.884 1433.78 L387.884 1433.78 L345.601 1433.78 L345.601 1433.78  Z" fill="#191970" fill-rule="evenodd" fill-opacity="1.51811e-07"/>
<polyline clip-path="url(#clip502)" style="stroke:#000000; stroke-linecap:round; stroke-linejoin:round; stroke-width:4; stroke-opacity:1; fill:none" points="345.601,1433.78 345.601,1433.78 387.884,1433.78 387.884,1433.78 "/>
<path clip-path="url(#clip502)" d="M1698.64 1433.78 L1698.64 1433.78 L1740.93 1433.78 L1740.93 1433.78 L1740.93 1433.78 L1740.93 1433.78 L1698.64 1433.78 L1698.64 1433.78  Z" fill="#191970" fill-rule="evenodd" fill-opacity="2.93451e-69"/>
<polyline clip-path="url(#clip502)" style="stroke:#000000; stroke-linecap:round; stroke-linejoin:round; stroke-width:4; stroke-opacity:1; fill:none" points="1698.64,1433.78 1698.64,1433.78 1740.93,1433.78 "/>
<path clip-path="url(#clip502)" d="M261.036 1433.78 L261.036 1433.78 L303.319 1433.78 L303.319 1433.78 L303.319 1433.78 L303.319 1433.78 L261.036 1433.78 L261.036 1433.78  Z" fill="#191970" fill-rule="evenodd" fill-opacity="7.15607e-08"/>
<polyline clip-path="url(#clip502)" style="stroke:#000000; stroke-linecap:round; stroke-linejoin:round; stroke-width:4; stroke-opacity:1; fill:none" points="261.036,1433.78 261.036,1433.78 303.319,1433.78 303.319,1433.78 "/>
<path clip-path="url(#clip502)" d="M2036.9 1433.78 L2036.9 1433.78 L2079.19 1433.78 L2079.19 1433.78 L2079.19 1433.78 L2079.19 1433.78 L2036.9 1433.78 L2036.9 1433.78  Z" fill="#191970" fill-rule="evenodd" fill-opacity="0"/>
<polyline clip-path="url(#clip502)" style="stroke:#000000; stroke-linecap:round; stroke-linejoin:round; stroke-width:4; stroke-opacity:1; fill:none" points="2036.9,1433.78 2036.9,1433.78 2079.19,1433.78 "/>
<path clip-path="url(#clip502)" d="M1444.95 1433.78 L1444.95 932.724 L1487.23 932.724 L1487.23 1433.78 L1487.23 1433.78 L1487.23 1433.78 L1444.95 1433.78 L1444.95 1433.78  Z" fill="#191970" fill-rule="evenodd" fill-opacity="0.372214"/>
<polyline clip-path="url(#clip502)" style="stroke:#000000; stroke-linecap:round; stroke-linejoin:round; stroke-width:4; stroke-opacity:1; fill:none" points="1444.95,1433.78 1444.95,932.724 1487.23,932.724 1487.23,1433.78 "/>
<path clip-path="url(#clip502)" d="M1910.06 1433.78 L1910.06 1433.78 L1952.34 1433.78 L1952.34 1433.78 L1952.34 1433.78 L1952.34 1433.78 L1910.06 1433.78 L1910.06 1433.78  Z" fill="#191970" fill-rule="evenodd" fill-opacity="0"/>
<polyline clip-path="url(#clip502)" style="stroke:#000000; stroke-linecap:round; stroke-linejoin:round; stroke-width:4; stroke-opacity:1; fill:none" points="1910.06,1433.78 1910.06,1433.78 1952.34,1433.78 "/>
<path clip-path="url(#clip502)" d="M1064.41 1433.78 L1064.41 1433.62 L1106.69 1433.62 L1106.69 1433.78 L1106.69 1433.78 L1106.69 1433.78 L1064.41 1433.78 L1064.41 1433.78  Z" fill="#191970" fill-rule="evenodd" fill-opacity="0.000116029"/>
<polyline clip-path="url(#clip502)" style="stroke:#000000; stroke-linecap:round; stroke-linejoin:round; stroke-width:4; stroke-opacity:1; fill:none" points="1064.41,1433.78 1064.41,1433.62 1106.69,1433.62 1106.69,1433.78 "/>
<path clip-path="url(#clip502)" d="M2163.75 1433.78 L2163.75 1433.78 L2206.04 1433.78 L2206.04 1433.78 L2206.04 1433.78 L2206.04 1433.78 L2163.75 1433.78 L2163.75 1433.78  Z" fill="#191970" fill-rule="evenodd" fill-opacity="0"/>
<polyline clip-path="url(#clip502)" style="stroke:#000000; stroke-linecap:round; stroke-linejoin:round; stroke-width:4; stroke-opacity:1; fill:none" points="2163.75,1433.78 2163.75,1433.78 2206.04,1433.78 "/>
<path clip-path="url(#clip502)" d="M1275.82 1433.78 L1275.82 1430.11 L1318.1 1430.11 L1318.1 1433.78 L1318.1 1433.78 L1318.1 1433.78 L1275.82 1433.78 L1275.82 1433.78  Z" fill="#191970" fill-rule="evenodd" fill-opacity="0.00272373"/>
<polyline clip-path="url(#clip502)" style="stroke:#000000; stroke-linecap:round; stroke-linejoin:round; stroke-width:4; stroke-opacity:1; fill:none" points="1275.82,1433.78 1275.82,1430.11 1318.1,1430.11 1318.1,1433.78 "/>
<path clip-path="url(#clip502)" d="M514.732 1433.78 L514.732 1433.78 L557.014 1433.78 L557.014 1433.78 L557.014 1433.78 L557.014 1433.78 L514.732 1433.78 L514.732 1433.78  Z" fill="#191970" fill-rule="evenodd" fill-opacity="6.83917e-07"/>
<polyline clip-path="url(#clip502)" style="stroke:#000000; stroke-linecap:round; stroke-linejoin:round; stroke-width:4; stroke-opacity:1; fill:none" points="514.732,1433.78 514.732,1433.78 557.014,1433.78 557.014,1433.78 "/>
<path clip-path="url(#clip502)" d="M895.275 1433.78 L895.275 1433.75 L937.558 1433.75 L937.558 1433.78 L937.558 1433.78 L937.558 1433.78 L895.275 1433.78 L895.275 1433.78  Z" fill="#191970" fill-rule="evenodd" fill-opacity="2.12704e-05"/>
<polyline clip-path="url(#clip502)" style="stroke:#000000; stroke-linecap:round; stroke-linejoin:round; stroke-width:4; stroke-opacity:1; fill:none" points="895.275,1433.78 895.275,1433.75 937.558,1433.75 937.558,1433.78 "/>
<path clip-path="url(#clip502)" d="M1318.1 1433.78 L1318.1 1423.91 L1360.38 1423.91 L1360.38 1433.78 L1360.38 1433.78 L1360.38 1433.78 L1318.1 1433.78 L1318.1 1433.78  Z" fill="#191970" fill-rule="evenodd" fill-opacity="0.00733503"/>
<polyline clip-path="url(#clip502)" style="stroke:#000000; stroke-linecap:round; stroke-linejoin:round; stroke-width:4; stroke-opacity:1; fill:none" points="1318.1,1433.78 1318.1,1423.91 1360.38,1423.91 1360.38,1433.78 "/>
<path clip-path="url(#clip502)" d="M599.297 1433.78 L599.297 1433.78 L641.58 1433.78 L641.58 1433.78 L641.58 1433.78 L641.58 1433.78 L599.297 1433.78 L599.297 1433.78  Z" fill="#191970" fill-rule="evenodd" fill-opacity="1.45364e-06"/>
<polyline clip-path="url(#clip502)" style="stroke:#000000; stroke-linecap:round; stroke-linejoin:round; stroke-width:4; stroke-opacity:1; fill:none" points="599.297,1433.78 599.297,1433.78 641.58,1433.78 641.58,1433.78 "/>
<path clip-path="url(#clip502)" d="M1740.93 1433.78 L1740.93 1433.78 L1783.21 1433.78 L1783.21 1433.78 L1783.21 1433.78 L1783.21 1433.78 L1740.93 1433.78 L1740.93 1433.78  Z" fill="#191970" fill-rule="evenodd" fill-opacity="1.56894e-164"/>
<polyline clip-path="url(#clip502)" style="stroke:#000000; stroke-linecap:round; stroke-linejoin:round; stroke-width:4; stroke-opacity:1; fill:none" points="1740.93,1433.78 1740.93,1433.78 1783.21,1433.78 "/>
<path clip-path="url(#clip502)" d="M1994.62 1433.78 L1994.62 1433.78 L2036.9 1433.78 L2036.9 1433.78 L2036.9 1433.78 L2036.9 1433.78 L1994.62 1433.78 L1994.62 1433.78  Z" fill="#191970" fill-rule="evenodd" fill-opacity="0"/>
<polyline clip-path="url(#clip502)" style="stroke:#000000; stroke-linecap:round; stroke-linejoin:round; stroke-width:4; stroke-opacity:1; fill:none" points="1994.62,1433.78 1994.62,1433.78 2036.9,1433.78 "/>
<path clip-path="url(#clip502)" d="M1614.08 1433.78 L1614.08 1433.78 L1656.36 1433.78 L1656.36 1433.78 L1656.36 1433.78 L1656.36 1433.78 L1614.08 1433.78 L1614.08 1433.78  Z" fill="#191970" fill-rule="evenodd" fill-opacity="7.04551e-10"/>
<polyline clip-path="url(#clip502)" style="stroke:#000000; stroke-linecap:round; stroke-linejoin:round; stroke-width:4; stroke-opacity:1; fill:none" points="1614.08,1433.78 1614.08,1433.78 1656.36,1433.78 1656.36,1433.78 "/>
<path clip-path="url(#clip502)" d="M1106.69 1433.78 L1106.69 1433.53 L1148.97 1433.53 L1148.97 1433.78 L1148.97 1433.78 L1148.97 1433.78 L1106.69 1433.78 L1106.69 1433.78  Z" fill="#191970" fill-rule="evenodd" fill-opacity="0.000188915"/>
<polyline clip-path="url(#clip502)" style="stroke:#000000; stroke-linecap:round; stroke-linejoin:round; stroke-width:4; stroke-opacity:1; fill:none" points="1106.69,1433.78 1106.69,1433.53 1148.97,1433.53 1148.97,1433.78 "/>
<path clip-path="url(#clip502)" d="M1360.38 1433.78 L1360.38 1401.64 L1402.67 1401.64 L1402.67 1433.78 L1402.67 1433.78 L1402.67 1433.78 L1360.38 1433.78 L1360.38 1433.78  Z" fill="#191970" fill-rule="evenodd" fill-opacity="0.0238773"/>
<polyline clip-path="url(#clip502)" style="stroke:#000000; stroke-linecap:round; stroke-linejoin:round; stroke-width:4; stroke-opacity:1; fill:none" points="1360.38,1433.78 1360.38,1401.64 1402.67,1401.64 1402.67,1433.78 "/>
<path clip-path="url(#clip502)" d="M2206.04 1433.78 L2206.04 1433.78 L2248.32 1433.78 L2248.32 1433.78 L2248.32 1433.78 L2248.32 1433.78 L2206.04 1433.78 L2206.04 1433.78  Z" fill="#191970" fill-rule="evenodd" fill-opacity="0"/>
<polyline clip-path="url(#clip502)" style="stroke:#000000; stroke-linecap:round; stroke-linejoin:round; stroke-width:4; stroke-opacity:1; fill:none" points="2206.04,1433.78 2206.04,1433.78 2248.32,1433.78 "/>
<path clip-path="url(#clip502)" d="M2121.47 1433.78 L2121.47 1433.78 L2163.75 1433.78 L2163.75 1433.78 L2163.75 1433.78 L2163.75 1433.78 L2121.47 1433.78 L2121.47 1433.78  Z" fill="#191970" fill-rule="evenodd" fill-opacity="0"/>
<polyline clip-path="url(#clip502)" style="stroke:#000000; stroke-linecap:round; stroke-linejoin:round; stroke-width:4; stroke-opacity:1; fill:none" points="2121.47,1433.78 2121.47,1433.78 2163.75,1433.78 "/>
<path clip-path="url(#clip502)" d="M1825.49 1433.78 L1825.49 1433.78 L1867.77 1433.78 L1867.77 1433.78 L1867.77 1433.78 L1867.77 1433.78 L1825.49 1433.78 L1825.49 1433.78  Z" fill="#191970" fill-rule="evenodd" fill-opacity="0"/>
<polyline clip-path="url(#clip502)" style="stroke:#000000; stroke-linecap:round; stroke-linejoin:round; stroke-width:4; stroke-opacity:1; fill:none" points="1825.49,1433.78 1825.49,1433.78 1867.77,1433.78 "/>
<path clip-path="url(#clip502)" d="M1022.12 1433.78 L1022.12 1433.68 L1064.41 1433.68 L1064.41 1433.78 L1064.41 1433.78 L1064.41 1433.78 L1022.12 1433.78 L1022.12 1433.78  Z" fill="#191970" fill-rule="evenodd" fill-opacity="7.37469e-05"/>
<polyline clip-path="url(#clip502)" style="stroke:#000000; stroke-linecap:round; stroke-linejoin:round; stroke-width:4; stroke-opacity:1; fill:none" points="1022.12,1433.78 1022.12,1433.68 1064.41,1433.68 1064.41,1433.78 "/>
<path clip-path="url(#clip502)" d="M218.754 1433.78 L218.754 1433.78 L261.036 1433.78 L261.036 1433.78 L261.036 1433.78 L261.036 1433.78 L218.754 1433.78 L218.754 1433.78  Z" fill="#191970" fill-rule="evenodd" fill-opacity="4.9134e-08"/>
<polyline clip-path="url(#clip502)" style="stroke:#000000; stroke-linecap:round; stroke-linejoin:round; stroke-width:4; stroke-opacity:1; fill:none" points="218.754,1433.78 218.754,1433.78 261.036,1433.78 261.036,1433.78 "/>
<path clip-path="url(#clip502)" d="M2079.19 1433.78 L2079.19 1433.78 L2121.47 1433.78 L2121.47 1433.78 L2121.47 1433.78 L2121.47 1433.78 L2079.19 1433.78 L2079.19 1433.78  Z" fill="#191970" fill-rule="evenodd" fill-opacity="0"/>
<polyline clip-path="url(#clip502)" style="stroke:#000000; stroke-linecap:round; stroke-linejoin:round; stroke-width:4; stroke-opacity:1; fill:none" points="2079.19,1433.78 2079.19,1433.78 2121.47,1433.78 "/>
<path clip-path="url(#clip502)" d="M683.862 1433.78 L683.862 1433.78 L726.145 1433.78 L726.145 1433.78 L726.145 1433.78 L726.145 1433.78 L683.862 1433.78 L683.862 1433.78  Z" fill="#191970" fill-rule="evenodd" fill-opacity="3.09702e-06"/>
<polyline clip-path="url(#clip502)" style="stroke:#000000; stroke-linecap:round; stroke-linejoin:round; stroke-width:4; stroke-opacity:1; fill:none" points="683.862,1433.78 683.862,1433.78 726.145,1433.78 726.145,1433.78 "/>
<path clip-path="url(#clip502)" d="M852.992 1433.78 L852.992 1433.76 L895.275 1433.76 L895.275 1433.78 L895.275 1433.78 L895.275 1433.78 L852.992 1433.78 L852.992 1433.78  Z" fill="#191970" fill-rule="evenodd" fill-opacity="1.43528e-05"/>
<polyline clip-path="url(#clip502)" style="stroke:#000000; stroke-linecap:round; stroke-linejoin:round; stroke-width:4; stroke-opacity:1; fill:none" points="852.992,1433.78 852.992,1433.76 895.275,1433.76 895.275,1433.78 "/>
<path clip-path="url(#clip502)" d="M1191.25 1433.78 L1191.25 1432.98 L1233.54 1432.98 L1233.54 1433.78 L1233.54 1433.78 L1233.54 1433.78 L1191.25 1433.78 L1191.25 1433.78  Z" fill="#191970" fill-rule="evenodd" fill-opacity="0.000591364"/>
<polyline clip-path="url(#clip502)" style="stroke:#000000; stroke-linecap:round; stroke-linejoin:round; stroke-width:4; stroke-opacity:1; fill:none" points="1191.25,1433.78 1191.25,1432.98 1233.54,1432.98 1233.54,1433.78 "/>
<path clip-path="url(#clip502)" d="M641.58 1433.78 L641.58 1433.78 L683.862 1433.78 L683.862 1433.78 L683.862 1433.78 L683.862 1433.78 L641.58 1433.78 L641.58 1433.78  Z" fill="#191970" fill-rule="evenodd" fill-opacity="2.12089e-06"/>
<polyline clip-path="url(#clip502)" style="stroke:#000000; stroke-linecap:round; stroke-linejoin:round; stroke-width:4; stroke-opacity:1; fill:none" points="641.58,1433.78 641.58,1433.78 683.862,1433.78 683.862,1433.78 "/>
<path clip-path="url(#clip502)" d="M303.319 1433.78 L303.319 1433.78 L345.601 1433.78 L345.601 1433.78 L345.601 1433.78 L345.601 1433.78 L303.319 1433.78 L303.319 1433.78  Z" fill="#191970" fill-rule="evenodd" fill-opacity="1.04227e-07"/>
<polyline clip-path="url(#clip502)" style="stroke:#000000; stroke-linecap:round; stroke-linejoin:round; stroke-width:4; stroke-opacity:1; fill:none" points="303.319,1433.78 303.319,1433.78 345.601,1433.78 345.601,1433.78 "/>
<path clip-path="url(#clip502)" d="M1867.77 1433.78 L1867.77 1433.78 L1910.06 1433.78 L1910.06 1433.78 L1910.06 1433.78 L1910.06 1433.78 L1867.77 1433.78 L1867.77 1433.78  Z" fill="#191970" fill-rule="evenodd" fill-opacity="0"/>
<polyline clip-path="url(#clip502)" style="stroke:#000000; stroke-linecap:round; stroke-linejoin:round; stroke-width:4; stroke-opacity:1; fill:none" points="1867.77,1433.78 1867.77,1433.78 1910.06,1433.78 "/>
<path clip-path="url(#clip502)" d="M472.449 1433.78 L472.449 1433.78 L514.732 1433.78 L514.732 1433.78 L514.732 1433.78 L514.732 1433.78 L472.449 1433.78 L472.449 1433.78  Z" fill="#191970" fill-rule="evenodd" fill-opacity="4.69332e-07"/>
<polyline clip-path="url(#clip502)" style="stroke:#000000; stroke-linecap:round; stroke-linejoin:round; stroke-width:4; stroke-opacity:1; fill:none" points="472.449,1433.78 472.449,1433.78 514.732,1433.78 514.732,1433.78 "/>
<path clip-path="url(#clip502)" d="M726.145 1433.78 L726.145 1433.77 L768.427 1433.77 L768.427 1433.78 L768.427 1433.78 L768.427 1433.78 L726.145 1433.78 L726.145 1433.78  Z" fill="#191970" fill-rule="evenodd" fill-opacity="4.52792e-06"/>
<polyline clip-path="url(#clip502)" style="stroke:#000000; stroke-linecap:round; stroke-linejoin:round; stroke-width:4; stroke-opacity:1; fill:none" points="726.145,1433.78 726.145,1433.77 768.427,1433.77 768.427,1433.78 "/>
<path clip-path="url(#clip502)" d="M1783.21 1433.78 L1783.21 1433.78 L1825.49 1433.78 L1825.49 1433.78 L1825.49 1433.78 L1825.49 1433.78 L1783.21 1433.78 L1783.21 1433.78  Z" fill="#191970" fill-rule="evenodd" fill-opacity="0"/>
<polyline clip-path="url(#clip502)" style="stroke:#000000; stroke-linecap:round; stroke-linejoin:round; stroke-width:4; stroke-opacity:1; fill:none" points="1783.21,1433.78 1783.21,1433.78 1825.49,1433.78 "/>
<path clip-path="url(#clip502)" d="M1402.67 1433.78 L1402.67 1309.24 L1444.95 1309.24 L1444.95 1433.78 L1444.95 1433.78 L1444.95 1433.78 L1402.67 1433.78 L1402.67 1433.78  Z" fill="#191970" fill-rule="evenodd" fill-opacity="0.0925193"/>
<polyline clip-path="url(#clip502)" style="stroke:#000000; stroke-linecap:round; stroke-linejoin:round; stroke-width:4; stroke-opacity:1; fill:none" points="1402.67,1433.78 1402.67,1309.24 1444.95,1309.24 1444.95,1433.78 "/>
<path clip-path="url(#clip502)" d="M979.84 1433.78 L979.84 1433.72 L1022.12 1433.72 L1022.12 1433.78 L1022.12 1433.78 L1022.12 1433.78 L979.84 1433.78 L979.84 1433.78  Z" fill="#191970" fill-rule="evenodd" fill-opacity="4.80061e-05"/>
<polyline clip-path="url(#clip502)" style="stroke:#000000; stroke-linecap:round; stroke-linejoin:round; stroke-width:4; stroke-opacity:1; fill:none" points="979.84,1433.78 979.84,1433.72 1022.12,1433.72 1022.12,1433.78 "/>
<path clip-path="url(#clip502)" d="M557.014 1433.78 L557.014 1433.78 L599.297 1433.78 L599.297 1433.78 L599.297 1433.78 L599.297 1433.78 L557.014 1433.78 L557.014 1433.78  Z" fill="#191970" fill-rule="evenodd" fill-opacity="9.96884e-07"/>
<polyline clip-path="url(#clip502)" style="stroke:#000000; stroke-linecap:round; stroke-linejoin:round; stroke-width:4; stroke-opacity:1; fill:none" points="557.014,1433.78 557.014,1433.78 599.297,1433.78 599.297,1433.78 "/>
<path clip-path="url(#clip502)" d="M1148.97 1433.78 L1148.97 1433.35 L1191.25 1433.35 L1191.25 1433.78 L1191.25 1433.78 L1191.25 1433.78 L1148.97 1433.78 L1148.97 1433.78  Z" fill="#191970" fill-rule="evenodd" fill-opacity="0.000322962"/>
<polyline clip-path="url(#clip502)" style="stroke:#000000; stroke-linecap:round; stroke-linejoin:round; stroke-width:4; stroke-opacity:1; fill:none" points="1148.97,1433.78 1148.97,1433.35 1191.25,1433.35 1191.25,1433.78 "/>
<path clip-path="url(#clip502)" d="M2248.32 1433.78 L2248.32 1433.78 L2290.6 1433.78 L2290.6 1433.78 L2290.6 1433.78 L2290.6 1433.78 L2248.32 1433.78 L2248.32 1433.78  Z" fill="#191970" fill-rule="evenodd" fill-opacity="0"/>
<polyline clip-path="url(#clip502)" style="stroke:#000000; stroke-linecap:round; stroke-linejoin:round; stroke-width:4; stroke-opacity:1; fill:none" points="2248.32,1433.78 2248.32,1433.78 2290.6,1433.78 "/>
<path clip-path="url(#clip502)" d="M1656.36 1433.78 L1656.36 1433.78 L1698.64 1433.78 L1698.64 1433.78 L1698.64 1433.78 L1698.64 1433.78 L1656.36 1433.78 L1656.36 1433.78  Z" fill="#191970" fill-rule="evenodd" fill-opacity="1.93483e-27"/>
<polyline clip-path="url(#clip502)" style="stroke:#000000; stroke-linecap:round; stroke-linejoin:round; stroke-width:4; stroke-opacity:1; fill:none" points="1656.36,1433.78 1656.36,1433.78 1698.64,1433.78 "/>
<path clip-path="url(#clip502)" d="M937.558 1433.78 L937.558 1433.74 L979.84 1433.74 L979.84 1433.78 L979.84 1433.78 L979.84 1433.78 L937.558 1433.78 L937.558 1433.78  Z" fill="#191970" fill-rule="evenodd" fill-opacity="3.17722e-05"/>
<polyline clip-path="url(#clip502)" style="stroke:#000000; stroke-linecap:round; stroke-linejoin:round; stroke-width:4; stroke-opacity:1; fill:none" points="937.558,1433.78 937.558,1433.74 979.84,1433.74 979.84,1433.78 "/>
<path clip-path="url(#clip502)" d="M430.167 1433.78 L430.167 1433.78 L472.449 1433.78 L472.449 1433.78 L472.449 1433.78 L472.449 1433.78 L430.167 1433.78 L430.167 1433.78  Z" fill="#191970" fill-rule="evenodd" fill-opacity="3.22135e-07"/>
<polyline clip-path="url(#clip502)" style="stroke:#000000; stroke-linecap:round; stroke-linejoin:round; stroke-width:4; stroke-opacity:1; fill:none" points="430.167,1433.78 430.167,1433.78 472.449,1433.78 472.449,1433.78 "/>
<path clip-path="url(#clip502)" d="M1571.8 1433.78 L1571.8 1428.16 L1614.08 1428.16 L1614.08 1433.78 L1614.08 1433.78 L1614.08 1433.78 L1571.8 1433.78 L1571.8 1433.78  Z" fill="#191970" fill-rule="evenodd" fill-opacity="0.00417297"/>
<polyline clip-path="url(#clip502)" style="stroke:#000000; stroke-linecap:round; stroke-linejoin:round; stroke-width:4; stroke-opacity:1; fill:none" points="1571.8,1433.78 1571.8,1428.16 1614.08,1428.16 1614.08,1433.78 "/>
</svg>
