<?xml version="1.0" encoding="utf-8"?>
<svg xmlns="http://www.w3.org/2000/svg" xmlns:xlink="http://www.w3.org/1999/xlink" width="600" height="400" viewBox="0 0 2400 1600">
<defs>
  <clipPath id="clip560">
    <rect x="0" y="0" width="2400" height="1600"/>
  </clipPath>
</defs>
<path clip-path="url(#clip560)" d="M0 1600 L2400 1600 L2400 0 L0 0  Z" fill="#ffffff" fill-rule="evenodd" fill-opacity="1"/>
<defs>
  <clipPath id="clip561">
    <rect x="480" y="0" width="1681" height="1600"/>
  </clipPath>
</defs>
<path clip-path="url(#clip560)" d="M307.593 1474.16 L2352.76 1474.16 L2352.76 47.2441 L307.593 47.2441  Z" fill="#ffffff" fill-rule="evenodd" fill-opacity="1"/>
<defs>
  <clipPath id="clip562">
    <rect x="307" y="47" width="2046" height="1428"/>
  </clipPath>
</defs>
<polyline clip-path="url(#clip562)" style="stroke:#000000; stroke-linecap:round; stroke-linejoin:round; stroke-width:2; stroke-opacity:0.1; fill:none" points="307.593,1474.16 307.593,47.2441 "/>
<polyline clip-path="url(#clip562)" style="stroke:#000000; stroke-linecap:round; stroke-linejoin:round; stroke-width:2; stroke-opacity:0.1; fill:none" points="818.884,1474.16 818.884,47.2441 "/>
<polyline clip-path="url(#clip562)" style="stroke:#000000; stroke-linecap:round; stroke-linejoin:round; stroke-width:2; stroke-opacity:0.1; fill:none" points="1330.17,1474.16 1330.17,47.2441 "/>
<polyline clip-path="url(#clip562)" style="stroke:#000000; stroke-linecap:round; stroke-linejoin:round; stroke-width:2; stroke-opacity:0.1; fill:none" points="1841.47,1474.16 1841.47,47.2441 "/>
<polyline clip-path="url(#clip562)" style="stroke:#000000; stroke-linecap:round; stroke-linejoin:round; stroke-width:2; stroke-opacity:0.1; fill:none" points="2352.76,1474.16 2352.76,47.2441 "/>
<polyline clip-path="url(#clip562)" style="stroke:#000000; stroke-linecap:round; stroke-linejoin:round; stroke-width:2; stroke-opacity:0.1; fill:none" points="307.593,1433.78 2352.76,1433.78 "/>
<polyline clip-path="url(#clip562)" style="stroke:#000000; stroke-linecap:round; stroke-linejoin:round; stroke-width:2; stroke-opacity:0.1; fill:none" points="307.593,1231.32 2352.76,1231.32 "/>
<polyline clip-path="url(#clip562)" style="stroke:#000000; stroke-linecap:round; stroke-linejoin:round; stroke-width:2; stroke-opacity:0.1; fill:none" points="307.593,1028.86 2352.76,1028.86 "/>
<polyline clip-path="url(#clip562)" style="stroke:#000000; stroke-linecap:round; stroke-linejoin:round; stroke-width:2; stroke-opacity:0.1; fill:none" points="307.593,826.405 2352.76,826.405 "/>
<polyline clip-path="url(#clip562)" style="stroke:#000000; stroke-linecap:round; stroke-linejoin:round; stroke-width:2; stroke-opacity:0.1; fill:none" points="307.593,623.947 2352.76,623.947 "/>
<polyline clip-path="url(#clip562)" style="stroke:#000000; stroke-linecap:round; stroke-linejoin:round; stroke-width:2; stroke-opacity:0.1; fill:none" points="307.593,421.489 2352.76,421.489 "/>
<polyline clip-path="url(#clip562)" style="stroke:#000000; stroke-linecap:round; stroke-linejoin:round; stroke-width:2; stroke-opacity:0.1; fill:none" points="307.593,219.03 2352.76,219.03 "/>
<polyline clip-path="url(#clip560)" style="stroke:#000000; stroke-linecap:round; stroke-linejoin:round; stroke-width:4; stroke-opacity:1; fill:none" points="307.593,1474.16 2352.76,1474.16 "/>
<polyline clip-path="url(#clip560)" style="stroke:#000000; stroke-linecap:round; stroke-linejoin:round; stroke-width:4; stroke-opacity:1; fill:none" points="307.593,1474.16 307.593,1455.27 "/>
<polyline clip-path="url(#clip560)" style="stroke:#000000; stroke-linecap:round; stroke-linejoin:round; stroke-width:4; stroke-opacity:1; fill:none" points="818.884,1474.16 818.884,1455.27 "/>
<polyline clip-path="url(#clip560)" style="stroke:#000000; stroke-linecap:round; stroke-linejoin:round; stroke-width:4; stroke-opacity:1; fill:none" points="1330.17,1474.16 1330.17,1455.27 "/>
<polyline clip-path="url(#clip560)" style="stroke:#000000; stroke-linecap:round; stroke-linejoin:round; stroke-width:4; stroke-opacity:1; fill:none" points="1841.47,1474.16 1841.47,1455.27 "/>
<polyline clip-path="url(#clip560)" style="stroke:#000000; stroke-linecap:round; stroke-linejoin:round; stroke-width:4; stroke-opacity:1; fill:none" points="2352.76,1474.16 2352.76,1455.27 "/>
<path clip-path="url(#clip560)" d="M244.956 1548.29 L252.595 1548.29 L252.595 1521.92 L244.285 1523.59 L244.285 1519.33 L252.549 1517.66 L257.225 1517.66 L257.225 1548.29 L264.864 1548.29 L264.864 1552.22 L244.956 1552.22 L244.956 1548.29 Z" fill="#000000" fill-rule="nonzero" fill-opacity="1" /><path clip-path="url(#clip560)" d="M284.308 1520.74 Q280.697 1520.74 278.868 1524.31 Q277.063 1527.85 277.063 1534.98 Q277.063 1542.09 278.868 1545.65 Q280.697 1549.19 284.308 1549.19 Q287.942 1549.19 289.748 1545.65 Q291.577 1542.09 291.577 1534.98 Q291.577 1527.85 289.748 1524.31 Q287.942 1520.74 284.308 1520.74 M284.308 1517.04 Q290.118 1517.04 293.174 1521.65 Q296.252 1526.23 296.252 1534.98 Q296.252 1543.71 293.174 1548.31 Q290.118 1552.9 284.308 1552.9 Q278.498 1552.9 275.419 1548.31 Q272.364 1543.71 272.364 1534.98 Q272.364 1526.23 275.419 1521.65 Q278.498 1517.04 284.308 1517.04 Z" fill="#000000" fill-rule="nonzero" fill-opacity="1" /><path clip-path="url(#clip560)" d="M296.252 1511.14 L320.364 1511.14 L320.364 1514.34 L296.252 1514.34 L296.252 1511.14 Z" fill="#000000" fill-rule="nonzero" fill-opacity="1" /><path clip-path="url(#clip560)" d="M329.222 1521.62 L335.429 1521.62 L335.429 1500.19 L328.677 1501.55 L328.677 1498.09 L335.391 1496.73 L339.191 1496.73 L339.191 1521.62 L345.397 1521.62 L345.397 1524.81 L329.222 1524.81 L329.222 1521.62 Z" fill="#000000" fill-rule="nonzero" fill-opacity="1" /><path clip-path="url(#clip560)" d="M361.196 1499.24 Q358.262 1499.24 356.776 1502.13 Q355.309 1505.01 355.309 1510.8 Q355.309 1516.58 356.776 1519.47 Q358.262 1522.35 361.196 1522.35 Q364.148 1522.35 365.615 1519.47 Q367.101 1516.58 367.101 1510.8 Q367.101 1505.01 365.615 1502.13 Q364.148 1499.24 361.196 1499.24 M361.196 1496.23 Q365.916 1496.23 368.399 1499.97 Q370.9 1503.69 370.9 1510.8 Q370.9 1517.89 368.399 1521.64 Q365.916 1525.36 361.196 1525.36 Q356.475 1525.36 353.973 1521.64 Q351.491 1517.89 351.491 1510.8 Q351.491 1503.69 353.973 1499.97 Q356.475 1496.23 361.196 1496.23 Z" fill="#000000" fill-rule="nonzero" fill-opacity="1" /><path clip-path="url(#clip560)" d="M768.538 1548.29 L776.177 1548.29 L776.177 1521.92 L767.867 1523.59 L767.867 1519.33 L776.131 1517.66 L780.807 1517.66 L780.807 1548.29 L788.445 1548.29 L788.445 1552.22 L768.538 1552.22 L768.538 1548.29 Z" fill="#000000" fill-rule="nonzero" fill-opacity="1" /><path clip-path="url(#clip560)" d="M807.89 1520.74 Q804.279 1520.74 802.45 1524.31 Q800.644 1527.85 800.644 1534.98 Q800.644 1542.09 802.45 1545.65 Q804.279 1549.19 807.89 1549.19 Q811.524 1549.19 813.329 1545.65 Q815.158 1542.09 815.158 1534.98 Q815.158 1527.85 813.329 1524.31 Q811.524 1520.74 807.89 1520.74 M807.89 1517.04 Q813.7 1517.04 816.755 1521.65 Q819.834 1526.23 819.834 1534.98 Q819.834 1543.71 816.755 1548.31 Q813.7 1552.9 807.89 1552.9 Q802.08 1552.9 799.001 1548.31 Q795.945 1543.71 795.945 1534.98 Q795.945 1526.23 799.001 1521.65 Q802.08 1517.04 807.89 1517.04 Z" fill="#000000" fill-rule="nonzero" fill-opacity="1" /><path clip-path="url(#clip560)" d="M819.834 1511.14 L843.946 1511.14 L843.946 1514.34 L819.834 1514.34 L819.834 1511.14 Z" fill="#000000" fill-rule="nonzero" fill-opacity="1" /><path clip-path="url(#clip560)" d="M860.271 1511.48 Q857.562 1511.48 856.001 1512.93 Q854.459 1514.38 854.459 1516.92 Q854.459 1519.45 856.001 1520.9 Q857.562 1522.35 860.271 1522.35 Q862.979 1522.35 864.54 1520.9 Q866.101 1519.44 866.101 1516.92 Q866.101 1514.38 864.54 1512.93 Q862.998 1511.48 860.271 1511.48 M856.472 1509.86 Q854.027 1509.26 852.654 1507.59 Q851.299 1505.91 851.299 1503.51 Q851.299 1500.14 853.688 1498.18 Q856.095 1496.23 860.271 1496.23 Q864.465 1496.23 866.854 1498.18 Q869.242 1500.14 869.242 1503.51 Q869.242 1505.91 867.869 1507.59 Q866.515 1509.26 864.089 1509.86 Q866.835 1510.5 868.358 1512.36 Q869.9 1514.23 869.9 1516.92 Q869.9 1521 867.399 1523.18 Q864.916 1525.36 860.271 1525.36 Q855.625 1525.36 853.124 1523.18 Q850.641 1521 850.641 1516.92 Q850.641 1514.23 852.183 1512.36 Q853.726 1510.5 856.472 1509.86 M855.08 1503.86 Q855.08 1506.04 856.434 1507.27 Q857.807 1508.49 860.271 1508.49 Q862.716 1508.49 864.089 1507.27 Q865.481 1506.04 865.481 1503.86 Q865.481 1501.68 864.089 1500.46 Q862.716 1499.24 860.271 1499.24 Q857.807 1499.24 856.434 1500.46 Q855.08 1501.68 855.08 1503.86 Z" fill="#000000" fill-rule="nonzero" fill-opacity="1" /><path clip-path="url(#clip560)" d="M1279.73 1548.29 L1287.36 1548.29 L1287.36 1521.92 L1279.05 1523.59 L1279.05 1519.33 L1287.32 1517.66 L1291.99 1517.66 L1291.99 1548.29 L1299.63 1548.29 L1299.63 1552.22 L1279.73 1552.22 L1279.73 1548.29 Z" fill="#000000" fill-rule="nonzero" fill-opacity="1" /><path clip-path="url(#clip560)" d="M1319.08 1520.74 Q1315.47 1520.74 1313.64 1524.31 Q1311.83 1527.85 1311.83 1534.98 Q1311.83 1542.09 1313.64 1545.65 Q1315.47 1549.19 1319.08 1549.19 Q1322.71 1549.19 1324.52 1545.65 Q1326.35 1542.09 1326.35 1534.98 Q1326.35 1527.85 1324.52 1524.31 Q1322.71 1520.74 1319.08 1520.74 M1319.08 1517.04 Q1324.89 1517.04 1327.94 1521.65 Q1331.02 1526.23 1331.02 1534.98 Q1331.02 1543.71 1327.94 1548.31 Q1324.89 1552.9 1319.08 1552.9 Q1313.27 1552.9 1310.19 1548.31 Q1307.13 1543.71 1307.13 1534.98 Q1307.13 1526.23 1310.19 1521.65 Q1313.27 1517.04 1319.08 1517.04 Z" fill="#000000" fill-rule="nonzero" fill-opacity="1" /><path clip-path="url(#clip560)" d="M1331.02 1511.14 L1355.13 1511.14 L1355.13 1514.34 L1331.02 1514.34 L1331.02 1511.14 Z" fill="#000000" fill-rule="nonzero" fill-opacity="1" /><path clip-path="url(#clip560)" d="M1371.93 1509.26 Q1369.37 1509.26 1367.87 1511.01 Q1366.38 1512.76 1366.38 1515.81 Q1366.38 1518.83 1367.87 1520.6 Q1369.37 1522.35 1371.93 1522.35 Q1374.49 1522.35 1375.97 1520.6 Q1377.48 1518.83 1377.48 1515.81 Q1377.48 1512.76 1375.97 1511.01 Q1374.49 1509.26 1371.93 1509.26 M1379.47 1497.35 L1379.47 1500.82 Q1378.04 1500.14 1376.57 1499.78 Q1375.13 1499.42 1373.7 1499.42 Q1369.93 1499.42 1367.94 1501.96 Q1365.97 1504.5 1365.68 1509.64 Q1366.79 1508 1368.47 1507.13 Q1370.14 1506.25 1372.15 1506.25 Q1376.39 1506.25 1378.83 1508.83 Q1381.29 1511.39 1381.29 1515.81 Q1381.29 1520.13 1378.74 1522.75 Q1376.18 1525.36 1371.93 1525.36 Q1367.06 1525.36 1364.48 1521.64 Q1361.9 1517.89 1361.9 1510.8 Q1361.9 1504.14 1365.06 1500.19 Q1368.22 1496.23 1373.55 1496.23 Q1374.98 1496.23 1376.42 1496.51 Q1377.89 1496.79 1379.47 1497.35 Z" fill="#000000" fill-rule="nonzero" fill-opacity="1" /><path clip-path="url(#clip560)" d="M1790.88 1548.29 L1798.52 1548.29 L1798.52 1521.92 L1790.21 1523.59 L1790.21 1519.33 L1798.48 1517.66 L1803.15 1517.66 L1803.15 1548.29 L1810.79 1548.29 L1810.79 1552.22 L1790.88 1552.22 L1790.88 1548.29 Z" fill="#000000" fill-rule="nonzero" fill-opacity="1" /><path clip-path="url(#clip560)" d="M1830.24 1520.74 Q1826.63 1520.74 1824.8 1524.31 Q1822.99 1527.85 1822.99 1534.98 Q1822.99 1542.09 1824.8 1545.65 Q1826.63 1549.19 1830.24 1549.19 Q1833.87 1549.19 1835.68 1545.65 Q1837.5 1542.09 1837.5 1534.98 Q1837.5 1527.85 1835.68 1524.31 Q1833.87 1520.74 1830.24 1520.74 M1830.24 1517.04 Q1836.05 1517.04 1839.1 1521.65 Q1842.18 1526.23 1842.18 1534.98 Q1842.18 1543.71 1839.1 1548.31 Q1836.05 1552.9 1830.24 1552.9 Q1824.43 1552.9 1821.35 1548.31 Q1818.29 1543.71 1818.29 1534.98 Q1818.29 1526.23 1821.35 1521.65 Q1824.43 1517.04 1830.24 1517.04 Z" fill="#000000" fill-rule="nonzero" fill-opacity="1" /><path clip-path="url(#clip560)" d="M1842.18 1511.14 L1866.29 1511.14 L1866.29 1514.34 L1842.18 1514.34 L1842.18 1511.14 Z" fill="#000000" fill-rule="nonzero" fill-opacity="1" /><path clip-path="url(#clip560)" d="M1884.93 1500.04 L1875.34 1515.03 L1884.93 1515.03 L1884.93 1500.04 M1883.93 1496.73 L1888.71 1496.73 L1888.71 1515.03 L1892.72 1515.03 L1892.72 1518.19 L1888.71 1518.19 L1888.71 1524.81 L1884.93 1524.81 L1884.93 1518.19 L1872.25 1518.19 L1872.25 1514.53 L1883.93 1496.73 Z" fill="#000000" fill-rule="nonzero" fill-opacity="1" /><path clip-path="url(#clip560)" d="M2303.02 1548.29 L2310.66 1548.29 L2310.66 1521.92 L2302.35 1523.59 L2302.35 1519.33 L2310.61 1517.66 L2315.29 1517.66 L2315.29 1548.29 L2322.93 1548.29 L2322.93 1552.22 L2303.02 1552.22 L2303.02 1548.29 Z" fill="#000000" fill-rule="nonzero" fill-opacity="1" /><path clip-path="url(#clip560)" d="M2342.37 1520.74 Q2338.76 1520.74 2336.93 1524.31 Q2335.13 1527.85 2335.13 1534.98 Q2335.13 1542.09 2336.93 1545.65 Q2338.76 1549.19 2342.37 1549.19 Q2346.01 1549.19 2347.81 1545.65 Q2349.64 1542.09 2349.64 1534.98 Q2349.64 1527.85 2347.81 1524.31 Q2346.01 1520.74 2342.37 1520.74 M2342.37 1517.04 Q2348.18 1517.04 2351.24 1521.65 Q2354.32 1526.23 2354.32 1534.98 Q2354.32 1543.71 2351.24 1548.31 Q2348.18 1552.9 2342.37 1552.9 Q2336.56 1552.9 2333.48 1548.31 Q2330.43 1543.71 2330.43 1534.98 Q2330.43 1526.23 2333.48 1521.65 Q2336.56 1517.04 2342.37 1517.04 Z" fill="#000000" fill-rule="nonzero" fill-opacity="1" /><path clip-path="url(#clip560)" d="M2354.32 1511.14 L2378.43 1511.14 L2378.43 1514.34 L2354.32 1514.34 L2354.32 1511.14 Z" fill="#000000" fill-rule="nonzero" fill-opacity="1" /><path clip-path="url(#clip560)" d="M2389.9 1521.62 L2403.16 1521.62 L2403.16 1524.81 L2385.33 1524.81 L2385.33 1521.62 Q2387.49 1519.38 2391.22 1515.62 Q2394.96 1511.84 2395.92 1510.75 Q2397.74 1508.7 2398.46 1507.29 Q2399.19 1505.86 2399.19 1504.48 Q2399.19 1502.24 2397.61 1500.83 Q2396.05 1499.42 2393.53 1499.42 Q2391.75 1499.42 2389.75 1500.04 Q2387.78 1500.67 2385.52 1501.93 L2385.52 1498.09 Q2387.81 1497.17 2389.81 1496.7 Q2391.8 1496.23 2393.46 1496.23 Q2397.82 1496.23 2400.42 1498.41 Q2403.01 1500.59 2403.01 1504.24 Q2403.01 1505.97 2402.35 1507.53 Q2401.71 1509.07 2400 1511.18 Q2399.53 1511.72 2397.01 1514.34 Q2394.49 1516.93 2389.9 1521.62 Z" fill="#000000" fill-rule="nonzero" fill-opacity="1" /><polyline clip-path="url(#clip560)" style="stroke:#000000; stroke-linecap:round; stroke-linejoin:round; stroke-width:4; stroke-opacity:1; fill:none" points="307.593,1474.16 307.593,47.2441 "/>
<polyline clip-path="url(#clip560)" style="stroke:#000000; stroke-linecap:round; stroke-linejoin:round; stroke-width:4; stroke-opacity:1; fill:none" points="307.593,1433.78 326.49,1433.78 "/>
<polyline clip-path="url(#clip560)" style="stroke:#000000; stroke-linecap:round; stroke-linejoin:round; stroke-width:4; stroke-opacity:1; fill:none" points="307.593,1231.32 326.49,1231.32 "/>
<polyline clip-path="url(#clip560)" style="stroke:#000000; stroke-linecap:round; stroke-linejoin:round; stroke-width:4; stroke-opacity:1; fill:none" points="307.593,1028.86 326.49,1028.86 "/>
<polyline clip-path="url(#clip560)" style="stroke:#000000; stroke-linecap:round; stroke-linejoin:round; stroke-width:4; stroke-opacity:1; fill:none" points="307.593,826.405 326.49,826.405 "/>
<polyline clip-path="url(#clip560)" style="stroke:#000000; stroke-linecap:round; stroke-linejoin:round; stroke-width:4; stroke-opacity:1; fill:none" points="307.593,623.947 326.49,623.947 "/>
<polyline clip-path="url(#clip560)" style="stroke:#000000; stroke-linecap:round; stroke-linejoin:round; stroke-width:4; stroke-opacity:1; fill:none" points="307.593,421.489 326.49,421.489 "/>
<polyline clip-path="url(#clip560)" style="stroke:#000000; stroke-linecap:round; stroke-linejoin:round; stroke-width:4; stroke-opacity:1; fill:none" points="307.593,219.03 326.49,219.03 "/>
<path clip-path="url(#clip560)" d="M259.648 1419.58 Q256.037 1419.58 254.209 1423.14 Q252.403 1426.69 252.403 1433.81 Q252.403 1440.92 254.209 1444.49 Q256.037 1448.03 259.648 1448.03 Q263.283 1448.03 265.088 1444.49 Q266.917 1440.92 266.917 1433.81 Q266.917 1426.69 265.088 1423.14 Q263.283 1419.58 259.648 1419.58 M259.648 1415.88 Q265.459 1415.88 268.514 1420.48 Q271.593 1425.06 271.593 1433.81 Q271.593 1442.54 268.514 1447.15 Q265.459 1451.73 259.648 1451.73 Q253.838 1451.73 250.76 1447.15 Q247.704 1442.54 247.704 1433.81 Q247.704 1425.06 250.76 1420.48 Q253.838 1415.88 259.648 1415.88 Z" fill="#000000" fill-rule="nonzero" fill-opacity="1" /><path clip-path="url(#clip560)" d="M57.7745 1251.11 L74.0939 1251.11 L74.0939 1255.05 L52.1495 1255.05 L52.1495 1251.11 Q54.8115 1248.36 59.3949 1243.73 Q64.0013 1239.08 65.1819 1237.73 Q67.4272 1235.21 68.3068 1233.48 Q69.2096 1231.72 69.2096 1230.03 Q69.2096 1227.27 67.2652 1225.54 Q65.3439 1223.8 62.2421 1223.8 Q60.043 1223.8 57.5893 1224.56 Q55.1588 1225.33 52.381 1226.88 L52.381 1222.16 Q55.2051 1221.02 57.6588 1220.44 Q60.1124 1219.86 62.1495 1219.86 Q67.5198 1219.86 70.7142 1222.55 Q73.9087 1225.23 73.9087 1229.73 Q73.9087 1231.86 73.0985 1233.78 Q72.3115 1235.67 70.205 1238.27 Q69.6263 1238.94 66.5245 1242.16 Q63.4226 1245.35 57.7745 1251.11 Z" fill="#000000" fill-rule="nonzero" fill-opacity="1" /><path clip-path="url(#clip560)" d="M83.9086 1249.17 L88.7928 1249.17 L88.7928 1255.05 L83.9086 1255.05 L83.9086 1249.17 Z" fill="#000000" fill-rule="nonzero" fill-opacity="1" /><path clip-path="url(#clip560)" d="M108.978 1223.57 Q105.367 1223.57 103.538 1227.13 Q101.733 1230.67 101.733 1237.8 Q101.733 1244.91 103.538 1248.48 Q105.367 1252.02 108.978 1252.02 Q112.612 1252.02 114.418 1248.48 Q116.246 1244.91 116.246 1237.8 Q116.246 1230.67 114.418 1227.13 Q112.612 1223.57 108.978 1223.57 M108.978 1219.86 Q114.788 1219.86 117.844 1224.47 Q120.922 1229.05 120.922 1237.8 Q120.922 1246.53 117.844 1251.14 Q114.788 1255.72 108.978 1255.72 Q103.168 1255.72 100.089 1251.14 Q97.0335 1246.53 97.0335 1237.8 Q97.0335 1229.05 100.089 1224.47 Q103.168 1219.86 108.978 1219.86 Z" fill="#000000" fill-rule="nonzero" fill-opacity="1" /><path clip-path="url(#clip560)" d="M139.14 1223.57 Q135.529 1223.57 133.7 1227.13 Q131.894 1230.67 131.894 1237.8 Q131.894 1244.91 133.7 1248.48 Q135.529 1252.02 139.14 1252.02 Q142.774 1252.02 144.58 1248.48 Q146.408 1244.91 146.408 1237.8 Q146.408 1230.67 144.58 1227.13 Q142.774 1223.57 139.14 1223.57 M139.14 1219.86 Q144.95 1219.86 148.005 1224.47 Q151.084 1229.05 151.084 1237.8 Q151.084 1246.53 148.005 1251.14 Q144.95 1255.72 139.14 1255.72 Q133.33 1255.72 130.251 1251.14 Q127.195 1246.53 127.195 1237.8 Q127.195 1229.05 130.251 1224.47 Q133.33 1219.86 139.14 1219.86 Z" fill="#000000" fill-rule="nonzero" fill-opacity="1" /><path clip-path="url(#clip560)" d="M187.473 1229.59 L176.894 1240.21 L187.473 1250.79 L184.718 1253.59 L174.093 1242.97 L163.468 1253.59 L160.737 1250.79 L171.292 1240.21 L160.737 1229.59 L163.468 1226.79 L174.093 1237.41 L184.718 1226.79 L187.473 1229.59 Z" fill="#000000" fill-rule="nonzero" fill-opacity="1" /><path clip-path="url(#clip560)" d="M199.834 1251.11 L207.473 1251.11 L207.473 1224.75 L199.163 1226.42 L199.163 1222.16 L207.426 1220.49 L212.102 1220.49 L212.102 1251.11 L219.741 1251.11 L219.741 1255.05 L199.834 1255.05 L199.834 1251.11 Z" fill="#000000" fill-rule="nonzero" fill-opacity="1" /><path clip-path="url(#clip560)" d="M239.186 1223.57 Q235.574 1223.57 233.746 1227.13 Q231.94 1230.67 231.94 1237.8 Q231.94 1244.91 233.746 1248.48 Q235.574 1252.02 239.186 1252.02 Q242.82 1252.02 244.625 1248.48 Q246.454 1244.91 246.454 1237.8 Q246.454 1230.67 244.625 1227.13 Q242.82 1223.57 239.186 1223.57 M239.186 1219.86 Q244.996 1219.86 248.051 1224.47 Q251.13 1229.05 251.13 1237.8 Q251.13 1246.53 248.051 1251.14 Q244.996 1255.72 239.186 1255.72 Q233.375 1255.72 230.297 1251.14 Q227.241 1246.53 227.241 1237.8 Q227.241 1229.05 230.297 1224.47 Q233.375 1219.86 239.186 1219.86 Z" fill="#000000" fill-rule="nonzero" fill-opacity="1" /><path clip-path="url(#clip560)" d="M263.806 1202.87 L254.214 1217.86 L263.806 1217.86 L263.806 1202.87 M262.81 1199.56 L267.587 1199.56 L267.587 1217.86 L271.593 1217.86 L271.593 1221.02 L267.587 1221.02 L267.587 1227.64 L263.806 1227.64 L263.806 1221.02 L251.13 1221.02 L251.13 1217.35 L262.81 1199.56 Z" fill="#000000" fill-rule="nonzero" fill-opacity="1" /><path clip-path="url(#clip560)" d="M66.5939 1022.11 L54.7884 1040.55 L66.5939 1040.55 L66.5939 1022.11 M65.367 1018.03 L71.2466 1018.03 L71.2466 1040.55 L76.1772 1040.55 L76.1772 1044.44 L71.2466 1044.44 L71.2466 1052.59 L66.5939 1052.59 L66.5939 1044.44 L50.9921 1044.44 L50.9921 1039.93 L65.367 1018.03 Z" fill="#000000" fill-rule="nonzero" fill-opacity="1" /><path clip-path="url(#clip560)" d="M83.9086 1046.71 L88.7928 1046.71 L88.7928 1052.59 L83.9086 1052.59 L83.9086 1046.71 Z" fill="#000000" fill-rule="nonzero" fill-opacity="1" /><path clip-path="url(#clip560)" d="M108.978 1021.11 Q105.367 1021.11 103.538 1024.67 Q101.733 1028.22 101.733 1035.35 Q101.733 1042.45 103.538 1046.02 Q105.367 1049.56 108.978 1049.56 Q112.612 1049.56 114.418 1046.02 Q116.246 1042.45 116.246 1035.35 Q116.246 1028.22 114.418 1024.67 Q112.612 1021.11 108.978 1021.11 M108.978 1017.41 Q114.788 1017.41 117.844 1022.01 Q120.922 1026.6 120.922 1035.35 Q120.922 1044.07 117.844 1048.68 Q114.788 1053.26 108.978 1053.26 Q103.168 1053.26 100.089 1048.68 Q97.0335 1044.07 97.0335 1035.35 Q97.0335 1026.6 100.089 1022.01 Q103.168 1017.41 108.978 1017.41 Z" fill="#000000" fill-rule="nonzero" fill-opacity="1" /><path clip-path="url(#clip560)" d="M139.14 1021.11 Q135.529 1021.11 133.7 1024.67 Q131.894 1028.22 131.894 1035.35 Q131.894 1042.45 133.7 1046.02 Q135.529 1049.56 139.14 1049.56 Q142.774 1049.56 144.58 1046.02 Q146.408 1042.45 146.408 1035.35 Q146.408 1028.22 144.58 1024.67 Q142.774 1021.11 139.14 1021.11 M139.14 1017.41 Q144.95 1017.41 148.005 1022.01 Q151.084 1026.6 151.084 1035.35 Q151.084 1044.07 148.005 1048.68 Q144.95 1053.26 139.14 1053.26 Q133.33 1053.26 130.251 1048.68 Q127.195 1044.07 127.195 1035.35 Q127.195 1026.6 130.251 1022.01 Q133.33 1017.41 139.14 1017.41 Z" fill="#000000" fill-rule="nonzero" fill-opacity="1" /><path clip-path="url(#clip560)" d="M187.473 1027.13 L176.894 1037.75 L187.473 1048.33 L184.718 1051.13 L174.093 1040.51 L163.468 1051.13 L160.737 1048.33 L171.292 1037.75 L160.737 1027.13 L163.468 1024.33 L174.093 1034.95 L184.718 1024.33 L187.473 1027.13 Z" fill="#000000" fill-rule="nonzero" fill-opacity="1" /><path clip-path="url(#clip560)" d="M199.834 1048.66 L207.473 1048.66 L207.473 1022.29 L199.163 1023.96 L199.163 1019.7 L207.426 1018.03 L212.102 1018.03 L212.102 1048.66 L219.741 1048.66 L219.741 1052.59 L199.834 1052.59 L199.834 1048.66 Z" fill="#000000" fill-rule="nonzero" fill-opacity="1" /><path clip-path="url(#clip560)" d="M239.186 1021.11 Q235.574 1021.11 233.746 1024.67 Q231.94 1028.22 231.94 1035.35 Q231.94 1042.45 233.746 1046.02 Q235.574 1049.56 239.186 1049.56 Q242.82 1049.56 244.625 1046.02 Q246.454 1042.45 246.454 1035.35 Q246.454 1028.22 244.625 1024.67 Q242.82 1021.11 239.186 1021.11 M239.186 1017.41 Q244.996 1017.41 248.051 1022.01 Q251.13 1026.6 251.13 1035.35 Q251.13 1044.07 248.051 1048.68 Q244.996 1053.26 239.186 1053.26 Q233.375 1053.26 230.297 1048.68 Q227.241 1044.07 227.241 1035.35 Q227.241 1026.6 230.297 1022.01 Q233.375 1017.41 239.186 1017.41 Z" fill="#000000" fill-rule="nonzero" fill-opacity="1" /><path clip-path="url(#clip560)" d="M263.806 1000.41 L254.214 1015.4 L263.806 1015.4 L263.806 1000.41 M262.81 997.101 L267.587 997.101 L267.587 1015.4 L271.593 1015.4 L271.593 1018.56 L267.587 1018.56 L267.587 1025.18 L263.806 1025.18 L263.806 1018.56 L251.13 1018.56 L251.13 1014.89 L262.81 997.101 Z" fill="#000000" fill-rule="nonzero" fill-opacity="1" /><path clip-path="url(#clip560)" d="M64.3254 830.989 Q61.1773 830.989 59.3254 833.142 Q57.4967 835.295 57.4967 839.045 Q57.4967 842.772 59.3254 844.948 Q61.1773 847.1 64.3254 847.1 Q67.4735 847.1 69.3022 844.948 Q71.1541 842.772 71.1541 839.045 Q71.1541 835.295 69.3022 833.142 Q67.4735 830.989 64.3254 830.989 M73.6077 816.337 L73.6077 820.596 Q71.8485 819.763 70.0429 819.323 Q68.2606 818.883 66.5013 818.883 Q61.8717 818.883 59.418 822.008 Q56.9875 825.133 56.6402 831.452 Q58.006 829.439 60.0662 828.374 Q62.1263 827.286 64.6032 827.286 Q69.8115 827.286 72.8207 830.457 Q75.8531 833.605 75.8531 839.045 Q75.8531 844.369 72.705 847.587 Q69.5568 850.804 64.3254 850.804 Q58.33 850.804 55.1588 846.221 Q51.9875 841.614 51.9875 832.888 Q51.9875 824.693 55.8764 819.832 Q59.7652 814.948 66.3161 814.948 Q68.0754 814.948 69.8578 815.295 Q71.6633 815.642 73.6077 816.337 Z" fill="#000000" fill-rule="nonzero" fill-opacity="1" /><path clip-path="url(#clip560)" d="M83.9086 844.253 L88.7928 844.253 L88.7928 850.133 L83.9086 850.133 L83.9086 844.253 Z" fill="#000000" fill-rule="nonzero" fill-opacity="1" /><path clip-path="url(#clip560)" d="M108.978 818.652 Q105.367 818.652 103.538 822.216 Q101.733 825.758 101.733 832.888 Q101.733 839.994 103.538 843.559 Q105.367 847.1 108.978 847.1 Q112.612 847.1 114.418 843.559 Q116.246 839.994 116.246 832.888 Q116.246 825.758 114.418 822.216 Q112.612 818.652 108.978 818.652 M108.978 814.948 Q114.788 814.948 117.844 819.554 Q120.922 824.138 120.922 832.888 Q120.922 841.614 117.844 846.221 Q114.788 850.804 108.978 850.804 Q103.168 850.804 100.089 846.221 Q97.0335 841.614 97.0335 832.888 Q97.0335 824.138 100.089 819.554 Q103.168 814.948 108.978 814.948 Z" fill="#000000" fill-rule="nonzero" fill-opacity="1" /><path clip-path="url(#clip560)" d="M139.14 818.652 Q135.529 818.652 133.7 822.216 Q131.894 825.758 131.894 832.888 Q131.894 839.994 133.7 843.559 Q135.529 847.1 139.14 847.1 Q142.774 847.1 144.58 843.559 Q146.408 839.994 146.408 832.888 Q146.408 825.758 144.58 822.216 Q142.774 818.652 139.14 818.652 M139.14 814.948 Q144.95 814.948 148.005 819.554 Q151.084 824.138 151.084 832.888 Q151.084 841.614 148.005 846.221 Q144.95 850.804 139.14 850.804 Q133.33 850.804 130.251 846.221 Q127.195 841.614 127.195 832.888 Q127.195 824.138 130.251 819.554 Q133.33 814.948 139.14 814.948 Z" fill="#000000" fill-rule="nonzero" fill-opacity="1" /><path clip-path="url(#clip560)" d="M187.473 824.67 L176.894 835.295 L187.473 845.874 L184.718 848.675 L174.093 838.05 L163.468 848.675 L160.737 845.874 L171.292 835.295 L160.737 824.67 L163.468 821.869 L174.093 832.494 L184.718 821.869 L187.473 824.67 Z" fill="#000000" fill-rule="nonzero" fill-opacity="1" /><path clip-path="url(#clip560)" d="M199.834 846.198 L207.473 846.198 L207.473 819.832 L199.163 821.499 L199.163 817.239 L207.426 815.573 L212.102 815.573 L212.102 846.198 L219.741 846.198 L219.741 850.133 L199.834 850.133 L199.834 846.198 Z" fill="#000000" fill-rule="nonzero" fill-opacity="1" /><path clip-path="url(#clip560)" d="M239.186 818.652 Q235.574 818.652 233.746 822.216 Q231.94 825.758 231.94 832.888 Q231.94 839.994 233.746 843.559 Q235.574 847.1 239.186 847.1 Q242.82 847.1 244.625 843.559 Q246.454 839.994 246.454 832.888 Q246.454 825.758 244.625 822.216 Q242.82 818.652 239.186 818.652 M239.186 814.948 Q244.996 814.948 248.051 819.554 Q251.13 824.138 251.13 832.888 Q251.13 841.614 248.051 846.221 Q244.996 850.804 239.186 850.804 Q233.375 850.804 230.297 846.221 Q227.241 841.614 227.241 832.888 Q227.241 824.138 230.297 819.554 Q233.375 814.948 239.186 814.948 Z" fill="#000000" fill-rule="nonzero" fill-opacity="1" /><path clip-path="url(#clip560)" d="M263.806 797.953 L254.214 812.942 L263.806 812.942 L263.806 797.953 M262.81 794.642 L267.587 794.642 L267.587 812.942 L271.593 812.942 L271.593 816.102 L267.587 816.102 L267.587 822.722 L263.806 822.722 L263.806 816.102 L251.13 816.102 L251.13 812.435 L262.81 794.642 Z" fill="#000000" fill-rule="nonzero" fill-opacity="1" /><path clip-path="url(#clip560)" d="M63.7467 631.263 Q60.4134 631.263 58.4921 633.045 Q56.5939 634.827 56.5939 637.952 Q56.5939 641.077 58.4921 642.86 Q60.4134 644.642 63.7467 644.642 Q67.08 644.642 69.0013 642.86 Q70.9226 641.054 70.9226 637.952 Q70.9226 634.827 69.0013 633.045 Q67.1032 631.263 63.7467 631.263 M59.0708 629.272 Q56.0615 628.531 54.3717 626.471 Q52.7051 624.411 52.7051 621.448 Q52.7051 617.304 55.6449 614.897 Q58.6078 612.49 63.7467 612.49 Q68.9087 612.49 71.8485 614.897 Q74.7883 617.304 74.7883 621.448 Q74.7883 624.411 73.0985 626.471 Q71.4318 628.531 68.4457 629.272 Q71.8253 630.059 73.7003 632.351 Q75.5985 634.642 75.5985 637.952 Q75.5985 642.975 72.5198 645.661 Q69.4642 648.346 63.7467 648.346 Q58.0291 648.346 54.9504 645.661 Q51.8949 642.975 51.8949 637.952 Q51.8949 634.642 53.793 632.351 Q55.6912 630.059 59.0708 629.272 M57.3578 621.888 Q57.3578 624.573 59.0245 626.077 Q60.7143 627.582 63.7467 627.582 Q66.7559 627.582 68.4457 626.077 Q70.1587 624.573 70.1587 621.888 Q70.1587 619.202 68.4457 617.698 Q66.7559 616.193 63.7467 616.193 Q60.7143 616.193 59.0245 617.698 Q57.3578 619.202 57.3578 621.888 Z" fill="#000000" fill-rule="nonzero" fill-opacity="1" /><path clip-path="url(#clip560)" d="M83.9086 641.795 L88.7928 641.795 L88.7928 647.675 L83.9086 647.675 L83.9086 641.795 Z" fill="#000000" fill-rule="nonzero" fill-opacity="1" /><path clip-path="url(#clip560)" d="M108.978 616.193 Q105.367 616.193 103.538 619.758 Q101.733 623.3 101.733 630.429 Q101.733 637.536 103.538 641.101 Q105.367 644.642 108.978 644.642 Q112.612 644.642 114.418 641.101 Q116.246 637.536 116.246 630.429 Q116.246 623.3 114.418 619.758 Q112.612 616.193 108.978 616.193 M108.978 612.49 Q114.788 612.49 117.844 617.096 Q120.922 621.679 120.922 630.429 Q120.922 639.156 117.844 643.763 Q114.788 648.346 108.978 648.346 Q103.168 648.346 100.089 643.763 Q97.0335 639.156 97.0335 630.429 Q97.0335 621.679 100.089 617.096 Q103.168 612.49 108.978 612.49 Z" fill="#000000" fill-rule="nonzero" fill-opacity="1" /><path clip-path="url(#clip560)" d="M139.14 616.193 Q135.529 616.193 133.7 619.758 Q131.894 623.3 131.894 630.429 Q131.894 637.536 133.7 641.101 Q135.529 644.642 139.14 644.642 Q142.774 644.642 144.58 641.101 Q146.408 637.536 146.408 630.429 Q146.408 623.3 144.58 619.758 Q142.774 616.193 139.14 616.193 M139.14 612.49 Q144.95 612.49 148.005 617.096 Q151.084 621.679 151.084 630.429 Q151.084 639.156 148.005 643.763 Q144.95 648.346 139.14 648.346 Q133.33 648.346 130.251 643.763 Q127.195 639.156 127.195 630.429 Q127.195 621.679 130.251 617.096 Q133.33 612.49 139.14 612.49 Z" fill="#000000" fill-rule="nonzero" fill-opacity="1" /><path clip-path="url(#clip560)" d="M187.473 622.212 L176.894 632.837 L187.473 643.415 L184.718 646.216 L174.093 635.591 L163.468 646.216 L160.737 643.415 L171.292 632.837 L160.737 622.212 L163.468 619.411 L174.093 630.036 L184.718 619.411 L187.473 622.212 Z" fill="#000000" fill-rule="nonzero" fill-opacity="1" /><path clip-path="url(#clip560)" d="M199.834 643.739 L207.473 643.739 L207.473 617.374 L199.163 619.04 L199.163 614.781 L207.426 613.115 L212.102 613.115 L212.102 643.739 L219.741 643.739 L219.741 647.675 L199.834 647.675 L199.834 643.739 Z" fill="#000000" fill-rule="nonzero" fill-opacity="1" /><path clip-path="url(#clip560)" d="M239.186 616.193 Q235.574 616.193 233.746 619.758 Q231.94 623.3 231.94 630.429 Q231.94 637.536 233.746 641.101 Q235.574 644.642 239.186 644.642 Q242.82 644.642 244.625 641.101 Q246.454 637.536 246.454 630.429 Q246.454 623.3 244.625 619.758 Q242.82 616.193 239.186 616.193 M239.186 612.49 Q244.996 612.49 248.051 617.096 Q251.13 621.679 251.13 630.429 Q251.13 639.156 248.051 643.763 Q244.996 648.346 239.186 648.346 Q233.375 648.346 230.297 643.763 Q227.241 639.156 227.241 630.429 Q227.241 621.679 230.297 617.096 Q233.375 612.49 239.186 612.49 Z" fill="#000000" fill-rule="nonzero" fill-opacity="1" /><path clip-path="url(#clip560)" d="M263.806 595.494 L254.214 610.484 L263.806 610.484 L263.806 595.494 M262.81 592.184 L267.587 592.184 L267.587 610.484 L271.593 610.484 L271.593 613.644 L267.587 613.644 L267.587 620.264 L263.806 620.264 L263.806 613.644 L251.13 613.644 L251.13 609.976 L262.81 592.184 Z" fill="#000000" fill-rule="nonzero" fill-opacity="1" /><path clip-path="url(#clip560)" d="M56.8515 441.281 L64.4903 441.281 L64.4903 414.915 L56.1802 416.582 L56.1802 412.323 L64.444 410.656 L69.1199 410.656 L69.1199 441.281 L76.7588 441.281 L76.7588 445.216 L56.8515 445.216 L56.8515 441.281 Z" fill="#000000" fill-rule="nonzero" fill-opacity="1" /><path clip-path="url(#clip560)" d="M86.2032 439.337 L91.0874 439.337 L91.0874 445.216 L86.2032 445.216 L86.2032 439.337 Z" fill="#000000" fill-rule="nonzero" fill-opacity="1" /><path clip-path="url(#clip560)" d="M111.272 413.735 Q107.661 413.735 105.833 417.3 Q104.027 420.841 104.027 427.971 Q104.027 435.077 105.833 438.642 Q107.661 442.184 111.272 442.184 Q114.907 442.184 116.712 438.642 Q118.541 435.077 118.541 427.971 Q118.541 420.841 116.712 417.3 Q114.907 413.735 111.272 413.735 M111.272 410.031 Q117.083 410.031 120.138 414.638 Q123.217 419.221 123.217 427.971 Q123.217 436.698 120.138 441.304 Q117.083 445.888 111.272 445.888 Q105.462 445.888 102.384 441.304 Q99.3281 436.698 99.3281 427.971 Q99.3281 419.221 102.384 414.638 Q105.462 410.031 111.272 410.031 Z" fill="#000000" fill-rule="nonzero" fill-opacity="1" /><path clip-path="url(#clip560)" d="M141.434 413.735 Q137.823 413.735 135.995 417.3 Q134.189 420.841 134.189 427.971 Q134.189 435.077 135.995 438.642 Q137.823 442.184 141.434 442.184 Q145.069 442.184 146.874 438.642 Q148.703 435.077 148.703 427.971 Q148.703 420.841 146.874 417.3 Q145.069 413.735 141.434 413.735 M141.434 410.031 Q147.245 410.031 150.3 414.638 Q153.379 419.221 153.379 427.971 Q153.379 436.698 150.3 441.304 Q147.245 445.888 141.434 445.888 Q135.624 445.888 132.546 441.304 Q129.49 436.698 129.49 427.971 Q129.49 419.221 132.546 414.638 Q135.624 410.031 141.434 410.031 Z" fill="#000000" fill-rule="nonzero" fill-opacity="1" /><path clip-path="url(#clip560)" d="M189.767 419.753 L179.189 430.378 L189.767 440.957 L187.013 443.758 L176.388 433.133 L165.763 443.758 L163.031 440.957 L173.587 430.378 L163.031 419.753 L165.763 416.953 L176.388 427.577 L187.013 416.953 L189.767 419.753 Z" fill="#000000" fill-rule="nonzero" fill-opacity="1" /><path clip-path="url(#clip560)" d="M202.128 441.281 L209.767 441.281 L209.767 414.915 L201.457 416.582 L201.457 412.323 L209.721 410.656 L214.397 410.656 L214.397 441.281 L222.036 441.281 L222.036 445.216 L202.128 445.216 L202.128 441.281 Z" fill="#000000" fill-rule="nonzero" fill-opacity="1" /><path clip-path="url(#clip560)" d="M241.48 413.735 Q237.869 413.735 236.04 417.3 Q234.235 420.841 234.235 427.971 Q234.235 435.077 236.04 438.642 Q237.869 442.184 241.48 442.184 Q245.114 442.184 246.92 438.642 Q248.749 435.077 248.749 427.971 Q248.749 420.841 246.92 417.3 Q245.114 413.735 241.48 413.735 M241.48 410.031 Q247.29 410.031 250.346 414.638 Q253.424 419.221 253.424 427.971 Q253.424 436.698 250.346 441.304 Q247.29 445.888 241.48 445.888 Q235.67 445.888 232.591 441.304 Q229.536 436.698 229.536 427.971 Q229.536 419.221 232.591 414.638 Q235.67 410.031 241.48 410.031 Z" fill="#000000" fill-rule="nonzero" fill-opacity="1" /><path clip-path="url(#clip560)" d="M254.609 389.726 L269.524 389.726 L269.524 392.923 L258.089 392.923 L258.089 399.807 Q258.916 399.525 259.744 399.393 Q260.571 399.243 261.399 399.243 Q266.101 399.243 268.847 401.819 Q271.593 404.396 271.593 408.797 Q271.593 413.33 268.772 415.85 Q265.95 418.351 260.816 418.351 Q259.048 418.351 257.205 418.05 Q255.38 417.749 253.424 417.148 L253.424 413.33 Q255.117 414.251 256.923 414.703 Q258.728 415.154 260.741 415.154 Q263.994 415.154 265.894 413.442 Q267.794 411.731 267.794 408.797 Q267.794 405.863 265.894 404.151 Q263.994 402.44 260.741 402.44 Q259.217 402.44 257.694 402.778 Q256.189 403.117 254.609 403.832 L254.609 389.726 Z" fill="#000000" fill-rule="nonzero" fill-opacity="1" /><path clip-path="url(#clip560)" d="M56.8515 238.823 L64.4903 238.823 L64.4903 212.457 L56.1802 214.124 L56.1802 209.865 L64.444 208.198 L69.1199 208.198 L69.1199 238.823 L76.7588 238.823 L76.7588 242.758 L56.8515 242.758 L56.8515 238.823 Z" fill="#000000" fill-rule="nonzero" fill-opacity="1" /><path clip-path="url(#clip560)" d="M86.2032 236.878 L91.0874 236.878 L91.0874 242.758 L86.2032 242.758 L86.2032 236.878 Z" fill="#000000" fill-rule="nonzero" fill-opacity="1" /><path clip-path="url(#clip560)" d="M105.3 238.823 L121.62 238.823 L121.62 242.758 L99.6753 242.758 L99.6753 238.823 Q102.337 236.068 106.921 231.439 Q111.527 226.786 112.708 225.443 Q114.953 222.92 115.833 221.184 Q116.735 219.425 116.735 217.735 Q116.735 214.98 114.791 213.244 Q112.87 211.508 109.768 211.508 Q107.569 211.508 105.115 212.272 Q102.685 213.036 99.9068 214.587 L99.9068 209.865 Q102.731 208.73 105.185 208.152 Q107.638 207.573 109.675 207.573 Q115.046 207.573 118.24 210.258 Q121.434 212.943 121.434 217.434 Q121.434 219.564 120.624 221.485 Q119.837 223.383 117.731 225.976 Q117.152 226.647 114.05 229.865 Q110.948 233.059 105.3 238.823 Z" fill="#000000" fill-rule="nonzero" fill-opacity="1" /><path clip-path="url(#clip560)" d="M141.434 211.277 Q137.823 211.277 135.995 214.841 Q134.189 218.383 134.189 225.513 Q134.189 232.619 135.995 236.184 Q137.823 239.726 141.434 239.726 Q145.069 239.726 146.874 236.184 Q148.703 232.619 148.703 225.513 Q148.703 218.383 146.874 214.841 Q145.069 211.277 141.434 211.277 M141.434 207.573 Q147.245 207.573 150.3 212.179 Q153.379 216.763 153.379 225.513 Q153.379 234.239 150.3 238.846 Q147.245 243.429 141.434 243.429 Q135.624 243.429 132.546 238.846 Q129.49 234.239 129.49 225.513 Q129.49 216.763 132.546 212.179 Q135.624 207.573 141.434 207.573 Z" fill="#000000" fill-rule="nonzero" fill-opacity="1" /><path clip-path="url(#clip560)" d="M189.767 217.295 L179.189 227.92 L189.767 238.499 L187.013 241.3 L176.388 230.675 L165.763 241.3 L163.031 238.499 L173.587 227.92 L163.031 217.295 L165.763 214.494 L176.388 225.119 L187.013 214.494 L189.767 217.295 Z" fill="#000000" fill-rule="nonzero" fill-opacity="1" /><path clip-path="url(#clip560)" d="M202.128 238.823 L209.767 238.823 L209.767 212.457 L201.457 214.124 L201.457 209.865 L209.721 208.198 L214.397 208.198 L214.397 238.823 L222.036 238.823 L222.036 242.758 L202.128 242.758 L202.128 238.823 Z" fill="#000000" fill-rule="nonzero" fill-opacity="1" /><path clip-path="url(#clip560)" d="M241.48 211.277 Q237.869 211.277 236.04 214.841 Q234.235 218.383 234.235 225.513 Q234.235 232.619 236.04 236.184 Q237.869 239.726 241.48 239.726 Q245.114 239.726 246.92 236.184 Q248.749 232.619 248.749 225.513 Q248.749 218.383 246.92 214.841 Q245.114 211.277 241.48 211.277 M241.48 207.573 Q247.29 207.573 250.346 212.179 Q253.424 216.763 253.424 225.513 Q253.424 234.239 250.346 238.846 Q247.29 243.429 241.48 243.429 Q235.67 243.429 232.591 238.846 Q229.536 234.239 229.536 225.513 Q229.536 216.763 232.591 212.179 Q235.67 207.573 241.48 207.573 Z" fill="#000000" fill-rule="nonzero" fill-opacity="1" /><path clip-path="url(#clip560)" d="M254.609 187.268 L269.524 187.268 L269.524 190.465 L258.089 190.465 L258.089 197.349 Q258.916 197.066 259.744 196.935 Q260.571 196.784 261.399 196.784 Q266.101 196.784 268.847 199.361 Q271.593 201.938 271.593 206.339 Q271.593 210.871 268.772 213.392 Q265.95 215.893 260.816 215.893 Q259.048 215.893 257.205 215.592 Q255.38 215.291 253.424 214.689 L253.424 210.871 Q255.117 211.793 256.923 212.244 Q258.728 212.696 260.741 212.696 Q263.994 212.696 265.894 210.984 Q267.794 209.273 267.794 206.339 Q267.794 203.405 265.894 201.693 Q263.994 199.982 260.741 199.982 Q259.217 199.982 257.694 200.32 Q256.189 200.659 254.609 201.373 L254.609 187.268 Z" fill="#000000" fill-rule="nonzero" fill-opacity="1" /><path clip-path="url(#clip562)" d="M307.593 1428.58 L320.908 1428.58 L444.026 1428.57 L518.014 1428.57 L580.57 1428.57 L648.524 1428.56 L711.172 1428.55 L778.336 1428.54 L856.153 1428.49 L925.307 1428.42 L985.949 1428.31 L1052.07 1428.08 L1118.57 1427.65 L1192.11 1426.64 L1262.08 1424.44 L1298.45 1422.16 L1334.82 1418.17 L1350.13 1415.61 L1365.44 1412.21 L1380.75 1407.64 L1396.06 1401.36 L1405.41 1396.37 L1414.75 1390.2 L1424.1 1382.52 L1433.45 1372.89 L1442.79 1360.75 L1452.14 1345.32 L1456.81 1336.08 L1461.48 1325.62 L1466.16 1313.78 L1470.83 1300.36 L1475.11 1286.48 L1479.39 1270.91 L1483.67 1253.42 L1487.95 1233.79 L1492.23 1211.76 L1496.51 1187.06 L1500.79 1159.39 L1505.07 1128.47 L1507.21 1111.68 L1509.35 1093.97 L1511.49 1075.28 L1513.63 1055.58 L1515.77 1034.84 L1517.91 1013.02 L1520.06 990.094 L1522.2 966.031 L1524.34 940.808 L1526.48 914.41 L1528.62 886.826 L1530.76 858.054 L1532.9 828.101 L1535.04 796.984 L1537.18 764.734 L1539.32 731.395 L1543.27 667.162 L1547.22 599.974 L1551.18 530.62 L1555.13 460.171 L1559.09 390.015 L1563.04 321.877 L1565.02 289.196 L1566.99 257.817 L1568.97 228.047 L1570.95 200.209 L1572.92 174.639 L1574.9 151.682 L1576.88 131.688 L1578.85 115.011 L1579.84 108.025 L1580.83 101.997 L1581.82 96.968 L1582.81 92.9789 L1583.79 90.0682 L1584.78 88.2731 L1585.77 87.6286 L1586.76 88.1678 L1587.75 89.921 L1588.74 92.916 L1589.72 97.1776 L1590.71 102.727 L1591.7 109.583 L1592.69 117.759 L1593.68 127.266 L1594.67 138.108 L1595.66 150.289 L1596.64 163.804 L1597.63 178.646 L1598.62 194.801 L1599.61 212.252 L1600.6 230.974 L1601.59 250.938 L1602.57 272.111 L1603.57 294.75 L1604.58 318.542 L1605.58 343.434 L1606.58 369.368 L1608.58 424.106 L1610.58 482.192 L1612.59 542.994 L1614.59 605.817 L1616.59 669.925 L1618.59 734.555 L1620.6 798.938 L1622.6 862.318 L1624.6 923.973 L1626.6 983.237 L1627.6 1011.78 L1628.6 1039.51 L1629.61 1066.37 L1630.61 1092.3 L1631.61 1117.26 L1632.61 1141.2 L1633.61 1164.09 L1634.61 1185.9 L1635.61 1206.62 L1636.61 1226.24 L1637.62 1244.75 L1638.62 1262.14 L1639.62 1278.44 L1640.62 1293.66 L1641.62 1307.81 L1642.62 1320.92 L1643.62 1333.02 L1644.62 1344.14 L1645.62 1354.33 L1646.63 1363.63 L1648.63 1379.72 L1650.63 1392.78 L1652.63 1403.2 L1654.64 1411.37 L1656.64 1417.65 L1658.64 1422.39 L1660.64 1425.9 L1662.65 1428.44 L1664.65 1430.24 L1666.65 1431.48 L1675.63 1433.54 L1684.6 1433.77 L1693.58 1433.78 L1702.56 1433.78 L1720.51 1433.78 L1738.46 1433.78 L1771 1433.78 L1803.53 1433.78 L1878.04 1433.78 L1947.02 1433.78 L2015.03 1433.78 L2081.06 1433.78 L2148.76 1433.78 L2222.92 1433.78 L2330.65 1433.78 L2352.76 1433.78 L2352.76 1433.78 L2330.65 1433.78 L2222.92 1433.78 L2148.76 1433.78 L2081.06 1433.78 L2015.03 1433.78 L1947.02 1433.78 L1878.04 1433.78 L1803.53 1433.78 L1771 1433.78 L1738.46 1433.78 L1720.51 1433.78 L1702.56 1433.78 L1693.58 1433.78 L1684.6 1433.78 L1675.63 1433.78 L1666.65 1433.78 L1664.65 1433.78 L1662.65 1433.78 L1660.64 1433.78 L1658.64 1433.78 L1656.64 1433.78 L1654.64 1433.78 L1652.63 1433.78 L1650.63 1433.78 L1648.63 1433.78 L1646.63 1433.78 L1645.62 1433.78 L1644.62 1433.78 L1643.62 1433.78 L1642.62 1433.78 L1641.62 1433.78 L1640.62 1433.78 L1639.62 1433.78 L1638.62 1433.78 L1637.62 1433.78 L1636.61 1433.78 L1635.61 1433.78 L1634.61 1433.78 L1633.61 1433.78 L1632.61 1433.78 L1631.61 1433.78 L1630.61 1433.78 L1629.61 1433.78 L1628.6 1433.78 L1627.6 1433.78 L1626.6 1433.78 L1624.6 1433.78 L1622.6 1433.78 L1620.6 1433.78 L1618.59 1433.78 L1616.59 1433.78 L1614.59 1433.78 L1612.59 1433.78 L1610.58 1433.78 L1608.58 1433.78 L1606.58 1433.78 L1605.58 1433.78 L1604.58 1433.78 L1603.57 1433.78 L1602.57 1433.78 L1601.59 1433.78 L1600.6 1433.78 L1599.61 1433.78 L1598.62 1433.78 L1597.63 1433.78 L1596.64 1433.78 L1595.66 1433.78 L1594.67 1433.78 L1593.68 1433.78 L1592.69 1433.78 L1591.7 1433.78 L1590.71 1433.78 L1589.72 1433.78 L1588.74 1433.78 L1587.75 1433.78 L1586.76 1433.78 L1585.77 1433.78 L1584.78 1433.78 L1583.79 1433.78 L1582.81 1433.78 L1581.82 1433.78 L1580.83 1433.78 L1579.84 1433.78 L1578.85 1433.78 L1576.88 1433.78 L1574.9 1433.78 L1572.92 1433.78 L1570.95 1433.78 L1568.97 1433.78 L1566.99 1433.78 L1565.02 1433.78 L1563.04 1433.78 L1559.09 1433.78 L1555.13 1433.78 L1551.18 1433.78 L1547.22 1433.78 L1543.27 1433.78 L1539.32 1433.78 L1537.18 1433.78 L1535.04 1433.78 L1532.9 1433.78 L1530.76 1433.78 L1528.62 1433.78 L1526.48 1433.78 L1524.34 1433.78 L1522.2 1433.78 L1520.06 1433.78 L1517.91 1433.78 L1515.77 1433.78 L1513.63 1433.78 L1511.49 1433.78 L1509.35 1433.78 L1507.21 1433.78 L1505.07 1433.78 L1500.79 1433.78 L1496.51 1433.78 L1492.23 1433.78 L1487.95 1433.78 L1483.67 1433.78 L1479.39 1433.78 L1475.11 1433.78 L1470.83 1433.78 L1466.16 1433.78 L1461.48 1433.78 L1456.81 1433.78 L1452.14 1433.78 L1442.79 1433.78 L1433.45 1433.78 L1424.1 1433.78 L1414.75 1433.78 L1405.41 1433.78 L1396.06 1433.78 L1380.75 1433.78 L1365.44 1433.78 L1350.13 1433.78 L1334.82 1433.78 L1298.45 1433.78 L1262.08 1433.78 L1192.11 1433.78 L1118.57 1433.78 L1052.07 1433.78 L985.949 1433.78 L925.307 1433.78 L856.153 1433.78 L778.336 1433.78 L711.172 1433.78 L648.524 1433.78 L580.57 1433.78 L518.014 1433.78 L444.026 1433.78 L320.908 1433.78 L307.593 1433.78  Z" fill="#009af9" fill-rule="evenodd" fill-opacity="1"/>
<polyline clip-path="url(#clip562)" style="stroke:#009af9; stroke-linecap:round; stroke-linejoin:round; stroke-width:4; stroke-opacity:1; fill:none" points="307.593,1428.58 320.908,1428.58 444.026,1428.57 518.014,1428.57 580.57,1428.57 648.524,1428.56 711.172,1428.55 778.336,1428.54 856.153,1428.49 925.307,1428.42 985.949,1428.31 1052.07,1428.08 1118.57,1427.65 1192.11,1426.64 1262.08,1424.44 1298.45,1422.16 1334.82,1418.17 1350.13,1415.61 1365.44,1412.21 1380.75,1407.64 1396.06,1401.36 1405.41,1396.37 1414.75,1390.2 1424.1,1382.52 1433.45,1372.89 1442.79,1360.75 1452.14,1345.32 1456.81,1336.08 1461.48,1325.62 1466.16,1313.78 1470.83,1300.36 1475.11,1286.48 1479.39,1270.91 1483.67,1253.42 1487.95,1233.79 1492.23,1211.76 1496.51,1187.06 1500.79,1159.39 1505.07,1128.47 1507.21,1111.68 1509.35,1093.97 1511.49,1075.28 1513.63,1055.58 1515.77,1034.84 1517.91,1013.02 1520.06,990.094 1522.2,966.031 1524.34,940.808 1526.48,914.41 1528.62,886.826 1530.76,858.054 1532.9,828.101 1535.04,796.984 1537.18,764.734 1539.32,731.395 1543.27,667.162 1547.22,599.974 1551.18,530.62 1555.13,460.171 1559.09,390.015 1563.04,321.877 1565.02,289.196 1566.99,257.817 1568.97,228.047 1570.95,200.209 1572.92,174.639 1574.9,151.682 1576.88,131.688 1578.85,115.011 1579.84,108.025 1580.83,101.997 1581.82,96.968 1582.81,92.9789 1583.79,90.0682 1584.78,88.2731 1585.77,87.6286 1586.76,88.1678 1587.75,89.921 1588.74,92.916 1589.72,97.1776 1590.71,102.727 1591.7,109.583 1592.69,117.759 1593.68,127.266 1594.67,138.108 1595.66,150.289 1596.64,163.804 1597.63,178.646 1598.62,194.801 1599.61,212.252 1600.6,230.974 1601.59,250.938 1602.57,272.111 1603.57,294.75 1604.58,318.542 1605.58,343.434 1606.58,369.368 1608.58,424.106 1610.58,482.192 1612.59,542.994 1614.59,605.817 1616.59,669.925 1618.59,734.555 1620.6,798.938 1622.6,862.318 1624.6,923.973 1626.6,983.237 1627.6,1011.78 1628.6,1039.51 1629.61,1066.37 1630.61,1092.3 1631.61,1117.26 1632.61,1141.2 1633.61,1164.09 1634.61,1185.9 1635.61,1206.62 1636.61,1226.24 1637.62,1244.75 1638.62,1262.14 1639.62,1278.44 1640.62,1293.66 1641.62,1307.81 1642.62,1320.92 1643.62,1333.02 1644.62,1344.14 1645.62,1354.33 1646.63,1363.63 1648.63,1379.72 1650.63,1392.78 1652.63,1403.2 1654.64,1411.37 1656.64,1417.65 1658.64,1422.39 1660.64,1425.9 1662.65,1428.44 1664.65,1430.24 1666.65,1431.48 1675.63,1433.54 1684.6,1433.77 1693.58,1433.78 1702.56,1433.78 1720.51,1433.78 1738.46,1433.78 1771,1433.78 1803.53,1433.78 1878.04,1433.78 1947.02,1433.78 2015.03,1433.78 2081.06,1433.78 2148.76,1433.78 2222.92,1433.78 2330.65,1433.78 2352.76,1433.78 "/>
<path clip-path="url(#clip560)" d="M1910.28 198.488 L2284.58 198.488 L2284.58 94.8081 L1910.28 94.8081  Z" fill="#ffffff" fill-rule="evenodd" fill-opacity="1"/>
<polyline clip-path="url(#clip560)" style="stroke:#000000; stroke-linecap:round; stroke-linejoin:round; stroke-width:4; stroke-opacity:1; fill:none" points="1910.28,198.488 2284.58,198.488 2284.58,94.8081 1910.28,94.8081 1910.28,198.488 "/>
<path clip-path="url(#clip560)" d="M1933 167.384 L2069.34 167.384 L2069.34 125.912 L1933 125.912 L1933 167.384  Z" fill="#009af9" fill-rule="evenodd" fill-opacity="1"/>
<polyline clip-path="url(#clip560)" style="stroke:#009af9; stroke-linecap:round; stroke-linejoin:round; stroke-width:4; stroke-opacity:1; fill:none" points="1933,125.912 2069.34,125.912 "/>
<path clip-path="url(#clip560)" d="M2110.98 141.937 L2110.98 127.91 L2115.24 127.91 L2115.24 163.928 L2110.98 163.928 L2110.98 160.039 Q2109.64 162.354 2107.58 163.488 Q2105.54 164.599 2102.67 164.599 Q2097.97 164.599 2095.01 160.849 Q2092.07 157.099 2092.07 150.988 Q2092.07 144.877 2095.01 141.127 Q2097.97 137.377 2102.67 137.377 Q2105.54 137.377 2107.58 138.512 Q2109.64 139.623 2110.98 141.937 M2096.47 150.988 Q2096.47 155.687 2098.39 158.373 Q2100.33 161.035 2103.71 161.035 Q2107.09 161.035 2109.04 158.373 Q2110.98 155.687 2110.98 150.988 Q2110.98 146.289 2109.04 143.627 Q2107.09 140.942 2103.71 140.942 Q2100.33 140.942 2098.39 143.627 Q2096.47 146.289 2096.47 150.988 Z" fill="#000000" fill-rule="nonzero" fill-opacity="1" /><path clip-path="url(#clip560)" d="M2146.19 149.9 L2146.19 151.984 L2126.61 151.984 Q2126.88 156.382 2129.24 158.697 Q2131.63 160.988 2135.87 160.988 Q2138.32 160.988 2140.61 160.386 Q2142.93 159.785 2145.19 158.581 L2145.19 162.609 Q2142.9 163.581 2140.49 164.09 Q2138.09 164.599 2135.61 164.599 Q2129.41 164.599 2125.77 160.988 Q2122.16 157.377 2122.16 151.22 Q2122.16 144.854 2125.59 141.127 Q2129.04 137.377 2134.87 137.377 Q2140.1 137.377 2143.13 140.757 Q2146.19 144.113 2146.19 149.9 M2141.93 148.65 Q2141.88 145.155 2139.96 143.072 Q2138.06 140.988 2134.92 140.988 Q2131.35 140.988 2129.2 143.002 Q2127.07 145.016 2126.74 148.674 L2141.93 148.65 Z" fill="#000000" fill-rule="nonzero" fill-opacity="1" /><path clip-path="url(#clip560)" d="M2174.73 148.28 L2174.73 163.928 L2170.47 163.928 L2170.47 148.419 Q2170.47 144.738 2169.04 142.91 Q2167.6 141.081 2164.73 141.081 Q2161.28 141.081 2159.29 143.28 Q2157.3 145.479 2157.3 149.275 L2157.3 163.928 L2153.02 163.928 L2153.02 138.002 L2157.3 138.002 L2157.3 142.03 Q2158.83 139.692 2160.89 138.535 Q2162.97 137.377 2165.68 137.377 Q2170.15 137.377 2172.44 140.155 Q2174.73 142.91 2174.73 148.28 Z" fill="#000000" fill-rule="nonzero" fill-opacity="1" /><path clip-path="url(#clip560)" d="M2199.75 138.766 L2199.75 142.794 Q2197.95 141.868 2196 141.405 Q2194.06 140.942 2191.98 140.942 Q2188.8 140.942 2187.21 141.914 Q2185.63 142.887 2185.63 144.831 Q2185.63 146.312 2186.77 147.169 Q2187.9 148.002 2191.33 148.766 L2192.79 149.09 Q2197.32 150.062 2199.22 151.845 Q2201.14 153.604 2201.14 156.775 Q2201.14 160.386 2198.27 162.493 Q2195.42 164.599 2190.42 164.599 Q2188.34 164.599 2186.07 164.183 Q2183.83 163.789 2181.33 162.979 L2181.33 158.581 Q2183.69 159.808 2185.98 160.433 Q2188.27 161.035 2190.52 161.035 Q2193.53 161.035 2195.15 160.016 Q2196.77 158.974 2196.77 157.099 Q2196.77 155.363 2195.59 154.437 Q2194.43 153.512 2190.47 152.655 L2188.99 152.308 Q2185.03 151.474 2183.27 149.762 Q2181.51 148.025 2181.51 145.016 Q2181.51 141.359 2184.11 139.368 Q2186.7 137.377 2191.47 137.377 Q2193.83 137.377 2195.91 137.725 Q2197.99 138.072 2199.75 138.766 Z" fill="#000000" fill-rule="nonzero" fill-opacity="1" /><path clip-path="url(#clip560)" d="M2207.92 138.002 L2212.18 138.002 L2212.18 163.928 L2207.92 163.928 L2207.92 138.002 M2207.92 127.91 L2212.18 127.91 L2212.18 133.303 L2207.92 133.303 L2207.92 127.91 Z" fill="#000000" fill-rule="nonzero" fill-opacity="1" /><path clip-path="url(#clip560)" d="M2225.31 130.641 L2225.31 138.002 L2234.08 138.002 L2234.08 141.312 L2225.31 141.312 L2225.31 155.386 Q2225.31 158.558 2226.17 159.461 Q2227.05 160.363 2229.71 160.363 L2234.08 160.363 L2234.08 163.928 L2229.71 163.928 Q2224.78 163.928 2222.9 162.099 Q2221.03 160.248 2221.03 155.386 L2221.03 141.312 L2217.9 141.312 L2217.9 138.002 L2221.03 138.002 L2221.03 130.641 L2225.31 130.641 Z" fill="#000000" fill-rule="nonzero" fill-opacity="1" /><path clip-path="url(#clip560)" d="M2250.47 166.336 Q2248.67 170.965 2246.95 172.377 Q2245.24 173.789 2242.37 173.789 L2238.97 173.789 L2238.97 170.224 L2241.47 170.224 Q2243.23 170.224 2244.2 169.391 Q2245.17 168.558 2246.35 165.456 L2247.11 163.511 L2236.63 138.002 L2241.14 138.002 L2249.24 158.28 L2257.35 138.002 L2261.86 138.002 L2250.47 166.336 Z" fill="#000000" fill-rule="nonzero" fill-opacity="1" /></svg>
