<?xml version="1.0" encoding="utf-8"?>
<svg xmlns="http://www.w3.org/2000/svg" xmlns:xlink="http://www.w3.org/1999/xlink" width="600" height="400" viewBox="0 0 2400 1600">
<defs>
  <clipPath id="clip800">
    <rect x="0" y="0" width="2400" height="1600"/>
  </clipPath>
</defs>
<path clip-path="url(#clip800)" d="M0 1600 L2400 1600 L2400 0 L0 0  Z" fill="#ffffff" fill-rule="evenodd" fill-opacity="1"/>
<defs>
  <clipPath id="clip801">
    <rect x="480" y="0" width="1681" height="1600"/>
  </clipPath>
</defs>
<path clip-path="url(#clip800)" d="M110.881 1474.16 L2352.76 1474.16 L2352.76 47.2441 L110.881 47.2441  Z" fill="#ffffff" fill-rule="evenodd" fill-opacity="1"/>
<defs>
  <clipPath id="clip802">
    <rect x="110" y="47" width="2243" height="1428"/>
  </clipPath>
</defs>
<polyline clip-path="url(#clip802)" style="stroke:#000000; stroke-linecap:round; stroke-linejoin:round; stroke-width:2; stroke-opacity:0.1; fill:none" points="174.33,1474.16 174.33,47.2441 "/>
<polyline clip-path="url(#clip802)" style="stroke:#000000; stroke-linecap:round; stroke-linejoin:round; stroke-width:2; stroke-opacity:0.1; fill:none" points="1496.19,1474.16 1496.19,47.2441 "/>
<polyline clip-path="url(#clip800)" style="stroke:#000000; stroke-linecap:round; stroke-linejoin:round; stroke-width:4; stroke-opacity:1; fill:none" points="110.881,1474.16 2352.76,1474.16 "/>
<polyline clip-path="url(#clip800)" style="stroke:#000000; stroke-linecap:round; stroke-linejoin:round; stroke-width:4; stroke-opacity:1; fill:none" points="174.33,1474.16 174.33,1455.27 "/>
<polyline clip-path="url(#clip800)" style="stroke:#000000; stroke-linecap:round; stroke-linejoin:round; stroke-width:4; stroke-opacity:1; fill:none" points="1496.19,1474.16 1496.19,1455.27 "/>
<path clip-path="url(#clip800)" d="M111.694 1548.29 L119.333 1548.29 L119.333 1521.92 L111.023 1523.59 L111.023 1519.33 L119.286 1517.66 L123.962 1517.66 L123.962 1548.29 L131.601 1548.29 L131.601 1552.22 L111.694 1552.22 L111.694 1548.29 Z" fill="#000000" fill-rule="nonzero" fill-opacity="1" /><path clip-path="url(#clip800)" d="M151.045 1520.74 Q147.434 1520.74 145.606 1524.31 Q143.8 1527.85 143.8 1534.98 Q143.8 1542.09 145.606 1545.65 Q147.434 1549.19 151.045 1549.19 Q154.68 1549.19 156.485 1545.65 Q158.314 1542.09 158.314 1534.98 Q158.314 1527.85 156.485 1524.31 Q154.68 1520.74 151.045 1520.74 M151.045 1517.04 Q156.856 1517.04 159.911 1521.65 Q162.99 1526.23 162.99 1534.98 Q162.99 1543.71 159.911 1548.31 Q156.856 1552.9 151.045 1552.9 Q145.235 1552.9 142.157 1548.31 Q139.101 1543.71 139.101 1534.98 Q139.101 1526.23 142.157 1521.65 Q145.235 1517.04 151.045 1517.04 Z" fill="#000000" fill-rule="nonzero" fill-opacity="1" /><path clip-path="url(#clip800)" d="M162.99 1511.14 L187.101 1511.14 L187.101 1514.34 L162.99 1514.34 L162.99 1511.14 Z" fill="#000000" fill-rule="nonzero" fill-opacity="1" /><path clip-path="url(#clip800)" d="M195.96 1521.62 L202.166 1521.62 L202.166 1500.19 L195.414 1501.55 L195.414 1498.09 L202.129 1496.73 L205.928 1496.73 L205.928 1521.62 L212.135 1521.62 L212.135 1524.81 L195.96 1524.81 L195.96 1521.62 Z" fill="#000000" fill-rule="nonzero" fill-opacity="1" /><path clip-path="url(#clip800)" d="M227.933 1499.24 Q224.999 1499.24 223.513 1502.13 Q222.046 1505.01 222.046 1510.8 Q222.046 1516.58 223.513 1519.47 Q224.999 1522.35 227.933 1522.35 Q230.886 1522.35 232.353 1519.47 Q233.839 1516.58 233.839 1510.8 Q233.839 1505.01 232.353 1502.13 Q230.886 1499.24 227.933 1499.24 M227.933 1496.23 Q232.654 1496.23 235.136 1499.97 Q237.638 1503.69 237.638 1510.8 Q237.638 1517.89 235.136 1521.64 Q232.654 1525.36 227.933 1525.36 Q223.212 1525.36 220.711 1521.64 Q218.228 1517.89 218.228 1510.8 Q218.228 1503.69 220.711 1499.97 Q223.212 1496.23 227.933 1496.23 Z" fill="#000000" fill-rule="nonzero" fill-opacity="1" /><path clip-path="url(#clip800)" d="M1446.21 1548.29 L1453.85 1548.29 L1453.85 1521.92 L1445.54 1523.59 L1445.54 1519.33 L1453.8 1517.66 L1458.48 1517.66 L1458.48 1548.29 L1466.12 1548.29 L1466.12 1552.22 L1446.21 1552.22 L1446.21 1548.29 Z" fill="#000000" fill-rule="nonzero" fill-opacity="1" /><path clip-path="url(#clip800)" d="M1485.56 1520.74 Q1481.95 1520.74 1480.12 1524.31 Q1478.32 1527.85 1478.32 1534.98 Q1478.32 1542.09 1480.12 1545.65 Q1481.95 1549.19 1485.56 1549.19 Q1489.2 1549.19 1491 1545.65 Q1492.83 1542.09 1492.83 1534.98 Q1492.83 1527.85 1491 1524.31 Q1489.2 1520.74 1485.56 1520.74 M1485.56 1517.04 Q1491.37 1517.04 1494.43 1521.65 Q1497.51 1526.23 1497.51 1534.98 Q1497.51 1543.71 1494.43 1548.31 Q1491.37 1552.9 1485.56 1552.9 Q1479.75 1552.9 1476.67 1548.31 Q1473.62 1543.71 1473.62 1534.98 Q1473.62 1526.23 1476.67 1521.65 Q1479.75 1517.04 1485.56 1517.04 Z" fill="#000000" fill-rule="nonzero" fill-opacity="1" /><path clip-path="url(#clip800)" d="M1497.51 1511.14 L1521.62 1511.14 L1521.62 1514.34 L1497.51 1514.34 L1497.51 1511.14 Z" fill="#000000" fill-rule="nonzero" fill-opacity="1" /><path clip-path="url(#clip800)" d="M1529.86 1496.73 L1544.77 1496.73 L1544.77 1499.93 L1533.34 1499.93 L1533.34 1506.82 Q1534.16 1506.53 1534.99 1506.4 Q1535.82 1506.25 1536.65 1506.25 Q1541.35 1506.25 1544.09 1508.83 Q1546.84 1511.4 1546.84 1515.81 Q1546.84 1520.34 1544.02 1522.86 Q1541.2 1525.36 1536.06 1525.36 Q1534.3 1525.36 1532.45 1525.06 Q1530.63 1524.76 1528.67 1524.16 L1528.67 1520.34 Q1530.36 1521.26 1532.17 1521.71 Q1533.98 1522.16 1535.99 1522.16 Q1539.24 1522.16 1541.14 1520.45 Q1543.04 1518.74 1543.04 1515.81 Q1543.04 1512.87 1541.14 1511.16 Q1539.24 1509.45 1535.99 1509.45 Q1534.46 1509.45 1532.94 1509.79 Q1531.44 1510.13 1529.86 1510.84 L1529.86 1496.73 Z" fill="#000000" fill-rule="nonzero" fill-opacity="1" /><polyline clip-path="url(#clip802)" style="stroke:#000000; stroke-linecap:round; stroke-linejoin:round; stroke-width:2; stroke-opacity:0.1; fill:none" points="110.881,1433.78 2352.76,1433.78 "/>
<polyline clip-path="url(#clip802)" style="stroke:#000000; stroke-linecap:round; stroke-linejoin:round; stroke-width:2; stroke-opacity:0.1; fill:none" points="110.881,973.553 2352.76,973.553 "/>
<polyline clip-path="url(#clip802)" style="stroke:#000000; stroke-linecap:round; stroke-linejoin:round; stroke-width:2; stroke-opacity:0.1; fill:none" points="110.881,513.326 2352.76,513.326 "/>
<polyline clip-path="url(#clip802)" style="stroke:#000000; stroke-linecap:round; stroke-linejoin:round; stroke-width:2; stroke-opacity:0.1; fill:none" points="110.881,53.0982 2352.76,53.0982 "/>
<polyline clip-path="url(#clip800)" style="stroke:#000000; stroke-linecap:round; stroke-linejoin:round; stroke-width:4; stroke-opacity:1; fill:none" points="110.881,1474.16 110.881,47.2441 "/>
<polyline clip-path="url(#clip800)" style="stroke:#000000; stroke-linecap:round; stroke-linejoin:round; stroke-width:4; stroke-opacity:1; fill:none" points="110.881,1433.78 129.779,1433.78 "/>
<polyline clip-path="url(#clip800)" style="stroke:#000000; stroke-linecap:round; stroke-linejoin:round; stroke-width:4; stroke-opacity:1; fill:none" points="110.881,973.553 129.779,973.553 "/>
<polyline clip-path="url(#clip800)" style="stroke:#000000; stroke-linecap:round; stroke-linejoin:round; stroke-width:4; stroke-opacity:1; fill:none" points="110.881,513.326 129.779,513.326 "/>
<polyline clip-path="url(#clip800)" style="stroke:#000000; stroke-linecap:round; stroke-linejoin:round; stroke-width:4; stroke-opacity:1; fill:none" points="110.881,53.0982 129.779,53.0982 "/>
<path clip-path="url(#clip800)" d="M62.9365 1419.58 Q59.3254 1419.58 57.4967 1423.14 Q55.6912 1426.69 55.6912 1433.81 Q55.6912 1440.92 57.4967 1444.49 Q59.3254 1448.03 62.9365 1448.03 Q66.5707 1448.03 68.3763 1444.49 Q70.205 1440.92 70.205 1433.81 Q70.205 1426.69 68.3763 1423.14 Q66.5707 1419.58 62.9365 1419.58 M62.9365 1415.88 Q68.7467 1415.88 71.8022 1420.48 Q74.8809 1425.06 74.8809 1433.81 Q74.8809 1442.54 71.8022 1447.15 Q68.7467 1451.73 62.9365 1451.73 Q57.1264 1451.73 54.0477 1447.15 Q50.9921 1442.54 50.9921 1433.81 Q50.9921 1425.06 54.0477 1420.48 Q57.1264 1415.88 62.9365 1415.88 Z" fill="#000000" fill-rule="nonzero" fill-opacity="1" /><path clip-path="url(#clip800)" d="M54.9736 986.898 L62.6124 986.898 L62.6124 960.532 L54.3023 962.199 L54.3023 957.939 L62.5661 956.273 L67.242 956.273 L67.242 986.898 L74.8809 986.898 L74.8809 990.833 L54.9736 990.833 L54.9736 986.898 Z" fill="#000000" fill-rule="nonzero" fill-opacity="1" /><path clip-path="url(#clip800)" d="M58.5615 526.67 L74.8809 526.67 L74.8809 530.606 L52.9366 530.606 L52.9366 526.67 Q55.5986 523.916 60.1819 519.286 Q64.7883 514.633 65.9689 513.291 Q68.2143 510.768 69.0939 509.032 Q69.9967 507.272 69.9967 505.583 Q69.9967 502.828 68.0522 501.092 Q66.1309 499.356 63.0291 499.356 Q60.83 499.356 58.3763 500.12 Q55.9458 500.883 53.168 502.434 L53.168 497.712 Q55.9921 496.578 58.4458 495.999 Q60.8995 495.421 62.9365 495.421 Q68.3068 495.421 71.5013 498.106 Q74.6957 500.791 74.6957 505.282 Q74.6957 507.411 73.8855 509.332 Q73.0985 511.231 70.992 513.823 Q70.4133 514.494 67.3115 517.712 Q64.2096 520.906 58.5615 526.67 Z" fill="#000000" fill-rule="nonzero" fill-opacity="1" /><path clip-path="url(#clip800)" d="M67.7513 51.7441 Q71.1078 52.4616 72.9827 54.7301 Q74.8809 56.9987 74.8809 60.332 Q74.8809 65.4477 71.3624 68.2486 Q67.8439 71.0495 61.3624 71.0495 Q59.1865 71.0495 56.8717 70.6097 Q54.5801 70.193 52.1264 69.3366 L52.1264 64.8227 Q54.0708 65.9569 56.3856 66.5356 Q58.7004 67.1143 61.2236 67.1143 Q65.6217 67.1143 67.9133 65.3782 Q70.2281 63.6421 70.2281 60.332 Q70.2281 57.2764 68.0754 55.5635 Q65.9457 53.8274 62.1263 53.8274 L58.0986 53.8274 L58.0986 49.9848 L62.3115 49.9848 Q65.7606 49.9848 67.5893 48.6191 Q69.418 47.2302 69.418 44.6376 Q69.418 41.9756 67.5198 40.5636 Q65.6448 39.1284 62.1263 39.1284 Q60.205 39.1284 58.006 39.545 Q55.8069 39.9617 53.168 40.8413 L53.168 36.6747 Q55.8301 35.934 58.1449 35.5636 Q60.4828 35.1932 62.543 35.1932 Q67.867 35.1932 70.9689 37.6238 Q74.0707 40.0312 74.0707 44.1515 Q74.0707 47.0219 72.4272 49.0126 Q70.7837 50.9802 67.7513 51.7441 Z" fill="#000000" fill-rule="nonzero" fill-opacity="1" /><path clip-path="url(#clip802)" d="M174.33 1433.78 L217.493 1433.78 L217.493 1433.78 L260.656 1433.78 L260.656 1433.78 L303.819 1433.78 L303.819 1433.78 L346.981 1433.78 L346.981 1433.78 L390.144 1433.78 L390.144 1433.78 L433.307 1433.78 L433.307 1433.78 L476.47 1433.78 L476.47 1433.78 L519.632 1433.78 L519.632 1433.78 L562.795 1433.78 L562.795 1433.78 L605.958 1433.78 L605.958 1433.78 L649.121 1433.78 L649.121 1433.78 L692.284 1433.78 L692.284 1433.78 L735.446 1433.78 L735.446 1433.78 L778.609 1433.78 L778.609 1433.78 L821.772 1433.78 L821.772 1433.78 L864.935 1433.78 L864.935 1433.78 L908.098 1433.78 L908.098 1433.77 L951.26 1433.77 L951.26 1433.77 L994.423 1433.77 L994.423 1433.76 L1037.59 1433.76 L1037.59 1433.75 L1080.75 1433.75 L1080.75 1433.74 L1123.91 1433.74 L1123.91 1433.71 L1167.07 1433.71 L1167.07 1433.65 L1210.24 1433.65 L1210.24 1433.52 L1253.4 1433.52 L1253.4 1433.18 L1296.56 1433.18 L1296.56 1432.17 L1339.73 1432.17 L1339.73 1428.53 L1382.89 1428.53 L1382.89 1413.45 L1426.05 1413.45 L1426.05 1351.98 L1469.21 1351.98 L1469.21 1214 L1512.38 1214 L1512.38 1309.75 L1555.54 1309.75 L1555.54 1432.86 L1598.7 1432.86 L1598.7 1433.78 L1641.86 1433.78 L1641.86 1433.78 L1685.03 1433.78 L1685.03 1433.78 L1728.19 1433.78 L1728.19 1433.78 L1771.35 1433.78 L1771.35 1433.78 L1814.52 1433.78 L1814.52 1433.78 L1857.68 1433.78 L1857.68 1433.78 L1900.84 1433.78 L1900.84 1433.78 L1944 1433.78 L1944 1433.78 L1987.17 1433.78 L1987.17 1433.78 L2030.33 1433.78 L2030.33 1433.78 L2073.49 1433.78 L2073.49 1433.78 L2116.66 1433.78 L2116.66 1433.78 L2159.82 1433.78 L2159.82 1433.78 L2202.98 1433.78 L2202.98 1433.78 L2246.14 1433.78 L2246.14 1433.78 L2289.31 1433.78 L2289.31 1433.78 L2246.14 1433.78 L2246.14 1433.78 L2202.98 1433.78 L2202.98 1433.78 L2159.82 1433.78 L2159.82 1433.78 L2116.66 1433.78 L2116.66 1433.78 L2073.49 1433.78 L2073.49 1433.78 L2030.33 1433.78 L2030.33 1433.78 L1987.17 1433.78 L1987.17 1433.78 L1944 1433.78 L1944 1433.78 L1900.84 1433.78 L1900.84 1433.78 L1857.68 1433.78 L1857.68 1433.78 L1814.52 1433.78 L1814.52 1433.78 L1771.35 1433.78 L1771.35 1433.78 L1728.19 1433.78 L1728.19 1433.78 L1685.03 1433.78 L1685.03 1433.78 L1641.86 1433.78 L1641.86 1433.78 L1598.7 1433.78 L1598.7 1433.78 L1555.54 1433.78 L1555.54 1433.78 L1512.38 1433.78 L1512.38 1433.78 L1469.21 1433.78 L1469.21 1433.78 L1426.05 1433.78 L1426.05 1433.78 L1382.89 1433.78 L1382.89 1433.78 L1339.73 1433.78 L1339.73 1433.78 L1296.56 1433.78 L1296.56 1433.78 L1253.4 1433.78 L1253.4 1433.78 L1210.24 1433.78 L1210.24 1433.78 L1167.07 1433.78 L1167.07 1433.78 L1123.91 1433.78 L1123.91 1433.78 L1080.75 1433.78 L1080.75 1433.78 L1037.59 1433.78 L1037.59 1433.78 L994.423 1433.78 L994.423 1433.78 L951.26 1433.78 L951.26 1433.78 L908.098 1433.78 L908.098 1433.78 L864.935 1433.78 L864.935 1433.78 L821.772 1433.78 L821.772 1433.78 L778.609 1433.78 L778.609 1433.78 L735.446 1433.78 L735.446 1433.78 L692.284 1433.78 L692.284 1433.78 L649.121 1433.78 L649.121 1433.78 L605.958 1433.78 L605.958 1433.78 L562.795 1433.78 L562.795 1433.78 L519.632 1433.78 L519.632 1433.78 L476.47 1433.78 L476.47 1433.78 L433.307 1433.78 L433.307 1433.78 L390.144 1433.78 L390.144 1433.78 L346.981 1433.78 L346.981 1433.78 L303.819 1433.78 L303.819 1433.78 L260.656 1433.78 L260.656 1433.78 L217.493 1433.78 L217.493 1433.78 L174.33 1433.78  Z" fill="#009af9" fill-rule="evenodd" fill-opacity="1"/>
<polyline clip-path="url(#clip802)" style="stroke:#009af9; stroke-linecap:round; stroke-linejoin:round; stroke-width:4; stroke-opacity:1; fill:none" points="174.33,1433.78 217.493,1433.78 217.493,1433.78 260.656,1433.78 260.656,1433.78 303.819,1433.78 303.819,1433.78 346.981,1433.78 346.981,1433.78 390.144,1433.78 390.144,1433.78 433.307,1433.78 433.307,1433.78 476.47,1433.78 476.47,1433.78 519.632,1433.78 519.632,1433.78 562.795,1433.78 562.795,1433.78 605.958,1433.78 605.958,1433.78 649.121,1433.78 649.121,1433.78 692.284,1433.78 692.284,1433.78 735.446,1433.78 735.446,1433.78 778.609,1433.78 778.609,1433.78 821.772,1433.78 821.772,1433.78 864.935,1433.78 864.935,1433.78 908.098,1433.78 908.098,1433.77 951.26,1433.77 951.26,1433.77 994.423,1433.77 994.423,1433.76 1037.59,1433.76 1037.59,1433.75 1080.75,1433.75 1080.75,1433.74 1123.91,1433.74 1123.91,1433.71 1167.07,1433.71 1167.07,1433.65 1210.24,1433.65 1210.24,1433.52 1253.4,1433.52 1253.4,1433.18 1296.56,1433.18 1296.56,1432.17 1339.73,1432.17 1339.73,1428.53 1382.89,1428.53 1382.89,1413.45 1426.05,1413.45 1426.05,1351.98 1469.21,1351.98 1469.21,1214 1512.38,1214 1512.38,1309.75 1555.54,1309.75 1555.54,1432.86 1598.7,1432.86 1598.7,1433.78 1641.86,1433.78 1641.86,1433.78 1685.03,1433.78 1728.19,1433.78 1771.35,1433.78 1814.52,1433.78 1857.68,1433.78 1900.84,1433.78 1944,1433.78 1987.17,1433.78 2030.33,1433.78 2073.49,1433.78 2116.66,1433.78 2159.82,1433.78 2202.98,1433.78 2246.14,1433.78 2289.31,1433.78 "/>
<path clip-path="url(#clip802)" d="M174.33 1433.78 L217.493 1433.78 L217.493 1433.78 L260.656 1433.78 L260.656 1433.78 L303.819 1433.78 L303.819 1433.78 L346.981 1433.78 L346.981 1433.78 L390.144 1433.78 L390.144 1433.78 L433.307 1433.78 L433.307 1433.78 L476.47 1433.78 L476.47 1433.78 L519.632 1433.78 L519.632 1433.78 L562.795 1433.78 L562.795 1433.78 L605.958 1433.78 L605.958 1433.78 L649.121 1433.78 L649.121 1433.78 L692.284 1433.78 L692.284 1433.77 L735.446 1433.77 L735.446 1433.77 L778.609 1433.77 L778.609 1433.77 L821.772 1433.77 L821.772 1433.76 L864.935 1433.76 L864.935 1433.75 L908.098 1433.75 L908.098 1433.74 L951.26 1433.74 L951.26 1433.72 L994.423 1433.72 L994.423 1433.68 L1037.59 1433.68 L1037.59 1433.62 L1080.75 1433.62 L1080.75 1433.53 L1123.91 1433.53 L1123.91 1433.35 L1167.07 1433.35 L1167.07 1432.98 L1210.24 1432.98 L1210.24 1432.18 L1253.4 1432.18 L1253.4 1430.11 L1296.56 1430.11 L1296.56 1423.91 L1339.73 1423.91 L1339.73 1401.64 L1382.89 1401.64 L1382.89 1309.24 L1426.05 1309.24 L1426.05 932.724 L1469.21 932.724 L1469.21 87.6286 L1512.38 87.6286 L1512.38 674.11 L1555.54 674.11 L1555.54 1428.16 L1598.7 1428.16 L1598.7 1433.78 L1641.86 1433.78 L1641.86 1433.78 L1685.03 1433.78 L1685.03 1433.78 L1728.19 1433.78 L1728.19 1433.78 L1771.35 1433.78 L1771.35 1433.78 L1814.52 1433.78 L1814.52 1433.78 L1857.68 1433.78 L1857.68 1433.78 L1900.84 1433.78 L1900.84 1433.78 L1944 1433.78 L1944 1433.78 L1987.17 1433.78 L1987.17 1433.78 L2030.33 1433.78 L2030.33 1433.78 L2073.49 1433.78 L2073.49 1433.78 L2116.66 1433.78 L2116.66 1433.78 L2159.82 1433.78 L2159.82 1433.78 L2202.98 1433.78 L2202.98 1433.78 L2246.14 1433.78 L2246.14 1433.78 L2289.31 1433.78 L2289.31 1433.78 L2246.14 1433.78 L2246.14 1433.78 L2202.98 1433.78 L2202.98 1433.78 L2159.82 1433.78 L2159.82 1433.78 L2116.66 1433.78 L2116.66 1433.78 L2073.49 1433.78 L2073.49 1433.78 L2030.33 1433.78 L2030.33 1433.78 L1987.17 1433.78 L1987.17 1433.78 L1944 1433.78 L1944 1433.78 L1900.84 1433.78 L1900.84 1433.78 L1857.68 1433.78 L1857.68 1433.78 L1814.52 1433.78 L1814.52 1433.78 L1771.35 1433.78 L1771.35 1433.78 L1728.19 1433.78 L1728.19 1433.78 L1685.03 1433.78 L1685.03 1433.78 L1641.86 1433.78 L1641.86 1433.78 L1598.7 1433.78 L1598.7 1433.78 L1555.54 1433.78 L1555.54 1433.78 L1512.38 1433.78 L1512.38 1433.78 L1469.21 1433.78 L1469.21 1433.78 L1426.05 1433.78 L1426.05 1433.78 L1382.89 1433.78 L1382.89 1433.78 L1339.73 1433.78 L1339.73 1433.78 L1296.56 1433.78 L1296.56 1433.78 L1253.4 1433.78 L1253.4 1433.78 L1210.24 1433.78 L1210.24 1433.78 L1167.07 1433.78 L1167.07 1433.78 L1123.91 1433.78 L1123.91 1433.78 L1080.75 1433.78 L1080.75 1433.78 L1037.59 1433.78 L1037.59 1433.78 L994.423 1433.78 L994.423 1433.78 L951.26 1433.78 L951.26 1433.78 L908.098 1433.78 L908.098 1433.78 L864.935 1433.78 L864.935 1433.78 L821.772 1433.78 L821.772 1433.78 L778.609 1433.78 L778.609 1433.78 L735.446 1433.78 L735.446 1433.78 L692.284 1433.78 L692.284 1433.78 L649.121 1433.78 L649.121 1433.78 L605.958 1433.78 L605.958 1433.78 L562.795 1433.78 L562.795 1433.78 L519.632 1433.78 L519.632 1433.78 L476.47 1433.78 L476.47 1433.78 L433.307 1433.78 L433.307 1433.78 L390.144 1433.78 L390.144 1433.78 L346.981 1433.78 L346.981 1433.78 L303.819 1433.78 L303.819 1433.78 L260.656 1433.78 L260.656 1433.78 L217.493 1433.78 L217.493 1433.78 L174.33 1433.78  Z" fill="#e26f46" fill-rule="evenodd" fill-opacity="0.5"/>
<polyline clip-path="url(#clip802)" style="stroke:#e26f46; stroke-linecap:round; stroke-linejoin:round; stroke-width:4; stroke-opacity:1; fill:none" points="174.33,1433.78 217.493,1433.78 217.493,1433.78 260.656,1433.78 260.656,1433.78 303.819,1433.78 303.819,1433.78 346.981,1433.78 346.981,1433.78 390.144,1433.78 390.144,1433.78 433.307,1433.78 433.307,1433.78 476.47,1433.78 476.47,1433.78 519.632,1433.78 519.632,1433.78 562.795,1433.78 562.795,1433.78 605.958,1433.78 605.958,1433.78 649.121,1433.78 649.121,1433.78 692.284,1433.78 692.284,1433.77 735.446,1433.77 735.446,1433.77 778.609,1433.77 778.609,1433.77 821.772,1433.77 821.772,1433.76 864.935,1433.76 864.935,1433.75 908.098,1433.75 908.098,1433.74 951.26,1433.74 951.26,1433.72 994.423,1433.72 994.423,1433.68 1037.59,1433.68 1037.59,1433.62 1080.75,1433.62 1080.75,1433.53 1123.91,1433.53 1123.91,1433.35 1167.07,1433.35 1167.07,1432.98 1210.24,1432.98 1210.24,1432.18 1253.4,1432.18 1253.4,1430.11 1296.56,1430.11 1296.56,1423.91 1339.73,1423.91 1339.73,1401.64 1382.89,1401.64 1382.89,1309.24 1426.05,1309.24 1426.05,932.724 1469.21,932.724 1469.21,87.6286 1512.38,87.6286 1512.38,674.11 1555.54,674.11 1555.54,1428.16 1598.7,1428.16 1598.7,1433.78 1641.86,1433.78 1641.86,1433.78 1685.03,1433.78 1728.19,1433.78 1771.35,1433.78 1814.52,1433.78 1857.68,1433.78 1900.84,1433.78 1944,1433.78 1987.17,1433.78 2030.33,1433.78 2073.49,1433.78 2116.66,1433.78 2159.82,1433.78 2202.98,1433.78 2246.14,1433.78 2289.31,1433.78 "/>
<path clip-path="url(#clip800)" d="M185.61 250.328 L805.976 250.328 L805.976 94.8081 L185.61 94.8081  Z" fill="#ffffff" fill-rule="evenodd" fill-opacity="1"/>
<polyline clip-path="url(#clip800)" style="stroke:#000000; stroke-linecap:round; stroke-linejoin:round; stroke-width:4; stroke-opacity:1; fill:none" points="185.61,250.328 805.976,250.328 805.976,94.8081 185.61,94.8081 185.61,250.328 "/>
<path clip-path="url(#clip800)" d="M210.52 167.384 L359.978 167.384 L359.978 125.912 L210.52 125.912 L210.52 167.384  Z" fill="#009af9" fill-rule="evenodd" fill-opacity="1"/>
<polyline clip-path="url(#clip800)" style="stroke:#009af9; stroke-linecap:round; stroke-linejoin:round; stroke-width:4; stroke-opacity:1; fill:none" points="210.52,125.912 359.978,125.912 "/>
<path clip-path="url(#clip800)" d="M384.888 158.049 L389.772 158.049 L389.772 163.928 L384.888 163.928 L384.888 158.049 M384.888 139.414 L389.772 139.414 L389.772 145.294 L384.888 145.294 L384.888 139.414 Z" fill="#000000" fill-rule="nonzero" fill-opacity="1" /><path clip-path="url(#clip800)" d="M421.323 148.28 L421.323 163.928 L417.064 163.928 L417.064 148.419 Q417.064 144.738 415.628 142.91 Q414.193 141.081 411.323 141.081 Q407.874 141.081 405.883 143.28 Q403.892 145.479 403.892 149.275 L403.892 163.928 L399.61 163.928 L399.61 138.002 L403.892 138.002 L403.892 142.03 Q405.42 139.692 407.48 138.535 Q409.564 137.377 412.272 137.377 Q416.74 137.377 419.031 140.155 Q421.323 142.91 421.323 148.28 Z" fill="#000000" fill-rule="nonzero" fill-opacity="1" /><path clip-path="url(#clip800)" d="M439.864 140.988 Q436.438 140.988 434.448 143.674 Q432.457 146.336 432.457 150.988 Q432.457 155.641 434.425 158.326 Q436.415 160.988 439.864 160.988 Q443.267 160.988 445.258 158.303 Q447.249 155.618 447.249 150.988 Q447.249 146.382 445.258 143.697 Q443.267 140.988 439.864 140.988 M439.864 137.377 Q445.42 137.377 448.591 140.988 Q451.762 144.6 451.762 150.988 Q451.762 157.354 448.591 160.988 Q445.42 164.599 439.864 164.599 Q434.286 164.599 431.114 160.988 Q427.966 157.354 427.966 150.988 Q427.966 144.6 431.114 140.988 Q434.286 137.377 439.864 137.377 Z" fill="#000000" fill-rule="nonzero" fill-opacity="1" /><path clip-path="url(#clip800)" d="M480.373 148.28 L480.373 163.928 L476.114 163.928 L476.114 148.419 Q476.114 144.738 474.679 142.91 Q473.244 141.081 470.373 141.081 Q466.924 141.081 464.934 143.28 Q462.943 145.479 462.943 149.275 L462.943 163.928 L458.661 163.928 L458.661 138.002 L462.943 138.002 L462.943 142.03 Q464.471 139.692 466.531 138.535 Q468.614 137.377 471.323 137.377 Q475.79 137.377 478.082 140.155 Q480.373 142.91 480.373 148.28 Z" fill="#000000" fill-rule="nonzero" fill-opacity="1" /><path clip-path="url(#clip800)" d="M511.045 149.9 L511.045 151.984 L491.461 151.984 Q491.739 156.382 494.1 158.697 Q496.484 160.988 500.721 160.988 Q503.174 160.988 505.466 160.386 Q507.781 159.785 510.049 158.581 L510.049 162.609 Q507.758 163.581 505.35 164.09 Q502.943 164.599 500.466 164.599 Q494.262 164.599 490.628 160.988 Q487.017 157.377 487.017 151.22 Q487.017 144.854 490.443 141.127 Q493.892 137.377 499.725 137.377 Q504.957 137.377 507.989 140.757 Q511.045 144.113 511.045 149.9 M506.785 148.65 Q506.739 145.155 504.818 143.072 Q502.92 140.988 499.771 140.988 Q496.207 140.988 494.054 143.002 Q491.924 145.016 491.6 148.674 L506.785 148.65 Z" fill="#000000" fill-rule="nonzero" fill-opacity="1" /><path clip-path="url(#clip800)" d="M533.66 142.4 L563.336 142.4 L563.336 146.289 L533.66 146.289 L533.66 142.4 M533.66 151.845 L563.336 151.845 L563.336 155.78 L533.66 155.78 L533.66 151.845 Z" fill="#000000" fill-rule="nonzero" fill-opacity="1" /><path clip-path="url(#clip800)" d="M604.956 150.664 Q604.956 146.035 603.035 143.488 Q601.137 140.942 597.688 140.942 Q594.262 140.942 592.34 143.488 Q590.442 146.035 590.442 150.664 Q590.442 155.271 592.34 157.817 Q594.262 160.363 597.688 160.363 Q601.137 160.363 603.035 157.817 Q604.956 155.271 604.956 150.664 M609.215 160.711 Q609.215 167.331 606.276 170.548 Q603.336 173.789 597.271 173.789 Q595.026 173.789 593.035 173.442 Q591.044 173.118 589.169 172.423 L589.169 168.28 Q591.044 169.298 592.873 169.785 Q594.702 170.271 596.6 170.271 Q600.789 170.271 602.873 168.072 Q604.956 165.896 604.956 161.474 L604.956 159.368 Q603.637 161.66 601.576 162.794 Q599.516 163.928 596.646 163.928 Q591.877 163.928 588.961 160.294 Q586.044 156.66 586.044 150.664 Q586.044 144.646 588.961 141.012 Q591.877 137.377 596.646 137.377 Q599.516 137.377 601.576 138.512 Q603.637 139.646 604.956 141.937 L604.956 138.002 L609.215 138.002 L609.215 160.711 Z" fill="#000000" fill-rule="nonzero" fill-opacity="1" /><path clip-path="url(#clip800)" d="M633.012 141.984 Q632.294 141.567 631.437 141.382 Q630.604 141.174 629.586 141.174 Q625.975 141.174 624.03 143.535 Q622.109 145.873 622.109 150.271 L622.109 163.928 L617.826 163.928 L617.826 138.002 L622.109 138.002 L622.109 142.03 Q623.451 139.669 625.604 138.535 Q627.757 137.377 630.836 137.377 Q631.275 137.377 631.808 137.447 Q632.34 137.493 632.988 137.609 L633.012 141.984 Z" fill="#000000" fill-rule="nonzero" fill-opacity="1" /><path clip-path="url(#clip800)" d="M637.479 138.002 L641.738 138.002 L641.738 163.928 L637.479 163.928 L637.479 138.002 M637.479 127.91 L641.738 127.91 L641.738 133.303 L637.479 133.303 L637.479 127.91 Z" fill="#000000" fill-rule="nonzero" fill-opacity="1" /><path clip-path="url(#clip800)" d="M667.71 141.937 L667.71 127.91 L671.97 127.91 L671.97 163.928 L667.71 163.928 L667.71 160.039 Q666.368 162.354 664.308 163.488 Q662.271 164.599 659.4 164.599 Q654.701 164.599 651.738 160.849 Q648.798 157.099 648.798 150.988 Q648.798 144.877 651.738 141.127 Q654.701 137.377 659.4 137.377 Q662.271 137.377 664.308 138.512 Q666.368 139.623 667.71 141.937 M653.197 150.988 Q653.197 155.687 655.118 158.373 Q657.062 161.035 660.442 161.035 Q663.822 161.035 665.766 158.373 Q667.71 155.687 667.71 150.988 Q667.71 146.289 665.766 143.627 Q663.822 140.942 660.442 140.942 Q657.062 140.942 655.118 143.627 Q653.197 146.289 653.197 150.988 Z" fill="#000000" fill-rule="nonzero" fill-opacity="1" /><path clip-path="url(#clip800)" d="M699.932 160.039 L699.932 173.789 L695.65 173.789 L695.65 138.002 L699.932 138.002 L699.932 141.937 Q701.275 139.623 703.312 138.512 Q705.372 137.377 708.219 137.377 Q712.942 137.377 715.881 141.127 Q718.844 144.877 718.844 150.988 Q718.844 157.099 715.881 160.849 Q712.942 164.599 708.219 164.599 Q705.372 164.599 703.312 163.488 Q701.275 162.354 699.932 160.039 M714.423 150.988 Q714.423 146.289 712.479 143.627 Q710.557 140.942 707.178 140.942 Q703.798 140.942 701.854 143.627 Q699.932 146.289 699.932 150.988 Q699.932 155.687 701.854 158.373 Q703.798 161.035 707.178 161.035 Q710.557 161.035 712.479 158.373 Q714.423 155.687 714.423 150.988 Z" fill="#000000" fill-rule="nonzero" fill-opacity="1" /><path clip-path="url(#clip800)" d="M725.905 127.91 L730.164 127.91 L730.164 163.928 L725.905 163.928 L725.905 127.91 Z" fill="#000000" fill-rule="nonzero" fill-opacity="1" /><path clip-path="url(#clip800)" d="M749.122 140.988 Q745.696 140.988 743.705 143.674 Q741.715 146.336 741.715 150.988 Q741.715 155.641 743.682 158.326 Q745.673 160.988 749.122 160.988 Q752.525 160.988 754.515 158.303 Q756.506 155.618 756.506 150.988 Q756.506 146.382 754.515 143.697 Q752.525 140.988 749.122 140.988 M749.122 137.377 Q754.678 137.377 757.849 140.988 Q761.02 144.6 761.02 150.988 Q761.02 157.354 757.849 160.988 Q754.678 164.599 749.122 164.599 Q743.543 164.599 740.372 160.988 Q737.224 157.354 737.224 150.988 Q737.224 144.6 740.372 140.988 Q743.543 137.377 749.122 137.377 Z" fill="#000000" fill-rule="nonzero" fill-opacity="1" /><path clip-path="url(#clip800)" d="M772.293 130.641 L772.293 138.002 L781.066 138.002 L781.066 141.312 L772.293 141.312 L772.293 155.386 Q772.293 158.558 773.15 159.461 Q774.029 160.363 776.691 160.363 L781.066 160.363 L781.066 163.928 L776.691 163.928 Q771.761 163.928 769.886 162.099 Q768.011 160.248 768.011 155.386 L768.011 141.312 L764.886 141.312 L764.886 138.002 L768.011 138.002 L768.011 130.641 L772.293 130.641 Z" fill="#000000" fill-rule="nonzero" fill-opacity="1" /><path clip-path="url(#clip800)" d="M210.52 219.224 L359.978 219.224 L359.978 177.752 L210.52 177.752 L210.52 219.224  Z" fill="#e26f46" fill-rule="evenodd" fill-opacity="0.5"/>
<polyline clip-path="url(#clip800)" style="stroke:#e26f46; stroke-linecap:round; stroke-linejoin:round; stroke-width:4; stroke-opacity:1; fill:none" points="210.52,177.752 359.978,177.752 "/>
<path clip-path="url(#clip800)" d="M384.888 209.889 L389.772 209.889 L389.772 215.768 L384.888 215.768 L384.888 209.889 M384.888 191.254 L389.772 191.254 L389.772 197.134 L384.888 197.134 L384.888 191.254 Z" fill="#000000" fill-rule="nonzero" fill-opacity="1" /><path clip-path="url(#clip800)" d="M399.772 179.75 L404.031 179.75 L404.031 215.768 L399.772 215.768 L399.772 179.75 Z" fill="#000000" fill-rule="nonzero" fill-opacity="1" /><path clip-path="url(#clip800)" d="M422.989 192.828 Q419.564 192.828 417.573 195.514 Q415.582 198.176 415.582 202.828 Q415.582 207.481 417.55 210.166 Q419.54 212.828 422.989 212.828 Q426.392 212.828 428.383 210.143 Q430.374 207.458 430.374 202.828 Q430.374 198.222 428.383 195.537 Q426.392 192.828 422.989 192.828 M422.989 189.217 Q428.545 189.217 431.716 192.828 Q434.888 196.44 434.888 202.828 Q434.888 209.194 431.716 212.828 Q428.545 216.439 422.989 216.439 Q417.411 216.439 414.24 212.828 Q411.091 209.194 411.091 202.828 Q411.091 196.44 414.24 192.828 Q417.411 189.217 422.989 189.217 Z" fill="#000000" fill-rule="nonzero" fill-opacity="1" /><path clip-path="url(#clip800)" d="M459.008 202.504 Q459.008 197.875 457.087 195.328 Q455.188 192.782 451.739 192.782 Q448.313 192.782 446.392 195.328 Q444.494 197.875 444.494 202.504 Q444.494 207.111 446.392 209.657 Q448.313 212.203 451.739 212.203 Q455.188 212.203 457.087 209.657 Q459.008 207.111 459.008 202.504 M463.267 212.551 Q463.267 219.171 460.327 222.388 Q457.387 225.629 451.323 225.629 Q449.077 225.629 447.087 225.282 Q445.096 224.958 443.221 224.263 L443.221 220.12 Q445.096 221.138 446.925 221.625 Q448.753 222.111 450.651 222.111 Q454.841 222.111 456.924 219.912 Q459.008 217.736 459.008 213.314 L459.008 211.208 Q457.688 213.5 455.628 214.634 Q453.568 215.768 450.698 215.768 Q445.929 215.768 443.013 212.134 Q440.096 208.5 440.096 202.504 Q440.096 196.486 443.013 192.852 Q445.929 189.217 450.698 189.217 Q453.568 189.217 455.628 190.352 Q457.688 191.486 459.008 193.777 L459.008 189.842 L463.267 189.842 L463.267 212.551 Z" fill="#000000" fill-rule="nonzero" fill-opacity="1" /></svg>
