<?xml version="1.0" encoding="utf-8"?>
<svg xmlns="http://www.w3.org/2000/svg" xmlns:xlink="http://www.w3.org/1999/xlink" width="600" height="400" viewBox="0 0 2400 1600">
<defs>
  <clipPath id="clip200">
    <rect x="0" y="0" width="2400" height="1600"/>
  </clipPath>
</defs>
<path clip-path="url(#clip200)" d="M0 1600 L2400 1600 L2400 0 L0 0  Z" fill="#ffffff" fill-rule="evenodd" fill-opacity="1"/>
<defs>
  <clipPath id="clip201">
    <rect x="480" y="0" width="1681" height="1600"/>
  </clipPath>
</defs>
<path clip-path="url(#clip200)" d="M156.598 1486.45 L2352.76 1486.45 L2352.76 47.2441 L156.598 47.2441  Z" fill="#ffffff" fill-rule="evenodd" fill-opacity="1"/>
<defs>
  <clipPath id="clip202">
    <rect x="156" y="47" width="2197" height="1440"/>
  </clipPath>
</defs>
<polyline clip-path="url(#clip202)" style="stroke:#000000; stroke-linecap:round; stroke-linejoin:round; stroke-width:2; stroke-opacity:0.1; fill:none" points="218.754,1486.45 218.754,47.2441 "/>
<polyline clip-path="url(#clip202)" style="stroke:#000000; stroke-linecap:round; stroke-linejoin:round; stroke-width:2; stroke-opacity:0.1; fill:none" points="736.715,1486.45 736.715,47.2441 "/>
<polyline clip-path="url(#clip202)" style="stroke:#000000; stroke-linecap:round; stroke-linejoin:round; stroke-width:2; stroke-opacity:0.1; fill:none" points="1254.68,1486.45 1254.68,47.2441 "/>
<polyline clip-path="url(#clip202)" style="stroke:#000000; stroke-linecap:round; stroke-linejoin:round; stroke-width:2; stroke-opacity:0.1; fill:none" points="1772.64,1486.45 1772.64,47.2441 "/>
<polyline clip-path="url(#clip202)" style="stroke:#000000; stroke-linecap:round; stroke-linejoin:round; stroke-width:2; stroke-opacity:0.1; fill:none" points="2290.6,1486.45 2290.6,47.2441 "/>
<polyline clip-path="url(#clip200)" style="stroke:#000000; stroke-linecap:round; stroke-linejoin:round; stroke-width:4; stroke-opacity:1; fill:none" points="156.598,1486.45 2352.76,1486.45 "/>
<polyline clip-path="url(#clip200)" style="stroke:#000000; stroke-linecap:round; stroke-linejoin:round; stroke-width:4; stroke-opacity:1; fill:none" points="218.754,1486.45 218.754,1467.55 "/>
<polyline clip-path="url(#clip200)" style="stroke:#000000; stroke-linecap:round; stroke-linejoin:round; stroke-width:4; stroke-opacity:1; fill:none" points="736.715,1486.45 736.715,1467.55 "/>
<polyline clip-path="url(#clip200)" style="stroke:#000000; stroke-linecap:round; stroke-linejoin:round; stroke-width:4; stroke-opacity:1; fill:none" points="1254.68,1486.45 1254.68,1467.55 "/>
<polyline clip-path="url(#clip200)" style="stroke:#000000; stroke-linecap:round; stroke-linejoin:round; stroke-width:4; stroke-opacity:1; fill:none" points="1772.64,1486.45 1772.64,1467.55 "/>
<polyline clip-path="url(#clip200)" style="stroke:#000000; stroke-linecap:round; stroke-linejoin:round; stroke-width:4; stroke-opacity:1; fill:none" points="2290.6,1486.45 2290.6,1467.55 "/>
<path clip-path="url(#clip200)" d="M181.057 1517.37 Q177.446 1517.37 175.617 1520.93 Q173.812 1524.47 173.812 1531.6 Q173.812 1538.71 175.617 1542.27 Q177.446 1545.82 181.057 1545.82 Q184.691 1545.82 186.497 1542.27 Q188.326 1538.71 188.326 1531.6 Q188.326 1524.47 186.497 1520.93 Q184.691 1517.37 181.057 1517.37 M181.057 1513.66 Q186.867 1513.66 189.923 1518.27 Q193.001 1522.85 193.001 1531.6 Q193.001 1540.33 189.923 1544.94 Q186.867 1549.52 181.057 1549.52 Q175.247 1549.52 172.168 1544.94 Q169.113 1540.33 169.113 1531.6 Q169.113 1522.85 172.168 1518.27 Q175.247 1513.66 181.057 1513.66 Z" fill="#000000" fill-rule="nonzero" fill-opacity="1" /><path clip-path="url(#clip200)" d="M201.219 1542.97 L206.103 1542.97 L206.103 1548.85 L201.219 1548.85 L201.219 1542.97 Z" fill="#000000" fill-rule="nonzero" fill-opacity="1" /><path clip-path="url(#clip200)" d="M226.288 1517.37 Q222.677 1517.37 220.849 1520.93 Q219.043 1524.47 219.043 1531.6 Q219.043 1538.71 220.849 1542.27 Q222.677 1545.82 226.288 1545.82 Q229.923 1545.82 231.728 1542.27 Q233.557 1538.71 233.557 1531.6 Q233.557 1524.47 231.728 1520.93 Q229.923 1517.37 226.288 1517.37 M226.288 1513.66 Q232.098 1513.66 235.154 1518.27 Q238.233 1522.85 238.233 1531.6 Q238.233 1540.33 235.154 1544.94 Q232.098 1549.52 226.288 1549.52 Q220.478 1549.52 217.399 1544.94 Q214.344 1540.33 214.344 1531.6 Q214.344 1522.85 217.399 1518.27 Q220.478 1513.66 226.288 1513.66 Z" fill="#000000" fill-rule="nonzero" fill-opacity="1" /><path clip-path="url(#clip200)" d="M256.45 1517.37 Q252.839 1517.37 251.01 1520.93 Q249.205 1524.47 249.205 1531.6 Q249.205 1538.71 251.01 1542.27 Q252.839 1545.82 256.45 1545.82 Q260.084 1545.82 261.89 1542.27 Q263.719 1538.71 263.719 1531.6 Q263.719 1524.47 261.89 1520.93 Q260.084 1517.37 256.45 1517.37 M256.45 1513.66 Q262.26 1513.66 265.316 1518.27 Q268.395 1522.85 268.395 1531.6 Q268.395 1540.33 265.316 1544.94 Q262.26 1549.52 256.45 1549.52 Q250.64 1549.52 247.561 1544.94 Q244.506 1540.33 244.506 1531.6 Q244.506 1522.85 247.561 1518.27 Q250.64 1513.66 256.45 1513.66 Z" fill="#000000" fill-rule="nonzero" fill-opacity="1" /><path clip-path="url(#clip200)" d="M699.516 1517.37 Q695.905 1517.37 694.077 1520.93 Q692.271 1524.47 692.271 1531.6 Q692.271 1538.71 694.077 1542.27 Q695.905 1545.82 699.516 1545.82 Q703.151 1545.82 704.956 1542.27 Q706.785 1538.71 706.785 1531.6 Q706.785 1524.47 704.956 1520.93 Q703.151 1517.37 699.516 1517.37 M699.516 1513.66 Q705.327 1513.66 708.382 1518.27 Q711.461 1522.85 711.461 1531.6 Q711.461 1540.33 708.382 1544.94 Q705.327 1549.52 699.516 1549.52 Q693.706 1549.52 690.628 1544.94 Q687.572 1540.33 687.572 1531.6 Q687.572 1522.85 690.628 1518.27 Q693.706 1513.66 699.516 1513.66 Z" fill="#000000" fill-rule="nonzero" fill-opacity="1" /><path clip-path="url(#clip200)" d="M719.678 1542.97 L724.563 1542.97 L724.563 1548.85 L719.678 1548.85 L719.678 1542.97 Z" fill="#000000" fill-rule="nonzero" fill-opacity="1" /><path clip-path="url(#clip200)" d="M738.776 1544.91 L755.095 1544.91 L755.095 1548.85 L733.151 1548.85 L733.151 1544.91 Q735.813 1542.16 740.396 1537.53 Q745.002 1532.88 746.183 1531.53 Q748.428 1529.01 749.308 1527.27 Q750.211 1525.51 750.211 1523.82 Q750.211 1521.07 748.266 1519.33 Q746.345 1517.6 743.243 1517.6 Q741.044 1517.6 738.59 1518.36 Q736.16 1519.13 733.382 1520.68 L733.382 1515.95 Q736.206 1514.82 738.66 1514.24 Q741.113 1513.66 743.151 1513.66 Q748.521 1513.66 751.715 1516.35 Q754.91 1519.03 754.91 1523.52 Q754.91 1525.65 754.1 1527.57 Q753.312 1529.47 751.206 1532.07 Q750.627 1532.74 747.525 1535.95 Q744.424 1539.15 738.776 1544.91 Z" fill="#000000" fill-rule="nonzero" fill-opacity="1" /><path clip-path="url(#clip200)" d="M764.956 1514.29 L783.312 1514.29 L783.312 1518.22 L769.238 1518.22 L769.238 1526.7 Q770.257 1526.35 771.275 1526.19 Q772.294 1526 773.312 1526 Q779.099 1526 782.479 1529.17 Q785.859 1532.34 785.859 1537.76 Q785.859 1543.34 782.386 1546.44 Q778.914 1549.52 772.595 1549.52 Q770.419 1549.52 768.15 1549.15 Q765.905 1548.78 763.498 1548.04 L763.498 1543.34 Q765.581 1544.47 767.803 1545.03 Q770.025 1545.58 772.502 1545.58 Q776.507 1545.58 778.845 1543.48 Q781.183 1541.37 781.183 1537.76 Q781.183 1534.15 778.845 1532.04 Q776.507 1529.94 772.502 1529.94 Q770.627 1529.94 768.752 1530.35 Q766.9 1530.77 764.956 1531.65 L764.956 1514.29 Z" fill="#000000" fill-rule="nonzero" fill-opacity="1" /><path clip-path="url(#clip200)" d="M1216.98 1517.37 Q1213.37 1517.37 1211.54 1520.93 Q1209.74 1524.47 1209.74 1531.6 Q1209.74 1538.71 1211.54 1542.27 Q1213.37 1545.82 1216.98 1545.82 Q1220.61 1545.82 1222.42 1542.27 Q1224.25 1538.71 1224.25 1531.6 Q1224.25 1524.47 1222.42 1520.93 Q1220.61 1517.37 1216.98 1517.37 M1216.98 1513.66 Q1222.79 1513.66 1225.85 1518.27 Q1228.92 1522.85 1228.92 1531.6 Q1228.92 1540.33 1225.85 1544.94 Q1222.79 1549.52 1216.98 1549.52 Q1211.17 1549.52 1208.09 1544.94 Q1205.04 1540.33 1205.04 1531.6 Q1205.04 1522.85 1208.09 1518.27 Q1211.17 1513.66 1216.98 1513.66 Z" fill="#000000" fill-rule="nonzero" fill-opacity="1" /><path clip-path="url(#clip200)" d="M1237.14 1542.97 L1242.03 1542.97 L1242.03 1548.85 L1237.14 1548.85 L1237.14 1542.97 Z" fill="#000000" fill-rule="nonzero" fill-opacity="1" /><path clip-path="url(#clip200)" d="M1252.26 1514.29 L1270.61 1514.29 L1270.61 1518.22 L1256.54 1518.22 L1256.54 1526.7 Q1257.56 1526.35 1258.58 1526.19 Q1259.6 1526 1260.61 1526 Q1266.4 1526 1269.78 1529.17 Q1273.16 1532.34 1273.16 1537.76 Q1273.16 1543.34 1269.69 1546.44 Q1266.22 1549.52 1259.9 1549.52 Q1257.72 1549.52 1255.45 1549.15 Q1253.21 1548.78 1250.8 1548.04 L1250.8 1543.34 Q1252.88 1544.47 1255.11 1545.03 Q1257.33 1545.58 1259.8 1545.58 Q1263.81 1545.58 1266.15 1543.48 Q1268.48 1541.37 1268.48 1537.76 Q1268.48 1534.15 1266.15 1532.04 Q1263.81 1529.94 1259.8 1529.94 Q1257.93 1529.94 1256.05 1530.35 Q1254.2 1530.77 1252.26 1531.65 L1252.26 1514.29 Z" fill="#000000" fill-rule="nonzero" fill-opacity="1" /><path clip-path="url(#clip200)" d="M1292.37 1517.37 Q1288.76 1517.37 1286.93 1520.93 Q1285.13 1524.47 1285.13 1531.6 Q1285.13 1538.71 1286.93 1542.27 Q1288.76 1545.82 1292.37 1545.82 Q1296.01 1545.82 1297.81 1542.27 Q1299.64 1538.71 1299.64 1531.6 Q1299.64 1524.47 1297.81 1520.93 Q1296.01 1517.37 1292.37 1517.37 M1292.37 1513.66 Q1298.18 1513.66 1301.24 1518.27 Q1304.32 1522.85 1304.32 1531.6 Q1304.32 1540.33 1301.24 1544.94 Q1298.18 1549.52 1292.37 1549.52 Q1286.56 1549.52 1283.48 1544.94 Q1280.43 1540.33 1280.43 1531.6 Q1280.43 1522.85 1283.48 1518.27 Q1286.56 1513.66 1292.37 1513.66 Z" fill="#000000" fill-rule="nonzero" fill-opacity="1" /><path clip-path="url(#clip200)" d="M1735.44 1517.37 Q1731.83 1517.37 1730 1520.93 Q1728.19 1524.47 1728.19 1531.6 Q1728.19 1538.71 1730 1542.27 Q1731.83 1545.82 1735.44 1545.82 Q1739.07 1545.82 1740.88 1542.27 Q1742.71 1538.71 1742.71 1531.6 Q1742.71 1524.47 1740.88 1520.93 Q1739.07 1517.37 1735.44 1517.37 M1735.44 1513.66 Q1741.25 1513.66 1744.31 1518.27 Q1747.38 1522.85 1747.38 1531.6 Q1747.38 1540.33 1744.31 1544.94 Q1741.25 1549.52 1735.44 1549.52 Q1729.63 1549.52 1726.55 1544.94 Q1723.5 1540.33 1723.5 1531.6 Q1723.5 1522.85 1726.55 1518.27 Q1729.63 1513.66 1735.44 1513.66 Z" fill="#000000" fill-rule="nonzero" fill-opacity="1" /><path clip-path="url(#clip200)" d="M1755.6 1542.97 L1760.49 1542.97 L1760.49 1548.85 L1755.6 1548.85 L1755.6 1542.97 Z" fill="#000000" fill-rule="nonzero" fill-opacity="1" /><path clip-path="url(#clip200)" d="M1769.49 1514.29 L1791.71 1514.29 L1791.71 1516.28 L1779.17 1548.85 L1774.28 1548.85 L1786.09 1518.22 L1769.49 1518.22 L1769.49 1514.29 Z" fill="#000000" fill-rule="nonzero" fill-opacity="1" /><path clip-path="url(#clip200)" d="M1800.88 1514.29 L1819.24 1514.29 L1819.24 1518.22 L1805.16 1518.22 L1805.16 1526.7 Q1806.18 1526.35 1807.2 1526.19 Q1808.22 1526 1809.24 1526 Q1815.02 1526 1818.4 1529.17 Q1821.78 1532.34 1821.78 1537.76 Q1821.78 1543.34 1818.31 1546.44 Q1814.84 1549.52 1808.52 1549.52 Q1806.34 1549.52 1804.07 1549.15 Q1801.83 1548.78 1799.42 1548.04 L1799.42 1543.34 Q1801.5 1544.47 1803.73 1545.03 Q1805.95 1545.58 1808.43 1545.58 Q1812.43 1545.58 1814.77 1543.48 Q1817.11 1541.37 1817.11 1537.76 Q1817.11 1534.15 1814.77 1532.04 Q1812.43 1529.94 1808.43 1529.94 Q1806.55 1529.94 1804.68 1530.35 Q1802.82 1530.77 1800.88 1531.65 L1800.88 1514.29 Z" fill="#000000" fill-rule="nonzero" fill-opacity="1" /><path clip-path="url(#clip200)" d="M2242.67 1544.91 L2250.31 1544.91 L2250.31 1518.55 L2242 1520.21 L2242 1515.95 L2250.27 1514.29 L2254.94 1514.29 L2254.94 1544.91 L2262.58 1544.91 L2262.58 1548.85 L2242.67 1548.85 L2242.67 1544.91 Z" fill="#000000" fill-rule="nonzero" fill-opacity="1" /><path clip-path="url(#clip200)" d="M2272.02 1542.97 L2276.91 1542.97 L2276.91 1548.85 L2272.02 1548.85 L2272.02 1542.97 Z" fill="#000000" fill-rule="nonzero" fill-opacity="1" /><path clip-path="url(#clip200)" d="M2297.09 1517.37 Q2293.48 1517.37 2291.65 1520.93 Q2289.85 1524.47 2289.85 1531.6 Q2289.85 1538.71 2291.65 1542.27 Q2293.48 1545.82 2297.09 1545.82 Q2300.73 1545.82 2302.53 1542.27 Q2304.36 1538.71 2304.36 1531.6 Q2304.36 1524.47 2302.53 1520.93 Q2300.73 1517.37 2297.09 1517.37 M2297.09 1513.66 Q2302.9 1513.66 2305.96 1518.27 Q2309.04 1522.85 2309.04 1531.6 Q2309.04 1540.33 2305.96 1544.94 Q2302.9 1549.52 2297.09 1549.52 Q2291.28 1549.52 2288.2 1544.94 Q2285.15 1540.33 2285.15 1531.6 Q2285.15 1522.85 2288.2 1518.27 Q2291.28 1513.66 2297.09 1513.66 Z" fill="#000000" fill-rule="nonzero" fill-opacity="1" /><path clip-path="url(#clip200)" d="M2327.26 1517.37 Q2323.64 1517.37 2321.82 1520.93 Q2320.01 1524.47 2320.01 1531.6 Q2320.01 1538.71 2321.82 1542.27 Q2323.64 1545.82 2327.26 1545.82 Q2330.89 1545.82 2332.7 1542.27 Q2334.52 1538.71 2334.52 1531.6 Q2334.52 1524.47 2332.7 1520.93 Q2330.89 1517.37 2327.26 1517.37 M2327.26 1513.66 Q2333.07 1513.66 2336.12 1518.27 Q2339.2 1522.85 2339.2 1531.6 Q2339.2 1540.33 2336.12 1544.94 Q2333.07 1549.52 2327.26 1549.52 Q2321.45 1549.52 2318.37 1544.94 Q2315.31 1540.33 2315.31 1531.6 Q2315.31 1522.85 2318.37 1518.27 Q2321.45 1513.66 2327.26 1513.66 Z" fill="#000000" fill-rule="nonzero" fill-opacity="1" /><polyline clip-path="url(#clip202)" style="stroke:#000000; stroke-linecap:round; stroke-linejoin:round; stroke-width:2; stroke-opacity:0.1; fill:none" points="156.598,1445.72 2352.76,1445.72 "/>
<polyline clip-path="url(#clip202)" style="stroke:#000000; stroke-linecap:round; stroke-linejoin:round; stroke-width:2; stroke-opacity:0.1; fill:none" points="156.598,1162.74 2352.76,1162.74 "/>
<polyline clip-path="url(#clip202)" style="stroke:#000000; stroke-linecap:round; stroke-linejoin:round; stroke-width:2; stroke-opacity:0.1; fill:none" points="156.598,879.755 2352.76,879.755 "/>
<polyline clip-path="url(#clip202)" style="stroke:#000000; stroke-linecap:round; stroke-linejoin:round; stroke-width:2; stroke-opacity:0.1; fill:none" points="156.598,596.775 2352.76,596.775 "/>
<polyline clip-path="url(#clip202)" style="stroke:#000000; stroke-linecap:round; stroke-linejoin:round; stroke-width:2; stroke-opacity:0.1; fill:none" points="156.598,313.795 2352.76,313.795 "/>
<polyline clip-path="url(#clip200)" style="stroke:#000000; stroke-linecap:round; stroke-linejoin:round; stroke-width:4; stroke-opacity:1; fill:none" points="156.598,1486.45 156.598,47.2441 "/>
<polyline clip-path="url(#clip200)" style="stroke:#000000; stroke-linecap:round; stroke-linejoin:round; stroke-width:4; stroke-opacity:1; fill:none" points="156.598,1445.72 175.496,1445.72 "/>
<polyline clip-path="url(#clip200)" style="stroke:#000000; stroke-linecap:round; stroke-linejoin:round; stroke-width:4; stroke-opacity:1; fill:none" points="156.598,1162.74 175.496,1162.74 "/>
<polyline clip-path="url(#clip200)" style="stroke:#000000; stroke-linecap:round; stroke-linejoin:round; stroke-width:4; stroke-opacity:1; fill:none" points="156.598,879.755 175.496,879.755 "/>
<polyline clip-path="url(#clip200)" style="stroke:#000000; stroke-linecap:round; stroke-linejoin:round; stroke-width:4; stroke-opacity:1; fill:none" points="156.598,596.775 175.496,596.775 "/>
<polyline clip-path="url(#clip200)" style="stroke:#000000; stroke-linecap:round; stroke-linejoin:round; stroke-width:4; stroke-opacity:1; fill:none" points="156.598,313.795 175.496,313.795 "/>
<path clip-path="url(#clip200)" d="M63.4226 1431.51 Q59.8115 1431.51 57.9828 1435.08 Q56.1773 1438.62 56.1773 1445.75 Q56.1773 1452.86 57.9828 1456.42 Q59.8115 1459.96 63.4226 1459.96 Q67.0569 1459.96 68.8624 1456.42 Q70.6911 1452.86 70.6911 1445.75 Q70.6911 1438.62 68.8624 1435.08 Q67.0569 1431.51 63.4226 1431.51 M63.4226 1427.81 Q69.2328 1427.81 72.2883 1432.42 Q75.367 1437 75.367 1445.75 Q75.367 1454.48 72.2883 1459.08 Q69.2328 1463.67 63.4226 1463.67 Q57.6125 1463.67 54.5338 1459.08 Q51.4782 1454.48 51.4782 1445.75 Q51.4782 1437 54.5338 1432.42 Q57.6125 1427.81 63.4226 1427.81 Z" fill="#000000" fill-rule="nonzero" fill-opacity="1" /><path clip-path="url(#clip200)" d="M83.5845 1457.12 L88.4688 1457.12 L88.4688 1463 L83.5845 1463 L83.5845 1457.12 Z" fill="#000000" fill-rule="nonzero" fill-opacity="1" /><path clip-path="url(#clip200)" d="M108.654 1431.51 Q105.043 1431.51 103.214 1435.08 Q101.409 1438.62 101.409 1445.75 Q101.409 1452.86 103.214 1456.42 Q105.043 1459.96 108.654 1459.96 Q112.288 1459.96 114.094 1456.42 Q115.922 1452.86 115.922 1445.75 Q115.922 1438.62 114.094 1435.08 Q112.288 1431.51 108.654 1431.51 M108.654 1427.81 Q114.464 1427.81 117.52 1432.42 Q120.598 1437 120.598 1445.75 Q120.598 1454.48 117.52 1459.08 Q114.464 1463.67 108.654 1463.67 Q102.844 1463.67 99.765 1459.08 Q96.7095 1454.48 96.7095 1445.75 Q96.7095 1437 99.765 1432.42 Q102.844 1427.81 108.654 1427.81 Z" fill="#000000" fill-rule="nonzero" fill-opacity="1" /><path clip-path="url(#clip200)" d="M65.0198 1148.53 Q61.4087 1148.53 59.58 1152.1 Q57.7745 1155.64 57.7745 1162.77 Q57.7745 1169.88 59.58 1173.44 Q61.4087 1176.98 65.0198 1176.98 Q68.6541 1176.98 70.4596 1173.44 Q72.2883 1169.88 72.2883 1162.77 Q72.2883 1155.64 70.4596 1152.1 Q68.6541 1148.53 65.0198 1148.53 M65.0198 1144.83 Q70.83 1144.83 73.8855 1149.44 Q76.9642 1154.02 76.9642 1162.77 Q76.9642 1171.5 73.8855 1176.1 Q70.83 1180.69 65.0198 1180.69 Q59.2097 1180.69 56.131 1176.1 Q53.0754 1171.5 53.0754 1162.77 Q53.0754 1154.02 56.131 1149.44 Q59.2097 1144.83 65.0198 1144.83 Z" fill="#000000" fill-rule="nonzero" fill-opacity="1" /><path clip-path="url(#clip200)" d="M85.1818 1174.14 L90.066 1174.14 L90.066 1180.02 L85.1818 1180.02 L85.1818 1174.14 Z" fill="#000000" fill-rule="nonzero" fill-opacity="1" /><path clip-path="url(#clip200)" d="M104.279 1176.08 L120.598 1176.08 L120.598 1180.02 L98.6539 1180.02 L98.6539 1176.08 Q101.316 1173.33 105.899 1168.7 Q110.506 1164.04 111.686 1162.7 Q113.932 1160.18 114.811 1158.44 Q115.714 1156.68 115.714 1154.99 Q115.714 1152.24 113.77 1150.5 Q111.848 1148.77 108.746 1148.77 Q106.547 1148.77 104.094 1149.53 Q101.663 1150.29 98.8854 1151.84 L98.8854 1147.12 Q101.709 1145.99 104.163 1145.41 Q106.617 1144.83 108.654 1144.83 Q114.024 1144.83 117.219 1147.52 Q120.413 1150.2 120.413 1154.69 Q120.413 1156.82 119.603 1158.74 Q118.816 1160.64 116.709 1163.23 Q116.131 1163.9 113.029 1167.12 Q109.927 1170.32 104.279 1176.08 Z" fill="#000000" fill-rule="nonzero" fill-opacity="1" /><path clip-path="url(#clip200)" d="M62.9365 865.554 Q59.3254 865.554 57.4967 869.119 Q55.6912 872.66 55.6912 879.79 Q55.6912 886.896 57.4967 890.461 Q59.3254 894.003 62.9365 894.003 Q66.5707 894.003 68.3763 890.461 Q70.205 886.896 70.205 879.79 Q70.205 872.66 68.3763 869.119 Q66.5707 865.554 62.9365 865.554 M62.9365 861.85 Q68.7467 861.85 71.8022 866.457 Q74.8809 871.04 74.8809 879.79 Q74.8809 888.517 71.8022 893.123 Q68.7467 897.707 62.9365 897.707 Q57.1264 897.707 54.0477 893.123 Q50.9921 888.517 50.9921 879.79 Q50.9921 871.04 54.0477 866.457 Q57.1264 861.85 62.9365 861.85 Z" fill="#000000" fill-rule="nonzero" fill-opacity="1" /><path clip-path="url(#clip200)" d="M83.0984 891.156 L87.9827 891.156 L87.9827 897.035 L83.0984 897.035 L83.0984 891.156 Z" fill="#000000" fill-rule="nonzero" fill-opacity="1" /><path clip-path="url(#clip200)" d="M111.015 866.549 L99.2095 884.998 L111.015 884.998 L111.015 866.549 M109.788 862.475 L115.668 862.475 L115.668 884.998 L120.598 884.998 L120.598 888.887 L115.668 888.887 L115.668 897.035 L111.015 897.035 L111.015 888.887 L95.4132 888.887 L95.4132 884.373 L109.788 862.475 Z" fill="#000000" fill-rule="nonzero" fill-opacity="1" /><path clip-path="url(#clip200)" d="M63.2606 582.574 Q59.6495 582.574 57.8208 586.138 Q56.0152 589.68 56.0152 596.81 Q56.0152 603.916 57.8208 607.481 Q59.6495 611.023 63.2606 611.023 Q66.8948 611.023 68.7004 607.481 Q70.5291 603.916 70.5291 596.81 Q70.5291 589.68 68.7004 586.138 Q66.8948 582.574 63.2606 582.574 M63.2606 578.87 Q69.0707 578.87 72.1263 583.476 Q75.205 588.06 75.205 596.81 Q75.205 605.537 72.1263 610.143 Q69.0707 614.726 63.2606 614.726 Q57.4504 614.726 54.3717 610.143 Q51.3162 605.537 51.3162 596.81 Q51.3162 588.06 54.3717 583.476 Q57.4504 578.87 63.2606 578.87 Z" fill="#000000" fill-rule="nonzero" fill-opacity="1" /><path clip-path="url(#clip200)" d="M83.4225 608.175 L88.3067 608.175 L88.3067 614.055 L83.4225 614.055 L83.4225 608.175 Z" fill="#000000" fill-rule="nonzero" fill-opacity="1" /><path clip-path="url(#clip200)" d="M109.071 594.912 Q105.922 594.912 104.071 597.064 Q102.242 599.217 102.242 602.967 Q102.242 606.694 104.071 608.87 Q105.922 611.023 109.071 611.023 Q112.219 611.023 114.047 608.87 Q115.899 606.694 115.899 602.967 Q115.899 599.217 114.047 597.064 Q112.219 594.912 109.071 594.912 M118.353 580.259 L118.353 584.518 Q116.594 583.685 114.788 583.245 Q113.006 582.805 111.246 582.805 Q106.617 582.805 104.163 585.93 Q101.733 589.055 101.385 595.375 Q102.751 593.361 104.811 592.296 Q106.871 591.208 109.348 591.208 Q114.557 591.208 117.566 594.379 Q120.598 597.527 120.598 602.967 Q120.598 608.291 117.45 611.509 Q114.302 614.726 109.071 614.726 Q103.075 614.726 99.9039 610.143 Q96.7326 605.537 96.7326 596.81 Q96.7326 588.615 100.621 583.754 Q104.51 578.87 111.061 578.87 Q112.82 578.87 114.603 579.217 Q116.408 579.564 118.353 580.259 Z" fill="#000000" fill-rule="nonzero" fill-opacity="1" /><path clip-path="url(#clip200)" d="M63.5152 299.593 Q59.9041 299.593 58.0754 303.158 Q56.2699 306.7 56.2699 313.829 Q56.2699 320.936 58.0754 324.501 Q59.9041 328.042 63.5152 328.042 Q67.1494 328.042 68.955 324.501 Q70.7837 320.936 70.7837 313.829 Q70.7837 306.7 68.955 303.158 Q67.1494 299.593 63.5152 299.593 M63.5152 295.89 Q69.3254 295.89 72.3809 300.496 Q75.4596 305.08 75.4596 313.829 Q75.4596 322.556 72.3809 327.163 Q69.3254 331.746 63.5152 331.746 Q57.7051 331.746 54.6264 327.163 Q51.5708 322.556 51.5708 313.829 Q51.5708 305.08 54.6264 300.496 Q57.7051 295.89 63.5152 295.89 Z" fill="#000000" fill-rule="nonzero" fill-opacity="1" /><path clip-path="url(#clip200)" d="M83.6771 325.195 L88.5614 325.195 L88.5614 331.075 L83.6771 331.075 L83.6771 325.195 Z" fill="#000000" fill-rule="nonzero" fill-opacity="1" /><path clip-path="url(#clip200)" d="M108.746 314.663 Q105.413 314.663 103.492 316.445 Q101.594 318.228 101.594 321.353 Q101.594 324.478 103.492 326.26 Q105.413 328.042 108.746 328.042 Q112.08 328.042 114.001 326.26 Q115.922 324.454 115.922 321.353 Q115.922 318.228 114.001 316.445 Q112.103 314.663 108.746 314.663 M104.071 312.672 Q101.061 311.931 99.3715 309.871 Q97.7048 307.811 97.7048 304.848 Q97.7048 300.705 100.645 298.297 Q103.608 295.89 108.746 295.89 Q113.908 295.89 116.848 298.297 Q119.788 300.705 119.788 304.848 Q119.788 307.811 118.098 309.871 Q116.432 311.931 113.445 312.672 Q116.825 313.459 118.7 315.751 Q120.598 318.042 120.598 321.353 Q120.598 326.376 117.52 329.061 Q114.464 331.746 108.746 331.746 Q103.029 331.746 99.9502 329.061 Q96.8947 326.376 96.8947 321.353 Q96.8947 318.042 98.7928 315.751 Q100.691 313.459 104.071 312.672 M102.358 305.288 Q102.358 307.973 104.024 309.478 Q105.714 310.982 108.746 310.982 Q111.756 310.982 113.445 309.478 Q115.158 307.973 115.158 305.288 Q115.158 302.603 113.445 301.098 Q111.756 299.593 108.746 299.593 Q105.714 299.593 104.024 301.098 Q102.358 302.603 102.358 305.288 Z" fill="#000000" fill-rule="nonzero" fill-opacity="1" /><path clip-path="url(#clip202)" d="M1952.34 1445.72 L1952.34 406.196 L2036.9 406.196 L2036.9 1445.72 L2036.9 1445.72 L2036.9 1445.72 L1952.34 1445.72 L1952.34 1445.72  Z" fill="#191970" fill-rule="evenodd" fill-opacity="0.765625"/>
<polyline clip-path="url(#clip202)" style="stroke:#000000; stroke-linecap:round; stroke-linejoin:round; stroke-width:4; stroke-opacity:1; fill:none" points="1952.34,1445.72 1952.34,406.196 2036.9,406.196 2036.9,1445.72 "/>
<path clip-path="url(#clip202)" d="M1698.64 1445.72 L1698.64 681.987 L1783.21 681.987 L1783.21 1445.72 L1783.21 1445.72 L1783.21 1445.72 L1698.64 1445.72 L1698.64 1445.72  Z" fill="#191970" fill-rule="evenodd" fill-opacity="0.5625"/>
<polyline clip-path="url(#clip202)" style="stroke:#000000; stroke-linecap:round; stroke-linejoin:round; stroke-width:4; stroke-opacity:1; fill:none" points="1698.64,1445.72 1698.64,681.987 1783.21,681.987 1783.21,1445.72 "/>
<path clip-path="url(#clip202)" d="M2121.47 1445.72 L2121.47 198.764 L2206.04 198.764 L2206.04 1445.72 L2206.04 1445.72 L2206.04 1445.72 L2121.47 1445.72 L2121.47 1445.72  Z" fill="#191970" fill-rule="evenodd" fill-opacity="0.918403"/>
<polyline clip-path="url(#clip202)" style="stroke:#000000; stroke-linecap:round; stroke-linejoin:round; stroke-width:4; stroke-opacity:1; fill:none" points="2121.47,1445.72 2121.47,198.764 2206.04,198.764 2206.04,1445.72 "/>
<path clip-path="url(#clip202)" d="M1022.12 1445.72 L1022.12 1210 L1106.69 1210 L1106.69 1445.72 L1106.69 1445.72 L1106.69 1445.72 L1022.12 1445.72 L1022.12 1445.72  Z" fill="#191970" fill-rule="evenodd" fill-opacity="0.173611"/>
<polyline clip-path="url(#clip202)" style="stroke:#000000; stroke-linecap:round; stroke-linejoin:round; stroke-width:4; stroke-opacity:1; fill:none" points="1022.12,1445.72 1022.12,1210 1106.69,1210 1106.69,1445.72 "/>
<path clip-path="url(#clip202)" d="M599.297 1445.72 L599.297 1386.79 L683.862 1386.79 L683.862 1445.72 L683.862 1445.72 L683.862 1445.72 L599.297 1445.72 L599.297 1445.72  Z" fill="#191970" fill-rule="evenodd" fill-opacity="0.0434028"/>
<polyline clip-path="url(#clip202)" style="stroke:#000000; stroke-linecap:round; stroke-linejoin:round; stroke-width:4; stroke-opacity:1; fill:none" points="599.297,1445.72 599.297,1386.79 683.862,1386.79 683.862,1445.72 "/>
<path clip-path="url(#clip202)" d="M218.754 1445.72 L218.754 1445.72 L261.036 1445.72 L261.036 1445.72 L261.036 1445.72 L261.036 1445.72 L218.754 1445.72 L218.754 1445.72  Z" fill="#191970" fill-rule="evenodd" fill-opacity="0"/>
<polyline clip-path="url(#clip202)" style="stroke:#000000; stroke-linecap:round; stroke-linejoin:round; stroke-width:4; stroke-opacity:1; fill:none" points="218.754,1445.72 218.754,1445.72 261.036,1445.72 "/>
<path clip-path="url(#clip202)" d="M1614.08 1445.72 L1614.08 764.489 L1698.64 764.489 L1698.64 1445.72 L1698.64 1445.72 L1698.64 1445.72 L1614.08 1445.72 L1614.08 1445.72  Z" fill="#191970" fill-rule="evenodd" fill-opacity="0.501736"/>
<polyline clip-path="url(#clip202)" style="stroke:#000000; stroke-linecap:round; stroke-linejoin:round; stroke-width:4; stroke-opacity:1; fill:none" points="1614.08,1445.72 1614.08,764.489 1698.64,764.489 1698.64,1445.72 "/>
<path clip-path="url(#clip202)" d="M514.732 1445.72 L514.732 1408 L599.297 1408 L599.297 1445.72 L599.297 1445.72 L599.297 1445.72 L514.732 1445.72 L514.732 1445.72  Z" fill="#191970" fill-rule="evenodd" fill-opacity="0.0277778"/>
<polyline clip-path="url(#clip202)" style="stroke:#000000; stroke-linecap:round; stroke-linejoin:round; stroke-width:4; stroke-opacity:1; fill:none" points="514.732,1445.72 514.732,1408 599.297,1408 599.297,1445.72 "/>
<path clip-path="url(#clip202)" d="M768.427 1445.72 L768.427 1330.21 L852.992 1330.21 L852.992 1445.72 L852.992 1445.72 L852.992 1445.72 L768.427 1445.72 L768.427 1445.72  Z" fill="#191970" fill-rule="evenodd" fill-opacity="0.0850694"/>
<polyline clip-path="url(#clip202)" style="stroke:#000000; stroke-linecap:round; stroke-linejoin:round; stroke-width:4; stroke-opacity:1; fill:none" points="768.427,1445.72 768.427,1330.21 852.992,1330.21 852.992,1445.72 "/>
<path clip-path="url(#clip202)" d="M1529.51 1445.72 L1529.51 842.276 L1614.08 842.276 L1614.08 1445.72 L1614.08 1445.72 L1614.08 1445.72 L1529.51 1445.72 L1529.51 1445.72  Z" fill="#191970" fill-rule="evenodd" fill-opacity="0.444444"/>
<polyline clip-path="url(#clip202)" style="stroke:#000000; stroke-linecap:round; stroke-linejoin:round; stroke-width:4; stroke-opacity:1; fill:none" points="1529.51,1445.72 1529.51,842.276 1614.08,842.276 1614.08,1445.72 "/>
<path clip-path="url(#clip202)" d="M852.992 1445.72 L852.992 1294.86 L937.558 1294.86 L937.558 1445.72 L937.558 1445.72 L937.558 1445.72 L852.992 1445.72 L852.992 1445.72  Z" fill="#191970" fill-rule="evenodd" fill-opacity="0.111111"/>
<polyline clip-path="url(#clip202)" style="stroke:#000000; stroke-linecap:round; stroke-linejoin:round; stroke-width:4; stroke-opacity:1; fill:none" points="852.992,1445.72 852.992,1294.86 937.558,1294.86 937.558,1445.72 "/>
<path clip-path="url(#clip202)" d="M1360.38 1445.72 L1360.38 983.707 L1444.95 983.707 L1444.95 1445.72 L1444.95 1445.72 L1444.95 1445.72 L1360.38 1445.72 L1360.38 1445.72  Z" fill="#191970" fill-rule="evenodd" fill-opacity="0.340278"/>
<polyline clip-path="url(#clip202)" style="stroke:#000000; stroke-linecap:round; stroke-linejoin:round; stroke-width:4; stroke-opacity:1; fill:none" points="1360.38,1445.72 1360.38,983.707 1444.95,983.707 1444.95,1445.72 "/>
<path clip-path="url(#clip202)" d="M345.601 1445.72 L345.601 1436.29 L430.167 1436.29 L430.167 1445.72 L430.167 1445.72 L430.167 1445.72 L345.601 1445.72 L345.601 1445.72  Z" fill="#191970" fill-rule="evenodd" fill-opacity="0.00694444"/>
<polyline clip-path="url(#clip202)" style="stroke:#000000; stroke-linecap:round; stroke-linejoin:round; stroke-width:4; stroke-opacity:1; fill:none" points="345.601,1445.72 345.601,1436.29 430.167,1436.29 430.167,1445.72 "/>
<path clip-path="url(#clip202)" d="M261.036 1445.72 L261.036 1443.36 L345.601 1443.36 L345.601 1445.72 L345.601 1445.72 L345.601 1445.72 L261.036 1445.72 L261.036 1445.72  Z" fill="#191970" fill-rule="evenodd" fill-opacity="0.00173611"/>
<polyline clip-path="url(#clip202)" style="stroke:#000000; stroke-linecap:round; stroke-linejoin:round; stroke-width:4; stroke-opacity:1; fill:none" points="261.036,1445.72 261.036,1443.36 345.601,1443.36 345.601,1445.72 "/>
<path clip-path="url(#clip202)" d="M2036.9 1445.72 L2036.9 304.837 L2121.47 304.837 L2121.47 1445.72 L2121.47 1445.72 L2121.47 1445.72 L2036.9 1445.72 L2036.9 1445.72  Z" fill="#191970" fill-rule="evenodd" fill-opacity="0.840278"/>
<polyline clip-path="url(#clip202)" style="stroke:#000000; stroke-linecap:round; stroke-linejoin:round; stroke-width:4; stroke-opacity:1; fill:none" points="2036.9,1445.72 2036.9,304.837 2121.47,304.837 2121.47,1445.72 "/>
<path clip-path="url(#clip202)" d="M2206.04 1445.72 L2206.04 87.9763 L2290.6 87.9763 L2290.6 1445.72 L2290.6 1445.72 L2290.6 1445.72 L2206.04 1445.72 L2206.04 1445.72  Z" fill="#191970" fill-rule="evenodd" fill-opacity="1"/>
<polyline clip-path="url(#clip202)" style="stroke:#000000; stroke-linecap:round; stroke-linejoin:round; stroke-width:4; stroke-opacity:1; fill:none" points="2206.04,1445.72 2206.04,87.9763 2290.6,87.9763 2290.6,1445.72 "/>
<path clip-path="url(#clip202)" d="M1191.25 1445.72 L1191.25 1106.28 L1275.82 1106.28 L1275.82 1445.72 L1275.82 1445.72 L1275.82 1445.72 L1191.25 1445.72 L1191.25 1445.72  Z" fill="#191970" fill-rule="evenodd" fill-opacity="0.25"/>
<polyline clip-path="url(#clip202)" style="stroke:#000000; stroke-linecap:round; stroke-linejoin:round; stroke-width:4; stroke-opacity:1; fill:none" points="1191.25,1445.72 1191.25,1106.28 1275.82,1106.28 1275.82,1445.72 "/>
<path clip-path="url(#clip202)" d="M1444.95 1445.72 L1444.95 915.349 L1529.51 915.349 L1529.51 1445.72 L1529.51 1445.72 L1529.51 1445.72 L1444.95 1445.72 L1444.95 1445.72  Z" fill="#191970" fill-rule="evenodd" fill-opacity="0.390625"/>
<polyline clip-path="url(#clip202)" style="stroke:#000000; stroke-linecap:round; stroke-linejoin:round; stroke-width:4; stroke-opacity:1; fill:none" points="1444.95,1445.72 1444.95,915.349 1529.51,915.349 1529.51,1445.72 "/>
<path clip-path="url(#clip202)" d="M1783.21 1445.72 L1783.21 594.771 L1867.77 594.771 L1867.77 1445.72 L1867.77 1445.72 L1867.77 1445.72 L1783.21 1445.72 L1783.21 1445.72  Z" fill="#191970" fill-rule="evenodd" fill-opacity="0.626736"/>
<polyline clip-path="url(#clip202)" style="stroke:#000000; stroke-linecap:round; stroke-linejoin:round; stroke-width:4; stroke-opacity:1; fill:none" points="1783.21,1445.72 1783.21,594.771 1867.77,594.771 1867.77,1445.72 "/>
<path clip-path="url(#clip202)" d="M683.862 1445.72 L683.862 1360.86 L768.427 1360.86 L768.427 1445.72 L768.427 1445.72 L768.427 1445.72 L683.862 1445.72 L683.862 1445.72  Z" fill="#191970" fill-rule="evenodd" fill-opacity="0.0625"/>
<polyline clip-path="url(#clip202)" style="stroke:#000000; stroke-linecap:round; stroke-linejoin:round; stroke-width:4; stroke-opacity:1; fill:none" points="683.862,1445.72 683.862,1360.86 768.427,1360.86 768.427,1445.72 "/>
<path clip-path="url(#clip202)" d="M937.558 1445.72 L937.558 1254.78 L1022.12 1254.78 L1022.12 1445.72 L1022.12 1445.72 L1022.12 1445.72 L937.558 1445.72 L937.558 1445.72  Z" fill="#191970" fill-rule="evenodd" fill-opacity="0.140625"/>
<polyline clip-path="url(#clip202)" style="stroke:#000000; stroke-linecap:round; stroke-linejoin:round; stroke-width:4; stroke-opacity:1; fill:none" points="937.558,1445.72 937.558,1254.78 1022.12,1254.78 1022.12,1445.72 "/>
<path clip-path="url(#clip202)" d="M1275.82 1445.72 L1275.82 1047.35 L1360.38 1047.35 L1360.38 1445.72 L1360.38 1445.72 L1360.38 1445.72 L1275.82 1445.72 L1275.82 1445.72  Z" fill="#191970" fill-rule="evenodd" fill-opacity="0.293403"/>
<polyline clip-path="url(#clip202)" style="stroke:#000000; stroke-linecap:round; stroke-linejoin:round; stroke-width:4; stroke-opacity:1; fill:none" points="1275.82,1445.72 1275.82,1047.35 1360.38,1047.35 1360.38,1445.72 "/>
<path clip-path="url(#clip202)" d="M430.167 1445.72 L430.167 1424.5 L514.732 1424.5 L514.732 1445.72 L514.732 1445.72 L514.732 1445.72 L430.167 1445.72 L430.167 1445.72  Z" fill="#191970" fill-rule="evenodd" fill-opacity="0.015625"/>
<polyline clip-path="url(#clip202)" style="stroke:#000000; stroke-linecap:round; stroke-linejoin:round; stroke-width:4; stroke-opacity:1; fill:none" points="430.167,1445.72 430.167,1424.5 514.732,1424.5 514.732,1445.72 "/>
<path clip-path="url(#clip202)" d="M1106.69 1445.72 L1106.69 1160.5 L1191.25 1160.5 L1191.25 1445.72 L1191.25 1445.72 L1191.25 1445.72 L1106.69 1445.72 L1106.69 1445.72  Z" fill="#191970" fill-rule="evenodd" fill-opacity="0.210069"/>
<polyline clip-path="url(#clip202)" style="stroke:#000000; stroke-linecap:round; stroke-linejoin:round; stroke-width:4; stroke-opacity:1; fill:none" points="1106.69,1445.72 1106.69,1160.5 1191.25,1160.5 1191.25,1445.72 "/>
<path clip-path="url(#clip202)" d="M1867.77 1445.72 L1867.77 502.841 L1952.34 502.841 L1952.34 1445.72 L1952.34 1445.72 L1952.34 1445.72 L1867.77 1445.72 L1867.77 1445.72  Z" fill="#191970" fill-rule="evenodd" fill-opacity="0.694444"/>
<polyline clip-path="url(#clip202)" style="stroke:#000000; stroke-linecap:round; stroke-linejoin:round; stroke-width:4; stroke-opacity:1; fill:none" points="1867.77,1445.72 1867.77,502.841 1952.34,502.841 1952.34,1445.72 "/>
</svg>
