<?xml version="1.0" encoding="utf-8"?>
<svg xmlns="http://www.w3.org/2000/svg" xmlns:xlink="http://www.w3.org/1999/xlink" width="600" height="400" viewBox="0 0 2400 1600">
<defs>
  <clipPath id="clip260">
    <rect x="0" y="0" width="2400" height="1600"/>
  </clipPath>
</defs>
<path clip-path="url(#clip260)" d="M0 1600 L2400 1600 L2400 0 L0 0  Z" fill="#ffffff" fill-rule="evenodd" fill-opacity="1"/>
<defs>
  <clipPath id="clip261">
    <rect x="480" y="0" width="1681" height="1600"/>
  </clipPath>
</defs>
<path clip-path="url(#clip260)" d="M156.598 1486.45 L2352.76 1486.45 L2352.76 47.2441 L156.598 47.2441  Z" fill="#ffffff" fill-rule="evenodd" fill-opacity="1"/>
<defs>
  <clipPath id="clip262">
    <rect x="156" y="47" width="2197" height="1440"/>
  </clipPath>
</defs>
<polyline clip-path="url(#clip262)" style="stroke:#000000; stroke-linecap:round; stroke-linejoin:round; stroke-width:2; stroke-opacity:0.1; fill:none" points="218.754,1486.45 218.754,47.2441 "/>
<polyline clip-path="url(#clip262)" style="stroke:#000000; stroke-linecap:round; stroke-linejoin:round; stroke-width:2; stroke-opacity:0.1; fill:none" points="736.715,1486.45 736.715,47.2441 "/>
<polyline clip-path="url(#clip262)" style="stroke:#000000; stroke-linecap:round; stroke-linejoin:round; stroke-width:2; stroke-opacity:0.1; fill:none" points="1254.68,1486.45 1254.68,47.2441 "/>
<polyline clip-path="url(#clip262)" style="stroke:#000000; stroke-linecap:round; stroke-linejoin:round; stroke-width:2; stroke-opacity:0.1; fill:none" points="1772.64,1486.45 1772.64,47.2441 "/>
<polyline clip-path="url(#clip262)" style="stroke:#000000; stroke-linecap:round; stroke-linejoin:round; stroke-width:2; stroke-opacity:0.1; fill:none" points="2290.6,1486.45 2290.6,47.2441 "/>
<polyline clip-path="url(#clip260)" style="stroke:#000000; stroke-linecap:round; stroke-linejoin:round; stroke-width:4; stroke-opacity:1; fill:none" points="156.598,1486.45 2352.76,1486.45 "/>
<polyline clip-path="url(#clip260)" style="stroke:#000000; stroke-linecap:round; stroke-linejoin:round; stroke-width:4; stroke-opacity:1; fill:none" points="218.754,1486.45 218.754,1467.55 "/>
<polyline clip-path="url(#clip260)" style="stroke:#000000; stroke-linecap:round; stroke-linejoin:round; stroke-width:4; stroke-opacity:1; fill:none" points="736.715,1486.45 736.715,1467.55 "/>
<polyline clip-path="url(#clip260)" style="stroke:#000000; stroke-linecap:round; stroke-linejoin:round; stroke-width:4; stroke-opacity:1; fill:none" points="1254.68,1486.45 1254.68,1467.55 "/>
<polyline clip-path="url(#clip260)" style="stroke:#000000; stroke-linecap:round; stroke-linejoin:round; stroke-width:4; stroke-opacity:1; fill:none" points="1772.64,1486.45 1772.64,1467.55 "/>
<polyline clip-path="url(#clip260)" style="stroke:#000000; stroke-linecap:round; stroke-linejoin:round; stroke-width:4; stroke-opacity:1; fill:none" points="2290.6,1486.45 2290.6,1467.55 "/>
<path clip-path="url(#clip260)" d="M172.816 1532.02 L202.492 1532.02 L202.492 1535.95 L172.816 1535.95 L172.816 1532.02 Z" fill="#000000" fill-rule="nonzero" fill-opacity="1" /><path clip-path="url(#clip260)" d="M213.395 1544.91 L221.034 1544.91 L221.034 1518.55 L212.724 1520.21 L212.724 1515.95 L220.987 1514.29 L225.663 1514.29 L225.663 1544.91 L233.302 1544.91 L233.302 1548.85 L213.395 1548.85 L213.395 1544.91 Z" fill="#000000" fill-rule="nonzero" fill-opacity="1" /><path clip-path="url(#clip260)" d="M252.747 1517.37 Q249.135 1517.37 247.307 1520.93 Q245.501 1524.47 245.501 1531.6 Q245.501 1538.71 247.307 1542.27 Q249.135 1545.82 252.747 1545.82 Q256.381 1545.82 258.186 1542.27 Q260.015 1538.71 260.015 1531.6 Q260.015 1524.47 258.186 1520.93 Q256.381 1517.37 252.747 1517.37 M252.747 1513.66 Q258.557 1513.66 261.612 1518.27 Q264.691 1522.85 264.691 1531.6 Q264.691 1540.33 261.612 1544.94 Q258.557 1549.52 252.747 1549.52 Q246.936 1549.52 243.858 1544.94 Q240.802 1540.33 240.802 1531.6 Q240.802 1522.85 243.858 1518.27 Q246.936 1513.66 252.747 1513.66 Z" fill="#000000" fill-rule="nonzero" fill-opacity="1" /><path clip-path="url(#clip260)" d="M706.357 1532.02 L736.032 1532.02 L736.032 1535.95 L706.357 1535.95 L706.357 1532.02 Z" fill="#000000" fill-rule="nonzero" fill-opacity="1" /><path clip-path="url(#clip260)" d="M746.171 1514.29 L764.528 1514.29 L764.528 1518.22 L750.454 1518.22 L750.454 1526.7 Q751.472 1526.35 752.491 1526.19 Q753.509 1526 754.528 1526 Q760.315 1526 763.694 1529.17 Q767.074 1532.34 767.074 1537.76 Q767.074 1543.34 763.602 1546.44 Q760.13 1549.52 753.81 1549.52 Q751.634 1549.52 749.366 1549.15 Q747.12 1548.78 744.713 1548.04 L744.713 1543.34 Q746.796 1544.47 749.019 1545.03 Q751.241 1545.58 753.718 1545.58 Q757.722 1545.58 760.06 1543.48 Q762.398 1541.37 762.398 1537.76 Q762.398 1534.15 760.06 1532.04 Q757.722 1529.94 753.718 1529.94 Q751.843 1529.94 749.968 1530.35 Q748.116 1530.77 746.171 1531.65 L746.171 1514.29 Z" fill="#000000" fill-rule="nonzero" fill-opacity="1" /><path clip-path="url(#clip260)" d="M1254.68 1517.37 Q1251.07 1517.37 1249.24 1520.93 Q1247.43 1524.47 1247.43 1531.6 Q1247.43 1538.71 1249.24 1542.27 Q1251.07 1545.82 1254.68 1545.82 Q1258.31 1545.82 1260.12 1542.27 Q1261.95 1538.71 1261.95 1531.6 Q1261.95 1524.47 1260.12 1520.93 Q1258.31 1517.37 1254.68 1517.37 M1254.68 1513.66 Q1260.49 1513.66 1263.54 1518.27 Q1266.62 1522.85 1266.62 1531.6 Q1266.62 1540.33 1263.54 1544.94 Q1260.49 1549.52 1254.68 1549.52 Q1248.87 1549.52 1245.79 1544.94 Q1242.73 1540.33 1242.73 1531.6 Q1242.73 1522.85 1245.79 1518.27 Q1248.87 1513.66 1254.68 1513.66 Z" fill="#000000" fill-rule="nonzero" fill-opacity="1" /><path clip-path="url(#clip260)" d="M1762.92 1514.29 L1781.27 1514.29 L1781.27 1518.22 L1767.2 1518.22 L1767.2 1526.7 Q1768.22 1526.35 1769.24 1526.19 Q1770.25 1526 1771.27 1526 Q1777.06 1526 1780.44 1529.17 Q1783.82 1532.34 1783.82 1537.76 Q1783.82 1543.34 1780.35 1546.44 Q1776.87 1549.52 1770.56 1549.52 Q1768.38 1549.52 1766.11 1549.15 Q1763.87 1548.78 1761.46 1548.04 L1761.46 1543.34 Q1763.54 1544.47 1765.76 1545.03 Q1767.99 1545.58 1770.46 1545.58 Q1774.47 1545.58 1776.81 1543.48 Q1779.14 1541.37 1779.14 1537.76 Q1779.14 1534.15 1776.81 1532.04 Q1774.47 1529.94 1770.46 1529.94 Q1768.59 1529.94 1766.71 1530.35 Q1764.86 1530.77 1762.92 1531.65 L1762.92 1514.29 Z" fill="#000000" fill-rule="nonzero" fill-opacity="1" /><path clip-path="url(#clip260)" d="M2265.29 1544.91 L2272.93 1544.91 L2272.93 1518.55 L2264.62 1520.21 L2264.62 1515.95 L2272.88 1514.29 L2277.56 1514.29 L2277.56 1544.91 L2285.2 1544.91 L2285.2 1548.85 L2265.29 1548.85 L2265.29 1544.91 Z" fill="#000000" fill-rule="nonzero" fill-opacity="1" /><path clip-path="url(#clip260)" d="M2304.64 1517.37 Q2301.03 1517.37 2299.2 1520.93 Q2297.39 1524.47 2297.39 1531.6 Q2297.39 1538.71 2299.2 1542.27 Q2301.03 1545.82 2304.64 1545.82 Q2308.27 1545.82 2310.08 1542.27 Q2311.91 1538.71 2311.91 1531.6 Q2311.91 1524.47 2310.08 1520.93 Q2308.27 1517.37 2304.64 1517.37 M2304.64 1513.66 Q2310.45 1513.66 2313.51 1518.27 Q2316.58 1522.85 2316.58 1531.6 Q2316.58 1540.33 2313.51 1544.94 Q2310.45 1549.52 2304.64 1549.52 Q2298.83 1549.52 2295.75 1544.94 Q2292.7 1540.33 2292.7 1531.6 Q2292.7 1522.85 2295.75 1518.27 Q2298.83 1513.66 2304.64 1513.66 Z" fill="#000000" fill-rule="nonzero" fill-opacity="1" /><polyline clip-path="url(#clip262)" style="stroke:#000000; stroke-linecap:round; stroke-linejoin:round; stroke-width:2; stroke-opacity:0.1; fill:none" points="156.598,1445.72 2352.76,1445.72 "/>
<polyline clip-path="url(#clip262)" style="stroke:#000000; stroke-linecap:round; stroke-linejoin:round; stroke-width:2; stroke-opacity:0.1; fill:none" points="156.598,1105.38 2352.76,1105.38 "/>
<polyline clip-path="url(#clip262)" style="stroke:#000000; stroke-linecap:round; stroke-linejoin:round; stroke-width:2; stroke-opacity:0.1; fill:none" points="156.598,765.046 2352.76,765.046 "/>
<polyline clip-path="url(#clip262)" style="stroke:#000000; stroke-linecap:round; stroke-linejoin:round; stroke-width:2; stroke-opacity:0.1; fill:none" points="156.598,424.711 2352.76,424.711 "/>
<polyline clip-path="url(#clip262)" style="stroke:#000000; stroke-linecap:round; stroke-linejoin:round; stroke-width:2; stroke-opacity:0.1; fill:none" points="156.598,84.3765 2352.76,84.3765 "/>
<polyline clip-path="url(#clip260)" style="stroke:#000000; stroke-linecap:round; stroke-linejoin:round; stroke-width:4; stroke-opacity:1; fill:none" points="156.598,1486.45 156.598,47.2441 "/>
<polyline clip-path="url(#clip260)" style="stroke:#000000; stroke-linecap:round; stroke-linejoin:round; stroke-width:4; stroke-opacity:1; fill:none" points="156.598,1445.72 175.496,1445.72 "/>
<polyline clip-path="url(#clip260)" style="stroke:#000000; stroke-linecap:round; stroke-linejoin:round; stroke-width:4; stroke-opacity:1; fill:none" points="156.598,1105.38 175.496,1105.38 "/>
<polyline clip-path="url(#clip260)" style="stroke:#000000; stroke-linecap:round; stroke-linejoin:round; stroke-width:4; stroke-opacity:1; fill:none" points="156.598,765.046 175.496,765.046 "/>
<polyline clip-path="url(#clip260)" style="stroke:#000000; stroke-linecap:round; stroke-linejoin:round; stroke-width:4; stroke-opacity:1; fill:none" points="156.598,424.711 175.496,424.711 "/>
<polyline clip-path="url(#clip260)" style="stroke:#000000; stroke-linecap:round; stroke-linejoin:round; stroke-width:4; stroke-opacity:1; fill:none" points="156.598,84.3765 175.496,84.3765 "/>
<path clip-path="url(#clip260)" d="M63.4226 1431.51 Q59.8115 1431.51 57.9828 1435.08 Q56.1773 1438.62 56.1773 1445.75 Q56.1773 1452.86 57.9828 1456.42 Q59.8115 1459.96 63.4226 1459.96 Q67.0569 1459.96 68.8624 1456.42 Q70.6911 1452.86 70.6911 1445.75 Q70.6911 1438.62 68.8624 1435.08 Q67.0569 1431.51 63.4226 1431.51 M63.4226 1427.81 Q69.2328 1427.81 72.2883 1432.42 Q75.367 1437 75.367 1445.75 Q75.367 1454.48 72.2883 1459.08 Q69.2328 1463.67 63.4226 1463.67 Q57.6125 1463.67 54.5338 1459.08 Q51.4782 1454.48 51.4782 1445.75 Q51.4782 1437 54.5338 1432.42 Q57.6125 1427.81 63.4226 1427.81 Z" fill="#000000" fill-rule="nonzero" fill-opacity="1" /><path clip-path="url(#clip260)" d="M83.5845 1457.12 L88.4688 1457.12 L88.4688 1463 L83.5845 1463 L83.5845 1457.12 Z" fill="#000000" fill-rule="nonzero" fill-opacity="1" /><path clip-path="url(#clip260)" d="M108.654 1431.51 Q105.043 1431.51 103.214 1435.08 Q101.409 1438.62 101.409 1445.75 Q101.409 1452.86 103.214 1456.42 Q105.043 1459.96 108.654 1459.96 Q112.288 1459.96 114.094 1456.42 Q115.922 1452.86 115.922 1445.75 Q115.922 1438.62 114.094 1435.08 Q112.288 1431.51 108.654 1431.51 M108.654 1427.81 Q114.464 1427.81 117.52 1432.42 Q120.598 1437 120.598 1445.75 Q120.598 1454.48 117.52 1459.08 Q114.464 1463.67 108.654 1463.67 Q102.844 1463.67 99.765 1459.08 Q96.7095 1454.48 96.7095 1445.75 Q96.7095 1437 99.765 1432.42 Q102.844 1427.81 108.654 1427.81 Z" fill="#000000" fill-rule="nonzero" fill-opacity="1" /><path clip-path="url(#clip260)" d="M64.6495 1091.18 Q61.0384 1091.18 59.2097 1094.74 Q57.4041 1098.29 57.4041 1105.42 Q57.4041 1112.52 59.2097 1116.09 Q61.0384 1119.63 64.6495 1119.63 Q68.2837 1119.63 70.0892 1116.09 Q71.9179 1112.52 71.9179 1105.42 Q71.9179 1098.29 70.0892 1094.74 Q68.2837 1091.18 64.6495 1091.18 M64.6495 1087.48 Q70.4596 1087.48 73.5152 1092.08 Q76.5938 1096.67 76.5938 1105.42 Q76.5938 1114.14 73.5152 1118.75 Q70.4596 1123.33 64.6495 1123.33 Q58.8393 1123.33 55.7606 1118.75 Q52.7051 1114.14 52.7051 1105.42 Q52.7051 1096.67 55.7606 1092.08 Q58.8393 1087.48 64.6495 1087.48 Z" fill="#000000" fill-rule="nonzero" fill-opacity="1" /><path clip-path="url(#clip260)" d="M84.8114 1116.78 L89.6956 1116.78 L89.6956 1122.66 L84.8114 1122.66 L84.8114 1116.78 Z" fill="#000000" fill-rule="nonzero" fill-opacity="1" /><path clip-path="url(#clip260)" d="M100.691 1118.73 L108.33 1118.73 L108.33 1092.36 L100.02 1094.03 L100.02 1089.77 L108.283 1088.1 L112.959 1088.1 L112.959 1118.73 L120.598 1118.73 L120.598 1122.66 L100.691 1122.66 L100.691 1118.73 Z" fill="#000000" fill-rule="nonzero" fill-opacity="1" /><path clip-path="url(#clip260)" d="M65.0198 750.845 Q61.4087 750.845 59.58 754.41 Q57.7745 757.951 57.7745 765.081 Q57.7745 772.187 59.58 775.752 Q61.4087 779.294 65.0198 779.294 Q68.6541 779.294 70.4596 775.752 Q72.2883 772.187 72.2883 765.081 Q72.2883 757.951 70.4596 754.41 Q68.6541 750.845 65.0198 750.845 M65.0198 747.141 Q70.83 747.141 73.8855 751.748 Q76.9642 756.331 76.9642 765.081 Q76.9642 773.808 73.8855 778.414 Q70.83 782.997 65.0198 782.997 Q59.2097 782.997 56.131 778.414 Q53.0754 773.808 53.0754 765.081 Q53.0754 756.331 56.131 751.748 Q59.2097 747.141 65.0198 747.141 Z" fill="#000000" fill-rule="nonzero" fill-opacity="1" /><path clip-path="url(#clip260)" d="M85.1818 776.446 L90.066 776.446 L90.066 782.326 L85.1818 782.326 L85.1818 776.446 Z" fill="#000000" fill-rule="nonzero" fill-opacity="1" /><path clip-path="url(#clip260)" d="M104.279 778.391 L120.598 778.391 L120.598 782.326 L98.6539 782.326 L98.6539 778.391 Q101.316 775.636 105.899 771.007 Q110.506 766.354 111.686 765.011 Q113.932 762.488 114.811 760.752 Q115.714 758.993 115.714 757.303 Q115.714 754.548 113.77 752.812 Q111.848 751.076 108.746 751.076 Q106.547 751.076 104.094 751.84 Q101.663 752.604 98.8854 754.155 L98.8854 749.433 Q101.709 748.298 104.163 747.72 Q106.617 747.141 108.654 747.141 Q114.024 747.141 117.219 749.826 Q120.413 752.511 120.413 757.002 Q120.413 759.132 119.603 761.053 Q118.816 762.951 116.709 765.544 Q116.131 766.215 113.029 769.433 Q109.927 772.627 104.279 778.391 Z" fill="#000000" fill-rule="nonzero" fill-opacity="1" /><path clip-path="url(#clip260)" d="M64.0708 410.51 Q60.4597 410.51 58.631 414.075 Q56.8254 417.616 56.8254 424.746 Q56.8254 431.852 58.631 435.417 Q60.4597 438.959 64.0708 438.959 Q67.705 438.959 69.5105 435.417 Q71.3392 431.852 71.3392 424.746 Q71.3392 417.616 69.5105 414.075 Q67.705 410.51 64.0708 410.51 M64.0708 406.806 Q69.8809 406.806 72.9365 411.413 Q76.0151 415.996 76.0151 424.746 Q76.0151 433.473 72.9365 438.079 Q69.8809 442.663 64.0708 442.663 Q58.2606 442.663 55.1819 438.079 Q52.1264 433.473 52.1264 424.746 Q52.1264 415.996 55.1819 411.413 Q58.2606 406.806 64.0708 406.806 Z" fill="#000000" fill-rule="nonzero" fill-opacity="1" /><path clip-path="url(#clip260)" d="M84.2327 436.112 L89.1169 436.112 L89.1169 441.991 L84.2327 441.991 L84.2327 436.112 Z" fill="#000000" fill-rule="nonzero" fill-opacity="1" /><path clip-path="url(#clip260)" d="M113.469 423.357 Q116.825 424.075 118.7 426.343 Q120.598 428.612 120.598 431.945 Q120.598 437.061 117.08 439.862 Q113.561 442.663 107.08 442.663 Q104.904 442.663 102.589 442.223 Q100.297 441.806 97.8437 440.95 L97.8437 436.436 Q99.7882 437.57 102.103 438.149 Q104.418 438.727 106.941 438.727 Q111.339 438.727 113.631 436.991 Q115.945 435.255 115.945 431.945 Q115.945 428.89 113.793 427.177 Q111.663 425.44 107.844 425.44 L103.816 425.44 L103.816 421.598 L108.029 421.598 Q111.478 421.598 113.307 420.232 Q115.135 418.843 115.135 416.251 Q115.135 413.589 113.237 412.177 Q111.362 410.741 107.844 410.741 Q105.922 410.741 103.723 411.158 Q101.524 411.575 98.8854 412.454 L98.8854 408.288 Q101.547 407.547 103.862 407.177 Q106.2 406.806 108.26 406.806 Q113.584 406.806 116.686 409.237 Q119.788 411.644 119.788 415.765 Q119.788 418.635 118.145 420.626 Q116.501 422.593 113.469 423.357 Z" fill="#000000" fill-rule="nonzero" fill-opacity="1" /><path clip-path="url(#clip260)" d="M62.9365 70.1752 Q59.3254 70.1752 57.4967 73.74 Q55.6912 77.2816 55.6912 84.4112 Q55.6912 91.5177 57.4967 95.0825 Q59.3254 98.6241 62.9365 98.6241 Q66.5707 98.6241 68.3763 95.0825 Q70.205 91.5177 70.205 84.4112 Q70.205 77.2816 68.3763 73.74 Q66.5707 70.1752 62.9365 70.1752 M62.9365 66.4715 Q68.7467 66.4715 71.8022 71.0779 Q74.8809 75.6613 74.8809 84.4112 Q74.8809 93.138 71.8022 97.7445 Q68.7467 102.328 62.9365 102.328 Q57.1264 102.328 54.0477 97.7445 Q50.9921 93.138 50.9921 84.4112 Q50.9921 75.6613 54.0477 71.0779 Q57.1264 66.4715 62.9365 66.4715 Z" fill="#000000" fill-rule="nonzero" fill-opacity="1" /><path clip-path="url(#clip260)" d="M83.0984 95.7769 L87.9827 95.7769 L87.9827 101.656 L83.0984 101.656 L83.0984 95.7769 Z" fill="#000000" fill-rule="nonzero" fill-opacity="1" /><path clip-path="url(#clip260)" d="M111.015 71.1705 L99.2095 89.6195 L111.015 89.6195 L111.015 71.1705 M109.788 67.0965 L115.668 67.0965 L115.668 89.6195 L120.598 89.6195 L120.598 93.5084 L115.668 93.5084 L115.668 101.656 L111.015 101.656 L111.015 93.5084 L95.4132 93.5084 L95.4132 88.9945 L109.788 67.0965 Z" fill="#000000" fill-rule="nonzero" fill-opacity="1" /><path clip-path="url(#clip262)" d="M2060.4 1445.72 L2060.4 1445.72 L2081.32 1445.72 L2081.32 1445.72 L2081.32 1445.72 L2081.32 1445.72 L2060.4 1445.72 L2060.4 1445.72  Z" fill="#191970" fill-rule="evenodd" fill-opacity="3.31528e-14"/>
<polyline clip-path="url(#clip262)" style="stroke:#000000; stroke-linecap:round; stroke-linejoin:round; stroke-width:4; stroke-opacity:1; fill:none" points="2060.4,1445.72 2060.4,1445.72 2081.32,1445.72 2081.32,1445.72 "/>
<path clip-path="url(#clip262)" d="M1286.07 1445.72 L1286.07 194.398 L1307 194.398 L1307 1445.72 L1307 1445.72 L1307 1445.72 L1286.07 1445.72 L1286.07 1445.72  Z" fill="#191970" fill-rule="evenodd" fill-opacity="0.921618"/>
<polyline clip-path="url(#clip262)" style="stroke:#000000; stroke-linecap:round; stroke-linejoin:round; stroke-width:4; stroke-opacity:1; fill:none" points="1286.07,1445.72 1286.07,194.398 1307,194.398 1307,1445.72 "/>
<path clip-path="url(#clip262)" d="M1327.92 1445.72 L1327.92 466.18 L1348.85 466.18 L1348.85 1445.72 L1348.85 1445.72 L1348.85 1445.72 L1327.92 1445.72 L1327.92 1445.72  Z" fill="#191970" fill-rule="evenodd" fill-opacity="0.721446"/>
<polyline clip-path="url(#clip262)" style="stroke:#000000; stroke-linecap:round; stroke-linejoin:round; stroke-width:4; stroke-opacity:1; fill:none" points="1327.92,1445.72 1327.92,466.18 1348.85,466.18 1348.85,1445.72 "/>
<path clip-path="url(#clip262)" d="M783.803 1445.72 L783.803 1445.65 L804.731 1445.65 L804.731 1445.72 L804.731 1445.72 L804.731 1445.72 L783.803 1445.72 L783.803 1445.72  Z" fill="#191970" fill-rule="evenodd" fill-opacity="5.13655e-05"/>
<polyline clip-path="url(#clip262)" style="stroke:#000000; stroke-linecap:round; stroke-linejoin:round; stroke-width:4; stroke-opacity:1; fill:none" points="783.803,1445.72 783.803,1445.65 804.731,1445.65 804.731,1445.72 "/>
<path clip-path="url(#clip262)" d="M532.67 1445.72 L532.67 1445.72 L553.598 1445.72 L553.598 1445.72 L553.598 1445.72 L553.598 1445.72 L532.67 1445.72 L532.67 1445.72  Z" fill="#191970" fill-rule="evenodd" fill-opacity="5.69169e-11"/>
<polyline clip-path="url(#clip262)" style="stroke:#000000; stroke-linecap:round; stroke-linejoin:round; stroke-width:4; stroke-opacity:1; fill:none" points="532.67,1445.72 532.67,1445.72 553.598,1445.72 553.598,1445.72 "/>
<path clip-path="url(#clip262)" d="M1872.05 1445.72 L1872.05 1445.72 L1892.97 1445.72 L1892.97 1445.72 L1892.97 1445.72 L1892.97 1445.72 L1872.05 1445.72 L1872.05 1445.72  Z" fill="#191970" fill-rule="evenodd" fill-opacity="1.05676e-08"/>
<polyline clip-path="url(#clip262)" style="stroke:#000000; stroke-linecap:round; stroke-linejoin:round; stroke-width:4; stroke-opacity:1; fill:none" points="1872.05,1445.72 1872.05,1445.72 1892.97,1445.72 1892.97,1445.72 "/>
<path clip-path="url(#clip262)" d="M302.465 1445.72 L302.465 1445.72 L323.392 1445.72 L323.392 1445.72 L323.392 1445.72 L323.392 1445.72 L302.465 1445.72 L302.465 1445.72  Z" fill="#191970" fill-rule="evenodd" fill-opacity="1.13174e-18"/>
<polyline clip-path="url(#clip262)" style="stroke:#000000; stroke-linecap:round; stroke-linejoin:round; stroke-width:4; stroke-opacity:1; fill:none" points="302.465,1445.72 302.465,1445.72 323.392,1445.72 "/>
<path clip-path="url(#clip262)" d="M2039.47 1445.72 L2039.47 1445.72 L2060.4 1445.72 L2060.4 1445.72 L2060.4 1445.72 L2060.4 1445.72 L2039.47 1445.72 L2039.47 1445.72  Z" fill="#191970" fill-rule="evenodd" fill-opacity="1.59556e-13"/>
<polyline clip-path="url(#clip262)" style="stroke:#000000; stroke-linecap:round; stroke-linejoin:round; stroke-width:4; stroke-opacity:1; fill:none" points="2039.47,1445.72 2039.47,1445.72 2060.4,1445.72 2060.4,1445.72 "/>
<path clip-path="url(#clip262)" d="M2081.32 1445.72 L2081.32 1445.72 L2102.25 1445.72 L2102.25 1445.72 L2102.25 1445.72 L2102.25 1445.72 L2081.32 1445.72 L2081.32 1445.72  Z" fill="#191970" fill-rule="evenodd" fill-opacity="6.61306e-15"/>
<polyline clip-path="url(#clip262)" style="stroke:#000000; stroke-linecap:round; stroke-linejoin:round; stroke-width:4; stroke-opacity:1; fill:none" points="2081.32,1445.72 2081.32,1445.72 2102.25,1445.72 2102.25,1445.72 "/>
<path clip-path="url(#clip262)" d="M2123.18 1445.72 L2123.18 1445.72 L2144.11 1445.72 L2144.11 1445.72 L2144.11 1445.72 L2144.11 1445.72 L2123.18 1445.72 L2123.18 1445.72  Z" fill="#191970" fill-rule="evenodd" fill-opacity="2.32805e-16"/>
<polyline clip-path="url(#clip262)" style="stroke:#000000; stroke-linecap:round; stroke-linejoin:round; stroke-width:4; stroke-opacity:1; fill:none" points="2123.18,1445.72 2123.18,1445.72 2144.11,1445.72 2144.11,1445.72 "/>
<path clip-path="url(#clip262)" d="M1390.71 1445.72 L1390.71 946.18 L1411.64 946.18 L1411.64 1445.72 L1411.64 1445.72 L1411.64 1445.72 L1390.71 1445.72 L1390.71 1445.72  Z" fill="#191970" fill-rule="evenodd" fill-opacity="0.367917"/>
<polyline clip-path="url(#clip262)" style="stroke:#000000; stroke-linecap:round; stroke-linejoin:round; stroke-width:4; stroke-opacity:1; fill:none" points="1390.71,1445.72 1390.71,946.18 1411.64,946.18 1411.64,1445.72 "/>
<path clip-path="url(#clip262)" d="M1411.64 1445.72 L1411.64 1077.9 L1432.56 1077.9 L1432.56 1445.72 L1432.56 1445.72 L1432.56 1445.72 L1411.64 1445.72 L1411.64 1445.72  Z" fill="#191970" fill-rule="evenodd" fill-opacity="0.270904"/>
<polyline clip-path="url(#clip262)" style="stroke:#000000; stroke-linecap:round; stroke-linejoin:round; stroke-width:4; stroke-opacity:1; fill:none" points="1411.64,1445.72 1411.64,1077.9 1432.56,1077.9 1432.56,1445.72 "/>
<path clip-path="url(#clip262)" d="M1704.62 1445.72 L1704.62 1445.65 L1725.55 1445.65 L1725.55 1445.72 L1725.55 1445.72 L1725.55 1445.72 L1704.62 1445.72 L1704.62 1445.72  Z" fill="#191970" fill-rule="evenodd" fill-opacity="5.13655e-05"/>
<polyline clip-path="url(#clip262)" style="stroke:#000000; stroke-linecap:round; stroke-linejoin:round; stroke-width:4; stroke-opacity:1; fill:none" points="1704.62,1445.72 1704.62,1445.65 1725.55,1445.65 1725.55,1445.72 "/>
<path clip-path="url(#clip262)" d="M1579.06 1445.72 L1579.06 1438.4 L1599.98 1438.4 L1599.98 1445.72 L1599.98 1445.72 L1599.98 1445.72 L1579.06 1445.72 L1579.06 1445.72  Z" fill="#191970" fill-rule="evenodd" fill-opacity="0.00538598"/>
<polyline clip-path="url(#clip262)" style="stroke:#000000; stroke-linecap:round; stroke-linejoin:round; stroke-width:4; stroke-opacity:1; fill:none" points="1579.06,1445.72 1579.06,1438.4 1599.98,1438.4 1599.98,1445.72 "/>
<path clip-path="url(#clip262)" d="M1055.86 1445.72 L1055.86 1185.72 L1076.79 1185.72 L1076.79 1445.72 L1076.79 1445.72 L1076.79 1445.72 L1055.86 1445.72 L1055.86 1445.72  Z" fill="#191970" fill-rule="evenodd" fill-opacity="0.191495"/>
<polyline clip-path="url(#clip262)" style="stroke:#000000; stroke-linecap:round; stroke-linejoin:round; stroke-width:4; stroke-opacity:1; fill:none" points="1055.86,1445.72 1055.86,1185.72 1076.79,1185.72 1076.79,1445.72 "/>
<path clip-path="url(#clip262)" d="M1076.79 1445.72 L1076.79 1077.9 L1097.72 1077.9 L1097.72 1445.72 L1097.72 1445.72 L1097.72 1445.72 L1076.79 1445.72 L1076.79 1445.72  Z" fill="#191970" fill-rule="evenodd" fill-opacity="0.270904"/>
<polyline clip-path="url(#clip262)" style="stroke:#000000; stroke-linecap:round; stroke-linejoin:round; stroke-width:4; stroke-opacity:1; fill:none" points="1076.79,1445.72 1076.79,1077.9 1097.72,1077.9 1097.72,1445.72 "/>
<path clip-path="url(#clip262)" d="M1307 1445.72 L1307 315.774 L1327.92 315.774 L1327.92 1445.72 L1327.92 1445.72 L1327.92 1445.72 L1307 1445.72 L1307 1445.72  Z" fill="#191970" fill-rule="evenodd" fill-opacity="0.832223"/>
<polyline clip-path="url(#clip262)" style="stroke:#000000; stroke-linecap:round; stroke-linejoin:round; stroke-width:4; stroke-opacity:1; fill:none" points="1307,1445.72 1307,315.774 1327.92,315.774 1327.92,1445.72 "/>
<path clip-path="url(#clip262)" d="M846.586 1445.72 L846.586 1444.86 L867.514 1444.86 L867.514 1445.72 L867.514 1445.72 L867.514 1445.72 L846.586 1445.72 L846.586 1445.72  Z" fill="#191970" fill-rule="evenodd" fill-opacity="0.000632016"/>
<polyline clip-path="url(#clip262)" style="stroke:#000000; stroke-linecap:round; stroke-linejoin:round; stroke-width:4; stroke-opacity:1; fill:none" points="846.586,1445.72 846.586,1444.86 867.514,1444.86 867.514,1445.72 "/>
<path clip-path="url(#clip262)" d="M1767.41 1445.72 L1767.41 1445.71 L1788.33 1445.71 L1788.33 1445.72 L1788.33 1445.72 L1788.33 1445.72 L1767.41 1445.72 L1767.41 1445.72  Z" fill="#191970" fill-rule="evenodd" fill-opacity="2.89131e-06"/>
<polyline clip-path="url(#clip262)" style="stroke:#000000; stroke-linecap:round; stroke-linejoin:round; stroke-width:4; stroke-opacity:1; fill:none" points="1767.41,1445.72 1767.41,1445.71 1788.33,1445.71 1788.33,1445.72 "/>
<path clip-path="url(#clip262)" d="M930.297 1445.72 L930.297 1431.95 L951.225 1431.95 L951.225 1445.72 L951.225 1445.72 L951.225 1445.72 L930.297 1445.72 L930.297 1445.72  Z" fill="#191970" fill-rule="evenodd" fill-opacity="0.010139"/>
<polyline clip-path="url(#clip262)" style="stroke:#000000; stroke-linecap:round; stroke-linejoin:round; stroke-width:4; stroke-opacity:1; fill:none" points="930.297,1445.72 930.297,1431.95 951.225,1431.95 951.225,1445.72 "/>
<path clip-path="url(#clip262)" d="M1432.56 1445.72 L1432.56 1185.72 L1453.49 1185.72 L1453.49 1445.72 L1453.49 1445.72 L1453.49 1445.72 L1432.56 1445.72 L1432.56 1445.72  Z" fill="#191970" fill-rule="evenodd" fill-opacity="0.191495"/>
<polyline clip-path="url(#clip262)" style="stroke:#000000; stroke-linecap:round; stroke-linejoin:round; stroke-width:4; stroke-opacity:1; fill:none" points="1432.56,1445.72 1432.56,1185.72 1453.49,1185.72 1453.49,1445.72 "/>
<path clip-path="url(#clip262)" d="M2102.25 1445.72 L2102.25 1445.72 L2123.18 1445.72 L2123.18 1445.72 L2123.18 1445.72 L2123.18 1445.72 L2102.25 1445.72 L2102.25 1445.72  Z" fill="#191970" fill-rule="evenodd" fill-opacity="1.26637e-15"/>
<polyline clip-path="url(#clip262)" style="stroke:#000000; stroke-linecap:round; stroke-linejoin:round; stroke-width:4; stroke-opacity:1; fill:none" points="2102.25,1445.72 2102.25,1445.72 2123.18,1445.72 2123.18,1445.72 "/>
<path clip-path="url(#clip262)" d="M1160.5 1445.72 L1160.5 466.18 L1181.43 466.18 L1181.43 1445.72 L1181.43 1445.72 L1181.43 1445.72 L1160.5 1445.72 L1160.5 1445.72  Z" fill="#191970" fill-rule="evenodd" fill-opacity="0.721446"/>
<polyline clip-path="url(#clip262)" style="stroke:#000000; stroke-linecap:round; stroke-linejoin:round; stroke-width:4; stroke-opacity:1; fill:none" points="1160.5,1445.72 1160.5,466.18 1181.43,466.18 1181.43,1445.72 "/>
<path clip-path="url(#clip262)" d="M2269.67 1445.72 L2269.67 1445.72 L2290.6 1445.72 L2290.6 1445.72 L2290.6 1445.72 L2290.6 1445.72 L2269.67 1445.72 L2269.67 1445.72  Z" fill="#191970" fill-rule="evenodd" fill-opacity="0"/>
<polyline clip-path="url(#clip262)" style="stroke:#000000; stroke-linecap:round; stroke-linejoin:round; stroke-width:4; stroke-opacity:1; fill:none" points="2269.67,1445.72 2269.67,1445.72 2290.6,1445.72 "/>
<path clip-path="url(#clip262)" d="M1034.94 1445.72 L1034.94 1269.28 L1055.86 1269.28 L1055.86 1445.72 L1055.86 1445.72 L1055.86 1445.72 L1034.94 1445.72 L1034.94 1445.72  Z" fill="#191970" fill-rule="evenodd" fill-opacity="0.12995"/>
<polyline clip-path="url(#clip262)" style="stroke:#000000; stroke-linecap:round; stroke-linejoin:round; stroke-width:4; stroke-opacity:1; fill:none" points="1034.94,1445.72 1034.94,1269.28 1055.86,1269.28 1055.86,1445.72 "/>
<path clip-path="url(#clip262)" d="M2144.11 1445.72 L2144.11 1445.72 L2165.03 1445.72 L2165.03 1445.72 L2165.03 1445.72 L2165.03 1445.72 L2144.11 1445.72 L2144.11 1445.72  Z" fill="#191970" fill-rule="evenodd" fill-opacity="4.10863e-17"/>
<polyline clip-path="url(#clip262)" style="stroke:#000000; stroke-linecap:round; stroke-linejoin:round; stroke-width:4; stroke-opacity:1; fill:none" points="2144.11,1445.72 2144.11,1445.72 2165.03,1445.72 2165.03,1445.72 "/>
<path clip-path="url(#clip262)" d="M2206.89 1445.72 L2206.89 1445.72 L2227.82 1445.72 L2227.82 1445.72 L2227.82 1445.72 L2227.82 1445.72 L2206.89 1445.72 L2206.89 1445.72  Z" fill="#191970" fill-rule="evenodd" fill-opacity="1.76273e-19"/>
<polyline clip-path="url(#clip262)" style="stroke:#000000; stroke-linecap:round; stroke-linejoin:round; stroke-width:4; stroke-opacity:1; fill:none" points="2206.89,1445.72 2206.89,1445.72 2227.82,1445.72 "/>
<path clip-path="url(#clip262)" d="M700.092 1445.72 L700.092 1445.71 L721.02 1445.71 L721.02 1445.72 L721.02 1445.72 L721.02 1445.72 L700.092 1445.72 L700.092 1445.72  Z" fill="#191970" fill-rule="evenodd" fill-opacity="1.02122e-06"/>
<polyline clip-path="url(#clip262)" style="stroke:#000000; stroke-linecap:round; stroke-linejoin:round; stroke-width:4; stroke-opacity:1; fill:none" points="700.092,1445.72 700.092,1445.71 721.02,1445.71 721.02,1445.72 "/>
<path clip-path="url(#clip262)" d="M1788.33 1445.72 L1788.33 1445.71 L1809.26 1445.71 L1809.26 1445.72 L1809.26 1445.72 L1809.26 1445.72 L1788.33 1445.72 L1788.33 1445.72  Z" fill="#191970" fill-rule="evenodd" fill-opacity="1.02122e-06"/>
<polyline clip-path="url(#clip262)" style="stroke:#000000; stroke-linecap:round; stroke-linejoin:round; stroke-width:4; stroke-opacity:1; fill:none" points="1788.33,1445.72 1788.33,1445.71 1809.26,1445.71 1809.26,1445.72 "/>
<path clip-path="url(#clip262)" d="M1809.26 1445.72 L1809.26 1445.72 L1830.19 1445.72 L1830.19 1445.72 L1830.19 1445.72 L1830.19 1445.72 L1809.26 1445.72 L1809.26 1445.72  Z" fill="#191970" fill-rule="evenodd" fill-opacity="3.46275e-07"/>
<polyline clip-path="url(#clip262)" style="stroke:#000000; stroke-linecap:round; stroke-linejoin:round; stroke-width:4; stroke-opacity:1; fill:none" points="1809.26,1445.72 1809.26,1445.72 1830.19,1445.72 1830.19,1445.72 "/>
<path clip-path="url(#clip262)" d="M2227.82 1445.72 L2227.82 1445.72 L2248.75 1445.72 L2248.75 1445.72 L2248.75 1445.72 L2248.75 1445.72 L2227.82 1445.72 L2227.82 1445.72  Z" fill="#191970" fill-rule="evenodd" fill-opacity="2.5976e-20"/>
<polyline clip-path="url(#clip262)" style="stroke:#000000; stroke-linecap:round; stroke-linejoin:round; stroke-width:4; stroke-opacity:1; fill:none" points="2227.82,1445.72 2227.82,1445.72 2248.75,1445.72 "/>
<path clip-path="url(#clip262)" d="M679.164 1445.72 L679.164 1445.72 L700.092 1445.72 L700.092 1445.72 L700.092 1445.72 L700.092 1445.72 L679.164 1445.72 L679.164 1445.72  Z" fill="#191970" fill-rule="evenodd" fill-opacity="3.46275e-07"/>
<polyline clip-path="url(#clip262)" style="stroke:#000000; stroke-linecap:round; stroke-linejoin:round; stroke-width:4; stroke-opacity:1; fill:none" points="679.164,1445.72 679.164,1445.72 700.092,1445.72 700.092,1445.72 "/>
<path clip-path="url(#clip262)" d="M1641.84 1445.72 L1641.84 1444.86 L1662.77 1444.86 L1662.77 1445.72 L1662.77 1445.72 L1662.77 1445.72 L1641.84 1445.72 L1641.84 1445.72  Z" fill="#191970" fill-rule="evenodd" fill-opacity="0.000632016"/>
<polyline clip-path="url(#clip262)" style="stroke:#000000; stroke-linecap:round; stroke-linejoin:round; stroke-width:4; stroke-opacity:1; fill:none" points="1641.84,1445.72 1641.84,1444.86 1662.77,1444.86 1662.77,1445.72 "/>
<path clip-path="url(#clip262)" d="M239.681 1445.72 L239.681 1445.72 L260.609 1445.72 L260.609 1445.72 L260.609 1445.72 L260.609 1445.72 L239.681 1445.72 L239.681 1445.72  Z" fill="#191970" fill-rule="evenodd" fill-opacity="3.28708e-21"/>
<polyline clip-path="url(#clip262)" style="stroke:#000000; stroke-linecap:round; stroke-linejoin:round; stroke-width:4; stroke-opacity:1; fill:none" points="239.681,1445.72 239.681,1445.72 260.609,1445.72 "/>
<path clip-path="url(#clip262)" d="M386.176 1445.72 L386.176 1445.72 L407.103 1445.72 L407.103 1445.72 L407.103 1445.72 L407.103 1445.72 L386.176 1445.72 L386.176 1445.72  Z" fill="#191970" fill-rule="evenodd" fill-opacity="1.26637e-15"/>
<polyline clip-path="url(#clip262)" style="stroke:#000000; stroke-linecap:round; stroke-linejoin:round; stroke-width:4; stroke-opacity:1; fill:none" points="386.176,1445.72 386.176,1445.72 407.103,1445.72 407.103,1445.72 "/>
<path clip-path="url(#clip262)" d="M469.887 1445.72 L469.887 1445.72 L490.814 1445.72 L490.814 1445.72 L490.814 1445.72 L490.814 1445.72 L469.887 1445.72 L469.887 1445.72  Z" fill="#191970" fill-rule="evenodd" fill-opacity="7.37194e-13"/>
<polyline clip-path="url(#clip262)" style="stroke:#000000; stroke-linecap:round; stroke-linejoin:round; stroke-width:4; stroke-opacity:1; fill:none" points="469.887,1445.72 469.887,1445.72 490.814,1445.72 490.814,1445.72 "/>
<path clip-path="url(#clip262)" d="M1265.14 1445.72 L1265.14 115.402 L1286.07 115.402 L1286.07 1445.72 L1286.07 1445.72 L1286.07 1445.72 L1265.14 1445.72 L1265.14 1445.72  Z" fill="#191970" fill-rule="evenodd" fill-opacity="0.979801"/>
<polyline clip-path="url(#clip262)" style="stroke:#000000; stroke-linecap:round; stroke-linejoin:round; stroke-width:4; stroke-opacity:1; fill:none" points="1265.14,1445.72 1265.14,115.402 1286.07,115.402 1286.07,1445.72 "/>
<path clip-path="url(#clip262)" d="M1202.36 1445.72 L1202.36 194.398 L1223.29 194.398 L1223.29 1445.72 L1223.29 1445.72 L1223.29 1445.72 L1202.36 1445.72 L1202.36 1445.72  Z" fill="#191970" fill-rule="evenodd" fill-opacity="0.921618"/>
<polyline clip-path="url(#clip262)" style="stroke:#000000; stroke-linecap:round; stroke-linejoin:round; stroke-width:4; stroke-opacity:1; fill:none" points="1202.36,1445.72 1202.36,194.398 1223.29,194.398 1223.29,1445.72 "/>
<path clip-path="url(#clip262)" d="M344.32 1445.72 L344.32 1445.72 L365.248 1445.72 L365.248 1445.72 L365.248 1445.72 L365.248 1445.72 L344.32 1445.72 L344.32 1445.72  Z" fill="#191970" fill-rule="evenodd" fill-opacity="4.10863e-17"/>
<polyline clip-path="url(#clip262)" style="stroke:#000000; stroke-linecap:round; stroke-linejoin:round; stroke-width:4; stroke-opacity:1; fill:none" points="344.32,1445.72 344.32,1445.72 365.248,1445.72 365.248,1445.72 "/>
<path clip-path="url(#clip262)" d="M1097.72 1445.72 L1097.72 946.18 L1118.65 946.18 L1118.65 1445.72 L1118.65 1445.72 L1118.65 1445.72 L1097.72 1445.72 L1097.72 1445.72  Z" fill="#191970" fill-rule="evenodd" fill-opacity="0.367917"/>
<polyline clip-path="url(#clip262)" style="stroke:#000000; stroke-linecap:round; stroke-linejoin:round; stroke-width:4; stroke-opacity:1; fill:none" points="1097.72,1445.72 1097.72,946.18 1118.65,946.18 1118.65,1445.72 "/>
<path clip-path="url(#clip262)" d="M1725.55 1445.72 L1725.55 1445.69 L1746.48 1445.69 L1746.48 1445.72 L1746.48 1445.72 L1746.48 1445.72 L1725.55 1445.72 L1725.55 1445.72  Z" fill="#191970" fill-rule="evenodd" fill-opacity="2.05055e-05"/>
<polyline clip-path="url(#clip262)" style="stroke:#000000; stroke-linecap:round; stroke-linejoin:round; stroke-width:4; stroke-opacity:1; fill:none" points="1725.55,1445.72 1725.55,1445.69 1746.48,1445.69 1746.48,1445.72 "/>
<path clip-path="url(#clip262)" d="M574.525 1445.72 L574.525 1445.72 L595.453 1445.72 L595.453 1445.72 L595.453 1445.72 L595.453 1445.72 L574.525 1445.72 L574.525 1445.72  Z" fill="#191970" fill-rule="evenodd" fill-opacity="8.41507e-10"/>
<polyline clip-path="url(#clip262)" style="stroke:#000000; stroke-linecap:round; stroke-linejoin:round; stroke-width:4; stroke-opacity:1; fill:none" points="574.525,1445.72 574.525,1445.72 595.453,1445.72 595.453,1445.72 "/>
<path clip-path="url(#clip262)" d="M2018.54 1445.72 L2018.54 1445.72 L2039.47 1445.72 L2039.47 1445.72 L2039.47 1445.72 L2039.47 1445.72 L2018.54 1445.72 L2018.54 1445.72  Z" fill="#191970" fill-rule="evenodd" fill-opacity="7.37194e-13"/>
<polyline clip-path="url(#clip262)" style="stroke:#000000; stroke-linecap:round; stroke-linejoin:round; stroke-width:4; stroke-opacity:1; fill:none" points="2018.54,1445.72 2018.54,1445.72 2039.47,1445.72 2039.47,1445.72 "/>
<path clip-path="url(#clip262)" d="M1244.21 1445.72 L1244.21 87.9763 L1265.14 87.9763 L1265.14 1445.72 L1265.14 1445.72 L1265.14 1445.72 L1244.21 1445.72 L1244.21 1445.72  Z" fill="#191970" fill-rule="evenodd" fill-opacity="1"/>
<polyline clip-path="url(#clip262)" style="stroke:#000000; stroke-linecap:round; stroke-linejoin:round; stroke-width:4; stroke-opacity:1; fill:none" points="1244.21,1445.72 1244.21,87.9763 1265.14,87.9763 1265.14,1445.72 "/>
<path clip-path="url(#clip262)" d="M1453.49 1445.72 L1453.49 1269.28 L1474.42 1269.28 L1474.42 1445.72 L1474.42 1445.72 L1474.42 1445.72 L1453.49 1445.72 L1453.49 1445.72  Z" fill="#191970" fill-rule="evenodd" fill-opacity="0.12995"/>
<polyline clip-path="url(#clip262)" style="stroke:#000000; stroke-linecap:round; stroke-linejoin:round; stroke-width:4; stroke-opacity:1; fill:none" points="1453.49,1445.72 1453.49,1269.28 1474.42,1269.28 1474.42,1445.72 "/>
<path clip-path="url(#clip262)" d="M323.392 1445.72 L323.392 1445.72 L344.32 1445.72 L344.32 1445.72 L344.32 1445.72 L344.32 1445.72 L323.392 1445.72 L323.392 1445.72  Z" fill="#191970" fill-rule="evenodd" fill-opacity="6.96072e-18"/>
<polyline clip-path="url(#clip262)" style="stroke:#000000; stroke-linecap:round; stroke-linejoin:round; stroke-width:4; stroke-opacity:1; fill:none" points="323.392,1445.72 323.392,1445.72 344.32,1445.72 "/>
<path clip-path="url(#clip262)" d="M1558.13 1445.72 L1558.13 1431.95 L1579.06 1431.95 L1579.06 1445.72 L1579.06 1445.72 L1579.06 1445.72 L1558.13 1445.72 L1558.13 1445.72  Z" fill="#191970" fill-rule="evenodd" fill-opacity="0.010139"/>
<polyline clip-path="url(#clip262)" style="stroke:#000000; stroke-linecap:round; stroke-linejoin:round; stroke-width:4; stroke-opacity:1; fill:none" points="1558.13,1445.72 1558.13,1431.95 1579.06,1431.95 1579.06,1445.72 "/>
<path clip-path="url(#clip262)" d="M762.875 1445.72 L762.875 1445.69 L783.803 1445.69 L783.803 1445.72 L783.803 1445.72 L783.803 1445.72 L762.875 1445.72 L762.875 1445.72  Z" fill="#191970" fill-rule="evenodd" fill-opacity="2.05055e-05"/>
<polyline clip-path="url(#clip262)" style="stroke:#000000; stroke-linecap:round; stroke-linejoin:round; stroke-width:4; stroke-opacity:1; fill:none" points="762.875,1445.72 762.875,1445.69 783.803,1445.69 783.803,1445.72 "/>
<path clip-path="url(#clip262)" d="M365.248 1445.72 L365.248 1445.72 L386.176 1445.72 L386.176 1445.72 L386.176 1445.72 L386.176 1445.72 L365.248 1445.72 L365.248 1445.72  Z" fill="#191970" fill-rule="evenodd" fill-opacity="2.32805e-16"/>
<polyline clip-path="url(#clip262)" style="stroke:#000000; stroke-linecap:round; stroke-linejoin:round; stroke-width:4; stroke-opacity:1; fill:none" points="365.248,1445.72 365.248,1445.72 386.176,1445.72 386.176,1445.72 "/>
<path clip-path="url(#clip262)" d="M1997.61 1445.72 L1997.61 1445.72 L2018.54 1445.72 L2018.54 1445.72 L2018.54 1445.72 L2018.54 1445.72 L1997.61 1445.72 L1997.61 1445.72  Z" fill="#191970" fill-rule="evenodd" fill-opacity="3.26984e-12"/>
<polyline clip-path="url(#clip262)" style="stroke:#000000; stroke-linecap:round; stroke-linejoin:round; stroke-width:4; stroke-opacity:1; fill:none" points="1997.61,1445.72 1997.61,1445.72 2018.54,1445.72 2018.54,1445.72 "/>
<path clip-path="url(#clip262)" d="M2248.75 1445.72 L2248.75 1445.72 L2269.67 1445.72 L2269.67 1445.72 L2269.67 1445.72 L2269.67 1445.72 L2248.75 1445.72 L2248.75 1445.72  Z" fill="#191970" fill-rule="evenodd" fill-opacity="3.28708e-21"/>
<polyline clip-path="url(#clip262)" style="stroke:#000000; stroke-linecap:round; stroke-linejoin:round; stroke-width:4; stroke-opacity:1; fill:none" points="2248.75,1445.72 2248.75,1445.72 2269.67,1445.72 "/>
<path clip-path="url(#clip262)" d="M1913.9 1445.72 L1913.9 1445.72 L1934.83 1445.72 L1934.83 1445.72 L1934.83 1445.72 L1934.83 1445.72 L1913.9 1445.72 L1913.9 1445.72  Z" fill="#191970" fill-rule="evenodd" fill-opacity="8.41507e-10"/>
<polyline clip-path="url(#clip262)" style="stroke:#000000; stroke-linecap:round; stroke-linejoin:round; stroke-width:4; stroke-opacity:1; fill:none" points="1913.9,1445.72 1913.9,1445.72 1934.83,1445.72 1934.83,1445.72 "/>
<path clip-path="url(#clip262)" d="M407.103 1445.72 L407.103 1445.72 L428.031 1445.72 L428.031 1445.72 L428.031 1445.72 L428.031 1445.72 L407.103 1445.72 L407.103 1445.72  Z" fill="#191970" fill-rule="evenodd" fill-opacity="6.61306e-15"/>
<polyline clip-path="url(#clip262)" style="stroke:#000000; stroke-linecap:round; stroke-linejoin:round; stroke-width:4; stroke-opacity:1; fill:none" points="407.103,1445.72 407.103,1445.72 428.031,1445.72 428.031,1445.72 "/>
<path clip-path="url(#clip262)" d="M888.442 1445.72 L888.442 1441.99 L909.369 1441.99 L909.369 1445.72 L909.369 1445.72 L909.369 1445.72 L888.442 1445.72 L888.442 1445.72  Z" fill="#191970" fill-rule="evenodd" fill-opacity="0.00274669"/>
<polyline clip-path="url(#clip262)" style="stroke:#000000; stroke-linecap:round; stroke-linejoin:round; stroke-width:4; stroke-opacity:1; fill:none" points="888.442,1445.72 888.442,1441.99 909.369,1441.99 909.369,1445.72 "/>
<path clip-path="url(#clip262)" d="M260.609 1445.72 L260.609 1445.72 L281.537 1445.72 L281.537 1445.72 L281.537 1445.72 L281.537 1445.72 L260.609 1445.72 L260.609 1445.72  Z" fill="#191970" fill-rule="evenodd" fill-opacity="2.5976e-20"/>
<polyline clip-path="url(#clip262)" style="stroke:#000000; stroke-linecap:round; stroke-linejoin:round; stroke-width:4; stroke-opacity:1; fill:none" points="260.609,1445.72 260.609,1445.72 281.537,1445.72 "/>
<path clip-path="url(#clip262)" d="M1934.83 1445.72 L1934.83 1445.72 L1955.76 1445.72 L1955.76 1445.72 L1955.76 1445.72 L1955.76 1445.72 L1934.83 1445.72 L1934.83 1445.72  Z" fill="#191970" fill-rule="evenodd" fill-opacity="2.23363e-10"/>
<polyline clip-path="url(#clip262)" style="stroke:#000000; stroke-linecap:round; stroke-linejoin:round; stroke-width:4; stroke-opacity:1; fill:none" points="1934.83,1445.72 1934.83,1445.72 1955.76,1445.72 1955.76,1445.72 "/>
<path clip-path="url(#clip262)" d="M867.514 1445.72 L867.514 1443.89 L888.442 1443.89 L888.442 1445.72 L888.442 1445.72 L888.442 1445.72 L867.514 1445.72 L867.514 1445.72  Z" fill="#191970" fill-rule="evenodd" fill-opacity="0.00134472"/>
<polyline clip-path="url(#clip262)" style="stroke:#000000; stroke-linecap:round; stroke-linejoin:round; stroke-width:4; stroke-opacity:1; fill:none" points="867.514,1445.72 867.514,1443.89 888.442,1443.89 888.442,1445.72 "/>
<path clip-path="url(#clip262)" d="M951.225 1445.72 L951.225 1420.84 L972.152 1420.84 L972.152 1445.72 L972.152 1445.72 L972.152 1445.72 L951.225 1445.72 L951.225 1445.72  Z" fill="#191970" fill-rule="evenodd" fill-opacity="0.0183231"/>
<polyline clip-path="url(#clip262)" style="stroke:#000000; stroke-linecap:round; stroke-linejoin:round; stroke-width:4; stroke-opacity:1; fill:none" points="951.225,1445.72 951.225,1420.84 972.152,1420.84 972.152,1445.72 "/>
<path clip-path="url(#clip262)" d="M972.152 1445.72 L972.152 1402.55 L993.08 1402.55 L993.08 1445.72 L993.08 1445.72 L993.08 1445.72 L972.152 1445.72 L972.152 1445.72  Z" fill="#191970" fill-rule="evenodd" fill-opacity="0.0317892"/>
<polyline clip-path="url(#clip262)" style="stroke:#000000; stroke-linecap:round; stroke-linejoin:round; stroke-width:4; stroke-opacity:1; fill:none" points="972.152,1445.72 972.152,1402.55 993.08,1402.55 993.08,1445.72 "/>
<path clip-path="url(#clip262)" d="M1830.19 1445.72 L1830.19 1445.72 L1851.12 1445.72 L1851.12 1445.72 L1851.12 1445.72 L1851.12 1445.72 L1830.19 1445.72 L1830.19 1445.72  Z" fill="#191970" fill-rule="evenodd" fill-opacity="1.12719e-07"/>
<polyline clip-path="url(#clip262)" style="stroke:#000000; stroke-linecap:round; stroke-linejoin:round; stroke-width:4; stroke-opacity:1; fill:none" points="1830.19,1445.72 1830.19,1445.72 1851.12,1445.72 1851.12,1445.72 "/>
<path clip-path="url(#clip262)" d="M595.453 1445.72 L595.453 1445.72 L616.381 1445.72 L616.381 1445.72 L616.381 1445.72 L616.381 1445.72 L595.453 1445.72 L595.453 1445.72  Z" fill="#191970" fill-rule="evenodd" fill-opacity="3.04354e-09"/>
<polyline clip-path="url(#clip262)" style="stroke:#000000; stroke-linecap:round; stroke-linejoin:round; stroke-width:4; stroke-opacity:1; fill:none" points="595.453,1445.72 595.453,1445.72 616.381,1445.72 616.381,1445.72 "/>
<path clip-path="url(#clip262)" d="M2185.96 1445.72 L2185.96 1445.72 L2206.89 1445.72 L2206.89 1445.72 L2206.89 1445.72 L2206.89 1445.72 L2185.96 1445.72 L2185.96 1445.72  Z" fill="#191970" fill-rule="evenodd" fill-opacity="1.13174e-18"/>
<polyline clip-path="url(#clip262)" style="stroke:#000000; stroke-linecap:round; stroke-linejoin:round; stroke-width:4; stroke-opacity:1; fill:none" points="2185.96,1445.72 2185.96,1445.72 2206.89,1445.72 "/>
<path clip-path="url(#clip262)" d="M825.658 1445.72 L825.658 1445.33 L846.586 1445.33 L846.586 1445.72 L846.586 1445.72 L846.586 1445.72 L825.658 1445.72 L825.658 1445.72  Z" fill="#191970" fill-rule="evenodd" fill-opacity="0.000285168"/>
<polyline clip-path="url(#clip262)" style="stroke:#000000; stroke-linecap:round; stroke-linejoin:round; stroke-width:4; stroke-opacity:1; fill:none" points="825.658,1445.72 825.658,1445.33 846.586,1445.33 846.586,1445.72 "/>
<path clip-path="url(#clip262)" d="M741.947 1445.72 L741.947 1445.71 L762.875 1445.71 L762.875 1445.72 L762.875 1445.72 L762.875 1445.72 L741.947 1445.72 L741.947 1445.72  Z" fill="#191970" fill-rule="evenodd" fill-opacity="7.8586e-06"/>
<polyline clip-path="url(#clip262)" style="stroke:#000000; stroke-linecap:round; stroke-linejoin:round; stroke-width:4; stroke-opacity:1; fill:none" points="741.947,1445.72 741.947,1445.71 762.875,1445.71 762.875,1445.72 "/>
<path clip-path="url(#clip262)" d="M218.754 1445.72 L218.754 1445.72 L239.681 1445.72 L239.681 1445.72 L239.681 1445.72 L239.681 1445.72 L218.754 1445.72 L218.754 1445.72  Z" fill="#191970" fill-rule="evenodd" fill-opacity="0"/>
<polyline clip-path="url(#clip262)" style="stroke:#000000; stroke-linecap:round; stroke-linejoin:round; stroke-width:4; stroke-opacity:1; fill:none" points="218.754,1445.72 218.754,1445.72 239.681,1445.72 "/>
<path clip-path="url(#clip262)" d="M1495.35 1445.72 L1495.35 1373.83 L1516.27 1373.83 L1516.27 1445.72 L1516.27 1445.72 L1516.27 1445.72 L1495.35 1445.72 L1495.35 1445.72  Z" fill="#191970" fill-rule="evenodd" fill-opacity="0.0529464"/>
<polyline clip-path="url(#clip262)" style="stroke:#000000; stroke-linecap:round; stroke-linejoin:round; stroke-width:4; stroke-opacity:1; fill:none" points="1495.35,1445.72 1495.35,1373.83 1516.27,1373.83 1516.27,1445.72 "/>
<path clip-path="url(#clip262)" d="M1620.91 1445.72 L1620.91 1443.89 L1641.84 1443.89 L1641.84 1445.72 L1641.84 1445.72 L1641.84 1445.72 L1620.91 1445.72 L1620.91 1445.72  Z" fill="#191970" fill-rule="evenodd" fill-opacity="0.00134472"/>
<polyline clip-path="url(#clip262)" style="stroke:#000000; stroke-linecap:round; stroke-linejoin:round; stroke-width:4; stroke-opacity:1; fill:none" points="1620.91,1445.72 1620.91,1443.89 1641.84,1443.89 1641.84,1445.72 "/>
<path clip-path="url(#clip262)" d="M1348.85 1445.72 L1348.85 630.523 L1369.78 630.523 L1369.78 1445.72 L1369.78 1445.72 L1369.78 1445.72 L1348.85 1445.72 L1348.85 1445.72  Z" fill="#191970" fill-rule="evenodd" fill-opacity="0.600404"/>
<polyline clip-path="url(#clip262)" style="stroke:#000000; stroke-linecap:round; stroke-linejoin:round; stroke-width:4; stroke-opacity:1; fill:none" points="1348.85,1445.72 1348.85,630.523 1369.78,630.523 1369.78,1445.72 "/>
<path clip-path="url(#clip262)" d="M1139.57 1445.72 L1139.57 630.523 L1160.5 630.523 L1160.5 1445.72 L1160.5 1445.72 L1160.5 1445.72 L1139.57 1445.72 L1139.57 1445.72  Z" fill="#191970" fill-rule="evenodd" fill-opacity="0.600404"/>
<polyline clip-path="url(#clip262)" style="stroke:#000000; stroke-linecap:round; stroke-linejoin:round; stroke-width:4; stroke-opacity:1; fill:none" points="1139.57,1445.72 1139.57,630.523 1160.5,630.523 1160.5,1445.72 "/>
<path clip-path="url(#clip262)" d="M1955.76 1445.72 L1955.76 1445.72 L1976.68 1445.72 L1976.68 1445.72 L1976.68 1445.72 L1976.68 1445.72 L1955.76 1445.72 L1955.76 1445.72  Z" fill="#191970" fill-rule="evenodd" fill-opacity="5.69169e-11"/>
<polyline clip-path="url(#clip262)" style="stroke:#000000; stroke-linecap:round; stroke-linejoin:round; stroke-width:4; stroke-opacity:1; fill:none" points="1955.76,1445.72 1955.76,1445.72 1976.68,1445.72 1976.68,1445.72 "/>
<path clip-path="url(#clip262)" d="M1851.12 1445.72 L1851.12 1445.72 L1872.05 1445.72 L1872.05 1445.72 L1872.05 1445.72 L1872.05 1445.72 L1851.12 1445.72 L1851.12 1445.72  Z" fill="#191970" fill-rule="evenodd" fill-opacity="3.52248e-08"/>
<polyline clip-path="url(#clip262)" style="stroke:#000000; stroke-linecap:round; stroke-linejoin:round; stroke-width:4; stroke-opacity:1; fill:none" points="1851.12,1445.72 1851.12,1445.72 1872.05,1445.72 1872.05,1445.72 "/>
<path clip-path="url(#clip262)" d="M281.537 1445.72 L281.537 1445.72 L302.465 1445.72 L302.465 1445.72 L302.465 1445.72 L302.465 1445.72 L281.537 1445.72 L281.537 1445.72  Z" fill="#191970" fill-rule="evenodd" fill-opacity="1.76273e-19"/>
<polyline clip-path="url(#clip262)" style="stroke:#000000; stroke-linecap:round; stroke-linejoin:round; stroke-width:4; stroke-opacity:1; fill:none" points="281.537,1445.72 281.537,1445.72 302.465,1445.72 "/>
<path clip-path="url(#clip262)" d="M490.814 1445.72 L490.814 1445.72 L511.742 1445.72 L511.742 1445.72 L511.742 1445.72 L511.742 1445.72 L490.814 1445.72 L490.814 1445.72  Z" fill="#191970" fill-rule="evenodd" fill-opacity="3.26984e-12"/>
<polyline clip-path="url(#clip262)" style="stroke:#000000; stroke-linecap:round; stroke-linejoin:round; stroke-width:4; stroke-opacity:1; fill:none" points="490.814,1445.72 490.814,1445.72 511.742,1445.72 511.742,1445.72 "/>
<path clip-path="url(#clip262)" d="M1516.27 1445.72 L1516.27 1402.55 L1537.2 1402.55 L1537.2 1445.72 L1537.2 1445.72 L1537.2 1445.72 L1516.27 1445.72 L1516.27 1445.72  Z" fill="#191970" fill-rule="evenodd" fill-opacity="0.0317892"/>
<polyline clip-path="url(#clip262)" style="stroke:#000000; stroke-linecap:round; stroke-linejoin:round; stroke-width:4; stroke-opacity:1; fill:none" points="1516.27,1445.72 1516.27,1402.55 1537.2,1402.55 1537.2,1445.72 "/>
<path clip-path="url(#clip262)" d="M1537.2 1445.72 L1537.2 1420.84 L1558.13 1420.84 L1558.13 1445.72 L1558.13 1445.72 L1558.13 1445.72 L1537.2 1445.72 L1537.2 1445.72  Z" fill="#191970" fill-rule="evenodd" fill-opacity="0.0183231"/>
<polyline clip-path="url(#clip262)" style="stroke:#000000; stroke-linecap:round; stroke-linejoin:round; stroke-width:4; stroke-opacity:1; fill:none" points="1537.2,1445.72 1537.2,1420.84 1558.13,1420.84 1558.13,1445.72 "/>
<path clip-path="url(#clip262)" d="M616.381 1445.72 L616.381 1445.72 L637.309 1445.72 L637.309 1445.72 L637.309 1445.72 L637.309 1445.72 L616.381 1445.72 L616.381 1445.72  Z" fill="#191970" fill-rule="evenodd" fill-opacity="1.05676e-08"/>
<polyline clip-path="url(#clip262)" style="stroke:#000000; stroke-linecap:round; stroke-linejoin:round; stroke-width:4; stroke-opacity:1; fill:none" points="616.381,1445.72 616.381,1445.72 637.309,1445.72 637.309,1445.72 "/>
<path clip-path="url(#clip262)" d="M1976.68 1445.72 L1976.68 1445.72 L1997.61 1445.72 L1997.61 1445.72 L1997.61 1445.72 L1997.61 1445.72 L1976.68 1445.72 L1976.68 1445.72  Z" fill="#191970" fill-rule="evenodd" fill-opacity="1.39234e-11"/>
<polyline clip-path="url(#clip262)" style="stroke:#000000; stroke-linecap:round; stroke-linejoin:round; stroke-width:4; stroke-opacity:1; fill:none" points="1976.68,1445.72 1976.68,1445.72 1997.61,1445.72 1997.61,1445.72 "/>
<path clip-path="url(#clip262)" d="M1118.65 1445.72 L1118.65 794.424 L1139.57 794.424 L1139.57 1445.72 L1139.57 1445.72 L1139.57 1445.72 L1118.65 1445.72 L1118.65 1445.72  Z" fill="#191970" fill-rule="evenodd" fill-opacity="0.479688"/>
<polyline clip-path="url(#clip262)" style="stroke:#000000; stroke-linecap:round; stroke-linejoin:round; stroke-width:4; stroke-opacity:1; fill:none" points="1118.65,1445.72 1118.65,794.424 1139.57,794.424 1139.57,1445.72 "/>
<path clip-path="url(#clip262)" d="M1181.43 1445.72 L1181.43 315.774 L1202.36 315.774 L1202.36 1445.72 L1202.36 1445.72 L1202.36 1445.72 L1181.43 1445.72 L1181.43 1445.72  Z" fill="#191970" fill-rule="evenodd" fill-opacity="0.832223"/>
<polyline clip-path="url(#clip262)" style="stroke:#000000; stroke-linecap:round; stroke-linejoin:round; stroke-width:4; stroke-opacity:1; fill:none" points="1181.43,1445.72 1181.43,315.774 1202.36,315.774 1202.36,1445.72 "/>
<path clip-path="url(#clip262)" d="M1599.98 1445.72 L1599.98 1441.99 L1620.91 1441.99 L1620.91 1445.72 L1620.91 1445.72 L1620.91 1445.72 L1599.98 1445.72 L1599.98 1445.72  Z" fill="#191970" fill-rule="evenodd" fill-opacity="0.00274669"/>
<polyline clip-path="url(#clip262)" style="stroke:#000000; stroke-linecap:round; stroke-linejoin:round; stroke-width:4; stroke-opacity:1; fill:none" points="1599.98,1445.72 1599.98,1441.99 1620.91,1441.99 1620.91,1445.72 "/>
<path clip-path="url(#clip262)" d="M1474.42 1445.72 L1474.42 1330.77 L1495.35 1330.77 L1495.35 1445.72 L1495.35 1445.72 L1495.35 1445.72 L1474.42 1445.72 L1474.42 1445.72  Z" fill="#191970" fill-rule="evenodd" fill-opacity="0.084658"/>
<polyline clip-path="url(#clip262)" style="stroke:#000000; stroke-linecap:round; stroke-linejoin:round; stroke-width:4; stroke-opacity:1; fill:none" points="1474.42,1445.72 1474.42,1330.77 1495.35,1330.77 1495.35,1445.72 "/>
<path clip-path="url(#clip262)" d="M1892.97 1445.72 L1892.97 1445.72 L1913.9 1445.72 L1913.9 1445.72 L1913.9 1445.72 L1913.9 1445.72 L1892.97 1445.72 L1892.97 1445.72  Z" fill="#191970" fill-rule="evenodd" fill-opacity="3.04354e-09"/>
<polyline clip-path="url(#clip262)" style="stroke:#000000; stroke-linecap:round; stroke-linejoin:round; stroke-width:4; stroke-opacity:1; fill:none" points="1892.97,1445.72 1892.97,1445.72 1913.9,1445.72 1913.9,1445.72 "/>
<path clip-path="url(#clip262)" d="M428.031 1445.72 L428.031 1445.72 L448.959 1445.72 L448.959 1445.72 L448.959 1445.72 L448.959 1445.72 L428.031 1445.72 L428.031 1445.72  Z" fill="#191970" fill-rule="evenodd" fill-opacity="3.31528e-14"/>
<polyline clip-path="url(#clip262)" style="stroke:#000000; stroke-linecap:round; stroke-linejoin:round; stroke-width:4; stroke-opacity:1; fill:none" points="428.031,1445.72 428.031,1445.72 448.959,1445.72 448.959,1445.72 "/>
<path clip-path="url(#clip262)" d="M1369.78 1445.72 L1369.78 794.424 L1390.71 794.424 L1390.71 1445.72 L1390.71 1445.72 L1390.71 1445.72 L1369.78 1445.72 L1369.78 1445.72  Z" fill="#191970" fill-rule="evenodd" fill-opacity="0.479688"/>
<polyline clip-path="url(#clip262)" style="stroke:#000000; stroke-linecap:round; stroke-linejoin:round; stroke-width:4; stroke-opacity:1; fill:none" points="1369.78,1445.72 1369.78,794.424 1390.71,794.424 1390.71,1445.72 "/>
<path clip-path="url(#clip262)" d="M909.369 1445.72 L909.369 1438.4 L930.297 1438.4 L930.297 1445.72 L930.297 1445.72 L930.297 1445.72 L909.369 1445.72 L909.369 1445.72  Z" fill="#191970" fill-rule="evenodd" fill-opacity="0.00538598"/>
<polyline clip-path="url(#clip262)" style="stroke:#000000; stroke-linecap:round; stroke-linejoin:round; stroke-width:4; stroke-opacity:1; fill:none" points="909.369,1445.72 909.369,1438.4 930.297,1438.4 930.297,1445.72 "/>
<path clip-path="url(#clip262)" d="M804.731 1445.72 L804.731 1445.55 L825.658 1445.55 L825.658 1445.72 L825.658 1445.72 L825.658 1445.72 L804.731 1445.72 L804.731 1445.72  Z" fill="#191970" fill-rule="evenodd" fill-opacity="0.000123523"/>
<polyline clip-path="url(#clip262)" style="stroke:#000000; stroke-linecap:round; stroke-linejoin:round; stroke-width:4; stroke-opacity:1; fill:none" points="804.731,1445.72 804.731,1445.55 825.658,1445.55 825.658,1445.72 "/>
<path clip-path="url(#clip262)" d="M721.02 1445.72 L721.02 1445.71 L741.947 1445.71 L741.947 1445.72 L741.947 1445.72 L741.947 1445.72 L721.02 1445.72 L721.02 1445.72  Z" fill="#191970" fill-rule="evenodd" fill-opacity="2.89131e-06"/>
<polyline clip-path="url(#clip262)" style="stroke:#000000; stroke-linecap:round; stroke-linejoin:round; stroke-width:4; stroke-opacity:1; fill:none" points="721.02,1445.72 721.02,1445.71 741.947,1445.71 741.947,1445.72 "/>
<path clip-path="url(#clip262)" d="M1223.29 1445.72 L1223.29 115.402 L1244.21 115.402 L1244.21 1445.72 L1244.21 1445.72 L1244.21 1445.72 L1223.29 1445.72 L1223.29 1445.72  Z" fill="#191970" fill-rule="evenodd" fill-opacity="0.979801"/>
<polyline clip-path="url(#clip262)" style="stroke:#000000; stroke-linecap:round; stroke-linejoin:round; stroke-width:4; stroke-opacity:1; fill:none" points="1223.29,1445.72 1223.29,115.402 1244.21,115.402 1244.21,1445.72 "/>
<path clip-path="url(#clip262)" d="M1662.77 1445.72 L1662.77 1445.33 L1683.7 1445.33 L1683.7 1445.72 L1683.7 1445.72 L1683.7 1445.72 L1662.77 1445.72 L1662.77 1445.72  Z" fill="#191970" fill-rule="evenodd" fill-opacity="0.000285168"/>
<polyline clip-path="url(#clip262)" style="stroke:#000000; stroke-linecap:round; stroke-linejoin:round; stroke-width:4; stroke-opacity:1; fill:none" points="1662.77,1445.72 1662.77,1445.33 1683.7,1445.33 1683.7,1445.72 "/>
<path clip-path="url(#clip262)" d="M448.959 1445.72 L448.959 1445.72 L469.887 1445.72 L469.887 1445.72 L469.887 1445.72 L469.887 1445.72 L448.959 1445.72 L448.959 1445.72  Z" fill="#191970" fill-rule="evenodd" fill-opacity="1.59556e-13"/>
<polyline clip-path="url(#clip262)" style="stroke:#000000; stroke-linecap:round; stroke-linejoin:round; stroke-width:4; stroke-opacity:1; fill:none" points="448.959,1445.72 448.959,1445.72 469.887,1445.72 469.887,1445.72 "/>
<path clip-path="url(#clip262)" d="M1746.48 1445.72 L1746.48 1445.71 L1767.41 1445.71 L1767.41 1445.72 L1767.41 1445.72 L1767.41 1445.72 L1746.48 1445.72 L1746.48 1445.72  Z" fill="#191970" fill-rule="evenodd" fill-opacity="7.8586e-06"/>
<polyline clip-path="url(#clip262)" style="stroke:#000000; stroke-linecap:round; stroke-linejoin:round; stroke-width:4; stroke-opacity:1; fill:none" points="1746.48,1445.72 1746.48,1445.71 1767.41,1445.71 1767.41,1445.72 "/>
<path clip-path="url(#clip262)" d="M637.309 1445.72 L637.309 1445.72 L658.236 1445.72 L658.236 1445.72 L658.236 1445.72 L658.236 1445.72 L637.309 1445.72 L637.309 1445.72  Z" fill="#191970" fill-rule="evenodd" fill-opacity="3.52248e-08"/>
<polyline clip-path="url(#clip262)" style="stroke:#000000; stroke-linecap:round; stroke-linejoin:round; stroke-width:4; stroke-opacity:1; fill:none" points="637.309,1445.72 637.309,1445.72 658.236,1445.72 658.236,1445.72 "/>
<path clip-path="url(#clip262)" d="M2165.03 1445.72 L2165.03 1445.72 L2185.96 1445.72 L2185.96 1445.72 L2185.96 1445.72 L2185.96 1445.72 L2165.03 1445.72 L2165.03 1445.72  Z" fill="#191970" fill-rule="evenodd" fill-opacity="6.96072e-18"/>
<polyline clip-path="url(#clip262)" style="stroke:#000000; stroke-linecap:round; stroke-linejoin:round; stroke-width:4; stroke-opacity:1; fill:none" points="2165.03,1445.72 2165.03,1445.72 2185.96,1445.72 "/>
<path clip-path="url(#clip262)" d="M511.742 1445.72 L511.742 1445.72 L532.67 1445.72 L532.67 1445.72 L532.67 1445.72 L532.67 1445.72 L511.742 1445.72 L511.742 1445.72  Z" fill="#191970" fill-rule="evenodd" fill-opacity="1.39234e-11"/>
<polyline clip-path="url(#clip262)" style="stroke:#000000; stroke-linecap:round; stroke-linejoin:round; stroke-width:4; stroke-opacity:1; fill:none" points="511.742,1445.72 511.742,1445.72 532.67,1445.72 532.67,1445.72 "/>
<path clip-path="url(#clip262)" d="M1683.7 1445.72 L1683.7 1445.55 L1704.62 1445.55 L1704.62 1445.72 L1704.62 1445.72 L1704.62 1445.72 L1683.7 1445.72 L1683.7 1445.72  Z" fill="#191970" fill-rule="evenodd" fill-opacity="0.000123523"/>
<polyline clip-path="url(#clip262)" style="stroke:#000000; stroke-linecap:round; stroke-linejoin:round; stroke-width:4; stroke-opacity:1; fill:none" points="1683.7,1445.72 1683.7,1445.55 1704.62,1445.55 1704.62,1445.72 "/>
<path clip-path="url(#clip262)" d="M658.236 1445.72 L658.236 1445.72 L679.164 1445.72 L679.164 1445.72 L679.164 1445.72 L679.164 1445.72 L658.236 1445.72 L658.236 1445.72  Z" fill="#191970" fill-rule="evenodd" fill-opacity="1.12719e-07"/>
<polyline clip-path="url(#clip262)" style="stroke:#000000; stroke-linecap:round; stroke-linejoin:round; stroke-width:4; stroke-opacity:1; fill:none" points="658.236,1445.72 658.236,1445.72 679.164,1445.72 679.164,1445.72 "/>
<path clip-path="url(#clip262)" d="M553.598 1445.72 L553.598 1445.72 L574.525 1445.72 L574.525 1445.72 L574.525 1445.72 L574.525 1445.72 L553.598 1445.72 L553.598 1445.72  Z" fill="#191970" fill-rule="evenodd" fill-opacity="2.23363e-10"/>
<polyline clip-path="url(#clip262)" style="stroke:#000000; stroke-linecap:round; stroke-linejoin:round; stroke-width:4; stroke-opacity:1; fill:none" points="553.598,1445.72 553.598,1445.72 574.525,1445.72 574.525,1445.72 "/>
<path clip-path="url(#clip262)" d="M1014.01 1445.72 L1014.01 1330.77 L1034.94 1330.77 L1034.94 1445.72 L1034.94 1445.72 L1034.94 1445.72 L1014.01 1445.72 L1014.01 1445.72  Z" fill="#191970" fill-rule="evenodd" fill-opacity="0.084658"/>
<polyline clip-path="url(#clip262)" style="stroke:#000000; stroke-linecap:round; stroke-linejoin:round; stroke-width:4; stroke-opacity:1; fill:none" points="1014.01,1445.72 1014.01,1330.77 1034.94,1330.77 1034.94,1445.72 "/>
<path clip-path="url(#clip262)" d="M993.08 1445.72 L993.08 1373.83 L1014.01 1373.83 L1014.01 1445.72 L1014.01 1445.72 L1014.01 1445.72 L993.08 1445.72 L993.08 1445.72  Z" fill="#191970" fill-rule="evenodd" fill-opacity="0.0529464"/>
<polyline clip-path="url(#clip262)" style="stroke:#000000; stroke-linecap:round; stroke-linejoin:round; stroke-width:4; stroke-opacity:1; fill:none" points="993.08,1445.72 993.08,1373.83 1014.01,1373.83 1014.01,1445.72 "/>
</svg>
