<?xml version="1.0" encoding="utf-8"?>
<svg xmlns="http://www.w3.org/2000/svg" xmlns:xlink="http://www.w3.org/1999/xlink" width="600" height="400" viewBox="0 0 2400 1600">
<defs>
  <clipPath id="clip320">
    <rect x="0" y="0" width="2400" height="1600"/>
  </clipPath>
</defs>
<path clip-path="url(#clip320)" d="M0 1600 L2400 1600 L2400 0 L0 0  Z" fill="#ffffff" fill-rule="evenodd" fill-opacity="1"/>
<defs>
  <clipPath id="clip321">
    <rect x="480" y="0" width="1681" height="1600"/>
  </clipPath>
</defs>
<path clip-path="url(#clip320)" d="M186.274 1486.45 L2352.76 1486.45 L2352.76 47.2441 L186.274 47.2441  Z" fill="#ffffff" fill-rule="evenodd" fill-opacity="1"/>
<defs>
  <clipPath id="clip322">
    <rect x="186" y="47" width="2167" height="1440"/>
  </clipPath>
</defs>
<polyline clip-path="url(#clip322)" style="stroke:#000000; stroke-linecap:round; stroke-linejoin:round; stroke-width:2; stroke-opacity:0.1; fill:none" points="451.975,1486.45 451.975,47.2441 "/>
<polyline clip-path="url(#clip322)" style="stroke:#000000; stroke-linecap:round; stroke-linejoin:round; stroke-width:2; stroke-opacity:0.1; fill:none" points="860.745,1486.45 860.745,47.2441 "/>
<polyline clip-path="url(#clip322)" style="stroke:#000000; stroke-linecap:round; stroke-linejoin:round; stroke-width:2; stroke-opacity:0.1; fill:none" points="1269.51,1486.45 1269.51,47.2441 "/>
<polyline clip-path="url(#clip322)" style="stroke:#000000; stroke-linecap:round; stroke-linejoin:round; stroke-width:2; stroke-opacity:0.1; fill:none" points="1678.29,1486.45 1678.29,47.2441 "/>
<polyline clip-path="url(#clip322)" style="stroke:#000000; stroke-linecap:round; stroke-linejoin:round; stroke-width:2; stroke-opacity:0.1; fill:none" points="2087.06,1486.45 2087.06,47.2441 "/>
<polyline clip-path="url(#clip320)" style="stroke:#000000; stroke-linecap:round; stroke-linejoin:round; stroke-width:4; stroke-opacity:1; fill:none" points="186.274,1486.45 2352.76,1486.45 "/>
<polyline clip-path="url(#clip320)" style="stroke:#000000; stroke-linecap:round; stroke-linejoin:round; stroke-width:4; stroke-opacity:1; fill:none" points="451.975,1486.45 451.975,1467.55 "/>
<polyline clip-path="url(#clip320)" style="stroke:#000000; stroke-linecap:round; stroke-linejoin:round; stroke-width:4; stroke-opacity:1; fill:none" points="860.745,1486.45 860.745,1467.55 "/>
<polyline clip-path="url(#clip320)" style="stroke:#000000; stroke-linecap:round; stroke-linejoin:round; stroke-width:4; stroke-opacity:1; fill:none" points="1269.51,1486.45 1269.51,1467.55 "/>
<polyline clip-path="url(#clip320)" style="stroke:#000000; stroke-linecap:round; stroke-linejoin:round; stroke-width:4; stroke-opacity:1; fill:none" points="1678.29,1486.45 1678.29,1467.55 "/>
<polyline clip-path="url(#clip320)" style="stroke:#000000; stroke-linecap:round; stroke-linejoin:round; stroke-width:4; stroke-opacity:1; fill:none" points="2087.06,1486.45 2087.06,1467.55 "/>
<path clip-path="url(#clip320)" d="M420.875 1532.02 L450.551 1532.02 L450.551 1535.95 L420.875 1535.95 L420.875 1532.02 Z" fill="#000000" fill-rule="nonzero" fill-opacity="1" /><path clip-path="url(#clip320)" d="M473.491 1518.36 L461.685 1536.81 L473.491 1536.81 L473.491 1518.36 M472.264 1514.29 L478.143 1514.29 L478.143 1536.81 L483.074 1536.81 L483.074 1540.7 L478.143 1540.7 L478.143 1548.85 L473.491 1548.85 L473.491 1540.7 L457.889 1540.7 L457.889 1536.19 L472.264 1514.29 Z" fill="#000000" fill-rule="nonzero" fill-opacity="1" /><path clip-path="url(#clip320)" d="M830.687 1532.02 L860.363 1532.02 L860.363 1535.95 L830.687 1535.95 L830.687 1532.02 Z" fill="#000000" fill-rule="nonzero" fill-opacity="1" /><path clip-path="url(#clip320)" d="M874.483 1544.91 L890.802 1544.91 L890.802 1548.85 L868.858 1548.85 L868.858 1544.91 Q871.52 1542.16 876.103 1537.53 Q880.71 1532.88 881.891 1531.53 Q884.136 1529.01 885.015 1527.27 Q885.918 1525.51 885.918 1523.82 Q885.918 1521.07 883.974 1519.33 Q882.053 1517.6 878.951 1517.6 Q876.752 1517.6 874.298 1518.36 Q871.867 1519.13 869.09 1520.68 L869.09 1515.95 Q871.914 1514.82 874.367 1514.24 Q876.821 1513.66 878.858 1513.66 Q884.228 1513.66 887.423 1516.35 Q890.617 1519.03 890.617 1523.52 Q890.617 1525.65 889.807 1527.57 Q889.02 1529.47 886.914 1532.07 Q886.335 1532.74 883.233 1535.95 Q880.131 1539.15 874.483 1544.91 Z" fill="#000000" fill-rule="nonzero" fill-opacity="1" /><path clip-path="url(#clip320)" d="M1269.51 1517.37 Q1265.9 1517.37 1264.08 1520.93 Q1262.27 1524.47 1262.27 1531.6 Q1262.27 1538.71 1264.08 1542.27 Q1265.9 1545.82 1269.51 1545.82 Q1273.15 1545.82 1274.95 1542.27 Q1276.78 1538.71 1276.78 1531.6 Q1276.78 1524.47 1274.95 1520.93 Q1273.15 1517.37 1269.51 1517.37 M1269.51 1513.66 Q1275.33 1513.66 1278.38 1518.27 Q1281.46 1522.85 1281.46 1531.6 Q1281.46 1540.33 1278.38 1544.94 Q1275.33 1549.52 1269.51 1549.52 Q1263.7 1549.52 1260.63 1544.94 Q1257.57 1540.33 1257.57 1531.6 Q1257.57 1522.85 1260.63 1518.27 Q1263.7 1513.66 1269.51 1513.66 Z" fill="#000000" fill-rule="nonzero" fill-opacity="1" /><path clip-path="url(#clip320)" d="M1672.94 1544.91 L1689.26 1544.91 L1689.26 1548.85 L1667.31 1548.85 L1667.31 1544.91 Q1669.97 1542.16 1674.56 1537.53 Q1679.16 1532.88 1680.35 1531.53 Q1682.59 1529.01 1683.47 1527.27 Q1684.37 1525.51 1684.37 1523.82 Q1684.37 1521.07 1682.43 1519.33 Q1680.51 1517.6 1677.41 1517.6 Q1675.21 1517.6 1672.75 1518.36 Q1670.32 1519.13 1667.54 1520.68 L1667.54 1515.95 Q1670.37 1514.82 1672.82 1514.24 Q1675.28 1513.66 1677.31 1513.66 Q1682.68 1513.66 1685.88 1516.35 Q1689.07 1519.03 1689.07 1523.52 Q1689.07 1525.65 1688.26 1527.57 Q1687.47 1529.47 1685.37 1532.07 Q1684.79 1532.74 1681.69 1535.95 Q1678.59 1539.15 1672.94 1544.91 Z" fill="#000000" fill-rule="nonzero" fill-opacity="1" /><path clip-path="url(#clip320)" d="M2090.06 1518.36 L2078.26 1536.81 L2090.06 1536.81 L2090.06 1518.36 M2088.84 1514.29 L2094.72 1514.29 L2094.72 1536.81 L2099.65 1536.81 L2099.65 1540.7 L2094.72 1540.7 L2094.72 1548.85 L2090.06 1548.85 L2090.06 1540.7 L2074.46 1540.7 L2074.46 1536.19 L2088.84 1514.29 Z" fill="#000000" fill-rule="nonzero" fill-opacity="1" /><polyline clip-path="url(#clip322)" style="stroke:#000000; stroke-linecap:round; stroke-linejoin:round; stroke-width:2; stroke-opacity:0.1; fill:none" points="186.274,1445.72 2352.76,1445.72 "/>
<polyline clip-path="url(#clip322)" style="stroke:#000000; stroke-linecap:round; stroke-linejoin:round; stroke-width:2; stroke-opacity:0.1; fill:none" points="186.274,1106.28 2352.76,1106.28 "/>
<polyline clip-path="url(#clip322)" style="stroke:#000000; stroke-linecap:round; stroke-linejoin:round; stroke-width:2; stroke-opacity:0.1; fill:none" points="186.274,766.846 2352.76,766.846 "/>
<polyline clip-path="url(#clip322)" style="stroke:#000000; stroke-linecap:round; stroke-linejoin:round; stroke-width:2; stroke-opacity:0.1; fill:none" points="186.274,427.411 2352.76,427.411 "/>
<polyline clip-path="url(#clip322)" style="stroke:#000000; stroke-linecap:round; stroke-linejoin:round; stroke-width:2; stroke-opacity:0.1; fill:none" points="186.274,87.9758 2352.76,87.9758 "/>
<polyline clip-path="url(#clip320)" style="stroke:#000000; stroke-linecap:round; stroke-linejoin:round; stroke-width:4; stroke-opacity:1; fill:none" points="186.274,1486.45 186.274,47.2441 "/>
<polyline clip-path="url(#clip320)" style="stroke:#000000; stroke-linecap:round; stroke-linejoin:round; stroke-width:4; stroke-opacity:1; fill:none" points="186.274,1445.72 205.172,1445.72 "/>
<polyline clip-path="url(#clip320)" style="stroke:#000000; stroke-linecap:round; stroke-linejoin:round; stroke-width:4; stroke-opacity:1; fill:none" points="186.274,1106.28 205.172,1106.28 "/>
<polyline clip-path="url(#clip320)" style="stroke:#000000; stroke-linecap:round; stroke-linejoin:round; stroke-width:4; stroke-opacity:1; fill:none" points="186.274,766.846 205.172,766.846 "/>
<polyline clip-path="url(#clip320)" style="stroke:#000000; stroke-linecap:round; stroke-linejoin:round; stroke-width:4; stroke-opacity:1; fill:none" points="186.274,427.411 205.172,427.411 "/>
<polyline clip-path="url(#clip320)" style="stroke:#000000; stroke-linecap:round; stroke-linejoin:round; stroke-width:4; stroke-opacity:1; fill:none" points="186.274,87.9758 205.172,87.9758 "/>
<path clip-path="url(#clip320)" d="M62.9365 1431.51 Q59.3254 1431.51 57.4967 1435.08 Q55.6912 1438.62 55.6912 1445.75 Q55.6912 1452.86 57.4967 1456.42 Q59.3254 1459.96 62.9365 1459.96 Q66.5707 1459.96 68.3763 1456.42 Q70.205 1452.86 70.205 1445.75 Q70.205 1438.62 68.3763 1435.08 Q66.5707 1431.51 62.9365 1431.51 M62.9365 1427.81 Q68.7467 1427.81 71.8022 1432.42 Q74.8809 1437 74.8809 1445.75 Q74.8809 1454.48 71.8022 1459.08 Q68.7467 1463.67 62.9365 1463.67 Q57.1264 1463.67 54.0477 1459.08 Q50.9921 1454.48 50.9921 1445.75 Q50.9921 1437 54.0477 1432.42 Q57.1264 1427.81 62.9365 1427.81 Z" fill="#000000" fill-rule="nonzero" fill-opacity="1" /><path clip-path="url(#clip320)" d="M83.0984 1457.12 L87.9827 1457.12 L87.9827 1463 L83.0984 1463 L83.0984 1457.12 Z" fill="#000000" fill-rule="nonzero" fill-opacity="1" /><path clip-path="url(#clip320)" d="M108.168 1431.51 Q104.557 1431.51 102.728 1435.08 Q100.922 1438.62 100.922 1445.75 Q100.922 1452.86 102.728 1456.42 Q104.557 1459.96 108.168 1459.96 Q111.802 1459.96 113.608 1456.42 Q115.436 1452.86 115.436 1445.75 Q115.436 1438.62 113.608 1435.08 Q111.802 1431.51 108.168 1431.51 M108.168 1427.81 Q113.978 1427.81 117.033 1432.42 Q120.112 1437 120.112 1445.75 Q120.112 1454.48 117.033 1459.08 Q113.978 1463.67 108.168 1463.67 Q102.358 1463.67 99.2789 1459.08 Q96.2234 1454.48 96.2234 1445.75 Q96.2234 1437 99.2789 1432.42 Q102.358 1427.81 108.168 1427.81 Z" fill="#000000" fill-rule="nonzero" fill-opacity="1" /><path clip-path="url(#clip320)" d="M138.33 1431.51 Q134.719 1431.51 132.89 1435.08 Q131.084 1438.62 131.084 1445.75 Q131.084 1452.86 132.89 1456.42 Q134.719 1459.96 138.33 1459.96 Q141.964 1459.96 143.769 1456.42 Q145.598 1452.86 145.598 1445.75 Q145.598 1438.62 143.769 1435.08 Q141.964 1431.51 138.33 1431.51 M138.33 1427.81 Q144.14 1427.81 147.195 1432.42 Q150.274 1437 150.274 1445.75 Q150.274 1454.48 147.195 1459.08 Q144.14 1463.67 138.33 1463.67 Q132.519 1463.67 129.441 1459.08 Q126.385 1454.48 126.385 1445.75 Q126.385 1437 129.441 1432.42 Q132.519 1427.81 138.33 1427.81 Z" fill="#000000" fill-rule="nonzero" fill-opacity="1" /><path clip-path="url(#clip320)" d="M63.9319 1092.08 Q60.3208 1092.08 58.4921 1095.64 Q56.6865 1099.19 56.6865 1106.32 Q56.6865 1113.42 58.4921 1116.99 Q60.3208 1120.53 63.9319 1120.53 Q67.5661 1120.53 69.3717 1116.99 Q71.2004 1113.42 71.2004 1106.32 Q71.2004 1099.19 69.3717 1095.64 Q67.5661 1092.08 63.9319 1092.08 M63.9319 1088.38 Q69.742 1088.38 72.7976 1092.98 Q75.8763 1097.57 75.8763 1106.32 Q75.8763 1115.04 72.7976 1119.65 Q69.742 1124.23 63.9319 1124.23 Q58.1217 1124.23 55.043 1119.65 Q51.9875 1115.04 51.9875 1106.32 Q51.9875 1097.57 55.043 1092.98 Q58.1217 1088.38 63.9319 1088.38 Z" fill="#000000" fill-rule="nonzero" fill-opacity="1" /><path clip-path="url(#clip320)" d="M84.0938 1117.68 L88.978 1117.68 L88.978 1123.56 L84.0938 1123.56 L84.0938 1117.68 Z" fill="#000000" fill-rule="nonzero" fill-opacity="1" /><path clip-path="url(#clip320)" d="M103.191 1119.63 L119.51 1119.63 L119.51 1123.56 L97.566 1123.56 L97.566 1119.63 Q100.228 1116.87 104.811 1112.24 Q109.418 1107.59 110.598 1106.25 Q112.844 1103.72 113.723 1101.99 Q114.626 1100.23 114.626 1098.54 Q114.626 1095.78 112.682 1094.05 Q110.76 1092.31 107.658 1092.31 Q105.459 1092.31 103.006 1093.07 Q100.575 1093.84 97.7974 1095.39 L97.7974 1090.67 Q100.621 1089.53 103.075 1088.95 Q105.529 1088.38 107.566 1088.38 Q112.936 1088.38 116.131 1091.06 Q119.325 1093.75 119.325 1098.24 Q119.325 1100.37 118.515 1102.29 Q117.728 1104.19 115.621 1106.78 Q115.043 1107.45 111.941 1110.67 Q108.839 1113.86 103.191 1119.63 Z" fill="#000000" fill-rule="nonzero" fill-opacity="1" /><path clip-path="url(#clip320)" d="M129.371 1089 L147.728 1089 L147.728 1092.94 L133.654 1092.94 L133.654 1101.41 Q134.672 1101.06 135.691 1100.9 Q136.709 1100.71 137.728 1100.71 Q143.515 1100.71 146.894 1103.88 Q150.274 1107.06 150.274 1112.47 Q150.274 1118.05 146.802 1121.15 Q143.33 1124.23 137.01 1124.23 Q134.834 1124.23 132.566 1123.86 Q130.32 1123.49 127.913 1122.75 L127.913 1118.05 Q129.996 1119.19 132.219 1119.74 Q134.441 1120.3 136.918 1120.3 Q140.922 1120.3 143.26 1118.19 Q145.598 1116.08 145.598 1112.47 Q145.598 1108.86 143.26 1106.76 Q140.922 1104.65 136.918 1104.65 Q135.043 1104.65 133.168 1105.07 Q131.316 1105.48 129.371 1106.36 L129.371 1089 Z" fill="#000000" fill-rule="nonzero" fill-opacity="1" /><path clip-path="url(#clip320)" d="M62.9365 752.644 Q59.3254 752.644 57.4967 756.209 Q55.6912 759.751 55.6912 766.88 Q55.6912 773.987 57.4967 777.552 Q59.3254 781.093 62.9365 781.093 Q66.5707 781.093 68.3763 777.552 Q70.205 773.987 70.205 766.88 Q70.205 759.751 68.3763 756.209 Q66.5707 752.644 62.9365 752.644 M62.9365 748.941 Q68.7467 748.941 71.8022 753.547 Q74.8809 758.131 74.8809 766.88 Q74.8809 775.607 71.8022 780.214 Q68.7467 784.797 62.9365 784.797 Q57.1264 784.797 54.0477 780.214 Q50.9921 775.607 50.9921 766.88 Q50.9921 758.131 54.0477 753.547 Q57.1264 748.941 62.9365 748.941 Z" fill="#000000" fill-rule="nonzero" fill-opacity="1" /><path clip-path="url(#clip320)" d="M83.0984 778.246 L87.9827 778.246 L87.9827 784.126 L83.0984 784.126 L83.0984 778.246 Z" fill="#000000" fill-rule="nonzero" fill-opacity="1" /><path clip-path="url(#clip320)" d="M98.2141 749.566 L116.57 749.566 L116.57 753.501 L102.496 753.501 L102.496 761.973 Q103.515 761.626 104.534 761.464 Q105.552 761.279 106.571 761.279 Q112.358 761.279 115.737 764.45 Q119.117 767.621 119.117 773.038 Q119.117 778.617 115.645 781.718 Q112.172 784.797 105.853 784.797 Q103.677 784.797 101.409 784.427 Q99.1632 784.056 96.7558 783.316 L96.7558 778.617 Q98.8391 779.751 101.061 780.306 Q103.284 780.862 105.76 780.862 Q109.765 780.862 112.103 778.755 Q114.441 776.649 114.441 773.038 Q114.441 769.427 112.103 767.32 Q109.765 765.214 105.76 765.214 Q103.885 765.214 102.01 765.63 Q100.159 766.047 98.2141 766.927 L98.2141 749.566 Z" fill="#000000" fill-rule="nonzero" fill-opacity="1" /><path clip-path="url(#clip320)" d="M138.33 752.644 Q134.719 752.644 132.89 756.209 Q131.084 759.751 131.084 766.88 Q131.084 773.987 132.89 777.552 Q134.719 781.093 138.33 781.093 Q141.964 781.093 143.769 777.552 Q145.598 773.987 145.598 766.88 Q145.598 759.751 143.769 756.209 Q141.964 752.644 138.33 752.644 M138.33 748.941 Q144.14 748.941 147.195 753.547 Q150.274 758.131 150.274 766.88 Q150.274 775.607 147.195 780.214 Q144.14 784.797 138.33 784.797 Q132.519 784.797 129.441 780.214 Q126.385 775.607 126.385 766.88 Q126.385 758.131 129.441 753.547 Q132.519 748.941 138.33 748.941 Z" fill="#000000" fill-rule="nonzero" fill-opacity="1" /><path clip-path="url(#clip320)" d="M63.9319 413.209 Q60.3208 413.209 58.4921 416.774 Q56.6865 420.316 56.6865 427.445 Q56.6865 434.552 58.4921 438.117 Q60.3208 441.658 63.9319 441.658 Q67.5661 441.658 69.3717 438.117 Q71.2004 434.552 71.2004 427.445 Q71.2004 420.316 69.3717 416.774 Q67.5661 413.209 63.9319 413.209 M63.9319 409.506 Q69.742 409.506 72.7976 414.112 Q75.8763 418.696 75.8763 427.445 Q75.8763 436.172 72.7976 440.779 Q69.742 445.362 63.9319 445.362 Q58.1217 445.362 55.043 440.779 Q51.9875 436.172 51.9875 427.445 Q51.9875 418.696 55.043 414.112 Q58.1217 409.506 63.9319 409.506 Z" fill="#000000" fill-rule="nonzero" fill-opacity="1" /><path clip-path="url(#clip320)" d="M84.0938 438.811 L88.978 438.811 L88.978 444.691 L84.0938 444.691 L84.0938 438.811 Z" fill="#000000" fill-rule="nonzero" fill-opacity="1" /><path clip-path="url(#clip320)" d="M97.9826 410.131 L120.205 410.131 L120.205 412.121 L107.658 444.691 L102.774 444.691 L114.58 414.066 L97.9826 414.066 L97.9826 410.131 Z" fill="#000000" fill-rule="nonzero" fill-opacity="1" /><path clip-path="url(#clip320)" d="M129.371 410.131 L147.728 410.131 L147.728 414.066 L133.654 414.066 L133.654 422.538 Q134.672 422.191 135.691 422.029 Q136.709 421.844 137.728 421.844 Q143.515 421.844 146.894 425.015 Q150.274 428.186 150.274 433.603 Q150.274 439.182 146.802 442.283 Q143.33 445.362 137.01 445.362 Q134.834 445.362 132.566 444.992 Q130.32 444.621 127.913 443.881 L127.913 439.182 Q129.996 440.316 132.219 440.871 Q134.441 441.427 136.918 441.427 Q140.922 441.427 143.26 439.32 Q145.598 437.214 145.598 433.603 Q145.598 429.992 143.26 427.885 Q140.922 425.779 136.918 425.779 Q135.043 425.779 133.168 426.195 Q131.316 426.612 129.371 427.492 L129.371 410.131 Z" fill="#000000" fill-rule="nonzero" fill-opacity="1" /><path clip-path="url(#clip320)" d="M53.7467 101.321 L61.3856 101.321 L61.3856 74.955 L53.0754 76.6217 L53.0754 72.3625 L61.3393 70.6958 L66.0152 70.6958 L66.0152 101.321 L73.654 101.321 L73.654 105.256 L53.7467 105.256 L53.7467 101.321 Z" fill="#000000" fill-rule="nonzero" fill-opacity="1" /><path clip-path="url(#clip320)" d="M83.0984 99.3762 L87.9827 99.3762 L87.9827 105.256 L83.0984 105.256 L83.0984 99.3762 Z" fill="#000000" fill-rule="nonzero" fill-opacity="1" /><path clip-path="url(#clip320)" d="M108.168 73.7745 Q104.557 73.7745 102.728 77.3393 Q100.922 80.8809 100.922 88.0105 Q100.922 95.117 102.728 98.6818 Q104.557 102.223 108.168 102.223 Q111.802 102.223 113.608 98.6818 Q115.436 95.117 115.436 88.0105 Q115.436 80.8809 113.608 77.3393 Q111.802 73.7745 108.168 73.7745 M108.168 70.0708 Q113.978 70.0708 117.033 74.6773 Q120.112 79.2606 120.112 88.0105 Q120.112 96.7373 117.033 101.344 Q113.978 105.927 108.168 105.927 Q102.358 105.927 99.2789 101.344 Q96.2234 96.7373 96.2234 88.0105 Q96.2234 79.2606 99.2789 74.6773 Q102.358 70.0708 108.168 70.0708 Z" fill="#000000" fill-rule="nonzero" fill-opacity="1" /><path clip-path="url(#clip320)" d="M138.33 73.7745 Q134.719 73.7745 132.89 77.3393 Q131.084 80.8809 131.084 88.0105 Q131.084 95.117 132.89 98.6818 Q134.719 102.223 138.33 102.223 Q141.964 102.223 143.769 98.6818 Q145.598 95.117 145.598 88.0105 Q145.598 80.8809 143.769 77.3393 Q141.964 73.7745 138.33 73.7745 M138.33 70.0708 Q144.14 70.0708 147.195 74.6773 Q150.274 79.2606 150.274 88.0105 Q150.274 96.7373 147.195 101.344 Q144.14 105.927 138.33 105.927 Q132.519 105.927 129.441 101.344 Q126.385 96.7373 126.385 88.0105 Q126.385 79.2606 129.441 74.6773 Q132.519 70.0708 138.33 70.0708 Z" fill="#000000" fill-rule="nonzero" fill-opacity="1" /><path clip-path="url(#clip322)" d="M247.59 1445.72 L260.896 1445.72 L383.935 1445.71 L457.876 1445.69 L520.392 1445.59 L588.302 1445.14 L650.909 1444.56 L684.47 1443.45 L718.031 1441.44 L756.914 1437.96 L795.798 1432.17 L804.436 1432.17 L813.075 1432.17 L821.714 1432.17 L830.353 1432.17 L832.512 1432.17 L834.672 1432.17 L835.212 1432.17 L835.752 1432.17 L836.292 1422.9 L836.832 1422.9 L837.911 1422.9 L838.991 1422.9 L843.311 1422.9 L847.63 1422.9 L856.269 1422.9 L864.908 1422.9 L868.695 1422.9 L872.483 1422.9 L873.43 1422.9 L874.377 1422.9 L875.324 1422.9 L876.271 1422.9 L876.744 1422.9 L877.218 1422.9 L877.691 1408.69 L878.165 1408.69 L878.638 1408.69 L879.111 1408.69 L879.585 1408.69 L880.058 1408.69 L881.952 1408.69 L883.846 1408.69 L885.74 1408.69 L887.634 1408.69 L891.421 1408.69 L895.209 1408.69 L902.785 1408.69 L910.36 1408.69 L912.254 1408.69 L914.148 1408.69 L915.095 1408.69 L916.042 1408.69 L916.515 1408.69 L916.988 1408.69 L917.462 1408.69 L917.935 1408.69 L918.409 1408.69 L918.882 1387.73 L919.356 1387.73 L919.829 1387.73 L920.776 1387.73 L921.723 1387.73 L923.617 1387.73 L925.511 1387.73 L929.64 1387.73 L933.77 1387.73 L937.9 1387.73 L942.029 1387.73 L946.159 1387.73 L950.288 1387.73 L954.418 1387.73 L958.548 1387.73 L959.064 1387.73 L959.58 1387.73 L960.096 1358.09 L960.612 1358.09 L961.129 1358.09 L961.645 1358.09 L962.161 1358.09 L962.677 1358.09 L964.742 1358.09 L966.807 1358.09 L970.937 1358.09 L975.066 1358.09 L983.325 1358.09 L991.585 1358.09 L993.662 1358.09 L995.739 1358.09 L996.777 1358.09 L997.816 1358.09 L998.854 1358.09 L999.893 1358.09 L1000.41 1358.09 L1000.93 1358.09 L1001.45 1317.83 L1001.97 1317.83 L1002.49 1317.83 L1003.01 1317.83 L1003.53 1317.83 L1004.05 1317.83 L1006.12 1317.83 L1008.2 1317.83 L1012.36 1317.83 L1016.51 1317.83 L1020.66 1317.83 L1024.82 1317.83 L1028.97 1317.83 L1033.13 1317.83 L1035.2 1317.83 L1037.28 1317.83 L1038.32 1317.83 L1039.36 1317.83 L1040.4 1317.83 L1041.43 1317.83 L1041.95 1317.83 L1042.47 1265.34 L1042.99 1265.34 L1043.51 1265.34 L1044.55 1265.34 L1045.59 1265.34 L1047.67 1265.34 L1049.74 1265.34 L1053.9 1265.34 L1058.05 1265.34 L1067.24 1265.34 L1076.42 1265.34 L1078.72 1265.34 L1081.02 1265.34 L1081.59 1265.34 L1082.16 1265.34 L1082.74 1265.34 L1083.31 1265.34 L1083.89 1199.64 L1084.46 1199.64 L1085.03 1199.64 L1085.61 1199.64 L1086.76 1199.64 L1087.91 1199.64 L1089.05 1199.64 L1090.2 1199.64 L1092.5 1199.64 L1094.79 1199.64 L1103.98 1199.64 L1113.17 1199.64 L1115.46 1199.64 L1117.76 1199.64 L1120.06 1199.64 L1122.35 1199.64 L1122.93 1199.64 L1123.5 1199.64 L1124.07 1199.64 L1124.65 1199.64 L1125.22 1120.69 L1125.8 1120.69 L1126.37 1120.69 L1126.95 1120.69 L1128.09 1120.69 L1129.24 1120.69 L1130.39 1120.69 L1131.54 1120.69 L1135.91 1120.69 L1140.28 1120.69 L1144.65 1120.69 L1149.02 1120.69 L1153.39 1120.69 L1157.76 1120.69 L1159.94 1120.69 L1162.13 1120.69 L1163.22 1120.69 L1164.31 1120.69 L1164.86 1120.69 L1165.41 1120.69 L1165.95 1120.69 L1166.5 1029.62 L1167.05 1029.62 L1167.59 1029.62 L1168.14 1029.62 L1168.68 1029.62 L1169.78 1029.62 L1170.87 1029.62 L1173.05 1029.62 L1175.24 1029.62 L1179.61 1029.62 L1183.98 1029.62 L1188.35 1029.62 L1192.72 1029.62 L1197.09 1029.62 L1201.46 1029.62 L1202.6 1029.62 L1203.73 1029.62 L1204.87 1029.62 L1206 1029.62 L1206.57 1029.62 L1207.14 1029.62 L1207.71 928.775 L1208.28 928.775 L1208.84 928.775 L1209.41 928.775 L1209.98 928.775 L1210.55 928.775 L1212.82 928.775 L1215.09 928.775 L1217.36 928.775 L1219.63 928.775 L1228.72 928.775 L1237.81 928.775 L1240.08 928.775 L1242.35 928.775 L1243.49 928.775 L1244.63 928.775 L1245.76 928.775 L1246.9 928.775 L1247.47 928.775 L1248.03 928.775 L1248.6 928.775 L1249.17 821.559 L1249.74 821.559 L1250.31 821.559 L1250.87 821.559 L1251.44 821.559 L1253.71 821.559 L1255.99 821.559 L1260.53 821.559 L1265.07 821.559 L1269.62 821.559 L1274.16 821.559 L1277.99 821.559 L1281.81 821.559 L1283.72 821.559 L1285.64 821.559 L1286.59 821.559 L1287.55 821.559 L1288.03 821.559 L1288.5 821.559 L1288.98 821.559 L1289.46 821.559 L1289.94 821.559 L1290.42 712.133 L1290.9 712.133 L1291.37 712.133 L1292.33 712.133 L1293.29 712.133 L1295.2 712.133 L1297.11 712.133 L1300.94 712.133 L1304.76 712.133 L1312.41 712.133 L1320.06 712.133 L1321.97 712.133 L1323.89 712.133 L1325.8 712.133 L1327.71 712.133 L1328.67 712.133 L1329.62 712.133 L1330.1 712.133 L1330.58 712.133 L1331.06 712.133 L1331.54 604.917 L1332.01 604.917 L1332.49 604.917 L1332.97 604.917 L1333.45 604.917 L1334.4 604.917 L1335.36 604.917 L1340.03 604.917 L1344.7 604.917 L1349.37 604.917 L1354.04 604.917 L1358.71 604.917 L1363.38 604.917 L1365.71 604.917 L1368.05 604.917 L1369.22 604.917 L1370.38 604.917 L1370.97 604.917 L1371.55 604.917 L1372.14 604.917 L1372.72 604.917 L1373.3 504.068 L1373.89 504.068 L1374.47 504.068 L1375.05 504.068 L1376.22 504.068 L1377.39 504.068 L1379.72 504.068 L1382.06 504.068 L1386.73 504.068 L1391.4 504.068 L1396.07 504.068 L1400.74 504.068 L1403.07 504.068 L1405.41 504.068 L1407.74 504.068 L1410.08 504.068 L1411.15 504.068 L1412.22 504.068 L1412.75 504.068 L1413.29 504.068 L1413.82 504.068 L1414.36 413 L1414.89 413 L1415.43 413 L1415.96 413 L1416.5 413 L1417.56 413 L1418.63 413 L1422.91 413 L1427.19 413 L1435.75 413 L1444.3 413 L1446.44 413 L1448.58 413 L1450.72 413 L1452.86 413 L1453.39 413 L1453.93 413 L1454.46 413 L1455 413 L1455.53 334.055 L1456.07 334.055 L1456.6 334.055 L1457.13 334.055 L1458.2 334.055 L1459.27 334.055 L1460.34 334.055 L1461.41 334.055 L1465.69 334.055 L1469.97 334.055 L1474.25 334.055 L1478.52 334.055 L1482.48 334.055 L1486.43 334.055 L1490.38 334.055 L1494.33 334.055 L1494.82 334.055 L1495.32 334.055 L1495.81 334.055 L1496.3 334.055 L1496.8 268.355 L1497.29 268.355 L1497.79 268.355 L1498.28 268.355 L1499.27 268.355 L1500.25 268.355 L1501.24 268.355 L1502.23 268.355 L1506.18 268.355 L1510.13 268.355 L1518.03 268.355 L1525.94 268.355 L1529.89 268.355 L1533.84 268.355 L1534.83 268.355 L1535.81 268.355 L1536.31 268.355 L1536.8 268.355 L1537.29 268.355 L1537.79 268.355 L1538.28 215.865 L1538.78 215.865 L1539.27 215.865 L1539.76 215.865 L1540.75 215.865 L1541.74 215.865 L1545.74 215.865 L1549.74 215.865 L1553.75 215.865 L1557.75 215.865 L1565.75 215.865 L1573.76 215.865 L1574.76 215.865 L1575.76 215.865 L1576.76 215.865 L1577.76 215.865 L1578.26 215.865 L1578.76 215.865 L1579.26 175.605 L1579.76 175.605 L1580.26 175.605 L1580.76 175.605 L1581.26 175.605 L1581.76 175.605 L1585.76 175.605 L1589.77 175.605 L1593.77 175.605 L1597.77 175.605 L1601.77 175.605 L1605.77 175.605 L1610.26 175.605 L1614.75 175.605 L1615.87 175.605 L1616.99 175.605 L1618.11 175.605 L1619.23 175.605 L1619.79 175.605 L1620.35 175.605 L1620.91 145.961 L1621.47 145.961 L1622.03 145.961 L1622.59 145.961 L1623.16 145.961 L1623.72 145.961 L1625.96 145.961 L1628.2 145.961 L1630.44 145.961 L1632.69 145.961 L1637.17 145.961 L1641.66 145.961 L1646.14 145.961 L1650.63 145.961 L1652.87 145.961 L1655.11 145.961 L1656.23 145.961 L1657.36 145.961 L1658.48 145.961 L1659.6 145.961 L1660.16 145.961 L1660.72 145.961 L1661.28 145.961 L1661.84 125.006 L1662.4 125.006 L1662.96 125.006 L1663.52 125.006 L1664.08 125.006 L1666.33 125.006 L1668.57 125.006 L1673.05 125.006 L1677.54 125.006 L1681.6 125.006 L1685.67 125.006 L1689.73 125.006 L1693.8 125.006 L1695.83 125.006 L1697.86 125.006 L1698.88 125.006 L1699.89 125.006 L1700.91 125.006 L1701.93 125.006 L1702.43 125.006 L1702.94 125.006 L1703.45 110.787 L1703.96 110.787 L1704.47 110.787 L1704.97 110.787 L1705.48 110.787 L1705.99 110.787 L1708.02 110.787 L1710.06 110.787 L1718.18 110.787 L1726.31 110.787 L1730.38 110.787 L1734.44 110.787 L1738.51 110.787 L1742.57 110.787 L1743.15 110.787 L1743.73 110.787 L1744.32 110.787 L1744.9 101.523 L1745.48 101.523 L1746.06 101.523 L1746.64 101.523 L1747.22 101.523 L1749.55 101.523 L1751.88 101.523 L1756.53 101.523 L1761.18 101.523 L1770.49 101.523 L1779.8 101.523 L1782.13 101.523 L1784.45 101.523 L1785.03 101.523 L1785.62 101.523 L1786.2 95.729 L1786.78 95.729 L1787.94 95.729 L1789.11 95.729 L1793.76 95.729 L1798.41 95.729 L1807.72 95.729 L1817.03 95.729 L1851.5 92.2505 L1885.97 90.2454 L1953.93 88.5466 L2019.92 88.246 L2087.57 88.0297 L2161.69 87.985 L2269.35 87.9771 L2291.44 87.9763 L2291.44 1445.72 L2269.35 1445.72 L2161.69 1445.72 L2087.57 1445.72 L2019.92 1445.72 L1953.93 1445.72 L1885.97 1445.72 L1851.5 1445.72 L1817.03 1445.72 L1807.72 1445.72 L1798.41 1445.72 L1793.76 1445.72 L1789.11 1445.72 L1787.94 1445.72 L1786.78 1445.72 L1786.2 1445.72 L1785.62 1445.72 L1785.03 1445.72 L1784.45 1445.72 L1782.13 1445.72 L1779.8 1445.72 L1770.49 1445.72 L1761.18 1445.72 L1756.53 1445.72 L1751.88 1445.72 L1749.55 1445.72 L1747.22 1445.72 L1746.64 1445.72 L1746.06 1445.72 L1745.48 1445.72 L1744.9 1445.72 L1744.32 1445.72 L1743.73 1445.72 L1743.15 1445.72 L1742.57 1445.72 L1738.51 1445.72 L1734.44 1445.72 L1730.38 1445.72 L1726.31 1445.72 L1718.18 1445.72 L1710.06 1445.72 L1708.02 1445.72 L1705.99 1445.72 L1705.48 1445.72 L1704.97 1445.72 L1704.47 1445.72 L1703.96 1445.72 L1703.45 1445.72 L1702.94 1445.72 L1702.43 1445.72 L1701.93 1445.72 L1700.91 1445.72 L1699.89 1445.72 L1698.88 1445.72 L1697.86 1445.72 L1695.83 1445.72 L1693.8 1445.72 L1689.73 1445.72 L1685.67 1445.72 L1681.6 1445.72 L1677.54 1445.72 L1673.05 1445.72 L1668.57 1445.72 L1666.33 1445.72 L1664.08 1445.72 L1663.52 1445.72 L1662.96 1445.72 L1662.4 1445.72 L1661.84 1445.72 L1661.28 1445.72 L1660.72 1445.72 L1660.16 1445.72 L1659.6 1445.72 L1658.48 1445.72 L1657.36 1445.72 L1656.23 1445.72 L1655.11 1445.72 L1652.87 1445.72 L1650.63 1445.72 L1646.14 1445.72 L1641.66 1445.72 L1637.17 1445.72 L1632.69 1445.72 L1630.44 1445.72 L1628.2 1445.72 L1625.96 1445.72 L1623.72 1445.72 L1623.16 1445.72 L1622.59 1445.72 L1622.03 1445.72 L1621.47 1445.72 L1620.91 1445.72 L1620.35 1445.72 L1619.79 1445.72 L1619.23 1445.72 L1618.11 1445.72 L1616.99 1445.72 L1615.87 1445.72 L1614.75 1445.72 L1610.26 1445.72 L1605.77 1445.72 L1601.77 1445.72 L1597.77 1445.72 L1593.77 1445.72 L1589.77 1445.72 L1585.76 1445.72 L1581.76 1445.72 L1581.26 1445.72 L1580.76 1445.72 L1580.26 1445.72 L1579.76 1445.72 L1579.26 1445.72 L1578.76 1445.72 L1578.26 1445.72 L1577.76 1445.72 L1576.76 1445.72 L1575.76 1445.72 L1574.76 1445.72 L1573.76 1445.72 L1565.75 1445.72 L1557.75 1445.72 L1553.75 1445.72 L1549.74 1445.72 L1545.74 1445.72 L1541.74 1445.72 L1540.75 1445.72 L1539.76 1445.72 L1539.27 1445.72 L1538.78 1445.72 L1538.28 1445.72 L1537.79 1445.72 L1537.29 1445.72 L1536.8 1445.72 L1536.31 1445.72 L1535.81 1445.72 L1534.83 1445.72 L1533.84 1445.72 L1529.89 1445.72 L1525.94 1445.72 L1518.03 1445.72 L1510.13 1445.72 L1506.18 1445.72 L1502.23 1445.72 L1501.24 1445.72 L1500.25 1445.72 L1499.27 1445.72 L1498.28 1445.72 L1497.79 1445.72 L1497.29 1445.72 L1496.8 1445.72 L1496.3 1445.72 L1495.81 1445.72 L1495.32 1445.72 L1494.82 1445.72 L1494.33 1445.72 L1490.38 1445.72 L1486.43 1445.72 L1482.48 1445.72 L1478.52 1445.72 L1474.25 1445.72 L1469.97 1445.72 L1465.69 1445.72 L1461.41 1445.72 L1460.34 1445.72 L1459.27 1445.72 L1458.2 1445.72 L1457.13 1445.72 L1456.6 1445.72 L1456.07 1445.72 L1455.53 1445.72 L1455 1445.72 L1454.46 1445.72 L1453.93 1445.72 L1453.39 1445.72 L1452.86 1445.72 L1450.72 1445.72 L1448.58 1445.72 L1446.44 1445.72 L1444.3 1445.72 L1435.75 1445.72 L1427.19 1445.72 L1422.91 1445.72 L1418.63 1445.72 L1417.56 1445.72 L1416.5 1445.72 L1415.96 1445.72 L1415.43 1445.72 L1414.89 1445.72 L1414.36 1445.72 L1413.82 1445.72 L1413.29 1445.72 L1412.75 1445.72 L1412.22 1445.72 L1411.15 1445.72 L1410.08 1445.72 L1407.74 1445.72 L1405.41 1445.72 L1403.07 1445.72 L1400.74 1445.72 L1396.07 1445.72 L1391.4 1445.72 L1386.73 1445.72 L1382.06 1445.72 L1379.72 1445.72 L1377.39 1445.72 L1376.22 1445.72 L1375.05 1445.72 L1374.47 1445.72 L1373.89 1445.72 L1373.3 1445.72 L1372.72 1445.72 L1372.14 1445.72 L1371.55 1445.72 L1370.97 1445.72 L1370.38 1445.72 L1369.22 1445.72 L1368.05 1445.72 L1365.71 1445.72 L1363.38 1445.72 L1358.71 1445.72 L1354.04 1445.72 L1349.37 1445.72 L1344.7 1445.72 L1340.03 1445.72 L1335.36 1445.72 L1334.4 1445.72 L1333.45 1445.72 L1332.97 1445.72 L1332.49 1445.72 L1332.01 1445.72 L1331.54 1445.72 L1331.06 1445.72 L1330.58 1445.72 L1330.1 1445.72 L1329.62 1445.72 L1328.67 1445.72 L1327.71 1445.72 L1325.8 1445.72 L1323.89 1445.72 L1321.97 1445.72 L1320.06 1445.72 L1312.41 1445.72 L1304.76 1445.72 L1300.94 1445.72 L1297.11 1445.72 L1295.2 1445.72 L1293.29 1445.72 L1292.33 1445.72 L1291.37 1445.72 L1290.9 1445.72 L1290.42 1445.72 L1289.94 1445.72 L1289.46 1445.72 L1288.98 1445.72 L1288.5 1445.72 L1288.03 1445.72 L1287.55 1445.72 L1286.59 1445.72 L1285.64 1445.72 L1283.72 1445.72 L1281.81 1445.72 L1277.99 1445.72 L1274.16 1445.72 L1269.62 1445.72 L1265.07 1445.72 L1260.53 1445.72 L1255.99 1445.72 L1253.71 1445.72 L1251.44 1445.72 L1250.87 1445.72 L1250.31 1445.72 L1249.74 1445.72 L1249.17 1445.72 L1248.6 1445.72 L1248.03 1445.72 L1247.47 1445.72 L1246.9 1445.72 L1245.76 1445.72 L1244.63 1445.72 L1243.49 1445.72 L1242.35 1445.72 L1240.08 1445.72 L1237.81 1445.72 L1228.72 1445.72 L1219.63 1445.72 L1217.36 1445.72 L1215.09 1445.72 L1212.82 1445.72 L1210.55 1445.72 L1209.98 1445.72 L1209.41 1445.72 L1208.84 1445.72 L1208.28 1445.72 L1207.71 1445.72 L1207.14 1445.72 L1206.57 1445.72 L1206 1445.72 L1204.87 1445.72 L1203.73 1445.72 L1202.6 1445.72 L1201.46 1445.72 L1197.09 1445.72 L1192.72 1445.72 L1188.35 1445.72 L1183.98 1445.72 L1179.61 1445.72 L1175.24 1445.72 L1173.05 1445.72 L1170.87 1445.72 L1169.78 1445.72 L1168.68 1445.72 L1168.14 1445.72 L1167.59 1445.72 L1167.05 1445.72 L1166.5 1445.72 L1165.95 1445.72 L1165.41 1445.72 L1164.86 1445.72 L1164.31 1445.72 L1163.22 1445.72 L1162.13 1445.72 L1159.94 1445.72 L1157.76 1445.72 L1153.39 1445.72 L1149.02 1445.72 L1144.65 1445.72 L1140.28 1445.72 L1135.91 1445.72 L1131.54 1445.72 L1130.39 1445.72 L1129.24 1445.72 L1128.09 1445.72 L1126.95 1445.72 L1126.37 1445.72 L1125.8 1445.72 L1125.22 1445.72 L1124.65 1445.72 L1124.07 1445.72 L1123.5 1445.72 L1122.93 1445.72 L1122.35 1445.72 L1120.06 1445.72 L1117.76 1445.72 L1115.46 1445.72 L1113.17 1445.72 L1103.98 1445.72 L1094.79 1445.72 L1092.5 1445.72 L1090.2 1445.72 L1089.05 1445.72 L1087.91 1445.72 L1086.76 1445.72 L1085.61 1445.72 L1085.03 1445.72 L1084.46 1445.72 L1083.89 1445.72 L1083.31 1445.72 L1082.74 1445.72 L1082.16 1445.72 L1081.59 1445.72 L1081.02 1445.72 L1078.72 1445.72 L1076.42 1445.72 L1067.24 1445.72 L1058.05 1445.72 L1053.9 1445.72 L1049.74 1445.72 L1047.67 1445.72 L1045.59 1445.72 L1044.55 1445.72 L1043.51 1445.72 L1042.99 1445.72 L1042.47 1445.72 L1041.95 1445.72 L1041.43 1445.72 L1040.4 1445.72 L1039.36 1445.72 L1038.32 1445.72 L1037.28 1445.72 L1035.2 1445.72 L1033.13 1445.72 L1028.97 1445.72 L1024.82 1445.72 L1020.66 1445.72 L1016.51 1445.72 L1012.36 1445.72 L1008.2 1445.72 L1006.12 1445.72 L1004.05 1445.72 L1003.53 1445.72 L1003.01 1445.72 L1002.49 1445.72 L1001.97 1445.72 L1001.45 1445.72 L1000.93 1445.72 L1000.41 1445.72 L999.893 1445.72 L998.854 1445.72 L997.816 1445.72 L996.777 1445.72 L995.739 1445.72 L993.662 1445.72 L991.585 1445.72 L983.325 1445.72 L975.066 1445.72 L970.937 1445.72 L966.807 1445.72 L964.742 1445.72 L962.677 1445.72 L962.161 1445.72 L961.645 1445.72 L961.129 1445.72 L960.612 1445.72 L960.096 1445.72 L959.58 1445.72 L959.064 1445.72 L958.548 1445.72 L954.418 1445.72 L950.288 1445.72 L946.159 1445.72 L942.029 1445.72 L937.9 1445.72 L933.77 1445.72 L929.64 1445.72 L925.511 1445.72 L923.617 1445.72 L921.723 1445.72 L920.776 1445.72 L919.829 1445.72 L919.356 1445.72 L918.882 1445.72 L918.409 1445.72 L917.935 1445.72 L917.462 1445.72 L916.988 1445.72 L916.515 1445.72 L916.042 1445.72 L915.095 1445.72 L914.148 1445.72 L912.254 1445.72 L910.36 1445.72 L902.785 1445.72 L895.209 1445.72 L891.421 1445.72 L887.634 1445.72 L885.74 1445.72 L883.846 1445.72 L881.952 1445.72 L880.058 1445.72 L879.585 1445.72 L879.111 1445.72 L878.638 1445.72 L878.165 1445.72 L877.691 1445.72 L877.218 1445.72 L876.744 1445.72 L876.271 1445.72 L875.324 1445.72 L874.377 1445.72 L873.43 1445.72 L872.483 1445.72 L868.695 1445.72 L864.908 1445.72 L856.269 1445.72 L847.63 1445.72 L843.311 1445.72 L838.991 1445.72 L837.911 1445.72 L836.832 1445.72 L836.292 1445.72 L835.752 1445.72 L835.212 1445.72 L834.672 1445.72 L832.512 1445.72 L830.353 1445.72 L821.714 1445.72 L813.075 1445.72 L804.436 1445.72 L795.798 1445.72 L756.914 1445.72 L718.031 1445.72 L684.47 1445.72 L650.909 1445.72 L588.302 1445.72 L520.392 1445.72 L457.876 1445.72 L383.935 1445.72 L260.896 1445.72 L247.59 1445.72  Z" fill="#009af9" fill-rule="evenodd" fill-opacity="1"/>
<polyline clip-path="url(#clip322)" style="stroke:#009af9; stroke-linecap:round; stroke-linejoin:round; stroke-width:4; stroke-opacity:1; fill:none" points="247.59,1445.72 260.896,1445.72 383.935,1445.71 457.876,1445.69 520.392,1445.59 588.302,1445.14 650.909,1444.56 684.47,1443.45 718.031,1441.44 756.914,1437.96 795.798,1432.17 804.436,1432.17 813.075,1432.17 821.714,1432.17 830.353,1432.17 832.512,1432.17 834.672,1432.17 835.212,1432.17 835.752,1432.17 836.292,1422.9 836.832,1422.9 837.911,1422.9 838.991,1422.9 843.311,1422.9 847.63,1422.9 856.269,1422.9 864.908,1422.9 868.695,1422.9 872.483,1422.9 873.43,1422.9 874.377,1422.9 875.324,1422.9 876.271,1422.9 876.744,1422.9 877.218,1422.9 877.691,1408.69 878.165,1408.69 878.638,1408.69 879.111,1408.69 879.585,1408.69 880.058,1408.69 881.952,1408.69 883.846,1408.69 885.74,1408.69 887.634,1408.69 891.421,1408.69 895.209,1408.69 902.785,1408.69 910.36,1408.69 912.254,1408.69 914.148,1408.69 915.095,1408.69 916.042,1408.69 916.515,1408.69 916.988,1408.69 917.462,1408.69 917.935,1408.69 918.409,1408.69 918.882,1387.73 919.356,1387.73 919.829,1387.73 920.776,1387.73 921.723,1387.73 923.617,1387.73 925.511,1387.73 929.64,1387.73 933.77,1387.73 937.9,1387.73 942.029,1387.73 946.159,1387.73 950.288,1387.73 954.418,1387.73 958.548,1387.73 959.064,1387.73 959.58,1387.73 960.096,1358.09 960.612,1358.09 961.129,1358.09 961.645,1358.09 962.161,1358.09 962.677,1358.09 964.742,1358.09 966.807,1358.09 970.937,1358.09 975.066,1358.09 983.325,1358.09 991.585,1358.09 993.662,1358.09 995.739,1358.09 996.777,1358.09 997.816,1358.09 998.854,1358.09 999.893,1358.09 1000.41,1358.09 1000.93,1358.09 1001.45,1317.83 1001.97,1317.83 1002.49,1317.83 1003.01,1317.83 1003.53,1317.83 1004.05,1317.83 1006.12,1317.83 1008.2,1317.83 1012.36,1317.83 1016.51,1317.83 1020.66,1317.83 1024.82,1317.83 1028.97,1317.83 1033.13,1317.83 1035.2,1317.83 1037.28,1317.83 1038.32,1317.83 1039.36,1317.83 1040.4,1317.83 1041.43,1317.83 1041.95,1317.83 1042.47,1265.34 1042.99,1265.34 1043.51,1265.34 1044.55,1265.34 1045.59,1265.34 1047.67,1265.34 1049.74,1265.34 1053.9,1265.34 1058.05,1265.34 1067.24,1265.34 1076.42,1265.34 1078.72,1265.34 1081.02,1265.34 1081.59,1265.34 1082.16,1265.34 1082.74,1265.34 1083.31,1265.34 1083.89,1199.64 1084.46,1199.64 1085.03,1199.64 1085.61,1199.64 1086.76,1199.64 1087.91,1199.64 1089.05,1199.64 1090.2,1199.64 1092.5,1199.64 1094.79,1199.64 1103.98,1199.64 1113.17,1199.64 1115.46,1199.64 1117.76,1199.64 1120.06,1199.64 1122.35,1199.64 1122.93,1199.64 1123.5,1199.64 1124.07,1199.64 1124.65,1199.64 1125.22,1120.69 1125.8,1120.69 1126.37,1120.69 1126.95,1120.69 1128.09,1120.69 1129.24,1120.69 1130.39,1120.69 1131.54,1120.69 1135.91,1120.69 1140.28,1120.69 1144.65,1120.69 1149.02,1120.69 1153.39,1120.69 1157.76,1120.69 1159.94,1120.69 1162.13,1120.69 1163.22,1120.69 1164.31,1120.69 1164.86,1120.69 1165.41,1120.69 1165.95,1120.69 1166.5,1029.62 1167.05,1029.62 1167.59,1029.62 1168.14,1029.62 1168.68,1029.62 1169.78,1029.62 1170.87,1029.62 1173.05,1029.62 1175.24,1029.62 1179.61,1029.62 1183.98,1029.62 1188.35,1029.62 1192.72,1029.62 1197.09,1029.62 1201.46,1029.62 1202.6,1029.62 1203.73,1029.62 1204.87,1029.62 1206,1029.62 1206.57,1029.62 1207.14,1029.62 1207.71,928.775 1208.28,928.775 1208.84,928.775 1209.41,928.775 1209.98,928.775 1210.55,928.775 1212.82,928.775 1215.09,928.775 1217.36,928.775 1219.63,928.775 1228.72,928.775 1237.81,928.775 1240.08,928.775 1242.35,928.775 1243.49,928.775 1244.63,928.775 1245.76,928.775 1246.9,928.775 1247.47,928.775 1248.03,928.775 1248.6,928.775 1249.17,821.559 1249.74,821.559 1250.31,821.559 1250.87,821.559 1251.44,821.559 1253.71,821.559 1255.99,821.559 1260.53,821.559 1265.07,821.559 1269.62,821.559 1274.16,821.559 1277.99,821.559 1281.81,821.559 1283.72,821.559 1285.64,821.559 1286.59,821.559 1287.55,821.559 1288.03,821.559 1288.5,821.559 1288.98,821.559 1289.46,821.559 1289.94,821.559 1290.42,712.133 1290.9,712.133 1291.37,712.133 1292.33,712.133 1293.29,712.133 1295.2,712.133 1297.11,712.133 1300.94,712.133 1304.76,712.133 1312.41,712.133 1320.06,712.133 1321.97,712.133 1323.89,712.133 1325.8,712.133 1327.71,712.133 1328.67,712.133 1329.62,712.133 1330.1,712.133 1330.58,712.133 1331.06,712.133 1331.54,604.917 1332.01,604.917 1332.49,604.917 1332.97,604.917 1333.45,604.917 1334.4,604.917 1335.36,604.917 1340.03,604.917 1344.7,604.917 1349.37,604.917 1354.04,604.917 1358.71,604.917 1363.38,604.917 1365.71,604.917 1368.05,604.917 1369.22,604.917 1370.38,604.917 1370.97,604.917 1371.55,604.917 1372.14,604.917 1372.72,604.917 1373.3,504.068 1373.89,504.068 1374.47,504.068 1375.05,504.068 1376.22,504.068 1377.39,504.068 1379.72,504.068 1382.06,504.068 1386.73,504.068 1391.4,504.068 1396.07,504.068 1400.74,504.068 1403.07,504.068 1405.41,504.068 1407.74,504.068 1410.08,504.068 1411.15,504.068 1412.22,504.068 1412.75,504.068 1413.29,504.068 1413.82,504.068 1414.36,413 1414.89,413 1415.43,413 1415.96,413 1416.5,413 1417.56,413 1418.63,413 1422.91,413 1427.19,413 1435.75,413 1444.3,413 1446.44,413 1448.58,413 1450.72,413 1452.86,413 1453.39,413 1453.93,413 1454.46,413 1455,413 1455.53,334.055 1456.07,334.055 1456.6,334.055 1457.13,334.055 1458.2,334.055 1459.27,334.055 1460.34,334.055 1461.41,334.055 1465.69,334.055 1469.97,334.055 1474.25,334.055 1478.52,334.055 1482.48,334.055 1486.43,334.055 1490.38,334.055 1494.33,334.055 1494.82,334.055 1495.32,334.055 1495.81,334.055 1496.3,334.055 1496.8,268.355 1497.29,268.355 1497.79,268.355 1498.28,268.355 1499.27,268.355 1500.25,268.355 1501.24,268.355 1502.23,268.355 1506.18,268.355 1510.13,268.355 1518.03,268.355 1525.94,268.355 1529.89,268.355 1533.84,268.355 1534.83,268.355 1535.81,268.355 1536.31,268.355 1536.8,268.355 1537.29,268.355 1537.79,268.355 1538.28,215.865 1538.78,215.865 1539.27,215.865 1539.76,215.865 1540.75,215.865 1541.74,215.865 1545.74,215.865 1549.74,215.865 1553.75,215.865 1557.75,215.865 1565.75,215.865 1573.76,215.865 1574.76,215.865 1575.76,215.865 1576.76,215.865 1577.76,215.865 1578.26,215.865 1578.76,215.865 1579.26,175.605 1579.76,175.605 1580.26,175.605 1580.76,175.605 1581.26,175.605 1581.76,175.605 1585.76,175.605 1589.77,175.605 1593.77,175.605 1597.77,175.605 1601.77,175.605 1605.77,175.605 1610.26,175.605 1614.75,175.605 1615.87,175.605 1616.99,175.605 1618.11,175.605 1619.23,175.605 1619.79,175.605 1620.35,175.605 1620.91,145.961 1621.47,145.961 1622.03,145.961 1622.59,145.961 1623.16,145.961 1623.72,145.961 1625.96,145.961 1628.2,145.961 1630.44,145.961 1632.69,145.961 1637.17,145.961 1641.66,145.961 1646.14,145.961 1650.63,145.961 1652.87,145.961 1655.11,145.961 1656.23,145.961 1657.36,145.961 1658.48,145.961 1659.6,145.961 1660.16,145.961 1660.72,145.961 1661.28,145.961 1661.84,125.006 1662.4,125.006 1662.96,125.006 1663.52,125.006 1664.08,125.006 1666.33,125.006 1668.57,125.006 1673.05,125.006 1677.54,125.006 1681.6,125.006 1685.67,125.006 1689.73,125.006 1693.8,125.006 1695.83,125.006 1697.86,125.006 1698.88,125.006 1699.89,125.006 1700.91,125.006 1701.93,125.006 1702.43,125.006 1702.94,125.006 1703.45,110.787 1703.96,110.787 1704.47,110.787 1704.97,110.787 1705.48,110.787 1705.99,110.787 1708.02,110.787 1710.06,110.787 1718.18,110.787 1726.31,110.787 1730.38,110.787 1734.44,110.787 1738.51,110.787 1742.57,110.787 1743.15,110.787 1743.73,110.787 1744.32,110.787 1744.9,101.523 1745.48,101.523 1746.06,101.523 1746.64,101.523 1747.22,101.523 1749.55,101.523 1751.88,101.523 1756.53,101.523 1761.18,101.523 1770.49,101.523 1779.8,101.523 1782.13,101.523 1784.45,101.523 1785.03,101.523 1785.62,101.523 1786.2,95.729 1786.78,95.729 1787.94,95.729 1789.11,95.729 1793.76,95.729 1798.41,95.729 1807.72,95.729 1817.03,95.729 1851.5,92.2505 1885.97,90.2454 1953.93,88.5466 2019.92,88.246 2087.57,88.0297 2161.69,87.985 2269.35,87.9771 2291.44,87.9763 "/>
</svg>
