<?xml version="1.0" encoding="utf-8"?>
<svg xmlns="http://www.w3.org/2000/svg" xmlns:xlink="http://www.w3.org/1999/xlink" width="600" height="400" viewBox="0 0 2400 1600">
<defs>
  <clipPath id="clip080">
    <rect x="0" y="0" width="2400" height="1600"/>
  </clipPath>
</defs>
<path clip-path="url(#clip080)" d="M0 1600 L2400 1600 L2400 0 L0 0  Z" fill="#ffffff" fill-rule="evenodd" fill-opacity="1"/>
<defs>
  <clipPath id="clip081">
    <rect x="480" y="0" width="1681" height="1600"/>
  </clipPath>
</defs>
<path clip-path="url(#clip080)" d="M112.177 1486.45 L2352.76 1486.45 L2352.76 47.2441 L112.177 47.2441  Z" fill="#ffffff" fill-rule="evenodd" fill-opacity="1"/>
<defs>
  <clipPath id="clip082">
    <rect x="112" y="47" width="2242" height="1440"/>
  </clipPath>
</defs>
<polyline clip-path="url(#clip082)" style="stroke:#000000; stroke-linecap:round; stroke-linejoin:round; stroke-width:2; stroke-opacity:0.1; fill:none" points="175.59,1486.45 175.59,47.2441 "/>
<polyline clip-path="url(#clip082)" style="stroke:#000000; stroke-linecap:round; stroke-linejoin:round; stroke-width:2; stroke-opacity:0.1; fill:none" points="512.004,1486.45 512.004,47.2441 "/>
<polyline clip-path="url(#clip082)" style="stroke:#000000; stroke-linecap:round; stroke-linejoin:round; stroke-width:2; stroke-opacity:0.1; fill:none" points="848.418,1486.45 848.418,47.2441 "/>
<polyline clip-path="url(#clip082)" style="stroke:#000000; stroke-linecap:round; stroke-linejoin:round; stroke-width:2; stroke-opacity:0.1; fill:none" points="1184.83,1486.45 1184.83,47.2441 "/>
<polyline clip-path="url(#clip082)" style="stroke:#000000; stroke-linecap:round; stroke-linejoin:round; stroke-width:2; stroke-opacity:0.1; fill:none" points="1521.25,1486.45 1521.25,47.2441 "/>
<polyline clip-path="url(#clip082)" style="stroke:#000000; stroke-linecap:round; stroke-linejoin:round; stroke-width:2; stroke-opacity:0.1; fill:none" points="1857.66,1486.45 1857.66,47.2441 "/>
<polyline clip-path="url(#clip082)" style="stroke:#000000; stroke-linecap:round; stroke-linejoin:round; stroke-width:2; stroke-opacity:0.1; fill:none" points="2194.08,1486.45 2194.08,47.2441 "/>
<polyline clip-path="url(#clip080)" style="stroke:#000000; stroke-linecap:round; stroke-linejoin:round; stroke-width:4; stroke-opacity:1; fill:none" points="112.177,1486.45 2352.76,1486.45 "/>
<polyline clip-path="url(#clip080)" style="stroke:#000000; stroke-linecap:round; stroke-linejoin:round; stroke-width:4; stroke-opacity:1; fill:none" points="175.59,1486.45 175.59,1467.55 "/>
<polyline clip-path="url(#clip080)" style="stroke:#000000; stroke-linecap:round; stroke-linejoin:round; stroke-width:4; stroke-opacity:1; fill:none" points="512.004,1486.45 512.004,1467.55 "/>
<polyline clip-path="url(#clip080)" style="stroke:#000000; stroke-linecap:round; stroke-linejoin:round; stroke-width:4; stroke-opacity:1; fill:none" points="848.418,1486.45 848.418,1467.55 "/>
<polyline clip-path="url(#clip080)" style="stroke:#000000; stroke-linecap:round; stroke-linejoin:round; stroke-width:4; stroke-opacity:1; fill:none" points="1184.83,1486.45 1184.83,1467.55 "/>
<polyline clip-path="url(#clip080)" style="stroke:#000000; stroke-linecap:round; stroke-linejoin:round; stroke-width:4; stroke-opacity:1; fill:none" points="1521.25,1486.45 1521.25,1467.55 "/>
<polyline clip-path="url(#clip080)" style="stroke:#000000; stroke-linecap:round; stroke-linejoin:round; stroke-width:4; stroke-opacity:1; fill:none" points="1857.66,1486.45 1857.66,1467.55 "/>
<polyline clip-path="url(#clip080)" style="stroke:#000000; stroke-linecap:round; stroke-linejoin:round; stroke-width:4; stroke-opacity:1; fill:none" points="2194.08,1486.45 2194.08,1467.55 "/>
<path clip-path="url(#clip080)" d="M175.59 1517.37 Q171.979 1517.37 170.15 1520.93 Q168.344 1524.47 168.344 1531.6 Q168.344 1538.71 170.15 1542.27 Q171.979 1545.82 175.59 1545.82 Q179.224 1545.82 181.03 1542.27 Q182.858 1538.71 182.858 1531.6 Q182.858 1524.47 181.03 1520.93 Q179.224 1517.37 175.59 1517.37 M175.59 1513.66 Q181.4 1513.66 184.455 1518.27 Q187.534 1522.85 187.534 1531.6 Q187.534 1540.33 184.455 1544.94 Q181.4 1549.52 175.59 1549.52 Q169.78 1549.52 166.701 1544.94 Q163.645 1540.33 163.645 1531.6 Q163.645 1522.85 166.701 1518.27 Q169.78 1513.66 175.59 1513.66 Z" fill="#000000" fill-rule="nonzero" fill-opacity="1" /><path clip-path="url(#clip080)" d="M502.386 1544.91 L510.025 1544.91 L510.025 1518.55 L501.715 1520.21 L501.715 1515.95 L509.979 1514.29 L514.655 1514.29 L514.655 1544.91 L522.293 1544.91 L522.293 1548.85 L502.386 1548.85 L502.386 1544.91 Z" fill="#000000" fill-rule="nonzero" fill-opacity="1" /><path clip-path="url(#clip080)" d="M843.071 1544.91 L859.391 1544.91 L859.391 1548.85 L837.446 1548.85 L837.446 1544.91 Q840.108 1542.16 844.692 1537.53 Q849.298 1532.88 850.479 1531.53 Q852.724 1529.01 853.604 1527.27 Q854.506 1525.51 854.506 1523.82 Q854.506 1521.07 852.562 1519.33 Q850.641 1517.6 847.539 1517.6 Q845.34 1517.6 842.886 1518.36 Q840.456 1519.13 837.678 1520.68 L837.678 1515.95 Q840.502 1514.82 842.955 1514.24 Q845.409 1513.66 847.446 1513.66 Q852.817 1513.66 856.011 1516.35 Q859.205 1519.03 859.205 1523.52 Q859.205 1525.65 858.395 1527.57 Q857.608 1529.47 855.502 1532.07 Q854.923 1532.74 851.821 1535.95 Q848.719 1539.15 843.071 1544.91 Z" fill="#000000" fill-rule="nonzero" fill-opacity="1" /><path clip-path="url(#clip080)" d="M1189.08 1530.21 Q1192.44 1530.93 1194.31 1533.2 Q1196.21 1535.47 1196.21 1538.8 Q1196.21 1543.92 1192.69 1546.72 Q1189.17 1549.52 1182.69 1549.52 Q1180.52 1549.52 1178.2 1549.08 Q1175.91 1548.66 1173.46 1547.81 L1173.46 1543.29 Q1175.4 1544.43 1177.71 1545.01 Q1180.03 1545.58 1182.55 1545.58 Q1186.95 1545.58 1189.24 1543.85 Q1191.56 1542.11 1191.56 1538.8 Q1191.56 1535.75 1189.4 1534.03 Q1187.27 1532.3 1183.46 1532.3 L1179.43 1532.3 L1179.43 1528.45 L1183.64 1528.45 Q1187.09 1528.45 1188.92 1527.09 Q1190.75 1525.7 1190.75 1523.11 Q1190.75 1520.45 1188.85 1519.03 Q1186.97 1517.6 1183.46 1517.6 Q1181.53 1517.6 1179.34 1518.01 Q1177.14 1518.43 1174.5 1519.31 L1174.5 1515.14 Q1177.16 1514.4 1179.47 1514.03 Q1181.81 1513.66 1183.87 1513.66 Q1189.2 1513.66 1192.3 1516.09 Q1195.4 1518.5 1195.4 1522.62 Q1195.4 1525.49 1193.76 1527.48 Q1192.11 1529.45 1189.08 1530.21 Z" fill="#000000" fill-rule="nonzero" fill-opacity="1" /><path clip-path="url(#clip080)" d="M1524.26 1518.36 L1512.45 1536.81 L1524.26 1536.81 L1524.26 1518.36 M1523.03 1514.29 L1528.91 1514.29 L1528.91 1536.81 L1533.84 1536.81 L1533.84 1540.7 L1528.91 1540.7 L1528.91 1548.85 L1524.26 1548.85 L1524.26 1540.7 L1508.65 1540.7 L1508.65 1536.19 L1523.03 1514.29 Z" fill="#000000" fill-rule="nonzero" fill-opacity="1" /><path clip-path="url(#clip080)" d="M1847.94 1514.29 L1866.3 1514.29 L1866.3 1518.22 L1852.22 1518.22 L1852.22 1526.7 Q1853.24 1526.35 1854.26 1526.19 Q1855.28 1526 1856.3 1526 Q1862.08 1526 1865.46 1529.17 Q1868.84 1532.34 1868.84 1537.76 Q1868.84 1543.34 1865.37 1546.44 Q1861.9 1549.52 1855.58 1549.52 Q1853.4 1549.52 1851.13 1549.15 Q1848.89 1548.78 1846.48 1548.04 L1846.48 1543.34 Q1848.56 1544.47 1850.79 1545.03 Q1853.01 1545.58 1855.49 1545.58 Q1859.49 1545.58 1861.83 1543.48 Q1864.17 1541.37 1864.17 1537.76 Q1864.17 1534.15 1861.83 1532.04 Q1859.49 1529.94 1855.49 1529.94 Q1853.61 1529.94 1851.74 1530.35 Q1849.88 1530.77 1847.94 1531.65 L1847.94 1514.29 Z" fill="#000000" fill-rule="nonzero" fill-opacity="1" /><path clip-path="url(#clip080)" d="M2194.48 1529.7 Q2191.33 1529.7 2189.48 1531.86 Q2187.65 1534.01 2187.65 1537.76 Q2187.65 1541.49 2189.48 1543.66 Q2191.33 1545.82 2194.48 1545.82 Q2197.63 1545.82 2199.46 1543.66 Q2201.31 1541.49 2201.31 1537.76 Q2201.31 1534.01 2199.46 1531.86 Q2197.63 1529.7 2194.48 1529.7 M2203.76 1515.05 L2203.76 1519.31 Q2202 1518.48 2200.2 1518.04 Q2198.42 1517.6 2196.66 1517.6 Q2192.03 1517.6 2189.57 1520.72 Q2187.14 1523.85 2186.8 1530.17 Q2188.16 1528.15 2190.22 1527.09 Q2192.28 1526 2194.76 1526 Q2199.97 1526 2202.98 1529.17 Q2206.01 1532.32 2206.01 1537.76 Q2206.01 1543.08 2202.86 1546.3 Q2199.71 1549.52 2194.48 1549.52 Q2188.49 1549.52 2185.31 1544.94 Q2182.14 1540.33 2182.14 1531.6 Q2182.14 1523.41 2186.03 1518.55 Q2189.92 1513.66 2196.47 1513.66 Q2198.23 1513.66 2200.01 1514.01 Q2201.82 1514.36 2203.76 1515.05 Z" fill="#000000" fill-rule="nonzero" fill-opacity="1" /><polyline clip-path="url(#clip082)" style="stroke:#000000; stroke-linecap:round; stroke-linejoin:round; stroke-width:2; stroke-opacity:0.1; fill:none" points="112.177,1445.72 2352.76,1445.72 "/>
<polyline clip-path="url(#clip082)" style="stroke:#000000; stroke-linecap:round; stroke-linejoin:round; stroke-width:2; stroke-opacity:0.1; fill:none" points="112.177,1144 2352.76,1144 "/>
<polyline clip-path="url(#clip082)" style="stroke:#000000; stroke-linecap:round; stroke-linejoin:round; stroke-width:2; stroke-opacity:0.1; fill:none" points="112.177,842.276 2352.76,842.276 "/>
<polyline clip-path="url(#clip082)" style="stroke:#000000; stroke-linecap:round; stroke-linejoin:round; stroke-width:2; stroke-opacity:0.1; fill:none" points="112.177,540.556 2352.76,540.556 "/>
<polyline clip-path="url(#clip082)" style="stroke:#000000; stroke-linecap:round; stroke-linejoin:round; stroke-width:2; stroke-opacity:0.1; fill:none" points="112.177,238.836 2352.76,238.836 "/>
<polyline clip-path="url(#clip080)" style="stroke:#000000; stroke-linecap:round; stroke-linejoin:round; stroke-width:4; stroke-opacity:1; fill:none" points="112.177,1486.45 112.177,47.2441 "/>
<polyline clip-path="url(#clip080)" style="stroke:#000000; stroke-linecap:round; stroke-linejoin:round; stroke-width:4; stroke-opacity:1; fill:none" points="112.177,1445.72 131.075,1445.72 "/>
<polyline clip-path="url(#clip080)" style="stroke:#000000; stroke-linecap:round; stroke-linejoin:round; stroke-width:4; stroke-opacity:1; fill:none" points="112.177,1144 131.075,1144 "/>
<polyline clip-path="url(#clip080)" style="stroke:#000000; stroke-linecap:round; stroke-linejoin:round; stroke-width:4; stroke-opacity:1; fill:none" points="112.177,842.276 131.075,842.276 "/>
<polyline clip-path="url(#clip080)" style="stroke:#000000; stroke-linecap:round; stroke-linejoin:round; stroke-width:4; stroke-opacity:1; fill:none" points="112.177,540.556 131.075,540.556 "/>
<polyline clip-path="url(#clip080)" style="stroke:#000000; stroke-linecap:round; stroke-linejoin:round; stroke-width:4; stroke-opacity:1; fill:none" points="112.177,238.836 131.075,238.836 "/>
<path clip-path="url(#clip080)" d="M64.2328 1431.51 Q60.6217 1431.51 58.793 1435.08 Q56.9875 1438.62 56.9875 1445.75 Q56.9875 1452.86 58.793 1456.42 Q60.6217 1459.96 64.2328 1459.96 Q67.867 1459.96 69.6726 1456.42 Q71.5013 1452.86 71.5013 1445.75 Q71.5013 1438.62 69.6726 1435.08 Q67.867 1431.51 64.2328 1431.51 M64.2328 1427.81 Q70.0429 1427.81 73.0985 1432.42 Q76.1772 1437 76.1772 1445.75 Q76.1772 1454.48 73.0985 1459.08 Q70.0429 1463.67 64.2328 1463.67 Q58.4226 1463.67 55.344 1459.08 Q52.2884 1454.48 52.2884 1445.75 Q52.2884 1437 55.344 1432.42 Q58.4226 1427.81 64.2328 1427.81 Z" fill="#000000" fill-rule="nonzero" fill-opacity="1" /><path clip-path="url(#clip080)" d="M59.8578 1157.34 L76.1772 1157.34 L76.1772 1161.28 L54.2328 1161.28 L54.2328 1157.34 Q56.8949 1154.59 61.4782 1149.96 Q66.0846 1145.3 67.2652 1143.96 Q69.5105 1141.44 70.3902 1139.7 Q71.2929 1137.94 71.2929 1136.25 Q71.2929 1133.5 69.3485 1131.76 Q67.4272 1130.03 64.3254 1130.03 Q62.1263 1130.03 59.6726 1130.79 Q57.2421 1131.55 54.4643 1133.1 L54.4643 1128.38 Q57.2884 1127.25 59.7421 1126.67 Q62.1958 1126.09 64.2328 1126.09 Q69.6031 1126.09 72.7976 1128.78 Q75.992 1131.46 75.992 1135.95 Q75.992 1138.08 75.1818 1140 Q74.3948 1141.9 72.2883 1144.49 Q71.7096 1145.16 68.6078 1148.38 Q65.5059 1151.58 59.8578 1157.34 Z" fill="#000000" fill-rule="nonzero" fill-opacity="1" /><path clip-path="url(#clip080)" d="M66.5939 829.07 L54.7884 847.519 L66.5939 847.519 L66.5939 829.07 M65.367 824.996 L71.2466 824.996 L71.2466 847.519 L76.1772 847.519 L76.1772 851.408 L71.2466 851.408 L71.2466 859.556 L66.5939 859.556 L66.5939 851.408 L50.9921 851.408 L50.9921 846.894 L65.367 824.996 Z" fill="#000000" fill-rule="nonzero" fill-opacity="1" /><path clip-path="url(#clip080)" d="M64.6495 538.693 Q61.5013 538.693 59.6495 540.845 Q57.8208 542.998 57.8208 546.748 Q57.8208 550.475 59.6495 552.651 Q61.5013 554.804 64.6495 554.804 Q67.7976 554.804 69.6263 552.651 Q71.4781 550.475 71.4781 546.748 Q71.4781 542.998 69.6263 540.845 Q67.7976 538.693 64.6495 538.693 M73.9318 524.04 L73.9318 528.299 Q72.1726 527.466 70.367 527.026 Q68.5846 526.586 66.8254 526.586 Q62.1958 526.586 59.7421 529.711 Q57.3115 532.836 56.9643 539.156 Q58.33 537.142 60.3902 536.077 Q62.4504 534.989 64.9272 534.989 Q70.1355 534.989 73.1448 538.16 Q76.1772 541.308 76.1772 546.748 Q76.1772 552.072 73.029 555.29 Q69.8809 558.507 64.6495 558.507 Q58.6541 558.507 55.4828 553.924 Q52.3116 549.318 52.3116 540.591 Q52.3116 532.396 56.2004 527.535 Q60.0893 522.651 66.6402 522.651 Q68.3994 522.651 70.1818 522.998 Q71.9874 523.346 73.9318 524.04 Z" fill="#000000" fill-rule="nonzero" fill-opacity="1" /><path clip-path="url(#clip080)" d="M64.3254 239.704 Q60.9921 239.704 59.0708 241.487 Q57.1726 243.269 57.1726 246.394 Q57.1726 249.519 59.0708 251.301 Q60.9921 253.084 64.3254 253.084 Q67.6587 253.084 69.58 251.301 Q71.5013 249.496 71.5013 246.394 Q71.5013 243.269 69.58 241.487 Q67.6819 239.704 64.3254 239.704 M59.6495 237.714 Q56.6402 236.973 54.9504 234.913 Q53.2838 232.852 53.2838 229.89 Q53.2838 225.746 56.2236 223.339 Q59.1865 220.931 64.3254 220.931 Q69.4874 220.931 72.4272 223.339 Q75.367 225.746 75.367 229.89 Q75.367 232.852 73.6772 234.913 Q72.0105 236.973 69.0244 237.714 Q72.404 238.501 74.279 240.792 Q76.1772 243.084 76.1772 246.394 Q76.1772 251.417 73.0985 254.102 Q70.0429 256.788 64.3254 256.788 Q58.6078 256.788 55.5291 254.102 Q52.4736 251.417 52.4736 246.394 Q52.4736 243.084 54.3717 240.792 Q56.2699 238.501 59.6495 237.714 M57.9365 230.329 Q57.9365 233.014 59.6032 234.519 Q61.293 236.024 64.3254 236.024 Q67.3346 236.024 69.0244 234.519 Q70.7374 233.014 70.7374 230.329 Q70.7374 227.644 69.0244 226.14 Q67.3346 224.635 64.3254 224.635 Q61.293 224.635 59.6032 226.14 Q57.9365 227.644 57.9365 230.329 Z" fill="#000000" fill-rule="nonzero" fill-opacity="1" /><path clip-path="url(#clip082)" d="M645.313 1445.72 L645.313 993.136 L880.174 993.136 L880.174 1445.72 L880.174 1445.72 L880.174 1445.72 L645.313 1445.72 L645.313 1445.72  Z" fill="#191970" fill-rule="evenodd" fill-opacity="0.25"/>
<polyline clip-path="url(#clip082)" style="stroke:#000000; stroke-linecap:round; stroke-linejoin:round; stroke-width:4; stroke-opacity:1; fill:none" points="645.313,1445.72 645.313,993.136 880.174,993.136 880.174,1445.72 "/>
<path clip-path="url(#clip082)" d="M175.59 1445.72 L175.59 1294.86 L410.451 1294.86 L410.451 1445.72 L410.451 1445.72 L410.451 1445.72 L175.59 1445.72 L175.59 1445.72  Z" fill="#191970" fill-rule="evenodd" fill-opacity="0"/>
<polyline clip-path="url(#clip082)" style="stroke:#000000; stroke-linecap:round; stroke-linejoin:round; stroke-width:4; stroke-opacity:1; fill:none" points="175.59,1445.72 175.59,1294.86 410.451,1294.86 410.451,1445.72 "/>
<path clip-path="url(#clip082)" d="M410.451 1445.72 L410.451 1144 L645.313 1144 L645.313 1445.72 L645.313 1445.72 L645.313 1445.72 L410.451 1445.72 L410.451 1445.72  Z" fill="#191970" fill-rule="evenodd" fill-opacity="0.125"/>
<polyline clip-path="url(#clip082)" style="stroke:#000000; stroke-linecap:round; stroke-linejoin:round; stroke-width:4; stroke-opacity:1; fill:none" points="410.451,1445.72 410.451,1144 645.313,1144 645.313,1445.72 "/>
<path clip-path="url(#clip082)" d="M1584.76 1445.72 L1584.76 389.696 L1819.62 389.696 L1819.62 1445.72 L1819.62 1445.72 L1819.62 1445.72 L1584.76 1445.72 L1584.76 1445.72  Z" fill="#191970" fill-rule="evenodd" fill-opacity="0.75"/>
<polyline clip-path="url(#clip082)" style="stroke:#000000; stroke-linecap:round; stroke-linejoin:round; stroke-width:4; stroke-opacity:1; fill:none" points="1584.76,1445.72 1584.76,389.696 1819.62,389.696 1819.62,1445.72 "/>
<path clip-path="url(#clip082)" d="M1819.62 1445.72 L1819.62 238.836 L2054.48 238.836 L2054.48 1445.72 L2054.48 1445.72 L2054.48 1445.72 L1819.62 1445.72 L1819.62 1445.72  Z" fill="#191970" fill-rule="evenodd" fill-opacity="0.875"/>
<polyline clip-path="url(#clip082)" style="stroke:#000000; stroke-linecap:round; stroke-linejoin:round; stroke-width:4; stroke-opacity:1; fill:none" points="1819.62,1445.72 1819.62,238.836 2054.48,238.836 2054.48,1445.72 "/>
<path clip-path="url(#clip082)" d="M1115.04 1445.72 L1115.04 691.416 L1349.9 691.416 L1349.9 1445.72 L1349.9 1445.72 L1349.9 1445.72 L1115.04 1445.72 L1115.04 1445.72  Z" fill="#191970" fill-rule="evenodd" fill-opacity="0.5"/>
<polyline clip-path="url(#clip082)" style="stroke:#000000; stroke-linecap:round; stroke-linejoin:round; stroke-width:4; stroke-opacity:1; fill:none" points="1115.04,1445.72 1115.04,691.416 1349.9,691.416 1349.9,1445.72 "/>
<path clip-path="url(#clip082)" d="M880.174 1445.72 L880.174 842.276 L1115.04 842.276 L1115.04 1445.72 L1115.04 1445.72 L1115.04 1445.72 L880.174 1445.72 L880.174 1445.72  Z" fill="#191970" fill-rule="evenodd" fill-opacity="0.375"/>
<polyline clip-path="url(#clip082)" style="stroke:#000000; stroke-linecap:round; stroke-linejoin:round; stroke-width:4; stroke-opacity:1; fill:none" points="880.174,1445.72 880.174,842.276 1115.04,842.276 1115.04,1445.72 "/>
<path clip-path="url(#clip082)" d="M1349.9 1445.72 L1349.9 540.556 L1584.76 540.556 L1584.76 1445.72 L1584.76 1445.72 L1584.76 1445.72 L1349.9 1445.72 L1349.9 1445.72  Z" fill="#191970" fill-rule="evenodd" fill-opacity="0.625"/>
<polyline clip-path="url(#clip082)" style="stroke:#000000; stroke-linecap:round; stroke-linejoin:round; stroke-width:4; stroke-opacity:1; fill:none" points="1349.9,1445.72 1349.9,540.556 1584.76,540.556 1584.76,1445.72 "/>
<path clip-path="url(#clip082)" d="M2054.48 1445.72 L2054.48 87.9763 L2289.34 87.9763 L2289.34 1445.72 L2289.34 1445.72 L2289.34 1445.72 L2054.48 1445.72 L2054.48 1445.72  Z" fill="#191970" fill-rule="evenodd" fill-opacity="1"/>
<polyline clip-path="url(#clip082)" style="stroke:#000000; stroke-linecap:round; stroke-linejoin:round; stroke-width:4; stroke-opacity:1; fill:none" points="2054.48,1445.72 2054.48,87.9763 2289.34,87.9763 2289.34,1445.72 "/>
</svg>
