<?xml version="1.0" encoding="utf-8"?>
<svg xmlns="http://www.w3.org/2000/svg" xmlns:xlink="http://www.w3.org/1999/xlink" width="600" height="400" viewBox="0 0 2400 1600">
<defs>
  <clipPath id="clip380">
    <rect x="0" y="0" width="2400" height="1600"/>
  </clipPath>
</defs>
<path clip-path="url(#clip380)" d="M0 1600 L2400 1600 L2400 0 L0 0  Z" fill="#ffffff" fill-rule="evenodd" fill-opacity="1"/>
<defs>
  <clipPath id="clip381">
    <rect x="480" y="0" width="1681" height="1600"/>
  </clipPath>
</defs>
<path clip-path="url(#clip380)" d="M156.112 1486.45 L2352.76 1486.45 L2352.76 47.2441 L156.112 47.2441  Z" fill="#ffffff" fill-rule="evenodd" fill-opacity="1"/>
<defs>
  <clipPath id="clip382">
    <rect x="156" y="47" width="2198" height="1440"/>
  </clipPath>
</defs>
<polyline clip-path="url(#clip382)" style="stroke:#000000; stroke-linecap:round; stroke-linejoin:round; stroke-width:2; stroke-opacity:0.1; fill:none" points="218.281,1486.45 218.281,47.2441 "/>
<polyline clip-path="url(#clip382)" style="stroke:#000000; stroke-linecap:round; stroke-linejoin:round; stroke-width:2; stroke-opacity:0.1; fill:none" points="548.099,1486.45 548.099,47.2441 "/>
<polyline clip-path="url(#clip382)" style="stroke:#000000; stroke-linecap:round; stroke-linejoin:round; stroke-width:2; stroke-opacity:0.1; fill:none" points="877.917,1486.45 877.917,47.2441 "/>
<polyline clip-path="url(#clip382)" style="stroke:#000000; stroke-linecap:round; stroke-linejoin:round; stroke-width:2; stroke-opacity:0.1; fill:none" points="1207.73,1486.45 1207.73,47.2441 "/>
<polyline clip-path="url(#clip382)" style="stroke:#000000; stroke-linecap:round; stroke-linejoin:round; stroke-width:2; stroke-opacity:0.1; fill:none" points="1537.55,1486.45 1537.55,47.2441 "/>
<polyline clip-path="url(#clip382)" style="stroke:#000000; stroke-linecap:round; stroke-linejoin:round; stroke-width:2; stroke-opacity:0.1; fill:none" points="1867.37,1486.45 1867.37,47.2441 "/>
<polyline clip-path="url(#clip382)" style="stroke:#000000; stroke-linecap:round; stroke-linejoin:round; stroke-width:2; stroke-opacity:0.1; fill:none" points="2197.19,1486.45 2197.19,47.2441 "/>
<polyline clip-path="url(#clip380)" style="stroke:#000000; stroke-linecap:round; stroke-linejoin:round; stroke-width:4; stroke-opacity:1; fill:none" points="156.112,1486.45 2352.76,1486.45 "/>
<polyline clip-path="url(#clip380)" style="stroke:#000000; stroke-linecap:round; stroke-linejoin:round; stroke-width:4; stroke-opacity:1; fill:none" points="218.281,1486.45 218.281,1467.55 "/>
<polyline clip-path="url(#clip380)" style="stroke:#000000; stroke-linecap:round; stroke-linejoin:round; stroke-width:4; stroke-opacity:1; fill:none" points="548.099,1486.45 548.099,1467.55 "/>
<polyline clip-path="url(#clip380)" style="stroke:#000000; stroke-linecap:round; stroke-linejoin:round; stroke-width:4; stroke-opacity:1; fill:none" points="877.917,1486.45 877.917,1467.55 "/>
<polyline clip-path="url(#clip380)" style="stroke:#000000; stroke-linecap:round; stroke-linejoin:round; stroke-width:4; stroke-opacity:1; fill:none" points="1207.73,1486.45 1207.73,1467.55 "/>
<polyline clip-path="url(#clip380)" style="stroke:#000000; stroke-linecap:round; stroke-linejoin:round; stroke-width:4; stroke-opacity:1; fill:none" points="1537.55,1486.45 1537.55,1467.55 "/>
<polyline clip-path="url(#clip380)" style="stroke:#000000; stroke-linecap:round; stroke-linejoin:round; stroke-width:4; stroke-opacity:1; fill:none" points="1867.37,1486.45 1867.37,1467.55 "/>
<polyline clip-path="url(#clip380)" style="stroke:#000000; stroke-linecap:round; stroke-linejoin:round; stroke-width:4; stroke-opacity:1; fill:none" points="2197.19,1486.45 2197.19,1467.55 "/>
<path clip-path="url(#clip380)" d="M218.281 1517.37 Q214.67 1517.37 212.842 1520.93 Q211.036 1524.47 211.036 1531.6 Q211.036 1538.71 212.842 1542.27 Q214.67 1545.82 218.281 1545.82 Q221.916 1545.82 223.721 1542.27 Q225.55 1538.71 225.55 1531.6 Q225.55 1524.47 223.721 1520.93 Q221.916 1517.37 218.281 1517.37 M218.281 1513.66 Q224.091 1513.66 227.147 1518.27 Q230.226 1522.85 230.226 1531.6 Q230.226 1540.33 227.147 1544.94 Q224.091 1549.52 218.281 1549.52 Q212.471 1549.52 209.392 1544.94 Q206.337 1540.33 206.337 1531.6 Q206.337 1522.85 209.392 1518.27 Q212.471 1513.66 218.281 1513.66 Z" fill="#000000" fill-rule="nonzero" fill-opacity="1" /><path clip-path="url(#clip380)" d="M538.481 1544.91 L546.12 1544.91 L546.12 1518.55 L537.81 1520.21 L537.81 1515.95 L546.073 1514.29 L550.749 1514.29 L550.749 1544.91 L558.388 1544.91 L558.388 1548.85 L538.481 1548.85 L538.481 1544.91 Z" fill="#000000" fill-rule="nonzero" fill-opacity="1" /><path clip-path="url(#clip380)" d="M872.569 1544.91 L888.889 1544.91 L888.889 1548.85 L866.944 1548.85 L866.944 1544.91 Q869.606 1542.16 874.19 1537.53 Q878.796 1532.88 879.977 1531.53 Q882.222 1529.01 883.102 1527.27 Q884.005 1525.51 884.005 1523.82 Q884.005 1521.07 882.06 1519.33 Q880.139 1517.6 877.037 1517.6 Q874.838 1517.6 872.384 1518.36 Q869.954 1519.13 867.176 1520.68 L867.176 1515.95 Q870 1514.82 872.454 1514.24 Q874.907 1513.66 876.944 1513.66 Q882.315 1513.66 885.509 1516.35 Q888.704 1519.03 888.704 1523.52 Q888.704 1525.65 887.893 1527.57 Q887.106 1529.47 885 1532.07 Q884.421 1532.74 881.319 1535.95 Q878.218 1539.15 872.569 1544.91 Z" fill="#000000" fill-rule="nonzero" fill-opacity="1" /><path clip-path="url(#clip380)" d="M1211.98 1530.21 Q1215.34 1530.93 1217.21 1533.2 Q1219.11 1535.47 1219.11 1538.8 Q1219.11 1543.92 1215.59 1546.72 Q1212.07 1549.52 1205.59 1549.52 Q1203.42 1549.52 1201.1 1549.08 Q1198.81 1548.66 1196.36 1547.81 L1196.36 1543.29 Q1198.3 1544.43 1200.62 1545.01 Q1202.93 1545.58 1205.45 1545.58 Q1209.85 1545.58 1212.14 1543.85 Q1214.46 1542.11 1214.46 1538.8 Q1214.46 1535.75 1212.31 1534.03 Q1210.18 1532.3 1206.36 1532.3 L1202.33 1532.3 L1202.33 1528.45 L1206.54 1528.45 Q1209.99 1528.45 1211.82 1527.09 Q1213.65 1525.7 1213.65 1523.11 Q1213.65 1520.45 1211.75 1519.03 Q1209.88 1517.6 1206.36 1517.6 Q1204.44 1517.6 1202.24 1518.01 Q1200.04 1518.43 1197.4 1519.31 L1197.4 1515.14 Q1200.06 1514.4 1202.38 1514.03 Q1204.71 1513.66 1206.77 1513.66 Q1212.1 1513.66 1215.2 1516.09 Q1218.3 1518.5 1218.3 1522.62 Q1218.3 1525.49 1216.66 1527.48 Q1215.01 1529.45 1211.98 1530.21 Z" fill="#000000" fill-rule="nonzero" fill-opacity="1" /><path clip-path="url(#clip380)" d="M1540.56 1518.36 L1528.76 1536.81 L1540.56 1536.81 L1540.56 1518.36 M1539.33 1514.29 L1545.21 1514.29 L1545.21 1536.81 L1550.14 1536.81 L1550.14 1540.7 L1545.21 1540.7 L1545.21 1548.85 L1540.56 1548.85 L1540.56 1540.7 L1524.96 1540.7 L1524.96 1536.19 L1539.33 1514.29 Z" fill="#000000" fill-rule="nonzero" fill-opacity="1" /><path clip-path="url(#clip380)" d="M1857.65 1514.29 L1876 1514.29 L1876 1518.22 L1861.93 1518.22 L1861.93 1526.7 Q1862.95 1526.35 1863.97 1526.19 Q1864.99 1526 1866 1526 Q1871.79 1526 1875.17 1529.17 Q1878.55 1532.34 1878.55 1537.76 Q1878.55 1543.34 1875.08 1546.44 Q1871.61 1549.52 1865.29 1549.52 Q1863.11 1549.52 1860.84 1549.15 Q1858.6 1548.78 1856.19 1548.04 L1856.19 1543.34 Q1858.27 1544.47 1860.49 1545.03 Q1862.72 1545.58 1865.19 1545.58 Q1869.2 1545.58 1871.54 1543.48 Q1873.87 1541.37 1873.87 1537.76 Q1873.87 1534.15 1871.54 1532.04 Q1869.2 1529.94 1865.19 1529.94 Q1863.32 1529.94 1861.44 1530.35 Q1859.59 1530.77 1857.65 1531.65 L1857.65 1514.29 Z" fill="#000000" fill-rule="nonzero" fill-opacity="1" /><path clip-path="url(#clip380)" d="M2197.59 1529.7 Q2194.44 1529.7 2192.59 1531.86 Q2190.76 1534.01 2190.76 1537.76 Q2190.76 1541.49 2192.59 1543.66 Q2194.44 1545.82 2197.59 1545.82 Q2200.74 1545.82 2202.57 1543.66 Q2204.42 1541.49 2204.42 1537.76 Q2204.42 1534.01 2202.57 1531.86 Q2200.74 1529.7 2197.59 1529.7 M2206.87 1515.05 L2206.87 1519.31 Q2205.12 1518.48 2203.31 1518.04 Q2201.53 1517.6 2199.77 1517.6 Q2195.14 1517.6 2192.68 1520.72 Q2190.25 1523.85 2189.91 1530.17 Q2191.27 1528.15 2193.33 1527.09 Q2195.39 1526 2197.87 1526 Q2203.08 1526 2206.09 1529.17 Q2209.12 1532.32 2209.12 1537.76 Q2209.12 1543.08 2205.97 1546.3 Q2202.82 1549.52 2197.59 1549.52 Q2191.6 1549.52 2188.43 1544.94 Q2185.25 1540.33 2185.25 1531.6 Q2185.25 1523.41 2189.14 1518.55 Q2193.03 1513.66 2199.58 1513.66 Q2201.34 1513.66 2203.12 1514.01 Q2204.93 1514.36 2206.87 1515.05 Z" fill="#000000" fill-rule="nonzero" fill-opacity="1" /><polyline clip-path="url(#clip382)" style="stroke:#000000; stroke-linecap:round; stroke-linejoin:round; stroke-width:2; stroke-opacity:0.1; fill:none" points="156.112,1445.72 2352.76,1445.72 "/>
<polyline clip-path="url(#clip382)" style="stroke:#000000; stroke-linecap:round; stroke-linejoin:round; stroke-width:2; stroke-opacity:0.1; fill:none" points="156.112,1102.99 2352.76,1102.99 "/>
<polyline clip-path="url(#clip382)" style="stroke:#000000; stroke-linecap:round; stroke-linejoin:round; stroke-width:2; stroke-opacity:0.1; fill:none" points="156.112,760.261 2352.76,760.261 "/>
<polyline clip-path="url(#clip382)" style="stroke:#000000; stroke-linecap:round; stroke-linejoin:round; stroke-width:2; stroke-opacity:0.1; fill:none" points="156.112,417.533 2352.76,417.533 "/>
<polyline clip-path="url(#clip382)" style="stroke:#000000; stroke-linecap:round; stroke-linejoin:round; stroke-width:2; stroke-opacity:0.1; fill:none" points="156.112,74.8054 2352.76,74.8054 "/>
<polyline clip-path="url(#clip380)" style="stroke:#000000; stroke-linecap:round; stroke-linejoin:round; stroke-width:4; stroke-opacity:1; fill:none" points="156.112,1486.45 156.112,47.2441 "/>
<polyline clip-path="url(#clip380)" style="stroke:#000000; stroke-linecap:round; stroke-linejoin:round; stroke-width:4; stroke-opacity:1; fill:none" points="156.112,1445.72 175.01,1445.72 "/>
<polyline clip-path="url(#clip380)" style="stroke:#000000; stroke-linecap:round; stroke-linejoin:round; stroke-width:4; stroke-opacity:1; fill:none" points="156.112,1102.99 175.01,1102.99 "/>
<polyline clip-path="url(#clip380)" style="stroke:#000000; stroke-linecap:round; stroke-linejoin:round; stroke-width:4; stroke-opacity:1; fill:none" points="156.112,760.261 175.01,760.261 "/>
<polyline clip-path="url(#clip380)" style="stroke:#000000; stroke-linecap:round; stroke-linejoin:round; stroke-width:4; stroke-opacity:1; fill:none" points="156.112,417.533 175.01,417.533 "/>
<polyline clip-path="url(#clip380)" style="stroke:#000000; stroke-linecap:round; stroke-linejoin:round; stroke-width:4; stroke-opacity:1; fill:none" points="156.112,74.8054 175.01,74.8054 "/>
<path clip-path="url(#clip380)" d="M62.9365 1431.51 Q59.3254 1431.51 57.4967 1435.08 Q55.6912 1438.62 55.6912 1445.75 Q55.6912 1452.86 57.4967 1456.42 Q59.3254 1459.96 62.9365 1459.96 Q66.5707 1459.96 68.3763 1456.42 Q70.205 1452.86 70.205 1445.75 Q70.205 1438.62 68.3763 1435.08 Q66.5707 1431.51 62.9365 1431.51 M62.9365 1427.81 Q68.7467 1427.81 71.8022 1432.42 Q74.8809 1437 74.8809 1445.75 Q74.8809 1454.48 71.8022 1459.08 Q68.7467 1463.67 62.9365 1463.67 Q57.1264 1463.67 54.0477 1459.08 Q50.9921 1454.48 50.9921 1445.75 Q50.9921 1437 54.0477 1432.42 Q57.1264 1427.81 62.9365 1427.81 Z" fill="#000000" fill-rule="nonzero" fill-opacity="1" /><path clip-path="url(#clip380)" d="M83.0984 1457.12 L87.9827 1457.12 L87.9827 1463 L83.0984 1463 L83.0984 1457.12 Z" fill="#000000" fill-rule="nonzero" fill-opacity="1" /><path clip-path="url(#clip380)" d="M108.168 1431.51 Q104.557 1431.51 102.728 1435.08 Q100.922 1438.62 100.922 1445.75 Q100.922 1452.86 102.728 1456.42 Q104.557 1459.96 108.168 1459.96 Q111.802 1459.96 113.608 1456.42 Q115.436 1452.86 115.436 1445.75 Q115.436 1438.62 113.608 1435.08 Q111.802 1431.51 108.168 1431.51 M108.168 1427.81 Q113.978 1427.81 117.033 1432.42 Q120.112 1437 120.112 1445.75 Q120.112 1454.48 117.033 1459.08 Q113.978 1463.67 108.168 1463.67 Q102.358 1463.67 99.2789 1459.08 Q96.2234 1454.48 96.2234 1445.75 Q96.2234 1437 99.2789 1432.42 Q102.358 1427.81 108.168 1427.81 Z" fill="#000000" fill-rule="nonzero" fill-opacity="1" /><path clip-path="url(#clip380)" d="M63.9319 1088.79 Q60.3208 1088.79 58.4921 1092.35 Q56.6865 1095.89 56.6865 1103.02 Q56.6865 1110.13 58.4921 1113.69 Q60.3208 1117.24 63.9319 1117.24 Q67.5661 1117.24 69.3717 1113.69 Q71.2004 1110.13 71.2004 1103.02 Q71.2004 1095.89 69.3717 1092.35 Q67.5661 1088.79 63.9319 1088.79 M63.9319 1085.08 Q69.742 1085.08 72.7976 1089.69 Q75.8763 1094.27 75.8763 1103.02 Q75.8763 1111.75 72.7976 1116.36 Q69.742 1120.94 63.9319 1120.94 Q58.1217 1120.94 55.043 1116.36 Q51.9875 1111.75 51.9875 1103.02 Q51.9875 1094.27 55.043 1089.69 Q58.1217 1085.08 63.9319 1085.08 Z" fill="#000000" fill-rule="nonzero" fill-opacity="1" /><path clip-path="url(#clip380)" d="M84.0938 1114.39 L88.978 1114.39 L88.978 1120.27 L84.0938 1120.27 L84.0938 1114.39 Z" fill="#000000" fill-rule="nonzero" fill-opacity="1" /><path clip-path="url(#clip380)" d="M99.2095 1085.71 L117.566 1085.71 L117.566 1089.64 L103.492 1089.64 L103.492 1098.12 Q104.51 1097.77 105.529 1097.61 Q106.547 1097.42 107.566 1097.42 Q113.353 1097.42 116.733 1100.59 Q120.112 1103.76 120.112 1109.18 Q120.112 1114.76 116.64 1117.86 Q113.168 1120.94 106.848 1120.94 Q104.672 1120.94 102.404 1120.57 Q100.159 1120.2 97.7511 1119.46 L97.7511 1114.76 Q99.8345 1115.89 102.057 1116.45 Q104.279 1117 106.756 1117 Q110.76 1117 113.098 1114.9 Q115.436 1112.79 115.436 1109.18 Q115.436 1105.57 113.098 1103.46 Q110.76 1101.36 106.756 1101.36 Q104.881 1101.36 103.006 1101.77 Q101.154 1102.19 99.2095 1103.07 L99.2095 1085.71 Z" fill="#000000" fill-rule="nonzero" fill-opacity="1" /><path clip-path="url(#clip380)" d="M53.7467 773.605 L61.3856 773.605 L61.3856 747.24 L53.0754 748.906 L53.0754 744.647 L61.3393 742.981 L66.0152 742.981 L66.0152 773.605 L73.654 773.605 L73.654 777.541 L53.7467 777.541 L53.7467 773.605 Z" fill="#000000" fill-rule="nonzero" fill-opacity="1" /><path clip-path="url(#clip380)" d="M83.0984 771.661 L87.9827 771.661 L87.9827 777.541 L83.0984 777.541 L83.0984 771.661 Z" fill="#000000" fill-rule="nonzero" fill-opacity="1" /><path clip-path="url(#clip380)" d="M108.168 746.059 Q104.557 746.059 102.728 749.624 Q100.922 753.166 100.922 760.295 Q100.922 767.402 102.728 770.967 Q104.557 774.508 108.168 774.508 Q111.802 774.508 113.608 770.967 Q115.436 767.402 115.436 760.295 Q115.436 753.166 113.608 749.624 Q111.802 746.059 108.168 746.059 M108.168 742.356 Q113.978 742.356 117.033 746.962 Q120.112 751.545 120.112 760.295 Q120.112 769.022 117.033 773.629 Q113.978 778.212 108.168 778.212 Q102.358 778.212 99.2789 773.629 Q96.2234 769.022 96.2234 760.295 Q96.2234 751.545 99.2789 746.962 Q102.358 742.356 108.168 742.356 Z" fill="#000000" fill-rule="nonzero" fill-opacity="1" /><path clip-path="url(#clip380)" d="M54.7421 430.878 L62.381 430.878 L62.381 404.512 L54.0708 406.179 L54.0708 401.92 L62.3347 400.253 L67.0106 400.253 L67.0106 430.878 L74.6494 430.878 L74.6494 434.813 L54.7421 434.813 L54.7421 430.878 Z" fill="#000000" fill-rule="nonzero" fill-opacity="1" /><path clip-path="url(#clip380)" d="M84.0938 428.933 L88.978 428.933 L88.978 434.813 L84.0938 434.813 L84.0938 428.933 Z" fill="#000000" fill-rule="nonzero" fill-opacity="1" /><path clip-path="url(#clip380)" d="M99.2095 400.253 L117.566 400.253 L117.566 404.188 L103.492 404.188 L103.492 412.66 Q104.51 412.313 105.529 412.151 Q106.547 411.966 107.566 411.966 Q113.353 411.966 116.733 415.137 Q120.112 418.308 120.112 423.725 Q120.112 429.304 116.64 432.406 Q113.168 435.484 106.848 435.484 Q104.672 435.484 102.404 435.114 Q100.159 434.744 97.7511 434.003 L97.7511 429.304 Q99.8345 430.438 102.057 430.994 Q104.279 431.549 106.756 431.549 Q110.76 431.549 113.098 429.443 Q115.436 427.336 115.436 423.725 Q115.436 420.114 113.098 418.008 Q110.76 415.901 106.756 415.901 Q104.881 415.901 103.006 416.318 Q101.154 416.734 99.2095 417.614 L99.2095 400.253 Z" fill="#000000" fill-rule="nonzero" fill-opacity="1" /><path clip-path="url(#clip380)" d="M56.9643 88.1503 L73.2837 88.1503 L73.2837 92.0854 L51.3393 92.0854 L51.3393 88.1503 Q54.0014 85.3957 58.5847 80.7661 Q63.1911 76.1133 64.3717 74.7707 Q66.617 72.2476 67.4967 70.5115 Q68.3994 68.7522 68.3994 67.0624 Q68.3994 64.3078 66.455 62.5717 Q64.5337 60.8356 61.4319 60.8356 Q59.2328 60.8356 56.7791 61.5995 Q54.3486 62.3634 51.5708 63.9143 L51.5708 59.1921 Q54.3949 58.0579 56.8486 57.4792 Q59.3023 56.9005 61.3393 56.9005 Q66.7096 56.9005 69.9041 59.5856 Q73.0985 62.2708 73.0985 66.7615 Q73.0985 68.8911 72.2883 70.8124 Q71.5013 72.7106 69.3948 75.3031 Q68.8161 75.9744 65.7143 79.192 Q62.6124 82.3864 56.9643 88.1503 Z" fill="#000000" fill-rule="nonzero" fill-opacity="1" /><path clip-path="url(#clip380)" d="M83.0984 86.2059 L87.9827 86.2059 L87.9827 92.0854 L83.0984 92.0854 L83.0984 86.2059 Z" fill="#000000" fill-rule="nonzero" fill-opacity="1" /><path clip-path="url(#clip380)" d="M108.168 60.6041 Q104.557 60.6041 102.728 64.1689 Q100.922 67.7106 100.922 74.8402 Q100.922 81.9466 102.728 85.5114 Q104.557 89.0531 108.168 89.0531 Q111.802 89.0531 113.608 85.5114 Q115.436 81.9466 115.436 74.8402 Q115.436 67.7106 113.608 64.1689 Q111.802 60.6041 108.168 60.6041 M108.168 56.9005 Q113.978 56.9005 117.033 61.5069 Q120.112 66.0902 120.112 74.8402 Q120.112 83.567 117.033 88.1734 Q113.978 92.7567 108.168 92.7567 Q102.358 92.7567 99.2789 88.1734 Q96.2234 83.567 96.2234 74.8402 Q96.2234 66.0902 99.2789 61.5069 Q102.358 56.9005 108.168 56.9005 Z" fill="#000000" fill-rule="nonzero" fill-opacity="1" /><path clip-path="url(#clip382)" d="M995.396 1445.72 L995.396 465.884 L1027.78 465.884 L1027.78 1445.72 L1027.78 1445.72 L1027.78 1445.72 L995.396 1445.72 L995.396 1445.72  Z" fill="#191970" fill-rule="evenodd" fill-opacity="0.437875"/>
<polyline clip-path="url(#clip382)" style="stroke:#000000; stroke-linecap:round; stroke-linejoin:round; stroke-width:4; stroke-opacity:1; fill:none" points="995.396,1445.72 995.396,465.884 1027.78,465.884 1027.78,1445.72 "/>
<path clip-path="url(#clip382)" d="M1448.71 1445.72 L1448.71 531.779 L1481.09 531.779 L1481.09 1445.72 L1481.09 1445.72 L1481.09 1445.72 L1448.71 1445.72 L1448.71 1445.72  Z" fill="#191970" fill-rule="evenodd" fill-opacity="0.339858"/>
<polyline clip-path="url(#clip382)" style="stroke:#000000; stroke-linecap:round; stroke-linejoin:round; stroke-width:4; stroke-opacity:1; fill:none" points="1448.71,1445.72 1448.71,531.779 1481.09,531.779 1481.09,1445.72 "/>
<path clip-path="url(#clip382)" d="M1966.79 1445.72 L1966.79 332.802 L1999.17 332.802 L1999.17 1445.72 L1999.17 1445.72 L1999.17 1445.72 L1966.79 1445.72 L1966.79 1445.72  Z" fill="#191970" fill-rule="evenodd" fill-opacity="0.63583"/>
<polyline clip-path="url(#clip382)" style="stroke:#000000; stroke-linecap:round; stroke-linejoin:round; stroke-width:4; stroke-opacity:1; fill:none" points="1966.79,1445.72 1966.79,332.802 1999.17,332.802 1999.17,1445.72 "/>
<path clip-path="url(#clip382)" d="M542.079 1445.72 L542.079 233.709 L606.839 233.709 L606.839 1445.72 L606.839 1445.72 L606.839 1445.72 L542.079 1445.72 L542.079 1445.72  Z" fill="#191970" fill-rule="evenodd" fill-opacity="0.783227"/>
<polyline clip-path="url(#clip382)" style="stroke:#000000; stroke-linecap:round; stroke-linejoin:round; stroke-width:4; stroke-opacity:1; fill:none" points="542.079,1445.72 542.079,233.709 606.839,233.709 606.839,1445.72 "/>
<path clip-path="url(#clip382)" d="M1060.16 1445.72 L1060.16 614.528 L1124.91 614.528 L1124.91 1445.72 L1124.91 1445.72 L1124.91 1445.72 L1060.16 1445.72 L1060.16 1445.72  Z" fill="#191970" fill-rule="evenodd" fill-opacity="0.216773"/>
<polyline clip-path="url(#clip382)" style="stroke:#000000; stroke-linecap:round; stroke-linejoin:round; stroke-width:4; stroke-opacity:1; fill:none" points="1060.16,1445.72 1060.16,614.528 1124.91,614.528 1124.91,1445.72 "/>
<path clip-path="url(#clip382)" d="M1027.78 1445.72 L1027.78 531.779 L1060.16 531.779 L1060.16 1445.72 L1060.16 1445.72 L1060.16 1445.72 L1027.78 1445.72 L1027.78 1445.72  Z" fill="#191970" fill-rule="evenodd" fill-opacity="0.339858"/>
<polyline clip-path="url(#clip382)" style="stroke:#000000; stroke-linecap:round; stroke-linejoin:round; stroke-width:4; stroke-opacity:1; fill:none" points="1027.78,1445.72 1027.78,531.779 1060.16,531.779 1060.16,1445.72 "/>
<path clip-path="url(#clip382)" d="M509.699 1445.72 L509.699 332.802 L542.079 332.802 L542.079 1445.72 L542.079 1445.72 L542.079 1445.72 L509.699 1445.72 L509.699 1445.72  Z" fill="#191970" fill-rule="evenodd" fill-opacity="0.63583"/>
<polyline clip-path="url(#clip382)" style="stroke:#000000; stroke-linecap:round; stroke-linejoin:round; stroke-width:4; stroke-opacity:1; fill:none" points="509.699,1445.72 509.699,332.802 542.079,332.802 542.079,1445.72 "/>
<path clip-path="url(#clip382)" d="M1642.99 1445.72 L1642.99 139.151 L1707.75 139.151 L1707.75 1445.72 L1707.75 1445.72 L1707.75 1445.72 L1642.99 1445.72 L1642.99 1445.72  Z" fill="#191970" fill-rule="evenodd" fill-opacity="0.92388"/>
<polyline clip-path="url(#clip382)" style="stroke:#000000; stroke-linecap:round; stroke-linejoin:round; stroke-width:4; stroke-opacity:1; fill:none" points="1642.99,1445.72 1642.99,139.151 1707.75,139.151 1707.75,1445.72 "/>
<path clip-path="url(#clip382)" d="M1383.95 1445.72 L1383.95 649.715 L1416.33 649.715 L1416.33 1445.72 L1416.33 1445.72 L1416.33 1445.72 L1383.95 1445.72 L1383.95 1445.72  Z" fill="#191970" fill-rule="evenodd" fill-opacity="0.164433"/>
<polyline clip-path="url(#clip382)" style="stroke:#000000; stroke-linecap:round; stroke-linejoin:round; stroke-width:4; stroke-opacity:1; fill:none" points="1383.95,1445.72 1383.95,649.715 1416.33,649.715 1416.33,1445.72 "/>
<path clip-path="url(#clip382)" d="M283.041 1445.72 L283.041 709.086 L347.8 709.086 L347.8 1445.72 L347.8 1445.72 L347.8 1445.72 L283.041 1445.72 L283.041 1445.72  Z" fill="#191970" fill-rule="evenodd" fill-opacity="0.0761205"/>
<polyline clip-path="url(#clip382)" style="stroke:#000000; stroke-linecap:round; stroke-linejoin:round; stroke-width:4; stroke-opacity:1; fill:none" points="283.041,1445.72 283.041,709.086 347.8,709.086 347.8,1445.72 "/>
<path clip-path="url(#clip382)" d="M347.8 1445.72 L347.8 614.528 L412.56 614.528 L412.56 1445.72 L412.56 1445.72 L412.56 1445.72 L347.8 1445.72 L347.8 1445.72  Z" fill="#191970" fill-rule="evenodd" fill-opacity="0.216773"/>
<polyline clip-path="url(#clip382)" style="stroke:#000000; stroke-linecap:round; stroke-linejoin:round; stroke-width:4; stroke-opacity:1; fill:none" points="347.8,1445.72 347.8,614.528 412.56,614.528 412.56,1445.72 "/>
<path clip-path="url(#clip382)" d="M1999.17 1445.72 L1999.17 398.698 L2031.55 398.698 L2031.55 1445.72 L2031.55 1445.72 L2031.55 1445.72 L1999.17 1445.72 L1999.17 1445.72  Z" fill="#191970" fill-rule="evenodd" fill-opacity="0.537813"/>
<polyline clip-path="url(#clip382)" style="stroke:#000000; stroke-linecap:round; stroke-linejoin:round; stroke-width:4; stroke-opacity:1; fill:none" points="1999.17,1445.72 1999.17,398.698 2031.55,398.698 2031.55,1445.72 "/>
<path clip-path="url(#clip382)" d="M801.117 1445.72 L801.117 139.151 L865.877 139.151 L865.877 1445.72 L865.877 1445.72 L865.877 1445.72 L801.117 1445.72 L801.117 1445.72  Z" fill="#191970" fill-rule="evenodd" fill-opacity="0.92388"/>
<polyline clip-path="url(#clip382)" style="stroke:#000000; stroke-linecap:round; stroke-linejoin:round; stroke-width:4; stroke-opacity:1; fill:none" points="801.117,1445.72 801.117,139.151 865.877,139.151 865.877,1445.72 "/>
<path clip-path="url(#clip382)" d="M1772.51 1445.72 L1772.51 87.9763 L1837.27 87.9763 L1837.27 1445.72 L1837.27 1445.72 L1837.27 1445.72 L1772.51 1445.72 L1772.51 1445.72  Z" fill="#191970" fill-rule="evenodd" fill-opacity="1"/>
<polyline clip-path="url(#clip382)" style="stroke:#000000; stroke-linecap:round; stroke-linejoin:round; stroke-width:4; stroke-opacity:1; fill:none" points="1772.51,1445.72 1772.51,87.9763 1837.27,87.9763 1837.27,1445.72 "/>
<path clip-path="url(#clip382)" d="M865.877 1445.72 L865.877 233.709 L930.636 233.709 L930.636 1445.72 L930.636 1445.72 L930.636 1445.72 L865.877 1445.72 L865.877 1445.72  Z" fill="#191970" fill-rule="evenodd" fill-opacity="0.783227"/>
<polyline clip-path="url(#clip382)" style="stroke:#000000; stroke-linecap:round; stroke-linejoin:round; stroke-width:4; stroke-opacity:1; fill:none" points="865.877,1445.72 865.877,233.709 930.636,233.709 930.636,1445.72 "/>
<path clip-path="url(#clip382)" d="M930.636 1445.72 L930.636 332.802 L963.016 332.802 L963.016 1445.72 L963.016 1445.72 L963.016 1445.72 L930.636 1445.72 L930.636 1445.72  Z" fill="#191970" fill-rule="evenodd" fill-opacity="0.63583"/>
<polyline clip-path="url(#clip382)" style="stroke:#000000; stroke-linecap:round; stroke-linejoin:round; stroke-width:4; stroke-opacity:1; fill:none" points="930.636,1445.72 930.636,332.802 963.016,332.802 963.016,1445.72 "/>
<path clip-path="url(#clip382)" d="M1837.27 1445.72 L1837.27 139.151 L1902.03 139.151 L1902.03 1445.72 L1902.03 1445.72 L1902.03 1445.72 L1837.27 1445.72 L1837.27 1445.72  Z" fill="#191970" fill-rule="evenodd" fill-opacity="0.92388"/>
<polyline clip-path="url(#clip382)" style="stroke:#000000; stroke-linecap:round; stroke-linejoin:round; stroke-width:4; stroke-opacity:1; fill:none" points="1837.27,1445.72 1837.27,139.151 1902.03,139.151 1902.03,1445.72 "/>
<path clip-path="url(#clip382)" d="M2031.55 1445.72 L2031.55 465.884 L2063.93 465.884 L2063.93 1445.72 L2063.93 1445.72 L2063.93 1445.72 L2031.55 1445.72 L2031.55 1445.72  Z" fill="#191970" fill-rule="evenodd" fill-opacity="0.437875"/>
<polyline clip-path="url(#clip382)" style="stroke:#000000; stroke-linecap:round; stroke-linejoin:round; stroke-width:4; stroke-opacity:1; fill:none" points="2031.55,1445.72 2031.55,465.884 2063.93,465.884 2063.93,1445.72 "/>
<path clip-path="url(#clip382)" d="M1416.33 1445.72 L1416.33 593.851 L1448.71 593.851 L1448.71 1445.72 L1448.71 1445.72 L1448.71 1445.72 L1416.33 1445.72 L1416.33 1445.72  Z" fill="#191970" fill-rule="evenodd" fill-opacity="0.247528"/>
<polyline clip-path="url(#clip382)" style="stroke:#000000; stroke-linecap:round; stroke-linejoin:round; stroke-width:4; stroke-opacity:1; fill:none" points="1416.33,1445.72 1416.33,593.851 1448.71,593.851 1448.71,1445.72 "/>
<path clip-path="url(#clip382)" d="M218.281 1445.72 L218.281 760.261 L283.041 760.261 L283.041 1445.72 L283.041 1445.72 L283.041 1445.72 L218.281 1445.72 L218.281 1445.72  Z" fill="#191970" fill-rule="evenodd" fill-opacity="0"/>
<polyline clip-path="url(#clip382)" style="stroke:#000000; stroke-linecap:round; stroke-linejoin:round; stroke-width:4; stroke-opacity:1; fill:none" points="218.281,1445.72 218.281,760.261 283.041,760.261 283.041,1445.72 "/>
<path clip-path="url(#clip382)" d="M1578.23 1445.72 L1578.23 233.709 L1642.99 233.709 L1642.99 1445.72 L1642.99 1445.72 L1642.99 1445.72 L1578.23 1445.72 L1578.23 1445.72  Z" fill="#191970" fill-rule="evenodd" fill-opacity="0.783227"/>
<polyline clip-path="url(#clip382)" style="stroke:#000000; stroke-linecap:round; stroke-linejoin:round; stroke-width:4; stroke-opacity:1; fill:none" points="1578.23,1445.72 1578.23,233.709 1642.99,233.709 1642.99,1445.72 "/>
<path clip-path="url(#clip382)" d="M1481.09 1445.72 L1481.09 465.884 L1513.47 465.884 L1513.47 1445.72 L1513.47 1445.72 L1513.47 1445.72 L1481.09 1445.72 L1481.09 1445.72  Z" fill="#191970" fill-rule="evenodd" fill-opacity="0.437875"/>
<polyline clip-path="url(#clip382)" style="stroke:#000000; stroke-linecap:round; stroke-linejoin:round; stroke-width:4; stroke-opacity:1; fill:none" points="1481.09,1445.72 1481.09,465.884 1513.47,465.884 1513.47,1445.72 "/>
<path clip-path="url(#clip382)" d="M2063.93 1445.72 L2063.93 531.779 L2096.31 531.779 L2096.31 1445.72 L2096.31 1445.72 L2096.31 1445.72 L2063.93 1445.72 L2063.93 1445.72  Z" fill="#191970" fill-rule="evenodd" fill-opacity="0.339858"/>
<polyline clip-path="url(#clip382)" style="stroke:#000000; stroke-linecap:round; stroke-linejoin:round; stroke-width:4; stroke-opacity:1; fill:none" points="2063.93,1445.72 2063.93,531.779 2096.31,531.779 2096.31,1445.72 "/>
<path clip-path="url(#clip382)" d="M1319.19 1445.72 L1319.19 709.086 L1383.95 709.086 L1383.95 1445.72 L1383.95 1445.72 L1383.95 1445.72 L1319.19 1445.72 L1319.19 1445.72  Z" fill="#191970" fill-rule="evenodd" fill-opacity="0.0761205"/>
<polyline clip-path="url(#clip382)" style="stroke:#000000; stroke-linecap:round; stroke-linejoin:round; stroke-width:4; stroke-opacity:1; fill:none" points="1319.19,1445.72 1319.19,709.086 1383.95,709.086 1383.95,1445.72 "/>
<path clip-path="url(#clip382)" d="M444.94 1445.72 L444.94 465.884 L477.319 465.884 L477.319 1445.72 L477.319 1445.72 L477.319 1445.72 L444.94 1445.72 L444.94 1445.72  Z" fill="#191970" fill-rule="evenodd" fill-opacity="0.437875"/>
<polyline clip-path="url(#clip382)" style="stroke:#000000; stroke-linecap:round; stroke-linejoin:round; stroke-width:4; stroke-opacity:1; fill:none" points="444.94,1445.72 444.94,465.884 477.319,465.884 477.319,1445.72 "/>
<path clip-path="url(#clip382)" d="M1545.85 1445.72 L1545.85 332.802 L1578.23 332.802 L1578.23 1445.72 L1578.23 1445.72 L1578.23 1445.72 L1545.85 1445.72 L1545.85 1445.72  Z" fill="#191970" fill-rule="evenodd" fill-opacity="0.63583"/>
<polyline clip-path="url(#clip382)" style="stroke:#000000; stroke-linecap:round; stroke-linejoin:round; stroke-width:4; stroke-opacity:1; fill:none" points="1545.85,1445.72 1545.85,332.802 1578.23,332.802 1578.23,1445.72 "/>
<path clip-path="url(#clip382)" d="M2225.83 1445.72 L2225.83 760.261 L2290.59 760.261 L2290.59 1445.72 L2290.59 1445.72 L2290.59 1445.72 L2225.83 1445.72 L2225.83 1445.72  Z" fill="#191970" fill-rule="evenodd" fill-opacity="0"/>
<polyline clip-path="url(#clip382)" style="stroke:#000000; stroke-linecap:round; stroke-linejoin:round; stroke-width:4; stroke-opacity:1; fill:none" points="2225.83,1445.72 2225.83,760.261 2290.59,760.261 2290.59,1445.72 "/>
<path clip-path="url(#clip382)" d="M606.839 1445.72 L606.839 139.151 L671.598 139.151 L671.598 1445.72 L671.598 1445.72 L671.598 1445.72 L606.839 1445.72 L606.839 1445.72  Z" fill="#191970" fill-rule="evenodd" fill-opacity="0.92388"/>
<polyline clip-path="url(#clip382)" style="stroke:#000000; stroke-linecap:round; stroke-linejoin:round; stroke-width:4; stroke-opacity:1; fill:none" points="606.839,1445.72 606.839,139.151 671.598,139.151 671.598,1445.72 "/>
<path clip-path="url(#clip382)" d="M671.598 1445.72 L671.598 87.9763 L736.358 87.9763 L736.358 1445.72 L736.358 1445.72 L736.358 1445.72 L671.598 1445.72 L671.598 1445.72  Z" fill="#191970" fill-rule="evenodd" fill-opacity="1"/>
<polyline clip-path="url(#clip382)" style="stroke:#000000; stroke-linecap:round; stroke-linejoin:round; stroke-width:4; stroke-opacity:1; fill:none" points="671.598,1445.72 671.598,87.9763 736.358,87.9763 736.358,1445.72 "/>
<path clip-path="url(#clip382)" d="M963.016 1445.72 L963.016 398.698 L995.396 398.698 L995.396 1445.72 L995.396 1445.72 L995.396 1445.72 L963.016 1445.72 L963.016 1445.72  Z" fill="#191970" fill-rule="evenodd" fill-opacity="0.537813"/>
<polyline clip-path="url(#clip382)" style="stroke:#000000; stroke-linecap:round; stroke-linejoin:round; stroke-width:4; stroke-opacity:1; fill:none" points="963.016,1445.72 963.016,398.698 995.396,398.698 995.396,1445.72 "/>
<path clip-path="url(#clip382)" d="M1124.91 1445.72 L1124.91 709.086 L1189.67 709.086 L1189.67 1445.72 L1189.67 1445.72 L1189.67 1445.72 L1124.91 1445.72 L1124.91 1445.72  Z" fill="#191970" fill-rule="evenodd" fill-opacity="0.0761205"/>
<polyline clip-path="url(#clip382)" style="stroke:#000000; stroke-linecap:round; stroke-linejoin:round; stroke-width:4; stroke-opacity:1; fill:none" points="1124.91,1445.72 1124.91,709.086 1189.67,709.086 1189.67,1445.72 "/>
<path clip-path="url(#clip382)" d="M412.56 1445.72 L412.56 531.779 L444.94 531.779 L444.94 1445.72 L444.94 1445.72 L444.94 1445.72 L412.56 1445.72 L412.56 1445.72  Z" fill="#191970" fill-rule="evenodd" fill-opacity="0.339858"/>
<polyline clip-path="url(#clip382)" style="stroke:#000000; stroke-linecap:round; stroke-linejoin:round; stroke-width:4; stroke-opacity:1; fill:none" points="412.56,1445.72 412.56,531.779 444.94,531.779 444.94,1445.72 "/>
<path clip-path="url(#clip382)" d="M1707.75 1445.72 L1707.75 87.9763 L1772.51 87.9763 L1772.51 1445.72 L1772.51 1445.72 L1772.51 1445.72 L1707.75 1445.72 L1707.75 1445.72  Z" fill="#191970" fill-rule="evenodd" fill-opacity="1"/>
<polyline clip-path="url(#clip382)" style="stroke:#000000; stroke-linecap:round; stroke-linejoin:round; stroke-width:4; stroke-opacity:1; fill:none" points="1707.75,1445.72 1707.75,87.9763 1772.51,87.9763 1772.51,1445.72 "/>
<path clip-path="url(#clip382)" d="M477.319 1445.72 L477.319 398.698 L509.699 398.698 L509.699 1445.72 L509.699 1445.72 L509.699 1445.72 L477.319 1445.72 L477.319 1445.72  Z" fill="#191970" fill-rule="evenodd" fill-opacity="0.537813"/>
<polyline clip-path="url(#clip382)" style="stroke:#000000; stroke-linecap:round; stroke-linejoin:round; stroke-width:4; stroke-opacity:1; fill:none" points="477.319,1445.72 477.319,398.698 509.699,398.698 509.699,1445.72 "/>
<path clip-path="url(#clip382)" d="M1902.03 1445.72 L1902.03 233.709 L1966.79 233.709 L1966.79 1445.72 L1966.79 1445.72 L1966.79 1445.72 L1902.03 1445.72 L1902.03 1445.72  Z" fill="#191970" fill-rule="evenodd" fill-opacity="0.783227"/>
<polyline clip-path="url(#clip382)" style="stroke:#000000; stroke-linecap:round; stroke-linejoin:round; stroke-width:4; stroke-opacity:1; fill:none" points="1902.03,1445.72 1902.03,233.709 1966.79,233.709 1966.79,1445.72 "/>
<path clip-path="url(#clip382)" d="M736.358 1445.72 L736.358 87.9763 L801.117 87.9763 L801.117 1445.72 L801.117 1445.72 L801.117 1445.72 L736.358 1445.72 L736.358 1445.72  Z" fill="#191970" fill-rule="evenodd" fill-opacity="1"/>
<polyline clip-path="url(#clip382)" style="stroke:#000000; stroke-linecap:round; stroke-linejoin:round; stroke-width:4; stroke-opacity:1; fill:none" points="736.358,1445.72 736.358,87.9763 801.117,87.9763 801.117,1445.72 "/>
<path clip-path="url(#clip382)" d="M1513.47 1445.72 L1513.47 398.698 L1545.85 398.698 L1545.85 1445.72 L1545.85 1445.72 L1545.85 1445.72 L1513.47 1445.72 L1513.47 1445.72  Z" fill="#191970" fill-rule="evenodd" fill-opacity="0.537813"/>
<polyline clip-path="url(#clip382)" style="stroke:#000000; stroke-linecap:round; stroke-linejoin:round; stroke-width:4; stroke-opacity:1; fill:none" points="1513.47,1445.72 1513.47,398.698 1545.85,398.698 1545.85,1445.72 "/>
<path clip-path="url(#clip382)" d="M2096.31 1445.72 L2096.31 614.528 L2161.07 614.528 L2161.07 1445.72 L2161.07 1445.72 L2161.07 1445.72 L2096.31 1445.72 L2096.31 1445.72  Z" fill="#191970" fill-rule="evenodd" fill-opacity="0.216773"/>
<polyline clip-path="url(#clip382)" style="stroke:#000000; stroke-linecap:round; stroke-linejoin:round; stroke-width:4; stroke-opacity:1; fill:none" points="2096.31,1445.72 2096.31,614.528 2161.07,614.528 2161.07,1445.72 "/>
<path clip-path="url(#clip382)" d="M1254.43 1445.72 L1254.43 760.261 L1319.19 760.261 L1319.19 1445.72 L1319.19 1445.72 L1319.19 1445.72 L1254.43 1445.72 L1254.43 1445.72  Z" fill="#191970" fill-rule="evenodd" fill-opacity="0"/>
<polyline clip-path="url(#clip382)" style="stroke:#000000; stroke-linecap:round; stroke-linejoin:round; stroke-width:4; stroke-opacity:1; fill:none" points="1254.43,1445.72 1254.43,760.261 1319.19,760.261 1319.19,1445.72 "/>
<path clip-path="url(#clip382)" d="M2161.07 1445.72 L2161.07 709.086 L2225.83 709.086 L2225.83 1445.72 L2225.83 1445.72 L2225.83 1445.72 L2161.07 1445.72 L2161.07 1445.72  Z" fill="#191970" fill-rule="evenodd" fill-opacity="0.0761205"/>
<polyline clip-path="url(#clip382)" style="stroke:#000000; stroke-linecap:round; stroke-linejoin:round; stroke-width:4; stroke-opacity:1; fill:none" points="2161.07,1445.72 2161.07,709.086 2225.83,709.086 2225.83,1445.72 "/>
<path clip-path="url(#clip382)" d="M1189.67 1445.72 L1189.67 760.261 L1254.43 760.261 L1254.43 1445.72 L1254.43 1445.72 L1254.43 1445.72 L1189.67 1445.72 L1189.67 1445.72  Z" fill="#191970" fill-rule="evenodd" fill-opacity="0"/>
<polyline clip-path="url(#clip382)" style="stroke:#000000; stroke-linecap:round; stroke-linejoin:round; stroke-width:4; stroke-opacity:1; fill:none" points="1189.67,1445.72 1189.67,760.261 1254.43,760.261 1254.43,1445.72 "/>
</svg>
