<?xml version="1.0" encoding="utf-8"?>
<svg xmlns="http://www.w3.org/2000/svg" xmlns:xlink="http://www.w3.org/1999/xlink" width="600" height="400" viewBox="0 0 2400 1600">
<defs>
  <clipPath id="clip140">
    <rect x="0" y="0" width="2400" height="1600"/>
  </clipPath>
</defs>
<path clip-path="url(#clip140)" d="M0 1600 L2400 1600 L2400 0 L0 0  Z" fill="#ffffff" fill-rule="evenodd" fill-opacity="1"/>
<defs>
  <clipPath id="clip141">
    <rect x="480" y="0" width="1681" height="1600"/>
  </clipPath>
</defs>
<path clip-path="url(#clip140)" d="M156.598 1486.45 L2352.76 1486.45 L2352.76 47.2441 L156.598 47.2441  Z" fill="#ffffff" fill-rule="evenodd" fill-opacity="1"/>
<defs>
  <clipPath id="clip142">
    <rect x="156" y="47" width="2197" height="1440"/>
  </clipPath>
</defs>
<polyline clip-path="url(#clip142)" style="stroke:#000000; stroke-linecap:round; stroke-linejoin:round; stroke-width:2; stroke-opacity:0.1; fill:none" points="218.754,1486.45 218.754,47.2441 "/>
<polyline clip-path="url(#clip142)" style="stroke:#000000; stroke-linecap:round; stroke-linejoin:round; stroke-width:2; stroke-opacity:0.1; fill:none" points="736.715,1486.45 736.715,47.2441 "/>
<polyline clip-path="url(#clip142)" style="stroke:#000000; stroke-linecap:round; stroke-linejoin:round; stroke-width:2; stroke-opacity:0.1; fill:none" points="1254.68,1486.45 1254.68,47.2441 "/>
<polyline clip-path="url(#clip142)" style="stroke:#000000; stroke-linecap:round; stroke-linejoin:round; stroke-width:2; stroke-opacity:0.1; fill:none" points="1772.64,1486.45 1772.64,47.2441 "/>
<polyline clip-path="url(#clip142)" style="stroke:#000000; stroke-linecap:round; stroke-linejoin:round; stroke-width:2; stroke-opacity:0.1; fill:none" points="2290.6,1486.45 2290.6,47.2441 "/>
<polyline clip-path="url(#clip140)" style="stroke:#000000; stroke-linecap:round; stroke-linejoin:round; stroke-width:4; stroke-opacity:1; fill:none" points="156.598,1486.45 2352.76,1486.45 "/>
<polyline clip-path="url(#clip140)" style="stroke:#000000; stroke-linecap:round; stroke-linejoin:round; stroke-width:4; stroke-opacity:1; fill:none" points="218.754,1486.45 218.754,1467.55 "/>
<polyline clip-path="url(#clip140)" style="stroke:#000000; stroke-linecap:round; stroke-linejoin:round; stroke-width:4; stroke-opacity:1; fill:none" points="736.715,1486.45 736.715,1467.55 "/>
<polyline clip-path="url(#clip140)" style="stroke:#000000; stroke-linecap:round; stroke-linejoin:round; stroke-width:4; stroke-opacity:1; fill:none" points="1254.68,1486.45 1254.68,1467.55 "/>
<polyline clip-path="url(#clip140)" style="stroke:#000000; stroke-linecap:round; stroke-linejoin:round; stroke-width:4; stroke-opacity:1; fill:none" points="1772.64,1486.45 1772.64,1467.55 "/>
<polyline clip-path="url(#clip140)" style="stroke:#000000; stroke-linecap:round; stroke-linejoin:round; stroke-width:4; stroke-opacity:1; fill:none" points="2290.6,1486.45 2290.6,1467.55 "/>
<path clip-path="url(#clip140)" d="M165.282 1532.02 L194.957 1532.02 L194.957 1535.95 L165.282 1535.95 L165.282 1532.02 Z" fill="#000000" fill-rule="nonzero" fill-opacity="1" /><path clip-path="url(#clip140)" d="M205.86 1544.91 L213.499 1544.91 L213.499 1518.55 L205.189 1520.21 L205.189 1515.95 L213.453 1514.29 L218.129 1514.29 L218.129 1544.91 L225.767 1544.91 L225.767 1548.85 L205.86 1548.85 L205.86 1544.91 Z" fill="#000000" fill-rule="nonzero" fill-opacity="1" /><path clip-path="url(#clip140)" d="M235.212 1542.97 L240.096 1542.97 L240.096 1548.85 L235.212 1548.85 L235.212 1542.97 Z" fill="#000000" fill-rule="nonzero" fill-opacity="1" /><path clip-path="url(#clip140)" d="M260.281 1517.37 Q256.67 1517.37 254.841 1520.93 Q253.036 1524.47 253.036 1531.6 Q253.036 1538.71 254.841 1542.27 Q256.67 1545.82 260.281 1545.82 Q263.915 1545.82 265.721 1542.27 Q267.55 1538.71 267.55 1531.6 Q267.55 1524.47 265.721 1520.93 Q263.915 1517.37 260.281 1517.37 M260.281 1513.66 Q266.091 1513.66 269.147 1518.27 Q272.226 1522.85 272.226 1531.6 Q272.226 1540.33 269.147 1544.94 Q266.091 1549.52 260.281 1549.52 Q254.471 1549.52 251.392 1544.94 Q248.337 1540.33 248.337 1531.6 Q248.337 1522.85 251.392 1518.27 Q254.471 1513.66 260.281 1513.66 Z" fill="#000000" fill-rule="nonzero" fill-opacity="1" /><path clip-path="url(#clip140)" d="M683.741 1532.02 L713.417 1532.02 L713.417 1535.95 L683.741 1535.95 L683.741 1532.02 Z" fill="#000000" fill-rule="nonzero" fill-opacity="1" /><path clip-path="url(#clip140)" d="M733.509 1517.37 Q729.898 1517.37 728.07 1520.93 Q726.264 1524.47 726.264 1531.6 Q726.264 1538.71 728.07 1542.27 Q729.898 1545.82 733.509 1545.82 Q737.144 1545.82 738.949 1542.27 Q740.778 1538.71 740.778 1531.6 Q740.778 1524.47 738.949 1520.93 Q737.144 1517.37 733.509 1517.37 M733.509 1513.66 Q739.32 1513.66 742.375 1518.27 Q745.454 1522.85 745.454 1531.6 Q745.454 1540.33 742.375 1544.94 Q739.32 1549.52 733.509 1549.52 Q727.699 1549.52 724.621 1544.94 Q721.565 1540.33 721.565 1531.6 Q721.565 1522.85 724.621 1518.27 Q727.699 1513.66 733.509 1513.66 Z" fill="#000000" fill-rule="nonzero" fill-opacity="1" /><path clip-path="url(#clip140)" d="M753.671 1542.97 L758.556 1542.97 L758.556 1548.85 L753.671 1548.85 L753.671 1542.97 Z" fill="#000000" fill-rule="nonzero" fill-opacity="1" /><path clip-path="url(#clip140)" d="M768.787 1514.29 L787.143 1514.29 L787.143 1518.22 L773.069 1518.22 L773.069 1526.7 Q774.088 1526.35 775.106 1526.19 Q776.125 1526 777.143 1526 Q782.93 1526 786.31 1529.17 Q789.69 1532.34 789.69 1537.76 Q789.69 1543.34 786.217 1546.44 Q782.745 1549.52 776.426 1549.52 Q774.25 1549.52 771.981 1549.15 Q769.736 1548.78 767.329 1548.04 L767.329 1543.34 Q769.412 1544.47 771.634 1545.03 Q773.856 1545.58 776.333 1545.58 Q780.338 1545.58 782.676 1543.48 Q785.014 1541.37 785.014 1537.76 Q785.014 1534.15 782.676 1532.04 Q780.338 1529.94 776.333 1529.94 Q774.458 1529.94 772.583 1530.35 Q770.731 1530.77 768.787 1531.65 L768.787 1514.29 Z" fill="#000000" fill-rule="nonzero" fill-opacity="1" /><path clip-path="url(#clip140)" d="M1232.06 1517.37 Q1228.45 1517.37 1226.62 1520.93 Q1224.82 1524.47 1224.82 1531.6 Q1224.82 1538.71 1226.62 1542.27 Q1228.45 1545.82 1232.06 1545.82 Q1235.7 1545.82 1237.5 1542.27 Q1239.33 1538.71 1239.33 1531.6 Q1239.33 1524.47 1237.5 1520.93 Q1235.7 1517.37 1232.06 1517.37 M1232.06 1513.66 Q1237.87 1513.66 1240.93 1518.27 Q1244.01 1522.85 1244.01 1531.6 Q1244.01 1540.33 1240.93 1544.94 Q1237.87 1549.52 1232.06 1549.52 Q1226.25 1549.52 1223.17 1544.94 Q1220.12 1540.33 1220.12 1531.6 Q1220.12 1522.85 1223.17 1518.27 Q1226.25 1513.66 1232.06 1513.66 Z" fill="#000000" fill-rule="nonzero" fill-opacity="1" /><path clip-path="url(#clip140)" d="M1252.22 1542.97 L1257.11 1542.97 L1257.11 1548.85 L1252.22 1548.85 L1252.22 1542.97 Z" fill="#000000" fill-rule="nonzero" fill-opacity="1" /><path clip-path="url(#clip140)" d="M1277.29 1517.37 Q1273.68 1517.37 1271.85 1520.93 Q1270.05 1524.47 1270.05 1531.6 Q1270.05 1538.71 1271.85 1542.27 Q1273.68 1545.82 1277.29 1545.82 Q1280.93 1545.82 1282.73 1542.27 Q1284.56 1538.71 1284.56 1531.6 Q1284.56 1524.47 1282.73 1520.93 Q1280.93 1517.37 1277.29 1517.37 M1277.29 1513.66 Q1283.1 1513.66 1286.16 1518.27 Q1289.24 1522.85 1289.24 1531.6 Q1289.24 1540.33 1286.16 1544.94 Q1283.1 1549.52 1277.29 1549.52 Q1271.48 1549.52 1268.4 1544.94 Q1265.35 1540.33 1265.35 1531.6 Q1265.35 1522.85 1268.4 1518.27 Q1271.48 1513.66 1277.29 1513.66 Z" fill="#000000" fill-rule="nonzero" fill-opacity="1" /><path clip-path="url(#clip140)" d="M1750.52 1517.37 Q1746.91 1517.37 1745.08 1520.93 Q1743.28 1524.47 1743.28 1531.6 Q1743.28 1538.71 1745.08 1542.27 Q1746.91 1545.82 1750.52 1545.82 Q1754.16 1545.82 1755.96 1542.27 Q1757.79 1538.71 1757.79 1531.6 Q1757.79 1524.47 1755.96 1520.93 Q1754.16 1517.37 1750.52 1517.37 M1750.52 1513.66 Q1756.33 1513.66 1759.39 1518.27 Q1762.47 1522.85 1762.47 1531.6 Q1762.47 1540.33 1759.39 1544.94 Q1756.33 1549.52 1750.52 1549.52 Q1744.71 1549.52 1741.63 1544.94 Q1738.58 1540.33 1738.58 1531.6 Q1738.58 1522.85 1741.63 1518.27 Q1744.71 1513.66 1750.52 1513.66 Z" fill="#000000" fill-rule="nonzero" fill-opacity="1" /><path clip-path="url(#clip140)" d="M1770.68 1542.97 L1775.57 1542.97 L1775.57 1548.85 L1770.68 1548.85 L1770.68 1542.97 Z" fill="#000000" fill-rule="nonzero" fill-opacity="1" /><path clip-path="url(#clip140)" d="M1785.8 1514.29 L1804.15 1514.29 L1804.15 1518.22 L1790.08 1518.22 L1790.08 1526.7 Q1791.1 1526.35 1792.12 1526.19 Q1793.14 1526 1794.15 1526 Q1799.94 1526 1803.32 1529.17 Q1806.7 1532.34 1806.7 1537.76 Q1806.7 1543.34 1803.23 1546.44 Q1799.76 1549.52 1793.44 1549.52 Q1791.26 1549.52 1788.99 1549.15 Q1786.75 1548.78 1784.34 1548.04 L1784.34 1543.34 Q1786.42 1544.47 1788.65 1545.03 Q1790.87 1545.58 1793.34 1545.58 Q1797.35 1545.58 1799.69 1543.48 Q1802.03 1541.37 1802.03 1537.76 Q1802.03 1534.15 1799.69 1532.04 Q1797.35 1529.94 1793.34 1529.94 Q1791.47 1529.94 1789.59 1530.35 Q1787.74 1530.77 1785.8 1531.65 L1785.8 1514.29 Z" fill="#000000" fill-rule="nonzero" fill-opacity="1" /><path clip-path="url(#clip140)" d="M2257.75 1544.91 L2265.39 1544.91 L2265.39 1518.55 L2257.08 1520.21 L2257.08 1515.95 L2265.35 1514.29 L2270.02 1514.29 L2270.02 1544.91 L2277.66 1544.91 L2277.66 1548.85 L2257.75 1548.85 L2257.75 1544.91 Z" fill="#000000" fill-rule="nonzero" fill-opacity="1" /><path clip-path="url(#clip140)" d="M2287.11 1542.97 L2291.99 1542.97 L2291.99 1548.85 L2287.11 1548.85 L2287.11 1542.97 Z" fill="#000000" fill-rule="nonzero" fill-opacity="1" /><path clip-path="url(#clip140)" d="M2312.17 1517.37 Q2308.56 1517.37 2306.73 1520.93 Q2304.93 1524.47 2304.93 1531.6 Q2304.93 1538.71 2306.73 1542.27 Q2308.56 1545.82 2312.17 1545.82 Q2315.81 1545.82 2317.61 1542.27 Q2319.44 1538.71 2319.44 1531.6 Q2319.44 1524.47 2317.61 1520.93 Q2315.81 1517.37 2312.17 1517.37 M2312.17 1513.66 Q2317.98 1513.66 2321.04 1518.27 Q2324.12 1522.85 2324.12 1531.6 Q2324.12 1540.33 2321.04 1544.94 Q2317.98 1549.52 2312.17 1549.52 Q2306.36 1549.52 2303.29 1544.94 Q2300.23 1540.33 2300.23 1531.6 Q2300.23 1522.85 2303.29 1518.27 Q2306.36 1513.66 2312.17 1513.66 Z" fill="#000000" fill-rule="nonzero" fill-opacity="1" /><polyline clip-path="url(#clip142)" style="stroke:#000000; stroke-linecap:round; stroke-linejoin:round; stroke-width:2; stroke-opacity:0.1; fill:none" points="156.598,1445.72 2352.76,1445.72 "/>
<polyline clip-path="url(#clip142)" style="stroke:#000000; stroke-linecap:round; stroke-linejoin:round; stroke-width:2; stroke-opacity:0.1; fill:none" points="156.598,1162.74 2352.76,1162.74 "/>
<polyline clip-path="url(#clip142)" style="stroke:#000000; stroke-linecap:round; stroke-linejoin:round; stroke-width:2; stroke-opacity:0.1; fill:none" points="156.598,879.755 2352.76,879.755 "/>
<polyline clip-path="url(#clip142)" style="stroke:#000000; stroke-linecap:round; stroke-linejoin:round; stroke-width:2; stroke-opacity:0.1; fill:none" points="156.598,596.775 2352.76,596.775 "/>
<polyline clip-path="url(#clip142)" style="stroke:#000000; stroke-linecap:round; stroke-linejoin:round; stroke-width:2; stroke-opacity:0.1; fill:none" points="156.598,313.795 2352.76,313.795 "/>
<polyline clip-path="url(#clip140)" style="stroke:#000000; stroke-linecap:round; stroke-linejoin:round; stroke-width:4; stroke-opacity:1; fill:none" points="156.598,1486.45 156.598,47.2441 "/>
<polyline clip-path="url(#clip140)" style="stroke:#000000; stroke-linecap:round; stroke-linejoin:round; stroke-width:4; stroke-opacity:1; fill:none" points="156.598,1445.72 175.496,1445.72 "/>
<polyline clip-path="url(#clip140)" style="stroke:#000000; stroke-linecap:round; stroke-linejoin:round; stroke-width:4; stroke-opacity:1; fill:none" points="156.598,1162.74 175.496,1162.74 "/>
<polyline clip-path="url(#clip140)" style="stroke:#000000; stroke-linecap:round; stroke-linejoin:round; stroke-width:4; stroke-opacity:1; fill:none" points="156.598,879.755 175.496,879.755 "/>
<polyline clip-path="url(#clip140)" style="stroke:#000000; stroke-linecap:round; stroke-linejoin:round; stroke-width:4; stroke-opacity:1; fill:none" points="156.598,596.775 175.496,596.775 "/>
<polyline clip-path="url(#clip140)" style="stroke:#000000; stroke-linecap:round; stroke-linejoin:round; stroke-width:4; stroke-opacity:1; fill:none" points="156.598,313.795 175.496,313.795 "/>
<path clip-path="url(#clip140)" d="M63.4226 1431.51 Q59.8115 1431.51 57.9828 1435.08 Q56.1773 1438.62 56.1773 1445.75 Q56.1773 1452.86 57.9828 1456.42 Q59.8115 1459.96 63.4226 1459.96 Q67.0569 1459.96 68.8624 1456.42 Q70.6911 1452.86 70.6911 1445.75 Q70.6911 1438.62 68.8624 1435.08 Q67.0569 1431.51 63.4226 1431.51 M63.4226 1427.81 Q69.2328 1427.81 72.2883 1432.42 Q75.367 1437 75.367 1445.75 Q75.367 1454.48 72.2883 1459.08 Q69.2328 1463.67 63.4226 1463.67 Q57.6125 1463.67 54.5338 1459.08 Q51.4782 1454.48 51.4782 1445.75 Q51.4782 1437 54.5338 1432.42 Q57.6125 1427.81 63.4226 1427.81 Z" fill="#000000" fill-rule="nonzero" fill-opacity="1" /><path clip-path="url(#clip140)" d="M83.5845 1457.12 L88.4688 1457.12 L88.4688 1463 L83.5845 1463 L83.5845 1457.12 Z" fill="#000000" fill-rule="nonzero" fill-opacity="1" /><path clip-path="url(#clip140)" d="M108.654 1431.51 Q105.043 1431.51 103.214 1435.08 Q101.409 1438.62 101.409 1445.75 Q101.409 1452.86 103.214 1456.42 Q105.043 1459.96 108.654 1459.96 Q112.288 1459.96 114.094 1456.42 Q115.922 1452.86 115.922 1445.75 Q115.922 1438.62 114.094 1435.08 Q112.288 1431.51 108.654 1431.51 M108.654 1427.81 Q114.464 1427.81 117.52 1432.42 Q120.598 1437 120.598 1445.75 Q120.598 1454.48 117.52 1459.08 Q114.464 1463.67 108.654 1463.67 Q102.844 1463.67 99.765 1459.08 Q96.7095 1454.48 96.7095 1445.75 Q96.7095 1437 99.765 1432.42 Q102.844 1427.81 108.654 1427.81 Z" fill="#000000" fill-rule="nonzero" fill-opacity="1" /><path clip-path="url(#clip140)" d="M65.0198 1148.53 Q61.4087 1148.53 59.58 1152.1 Q57.7745 1155.64 57.7745 1162.77 Q57.7745 1169.88 59.58 1173.44 Q61.4087 1176.98 65.0198 1176.98 Q68.6541 1176.98 70.4596 1173.44 Q72.2883 1169.88 72.2883 1162.77 Q72.2883 1155.64 70.4596 1152.1 Q68.6541 1148.53 65.0198 1148.53 M65.0198 1144.83 Q70.83 1144.83 73.8855 1149.44 Q76.9642 1154.02 76.9642 1162.77 Q76.9642 1171.5 73.8855 1176.1 Q70.83 1180.69 65.0198 1180.69 Q59.2097 1180.69 56.131 1176.1 Q53.0754 1171.5 53.0754 1162.77 Q53.0754 1154.02 56.131 1149.44 Q59.2097 1144.83 65.0198 1144.83 Z" fill="#000000" fill-rule="nonzero" fill-opacity="1" /><path clip-path="url(#clip140)" d="M85.1818 1174.14 L90.066 1174.14 L90.066 1180.02 L85.1818 1180.02 L85.1818 1174.14 Z" fill="#000000" fill-rule="nonzero" fill-opacity="1" /><path clip-path="url(#clip140)" d="M104.279 1176.08 L120.598 1176.08 L120.598 1180.02 L98.6539 1180.02 L98.6539 1176.08 Q101.316 1173.33 105.899 1168.7 Q110.506 1164.04 111.686 1162.7 Q113.932 1160.18 114.811 1158.44 Q115.714 1156.68 115.714 1154.99 Q115.714 1152.24 113.77 1150.5 Q111.848 1148.77 108.746 1148.77 Q106.547 1148.77 104.094 1149.53 Q101.663 1150.29 98.8854 1151.84 L98.8854 1147.12 Q101.709 1145.99 104.163 1145.41 Q106.617 1144.83 108.654 1144.83 Q114.024 1144.83 117.219 1147.52 Q120.413 1150.2 120.413 1154.69 Q120.413 1156.82 119.603 1158.74 Q118.816 1160.64 116.709 1163.23 Q116.131 1163.9 113.029 1167.12 Q109.927 1170.32 104.279 1176.08 Z" fill="#000000" fill-rule="nonzero" fill-opacity="1" /><path clip-path="url(#clip140)" d="M62.9365 865.554 Q59.3254 865.554 57.4967 869.119 Q55.6912 872.66 55.6912 879.79 Q55.6912 886.896 57.4967 890.461 Q59.3254 894.003 62.9365 894.003 Q66.5707 894.003 68.3763 890.461 Q70.205 886.896 70.205 879.79 Q70.205 872.66 68.3763 869.119 Q66.5707 865.554 62.9365 865.554 M62.9365 861.85 Q68.7467 861.85 71.8022 866.457 Q74.8809 871.04 74.8809 879.79 Q74.8809 888.517 71.8022 893.123 Q68.7467 897.707 62.9365 897.707 Q57.1264 897.707 54.0477 893.123 Q50.9921 888.517 50.9921 879.79 Q50.9921 871.04 54.0477 866.457 Q57.1264 861.85 62.9365 861.85 Z" fill="#000000" fill-rule="nonzero" fill-opacity="1" /><path clip-path="url(#clip140)" d="M83.0984 891.156 L87.9827 891.156 L87.9827 897.035 L83.0984 897.035 L83.0984 891.156 Z" fill="#000000" fill-rule="nonzero" fill-opacity="1" /><path clip-path="url(#clip140)" d="M111.015 866.549 L99.2095 884.998 L111.015 884.998 L111.015 866.549 M109.788 862.475 L115.668 862.475 L115.668 884.998 L120.598 884.998 L120.598 888.887 L115.668 888.887 L115.668 897.035 L111.015 897.035 L111.015 888.887 L95.4132 888.887 L95.4132 884.373 L109.788 862.475 Z" fill="#000000" fill-rule="nonzero" fill-opacity="1" /><path clip-path="url(#clip140)" d="M63.2606 582.574 Q59.6495 582.574 57.8208 586.138 Q56.0152 589.68 56.0152 596.81 Q56.0152 603.916 57.8208 607.481 Q59.6495 611.023 63.2606 611.023 Q66.8948 611.023 68.7004 607.481 Q70.5291 603.916 70.5291 596.81 Q70.5291 589.68 68.7004 586.138 Q66.8948 582.574 63.2606 582.574 M63.2606 578.87 Q69.0707 578.87 72.1263 583.476 Q75.205 588.06 75.205 596.81 Q75.205 605.537 72.1263 610.143 Q69.0707 614.726 63.2606 614.726 Q57.4504 614.726 54.3717 610.143 Q51.3162 605.537 51.3162 596.81 Q51.3162 588.06 54.3717 583.476 Q57.4504 578.87 63.2606 578.87 Z" fill="#000000" fill-rule="nonzero" fill-opacity="1" /><path clip-path="url(#clip140)" d="M83.4225 608.175 L88.3067 608.175 L88.3067 614.055 L83.4225 614.055 L83.4225 608.175 Z" fill="#000000" fill-rule="nonzero" fill-opacity="1" /><path clip-path="url(#clip140)" d="M109.071 594.912 Q105.922 594.912 104.071 597.064 Q102.242 599.217 102.242 602.967 Q102.242 606.694 104.071 608.87 Q105.922 611.023 109.071 611.023 Q112.219 611.023 114.047 608.87 Q115.899 606.694 115.899 602.967 Q115.899 599.217 114.047 597.064 Q112.219 594.912 109.071 594.912 M118.353 580.259 L118.353 584.518 Q116.594 583.685 114.788 583.245 Q113.006 582.805 111.246 582.805 Q106.617 582.805 104.163 585.93 Q101.733 589.055 101.385 595.375 Q102.751 593.361 104.811 592.296 Q106.871 591.208 109.348 591.208 Q114.557 591.208 117.566 594.379 Q120.598 597.527 120.598 602.967 Q120.598 608.291 117.45 611.509 Q114.302 614.726 109.071 614.726 Q103.075 614.726 99.9039 610.143 Q96.7326 605.537 96.7326 596.81 Q96.7326 588.615 100.621 583.754 Q104.51 578.87 111.061 578.87 Q112.82 578.87 114.603 579.217 Q116.408 579.564 118.353 580.259 Z" fill="#000000" fill-rule="nonzero" fill-opacity="1" /><path clip-path="url(#clip140)" d="M63.5152 299.593 Q59.9041 299.593 58.0754 303.158 Q56.2699 306.7 56.2699 313.829 Q56.2699 320.936 58.0754 324.501 Q59.9041 328.042 63.5152 328.042 Q67.1494 328.042 68.955 324.501 Q70.7837 320.936 70.7837 313.829 Q70.7837 306.7 68.955 303.158 Q67.1494 299.593 63.5152 299.593 M63.5152 295.89 Q69.3254 295.89 72.3809 300.496 Q75.4596 305.08 75.4596 313.829 Q75.4596 322.556 72.3809 327.163 Q69.3254 331.746 63.5152 331.746 Q57.7051 331.746 54.6264 327.163 Q51.5708 322.556 51.5708 313.829 Q51.5708 305.08 54.6264 300.496 Q57.7051 295.89 63.5152 295.89 Z" fill="#000000" fill-rule="nonzero" fill-opacity="1" /><path clip-path="url(#clip140)" d="M83.6771 325.195 L88.5614 325.195 L88.5614 331.075 L83.6771 331.075 L83.6771 325.195 Z" fill="#000000" fill-rule="nonzero" fill-opacity="1" /><path clip-path="url(#clip140)" d="M108.746 314.663 Q105.413 314.663 103.492 316.445 Q101.594 318.228 101.594 321.353 Q101.594 324.478 103.492 326.26 Q105.413 328.042 108.746 328.042 Q112.08 328.042 114.001 326.26 Q115.922 324.454 115.922 321.353 Q115.922 318.228 114.001 316.445 Q112.103 314.663 108.746 314.663 M104.071 312.672 Q101.061 311.931 99.3715 309.871 Q97.7048 307.811 97.7048 304.848 Q97.7048 300.705 100.645 298.297 Q103.608 295.89 108.746 295.89 Q113.908 295.89 116.848 298.297 Q119.788 300.705 119.788 304.848 Q119.788 307.811 118.098 309.871 Q116.432 311.931 113.445 312.672 Q116.825 313.459 118.7 315.751 Q120.598 318.042 120.598 321.353 Q120.598 326.376 117.52 329.061 Q114.464 331.746 108.746 331.746 Q103.029 331.746 99.9502 329.061 Q96.8947 326.376 96.8947 321.353 Q96.8947 318.042 98.7928 315.751 Q100.691 313.459 104.071 312.672 M102.358 305.288 Q102.358 307.973 104.024 309.478 Q105.714 310.982 108.746 310.982 Q111.756 310.982 113.445 309.478 Q115.158 307.973 115.158 305.288 Q115.158 302.603 113.445 301.098 Q111.756 299.593 108.746 299.593 Q105.714 299.593 104.024 301.098 Q102.358 302.603 102.358 305.288 Z" fill="#000000" fill-rule="nonzero" fill-opacity="1" /><path clip-path="url(#clip142)" d="M2121.47 1445.72 L2121.47 406.196 L2163.75 406.196 L2163.75 1445.72 L2163.75 1445.72 L2163.75 1445.72 L2121.47 1445.72 L2121.47 1445.72  Z" fill="#191970" fill-rule="evenodd" fill-opacity="0.765625"/>
<polyline clip-path="url(#clip142)" style="stroke:#000000; stroke-linecap:round; stroke-linejoin:round; stroke-width:4; stroke-opacity:1; fill:none" points="2121.47,1445.72 2121.47,406.196 2163.75,406.196 2163.75,1445.72 "/>
<path clip-path="url(#clip142)" d="M599.297 1445.72 L599.297 915.349 L641.58 915.349 L641.58 1445.72 L641.58 1445.72 L641.58 1445.72 L599.297 1445.72 L599.297 1445.72  Z" fill="#191970" fill-rule="evenodd" fill-opacity="0.390625"/>
<polyline clip-path="url(#clip142)" style="stroke:#000000; stroke-linecap:round; stroke-linejoin:round; stroke-width:4; stroke-opacity:1; fill:none" points="599.297,1445.72 599.297,915.349 641.58,915.349 641.58,1445.72 "/>
<path clip-path="url(#clip142)" d="M726.145 1445.72 L726.145 1106.28 L768.427 1106.28 L768.427 1445.72 L768.427 1445.72 L768.427 1445.72 L726.145 1445.72 L726.145 1445.72  Z" fill="#191970" fill-rule="evenodd" fill-opacity="0.25"/>
<polyline clip-path="url(#clip142)" style="stroke:#000000; stroke-linecap:round; stroke-linejoin:round; stroke-width:4; stroke-opacity:1; fill:none" points="726.145,1445.72 726.145,1106.28 768.427,1106.28 768.427,1445.72 "/>
<path clip-path="url(#clip142)" d="M1994.62 1445.72 L1994.62 681.987 L2036.9 681.987 L2036.9 1445.72 L2036.9 1445.72 L2036.9 1445.72 L1994.62 1445.72 L1994.62 1445.72  Z" fill="#191970" fill-rule="evenodd" fill-opacity="0.5625"/>
<polyline clip-path="url(#clip142)" style="stroke:#000000; stroke-linecap:round; stroke-linejoin:round; stroke-width:4; stroke-opacity:1; fill:none" points="1994.62,1445.72 1994.62,681.987 2036.9,681.987 2036.9,1445.72 "/>
<path clip-path="url(#clip142)" d="M2206.04 1445.72 L2206.04 198.764 L2248.32 198.764 L2248.32 1445.72 L2248.32 1445.72 L2248.32 1445.72 L2206.04 1445.72 L2206.04 1445.72  Z" fill="#191970" fill-rule="evenodd" fill-opacity="0.918403"/>
<polyline clip-path="url(#clip142)" style="stroke:#000000; stroke-linecap:round; stroke-linejoin:round; stroke-width:4; stroke-opacity:1; fill:none" points="2206.04,1445.72 2206.04,198.764 2248.32,198.764 2248.32,1445.72 "/>
<path clip-path="url(#clip142)" d="M1656.36 1445.72 L1656.36 1210 L1698.64 1210 L1698.64 1445.72 L1698.64 1445.72 L1698.64 1445.72 L1656.36 1445.72 L1656.36 1445.72  Z" fill="#191970" fill-rule="evenodd" fill-opacity="0.173611"/>
<polyline clip-path="url(#clip142)" style="stroke:#000000; stroke-linecap:round; stroke-linejoin:round; stroke-width:4; stroke-opacity:1; fill:none" points="1656.36,1445.72 1656.36,1210 1698.64,1210 1698.64,1445.72 "/>
<path clip-path="url(#clip142)" d="M1444.95 1445.72 L1444.95 1386.79 L1487.23 1386.79 L1487.23 1445.72 L1487.23 1445.72 L1487.23 1445.72 L1444.95 1445.72 L1444.95 1445.72  Z" fill="#191970" fill-rule="evenodd" fill-opacity="0.0434028"/>
<polyline clip-path="url(#clip142)" style="stroke:#000000; stroke-linecap:round; stroke-linejoin:round; stroke-width:4; stroke-opacity:1; fill:none" points="1444.95,1445.72 1444.95,1386.79 1487.23,1386.79 1487.23,1445.72 "/>
<path clip-path="url(#clip142)" d="M1233.54 1445.72 L1233.54 1445.72 L1275.82 1445.72 L1275.82 1445.72 L1275.82 1445.72 L1275.82 1445.72 L1233.54 1445.72 L1233.54 1445.72  Z" fill="#191970" fill-rule="evenodd" fill-opacity="0"/>
<polyline clip-path="url(#clip142)" style="stroke:#000000; stroke-linecap:round; stroke-linejoin:round; stroke-width:4; stroke-opacity:1; fill:none" points="1233.54,1445.72 1233.54,1445.72 1275.82,1445.72 "/>
<path clip-path="url(#clip142)" d="M1952.34 1445.72 L1952.34 764.489 L1994.62 764.489 L1994.62 1445.72 L1994.62 1445.72 L1994.62 1445.72 L1952.34 1445.72 L1952.34 1445.72  Z" fill="#191970" fill-rule="evenodd" fill-opacity="0.501736"/>
<polyline clip-path="url(#clip142)" style="stroke:#000000; stroke-linecap:round; stroke-linejoin:round; stroke-width:4; stroke-opacity:1; fill:none" points="1952.34,1445.72 1952.34,764.489 1994.62,764.489 1994.62,1445.72 "/>
<path clip-path="url(#clip142)" d="M472.449 1445.72 L472.449 681.987 L514.732 681.987 L514.732 1445.72 L514.732 1445.72 L514.732 1445.72 L472.449 1445.72 L472.449 1445.72  Z" fill="#191970" fill-rule="evenodd" fill-opacity="0.5625"/>
<polyline clip-path="url(#clip142)" style="stroke:#000000; stroke-linecap:round; stroke-linejoin:round; stroke-width:4; stroke-opacity:1; fill:none" points="472.449,1445.72 472.449,681.987 514.732,681.987 514.732,1445.72 "/>
<path clip-path="url(#clip142)" d="M218.754 1445.72 L218.754 87.9763 L261.036 87.9763 L261.036 1445.72 L261.036 1445.72 L261.036 1445.72 L218.754 1445.72 L218.754 1445.72  Z" fill="#191970" fill-rule="evenodd" fill-opacity="1"/>
<polyline clip-path="url(#clip142)" style="stroke:#000000; stroke-linecap:round; stroke-linejoin:round; stroke-width:4; stroke-opacity:1; fill:none" points="218.754,1445.72 218.754,87.9763 261.036,87.9763 261.036,1445.72 "/>
<path clip-path="url(#clip142)" d="M768.427 1445.72 L768.427 1160.5 L810.71 1160.5 L810.71 1445.72 L810.71 1445.72 L810.71 1445.72 L768.427 1445.72 L768.427 1445.72  Z" fill="#191970" fill-rule="evenodd" fill-opacity="0.210069"/>
<polyline clip-path="url(#clip142)" style="stroke:#000000; stroke-linecap:round; stroke-linejoin:round; stroke-width:4; stroke-opacity:1; fill:none" points="768.427,1445.72 768.427,1160.5 810.71,1160.5 810.71,1445.72 "/>
<path clip-path="url(#clip142)" d="M1022.12 1445.72 L1022.12 1386.79 L1064.41 1386.79 L1064.41 1445.72 L1064.41 1445.72 L1064.41 1445.72 L1022.12 1445.72 L1022.12 1445.72  Z" fill="#191970" fill-rule="evenodd" fill-opacity="0.0434028"/>
<polyline clip-path="url(#clip142)" style="stroke:#000000; stroke-linecap:round; stroke-linejoin:round; stroke-width:4; stroke-opacity:1; fill:none" points="1022.12,1445.72 1022.12,1386.79 1064.41,1386.79 1064.41,1445.72 "/>
<path clip-path="url(#clip142)" d="M641.58 1445.72 L641.58 983.707 L683.862 983.707 L683.862 1445.72 L683.862 1445.72 L683.862 1445.72 L641.58 1445.72 L641.58 1445.72  Z" fill="#191970" fill-rule="evenodd" fill-opacity="0.340278"/>
<polyline clip-path="url(#clip142)" style="stroke:#000000; stroke-linecap:round; stroke-linejoin:round; stroke-width:4; stroke-opacity:1; fill:none" points="641.58,1445.72 641.58,983.707 683.862,983.707 683.862,1445.72 "/>
<path clip-path="url(#clip142)" d="M1402.67 1445.72 L1402.67 1408 L1444.95 1408 L1444.95 1445.72 L1444.95 1445.72 L1444.95 1445.72 L1402.67 1445.72 L1402.67 1445.72  Z" fill="#191970" fill-rule="evenodd" fill-opacity="0.0277778"/>
<polyline clip-path="url(#clip142)" style="stroke:#000000; stroke-linecap:round; stroke-linejoin:round; stroke-width:4; stroke-opacity:1; fill:none" points="1402.67,1445.72 1402.67,1408 1444.95,1408 1444.95,1445.72 "/>
<path clip-path="url(#clip142)" d="M1529.51 1445.72 L1529.51 1330.21 L1571.8 1330.21 L1571.8 1445.72 L1571.8 1445.72 L1571.8 1445.72 L1529.51 1445.72 L1529.51 1445.72  Z" fill="#191970" fill-rule="evenodd" fill-opacity="0.0850694"/>
<polyline clip-path="url(#clip142)" style="stroke:#000000; stroke-linecap:round; stroke-linejoin:round; stroke-width:4; stroke-opacity:1; fill:none" points="1529.51,1445.72 1529.51,1330.21 1571.8,1330.21 1571.8,1445.72 "/>
<path clip-path="url(#clip142)" d="M303.319 1445.72 L303.319 304.837 L345.601 304.837 L345.601 1445.72 L345.601 1445.72 L345.601 1445.72 L303.319 1445.72 L303.319 1445.72  Z" fill="#191970" fill-rule="evenodd" fill-opacity="0.840278"/>
<polyline clip-path="url(#clip142)" style="stroke:#000000; stroke-linecap:round; stroke-linejoin:round; stroke-width:4; stroke-opacity:1; fill:none" points="303.319,1445.72 303.319,304.837 345.601,304.837 345.601,1445.72 "/>
<path clip-path="url(#clip142)" d="M557.014 1445.72 L557.014 842.276 L599.297 842.276 L599.297 1445.72 L599.297 1445.72 L599.297 1445.72 L557.014 1445.72 L557.014 1445.72  Z" fill="#191970" fill-rule="evenodd" fill-opacity="0.444444"/>
<polyline clip-path="url(#clip142)" style="stroke:#000000; stroke-linecap:round; stroke-linejoin:round; stroke-width:4; stroke-opacity:1; fill:none" points="557.014,1445.72 557.014,842.276 599.297,842.276 599.297,1445.72 "/>
<path clip-path="url(#clip142)" d="M1910.06 1445.72 L1910.06 842.276 L1952.34 842.276 L1952.34 1445.72 L1952.34 1445.72 L1952.34 1445.72 L1910.06 1445.72 L1910.06 1445.72  Z" fill="#191970" fill-rule="evenodd" fill-opacity="0.444444"/>
<polyline clip-path="url(#clip142)" style="stroke:#000000; stroke-linecap:round; stroke-linejoin:round; stroke-width:4; stroke-opacity:1; fill:none" points="1910.06,1445.72 1910.06,842.276 1952.34,842.276 1952.34,1445.72 "/>
<path clip-path="url(#clip142)" d="M1571.8 1445.72 L1571.8 1294.86 L1614.08 1294.86 L1614.08 1445.72 L1614.08 1445.72 L1614.08 1445.72 L1571.8 1445.72 L1571.8 1445.72  Z" fill="#191970" fill-rule="evenodd" fill-opacity="0.111111"/>
<polyline clip-path="url(#clip142)" style="stroke:#000000; stroke-linecap:round; stroke-linejoin:round; stroke-width:4; stroke-opacity:1; fill:none" points="1571.8,1445.72 1571.8,1294.86 1614.08,1294.86 1614.08,1445.72 "/>
<path clip-path="url(#clip142)" d="M1106.69 1445.72 L1106.69 1424.5 L1148.97 1424.5 L1148.97 1445.72 L1148.97 1445.72 L1148.97 1445.72 L1106.69 1445.72 L1106.69 1445.72  Z" fill="#191970" fill-rule="evenodd" fill-opacity="0.015625"/>
<polyline clip-path="url(#clip142)" style="stroke:#000000; stroke-linecap:round; stroke-linejoin:round; stroke-width:4; stroke-opacity:1; fill:none" points="1106.69,1445.72 1106.69,1424.5 1148.97,1424.5 1148.97,1445.72 "/>
<path clip-path="url(#clip142)" d="M895.275 1445.72 L895.275 1294.86 L937.558 1294.86 L937.558 1445.72 L937.558 1445.72 L937.558 1445.72 L895.275 1445.72 L895.275 1445.72  Z" fill="#191970" fill-rule="evenodd" fill-opacity="0.111111"/>
<polyline clip-path="url(#clip142)" style="stroke:#000000; stroke-linecap:round; stroke-linejoin:round; stroke-width:4; stroke-opacity:1; fill:none" points="895.275,1445.72 895.275,1294.86 937.558,1294.86 937.558,1445.72 "/>
<path clip-path="url(#clip142)" d="M1825.49 1445.72 L1825.49 983.707 L1867.77 983.707 L1867.77 1445.72 L1867.77 1445.72 L1867.77 1445.72 L1825.49 1445.72 L1825.49 1445.72  Z" fill="#191970" fill-rule="evenodd" fill-opacity="0.340278"/>
<polyline clip-path="url(#clip142)" style="stroke:#000000; stroke-linecap:round; stroke-linejoin:round; stroke-width:4; stroke-opacity:1; fill:none" points="1825.49,1445.72 1825.49,983.707 1867.77,983.707 1867.77,1445.72 "/>
<path clip-path="url(#clip142)" d="M387.884 1445.72 L387.884 502.841 L430.167 502.841 L430.167 1445.72 L430.167 1445.72 L430.167 1445.72 L387.884 1445.72 L387.884 1445.72  Z" fill="#191970" fill-rule="evenodd" fill-opacity="0.694444"/>
<polyline clip-path="url(#clip142)" style="stroke:#000000; stroke-linecap:round; stroke-linejoin:round; stroke-width:4; stroke-opacity:1; fill:none" points="387.884,1445.72 387.884,502.841 430.167,502.841 430.167,1445.72 "/>
<path clip-path="url(#clip142)" d="M1318.1 1445.72 L1318.1 1436.29 L1360.38 1436.29 L1360.38 1445.72 L1360.38 1445.72 L1360.38 1445.72 L1318.1 1445.72 L1318.1 1445.72  Z" fill="#191970" fill-rule="evenodd" fill-opacity="0.00694444"/>
<polyline clip-path="url(#clip142)" style="stroke:#000000; stroke-linecap:round; stroke-linejoin:round; stroke-width:4; stroke-opacity:1; fill:none" points="1318.1,1445.72 1318.1,1436.29 1360.38,1436.29 1360.38,1445.72 "/>
<path clip-path="url(#clip142)" d="M1275.82 1445.72 L1275.82 1443.36 L1318.1 1443.36 L1318.1 1445.72 L1318.1 1445.72 L1318.1 1445.72 L1275.82 1445.72 L1275.82 1445.72  Z" fill="#191970" fill-rule="evenodd" fill-opacity="0.00173611"/>
<polyline clip-path="url(#clip142)" style="stroke:#000000; stroke-linecap:round; stroke-linejoin:round; stroke-width:4; stroke-opacity:1; fill:none" points="1275.82,1445.72 1275.82,1443.36 1318.1,1443.36 1318.1,1445.72 "/>
<path clip-path="url(#clip142)" d="M2163.75 1445.72 L2163.75 304.837 L2206.04 304.837 L2206.04 1445.72 L2206.04 1445.72 L2206.04 1445.72 L2163.75 1445.72 L2163.75 1445.72  Z" fill="#191970" fill-rule="evenodd" fill-opacity="0.840278"/>
<polyline clip-path="url(#clip142)" style="stroke:#000000; stroke-linecap:round; stroke-linejoin:round; stroke-width:4; stroke-opacity:1; fill:none" points="2163.75,1445.72 2163.75,304.837 2206.04,304.837 2206.04,1445.72 "/>
<path clip-path="url(#clip142)" d="M1191.25 1445.72 L1191.25 1443.36 L1233.54 1443.36 L1233.54 1445.72 L1233.54 1445.72 L1233.54 1445.72 L1191.25 1445.72 L1191.25 1445.72  Z" fill="#191970" fill-rule="evenodd" fill-opacity="0.00173611"/>
<polyline clip-path="url(#clip142)" style="stroke:#000000; stroke-linecap:round; stroke-linejoin:round; stroke-width:4; stroke-opacity:1; fill:none" points="1191.25,1445.72 1191.25,1443.36 1233.54,1443.36 1233.54,1445.72 "/>
<path clip-path="url(#clip142)" d="M852.992 1445.72 L852.992 1254.78 L895.275 1254.78 L895.275 1445.72 L895.275 1445.72 L895.275 1445.72 L852.992 1445.72 L852.992 1445.72  Z" fill="#191970" fill-rule="evenodd" fill-opacity="0.140625"/>
<polyline clip-path="url(#clip142)" style="stroke:#000000; stroke-linecap:round; stroke-linejoin:round; stroke-width:4; stroke-opacity:1; fill:none" points="852.992,1445.72 852.992,1254.78 895.275,1254.78 895.275,1445.72 "/>
<path clip-path="url(#clip142)" d="M261.036 1445.72 L261.036 198.764 L303.319 198.764 L303.319 1445.72 L303.319 1445.72 L303.319 1445.72 L261.036 1445.72 L261.036 1445.72  Z" fill="#191970" fill-rule="evenodd" fill-opacity="0.918403"/>
<polyline clip-path="url(#clip142)" style="stroke:#000000; stroke-linecap:round; stroke-linejoin:round; stroke-width:4; stroke-opacity:1; fill:none" points="261.036,1445.72 261.036,198.764 303.319,198.764 303.319,1445.72 "/>
<path clip-path="url(#clip142)" d="M2248.32 1445.72 L2248.32 87.9763 L2290.6 87.9763 L2290.6 1445.72 L2290.6 1445.72 L2290.6 1445.72 L2248.32 1445.72 L2248.32 1445.72  Z" fill="#191970" fill-rule="evenodd" fill-opacity="1"/>
<polyline clip-path="url(#clip142)" style="stroke:#000000; stroke-linecap:round; stroke-linejoin:round; stroke-width:4; stroke-opacity:1; fill:none" points="2248.32,1445.72 2248.32,87.9763 2290.6,87.9763 2290.6,1445.72 "/>
<path clip-path="url(#clip142)" d="M514.732 1445.72 L514.732 764.489 L557.014 764.489 L557.014 1445.72 L557.014 1445.72 L557.014 1445.72 L514.732 1445.72 L514.732 1445.72  Z" fill="#191970" fill-rule="evenodd" fill-opacity="0.501736"/>
<polyline clip-path="url(#clip142)" style="stroke:#000000; stroke-linecap:round; stroke-linejoin:round; stroke-width:4; stroke-opacity:1; fill:none" points="514.732,1445.72 514.732,764.489 557.014,764.489 557.014,1445.72 "/>
<path clip-path="url(#clip142)" d="M1740.93 1445.72 L1740.93 1106.28 L1783.21 1106.28 L1783.21 1445.72 L1783.21 1445.72 L1783.21 1445.72 L1740.93 1445.72 L1740.93 1445.72  Z" fill="#191970" fill-rule="evenodd" fill-opacity="0.25"/>
<polyline clip-path="url(#clip142)" style="stroke:#000000; stroke-linecap:round; stroke-linejoin:round; stroke-width:4; stroke-opacity:1; fill:none" points="1740.93,1445.72 1740.93,1106.28 1783.21,1106.28 1783.21,1445.72 "/>
<path clip-path="url(#clip142)" d="M683.862 1445.72 L683.862 1047.35 L726.145 1047.35 L726.145 1445.72 L726.145 1445.72 L726.145 1445.72 L683.862 1445.72 L683.862 1445.72  Z" fill="#191970" fill-rule="evenodd" fill-opacity="0.293403"/>
<polyline clip-path="url(#clip142)" style="stroke:#000000; stroke-linecap:round; stroke-linejoin:round; stroke-width:4; stroke-opacity:1; fill:none" points="683.862,1445.72 683.862,1047.35 726.145,1047.35 726.145,1445.72 "/>
<path clip-path="url(#clip142)" d="M1867.77 1445.72 L1867.77 915.349 L1910.06 915.349 L1910.06 1445.72 L1910.06 1445.72 L1910.06 1445.72 L1867.77 1445.72 L1867.77 1445.72  Z" fill="#191970" fill-rule="evenodd" fill-opacity="0.390625"/>
<polyline clip-path="url(#clip142)" style="stroke:#000000; stroke-linecap:round; stroke-linejoin:round; stroke-width:4; stroke-opacity:1; fill:none" points="1867.77,1445.72 1867.77,915.349 1910.06,915.349 1910.06,1445.72 "/>
<path clip-path="url(#clip142)" d="M810.71 1445.72 L810.71 1210 L852.992 1210 L852.992 1445.72 L852.992 1445.72 L852.992 1445.72 L810.71 1445.72 L810.71 1445.72  Z" fill="#191970" fill-rule="evenodd" fill-opacity="0.173611"/>
<polyline clip-path="url(#clip142)" style="stroke:#000000; stroke-linecap:round; stroke-linejoin:round; stroke-width:4; stroke-opacity:1; fill:none" points="810.71,1445.72 810.71,1210 852.992,1210 852.992,1445.72 "/>
<path clip-path="url(#clip142)" d="M2036.9 1445.72 L2036.9 594.771 L2079.19 594.771 L2079.19 1445.72 L2079.19 1445.72 L2079.19 1445.72 L2036.9 1445.72 L2036.9 1445.72  Z" fill="#191970" fill-rule="evenodd" fill-opacity="0.626736"/>
<polyline clip-path="url(#clip142)" style="stroke:#000000; stroke-linecap:round; stroke-linejoin:round; stroke-width:4; stroke-opacity:1; fill:none" points="2036.9,1445.72 2036.9,594.771 2079.19,594.771 2079.19,1445.72 "/>
<path clip-path="url(#clip142)" d="M1487.23 1445.72 L1487.23 1360.86 L1529.51 1360.86 L1529.51 1445.72 L1529.51 1445.72 L1529.51 1445.72 L1487.23 1445.72 L1487.23 1445.72  Z" fill="#191970" fill-rule="evenodd" fill-opacity="0.0625"/>
<polyline clip-path="url(#clip142)" style="stroke:#000000; stroke-linecap:round; stroke-linejoin:round; stroke-width:4; stroke-opacity:1; fill:none" points="1487.23,1445.72 1487.23,1360.86 1529.51,1360.86 1529.51,1445.72 "/>
<path clip-path="url(#clip142)" d="M345.601 1445.72 L345.601 406.196 L387.884 406.196 L387.884 1445.72 L387.884 1445.72 L387.884 1445.72 L345.601 1445.72 L345.601 1445.72  Z" fill="#191970" fill-rule="evenodd" fill-opacity="0.765625"/>
<polyline clip-path="url(#clip142)" style="stroke:#000000; stroke-linecap:round; stroke-linejoin:round; stroke-width:4; stroke-opacity:1; fill:none" points="345.601,1445.72 345.601,406.196 387.884,406.196 387.884,1445.72 "/>
<path clip-path="url(#clip142)" d="M1148.97 1445.72 L1148.97 1436.29 L1191.25 1436.29 L1191.25 1445.72 L1191.25 1445.72 L1191.25 1445.72 L1148.97 1445.72 L1148.97 1445.72  Z" fill="#191970" fill-rule="evenodd" fill-opacity="0.00694444"/>
<polyline clip-path="url(#clip142)" style="stroke:#000000; stroke-linecap:round; stroke-linejoin:round; stroke-width:4; stroke-opacity:1; fill:none" points="1148.97,1445.72 1148.97,1436.29 1191.25,1436.29 1191.25,1445.72 "/>
<path clip-path="url(#clip142)" d="M430.167 1445.72 L430.167 594.771 L472.449 594.771 L472.449 1445.72 L472.449 1445.72 L472.449 1445.72 L430.167 1445.72 L430.167 1445.72  Z" fill="#191970" fill-rule="evenodd" fill-opacity="0.626736"/>
<polyline clip-path="url(#clip142)" style="stroke:#000000; stroke-linecap:round; stroke-linejoin:round; stroke-width:4; stroke-opacity:1; fill:none" points="430.167,1445.72 430.167,594.771 472.449,594.771 472.449,1445.72 "/>
<path clip-path="url(#clip142)" d="M1064.41 1445.72 L1064.41 1408 L1106.69 1408 L1106.69 1445.72 L1106.69 1445.72 L1106.69 1445.72 L1064.41 1445.72 L1064.41 1445.72  Z" fill="#191970" fill-rule="evenodd" fill-opacity="0.0277778"/>
<polyline clip-path="url(#clip142)" style="stroke:#000000; stroke-linecap:round; stroke-linejoin:round; stroke-width:4; stroke-opacity:1; fill:none" points="1064.41,1445.72 1064.41,1408 1106.69,1408 1106.69,1445.72 "/>
<path clip-path="url(#clip142)" d="M979.84 1445.72 L979.84 1360.86 L1022.12 1360.86 L1022.12 1445.72 L1022.12 1445.72 L1022.12 1445.72 L979.84 1445.72 L979.84 1445.72  Z" fill="#191970" fill-rule="evenodd" fill-opacity="0.0625"/>
<polyline clip-path="url(#clip142)" style="stroke:#000000; stroke-linecap:round; stroke-linejoin:round; stroke-width:4; stroke-opacity:1; fill:none" points="979.84,1445.72 979.84,1360.86 1022.12,1360.86 1022.12,1445.72 "/>
<path clip-path="url(#clip142)" d="M937.558 1445.72 L937.558 1330.21 L979.84 1330.21 L979.84 1445.72 L979.84 1445.72 L979.84 1445.72 L937.558 1445.72 L937.558 1445.72  Z" fill="#191970" fill-rule="evenodd" fill-opacity="0.0850694"/>
<polyline clip-path="url(#clip142)" style="stroke:#000000; stroke-linecap:round; stroke-linejoin:round; stroke-width:4; stroke-opacity:1; fill:none" points="937.558,1445.72 937.558,1330.21 979.84,1330.21 979.84,1445.72 "/>
<path clip-path="url(#clip142)" d="M1614.08 1445.72 L1614.08 1254.78 L1656.36 1254.78 L1656.36 1445.72 L1656.36 1445.72 L1656.36 1445.72 L1614.08 1445.72 L1614.08 1445.72  Z" fill="#191970" fill-rule="evenodd" fill-opacity="0.140625"/>
<polyline clip-path="url(#clip142)" style="stroke:#000000; stroke-linecap:round; stroke-linejoin:round; stroke-width:4; stroke-opacity:1; fill:none" points="1614.08,1445.72 1614.08,1254.78 1656.36,1254.78 1656.36,1445.72 "/>
<path clip-path="url(#clip142)" d="M1783.21 1445.72 L1783.21 1047.35 L1825.49 1047.35 L1825.49 1445.72 L1825.49 1445.72 L1825.49 1445.72 L1783.21 1445.72 L1783.21 1445.72  Z" fill="#191970" fill-rule="evenodd" fill-opacity="0.293403"/>
<polyline clip-path="url(#clip142)" style="stroke:#000000; stroke-linecap:round; stroke-linejoin:round; stroke-width:4; stroke-opacity:1; fill:none" points="1783.21,1445.72 1783.21,1047.35 1825.49,1047.35 1825.49,1445.72 "/>
<path clip-path="url(#clip142)" d="M1360.38 1445.72 L1360.38 1424.5 L1402.67 1424.5 L1402.67 1445.72 L1402.67 1445.72 L1402.67 1445.72 L1360.38 1445.72 L1360.38 1445.72  Z" fill="#191970" fill-rule="evenodd" fill-opacity="0.015625"/>
<polyline clip-path="url(#clip142)" style="stroke:#000000; stroke-linecap:round; stroke-linejoin:round; stroke-width:4; stroke-opacity:1; fill:none" points="1360.38,1445.72 1360.38,1424.5 1402.67,1424.5 1402.67,1445.72 "/>
<path clip-path="url(#clip142)" d="M1698.64 1445.72 L1698.64 1160.5 L1740.93 1160.5 L1740.93 1445.72 L1740.93 1445.72 L1740.93 1445.72 L1698.64 1445.72 L1698.64 1445.72  Z" fill="#191970" fill-rule="evenodd" fill-opacity="0.210069"/>
<polyline clip-path="url(#clip142)" style="stroke:#000000; stroke-linecap:round; stroke-linejoin:round; stroke-width:4; stroke-opacity:1; fill:none" points="1698.64,1445.72 1698.64,1160.5 1740.93,1160.5 1740.93,1445.72 "/>
<path clip-path="url(#clip142)" d="M2079.19 1445.72 L2079.19 502.841 L2121.47 502.841 L2121.47 1445.72 L2121.47 1445.72 L2121.47 1445.72 L2079.19 1445.72 L2079.19 1445.72  Z" fill="#191970" fill-rule="evenodd" fill-opacity="0.694444"/>
<polyline clip-path="url(#clip142)" style="stroke:#000000; stroke-linecap:round; stroke-linejoin:round; stroke-width:4; stroke-opacity:1; fill:none" points="2079.19,1445.72 2079.19,502.841 2121.47,502.841 2121.47,1445.72 "/>
</svg>
