<?xml version="1.0" encoding="utf-8"?>
<svg xmlns="http://www.w3.org/2000/svg" xmlns:xlink="http://www.w3.org/1999/xlink" width="600" height="400" viewBox="0 0 2400 1600">
<defs>
  <clipPath id="clip020">
    <rect x="0" y="0" width="2400" height="1600"/>
  </clipPath>
</defs>
<path clip-path="url(#clip020)" d="M0 1600 L2400 1600 L2400 0 L0 0  Z" fill="#ffffff" fill-rule="evenodd" fill-opacity="1"/>
<defs>
  <clipPath id="clip021">
    <rect x="480" y="0" width="1681" height="1600"/>
  </clipPath>
</defs>
<path clip-path="url(#clip020)" d="M193.936 1486.45 L2352.76 1486.45 L2352.76 47.2441 L193.936 47.2441  Z" fill="#ffffff" fill-rule="evenodd" fill-opacity="1"/>
<defs>
  <clipPath id="clip022">
    <rect x="193" y="47" width="2160" height="1440"/>
  </clipPath>
</defs>
<polyline clip-path="url(#clip022)" style="stroke:#000000; stroke-linecap:round; stroke-linejoin:round; stroke-width:2; stroke-opacity:0.1; fill:none" points="193.936,1486.45 193.936,47.2441 "/>
<polyline clip-path="url(#clip022)" style="stroke:#000000; stroke-linecap:round; stroke-linejoin:round; stroke-width:2; stroke-opacity:0.1; fill:none" points="537.523,1486.45 537.523,47.2441 "/>
<polyline clip-path="url(#clip022)" style="stroke:#000000; stroke-linecap:round; stroke-linejoin:round; stroke-width:2; stroke-opacity:0.1; fill:none" points="881.11,1486.45 881.11,47.2441 "/>
<polyline clip-path="url(#clip022)" style="stroke:#000000; stroke-linecap:round; stroke-linejoin:round; stroke-width:2; stroke-opacity:0.1; fill:none" points="1224.7,1486.45 1224.7,47.2441 "/>
<polyline clip-path="url(#clip022)" style="stroke:#000000; stroke-linecap:round; stroke-linejoin:round; stroke-width:2; stroke-opacity:0.1; fill:none" points="1568.28,1486.45 1568.28,47.2441 "/>
<polyline clip-path="url(#clip022)" style="stroke:#000000; stroke-linecap:round; stroke-linejoin:round; stroke-width:2; stroke-opacity:0.1; fill:none" points="1911.87,1486.45 1911.87,47.2441 "/>
<polyline clip-path="url(#clip022)" style="stroke:#000000; stroke-linecap:round; stroke-linejoin:round; stroke-width:2; stroke-opacity:0.1; fill:none" points="2255.46,1486.45 2255.46,47.2441 "/>
<polyline clip-path="url(#clip020)" style="stroke:#000000; stroke-linecap:round; stroke-linejoin:round; stroke-width:4; stroke-opacity:1; fill:none" points="193.936,1486.45 2352.76,1486.45 "/>
<polyline clip-path="url(#clip020)" style="stroke:#000000; stroke-linecap:round; stroke-linejoin:round; stroke-width:4; stroke-opacity:1; fill:none" points="193.936,1486.45 193.936,1467.55 "/>
<polyline clip-path="url(#clip020)" style="stroke:#000000; stroke-linecap:round; stroke-linejoin:round; stroke-width:4; stroke-opacity:1; fill:none" points="537.523,1486.45 537.523,1467.55 "/>
<polyline clip-path="url(#clip020)" style="stroke:#000000; stroke-linecap:round; stroke-linejoin:round; stroke-width:4; stroke-opacity:1; fill:none" points="881.11,1486.45 881.11,1467.55 "/>
<polyline clip-path="url(#clip020)" style="stroke:#000000; stroke-linecap:round; stroke-linejoin:round; stroke-width:4; stroke-opacity:1; fill:none" points="1224.7,1486.45 1224.7,1467.55 "/>
<polyline clip-path="url(#clip020)" style="stroke:#000000; stroke-linecap:round; stroke-linejoin:round; stroke-width:4; stroke-opacity:1; fill:none" points="1568.28,1486.45 1568.28,1467.55 "/>
<polyline clip-path="url(#clip020)" style="stroke:#000000; stroke-linecap:round; stroke-linejoin:round; stroke-width:4; stroke-opacity:1; fill:none" points="1911.87,1486.45 1911.87,1467.55 "/>
<polyline clip-path="url(#clip020)" style="stroke:#000000; stroke-linecap:round; stroke-linejoin:round; stroke-width:4; stroke-opacity:1; fill:none" points="2255.46,1486.45 2255.46,1467.55 "/>
<path clip-path="url(#clip020)" d="M193.936 1517.37 Q190.325 1517.37 188.496 1520.93 Q186.691 1524.47 186.691 1531.6 Q186.691 1538.71 188.496 1542.27 Q190.325 1545.82 193.936 1545.82 Q197.57 1545.82 199.376 1542.27 Q201.204 1538.71 201.204 1531.6 Q201.204 1524.47 199.376 1520.93 Q197.57 1517.37 193.936 1517.37 M193.936 1513.66 Q199.746 1513.66 202.802 1518.27 Q205.88 1522.85 205.88 1531.6 Q205.88 1540.33 202.802 1544.94 Q199.746 1549.52 193.936 1549.52 Q188.126 1549.52 185.047 1544.94 Q181.992 1540.33 181.992 1531.6 Q181.992 1522.85 185.047 1518.27 Q188.126 1513.66 193.936 1513.66 Z" fill="#000000" fill-rule="nonzero" fill-opacity="1" /><path clip-path="url(#clip020)" d="M527.905 1544.91 L535.544 1544.91 L535.544 1518.55 L527.234 1520.21 L527.234 1515.95 L535.497 1514.29 L540.173 1514.29 L540.173 1544.91 L547.812 1544.91 L547.812 1548.85 L527.905 1548.85 L527.905 1544.91 Z" fill="#000000" fill-rule="nonzero" fill-opacity="1" /><path clip-path="url(#clip020)" d="M875.763 1544.91 L892.082 1544.91 L892.082 1548.85 L870.138 1548.85 L870.138 1544.91 Q872.8 1542.16 877.383 1537.53 Q881.989 1532.88 883.17 1531.53 Q885.415 1529.01 886.295 1527.27 Q887.198 1525.51 887.198 1523.82 Q887.198 1521.07 885.253 1519.33 Q883.332 1517.6 880.23 1517.6 Q878.031 1517.6 875.577 1518.36 Q873.147 1519.13 870.369 1520.68 L870.369 1515.95 Q873.193 1514.82 875.647 1514.24 Q878.1 1513.66 880.137 1513.66 Q885.508 1513.66 888.702 1516.35 Q891.897 1519.03 891.897 1523.52 Q891.897 1525.65 891.087 1527.57 Q890.299 1529.47 888.193 1532.07 Q887.614 1532.74 884.512 1535.95 Q881.411 1539.15 875.763 1544.91 Z" fill="#000000" fill-rule="nonzero" fill-opacity="1" /><path clip-path="url(#clip020)" d="M1228.94 1530.21 Q1232.3 1530.93 1234.18 1533.2 Q1236.07 1535.47 1236.07 1538.8 Q1236.07 1543.92 1232.56 1546.72 Q1229.04 1549.52 1222.56 1549.52 Q1220.38 1549.52 1218.06 1549.08 Q1215.77 1548.66 1213.32 1547.81 L1213.32 1543.29 Q1215.26 1544.43 1217.58 1545.01 Q1219.89 1545.58 1222.42 1545.58 Q1226.81 1545.58 1229.11 1543.85 Q1231.42 1542.11 1231.42 1538.8 Q1231.42 1535.75 1229.27 1534.03 Q1227.14 1532.3 1223.32 1532.3 L1219.29 1532.3 L1219.29 1528.45 L1223.5 1528.45 Q1226.95 1528.45 1228.78 1527.09 Q1230.61 1525.7 1230.61 1523.11 Q1230.61 1520.45 1228.71 1519.03 Q1226.84 1517.6 1223.32 1517.6 Q1221.4 1517.6 1219.2 1518.01 Q1217 1518.43 1214.36 1519.31 L1214.36 1515.14 Q1217.02 1514.4 1219.34 1514.03 Q1221.68 1513.66 1223.74 1513.66 Q1229.06 1513.66 1232.16 1516.09 Q1235.26 1518.5 1235.26 1522.62 Q1235.26 1525.49 1233.62 1527.48 Q1231.98 1529.45 1228.94 1530.21 Z" fill="#000000" fill-rule="nonzero" fill-opacity="1" /><path clip-path="url(#clip020)" d="M1571.29 1518.36 L1559.49 1536.81 L1571.29 1536.81 L1571.29 1518.36 M1570.07 1514.29 L1575.95 1514.29 L1575.95 1536.81 L1580.88 1536.81 L1580.88 1540.7 L1575.95 1540.7 L1575.95 1548.85 L1571.29 1548.85 L1571.29 1540.7 L1555.69 1540.7 L1555.69 1536.19 L1570.07 1514.29 Z" fill="#000000" fill-rule="nonzero" fill-opacity="1" /><path clip-path="url(#clip020)" d="M1902.15 1514.29 L1920.5 1514.29 L1920.5 1518.22 L1906.43 1518.22 L1906.43 1526.7 Q1907.45 1526.35 1908.47 1526.19 Q1909.49 1526 1910.5 1526 Q1916.29 1526 1919.67 1529.17 Q1923.05 1532.34 1923.05 1537.76 Q1923.05 1543.34 1919.58 1546.44 Q1916.11 1549.52 1909.79 1549.52 Q1907.61 1549.52 1905.34 1549.15 Q1903.1 1548.78 1900.69 1548.04 L1900.69 1543.34 Q1902.77 1544.47 1905 1545.03 Q1907.22 1545.58 1909.69 1545.58 Q1913.7 1545.58 1916.04 1543.48 Q1918.37 1541.37 1918.37 1537.76 Q1918.37 1534.15 1916.04 1532.04 Q1913.7 1529.94 1909.69 1529.94 Q1907.82 1529.94 1905.94 1530.35 Q1904.09 1530.77 1902.15 1531.65 L1902.15 1514.29 Z" fill="#000000" fill-rule="nonzero" fill-opacity="1" /><path clip-path="url(#clip020)" d="M2255.86 1529.7 Q2252.71 1529.7 2250.86 1531.86 Q2249.03 1534.01 2249.03 1537.76 Q2249.03 1541.49 2250.86 1543.66 Q2252.71 1545.82 2255.86 1545.82 Q2259.01 1545.82 2260.84 1543.66 Q2262.69 1541.49 2262.69 1537.76 Q2262.69 1534.01 2260.84 1531.86 Q2259.01 1529.7 2255.86 1529.7 M2265.14 1515.05 L2265.14 1519.31 Q2263.39 1518.48 2261.58 1518.04 Q2259.8 1517.6 2258.04 1517.6 Q2253.41 1517.6 2250.95 1520.72 Q2248.52 1523.85 2248.18 1530.17 Q2249.54 1528.15 2251.6 1527.09 Q2253.66 1526 2256.14 1526 Q2261.35 1526 2264.36 1529.17 Q2267.39 1532.32 2267.39 1537.76 Q2267.39 1543.08 2264.24 1546.3 Q2261.09 1549.52 2255.86 1549.52 Q2249.87 1549.52 2246.7 1544.94 Q2243.52 1540.33 2243.52 1531.6 Q2243.52 1523.41 2247.41 1518.55 Q2251.3 1513.66 2257.85 1513.66 Q2259.61 1513.66 2261.39 1514.01 Q2263.2 1514.36 2265.14 1515.05 Z" fill="#000000" fill-rule="nonzero" fill-opacity="1" /><polyline clip-path="url(#clip022)" style="stroke:#000000; stroke-linecap:round; stroke-linejoin:round; stroke-width:2; stroke-opacity:0.1; fill:none" points="193.936,1445.72 2352.76,1445.72 "/>
<polyline clip-path="url(#clip022)" style="stroke:#000000; stroke-linecap:round; stroke-linejoin:round; stroke-width:2; stroke-opacity:0.1; fill:none" points="193.936,1106.28 2352.76,1106.28 "/>
<polyline clip-path="url(#clip022)" style="stroke:#000000; stroke-linecap:round; stroke-linejoin:round; stroke-width:2; stroke-opacity:0.1; fill:none" points="193.936,766.842 2352.76,766.842 "/>
<polyline clip-path="url(#clip022)" style="stroke:#000000; stroke-linecap:round; stroke-linejoin:round; stroke-width:2; stroke-opacity:0.1; fill:none" points="193.936,427.405 2352.76,427.405 "/>
<polyline clip-path="url(#clip022)" style="stroke:#000000; stroke-linecap:round; stroke-linejoin:round; stroke-width:2; stroke-opacity:0.1; fill:none" points="193.936,87.9677 2352.76,87.9677 "/>
<polyline clip-path="url(#clip020)" style="stroke:#000000; stroke-linecap:round; stroke-linejoin:round; stroke-width:4; stroke-opacity:1; fill:none" points="193.936,1486.45 193.936,47.2441 "/>
<polyline clip-path="url(#clip020)" style="stroke:#000000; stroke-linecap:round; stroke-linejoin:round; stroke-width:4; stroke-opacity:1; fill:none" points="193.936,1445.72 212.834,1445.72 "/>
<polyline clip-path="url(#clip020)" style="stroke:#000000; stroke-linecap:round; stroke-linejoin:round; stroke-width:4; stroke-opacity:1; fill:none" points="193.936,1106.28 212.834,1106.28 "/>
<polyline clip-path="url(#clip020)" style="stroke:#000000; stroke-linecap:round; stroke-linejoin:round; stroke-width:4; stroke-opacity:1; fill:none" points="193.936,766.842 212.834,766.842 "/>
<polyline clip-path="url(#clip020)" style="stroke:#000000; stroke-linecap:round; stroke-linejoin:round; stroke-width:4; stroke-opacity:1; fill:none" points="193.936,427.405 212.834,427.405 "/>
<polyline clip-path="url(#clip020)" style="stroke:#000000; stroke-linecap:round; stroke-linejoin:round; stroke-width:4; stroke-opacity:1; fill:none" points="193.936,87.9677 212.834,87.9677 "/>
<path clip-path="url(#clip020)" d="M50.9921 1446.17 L80.6679 1446.17 L80.6679 1450.1 L50.9921 1450.1 L50.9921 1446.17 Z" fill="#000000" fill-rule="nonzero" fill-opacity="1" /><path clip-path="url(#clip020)" d="M91.5706 1459.06 L99.2095 1459.06 L99.2095 1432.7 L90.8993 1434.36 L90.8993 1430.1 L99.1632 1428.44 L103.839 1428.44 L103.839 1459.06 L111.478 1459.06 L111.478 1463 L91.5706 1463 L91.5706 1459.06 Z" fill="#000000" fill-rule="nonzero" fill-opacity="1" /><path clip-path="url(#clip020)" d="M120.922 1457.12 L125.807 1457.12 L125.807 1463 L120.922 1463 L120.922 1457.12 Z" fill="#000000" fill-rule="nonzero" fill-opacity="1" /><path clip-path="url(#clip020)" d="M145.992 1431.52 Q142.381 1431.52 140.552 1435.08 Q138.746 1438.62 138.746 1445.75 Q138.746 1452.86 140.552 1456.42 Q142.381 1459.96 145.992 1459.96 Q149.626 1459.96 151.431 1456.42 Q153.26 1452.86 153.26 1445.75 Q153.26 1438.62 151.431 1435.08 Q149.626 1431.52 145.992 1431.52 M145.992 1427.81 Q151.802 1427.81 154.857 1432.42 Q157.936 1437 157.936 1445.75 Q157.936 1454.48 154.857 1459.09 Q151.802 1463.67 145.992 1463.67 Q140.181 1463.67 137.103 1459.09 Q134.047 1454.48 134.047 1445.75 Q134.047 1437 137.103 1432.42 Q140.181 1427.81 145.992 1427.81 Z" fill="#000000" fill-rule="nonzero" fill-opacity="1" /><path clip-path="url(#clip020)" d="M51.9875 1106.73 L81.6633 1106.73 L81.6633 1110.67 L51.9875 1110.67 L51.9875 1106.73 Z" fill="#000000" fill-rule="nonzero" fill-opacity="1" /><path clip-path="url(#clip020)" d="M101.756 1092.08 Q98.1447 1092.08 96.316 1095.64 Q94.5104 1099.18 94.5104 1106.31 Q94.5104 1113.42 96.316 1116.99 Q98.1447 1120.53 101.756 1120.53 Q105.39 1120.53 107.196 1116.99 Q109.024 1113.42 109.024 1106.31 Q109.024 1099.18 107.196 1095.64 Q105.39 1092.08 101.756 1092.08 M101.756 1088.37 Q107.566 1088.37 110.621 1092.98 Q113.7 1097.56 113.7 1106.31 Q113.7 1115.04 110.621 1119.65 Q107.566 1124.23 101.756 1124.23 Q95.9456 1124.23 92.8669 1119.65 Q89.8114 1115.04 89.8114 1106.31 Q89.8114 1097.56 92.8669 1092.98 Q95.9456 1088.37 101.756 1088.37 Z" fill="#000000" fill-rule="nonzero" fill-opacity="1" /><path clip-path="url(#clip020)" d="M121.918 1117.68 L126.802 1117.68 L126.802 1123.56 L121.918 1123.56 L121.918 1117.68 Z" fill="#000000" fill-rule="nonzero" fill-opacity="1" /><path clip-path="url(#clip020)" d="M137.033 1089 L155.39 1089 L155.39 1092.93 L141.316 1092.93 L141.316 1101.41 Q142.334 1101.06 143.353 1100.9 Q144.371 1100.71 145.39 1100.71 Q151.177 1100.71 154.556 1103.88 Q157.936 1107.06 157.936 1112.47 Q157.936 1118.05 154.464 1121.15 Q150.992 1124.23 144.672 1124.23 Q142.496 1124.23 140.228 1123.86 Q137.982 1123.49 135.575 1122.75 L135.575 1118.05 Q137.658 1119.18 139.881 1119.74 Q142.103 1120.3 144.58 1120.3 Q148.584 1120.3 150.922 1118.19 Q153.26 1116.08 153.26 1112.47 Q153.26 1108.86 150.922 1106.75 Q148.584 1104.65 144.58 1104.65 Q142.705 1104.65 140.83 1105.06 Q138.978 1105.48 137.033 1106.36 L137.033 1089 Z" fill="#000000" fill-rule="nonzero" fill-opacity="1" /><path clip-path="url(#clip020)" d="M100.76 752.641 Q97.1493 752.641 95.3206 756.206 Q93.515 759.748 93.515 766.877 Q93.515 773.984 95.3206 777.548 Q97.1493 781.09 100.76 781.09 Q104.395 781.09 106.2 777.548 Q108.029 773.984 108.029 766.877 Q108.029 759.748 106.2 756.206 Q104.395 752.641 100.76 752.641 M100.76 748.937 Q106.571 748.937 109.626 753.544 Q112.705 758.127 112.705 766.877 Q112.705 775.604 109.626 780.21 Q106.571 784.794 100.76 784.794 Q94.9502 784.794 91.8715 780.21 Q88.816 775.604 88.816 766.877 Q88.816 758.127 91.8715 753.544 Q94.9502 748.937 100.76 748.937 Z" fill="#000000" fill-rule="nonzero" fill-opacity="1" /><path clip-path="url(#clip020)" d="M120.922 778.243 L125.807 778.243 L125.807 784.122 L120.922 784.122 L120.922 778.243 Z" fill="#000000" fill-rule="nonzero" fill-opacity="1" /><path clip-path="url(#clip020)" d="M145.992 752.641 Q142.381 752.641 140.552 756.206 Q138.746 759.748 138.746 766.877 Q138.746 773.984 140.552 777.548 Q142.381 781.09 145.992 781.09 Q149.626 781.09 151.431 777.548 Q153.26 773.984 153.26 766.877 Q153.26 759.748 151.431 756.206 Q149.626 752.641 145.992 752.641 M145.992 748.937 Q151.802 748.937 154.857 753.544 Q157.936 758.127 157.936 766.877 Q157.936 775.604 154.857 780.21 Q151.802 784.794 145.992 784.794 Q140.181 784.794 137.103 780.21 Q134.047 775.604 134.047 766.877 Q134.047 758.127 137.103 753.544 Q140.181 748.937 145.992 748.937 Z" fill="#000000" fill-rule="nonzero" fill-opacity="1" /><path clip-path="url(#clip020)" d="M101.756 413.204 Q98.1447 413.204 96.316 416.769 Q94.5104 420.31 94.5104 427.44 Q94.5104 434.546 96.316 438.111 Q98.1447 441.653 101.756 441.653 Q105.39 441.653 107.196 438.111 Q109.024 434.546 109.024 427.44 Q109.024 420.31 107.196 416.769 Q105.39 413.204 101.756 413.204 M101.756 409.5 Q107.566 409.5 110.621 414.107 Q113.7 418.69 113.7 427.44 Q113.7 436.167 110.621 440.773 Q107.566 445.356 101.756 445.356 Q95.9456 445.356 92.8669 440.773 Q89.8114 436.167 89.8114 427.44 Q89.8114 418.69 92.8669 414.107 Q95.9456 409.5 101.756 409.5 Z" fill="#000000" fill-rule="nonzero" fill-opacity="1" /><path clip-path="url(#clip020)" d="M121.918 438.805 L126.802 438.805 L126.802 444.685 L121.918 444.685 L121.918 438.805 Z" fill="#000000" fill-rule="nonzero" fill-opacity="1" /><path clip-path="url(#clip020)" d="M137.033 410.125 L155.39 410.125 L155.39 414.06 L141.316 414.06 L141.316 422.532 Q142.334 422.185 143.353 422.023 Q144.371 421.838 145.39 421.838 Q151.177 421.838 154.556 425.009 Q157.936 428.181 157.936 433.597 Q157.936 439.176 154.464 442.278 Q150.992 445.356 144.672 445.356 Q142.496 445.356 140.228 444.986 Q137.982 444.616 135.575 443.875 L135.575 439.176 Q137.658 440.31 139.881 440.866 Q142.103 441.421 144.58 441.421 Q148.584 441.421 150.922 439.315 Q153.26 437.208 153.26 433.597 Q153.26 429.986 150.922 427.88 Q148.584 425.773 144.58 425.773 Q142.705 425.773 140.83 426.19 Q138.978 426.606 137.033 427.486 L137.033 410.125 Z" fill="#000000" fill-rule="nonzero" fill-opacity="1" /><path clip-path="url(#clip020)" d="M91.5706 101.313 L99.2095 101.313 L99.2095 74.9469 L90.8993 76.6136 L90.8993 72.3543 L99.1632 70.6877 L103.839 70.6877 L103.839 101.313 L111.478 101.313 L111.478 105.248 L91.5706 105.248 L91.5706 101.313 Z" fill="#000000" fill-rule="nonzero" fill-opacity="1" /><path clip-path="url(#clip020)" d="M120.922 99.3681 L125.807 99.3681 L125.807 105.248 L120.922 105.248 L120.922 99.3681 Z" fill="#000000" fill-rule="nonzero" fill-opacity="1" /><path clip-path="url(#clip020)" d="M145.992 73.7664 Q142.381 73.7664 140.552 77.3312 Q138.746 80.8728 138.746 88.0024 Q138.746 95.1088 140.552 98.6736 Q142.381 102.215 145.992 102.215 Q149.626 102.215 151.431 98.6736 Q153.26 95.1088 153.26 88.0024 Q153.26 80.8728 151.431 77.3312 Q149.626 73.7664 145.992 73.7664 M145.992 70.0627 Q151.802 70.0627 154.857 74.6691 Q157.936 79.2524 157.936 88.0024 Q157.936 96.7292 154.857 101.336 Q151.802 105.919 145.992 105.919 Q140.181 105.919 137.103 101.336 Q134.047 96.7292 134.047 88.0024 Q134.047 79.2524 137.103 74.6691 Q140.181 70.0627 145.992 70.0627 Z" fill="#000000" fill-rule="nonzero" fill-opacity="1" /><path clip-path="url(#clip022)" d="M673.674 766.842 L673.674 98.2813 L913.543 98.2813 L913.543 766.842 L913.543 766.842 L913.543 766.842 L673.674 766.842 L673.674 766.842  Z" fill="#191970" fill-rule="evenodd" fill-opacity="1"/>
<polyline clip-path="url(#clip022)" style="stroke:#000000; stroke-linecap:round; stroke-linejoin:round; stroke-width:4; stroke-opacity:1; fill:none" points="673.674,766.842 673.674,98.2813 913.543,98.2813 913.543,766.842 "/>
<path clip-path="url(#clip022)" d="M193.936 766.842 L193.936 534.654 L433.805 534.654 L433.805 766.842 L433.805 766.842 L433.805 766.842 L193.936 766.842 L193.936 766.842  Z" fill="#191970" fill-rule="evenodd" fill-opacity="0.673648"/>
<polyline clip-path="url(#clip022)" style="stroke:#000000; stroke-linecap:round; stroke-linejoin:round; stroke-width:4; stroke-opacity:1; fill:none" points="193.936,766.842 193.936,534.654 433.805,534.654 433.805,766.842 "/>
<path clip-path="url(#clip022)" d="M433.805 766.842 L433.805 178.92 L673.674 178.92 L673.674 766.842 L673.674 766.842 L673.674 766.842 L433.805 766.842 L433.805 766.842  Z" fill="#191970" fill-rule="evenodd" fill-opacity="0.939693"/>
<polyline clip-path="url(#clip022)" style="stroke:#000000; stroke-linecap:round; stroke-linejoin:round; stroke-width:4; stroke-opacity:1; fill:none" points="433.805,766.842 433.805,178.92 673.674,178.92 673.674,766.842 "/>
<path clip-path="url(#clip022)" d="M1633.15 766.842 L1633.15 1435.4 L1873.02 1435.4 L1873.02 766.842 L1873.02 766.842 L1873.02 766.842 L1633.15 766.842 L1633.15 766.842  Z" fill="#191970" fill-rule="evenodd" fill-opacity="0"/>
<polyline clip-path="url(#clip022)" style="stroke:#000000; stroke-linecap:round; stroke-linejoin:round; stroke-width:4; stroke-opacity:1; fill:none" points="1633.15,766.842 1633.15,1435.4 1873.02,1435.4 1873.02,766.842 "/>
<path clip-path="url(#clip022)" d="M1873.02 766.842 L1873.02 1354.77 L2112.89 1354.77 L2112.89 766.842 L2112.89 766.842 L2112.89 766.842 L1873.02 766.842 L1873.02 766.842  Z" fill="#191970" fill-rule="evenodd" fill-opacity="0.0603074"/>
<polyline clip-path="url(#clip022)" style="stroke:#000000; stroke-linecap:round; stroke-linejoin:round; stroke-width:4; stroke-opacity:1; fill:none" points="1873.02,766.842 1873.02,1354.77 2112.89,1354.77 2112.89,766.842 "/>
<path clip-path="url(#clip022)" d="M1153.41 766.842 L1153.41 766.842 L1393.28 766.842 L1393.28 766.842 L1393.28 766.842 L1393.28 766.842 L1153.41 766.842 L1153.41 766.842  Z" fill="#191970" fill-rule="evenodd" fill-opacity="0.5"/>
<polyline clip-path="url(#clip022)" style="stroke:#000000; stroke-linecap:round; stroke-linejoin:round; stroke-width:4; stroke-opacity:1; fill:none" points="1153.41,766.842 1153.41,766.842 1393.28,766.842 1393.28,766.842 "/>
<path clip-path="url(#clip022)" d="M913.543 766.842 L913.543 330.47 L1153.41 330.47 L1153.41 766.842 L1153.41 766.842 L1153.41 766.842 L913.543 766.842 L913.543 766.842  Z" fill="#191970" fill-rule="evenodd" fill-opacity="0.826352"/>
<polyline clip-path="url(#clip022)" style="stroke:#000000; stroke-linecap:round; stroke-linejoin:round; stroke-width:4; stroke-opacity:1; fill:none" points="913.543,766.842 913.543,330.47 1153.41,330.47 1153.41,766.842 "/>
<path clip-path="url(#clip022)" d="M1393.28 766.842 L1393.28 1203.21 L1633.15 1203.21 L1633.15 766.842 L1633.15 766.842 L1633.15 766.842 L1393.28 766.842 L1393.28 766.842  Z" fill="#191970" fill-rule="evenodd" fill-opacity="0.173648"/>
<polyline clip-path="url(#clip022)" style="stroke:#000000; stroke-linecap:round; stroke-linejoin:round; stroke-width:4; stroke-opacity:1; fill:none" points="1393.28,766.842 1393.28,1203.21 1633.15,1203.21 1633.15,766.842 "/>
<path clip-path="url(#clip022)" d="M2112.89 766.842 L2112.89 999.031 L2352.76 999.031 L2352.76 766.842 L2352.76 766.842 L2352.76 766.842 L2112.89 766.842 L2112.89 766.842  Z" fill="#191970" fill-rule="evenodd" fill-opacity="0.326352"/>
<polyline clip-path="url(#clip022)" style="stroke:#000000; stroke-linecap:round; stroke-linejoin:round; stroke-width:4; stroke-opacity:1; fill:none" points="2112.89,766.842 2112.89,999.031 2352.76,999.031 2352.76,766.842 "/>
<polyline clip-path="url(#clip022)" style="stroke:#ff0000; stroke-linecap:round; stroke-linejoin:round; stroke-width:12; stroke-opacity:1; fill:none" points="193.936,766.842 200.964,752.958 207.991,739.079 240.481,675.158 272.971,612.055 305.461,550.336 337.951,490.551 357.476,455.777 377.001,422.007 396.526,389.35 416.051,357.912 432.559,332.358 449.068,307.807 465.576,284.315 482.084,261.937 500.016,238.95 517.949,217.401 535.882,197.348 553.814,178.846 570.346,163.206 586.879,148.964 603.411,136.152 619.943,124.8 637.667,114.28 655.392,105.497 673.116,98.4736 690.84,93.2282 711.375,89.3926 731.911,87.9763 752.446,88.9842 772.981,92.4129 791.231,97.4816 809.48,104.438 827.73,113.263 845.979,123.932 861.982,134.78 877.985,147 893.988,160.564 909.991,175.443 927.439,193.125 944.886,212.287 962.334,232.878 979.782,254.846 997.333,278.276 1014.88,302.981 1032.44,328.896 1049.99,355.953 1069.39,387.114 1088.8,419.485 1108.2,452.964 1127.61,487.444 1164.54,555.425 1201.46,625.845 1278.25,776.539 1342.9,903.325 1382.36,978.634 1421.82,1051.15 1439.89,1083.17 1457.96,1114.32 1476.04,1144.5 1494.11,1173.64 1510.81,1199.56 1527.5,1224.45 1544.19,1248.26 1560.88,1270.94 1577.79,1292.7 1594.7,1313.18 1611.61,1332.35 1628.52,1350.14 1647.47,1368.4 1666.42,1384.83 1685.37,1399.38 1704.32,1412.01 1721.5,1421.76 1738.67,1429.87 1755.84,1436.33 1773.01,1441.11 1792.67,1444.52 1812.33,1445.72 1831.99,1444.69 1851.66,1441.44 1869.86,1436.46 1888.06,1429.6 1906.27,1420.88 1924.47,1410.33 1942.42,1398.16 1960.37,1384.27 1978.32,1368.69 1996.26,1351.47 2013.69,1333.22 2031.11,1313.52 2048.54,1292.41 2065.96,1269.95 2083.83,1245.59 2101.69,1219.93 2119.55,1193.04 2137.42,1165 2156.99,1133.06 2176.56,1099.92 2196.13,1065.7 2215.7,1030.51 2272.56,923.854 2329.43,812.904 2341.09,789.887 2352.76,766.842 "/>
</svg>
