<?xml version="1.0" encoding="utf-8"?>
<svg xmlns="http://www.w3.org/2000/svg" xmlns:xlink="http://www.w3.org/1999/xlink" width="600" height="400" viewBox="0 0 2400 1600">
<defs>
  <clipPath id="clip790">
    <rect x="0" y="0" width="2400" height="1600"/>
  </clipPath>
</defs>
<path clip-path="url(#clip790)" d="M0 1600 L2400 1600 L2400 0 L0 0  Z" fill="#ffffff" fill-rule="evenodd" fill-opacity="1"/>
<defs>
  <clipPath id="clip791">
    <rect x="480" y="0" width="1681" height="1600"/>
  </clipPath>
</defs>
<path clip-path="url(#clip790)" d="M147.478 1486.45 L2352.76 1486.45 L2352.76 47.2441 L147.478 47.2441  Z" fill="#ffffff" fill-rule="evenodd" fill-opacity="1"/>
<defs>
  <clipPath id="clip792">
    <rect x="147" y="47" width="2206" height="1440"/>
  </clipPath>
</defs>
<polyline clip-path="url(#clip792)" style="stroke:#000000; stroke-linecap:round; stroke-linejoin:round; stroke-width:2; stroke-opacity:0.1; fill:none" points="209.891,1486.45 209.891,47.2441 "/>
<polyline clip-path="url(#clip792)" style="stroke:#000000; stroke-linecap:round; stroke-linejoin:round; stroke-width:2; stroke-opacity:0.1; fill:none" points="730.004,1486.45 730.004,47.2441 "/>
<polyline clip-path="url(#clip792)" style="stroke:#000000; stroke-linecap:round; stroke-linejoin:round; stroke-width:2; stroke-opacity:0.1; fill:none" points="1250.12,1486.45 1250.12,47.2441 "/>
<polyline clip-path="url(#clip792)" style="stroke:#000000; stroke-linecap:round; stroke-linejoin:round; stroke-width:2; stroke-opacity:0.1; fill:none" points="1770.23,1486.45 1770.23,47.2441 "/>
<polyline clip-path="url(#clip792)" style="stroke:#000000; stroke-linecap:round; stroke-linejoin:round; stroke-width:2; stroke-opacity:0.1; fill:none" points="2290.34,1486.45 2290.34,47.2441 "/>
<polyline clip-path="url(#clip790)" style="stroke:#000000; stroke-linecap:round; stroke-linejoin:round; stroke-width:4; stroke-opacity:1; fill:none" points="147.478,1486.45 2352.76,1486.45 "/>
<polyline clip-path="url(#clip790)" style="stroke:#000000; stroke-linecap:round; stroke-linejoin:round; stroke-width:4; stroke-opacity:1; fill:none" points="209.891,1486.45 209.891,1467.55 "/>
<polyline clip-path="url(#clip790)" style="stroke:#000000; stroke-linecap:round; stroke-linejoin:round; stroke-width:4; stroke-opacity:1; fill:none" points="730.004,1486.45 730.004,1467.55 "/>
<polyline clip-path="url(#clip790)" style="stroke:#000000; stroke-linecap:round; stroke-linejoin:round; stroke-width:4; stroke-opacity:1; fill:none" points="1250.12,1486.45 1250.12,1467.55 "/>
<polyline clip-path="url(#clip790)" style="stroke:#000000; stroke-linecap:round; stroke-linejoin:round; stroke-width:4; stroke-opacity:1; fill:none" points="1770.23,1486.45 1770.23,1467.55 "/>
<polyline clip-path="url(#clip790)" style="stroke:#000000; stroke-linecap:round; stroke-linejoin:round; stroke-width:4; stroke-opacity:1; fill:none" points="2290.34,1486.45 2290.34,1467.55 "/>
<path clip-path="url(#clip790)" d="M209.891 1517.37 Q206.28 1517.37 204.452 1520.93 Q202.646 1524.47 202.646 1531.6 Q202.646 1538.71 204.452 1542.27 Q206.28 1545.82 209.891 1545.82 Q213.526 1545.82 215.331 1542.27 Q217.16 1538.71 217.16 1531.6 Q217.16 1524.47 215.331 1520.93 Q213.526 1517.37 209.891 1517.37 M209.891 1513.66 Q215.702 1513.66 218.757 1518.27 Q221.836 1522.85 221.836 1531.6 Q221.836 1540.33 218.757 1544.94 Q215.702 1549.52 209.891 1549.52 Q204.081 1549.52 201.003 1544.94 Q197.947 1540.33 197.947 1531.6 Q197.947 1522.85 201.003 1518.27 Q204.081 1513.66 209.891 1513.66 Z" fill="#000000" fill-rule="nonzero" fill-opacity="1" /><path clip-path="url(#clip790)" d="M720.386 1544.91 L728.025 1544.91 L728.025 1518.55 L719.715 1520.21 L719.715 1515.95 L727.979 1514.29 L732.655 1514.29 L732.655 1544.91 L740.293 1544.91 L740.293 1548.85 L720.386 1548.85 L720.386 1544.91 Z" fill="#000000" fill-rule="nonzero" fill-opacity="1" /><path clip-path="url(#clip790)" d="M1244.77 1544.91 L1261.09 1544.91 L1261.09 1548.85 L1239.14 1548.85 L1239.14 1544.91 Q1241.81 1542.16 1246.39 1537.53 Q1251 1532.88 1252.18 1531.53 Q1254.42 1529.01 1255.3 1527.27 Q1256.2 1525.51 1256.2 1523.82 Q1256.2 1521.07 1254.26 1519.33 Q1252.34 1517.6 1249.24 1517.6 Q1247.04 1517.6 1244.58 1518.36 Q1242.15 1519.13 1239.38 1520.68 L1239.38 1515.95 Q1242.2 1514.82 1244.65 1514.24 Q1247.11 1513.66 1249.14 1513.66 Q1254.52 1513.66 1257.71 1516.35 Q1260.9 1519.03 1260.9 1523.52 Q1260.9 1525.65 1260.09 1527.57 Q1259.31 1529.47 1257.2 1532.07 Q1256.62 1532.74 1253.52 1535.95 Q1250.42 1539.15 1244.77 1544.91 Z" fill="#000000" fill-rule="nonzero" fill-opacity="1" /><path clip-path="url(#clip790)" d="M1774.48 1530.21 Q1777.83 1530.93 1779.71 1533.2 Q1781.61 1535.47 1781.61 1538.8 Q1781.61 1543.92 1778.09 1546.72 Q1774.57 1549.52 1768.09 1549.52 Q1765.91 1549.52 1763.6 1549.08 Q1761.31 1548.66 1758.85 1547.81 L1758.85 1543.29 Q1760.8 1544.43 1763.11 1545.01 Q1765.43 1545.58 1767.95 1545.58 Q1772.35 1545.58 1774.64 1543.85 Q1776.95 1542.11 1776.95 1538.8 Q1776.95 1535.75 1774.8 1534.03 Q1772.67 1532.3 1768.85 1532.3 L1764.82 1532.3 L1764.82 1528.45 L1769.04 1528.45 Q1772.49 1528.45 1774.32 1527.09 Q1776.14 1525.7 1776.14 1523.11 Q1776.14 1520.45 1774.25 1519.03 Q1772.37 1517.6 1768.85 1517.6 Q1766.93 1517.6 1764.73 1518.01 Q1762.53 1518.43 1759.89 1519.31 L1759.89 1515.14 Q1762.56 1514.4 1764.87 1514.03 Q1767.21 1513.66 1769.27 1513.66 Q1774.59 1513.66 1777.69 1516.09 Q1780.8 1518.5 1780.8 1522.62 Q1780.8 1525.49 1779.15 1527.48 Q1777.51 1529.45 1774.48 1530.21 Z" fill="#000000" fill-rule="nonzero" fill-opacity="1" /><path clip-path="url(#clip790)" d="M2293.35 1518.36 L2281.55 1536.81 L2293.35 1536.81 L2293.35 1518.36 M2292.12 1514.29 L2298 1514.29 L2298 1536.81 L2302.93 1536.81 L2302.93 1540.7 L2298 1540.7 L2298 1548.85 L2293.35 1548.85 L2293.35 1540.7 L2277.75 1540.7 L2277.75 1536.19 L2292.12 1514.29 Z" fill="#000000" fill-rule="nonzero" fill-opacity="1" /><polyline clip-path="url(#clip792)" style="stroke:#000000; stroke-linecap:round; stroke-linejoin:round; stroke-width:2; stroke-opacity:0.1; fill:none" points="147.478,1445.72 2352.76,1445.72 "/>
<polyline clip-path="url(#clip792)" style="stroke:#000000; stroke-linecap:round; stroke-linejoin:round; stroke-width:2; stroke-opacity:0.1; fill:none" points="147.478,1114.56 2352.76,1114.56 "/>
<polyline clip-path="url(#clip792)" style="stroke:#000000; stroke-linecap:round; stroke-linejoin:round; stroke-width:2; stroke-opacity:0.1; fill:none" points="147.478,783.404 2352.76,783.404 "/>
<polyline clip-path="url(#clip792)" style="stroke:#000000; stroke-linecap:round; stroke-linejoin:round; stroke-width:2; stroke-opacity:0.1; fill:none" points="147.478,452.248 2352.76,452.248 "/>
<polyline clip-path="url(#clip792)" style="stroke:#000000; stroke-linecap:round; stroke-linejoin:round; stroke-width:2; stroke-opacity:0.1; fill:none" points="147.478,121.092 2352.76,121.092 "/>
<polyline clip-path="url(#clip790)" style="stroke:#000000; stroke-linecap:round; stroke-linejoin:round; stroke-width:4; stroke-opacity:1; fill:none" points="147.478,1486.45 147.478,47.2441 "/>
<polyline clip-path="url(#clip790)" style="stroke:#000000; stroke-linecap:round; stroke-linejoin:round; stroke-width:4; stroke-opacity:1; fill:none" points="147.478,1445.72 166.376,1445.72 "/>
<polyline clip-path="url(#clip790)" style="stroke:#000000; stroke-linecap:round; stroke-linejoin:round; stroke-width:4; stroke-opacity:1; fill:none" points="147.478,1114.56 166.376,1114.56 "/>
<polyline clip-path="url(#clip790)" style="stroke:#000000; stroke-linecap:round; stroke-linejoin:round; stroke-width:4; stroke-opacity:1; fill:none" points="147.478,783.404 166.376,783.404 "/>
<polyline clip-path="url(#clip790)" style="stroke:#000000; stroke-linecap:round; stroke-linejoin:round; stroke-width:4; stroke-opacity:1; fill:none" points="147.478,452.248 166.376,452.248 "/>
<polyline clip-path="url(#clip790)" style="stroke:#000000; stroke-linecap:round; stroke-linejoin:round; stroke-width:4; stroke-opacity:1; fill:none" points="147.478,121.092 166.376,121.092 "/>
<path clip-path="url(#clip790)" d="M50.9921 1446.17 L80.6679 1446.17 L80.6679 1450.1 L50.9921 1450.1 L50.9921 1446.17 Z" fill="#000000" fill-rule="nonzero" fill-opacity="1" /><path clip-path="url(#clip790)" d="M91.5706 1459.06 L99.2095 1459.06 L99.2095 1432.69 L90.8993 1434.36 L90.8993 1430.1 L99.1632 1428.44 L103.839 1428.44 L103.839 1459.06 L111.478 1459.06 L111.478 1463 L91.5706 1463 L91.5706 1459.06 Z" fill="#000000" fill-rule="nonzero" fill-opacity="1" /><path clip-path="url(#clip790)" d="M99.5335 1100.36 Q95.9224 1100.36 94.0937 1103.92 Q92.2882 1107.46 92.2882 1114.59 Q92.2882 1121.7 94.0937 1125.27 Q95.9224 1128.81 99.5335 1128.81 Q103.168 1128.81 104.973 1125.27 Q106.802 1121.7 106.802 1114.59 Q106.802 1107.46 104.973 1103.92 Q103.168 1100.36 99.5335 1100.36 M99.5335 1096.65 Q105.344 1096.65 108.399 1101.26 Q111.478 1105.84 111.478 1114.59 Q111.478 1123.32 108.399 1127.93 Q105.344 1132.51 99.5335 1132.51 Q93.7234 1132.51 90.6447 1127.93 Q87.5892 1123.32 87.5892 1114.59 Q87.5892 1105.84 90.6447 1101.26 Q93.7234 1096.65 99.5335 1096.65 Z" fill="#000000" fill-rule="nonzero" fill-opacity="1" /><path clip-path="url(#clip790)" d="M91.5706 796.749 L99.2095 796.749 L99.2095 770.383 L90.8993 772.05 L90.8993 767.79 L99.1632 766.124 L103.839 766.124 L103.839 796.749 L111.478 796.749 L111.478 800.684 L91.5706 800.684 L91.5706 796.749 Z" fill="#000000" fill-rule="nonzero" fill-opacity="1" /><path clip-path="url(#clip790)" d="M95.1586 465.593 L111.478 465.593 L111.478 469.528 L89.5336 469.528 L89.5336 465.593 Q92.1956 462.838 96.7789 458.208 Q101.385 453.556 102.566 452.213 Q104.811 449.69 105.691 447.954 Q106.594 446.195 106.594 444.505 Q106.594 441.75 104.649 440.014 Q102.728 438.278 99.6261 438.278 Q97.4271 438.278 94.9734 439.042 Q92.5428 439.806 89.7651 441.357 L89.7651 436.634 Q92.5891 435.5 95.0428 434.922 Q97.4965 434.343 99.5335 434.343 Q104.904 434.343 108.098 437.028 Q111.293 439.713 111.293 444.204 Q111.293 446.334 110.483 448.255 Q109.696 450.153 107.589 452.746 Q107.01 453.417 103.909 456.634 Q100.807 459.829 95.1586 465.593 Z" fill="#000000" fill-rule="nonzero" fill-opacity="1" /><path clip-path="url(#clip790)" d="M104.348 119.738 Q107.705 120.455 109.58 122.724 Q111.478 124.992 111.478 128.326 Q111.478 133.441 107.959 136.242 Q104.441 139.043 97.9595 139.043 Q95.7836 139.043 93.4688 138.603 Q91.1771 138.187 88.7234 137.33 L88.7234 132.816 Q90.6678 133.951 92.9826 134.529 Q95.2974 135.108 97.8206 135.108 Q102.219 135.108 104.51 133.372 Q106.825 131.636 106.825 128.326 Q106.825 125.27 104.672 123.557 Q102.543 121.821 98.7234 121.821 L94.6956 121.821 L94.6956 117.978 L98.9085 117.978 Q102.358 117.978 104.186 116.613 Q106.015 115.224 106.015 112.631 Q106.015 109.969 104.117 108.557 Q102.242 107.122 98.7234 107.122 Q96.8021 107.122 94.603 107.539 Q92.4039 107.955 89.7651 108.835 L89.7651 104.668 Q92.4271 103.928 94.7419 103.557 Q97.0798 103.187 99.14 103.187 Q104.464 103.187 107.566 105.617 Q110.668 108.025 110.668 112.145 Q110.668 115.016 109.024 117.006 Q107.381 118.974 104.348 119.738 Z" fill="#000000" fill-rule="nonzero" fill-opacity="1" /><polyline clip-path="url(#clip792)" style="stroke:#009af9; stroke-linecap:round; stroke-linejoin:round; stroke-width:4; stroke-opacity:1; fill:none" points="209.891,1114.56 730.004,783.404 1250.12,617.826 1770.23,485.363 2290.34,419.132 "/>
<polyline clip-path="url(#clip792)" style="stroke:#000000; stroke-linecap:round; stroke-linejoin:round; stroke-width:4; stroke-opacity:1; fill:none" points="209.891,1445.72 209.891,783.404 "/>
<polyline clip-path="url(#clip792)" style="stroke:#000000; stroke-linecap:round; stroke-linejoin:round; stroke-width:4; stroke-opacity:1; fill:none" points="730.004,1114.56 730.004,452.248 "/>
<polyline clip-path="url(#clip792)" style="stroke:#000000; stroke-linecap:round; stroke-linejoin:round; stroke-width:4; stroke-opacity:1; fill:none" points="1250.12,948.982 1250.12,286.67 "/>
<polyline clip-path="url(#clip792)" style="stroke:#000000; stroke-linecap:round; stroke-linejoin:round; stroke-width:4; stroke-opacity:1; fill:none" points="1770.23,816.519 1770.23,154.207 "/>
<polyline clip-path="url(#clip792)" style="stroke:#000000; stroke-linecap:round; stroke-linejoin:round; stroke-width:4; stroke-opacity:1; fill:none" points="2290.34,750.288 2290.34,87.9763 "/>
<line clip-path="url(#clip792)" x1="225.891" y1="1445.72" x2="193.891" y2="1445.72" style="stroke:#000000; stroke-width:4; stroke-opacity:1"/>
<line clip-path="url(#clip792)" x1="225.891" y1="783.404" x2="193.891" y2="783.404" style="stroke:#000000; stroke-width:4; stroke-opacity:1"/>
<line clip-path="url(#clip792)" x1="746.004" y1="1114.56" x2="714.004" y2="1114.56" style="stroke:#000000; stroke-width:4; stroke-opacity:1"/>
<line clip-path="url(#clip792)" x1="746.004" y1="452.248" x2="714.004" y2="452.248" style="stroke:#000000; stroke-width:4; stroke-opacity:1"/>
<line clip-path="url(#clip792)" x1="1266.12" y1="948.982" x2="1234.12" y2="948.982" style="stroke:#000000; stroke-width:4; stroke-opacity:1"/>
<line clip-path="url(#clip792)" x1="1266.12" y1="286.67" x2="1234.12" y2="286.67" style="stroke:#000000; stroke-width:4; stroke-opacity:1"/>
<line clip-path="url(#clip792)" x1="1786.23" y1="816.519" x2="1754.23" y2="816.519" style="stroke:#000000; stroke-width:4; stroke-opacity:1"/>
<line clip-path="url(#clip792)" x1="1786.23" y1="154.207" x2="1754.23" y2="154.207" style="stroke:#000000; stroke-width:4; stroke-opacity:1"/>
<line clip-path="url(#clip792)" x1="2306.34" y1="750.288" x2="2274.34" y2="750.288" style="stroke:#000000; stroke-width:4; stroke-opacity:1"/>
<line clip-path="url(#clip792)" x1="2306.34" y1="87.9763" x2="2274.34" y2="87.9763" style="stroke:#000000; stroke-width:4; stroke-opacity:1"/>
<path clip-path="url(#clip790)" d="M220.987 198.898 L493.945 198.898 L493.945 95.2176 L220.987 95.2176  Z" fill="#ffffff" fill-rule="evenodd" fill-opacity="1"/>
<polyline clip-path="url(#clip790)" style="stroke:#000000; stroke-linecap:round; stroke-linejoin:round; stroke-width:4; stroke-opacity:1; fill:none" points="220.987,198.898 493.945,198.898 493.945,95.2176 220.987,95.2176 220.987,198.898 "/>
<polyline clip-path="url(#clip790)" style="stroke:#009af9; stroke-linecap:round; stroke-linejoin:round; stroke-width:4; stroke-opacity:1; fill:none" points="245.49,147.058 392.509,147.058 "/>
<path clip-path="url(#clip790)" d="M430.854 166.745 Q429.049 171.375 427.336 172.787 Q425.623 174.199 422.753 174.199 L419.35 174.199 L419.35 170.634 L421.85 170.634 Q423.609 170.634 424.581 169.8 Q425.554 168.967 426.734 165.865 L427.498 163.921 L417.012 138.412 L421.526 138.412 L429.628 158.689 L437.729 138.412 L442.243 138.412 L430.854 166.745 Z" fill="#000000" fill-rule="nonzero" fill-opacity="1" /><path clip-path="url(#clip790)" d="M449.535 160.402 L457.174 160.402 L457.174 134.037 L448.864 135.703 L448.864 131.444 L457.127 129.778 L461.803 129.778 L461.803 160.402 L469.442 160.402 L469.442 164.338 L449.535 164.338 L449.535 160.402 Z" fill="#000000" fill-rule="nonzero" fill-opacity="1" /></svg>
