<?xml version="1.0" encoding="utf-8"?>
<svg xmlns="http://www.w3.org/2000/svg" xmlns:xlink="http://www.w3.org/1999/xlink" width="600" height="400" viewBox="0 0 2400 1600">
<defs>
  <clipPath id="clip880">
    <rect x="0" y="0" width="2400" height="1600"/>
  </clipPath>
</defs>
<path clip-path="url(#clip880)" d="M0 1600 L2400 1600 L2400 0 L0 0  Z" fill="#ffffff" fill-rule="evenodd" fill-opacity="1"/>
<defs>
  <clipPath id="clip881">
    <rect x="480" y="0" width="1681" height="1600"/>
  </clipPath>
</defs>
<path clip-path="url(#clip880)" d="M110.881 1486.45 L2352.76 1486.45 L2352.76 47.2441 L110.881 47.2441  Z" fill="#ffffff" fill-rule="evenodd" fill-opacity="1"/>
<defs>
  <clipPath id="clip882">
    <rect x="110" y="47" width="2243" height="1440"/>
  </clipPath>
</defs>
<polyline clip-path="url(#clip882)" style="stroke:#000000; stroke-linecap:round; stroke-linejoin:round; stroke-width:2; stroke-opacity:0.1; fill:none" points="174.33,1486.45 174.33,47.2441 "/>
<polyline clip-path="url(#clip882)" style="stroke:#000000; stroke-linecap:round; stroke-linejoin:round; stroke-width:2; stroke-opacity:0.1; fill:none" points="879.322,1486.45 879.322,47.2441 "/>
<polyline clip-path="url(#clip882)" style="stroke:#000000; stroke-linecap:round; stroke-linejoin:round; stroke-width:2; stroke-opacity:0.1; fill:none" points="1584.31,1486.45 1584.31,47.2441 "/>
<polyline clip-path="url(#clip882)" style="stroke:#000000; stroke-linecap:round; stroke-linejoin:round; stroke-width:2; stroke-opacity:0.1; fill:none" points="2289.31,1486.45 2289.31,47.2441 "/>
<polyline clip-path="url(#clip880)" style="stroke:#000000; stroke-linecap:round; stroke-linejoin:round; stroke-width:4; stroke-opacity:1; fill:none" points="110.881,1486.45 2352.76,1486.45 "/>
<polyline clip-path="url(#clip880)" style="stroke:#000000; stroke-linecap:round; stroke-linejoin:round; stroke-width:4; stroke-opacity:1; fill:none" points="174.33,1486.45 174.33,1467.55 "/>
<polyline clip-path="url(#clip880)" style="stroke:#000000; stroke-linecap:round; stroke-linejoin:round; stroke-width:4; stroke-opacity:1; fill:none" points="879.322,1486.45 879.322,1467.55 "/>
<polyline clip-path="url(#clip880)" style="stroke:#000000; stroke-linecap:round; stroke-linejoin:round; stroke-width:4; stroke-opacity:1; fill:none" points="1584.31,1486.45 1584.31,1467.55 "/>
<polyline clip-path="url(#clip880)" style="stroke:#000000; stroke-linecap:round; stroke-linejoin:round; stroke-width:4; stroke-opacity:1; fill:none" points="2289.31,1486.45 2289.31,1467.55 "/>
<path clip-path="url(#clip880)" d="M164.712 1544.91 L172.351 1544.91 L172.351 1518.55 L164.041 1520.21 L164.041 1515.95 L172.305 1514.29 L176.981 1514.29 L176.981 1544.91 L184.619 1544.91 L184.619 1548.85 L164.712 1548.85 L164.712 1544.91 Z" fill="#000000" fill-rule="nonzero" fill-opacity="1" /><path clip-path="url(#clip880)" d="M873.975 1544.91 L890.294 1544.91 L890.294 1548.85 L868.35 1548.85 L868.35 1544.91 Q871.012 1542.16 875.595 1537.53 Q880.202 1532.88 881.382 1531.53 Q883.628 1529.01 884.507 1527.27 Q885.41 1525.51 885.41 1523.82 Q885.41 1521.07 883.466 1519.33 Q881.545 1517.6 878.443 1517.6 Q876.244 1517.6 873.79 1518.36 Q871.359 1519.13 868.582 1520.68 L868.582 1515.95 Q871.406 1514.82 873.859 1514.24 Q876.313 1513.66 878.35 1513.66 Q883.72 1513.66 886.915 1516.35 Q890.109 1519.03 890.109 1523.52 Q890.109 1525.65 889.299 1527.57 Q888.512 1529.47 886.406 1532.07 Q885.827 1532.74 882.725 1535.95 Q879.623 1539.15 873.975 1544.91 Z" fill="#000000" fill-rule="nonzero" fill-opacity="1" /><path clip-path="url(#clip880)" d="M1588.56 1530.21 Q1591.92 1530.93 1593.79 1533.2 Q1595.69 1535.47 1595.69 1538.8 Q1595.69 1543.92 1592.17 1546.72 Q1588.65 1549.52 1582.17 1549.52 Q1580 1549.52 1577.68 1549.08 Q1575.39 1548.66 1572.94 1547.81 L1572.94 1543.29 Q1574.88 1544.43 1577.2 1545.01 Q1579.51 1545.58 1582.03 1545.58 Q1586.43 1545.58 1588.72 1543.85 Q1591.04 1542.11 1591.04 1538.8 Q1591.04 1535.75 1588.89 1534.03 Q1586.76 1532.3 1582.94 1532.3 L1578.91 1532.3 L1578.91 1528.45 L1583.12 1528.45 Q1586.57 1528.45 1588.4 1527.09 Q1590.23 1525.7 1590.23 1523.11 Q1590.23 1520.45 1588.33 1519.03 Q1586.46 1517.6 1582.94 1517.6 Q1581.02 1517.6 1578.82 1518.01 Q1576.62 1518.43 1573.98 1519.31 L1573.98 1515.14 Q1576.64 1514.4 1578.96 1514.03 Q1581.29 1513.66 1583.35 1513.66 Q1588.68 1513.66 1591.78 1516.09 Q1594.88 1518.5 1594.88 1522.62 Q1594.88 1525.49 1593.24 1527.48 Q1591.59 1529.45 1588.56 1530.21 Z" fill="#000000" fill-rule="nonzero" fill-opacity="1" /><path clip-path="url(#clip880)" d="M2292.32 1518.36 L2280.51 1536.81 L2292.32 1536.81 L2292.32 1518.36 M2291.09 1514.29 L2296.97 1514.29 L2296.97 1536.81 L2301.9 1536.81 L2301.9 1540.7 L2296.97 1540.7 L2296.97 1548.85 L2292.32 1548.85 L2292.32 1540.7 L2276.71 1540.7 L2276.71 1536.19 L2291.09 1514.29 Z" fill="#000000" fill-rule="nonzero" fill-opacity="1" /><polyline clip-path="url(#clip882)" style="stroke:#000000; stroke-linecap:round; stroke-linejoin:round; stroke-width:2; stroke-opacity:0.1; fill:none" points="110.881,1445.72 2352.76,1445.72 "/>
<polyline clip-path="url(#clip882)" style="stroke:#000000; stroke-linecap:round; stroke-linejoin:round; stroke-width:2; stroke-opacity:0.1; fill:none" points="110.881,1007.74 2352.76,1007.74 "/>
<polyline clip-path="url(#clip882)" style="stroke:#000000; stroke-linecap:round; stroke-linejoin:round; stroke-width:2; stroke-opacity:0.1; fill:none" points="110.881,569.755 2352.76,569.755 "/>
<polyline clip-path="url(#clip882)" style="stroke:#000000; stroke-linecap:round; stroke-linejoin:round; stroke-width:2; stroke-opacity:0.1; fill:none" points="110.881,131.774 2352.76,131.774 "/>
<polyline clip-path="url(#clip880)" style="stroke:#000000; stroke-linecap:round; stroke-linejoin:round; stroke-width:4; stroke-opacity:1; fill:none" points="110.881,1486.45 110.881,47.2441 "/>
<polyline clip-path="url(#clip880)" style="stroke:#000000; stroke-linecap:round; stroke-linejoin:round; stroke-width:4; stroke-opacity:1; fill:none" points="110.881,1445.72 129.779,1445.72 "/>
<polyline clip-path="url(#clip880)" style="stroke:#000000; stroke-linecap:round; stroke-linejoin:round; stroke-width:4; stroke-opacity:1; fill:none" points="110.881,1007.74 129.779,1007.74 "/>
<polyline clip-path="url(#clip880)" style="stroke:#000000; stroke-linecap:round; stroke-linejoin:round; stroke-width:4; stroke-opacity:1; fill:none" points="110.881,569.755 129.779,569.755 "/>
<polyline clip-path="url(#clip880)" style="stroke:#000000; stroke-linecap:round; stroke-linejoin:round; stroke-width:4; stroke-opacity:1; fill:none" points="110.881,131.774 129.779,131.774 "/>
<path clip-path="url(#clip880)" d="M62.9365 1431.51 Q59.3254 1431.51 57.4967 1435.08 Q55.6912 1438.62 55.6912 1445.75 Q55.6912 1452.86 57.4967 1456.42 Q59.3254 1459.96 62.9365 1459.96 Q66.5707 1459.96 68.3763 1456.42 Q70.205 1452.86 70.205 1445.75 Q70.205 1438.62 68.3763 1435.08 Q66.5707 1431.51 62.9365 1431.51 M62.9365 1427.81 Q68.7467 1427.81 71.8022 1432.42 Q74.8809 1437 74.8809 1445.75 Q74.8809 1454.48 71.8022 1459.08 Q68.7467 1463.67 62.9365 1463.67 Q57.1264 1463.67 54.0477 1459.08 Q50.9921 1454.48 50.9921 1445.75 Q50.9921 1437 54.0477 1432.42 Q57.1264 1427.81 62.9365 1427.81 Z" fill="#000000" fill-rule="nonzero" fill-opacity="1" /><path clip-path="url(#clip880)" d="M54.9736 1021.08 L62.6124 1021.08 L62.6124 994.714 L54.3023 996.381 L54.3023 992.122 L62.5661 990.455 L67.242 990.455 L67.242 1021.08 L74.8809 1021.08 L74.8809 1025.02 L54.9736 1025.02 L54.9736 1021.08 Z" fill="#000000" fill-rule="nonzero" fill-opacity="1" /><path clip-path="url(#clip880)" d="M58.5615 583.1 L74.8809 583.1 L74.8809 587.035 L52.9366 587.035 L52.9366 583.1 Q55.5986 580.345 60.1819 575.715 Q64.7883 571.063 65.9689 569.72 Q68.2143 567.197 69.0939 565.461 Q69.9967 563.702 69.9967 562.012 Q69.9967 559.257 68.0522 557.521 Q66.1309 555.785 63.0291 555.785 Q60.83 555.785 58.3763 556.549 Q55.9458 557.313 53.168 558.864 L53.168 554.141 Q55.9921 553.007 58.4458 552.428 Q60.8995 551.85 62.9365 551.85 Q68.3068 551.85 71.5013 554.535 Q74.6957 557.22 74.6957 561.711 Q74.6957 563.84 73.8855 565.762 Q73.0985 567.66 70.992 570.252 Q70.4133 570.924 67.3115 574.141 Q64.2096 577.336 58.5615 583.1 Z" fill="#000000" fill-rule="nonzero" fill-opacity="1" /><path clip-path="url(#clip880)" d="M67.7513 130.42 Q71.1078 131.138 72.9827 133.406 Q74.8809 135.675 74.8809 139.008 Q74.8809 144.124 71.3624 146.925 Q67.8439 149.726 61.3624 149.726 Q59.1865 149.726 56.8717 149.286 Q54.5801 148.869 52.1264 148.013 L52.1264 143.499 Q54.0708 144.633 56.3856 145.212 Q58.7004 145.79 61.2236 145.79 Q65.6217 145.79 67.9133 144.054 Q70.2281 142.318 70.2281 139.008 Q70.2281 135.953 68.0754 134.24 Q65.9457 132.503 62.1263 132.503 L58.0986 132.503 L58.0986 128.661 L62.3115 128.661 Q65.7606 128.661 67.5893 127.295 Q69.418 125.906 69.418 123.314 Q69.418 120.652 67.5198 119.24 Q65.6448 117.804 62.1263 117.804 Q60.205 117.804 58.006 118.221 Q55.8069 118.638 53.168 119.517 L53.168 115.351 Q55.8301 114.61 58.1449 114.24 Q60.4828 113.869 62.543 113.869 Q67.867 113.869 70.9689 116.3 Q74.0707 118.707 74.0707 122.828 Q74.0707 125.698 72.4272 127.689 Q70.7837 129.656 67.7513 130.42 Z" fill="#000000" fill-rule="nonzero" fill-opacity="1" /><polyline clip-path="url(#clip882)" style="stroke:#009af9; stroke-linecap:round; stroke-linejoin:round; stroke-width:4; stroke-opacity:1; fill:none" points="174.33,1007.74 879.322,788.745 1584.31,613.553 2289.31,525.957 "/>
<polyline clip-path="url(#clip882)" style="stroke:#000000; stroke-linecap:round; stroke-linejoin:round; stroke-width:4; stroke-opacity:1; fill:none" points="174.33,1445.72 174.33,569.755 "/>
<polyline clip-path="url(#clip882)" style="stroke:#000000; stroke-linecap:round; stroke-linejoin:round; stroke-width:4; stroke-opacity:1; fill:none" points="879.322,1226.73 879.322,350.765 "/>
<polyline clip-path="url(#clip882)" style="stroke:#000000; stroke-linecap:round; stroke-linejoin:round; stroke-width:4; stroke-opacity:1; fill:none" points="1584.31,1051.53 1584.31,175.572 "/>
<polyline clip-path="url(#clip882)" style="stroke:#000000; stroke-linecap:round; stroke-linejoin:round; stroke-width:4; stroke-opacity:1; fill:none" points="2289.31,963.937 2289.31,87.9763 "/>
<line clip-path="url(#clip882)" x1="190.33" y1="1445.72" x2="158.33" y2="1445.72" style="stroke:#000000; stroke-width:4; stroke-opacity:1"/>
<line clip-path="url(#clip882)" x1="190.33" y1="569.755" x2="158.33" y2="569.755" style="stroke:#000000; stroke-width:4; stroke-opacity:1"/>
<line clip-path="url(#clip882)" x1="895.322" y1="1226.73" x2="863.322" y2="1226.73" style="stroke:#000000; stroke-width:4; stroke-opacity:1"/>
<line clip-path="url(#clip882)" x1="895.322" y1="350.765" x2="863.322" y2="350.765" style="stroke:#000000; stroke-width:4; stroke-opacity:1"/>
<line clip-path="url(#clip882)" x1="1600.31" y1="1051.53" x2="1568.31" y2="1051.53" style="stroke:#000000; stroke-width:4; stroke-opacity:1"/>
<line clip-path="url(#clip882)" x1="1600.31" y1="175.572" x2="1568.31" y2="175.572" style="stroke:#000000; stroke-width:4; stroke-opacity:1"/>
<line clip-path="url(#clip882)" x1="2305.31" y1="963.937" x2="2273.31" y2="963.937" style="stroke:#000000; stroke-width:4; stroke-opacity:1"/>
<line clip-path="url(#clip882)" x1="2305.31" y1="87.9763" x2="2273.31" y2="87.9763" style="stroke:#000000; stroke-width:4; stroke-opacity:1"/>
<path clip-path="url(#clip880)" d="M185.61 198.898 L462.228 198.898 L462.228 95.2176 L185.61 95.2176  Z" fill="#ffffff" fill-rule="evenodd" fill-opacity="1"/>
<polyline clip-path="url(#clip880)" style="stroke:#000000; stroke-linecap:round; stroke-linejoin:round; stroke-width:4; stroke-opacity:1; fill:none" points="185.61,198.898 462.228,198.898 462.228,95.2176 185.61,95.2176 185.61,198.898 "/>
<polyline clip-path="url(#clip880)" style="stroke:#009af9; stroke-linecap:round; stroke-linejoin:round; stroke-width:4; stroke-opacity:1; fill:none" points="210.52,147.058 359.978,147.058 "/>
<path clip-path="url(#clip880)" d="M398.73 166.745 Q396.925 171.375 395.212 172.787 Q393.499 174.199 390.629 174.199 L387.226 174.199 L387.226 170.634 L389.726 170.634 Q391.485 170.634 392.457 169.8 Q393.429 168.967 394.61 165.865 L395.374 163.921 L384.888 138.412 L389.402 138.412 L397.504 158.689 L405.605 138.412 L410.119 138.412 L398.73 166.745 Z" fill="#000000" fill-rule="nonzero" fill-opacity="1" /><path clip-path="url(#clip880)" d="M417.411 160.402 L425.05 160.402 L425.05 134.037 L416.74 135.703 L416.74 131.444 L425.003 129.778 L429.679 129.778 L429.679 160.402 L437.318 160.402 L437.318 164.338 L417.411 164.338 L417.411 160.402 Z" fill="#000000" fill-rule="nonzero" fill-opacity="1" /></svg>
