<?xml version="1.0" encoding="utf-8"?>
<svg xmlns="http://www.w3.org/2000/svg" xmlns:xlink="http://www.w3.org/1999/xlink" width="600" height="400" viewBox="0 0 2400 1600">
<defs>
  <clipPath id="clip320">
    <rect x="0" y="0" width="2400" height="1600"/>
  </clipPath>
</defs>
<path clip-path="url(#clip320)" d="M0 1600 L2400 1600 L2400 0 L0 0  Z" fill="#ffffff" fill-rule="evenodd" fill-opacity="1"/>
<defs>
  <clipPath id="clip321">
    <rect x="480" y="0" width="1681" height="1600"/>
  </clipPath>
</defs>
<path clip-path="url(#clip320)" d="M186.274 1474.16 L2352.76 1474.16 L2352.76 47.2441 L186.274 47.2441  Z" fill="#ffffff" fill-rule="evenodd" fill-opacity="1"/>
<defs>
  <clipPath id="clip322">
    <rect x="186" y="47" width="2167" height="1428"/>
  </clipPath>
</defs>
<polyline clip-path="url(#clip322)" style="stroke:#000000; stroke-linecap:round; stroke-linejoin:round; stroke-width:2; stroke-opacity:0.1; fill:none" points="928.873,1474.16 928.873,47.2441 "/>
<polyline clip-path="url(#clip322)" style="stroke:#000000; stroke-linecap:round; stroke-linejoin:round; stroke-width:2; stroke-opacity:0.1; fill:none" points="1950.8,1474.16 1950.8,47.2441 "/>
<polyline clip-path="url(#clip320)" style="stroke:#000000; stroke-linecap:round; stroke-linejoin:round; stroke-width:4; stroke-opacity:1; fill:none" points="186.274,1474.16 2352.76,1474.16 "/>
<polyline clip-path="url(#clip320)" style="stroke:#000000; stroke-linecap:round; stroke-linejoin:round; stroke-width:4; stroke-opacity:1; fill:none" points="928.873,1474.16 928.873,1455.27 "/>
<polyline clip-path="url(#clip320)" style="stroke:#000000; stroke-linecap:round; stroke-linejoin:round; stroke-width:4; stroke-opacity:1; fill:none" points="1950.8,1474.16 1950.8,1455.27 "/>
<path clip-path="url(#clip320)" d="M878.424 1548.29 L886.063 1548.29 L886.063 1521.92 L877.753 1523.59 L877.753 1519.33 L886.017 1517.66 L890.693 1517.66 L890.693 1548.29 L898.331 1548.29 L898.331 1552.22 L878.424 1552.22 L878.424 1548.29 Z" fill="#000000" fill-rule="nonzero" fill-opacity="1" /><path clip-path="url(#clip320)" d="M917.776 1520.74 Q914.165 1520.74 912.336 1524.31 Q910.531 1527.85 910.531 1534.98 Q910.531 1542.09 912.336 1545.65 Q914.165 1549.19 917.776 1549.19 Q921.41 1549.19 923.216 1545.65 Q925.044 1542.09 925.044 1534.98 Q925.044 1527.85 923.216 1524.31 Q921.41 1520.74 917.776 1520.74 M917.776 1517.04 Q923.586 1517.04 926.642 1521.65 Q929.72 1526.23 929.72 1534.98 Q929.72 1543.71 926.642 1548.31 Q923.586 1552.9 917.776 1552.9 Q911.966 1552.9 908.887 1548.31 Q905.831 1543.71 905.831 1534.98 Q905.831 1526.23 908.887 1521.65 Q911.966 1517.04 917.776 1517.04 Z" fill="#000000" fill-rule="nonzero" fill-opacity="1" /><path clip-path="url(#clip320)" d="M929.72 1511.14 L953.832 1511.14 L953.832 1514.34 L929.72 1514.34 L929.72 1511.14 Z" fill="#000000" fill-rule="nonzero" fill-opacity="1" /><path clip-path="url(#clip320)" d="M970.627 1509.26 Q968.069 1509.26 966.565 1511.01 Q965.079 1512.76 965.079 1515.81 Q965.079 1518.83 966.565 1520.6 Q968.069 1522.35 970.627 1522.35 Q973.185 1522.35 974.671 1520.6 Q976.175 1518.83 976.175 1515.81 Q976.175 1512.76 974.671 1511.01 Q973.185 1509.26 970.627 1509.26 M978.169 1497.35 L978.169 1500.82 Q976.74 1500.14 975.273 1499.78 Q973.824 1499.42 972.395 1499.42 Q968.633 1499.42 966.64 1501.96 Q964.665 1504.5 964.383 1509.64 Q965.493 1508 967.166 1507.13 Q968.84 1506.25 970.853 1506.25 Q975.085 1506.25 977.53 1508.83 Q979.993 1511.39 979.993 1515.81 Q979.993 1520.13 977.436 1522.75 Q974.878 1525.36 970.627 1525.36 Q965.756 1525.36 963.179 1521.64 Q960.603 1517.89 960.603 1510.8 Q960.603 1504.14 963.762 1500.19 Q966.922 1496.23 972.245 1496.23 Q973.674 1496.23 975.122 1496.51 Q976.589 1496.79 978.169 1497.35 Z" fill="#000000" fill-rule="nonzero" fill-opacity="1" /><path clip-path="url(#clip320)" d="M1900.68 1548.29 L1908.32 1548.29 L1908.32 1521.92 L1900.01 1523.59 L1900.01 1519.33 L1908.27 1517.66 L1912.95 1517.66 L1912.95 1548.29 L1920.59 1548.29 L1920.59 1552.22 L1900.68 1552.22 L1900.68 1548.29 Z" fill="#000000" fill-rule="nonzero" fill-opacity="1" /><path clip-path="url(#clip320)" d="M1940.03 1520.74 Q1936.42 1520.74 1934.59 1524.31 Q1932.79 1527.85 1932.79 1534.98 Q1932.79 1542.09 1934.59 1545.65 Q1936.42 1549.19 1940.03 1549.19 Q1943.66 1549.19 1945.47 1545.65 Q1947.3 1542.09 1947.3 1534.98 Q1947.3 1527.85 1945.47 1524.31 Q1943.66 1520.74 1940.03 1520.74 M1940.03 1517.04 Q1945.84 1517.04 1948.9 1521.65 Q1951.97 1526.23 1951.97 1534.98 Q1951.97 1543.71 1948.9 1548.31 Q1945.84 1552.9 1940.03 1552.9 Q1934.22 1552.9 1931.14 1548.31 Q1928.09 1543.71 1928.09 1534.98 Q1928.09 1526.23 1931.14 1521.65 Q1934.22 1517.04 1940.03 1517.04 Z" fill="#000000" fill-rule="nonzero" fill-opacity="1" /><path clip-path="url(#clip320)" d="M1951.97 1511.14 L1976.09 1511.14 L1976.09 1514.34 L1951.97 1514.34 L1951.97 1511.14 Z" fill="#000000" fill-rule="nonzero" fill-opacity="1" /><path clip-path="url(#clip320)" d="M1995.8 1509.67 Q1998.52 1510.26 2000.05 1512.1 Q2001.59 1513.94 2001.59 1516.65 Q2001.59 1520.81 1998.73 1523.08 Q1995.87 1525.36 1990.61 1525.36 Q1988.84 1525.36 1986.96 1525 Q1985.1 1524.66 1983.1 1523.97 L1983.1 1520.3 Q1984.68 1521.22 1986.56 1521.69 Q1988.44 1522.16 1990.49 1522.16 Q1994.07 1522.16 1995.93 1520.75 Q1997.81 1519.34 1997.81 1516.65 Q1997.81 1514.17 1996.06 1512.78 Q1994.33 1511.37 1991.23 1511.37 L1987.95 1511.37 L1987.95 1508.24 L1991.38 1508.24 Q1994.18 1508.24 1995.67 1507.13 Q1997.15 1506.01 1997.15 1503.9 Q1997.15 1501.74 1995.61 1500.59 Q1994.09 1499.42 1991.23 1499.42 Q1989.67 1499.42 1987.88 1499.76 Q1986.09 1500.1 1983.95 1500.82 L1983.95 1497.43 Q1986.11 1496.83 1987.99 1496.53 Q1989.89 1496.23 1991.57 1496.23 Q1995.89 1496.23 1998.41 1498.2 Q2000.93 1500.16 2000.93 1503.51 Q2000.93 1505.84 1999.6 1507.45 Q1998.26 1509.05 1995.8 1509.67 Z" fill="#000000" fill-rule="nonzero" fill-opacity="1" /><polyline clip-path="url(#clip322)" style="stroke:#000000; stroke-linecap:round; stroke-linejoin:round; stroke-width:2; stroke-opacity:0.1; fill:none" points="186.274,1435.34 2352.76,1435.34 "/>
<polyline clip-path="url(#clip322)" style="stroke:#000000; stroke-linecap:round; stroke-linejoin:round; stroke-width:2; stroke-opacity:0.1; fill:none" points="186.274,1094.47 2352.76,1094.47 "/>
<polyline clip-path="url(#clip322)" style="stroke:#000000; stroke-linecap:round; stroke-linejoin:round; stroke-width:2; stroke-opacity:0.1; fill:none" points="186.274,753.592 2352.76,753.592 "/>
<polyline clip-path="url(#clip322)" style="stroke:#000000; stroke-linecap:round; stroke-linejoin:round; stroke-width:2; stroke-opacity:0.1; fill:none" points="186.274,412.719 2352.76,412.719 "/>
<polyline clip-path="url(#clip322)" style="stroke:#000000; stroke-linecap:round; stroke-linejoin:round; stroke-width:2; stroke-opacity:0.1; fill:none" points="186.274,71.846 2352.76,71.846 "/>
<polyline clip-path="url(#clip320)" style="stroke:#000000; stroke-linecap:round; stroke-linejoin:round; stroke-width:4; stroke-opacity:1; fill:none" points="186.274,1474.16 186.274,47.2441 "/>
<polyline clip-path="url(#clip320)" style="stroke:#000000; stroke-linecap:round; stroke-linejoin:round; stroke-width:4; stroke-opacity:1; fill:none" points="186.274,1435.34 205.172,1435.34 "/>
<polyline clip-path="url(#clip320)" style="stroke:#000000; stroke-linecap:round; stroke-linejoin:round; stroke-width:4; stroke-opacity:1; fill:none" points="186.274,1094.47 205.172,1094.47 "/>
<polyline clip-path="url(#clip320)" style="stroke:#000000; stroke-linecap:round; stroke-linejoin:round; stroke-width:4; stroke-opacity:1; fill:none" points="186.274,753.592 205.172,753.592 "/>
<polyline clip-path="url(#clip320)" style="stroke:#000000; stroke-linecap:round; stroke-linejoin:round; stroke-width:4; stroke-opacity:1; fill:none" points="186.274,412.719 205.172,412.719 "/>
<polyline clip-path="url(#clip320)" style="stroke:#000000; stroke-linecap:round; stroke-linejoin:round; stroke-width:4; stroke-opacity:1; fill:none" points="186.274,71.846 205.172,71.846 "/>
<path clip-path="url(#clip320)" d="M62.9365 1421.14 Q59.3254 1421.14 57.4967 1424.7 Q55.6912 1428.24 55.6912 1435.37 Q55.6912 1442.48 57.4967 1446.04 Q59.3254 1449.59 62.9365 1449.59 Q66.5707 1449.59 68.3763 1446.04 Q70.205 1442.48 70.205 1435.37 Q70.205 1428.24 68.3763 1424.7 Q66.5707 1421.14 62.9365 1421.14 M62.9365 1417.43 Q68.7467 1417.43 71.8022 1422.04 Q74.8809 1426.62 74.8809 1435.37 Q74.8809 1444.1 71.8022 1448.71 Q68.7467 1453.29 62.9365 1453.29 Q57.1264 1453.29 54.0477 1448.71 Q50.9921 1444.1 50.9921 1435.37 Q50.9921 1426.62 54.0477 1422.04 Q57.1264 1417.43 62.9365 1417.43 Z" fill="#000000" fill-rule="nonzero" fill-opacity="1" /><path clip-path="url(#clip320)" d="M83.0984 1446.74 L87.9827 1446.74 L87.9827 1452.62 L83.0984 1452.62 L83.0984 1446.74 Z" fill="#000000" fill-rule="nonzero" fill-opacity="1" /><path clip-path="url(#clip320)" d="M108.168 1421.14 Q104.557 1421.14 102.728 1424.7 Q100.922 1428.24 100.922 1435.37 Q100.922 1442.48 102.728 1446.04 Q104.557 1449.59 108.168 1449.59 Q111.802 1449.59 113.608 1446.04 Q115.436 1442.48 115.436 1435.37 Q115.436 1428.24 113.608 1424.7 Q111.802 1421.14 108.168 1421.14 M108.168 1417.43 Q113.978 1417.43 117.033 1422.04 Q120.112 1426.62 120.112 1435.37 Q120.112 1444.1 117.033 1448.71 Q113.978 1453.29 108.168 1453.29 Q102.358 1453.29 99.2789 1448.71 Q96.2234 1444.1 96.2234 1435.37 Q96.2234 1426.62 99.2789 1422.04 Q102.358 1417.43 108.168 1417.43 Z" fill="#000000" fill-rule="nonzero" fill-opacity="1" /><path clip-path="url(#clip320)" d="M138.33 1421.14 Q134.719 1421.14 132.89 1424.7 Q131.084 1428.24 131.084 1435.37 Q131.084 1442.48 132.89 1446.04 Q134.719 1449.59 138.33 1449.59 Q141.964 1449.59 143.769 1446.04 Q145.598 1442.48 145.598 1435.37 Q145.598 1428.24 143.769 1424.7 Q141.964 1421.14 138.33 1421.14 M138.33 1417.43 Q144.14 1417.43 147.195 1422.04 Q150.274 1426.62 150.274 1435.37 Q150.274 1444.1 147.195 1448.71 Q144.14 1453.29 138.33 1453.29 Q132.519 1453.29 129.441 1448.71 Q126.385 1444.1 126.385 1435.37 Q126.385 1426.62 129.441 1422.04 Q132.519 1417.43 138.33 1417.43 Z" fill="#000000" fill-rule="nonzero" fill-opacity="1" /><path clip-path="url(#clip320)" d="M63.9319 1080.26 Q60.3208 1080.26 58.4921 1083.83 Q56.6865 1087.37 56.6865 1094.5 Q56.6865 1101.61 58.4921 1105.17 Q60.3208 1108.71 63.9319 1108.71 Q67.5661 1108.71 69.3717 1105.17 Q71.2004 1101.61 71.2004 1094.5 Q71.2004 1087.37 69.3717 1083.83 Q67.5661 1080.26 63.9319 1080.26 M63.9319 1076.56 Q69.742 1076.56 72.7976 1081.17 Q75.8763 1085.75 75.8763 1094.5 Q75.8763 1103.23 72.7976 1107.83 Q69.742 1112.42 63.9319 1112.42 Q58.1217 1112.42 55.043 1107.83 Q51.9875 1103.23 51.9875 1094.5 Q51.9875 1085.75 55.043 1081.17 Q58.1217 1076.56 63.9319 1076.56 Z" fill="#000000" fill-rule="nonzero" fill-opacity="1" /><path clip-path="url(#clip320)" d="M84.0938 1105.87 L88.978 1105.87 L88.978 1111.75 L84.0938 1111.75 L84.0938 1105.87 Z" fill="#000000" fill-rule="nonzero" fill-opacity="1" /><path clip-path="url(#clip320)" d="M103.191 1107.81 L119.51 1107.81 L119.51 1111.75 L97.566 1111.75 L97.566 1107.81 Q100.228 1105.06 104.811 1100.43 Q109.418 1095.77 110.598 1094.43 Q112.844 1091.91 113.723 1090.17 Q114.626 1088.41 114.626 1086.72 Q114.626 1083.97 112.682 1082.23 Q110.76 1080.5 107.658 1080.5 Q105.459 1080.5 103.006 1081.26 Q100.575 1082.02 97.7974 1083.57 L97.7974 1078.85 Q100.621 1077.72 103.075 1077.14 Q105.529 1076.56 107.566 1076.56 Q112.936 1076.56 116.131 1079.25 Q119.325 1081.93 119.325 1086.42 Q119.325 1088.55 118.515 1090.47 Q117.728 1092.37 115.621 1094.96 Q115.043 1095.63 111.941 1098.85 Q108.839 1102.05 103.191 1107.81 Z" fill="#000000" fill-rule="nonzero" fill-opacity="1" /><path clip-path="url(#clip320)" d="M129.371 1077.19 L147.728 1077.19 L147.728 1081.12 L133.654 1081.12 L133.654 1089.59 Q134.672 1089.25 135.691 1089.08 Q136.709 1088.9 137.728 1088.9 Q143.515 1088.9 146.894 1092.07 Q150.274 1095.24 150.274 1100.66 Q150.274 1106.24 146.802 1109.34 Q143.33 1112.42 137.01 1112.42 Q134.834 1112.42 132.566 1112.05 Q130.32 1111.68 127.913 1110.94 L127.913 1106.24 Q129.996 1107.37 132.219 1107.93 Q134.441 1108.48 136.918 1108.48 Q140.922 1108.48 143.26 1106.38 Q145.598 1104.27 145.598 1100.66 Q145.598 1097.05 143.26 1094.94 Q140.922 1092.83 136.918 1092.83 Q135.043 1092.83 133.168 1093.25 Q131.316 1093.67 129.371 1094.55 L129.371 1077.19 Z" fill="#000000" fill-rule="nonzero" fill-opacity="1" /><path clip-path="url(#clip320)" d="M62.9365 739.391 Q59.3254 739.391 57.4967 742.956 Q55.6912 746.497 55.6912 753.627 Q55.6912 760.733 57.4967 764.298 Q59.3254 767.84 62.9365 767.84 Q66.5707 767.84 68.3763 764.298 Q70.205 760.733 70.205 753.627 Q70.205 746.497 68.3763 742.956 Q66.5707 739.391 62.9365 739.391 M62.9365 735.687 Q68.7467 735.687 71.8022 740.294 Q74.8809 744.877 74.8809 753.627 Q74.8809 762.354 71.8022 766.96 Q68.7467 771.544 62.9365 771.544 Q57.1264 771.544 54.0477 766.96 Q50.9921 762.354 50.9921 753.627 Q50.9921 744.877 54.0477 740.294 Q57.1264 735.687 62.9365 735.687 Z" fill="#000000" fill-rule="nonzero" fill-opacity="1" /><path clip-path="url(#clip320)" d="M83.0984 764.993 L87.9827 764.993 L87.9827 770.872 L83.0984 770.872 L83.0984 764.993 Z" fill="#000000" fill-rule="nonzero" fill-opacity="1" /><path clip-path="url(#clip320)" d="M98.2141 736.312 L116.57 736.312 L116.57 740.247 L102.496 740.247 L102.496 748.72 Q103.515 748.372 104.534 748.21 Q105.552 748.025 106.571 748.025 Q112.358 748.025 115.737 751.196 Q119.117 754.368 119.117 759.784 Q119.117 765.363 115.645 768.465 Q112.172 771.544 105.853 771.544 Q103.677 771.544 101.409 771.173 Q99.1632 770.803 96.7558 770.062 L96.7558 765.363 Q98.8391 766.497 101.061 767.053 Q103.284 767.608 105.76 767.608 Q109.765 767.608 112.103 765.502 Q114.441 763.395 114.441 759.784 Q114.441 756.173 112.103 754.067 Q109.765 751.96 105.76 751.96 Q103.885 751.96 102.01 752.377 Q100.159 752.794 98.2141 753.673 L98.2141 736.312 Z" fill="#000000" fill-rule="nonzero" fill-opacity="1" /><path clip-path="url(#clip320)" d="M138.33 739.391 Q134.719 739.391 132.89 742.956 Q131.084 746.497 131.084 753.627 Q131.084 760.733 132.89 764.298 Q134.719 767.84 138.33 767.84 Q141.964 767.84 143.769 764.298 Q145.598 760.733 145.598 753.627 Q145.598 746.497 143.769 742.956 Q141.964 739.391 138.33 739.391 M138.33 735.687 Q144.14 735.687 147.195 740.294 Q150.274 744.877 150.274 753.627 Q150.274 762.354 147.195 766.96 Q144.14 771.544 138.33 771.544 Q132.519 771.544 129.441 766.96 Q126.385 762.354 126.385 753.627 Q126.385 744.877 129.441 740.294 Q132.519 735.687 138.33 735.687 Z" fill="#000000" fill-rule="nonzero" fill-opacity="1" /><path clip-path="url(#clip320)" d="M63.9319 398.518 Q60.3208 398.518 58.4921 402.083 Q56.6865 405.624 56.6865 412.754 Q56.6865 419.86 58.4921 423.425 Q60.3208 426.967 63.9319 426.967 Q67.5661 426.967 69.3717 423.425 Q71.2004 419.86 71.2004 412.754 Q71.2004 405.624 69.3717 402.083 Q67.5661 398.518 63.9319 398.518 M63.9319 394.814 Q69.742 394.814 72.7976 399.421 Q75.8763 404.004 75.8763 412.754 Q75.8763 421.481 72.7976 426.087 Q69.742 430.67 63.9319 430.67 Q58.1217 430.67 55.043 426.087 Q51.9875 421.481 51.9875 412.754 Q51.9875 404.004 55.043 399.421 Q58.1217 394.814 63.9319 394.814 Z" fill="#000000" fill-rule="nonzero" fill-opacity="1" /><path clip-path="url(#clip320)" d="M84.0938 424.12 L88.978 424.12 L88.978 429.999 L84.0938 429.999 L84.0938 424.12 Z" fill="#000000" fill-rule="nonzero" fill-opacity="1" /><path clip-path="url(#clip320)" d="M97.9826 395.439 L120.205 395.439 L120.205 397.43 L107.658 429.999 L102.774 429.999 L114.58 399.374 L97.9826 399.374 L97.9826 395.439 Z" fill="#000000" fill-rule="nonzero" fill-opacity="1" /><path clip-path="url(#clip320)" d="M129.371 395.439 L147.728 395.439 L147.728 399.374 L133.654 399.374 L133.654 407.846 Q134.672 407.499 135.691 407.337 Q136.709 407.152 137.728 407.152 Q143.515 407.152 146.894 410.323 Q150.274 413.495 150.274 418.911 Q150.274 424.49 146.802 427.592 Q143.33 430.67 137.01 430.67 Q134.834 430.67 132.566 430.3 Q130.32 429.93 127.913 429.189 L127.913 424.49 Q129.996 425.624 132.219 426.18 Q134.441 426.735 136.918 426.735 Q140.922 426.735 143.26 424.629 Q145.598 422.522 145.598 418.911 Q145.598 415.3 143.26 413.194 Q140.922 411.087 136.918 411.087 Q135.043 411.087 133.168 411.504 Q131.316 411.921 129.371 412.8 L129.371 395.439 Z" fill="#000000" fill-rule="nonzero" fill-opacity="1" /><path clip-path="url(#clip320)" d="M53.7467 85.1908 L61.3856 85.1908 L61.3856 58.8252 L53.0754 60.4919 L53.0754 56.2327 L61.3393 54.566 L66.0152 54.566 L66.0152 85.1908 L73.654 85.1908 L73.654 89.126 L53.7467 89.126 L53.7467 85.1908 Z" fill="#000000" fill-rule="nonzero" fill-opacity="1" /><path clip-path="url(#clip320)" d="M83.0984 83.2464 L87.9827 83.2464 L87.9827 89.126 L83.0984 89.126 L83.0984 83.2464 Z" fill="#000000" fill-rule="nonzero" fill-opacity="1" /><path clip-path="url(#clip320)" d="M108.168 57.6447 Q104.557 57.6447 102.728 61.2095 Q100.922 64.7511 100.922 71.8807 Q100.922 78.9872 102.728 82.552 Q104.557 86.0936 108.168 86.0936 Q111.802 86.0936 113.608 82.552 Q115.436 78.9872 115.436 71.8807 Q115.436 64.7511 113.608 61.2095 Q111.802 57.6447 108.168 57.6447 M108.168 53.941 Q113.978 53.941 117.033 58.5475 Q120.112 63.1308 120.112 71.8807 Q120.112 80.6075 117.033 85.214 Q113.978 89.7973 108.168 89.7973 Q102.358 89.7973 99.2789 85.214 Q96.2234 80.6075 96.2234 71.8807 Q96.2234 63.1308 99.2789 58.5475 Q102.358 53.941 108.168 53.941 Z" fill="#000000" fill-rule="nonzero" fill-opacity="1" /><path clip-path="url(#clip320)" d="M138.33 57.6447 Q134.719 57.6447 132.89 61.2095 Q131.084 64.7511 131.084 71.8807 Q131.084 78.9872 132.89 82.552 Q134.719 86.0936 138.33 86.0936 Q141.964 86.0936 143.769 82.552 Q145.598 78.9872 145.598 71.8807 Q145.598 64.7511 143.769 61.2095 Q141.964 57.6447 138.33 57.6447 M138.33 53.941 Q144.14 53.941 147.195 58.5475 Q150.274 63.1308 150.274 71.8807 Q150.274 80.6075 147.195 85.214 Q144.14 89.7973 138.33 89.7973 Q132.519 89.7973 129.441 85.214 Q126.385 80.6075 126.385 71.8807 Q126.385 63.1308 129.441 58.5475 Q132.519 53.941 138.33 53.941 Z" fill="#000000" fill-rule="nonzero" fill-opacity="1" /><circle clip-path="url(#clip322)" cx="247.59" cy="1433.78" r="14.4" fill="#009af9" fill-rule="evenodd" fill-opacity="1" stroke="#000000" stroke-opacity="1" stroke-width="3.2"/>
<circle clip-path="url(#clip322)" cx="383.846" cy="1431.44" r="14.4" fill="#009af9" fill-rule="evenodd" fill-opacity="1" stroke="#000000" stroke-opacity="1" stroke-width="3.2"/>
<circle clip-path="url(#clip322)" cx="520.103" cy="1425.62" r="14.4" fill="#009af9" fill-rule="evenodd" fill-opacity="1" stroke="#000000" stroke-opacity="1" stroke-width="3.2"/>
<circle clip-path="url(#clip322)" cx="656.36" cy="1411.21" r="14.4" fill="#009af9" fill-rule="evenodd" fill-opacity="1" stroke="#000000" stroke-opacity="1" stroke-width="3.2"/>
<circle clip-path="url(#clip322)" cx="792.616" cy="1375.97" r="14.4" fill="#009af9" fill-rule="evenodd" fill-opacity="1" stroke="#000000" stroke-opacity="1" stroke-width="3.2"/>
<circle clip-path="url(#clip322)" cx="928.873" cy="1292.65" r="14.4" fill="#009af9" fill-rule="evenodd" fill-opacity="1" stroke="#000000" stroke-opacity="1" stroke-width="3.2"/>
<circle clip-path="url(#clip322)" cx="1065.13" cy="1110.37" r="14.4" fill="#009af9" fill-rule="evenodd" fill-opacity="1" stroke="#000000" stroke-opacity="1" stroke-width="3.2"/>
<circle clip-path="url(#clip322)" cx="1201.39" cy="776.439" r="14.4" fill="#009af9" fill-rule="evenodd" fill-opacity="1" stroke="#000000" stroke-opacity="1" stroke-width="3.2"/>
<circle clip-path="url(#clip322)" cx="1337.64" cy="360.468" r="14.4" fill="#009af9" fill-rule="evenodd" fill-opacity="1" stroke="#000000" stroke-opacity="1" stroke-width="3.2"/>
<circle clip-path="url(#clip322)" cx="1473.9" cy="121.448" r="14.4" fill="#009af9" fill-rule="evenodd" fill-opacity="1" stroke="#000000" stroke-opacity="1" stroke-width="3.2"/>
<circle clip-path="url(#clip322)" cx="1610.16" cy="87.9837" r="14.4" fill="#009af9" fill-rule="evenodd" fill-opacity="1" stroke="#000000" stroke-opacity="1" stroke-width="3.2"/>
<circle clip-path="url(#clip322)" cx="1746.41" cy="87.6287" r="14.4" fill="#009af9" fill-rule="evenodd" fill-opacity="1" stroke="#000000" stroke-opacity="1" stroke-width="3.2"/>
<circle clip-path="url(#clip322)" cx="1882.67" cy="87.6286" r="14.4" fill="#009af9" fill-rule="evenodd" fill-opacity="1" stroke="#000000" stroke-opacity="1" stroke-width="3.2"/>
<circle clip-path="url(#clip322)" cx="2018.93" cy="87.6286" r="14.4" fill="#009af9" fill-rule="evenodd" fill-opacity="1" stroke="#000000" stroke-opacity="1" stroke-width="3.2"/>
<circle clip-path="url(#clip322)" cx="2155.18" cy="87.6286" r="14.4" fill="#009af9" fill-rule="evenodd" fill-opacity="1" stroke="#000000" stroke-opacity="1" stroke-width="3.2"/>
<circle clip-path="url(#clip322)" cx="2291.44" cy="87.6286" r="14.4" fill="#009af9" fill-rule="evenodd" fill-opacity="1" stroke="#000000" stroke-opacity="1" stroke-width="3.2"/>
<path clip-path="url(#clip320)" d="M2011.46 198.488 L2280.54 198.488 L2280.54 94.8081 L2011.46 94.8081  Z" fill="#ffffff" fill-rule="evenodd" fill-opacity="1"/>
<polyline clip-path="url(#clip320)" style="stroke:#000000; stroke-linecap:round; stroke-linejoin:round; stroke-width:4; stroke-opacity:1; fill:none" points="2011.46,198.488 2280.54,198.488 2280.54,94.8081 2011.46,94.8081 2011.46,198.488 "/>
<circle clip-path="url(#clip320)" cx="2107.75" cy="146.648" r="20.48" fill="#009af9" fill-rule="evenodd" fill-opacity="1" stroke="#000000" stroke-opacity="1" stroke-width="4.55111"/>
<path clip-path="url(#clip320)" d="M2217.88 166.336 Q2216.07 170.965 2214.36 172.377 Q2212.65 173.789 2209.78 173.789 L2206.38 173.789 L2206.38 170.224 L2208.88 170.224 Q2210.63 170.224 2211.61 169.391 Q2212.58 168.558 2213.76 165.456 L2214.52 163.511 L2204.04 138.002 L2208.55 138.002 L2216.65 158.28 L2224.76 138.002 L2229.27 138.002 L2217.88 166.336 Z" fill="#000000" fill-rule="nonzero" fill-opacity="1" /><path clip-path="url(#clip320)" d="M2236.56 159.993 L2244.2 159.993 L2244.2 133.627 L2235.89 135.294 L2235.89 131.035 L2244.15 129.368 L2248.83 129.368 L2248.83 159.993 L2256.47 159.993 L2256.47 163.928 L2236.56 163.928 L2236.56 159.993 Z" fill="#000000" fill-rule="nonzero" fill-opacity="1" /></svg>
