<?xml version="1.0" encoding="utf-8"?>
<svg xmlns="http://www.w3.org/2000/svg" xmlns:xlink="http://www.w3.org/1999/xlink" width="600" height="400" viewBox="0 0 2400 1600">
<defs>
  <clipPath id="clip480">
    <rect x="0" y="0" width="2400" height="1600"/>
  </clipPath>
</defs>
<path clip-path="url(#clip480)" d="M0 1600 L2400 1600 L2400 0 L0 0  Z" fill="#ffffff" fill-rule="evenodd" fill-opacity="1"/>
<defs>
  <clipPath id="clip481">
    <rect x="480" y="0" width="1681" height="1600"/>
  </clipPath>
</defs>
<path clip-path="url(#clip480)" d="M156.598 1474.16 L2352.76 1474.16 L2352.76 47.2441 L156.598 47.2441  Z" fill="#ffffff" fill-rule="evenodd" fill-opacity="1"/>
<defs>
  <clipPath id="clip482">
    <rect x="156" y="47" width="2197" height="1428"/>
  </clipPath>
</defs>
<polyline clip-path="url(#clip482)" style="stroke:#000000; stroke-linecap:round; stroke-linejoin:round; stroke-width:2; stroke-opacity:0.1; fill:none" points="909.369,1474.16 909.369,47.2441 "/>
<polyline clip-path="url(#clip482)" style="stroke:#000000; stroke-linecap:round; stroke-linejoin:round; stroke-width:2; stroke-opacity:0.1; fill:none" points="1945.29,1474.16 1945.29,47.2441 "/>
<polyline clip-path="url(#clip482)" style="stroke:#000000; stroke-linecap:round; stroke-linejoin:round; stroke-width:2; stroke-opacity:0.1; fill:none" points="156.598,1474.16 2352.76,1474.16 "/>
<polyline clip-path="url(#clip482)" style="stroke:#000000; stroke-linecap:round; stroke-linejoin:round; stroke-width:2; stroke-opacity:0.1; fill:none" points="156.598,1270.32 2352.76,1270.32 "/>
<polyline clip-path="url(#clip482)" style="stroke:#000000; stroke-linecap:round; stroke-linejoin:round; stroke-width:2; stroke-opacity:0.1; fill:none" points="156.598,1066.47 2352.76,1066.47 "/>
<polyline clip-path="url(#clip482)" style="stroke:#000000; stroke-linecap:round; stroke-linejoin:round; stroke-width:2; stroke-opacity:0.1; fill:none" points="156.598,862.627 2352.76,862.627 "/>
<polyline clip-path="url(#clip482)" style="stroke:#000000; stroke-linecap:round; stroke-linejoin:round; stroke-width:2; stroke-opacity:0.1; fill:none" points="156.598,658.781 2352.76,658.781 "/>
<polyline clip-path="url(#clip482)" style="stroke:#000000; stroke-linecap:round; stroke-linejoin:round; stroke-width:2; stroke-opacity:0.1; fill:none" points="156.598,454.936 2352.76,454.936 "/>
<polyline clip-path="url(#clip482)" style="stroke:#000000; stroke-linecap:round; stroke-linejoin:round; stroke-width:2; stroke-opacity:0.1; fill:none" points="156.598,251.09 2352.76,251.09 "/>
<polyline clip-path="url(#clip480)" style="stroke:#000000; stroke-linecap:round; stroke-linejoin:round; stroke-width:4; stroke-opacity:1; fill:none" points="156.598,1474.16 2352.76,1474.16 "/>
<polyline clip-path="url(#clip480)" style="stroke:#000000; stroke-linecap:round; stroke-linejoin:round; stroke-width:4; stroke-opacity:1; fill:none" points="909.369,1474.16 909.369,1455.27 "/>
<polyline clip-path="url(#clip480)" style="stroke:#000000; stroke-linecap:round; stroke-linejoin:round; stroke-width:4; stroke-opacity:1; fill:none" points="1945.29,1474.16 1945.29,1455.27 "/>
<path clip-path="url(#clip480)" d="M858.92 1548.29 L866.559 1548.29 L866.559 1521.92 L858.249 1523.59 L858.249 1519.33 L866.513 1517.66 L871.189 1517.66 L871.189 1548.29 L878.828 1548.29 L878.828 1552.22 L858.92 1552.22 L858.92 1548.29 Z" fill="#000000" fill-rule="nonzero" fill-opacity="1" /><path clip-path="url(#clip480)" d="M898.272 1520.74 Q894.661 1520.74 892.832 1524.31 Q891.027 1527.85 891.027 1534.98 Q891.027 1542.09 892.832 1545.65 Q894.661 1549.19 898.272 1549.19 Q901.906 1549.19 903.712 1545.65 Q905.54 1542.09 905.54 1534.98 Q905.54 1527.85 903.712 1524.31 Q901.906 1520.74 898.272 1520.74 M898.272 1517.04 Q904.082 1517.04 907.138 1521.65 Q910.216 1526.23 910.216 1534.98 Q910.216 1543.71 907.138 1548.31 Q904.082 1552.9 898.272 1552.9 Q892.462 1552.9 889.383 1548.31 Q886.328 1543.71 886.328 1534.98 Q886.328 1526.23 889.383 1521.65 Q892.462 1517.04 898.272 1517.04 Z" fill="#000000" fill-rule="nonzero" fill-opacity="1" /><path clip-path="url(#clip480)" d="M910.216 1511.14 L934.328 1511.14 L934.328 1514.34 L910.216 1514.34 L910.216 1511.14 Z" fill="#000000" fill-rule="nonzero" fill-opacity="1" /><path clip-path="url(#clip480)" d="M951.123 1509.26 Q948.565 1509.26 947.061 1511.01 Q945.575 1512.76 945.575 1515.81 Q945.575 1518.83 947.061 1520.6 Q948.565 1522.35 951.123 1522.35 Q953.681 1522.35 955.167 1520.6 Q956.672 1518.83 956.672 1515.81 Q956.672 1512.76 955.167 1511.01 Q953.681 1509.26 951.123 1509.26 M958.665 1497.35 L958.665 1500.82 Q957.236 1500.14 955.769 1499.78 Q954.321 1499.42 952.891 1499.42 Q949.13 1499.42 947.136 1501.96 Q945.161 1504.5 944.879 1509.64 Q945.989 1508 947.663 1507.13 Q949.336 1506.25 951.349 1506.25 Q955.581 1506.25 958.026 1508.83 Q960.49 1511.39 960.49 1515.81 Q960.49 1520.13 957.932 1522.75 Q955.374 1525.36 951.123 1525.36 Q946.252 1525.36 943.675 1521.64 Q941.099 1517.89 941.099 1510.8 Q941.099 1504.14 944.258 1500.19 Q947.418 1496.23 952.741 1496.23 Q954.17 1496.23 955.618 1496.51 Q957.085 1496.79 958.665 1497.35 Z" fill="#000000" fill-rule="nonzero" fill-opacity="1" /><path clip-path="url(#clip480)" d="M1895.17 1548.29 L1902.81 1548.29 L1902.81 1521.92 L1894.5 1523.59 L1894.5 1519.33 L1902.77 1517.66 L1907.44 1517.66 L1907.44 1548.29 L1915.08 1548.29 L1915.08 1552.22 L1895.17 1552.22 L1895.17 1548.29 Z" fill="#000000" fill-rule="nonzero" fill-opacity="1" /><path clip-path="url(#clip480)" d="M1934.52 1520.74 Q1930.91 1520.74 1929.08 1524.31 Q1927.28 1527.85 1927.28 1534.98 Q1927.28 1542.09 1929.08 1545.65 Q1930.91 1549.19 1934.52 1549.19 Q1938.16 1549.19 1939.96 1545.65 Q1941.79 1542.09 1941.79 1534.98 Q1941.79 1527.85 1939.96 1524.31 Q1938.16 1520.74 1934.52 1520.74 M1934.52 1517.04 Q1940.33 1517.04 1943.39 1521.65 Q1946.47 1526.23 1946.47 1534.98 Q1946.47 1543.71 1943.39 1548.31 Q1940.33 1552.9 1934.52 1552.9 Q1928.71 1552.9 1925.64 1548.31 Q1922.58 1543.71 1922.58 1534.98 Q1922.58 1526.23 1925.64 1521.65 Q1928.71 1517.04 1934.52 1517.04 Z" fill="#000000" fill-rule="nonzero" fill-opacity="1" /><path clip-path="url(#clip480)" d="M1946.47 1511.14 L1970.58 1511.14 L1970.58 1514.34 L1946.47 1514.34 L1946.47 1511.14 Z" fill="#000000" fill-rule="nonzero" fill-opacity="1" /><path clip-path="url(#clip480)" d="M1990.29 1509.67 Q1993.02 1510.26 1994.54 1512.1 Q1996.08 1513.94 1996.08 1516.65 Q1996.08 1520.81 1993.23 1523.08 Q1990.37 1525.36 1985.1 1525.36 Q1983.33 1525.36 1981.45 1525 Q1979.59 1524.66 1977.6 1523.97 L1977.6 1520.3 Q1979.18 1521.22 1981.06 1521.69 Q1982.94 1522.16 1984.99 1522.16 Q1988.56 1522.16 1990.42 1520.75 Q1992.3 1519.34 1992.3 1516.65 Q1992.3 1514.17 1990.55 1512.78 Q1988.82 1511.37 1985.72 1511.37 L1982.45 1511.37 L1982.45 1508.24 L1985.87 1508.24 Q1988.67 1508.24 1990.16 1507.13 Q1991.65 1506.01 1991.65 1503.9 Q1991.65 1501.74 1990.1 1500.59 Q1988.58 1499.42 1985.72 1499.42 Q1984.16 1499.42 1982.37 1499.76 Q1980.59 1500.1 1978.44 1500.82 L1978.44 1497.43 Q1980.61 1496.83 1982.49 1496.53 Q1984.39 1496.23 1986.06 1496.23 Q1990.39 1496.23 1992.91 1498.2 Q1995.43 1500.16 1995.43 1503.51 Q1995.43 1505.84 1994.09 1507.45 Q1992.75 1509.05 1990.29 1509.67 Z" fill="#000000" fill-rule="nonzero" fill-opacity="1" /><polyline clip-path="url(#clip480)" style="stroke:#000000; stroke-linecap:round; stroke-linejoin:round; stroke-width:4; stroke-opacity:1; fill:none" points="156.598,1474.16 156.598,47.2441 "/>
<polyline clip-path="url(#clip480)" style="stroke:#000000; stroke-linecap:round; stroke-linejoin:round; stroke-width:4; stroke-opacity:1; fill:none" points="156.598,1474.16 175.496,1474.16 "/>
<polyline clip-path="url(#clip480)" style="stroke:#000000; stroke-linecap:round; stroke-linejoin:round; stroke-width:4; stroke-opacity:1; fill:none" points="156.598,1270.32 175.496,1270.32 "/>
<polyline clip-path="url(#clip480)" style="stroke:#000000; stroke-linecap:round; stroke-linejoin:round; stroke-width:4; stroke-opacity:1; fill:none" points="156.598,1066.47 175.496,1066.47 "/>
<polyline clip-path="url(#clip480)" style="stroke:#000000; stroke-linecap:round; stroke-linejoin:round; stroke-width:4; stroke-opacity:1; fill:none" points="156.598,862.627 175.496,862.627 "/>
<polyline clip-path="url(#clip480)" style="stroke:#000000; stroke-linecap:round; stroke-linejoin:round; stroke-width:4; stroke-opacity:1; fill:none" points="156.598,658.781 175.496,658.781 "/>
<polyline clip-path="url(#clip480)" style="stroke:#000000; stroke-linecap:round; stroke-linejoin:round; stroke-width:4; stroke-opacity:1; fill:none" points="156.598,454.936 175.496,454.936 "/>
<polyline clip-path="url(#clip480)" style="stroke:#000000; stroke-linecap:round; stroke-linejoin:round; stroke-width:4; stroke-opacity:1; fill:none" points="156.598,251.09 175.496,251.09 "/>
<path clip-path="url(#clip480)" d="M63.4226 1459.96 Q59.8115 1459.96 57.9828 1463.53 Q56.1773 1467.07 56.1773 1474.2 Q56.1773 1481.31 57.9828 1484.87 Q59.8115 1488.41 63.4226 1488.41 Q67.0569 1488.41 68.8624 1484.87 Q70.6911 1481.31 70.6911 1474.2 Q70.6911 1467.07 68.8624 1463.53 Q67.0569 1459.96 63.4226 1459.96 M63.4226 1456.26 Q69.2328 1456.26 72.2883 1460.87 Q75.367 1465.45 75.367 1474.2 Q75.367 1482.93 72.2883 1487.53 Q69.2328 1492.12 63.4226 1492.12 Q57.6125 1492.12 54.5338 1487.53 Q51.4782 1482.93 51.4782 1474.2 Q51.4782 1465.45 54.5338 1460.87 Q57.6125 1456.26 63.4226 1456.26 Z" fill="#000000" fill-rule="nonzero" fill-opacity="1" /><path clip-path="url(#clip480)" d="M83.5845 1485.57 L88.4688 1485.57 L88.4688 1491.44 L83.5845 1491.44 L83.5845 1485.57 Z" fill="#000000" fill-rule="nonzero" fill-opacity="1" /><path clip-path="url(#clip480)" d="M108.654 1459.96 Q105.043 1459.96 103.214 1463.53 Q101.409 1467.07 101.409 1474.2 Q101.409 1481.31 103.214 1484.87 Q105.043 1488.41 108.654 1488.41 Q112.288 1488.41 114.094 1484.87 Q115.922 1481.31 115.922 1474.2 Q115.922 1467.07 114.094 1463.53 Q112.288 1459.96 108.654 1459.96 M108.654 1456.26 Q114.464 1456.26 117.52 1460.87 Q120.598 1465.45 120.598 1474.2 Q120.598 1482.93 117.52 1487.53 Q114.464 1492.12 108.654 1492.12 Q102.844 1492.12 99.765 1487.53 Q96.7095 1482.93 96.7095 1474.2 Q96.7095 1465.45 99.765 1460.87 Q102.844 1456.26 108.654 1456.26 Z" fill="#000000" fill-rule="nonzero" fill-opacity="1" /><path clip-path="url(#clip480)" d="M65.0198 1256.12 Q61.4087 1256.12 59.58 1259.68 Q57.7745 1263.22 57.7745 1270.35 Q57.7745 1277.46 59.58 1281.02 Q61.4087 1284.57 65.0198 1284.57 Q68.6541 1284.57 70.4596 1281.02 Q72.2883 1277.46 72.2883 1270.35 Q72.2883 1263.22 70.4596 1259.68 Q68.6541 1256.12 65.0198 1256.12 M65.0198 1252.41 Q70.83 1252.41 73.8855 1257.02 Q76.9642 1261.6 76.9642 1270.35 Q76.9642 1279.08 73.8855 1283.69 Q70.83 1288.27 65.0198 1288.27 Q59.2097 1288.27 56.131 1283.69 Q53.0754 1279.08 53.0754 1270.35 Q53.0754 1261.6 56.131 1257.02 Q59.2097 1252.41 65.0198 1252.41 Z" fill="#000000" fill-rule="nonzero" fill-opacity="1" /><path clip-path="url(#clip480)" d="M85.1818 1281.72 L90.066 1281.72 L90.066 1287.6 L85.1818 1287.6 L85.1818 1281.72 Z" fill="#000000" fill-rule="nonzero" fill-opacity="1" /><path clip-path="url(#clip480)" d="M104.279 1283.66 L120.598 1283.66 L120.598 1287.6 L98.6539 1287.6 L98.6539 1283.66 Q101.316 1280.91 105.899 1276.28 Q110.506 1271.63 111.686 1270.28 Q113.932 1267.76 114.811 1266.02 Q115.714 1264.27 115.714 1262.58 Q115.714 1259.82 113.77 1258.09 Q111.848 1256.35 108.746 1256.35 Q106.547 1256.35 104.094 1257.11 Q101.663 1257.88 98.8854 1259.43 L98.8854 1254.71 Q101.709 1253.57 104.163 1252.99 Q106.617 1252.41 108.654 1252.41 Q114.024 1252.41 117.219 1255.1 Q120.413 1257.78 120.413 1262.27 Q120.413 1264.4 119.603 1266.33 Q118.816 1268.22 116.709 1270.82 Q116.131 1271.49 113.029 1274.71 Q109.927 1277.9 104.279 1283.66 Z" fill="#000000" fill-rule="nonzero" fill-opacity="1" /><path clip-path="url(#clip480)" d="M62.9365 1052.27 Q59.3254 1052.27 57.4967 1055.84 Q55.6912 1059.38 55.6912 1066.51 Q55.6912 1073.61 57.4967 1077.18 Q59.3254 1080.72 62.9365 1080.72 Q66.5707 1080.72 68.3763 1077.18 Q70.205 1073.61 70.205 1066.51 Q70.205 1059.38 68.3763 1055.84 Q66.5707 1052.27 62.9365 1052.27 M62.9365 1048.57 Q68.7467 1048.57 71.8022 1053.17 Q74.8809 1057.76 74.8809 1066.51 Q74.8809 1075.23 71.8022 1079.84 Q68.7467 1084.42 62.9365 1084.42 Q57.1264 1084.42 54.0477 1079.84 Q50.9921 1075.23 50.9921 1066.51 Q50.9921 1057.76 54.0477 1053.17 Q57.1264 1048.57 62.9365 1048.57 Z" fill="#000000" fill-rule="nonzero" fill-opacity="1" /><path clip-path="url(#clip480)" d="M83.0984 1077.87 L87.9827 1077.87 L87.9827 1083.75 L83.0984 1083.75 L83.0984 1077.87 Z" fill="#000000" fill-rule="nonzero" fill-opacity="1" /><path clip-path="url(#clip480)" d="M111.015 1053.27 L99.2095 1071.72 L111.015 1071.72 L111.015 1053.27 M109.788 1049.19 L115.668 1049.19 L115.668 1071.72 L120.598 1071.72 L120.598 1075.6 L115.668 1075.6 L115.668 1083.75 L111.015 1083.75 L111.015 1075.6 L95.4132 1075.6 L95.4132 1071.09 L109.788 1049.19 Z" fill="#000000" fill-rule="nonzero" fill-opacity="1" /><path clip-path="url(#clip480)" d="M63.2606 848.426 Q59.6495 848.426 57.8208 851.991 Q56.0152 855.532 56.0152 862.662 Q56.0152 869.768 57.8208 873.333 Q59.6495 876.875 63.2606 876.875 Q66.8948 876.875 68.7004 873.333 Q70.5291 869.768 70.5291 862.662 Q70.5291 855.532 68.7004 851.991 Q66.8948 848.426 63.2606 848.426 M63.2606 844.722 Q69.0707 844.722 72.1263 849.329 Q75.205 853.912 75.205 862.662 Q75.205 871.389 72.1263 875.995 Q69.0707 880.579 63.2606 880.579 Q57.4504 880.579 54.3717 875.995 Q51.3162 871.389 51.3162 862.662 Q51.3162 853.912 54.3717 849.329 Q57.4504 844.722 63.2606 844.722 Z" fill="#000000" fill-rule="nonzero" fill-opacity="1" /><path clip-path="url(#clip480)" d="M83.4225 874.028 L88.3067 874.028 L88.3067 879.907 L83.4225 879.907 L83.4225 874.028 Z" fill="#000000" fill-rule="nonzero" fill-opacity="1" /><path clip-path="url(#clip480)" d="M109.071 860.764 Q105.922 860.764 104.071 862.917 Q102.242 865.069 102.242 868.819 Q102.242 872.546 104.071 874.722 Q105.922 876.875 109.071 876.875 Q112.219 876.875 114.047 874.722 Q115.899 872.546 115.899 868.819 Q115.899 865.069 114.047 862.917 Q112.219 860.764 109.071 860.764 M118.353 846.111 L118.353 850.37 Q116.594 849.537 114.788 849.097 Q113.006 848.657 111.246 848.657 Q106.617 848.657 104.163 851.782 Q101.733 854.907 101.385 861.227 Q102.751 859.213 104.811 858.148 Q106.871 857.06 109.348 857.06 Q114.557 857.06 117.566 860.231 Q120.598 863.38 120.598 868.819 Q120.598 874.143 117.45 877.361 Q114.302 880.579 109.071 880.579 Q103.075 880.579 99.9039 875.995 Q96.7326 871.389 96.7326 862.662 Q96.7326 854.468 100.621 849.607 Q104.51 844.722 111.061 844.722 Q112.82 844.722 114.603 845.07 Q116.408 845.417 118.353 846.111 Z" fill="#000000" fill-rule="nonzero" fill-opacity="1" /><path clip-path="url(#clip480)" d="M63.5152 644.58 Q59.9041 644.58 58.0754 648.145 Q56.2699 651.687 56.2699 658.816 Q56.2699 665.923 58.0754 669.487 Q59.9041 673.029 63.5152 673.029 Q67.1494 673.029 68.955 669.487 Q70.7837 665.923 70.7837 658.816 Q70.7837 651.687 68.955 648.145 Q67.1494 644.58 63.5152 644.58 M63.5152 640.876 Q69.3254 640.876 72.3809 645.483 Q75.4596 650.066 75.4596 658.816 Q75.4596 667.543 72.3809 672.149 Q69.3254 676.733 63.5152 676.733 Q57.7051 676.733 54.6264 672.149 Q51.5708 667.543 51.5708 658.816 Q51.5708 650.066 54.6264 645.483 Q57.7051 640.876 63.5152 640.876 Z" fill="#000000" fill-rule="nonzero" fill-opacity="1" /><path clip-path="url(#clip480)" d="M83.6771 670.182 L88.5614 670.182 L88.5614 676.061 L83.6771 676.061 L83.6771 670.182 Z" fill="#000000" fill-rule="nonzero" fill-opacity="1" /><path clip-path="url(#clip480)" d="M108.746 659.65 Q105.413 659.65 103.492 661.432 Q101.594 663.214 101.594 666.339 Q101.594 669.464 103.492 671.247 Q105.413 673.029 108.746 673.029 Q112.08 673.029 114.001 671.247 Q115.922 669.441 115.922 666.339 Q115.922 663.214 114.001 661.432 Q112.103 659.65 108.746 659.65 M104.071 657.659 Q101.061 656.918 99.3715 654.858 Q97.7048 652.798 97.7048 649.835 Q97.7048 645.691 100.645 643.284 Q103.608 640.876 108.746 640.876 Q113.908 640.876 116.848 643.284 Q119.788 645.691 119.788 649.835 Q119.788 652.798 118.098 654.858 Q116.432 656.918 113.445 657.659 Q116.825 658.446 118.7 660.737 Q120.598 663.029 120.598 666.339 Q120.598 671.362 117.52 674.048 Q114.464 676.733 108.746 676.733 Q103.029 676.733 99.9502 674.048 Q96.8947 671.362 96.8947 666.339 Q96.8947 663.029 98.7928 660.737 Q100.691 658.446 104.071 657.659 M102.358 650.275 Q102.358 652.96 104.024 654.464 Q105.714 655.969 108.746 655.969 Q111.756 655.969 113.445 654.464 Q115.158 652.96 115.158 650.275 Q115.158 647.589 113.445 646.085 Q111.756 644.58 108.746 644.58 Q105.714 644.58 104.024 646.085 Q102.358 647.589 102.358 650.275 Z" fill="#000000" fill-rule="nonzero" fill-opacity="1" /><path clip-path="url(#clip480)" d="M54.2328 468.281 L61.8717 468.281 L61.8717 441.915 L53.5616 443.582 L53.5616 439.322 L61.8254 437.656 L66.5013 437.656 L66.5013 468.281 L74.1402 468.281 L74.1402 472.216 L54.2328 472.216 L54.2328 468.281 Z" fill="#000000" fill-rule="nonzero" fill-opacity="1" /><path clip-path="url(#clip480)" d="M83.5845 466.336 L88.4688 466.336 L88.4688 472.216 L83.5845 472.216 L83.5845 466.336 Z" fill="#000000" fill-rule="nonzero" fill-opacity="1" /><path clip-path="url(#clip480)" d="M108.654 440.734 Q105.043 440.734 103.214 444.299 Q101.409 447.841 101.409 454.97 Q101.409 462.077 103.214 465.642 Q105.043 469.183 108.654 469.183 Q112.288 469.183 114.094 465.642 Q115.922 462.077 115.922 454.97 Q115.922 447.841 114.094 444.299 Q112.288 440.734 108.654 440.734 M108.654 437.031 Q114.464 437.031 117.52 441.637 Q120.598 446.22 120.598 454.97 Q120.598 463.697 117.52 468.304 Q114.464 472.887 108.654 472.887 Q102.844 472.887 99.765 468.304 Q96.7095 463.697 96.7095 454.97 Q96.7095 446.22 99.765 441.637 Q102.844 437.031 108.654 437.031 Z" fill="#000000" fill-rule="nonzero" fill-opacity="1" /><path clip-path="url(#clip480)" d="M55.8301 264.435 L63.4689 264.435 L63.4689 238.069 L55.1588 239.736 L55.1588 235.477 L63.4226 233.81 L68.0985 233.81 L68.0985 264.435 L75.7374 264.435 L75.7374 268.37 L55.8301 268.37 L55.8301 264.435 Z" fill="#000000" fill-rule="nonzero" fill-opacity="1" /><path clip-path="url(#clip480)" d="M85.1818 262.49 L90.066 262.49 L90.066 268.37 L85.1818 268.37 L85.1818 262.49 Z" fill="#000000" fill-rule="nonzero" fill-opacity="1" /><path clip-path="url(#clip480)" d="M104.279 264.435 L120.598 264.435 L120.598 268.37 L98.6539 268.37 L98.6539 264.435 Q101.316 261.68 105.899 257.051 Q110.506 252.398 111.686 251.055 Q113.932 248.532 114.811 246.796 Q115.714 245.037 115.714 243.347 Q115.714 240.592 113.77 238.856 Q111.848 237.12 108.746 237.12 Q106.547 237.12 104.094 237.884 Q101.663 238.648 98.8854 240.199 L98.8854 235.477 Q101.709 234.342 104.163 233.764 Q106.617 233.185 108.654 233.185 Q114.024 233.185 117.219 235.87 Q120.413 238.555 120.413 243.046 Q120.413 245.176 119.603 247.097 Q118.816 248.995 116.709 251.588 Q116.131 252.259 113.029 255.476 Q109.927 258.671 104.279 264.435 Z" fill="#000000" fill-rule="nonzero" fill-opacity="1" /><circle clip-path="url(#clip482)" cx="218.754" cy="1269.15" r="14.4" fill="#009af9" fill-rule="evenodd" fill-opacity="1" stroke="#000000" stroke-opacity="1" stroke-width="3.2"/>
<circle clip-path="url(#clip482)" cx="356.877" cy="1267.41" r="14.4" fill="#009af9" fill-rule="evenodd" fill-opacity="1" stroke="#000000" stroke-opacity="1" stroke-width="3.2"/>
<circle clip-path="url(#clip482)" cx="495" cy="1263.06" r="14.4" fill="#009af9" fill-rule="evenodd" fill-opacity="1" stroke="#000000" stroke-opacity="1" stroke-width="3.2"/>
<circle clip-path="url(#clip482)" cx="633.123" cy="1252.28" r="14.4" fill="#009af9" fill-rule="evenodd" fill-opacity="1" stroke="#000000" stroke-opacity="1" stroke-width="3.2"/>
<circle clip-path="url(#clip482)" cx="771.246" cy="1225.94" r="14.4" fill="#009af9" fill-rule="evenodd" fill-opacity="1" stroke="#000000" stroke-opacity="1" stroke-width="3.2"/>
<circle clip-path="url(#clip482)" cx="909.369" cy="1163.66" r="14.4" fill="#009af9" fill-rule="evenodd" fill-opacity="1" stroke="#000000" stroke-opacity="1" stroke-width="3.2"/>
<circle clip-path="url(#clip482)" cx="1047.49" cy="1027.4" r="14.4" fill="#009af9" fill-rule="evenodd" fill-opacity="1" stroke="#000000" stroke-opacity="1" stroke-width="3.2"/>
<circle clip-path="url(#clip482)" cx="1185.62" cy="777.782" r="14.4" fill="#009af9" fill-rule="evenodd" fill-opacity="1" stroke="#000000" stroke-opacity="1" stroke-width="3.2"/>
<circle clip-path="url(#clip482)" cx="1323.74" cy="466.839" r="14.4" fill="#009af9" fill-rule="evenodd" fill-opacity="1" stroke="#000000" stroke-opacity="1" stroke-width="3.2"/>
<circle clip-path="url(#clip482)" cx="1461.86" cy="288.168" r="14.4" fill="#009af9" fill-rule="evenodd" fill-opacity="1" stroke="#000000" stroke-opacity="1" stroke-width="3.2"/>
<circle clip-path="url(#clip482)" cx="1599.98" cy="263.153" r="14.4" fill="#009af9" fill-rule="evenodd" fill-opacity="1" stroke="#000000" stroke-opacity="1" stroke-width="3.2"/>
<circle clip-path="url(#clip482)" cx="1738.11" cy="262.888" r="14.4" fill="#009af9" fill-rule="evenodd" fill-opacity="1" stroke="#000000" stroke-opacity="1" stroke-width="3.2"/>
<circle clip-path="url(#clip482)" cx="1876.23" cy="262.888" r="14.4" fill="#009af9" fill-rule="evenodd" fill-opacity="1" stroke="#000000" stroke-opacity="1" stroke-width="3.2"/>
<circle clip-path="url(#clip482)" cx="2014.35" cy="262.888" r="14.4" fill="#009af9" fill-rule="evenodd" fill-opacity="1" stroke="#000000" stroke-opacity="1" stroke-width="3.2"/>
<circle clip-path="url(#clip482)" cx="2152.48" cy="262.888" r="14.4" fill="#009af9" fill-rule="evenodd" fill-opacity="1" stroke="#000000" stroke-opacity="1" stroke-width="3.2"/>
<circle clip-path="url(#clip482)" cx="2290.6" cy="262.888" r="14.4" fill="#009af9" fill-rule="evenodd" fill-opacity="1" stroke="#000000" stroke-opacity="1" stroke-width="3.2"/>
<path clip-path="url(#clip480)" d="M2007.5 198.488 L2279.55 198.488 L2279.55 94.8081 L2007.5 94.8081  Z" fill="#ffffff" fill-rule="evenodd" fill-opacity="1"/>
<polyline clip-path="url(#clip480)" style="stroke:#000000; stroke-linecap:round; stroke-linejoin:round; stroke-width:4; stroke-opacity:1; fill:none" points="2007.5,198.488 2279.55,198.488 2279.55,94.8081 2007.5,94.8081 2007.5,198.488 "/>
<circle clip-path="url(#clip480)" cx="2105.11" cy="146.648" r="20.48" fill="#009af9" fill-rule="evenodd" fill-opacity="1" stroke="#000000" stroke-opacity="1" stroke-width="4.55111"/>
<path clip-path="url(#clip480)" d="M2216.56 166.336 Q2214.76 170.965 2213.04 172.377 Q2211.33 173.789 2208.46 173.789 L2205.06 173.789 L2205.06 170.224 L2207.56 170.224 Q2209.32 170.224 2210.29 169.391 Q2211.26 168.558 2212.44 165.456 L2213.2 163.511 L2202.72 138.002 L2207.23 138.002 L2215.33 158.28 L2223.44 138.002 L2227.95 138.002 L2216.56 166.336 Z" fill="#000000" fill-rule="nonzero" fill-opacity="1" /><path clip-path="url(#clip480)" d="M2235.24 159.993 L2242.88 159.993 L2242.88 133.627 L2234.57 135.294 L2234.57 131.035 L2242.83 129.368 L2247.51 129.368 L2247.51 159.993 L2255.15 159.993 L2255.15 163.928 L2235.24 163.928 L2235.24 159.993 Z" fill="#000000" fill-rule="nonzero" fill-opacity="1" /></svg>
