<?xml version="1.0" encoding="utf-8"?>
<svg xmlns="http://www.w3.org/2000/svg" xmlns:xlink="http://www.w3.org/1999/xlink" width="800" height="300" viewBox="0 0 3200 1200">
<defs>
  <clipPath id="clip540">
    <rect x="0" y="0" width="3200" height="1200"/>
  </clipPath>
</defs>
<path clip-path="url(#clip540)" d="M0 1200 L3200 1200 L3200 0 L0 0  Z" fill="#ffffff" fill-rule="evenodd" fill-opacity="1"/>
<defs>
  <clipPath id="clip541">
    <rect x="640" y="0" width="2241" height="1200"/>
  </clipPath>
</defs>
<path clip-path="url(#clip540)" d="M211.356 1051.41 L1505.27 1051.41 L1505.27 94.4882 L211.356 94.4882  Z" fill="#ffffff" fill-rule="evenodd" fill-opacity="1"/>
<defs>
  <clipPath id="clip542">
    <rect x="211" y="94" width="1295" height="958"/>
  </clipPath>
</defs>
<polyline clip-path="url(#clip542)" style="stroke:#000000; stroke-linecap:round; stroke-linejoin:round; stroke-width:2; stroke-opacity:0.1; fill:none" points="247.976,1051.41 247.976,94.4882 "/>
<polyline clip-path="url(#clip542)" style="stroke:#000000; stroke-linecap:round; stroke-linejoin:round; stroke-width:2; stroke-opacity:0.1; fill:none" points="1010.9,1051.41 1010.9,94.4882 "/>
<polyline clip-path="url(#clip542)" style="stroke:#000000; stroke-linecap:round; stroke-linejoin:round; stroke-width:2; stroke-opacity:0.1; fill:none" points="211.356,1024.41 1505.27,1024.41 "/>
<polyline clip-path="url(#clip542)" style="stroke:#000000; stroke-linecap:round; stroke-linejoin:round; stroke-width:2; stroke-opacity:0.1; fill:none" points="211.356,825.999 1505.27,825.999 "/>
<polyline clip-path="url(#clip542)" style="stroke:#000000; stroke-linecap:round; stroke-linejoin:round; stroke-width:2; stroke-opacity:0.1; fill:none" points="211.356,627.584 1505.27,627.584 "/>
<polyline clip-path="url(#clip542)" style="stroke:#000000; stroke-linecap:round; stroke-linejoin:round; stroke-width:2; stroke-opacity:0.1; fill:none" points="211.356,429.17 1505.27,429.17 "/>
<polyline clip-path="url(#clip542)" style="stroke:#000000; stroke-linecap:round; stroke-linejoin:round; stroke-width:2; stroke-opacity:0.1; fill:none" points="211.356,230.755 1505.27,230.755 "/>
<polyline clip-path="url(#clip540)" style="stroke:#000000; stroke-linecap:round; stroke-linejoin:round; stroke-width:4; stroke-opacity:1; fill:none" points="211.356,1051.41 1505.27,1051.41 "/>
<polyline clip-path="url(#clip540)" style="stroke:#000000; stroke-linecap:round; stroke-linejoin:round; stroke-width:4; stroke-opacity:1; fill:none" points="247.976,1051.41 247.976,1032.52 "/>
<polyline clip-path="url(#clip540)" style="stroke:#000000; stroke-linecap:round; stroke-linejoin:round; stroke-width:4; stroke-opacity:1; fill:none" points="1010.9,1051.41 1010.9,1032.52 "/>
<path clip-path="url(#clip540)" d="M185.34 1131.94 L192.979 1131.94 L192.979 1105.57 L184.669 1107.24 L184.669 1102.98 L192.933 1101.31 L197.608 1101.31 L197.608 1131.94 L205.247 1131.94 L205.247 1135.87 L185.34 1135.87 L185.34 1131.94 Z" fill="#000000" fill-rule="nonzero" fill-opacity="1" /><path clip-path="url(#clip540)" d="M224.692 1104.39 Q221.081 1104.39 219.252 1107.96 Q217.446 1111.5 217.446 1118.63 Q217.446 1125.74 219.252 1129.3 Q221.081 1132.84 224.692 1132.84 Q228.326 1132.84 230.131 1129.3 Q231.96 1125.74 231.96 1118.63 Q231.96 1111.5 230.131 1107.96 Q228.326 1104.39 224.692 1104.39 M224.692 1100.69 Q230.502 1100.69 233.557 1105.3 Q236.636 1109.88 236.636 1118.63 Q236.636 1127.36 233.557 1131.96 Q230.502 1136.55 224.692 1136.55 Q218.881 1136.55 215.803 1131.96 Q212.747 1127.36 212.747 1118.63 Q212.747 1109.88 215.803 1105.3 Q218.881 1100.69 224.692 1100.69 Z" fill="#000000" fill-rule="nonzero" fill-opacity="1" /><path clip-path="url(#clip540)" d="M236.636 1094.79 L260.748 1094.79 L260.748 1097.99 L236.636 1097.99 L236.636 1094.79 Z" fill="#000000" fill-rule="nonzero" fill-opacity="1" /><path clip-path="url(#clip540)" d="M269.606 1105.27 L275.813 1105.27 L275.813 1083.84 L269.061 1085.2 L269.061 1081.74 L275.775 1080.38 L279.574 1080.38 L279.574 1105.27 L285.781 1105.27 L285.781 1108.46 L269.606 1108.46 L269.606 1105.27 Z" fill="#000000" fill-rule="nonzero" fill-opacity="1" /><path clip-path="url(#clip540)" d="M301.579 1082.89 Q298.645 1082.89 297.159 1085.78 Q295.692 1088.66 295.692 1094.45 Q295.692 1100.23 297.159 1103.12 Q298.645 1106 301.579 1106 Q304.532 1106 305.999 1103.12 Q307.485 1100.23 307.485 1094.45 Q307.485 1088.66 305.999 1085.78 Q304.532 1082.89 301.579 1082.89 M301.579 1079.88 Q306.3 1079.88 308.783 1083.62 Q311.284 1087.34 311.284 1094.45 Q311.284 1101.54 308.783 1105.29 Q306.3 1109.01 301.579 1109.01 Q296.859 1109.01 294.357 1105.29 Q291.874 1101.54 291.874 1094.45 Q291.874 1087.34 294.357 1083.62 Q296.859 1079.88 301.579 1079.88 Z" fill="#000000" fill-rule="nonzero" fill-opacity="1" /><path clip-path="url(#clip540)" d="M960.918 1131.94 L968.557 1131.94 L968.557 1105.57 L960.246 1107.24 L960.246 1102.98 L968.51 1101.31 L973.186 1101.31 L973.186 1131.94 L980.825 1131.94 L980.825 1135.87 L960.918 1135.87 L960.918 1131.94 Z" fill="#000000" fill-rule="nonzero" fill-opacity="1" /><path clip-path="url(#clip540)" d="M1000.27 1104.39 Q996.658 1104.39 994.83 1107.96 Q993.024 1111.5 993.024 1118.63 Q993.024 1125.74 994.83 1129.3 Q996.658 1132.84 1000.27 1132.84 Q1003.9 1132.84 1005.71 1129.3 Q1007.54 1125.74 1007.54 1118.63 Q1007.54 1111.5 1005.71 1107.96 Q1003.9 1104.39 1000.27 1104.39 M1000.27 1100.69 Q1006.08 1100.69 1009.14 1105.3 Q1012.21 1109.88 1012.21 1118.63 Q1012.21 1127.36 1009.14 1131.96 Q1006.08 1136.55 1000.27 1136.55 Q994.459 1136.55 991.381 1131.96 Q988.325 1127.36 988.325 1118.63 Q988.325 1109.88 991.381 1105.3 Q994.459 1100.69 1000.27 1100.69 Z" fill="#000000" fill-rule="nonzero" fill-opacity="1" /><path clip-path="url(#clip540)" d="M1012.21 1094.79 L1036.33 1094.79 L1036.33 1097.99 L1012.21 1097.99 L1012.21 1094.79 Z" fill="#000000" fill-rule="nonzero" fill-opacity="1" /><path clip-path="url(#clip540)" d="M1044.56 1080.38 L1059.48 1080.38 L1059.48 1083.58 L1048.04 1083.58 L1048.04 1090.47 Q1048.87 1090.18 1049.7 1090.05 Q1050.53 1089.9 1051.35 1089.9 Q1056.05 1089.9 1058.8 1092.48 Q1061.55 1095.05 1061.55 1099.46 Q1061.55 1103.99 1058.73 1106.51 Q1055.9 1109.01 1050.77 1109.01 Q1049 1109.01 1047.16 1108.71 Q1045.33 1108.41 1043.38 1107.81 L1043.38 1103.99 Q1045.07 1104.91 1046.88 1105.36 Q1048.68 1105.81 1050.69 1105.81 Q1053.95 1105.81 1055.85 1104.1 Q1057.75 1102.39 1057.75 1099.46 Q1057.75 1096.52 1055.85 1094.81 Q1053.95 1093.1 1050.69 1093.1 Q1049.17 1093.1 1047.65 1093.44 Q1046.14 1093.78 1044.56 1094.49 L1044.56 1080.38 Z" fill="#000000" fill-rule="nonzero" fill-opacity="1" /><polyline clip-path="url(#clip540)" style="stroke:#000000; stroke-linecap:round; stroke-linejoin:round; stroke-width:4; stroke-opacity:1; fill:none" points="211.356,1051.41 211.356,94.4882 "/>
<polyline clip-path="url(#clip540)" style="stroke:#000000; stroke-linecap:round; stroke-linejoin:round; stroke-width:4; stroke-opacity:1; fill:none" points="211.356,1024.41 230.254,1024.41 "/>
<polyline clip-path="url(#clip540)" style="stroke:#000000; stroke-linecap:round; stroke-linejoin:round; stroke-width:4; stroke-opacity:1; fill:none" points="211.356,825.999 230.254,825.999 "/>
<polyline clip-path="url(#clip540)" style="stroke:#000000; stroke-linecap:round; stroke-linejoin:round; stroke-width:4; stroke-opacity:1; fill:none" points="211.356,627.584 230.254,627.584 "/>
<polyline clip-path="url(#clip540)" style="stroke:#000000; stroke-linecap:round; stroke-linejoin:round; stroke-width:4; stroke-opacity:1; fill:none" points="211.356,429.17 230.254,429.17 "/>
<polyline clip-path="url(#clip540)" style="stroke:#000000; stroke-linecap:round; stroke-linejoin:round; stroke-width:4; stroke-opacity:1; fill:none" points="211.356,230.755 230.254,230.755 "/>
<path clip-path="url(#clip540)" d="M106.181 1010.21 Q102.57 1010.21 100.741 1013.78 Q98.9353 1017.32 98.9353 1024.45 Q98.9353 1031.55 100.741 1035.12 Q102.57 1038.66 106.181 1038.66 Q109.815 1038.66 111.62 1035.12 Q113.449 1031.55 113.449 1024.45 Q113.449 1017.32 111.62 1013.78 Q109.815 1010.21 106.181 1010.21 M106.181 1006.51 Q111.991 1006.51 115.046 1011.11 Q118.125 1015.7 118.125 1024.45 Q118.125 1033.17 115.046 1037.78 Q111.991 1042.36 106.181 1042.36 Q100.37 1042.36 97.2918 1037.78 Q94.2362 1033.17 94.2362 1024.45 Q94.2362 1015.7 97.2918 1011.11 Q100.37 1006.51 106.181 1006.51 Z" fill="#000000" fill-rule="nonzero" fill-opacity="1" /><path clip-path="url(#clip540)" d="M126.343 1035.81 L131.227 1035.81 L131.227 1041.69 L126.343 1041.69 L126.343 1035.81 Z" fill="#000000" fill-rule="nonzero" fill-opacity="1" /><path clip-path="url(#clip540)" d="M151.412 1010.21 Q147.801 1010.21 145.972 1013.78 Q144.167 1017.32 144.167 1024.45 Q144.167 1031.55 145.972 1035.12 Q147.801 1038.66 151.412 1038.66 Q155.046 1038.66 156.852 1035.12 Q158.68 1031.55 158.68 1024.45 Q158.68 1017.32 156.852 1013.78 Q155.046 1010.21 151.412 1010.21 M151.412 1006.51 Q157.222 1006.51 160.278 1011.11 Q163.356 1015.7 163.356 1024.45 Q163.356 1033.17 160.278 1037.78 Q157.222 1042.36 151.412 1042.36 Q145.602 1042.36 142.523 1037.78 Q139.467 1033.17 139.467 1024.45 Q139.467 1015.7 142.523 1011.11 Q145.602 1006.51 151.412 1006.51 Z" fill="#000000" fill-rule="nonzero" fill-opacity="1" /><path clip-path="url(#clip540)" d="M107.176 811.797 Q103.565 811.797 101.736 815.362 Q99.9306 818.904 99.9306 826.033 Q99.9306 833.14 101.736 836.705 Q103.565 840.246 107.176 840.246 Q110.81 840.246 112.616 836.705 Q114.444 833.14 114.444 826.033 Q114.444 818.904 112.616 815.362 Q110.81 811.797 107.176 811.797 M107.176 808.094 Q112.986 808.094 116.042 812.7 Q119.12 817.283 119.12 826.033 Q119.12 834.76 116.042 839.367 Q112.986 843.95 107.176 843.95 Q101.366 843.95 98.2871 839.367 Q95.2316 834.76 95.2316 826.033 Q95.2316 817.283 98.2871 812.7 Q101.366 808.094 107.176 808.094 Z" fill="#000000" fill-rule="nonzero" fill-opacity="1" /><path clip-path="url(#clip540)" d="M127.338 837.399 L132.222 837.399 L132.222 843.279 L127.338 843.279 L127.338 837.399 Z" fill="#000000" fill-rule="nonzero" fill-opacity="1" /><path clip-path="url(#clip540)" d="M142.454 808.719 L160.81 808.719 L160.81 812.654 L146.736 812.654 L146.736 821.126 Q147.754 820.779 148.773 820.617 Q149.791 820.431 150.81 820.431 Q156.597 820.431 159.977 823.603 Q163.356 826.774 163.356 832.191 Q163.356 837.769 159.884 840.871 Q156.412 843.95 150.092 843.95 Q147.916 843.95 145.648 843.58 Q143.403 843.209 140.995 842.468 L140.995 837.769 Q143.079 838.904 145.301 839.459 Q147.523 840.015 150 840.015 Q154.004 840.015 156.342 837.908 Q158.68 835.802 158.68 832.191 Q158.68 828.58 156.342 826.473 Q154.004 824.367 150 824.367 Q148.125 824.367 146.25 824.783 Q144.398 825.2 142.454 826.08 L142.454 808.719 Z" fill="#000000" fill-rule="nonzero" fill-opacity="1" /><path clip-path="url(#clip540)" d="M96.9908 640.929 L104.63 640.929 L104.63 614.563 L96.3195 616.23 L96.3195 611.971 L104.583 610.304 L109.259 610.304 L109.259 640.929 L116.898 640.929 L116.898 644.864 L96.9908 644.864 L96.9908 640.929 Z" fill="#000000" fill-rule="nonzero" fill-opacity="1" /><path clip-path="url(#clip540)" d="M126.343 638.985 L131.227 638.985 L131.227 644.864 L126.343 644.864 L126.343 638.985 Z" fill="#000000" fill-rule="nonzero" fill-opacity="1" /><path clip-path="url(#clip540)" d="M151.412 613.383 Q147.801 613.383 145.972 616.948 Q144.167 620.489 144.167 627.619 Q144.167 634.725 145.972 638.29 Q147.801 641.832 151.412 641.832 Q155.046 641.832 156.852 638.29 Q158.68 634.725 158.68 627.619 Q158.68 620.489 156.852 616.948 Q155.046 613.383 151.412 613.383 M151.412 609.679 Q157.222 609.679 160.278 614.286 Q163.356 618.869 163.356 627.619 Q163.356 636.346 160.278 640.952 Q157.222 645.535 151.412 645.535 Q145.602 645.535 142.523 640.952 Q139.467 636.346 139.467 627.619 Q139.467 618.869 142.523 614.286 Q145.602 609.679 151.412 609.679 Z" fill="#000000" fill-rule="nonzero" fill-opacity="1" /><path clip-path="url(#clip540)" d="M97.9862 442.515 L105.625 442.515 L105.625 416.149 L97.3149 417.816 L97.3149 413.556 L105.579 411.89 L110.255 411.89 L110.255 442.515 L117.894 442.515 L117.894 446.45 L97.9862 446.45 L97.9862 442.515 Z" fill="#000000" fill-rule="nonzero" fill-opacity="1" /><path clip-path="url(#clip540)" d="M127.338 440.57 L132.222 440.57 L132.222 446.45 L127.338 446.45 L127.338 440.57 Z" fill="#000000" fill-rule="nonzero" fill-opacity="1" /><path clip-path="url(#clip540)" d="M142.454 411.89 L160.81 411.89 L160.81 415.825 L146.736 415.825 L146.736 424.297 Q147.754 423.95 148.773 423.788 Q149.791 423.603 150.81 423.603 Q156.597 423.603 159.977 426.774 Q163.356 429.945 163.356 435.362 Q163.356 440.94 159.884 444.042 Q156.412 447.121 150.092 447.121 Q147.916 447.121 145.648 446.751 Q143.403 446.38 140.995 445.64 L140.995 440.94 Q143.079 442.075 145.301 442.63 Q147.523 443.186 150 443.186 Q154.004 443.186 156.342 441.079 Q158.68 438.973 158.68 435.362 Q158.68 431.751 156.342 429.644 Q154.004 427.538 150 427.538 Q148.125 427.538 146.25 427.954 Q144.398 428.371 142.454 429.251 L142.454 411.89 Z" fill="#000000" fill-rule="nonzero" fill-opacity="1" /><path clip-path="url(#clip540)" d="M100.208 244.1 L116.528 244.1 L116.528 248.035 L94.5834 248.035 L94.5834 244.1 Q97.2455 241.345 101.829 236.716 Q106.435 232.063 107.616 230.721 Q109.861 228.197 110.741 226.461 Q111.644 224.702 111.644 223.012 Q111.644 220.258 109.699 218.522 Q107.778 216.785 104.676 216.785 Q102.477 216.785 100.023 217.549 Q97.5927 218.313 94.8149 219.864 L94.8149 215.142 Q97.639 214.008 100.093 213.429 Q102.546 212.85 104.583 212.85 Q109.954 212.85 113.148 215.535 Q116.343 218.221 116.343 222.711 Q116.343 224.841 115.532 226.762 Q114.745 228.66 112.639 231.253 Q112.06 231.924 108.958 235.142 Q105.857 238.336 100.208 244.1 Z" fill="#000000" fill-rule="nonzero" fill-opacity="1" /><path clip-path="url(#clip540)" d="M126.343 242.156 L131.227 242.156 L131.227 248.035 L126.343 248.035 L126.343 242.156 Z" fill="#000000" fill-rule="nonzero" fill-opacity="1" /><path clip-path="url(#clip540)" d="M151.412 216.554 Q147.801 216.554 145.972 220.119 Q144.167 223.66 144.167 230.79 Q144.167 237.896 145.972 241.461 Q147.801 245.003 151.412 245.003 Q155.046 245.003 156.852 241.461 Q158.68 237.896 158.68 230.79 Q158.68 223.66 156.852 220.119 Q155.046 216.554 151.412 216.554 M151.412 212.85 Q157.222 212.85 160.278 217.457 Q163.356 222.04 163.356 230.79 Q163.356 239.517 160.278 244.123 Q157.222 248.707 151.412 248.707 Q145.602 248.707 142.523 244.123 Q139.467 239.517 139.467 230.79 Q139.467 222.04 142.523 217.457 Q145.602 212.85 151.412 212.85 Z" fill="#000000" fill-rule="nonzero" fill-opacity="1" /><polyline clip-path="url(#clip542)" style="stroke:#000000; stroke-linecap:round; stroke-linejoin:round; stroke-width:4; stroke-opacity:1; fill:none" points="247.976,1024.33 247.976,1024.32 "/>
<polyline clip-path="url(#clip542)" style="stroke:#000000; stroke-linecap:round; stroke-linejoin:round; stroke-width:4; stroke-opacity:1; fill:none" points="329.355,1024.14 329.355,1024.08 "/>
<polyline clip-path="url(#clip542)" style="stroke:#000000; stroke-linecap:round; stroke-linejoin:round; stroke-width:4; stroke-opacity:1; fill:none" points="410.733,1023.57 410.733,1023.44 "/>
<polyline clip-path="url(#clip542)" style="stroke:#000000; stroke-linecap:round; stroke-linejoin:round; stroke-width:4; stroke-opacity:1; fill:none" points="492.111,1021.7 492.111,1021.19 "/>
<polyline clip-path="url(#clip542)" style="stroke:#000000; stroke-linecap:round; stroke-linejoin:round; stroke-width:4; stroke-opacity:1; fill:none" points="573.489,1015.91 573.489,1015.18 "/>
<polyline clip-path="url(#clip542)" style="stroke:#000000; stroke-linecap:round; stroke-linejoin:round; stroke-width:4; stroke-opacity:1; fill:none" points="654.867,998.811 654.867,996.041 "/>
<polyline clip-path="url(#clip542)" style="stroke:#000000; stroke-linecap:round; stroke-linejoin:round; stroke-width:4; stroke-opacity:1; fill:none" points="736.245,946.107 736.245,944.019 "/>
<polyline clip-path="url(#clip542)" style="stroke:#000000; stroke-linecap:round; stroke-linejoin:round; stroke-width:4; stroke-opacity:1; fill:none" points="817.623,849.743 817.623,813.146 "/>
<polyline clip-path="url(#clip542)" style="stroke:#000000; stroke-linecap:round; stroke-linejoin:round; stroke-width:4; stroke-opacity:1; fill:none" points="899.002,687.408 899.002,675.668 "/>
<polyline clip-path="url(#clip542)" style="stroke:#000000; stroke-linecap:round; stroke-linejoin:round; stroke-width:4; stroke-opacity:1; fill:none" points="980.38,612.484 980.38,558.016 "/>
<polyline clip-path="url(#clip542)" style="stroke:#000000; stroke-linecap:round; stroke-linejoin:round; stroke-width:4; stroke-opacity:1; fill:none" points="1061.76,534.318 1061.76,505.08 "/>
<polyline clip-path="url(#clip542)" style="stroke:#000000; stroke-linecap:round; stroke-linejoin:round; stroke-width:4; stroke-opacity:1; fill:none" points="1143.14,429.144 1143.14,353.443 "/>
<polyline clip-path="url(#clip542)" style="stroke:#000000; stroke-linecap:round; stroke-linejoin:round; stroke-width:4; stroke-opacity:1; fill:none" points="1224.51,259.862 1224.51,135.96 "/>
<polyline clip-path="url(#clip542)" style="stroke:#000000; stroke-linecap:round; stroke-linejoin:round; stroke-width:4; stroke-opacity:1; fill:none" points="1305.89,230.926 1305.89,200.091 "/>
<polyline clip-path="url(#clip542)" style="stroke:#000000; stroke-linecap:round; stroke-linejoin:round; stroke-width:4; stroke-opacity:1; fill:none" points="1387.27,237.497 1387.27,121.571 "/>
<polyline clip-path="url(#clip542)" style="stroke:#000000; stroke-linecap:round; stroke-linejoin:round; stroke-width:4; stroke-opacity:1; fill:none" points="1468.65,199.471 1468.65,161.14 "/>
<line clip-path="url(#clip542)" x1="263.976" y1="1024.33" x2="231.976" y2="1024.33" style="stroke:#000000; stroke-width:4; stroke-opacity:1"/>
<line clip-path="url(#clip542)" x1="263.976" y1="1024.32" x2="231.976" y2="1024.32" style="stroke:#000000; stroke-width:4; stroke-opacity:1"/>
<line clip-path="url(#clip542)" x1="345.355" y1="1024.14" x2="313.355" y2="1024.14" style="stroke:#000000; stroke-width:4; stroke-opacity:1"/>
<line clip-path="url(#clip542)" x1="345.355" y1="1024.08" x2="313.355" y2="1024.08" style="stroke:#000000; stroke-width:4; stroke-opacity:1"/>
<line clip-path="url(#clip542)" x1="426.733" y1="1023.57" x2="394.733" y2="1023.57" style="stroke:#000000; stroke-width:4; stroke-opacity:1"/>
<line clip-path="url(#clip542)" x1="426.733" y1="1023.44" x2="394.733" y2="1023.44" style="stroke:#000000; stroke-width:4; stroke-opacity:1"/>
<line clip-path="url(#clip542)" x1="508.111" y1="1021.7" x2="476.111" y2="1021.7" style="stroke:#000000; stroke-width:4; stroke-opacity:1"/>
<line clip-path="url(#clip542)" x1="508.111" y1="1021.19" x2="476.111" y2="1021.19" style="stroke:#000000; stroke-width:4; stroke-opacity:1"/>
<line clip-path="url(#clip542)" x1="589.489" y1="1015.91" x2="557.489" y2="1015.91" style="stroke:#000000; stroke-width:4; stroke-opacity:1"/>
<line clip-path="url(#clip542)" x1="589.489" y1="1015.18" x2="557.489" y2="1015.18" style="stroke:#000000; stroke-width:4; stroke-opacity:1"/>
<line clip-path="url(#clip542)" x1="670.867" y1="998.811" x2="638.867" y2="998.811" style="stroke:#000000; stroke-width:4; stroke-opacity:1"/>
<line clip-path="url(#clip542)" x1="670.867" y1="996.041" x2="638.867" y2="996.041" style="stroke:#000000; stroke-width:4; stroke-opacity:1"/>
<line clip-path="url(#clip542)" x1="752.245" y1="946.107" x2="720.245" y2="946.107" style="stroke:#000000; stroke-width:4; stroke-opacity:1"/>
<line clip-path="url(#clip542)" x1="752.245" y1="944.019" x2="720.245" y2="944.019" style="stroke:#000000; stroke-width:4; stroke-opacity:1"/>
<line clip-path="url(#clip542)" x1="833.623" y1="849.743" x2="801.623" y2="849.743" style="stroke:#000000; stroke-width:4; stroke-opacity:1"/>
<line clip-path="url(#clip542)" x1="833.623" y1="813.146" x2="801.623" y2="813.146" style="stroke:#000000; stroke-width:4; stroke-opacity:1"/>
<line clip-path="url(#clip542)" x1="915.002" y1="687.408" x2="883.002" y2="687.408" style="stroke:#000000; stroke-width:4; stroke-opacity:1"/>
<line clip-path="url(#clip542)" x1="915.002" y1="675.668" x2="883.002" y2="675.668" style="stroke:#000000; stroke-width:4; stroke-opacity:1"/>
<line clip-path="url(#clip542)" x1="996.38" y1="612.484" x2="964.38" y2="612.484" style="stroke:#000000; stroke-width:4; stroke-opacity:1"/>
<line clip-path="url(#clip542)" x1="996.38" y1="558.016" x2="964.38" y2="558.016" style="stroke:#000000; stroke-width:4; stroke-opacity:1"/>
<line clip-path="url(#clip542)" x1="1077.76" y1="534.318" x2="1045.76" y2="534.318" style="stroke:#000000; stroke-width:4; stroke-opacity:1"/>
<line clip-path="url(#clip542)" x1="1077.76" y1="505.08" x2="1045.76" y2="505.08" style="stroke:#000000; stroke-width:4; stroke-opacity:1"/>
<line clip-path="url(#clip542)" x1="1159.14" y1="429.144" x2="1127.14" y2="429.144" style="stroke:#000000; stroke-width:4; stroke-opacity:1"/>
<line clip-path="url(#clip542)" x1="1159.14" y1="353.443" x2="1127.14" y2="353.443" style="stroke:#000000; stroke-width:4; stroke-opacity:1"/>
<line clip-path="url(#clip542)" x1="1240.51" y1="259.862" x2="1208.51" y2="259.862" style="stroke:#000000; stroke-width:4; stroke-opacity:1"/>
<line clip-path="url(#clip542)" x1="1240.51" y1="135.96" x2="1208.51" y2="135.96" style="stroke:#000000; stroke-width:4; stroke-opacity:1"/>
<line clip-path="url(#clip542)" x1="1321.89" y1="230.926" x2="1289.89" y2="230.926" style="stroke:#000000; stroke-width:4; stroke-opacity:1"/>
<line clip-path="url(#clip542)" x1="1321.89" y1="200.091" x2="1289.89" y2="200.091" style="stroke:#000000; stroke-width:4; stroke-opacity:1"/>
<line clip-path="url(#clip542)" x1="1403.27" y1="237.497" x2="1371.27" y2="237.497" style="stroke:#000000; stroke-width:4; stroke-opacity:1"/>
<line clip-path="url(#clip542)" x1="1403.27" y1="121.571" x2="1371.27" y2="121.571" style="stroke:#000000; stroke-width:4; stroke-opacity:1"/>
<line clip-path="url(#clip542)" x1="1484.65" y1="199.471" x2="1452.65" y2="199.471" style="stroke:#000000; stroke-width:4; stroke-opacity:1"/>
<line clip-path="url(#clip542)" x1="1484.65" y1="161.14" x2="1452.65" y2="161.14" style="stroke:#000000; stroke-width:4; stroke-opacity:1"/>
<circle clip-path="url(#clip542)" cx="247.976" cy="1024.33" r="14.4" fill="#009af9" fill-rule="evenodd" fill-opacity="1" stroke="#000000" stroke-opacity="1" stroke-width="2.4"/>
<circle clip-path="url(#clip542)" cx="329.355" cy="1024.11" r="14.4" fill="#009af9" fill-rule="evenodd" fill-opacity="1" stroke="#000000" stroke-opacity="1" stroke-width="2.4"/>
<circle clip-path="url(#clip542)" cx="410.733" cy="1023.5" r="14.4" fill="#009af9" fill-rule="evenodd" fill-opacity="1" stroke="#000000" stroke-opacity="1" stroke-width="2.4"/>
<circle clip-path="url(#clip542)" cx="492.111" cy="1021.44" r="14.4" fill="#009af9" fill-rule="evenodd" fill-opacity="1" stroke="#000000" stroke-opacity="1" stroke-width="2.4"/>
<circle clip-path="url(#clip542)" cx="573.489" cy="1015.54" r="14.4" fill="#009af9" fill-rule="evenodd" fill-opacity="1" stroke="#000000" stroke-opacity="1" stroke-width="2.4"/>
<circle clip-path="url(#clip542)" cx="654.867" cy="997.426" r="14.4" fill="#009af9" fill-rule="evenodd" fill-opacity="1" stroke="#000000" stroke-opacity="1" stroke-width="2.4"/>
<circle clip-path="url(#clip542)" cx="736.245" cy="945.063" r="14.4" fill="#009af9" fill-rule="evenodd" fill-opacity="1" stroke="#000000" stroke-opacity="1" stroke-width="2.4"/>
<circle clip-path="url(#clip542)" cx="817.623" cy="831.444" r="14.4" fill="#009af9" fill-rule="evenodd" fill-opacity="1" stroke="#000000" stroke-opacity="1" stroke-width="2.4"/>
<circle clip-path="url(#clip542)" cx="899.002" cy="681.538" r="14.4" fill="#009af9" fill-rule="evenodd" fill-opacity="1" stroke="#000000" stroke-opacity="1" stroke-width="2.4"/>
<circle clip-path="url(#clip542)" cx="980.38" cy="585.25" r="14.4" fill="#009af9" fill-rule="evenodd" fill-opacity="1" stroke="#000000" stroke-opacity="1" stroke-width="2.4"/>
<circle clip-path="url(#clip542)" cx="1061.76" cy="519.699" r="14.4" fill="#009af9" fill-rule="evenodd" fill-opacity="1" stroke="#000000" stroke-opacity="1" stroke-width="2.4"/>
<circle clip-path="url(#clip542)" cx="1143.14" cy="391.294" r="14.4" fill="#009af9" fill-rule="evenodd" fill-opacity="1" stroke="#000000" stroke-opacity="1" stroke-width="2.4"/>
<circle clip-path="url(#clip542)" cx="1224.51" cy="197.911" r="14.4" fill="#009af9" fill-rule="evenodd" fill-opacity="1" stroke="#000000" stroke-opacity="1" stroke-width="2.4"/>
<circle clip-path="url(#clip542)" cx="1305.89" cy="215.509" r="14.4" fill="#009af9" fill-rule="evenodd" fill-opacity="1" stroke="#000000" stroke-opacity="1" stroke-width="2.4"/>
<circle clip-path="url(#clip542)" cx="1387.27" cy="179.534" r="14.4" fill="#009af9" fill-rule="evenodd" fill-opacity="1" stroke="#000000" stroke-opacity="1" stroke-width="2.4"/>
<circle clip-path="url(#clip542)" cx="1468.65" cy="180.305" r="14.4" fill="#009af9" fill-rule="evenodd" fill-opacity="1" stroke="#000000" stroke-opacity="1" stroke-width="2.4"/>
<polyline clip-path="url(#clip542)" style="stroke:#e26f46; stroke-linecap:round; stroke-linejoin:round; stroke-width:4; stroke-opacity:1; fill:none" points="247.976,1024.33 329.355,1024.14 410.733,1023.5 492.111,1021.46 573.489,1015.34 654.867,997.44 736.245,945.181 817.623,827.699 899.002,681.458 980.38,592.136 1061.76,517.526 1143.14,386.102 1224.51,257.795 1305.89,212.316 1387.27,197.494 1468.65,179.967 "/>
<path clip-path="url(#clip540)" d="M254.487 281.906 L894.176 281.906 L894.176 126.386 L254.487 126.386  Z" fill="#ffffff" fill-rule="evenodd" fill-opacity="1"/>
<polyline clip-path="url(#clip540)" style="stroke:#000000; stroke-linecap:round; stroke-linejoin:round; stroke-width:4; stroke-opacity:1; fill:none" points="254.487,281.906 894.176,281.906 894.176,126.386 254.487,126.386 254.487,281.906 "/>
<circle clip-path="url(#clip540)" cx="311.994" cy="178.226" r="20.48" fill="#009af9" fill-rule="evenodd" fill-opacity="1" stroke="#000000" stroke-opacity="1" stroke-width="3.41333"/>
<path clip-path="url(#clip540)" d="M388.413 173.515 L388.413 159.487 L392.672 159.487 L392.672 195.506 L388.413 195.506 L388.413 191.617 Q387.07 193.932 385.01 195.066 Q382.973 196.177 380.103 196.177 Q375.404 196.177 372.441 192.427 Q369.501 188.677 369.501 182.566 Q369.501 176.455 372.441 172.705 Q375.404 168.955 380.103 168.955 Q382.973 168.955 385.01 170.089 Q387.07 171.2 388.413 173.515 M373.899 182.566 Q373.899 187.265 375.82 189.95 Q377.765 192.612 381.145 192.612 Q384.524 192.612 386.469 189.95 Q388.413 187.265 388.413 182.566 Q388.413 177.867 386.469 175.205 Q384.524 172.52 381.145 172.52 Q377.765 172.52 375.82 175.205 Q373.899 177.867 373.899 182.566 Z" fill="#000000" fill-rule="nonzero" fill-opacity="1" /><path clip-path="url(#clip540)" d="M413.228 182.473 Q408.066 182.473 406.075 183.654 Q404.084 184.834 404.084 187.682 Q404.084 189.95 405.566 191.293 Q407.07 192.612 409.64 192.612 Q413.181 192.612 415.311 190.112 Q417.464 187.589 417.464 183.422 L417.464 182.473 L413.228 182.473 M421.723 180.714 L421.723 195.506 L417.464 195.506 L417.464 191.571 Q416.005 193.932 413.83 195.066 Q411.654 196.177 408.506 196.177 Q404.524 196.177 402.163 193.955 Q399.825 191.709 399.825 187.959 Q399.825 183.584 402.742 181.362 Q405.681 179.14 411.492 179.14 L417.464 179.14 L417.464 178.723 Q417.464 175.784 415.519 174.186 Q413.598 172.566 410.103 172.566 Q407.881 172.566 405.774 173.098 Q403.668 173.631 401.723 174.696 L401.723 170.76 Q404.061 169.858 406.26 169.418 Q408.459 168.955 410.543 168.955 Q416.168 168.955 418.945 171.872 Q421.723 174.788 421.723 180.714 Z" fill="#000000" fill-rule="nonzero" fill-opacity="1" /><path clip-path="url(#clip540)" d="M434.709 162.219 L434.709 169.58 L443.482 169.58 L443.482 172.89 L434.709 172.89 L434.709 186.964 Q434.709 190.135 435.566 191.038 Q436.445 191.941 439.107 191.941 L443.482 191.941 L443.482 195.506 L439.107 195.506 Q434.177 195.506 432.302 193.677 Q430.427 191.825 430.427 186.964 L430.427 172.89 L427.302 172.89 L427.302 169.58 L430.427 169.58 L430.427 162.219 L434.709 162.219 Z" fill="#000000" fill-rule="nonzero" fill-opacity="1" /><path clip-path="url(#clip540)" d="M460.866 182.473 Q455.704 182.473 453.714 183.654 Q451.723 184.834 451.723 187.682 Q451.723 189.95 453.204 191.293 Q454.709 192.612 457.278 192.612 Q460.82 192.612 462.95 190.112 Q465.102 187.589 465.102 183.422 L465.102 182.473 L460.866 182.473 M469.362 180.714 L469.362 195.506 L465.102 195.506 L465.102 191.571 Q463.644 193.932 461.468 195.066 Q459.292 196.177 456.144 196.177 Q452.163 196.177 449.802 193.955 Q447.464 191.709 447.464 187.959 Q447.464 183.584 450.38 181.362 Q453.32 179.14 459.13 179.14 L465.102 179.14 L465.102 178.723 Q465.102 175.784 463.158 174.186 Q461.237 172.566 457.741 172.566 Q455.519 172.566 453.413 173.098 Q451.306 173.631 449.362 174.696 L449.362 170.76 Q451.7 169.858 453.899 169.418 Q456.098 168.955 458.181 168.955 Q463.806 168.955 466.584 171.872 Q469.362 174.788 469.362 180.714 Z" fill="#000000" fill-rule="nonzero" fill-opacity="1" /><polyline clip-path="url(#clip540)" style="stroke:#e26f46; stroke-linecap:round; stroke-linejoin:round; stroke-width:4; stroke-opacity:1; fill:none" points="268.863,230.066 355.124,230.066 "/>
<path clip-path="url(#clip540)" d="M382.904 234.313 Q377.742 234.313 375.751 235.494 Q373.76 236.674 373.76 239.522 Q373.76 241.79 375.242 243.133 Q376.746 244.452 379.316 244.452 Q382.857 244.452 384.987 241.952 Q387.14 239.429 387.14 235.262 L387.14 234.313 L382.904 234.313 M391.399 232.554 L391.399 247.346 L387.14 247.346 L387.14 243.411 Q385.682 245.772 383.506 246.906 Q381.33 248.017 378.182 248.017 Q374.2 248.017 371.839 245.795 Q369.501 243.549 369.501 239.799 Q369.501 235.424 372.418 233.202 Q375.358 230.98 381.168 230.98 L387.14 230.98 L387.14 230.563 Q387.14 227.624 385.195 226.026 Q383.274 224.406 379.779 224.406 Q377.557 224.406 375.45 224.938 Q373.344 225.471 371.399 226.536 L371.399 222.6 Q373.737 221.698 375.936 221.258 Q378.135 220.795 380.219 220.795 Q385.844 220.795 388.621 223.712 Q391.399 226.628 391.399 232.554 Z" fill="#000000" fill-rule="nonzero" fill-opacity="1" /><path clip-path="url(#clip540)" d="M417.232 225.355 L417.232 211.327 L421.492 211.327 L421.492 247.346 L417.232 247.346 L417.232 243.457 Q415.89 245.772 413.83 246.906 Q411.793 248.017 408.922 248.017 Q404.223 248.017 401.26 244.267 Q398.32 240.517 398.32 234.406 Q398.32 228.295 401.26 224.545 Q404.223 220.795 408.922 220.795 Q411.793 220.795 413.83 221.929 Q415.89 223.04 417.232 225.355 M402.719 234.406 Q402.719 239.105 404.64 241.79 Q406.584 244.452 409.964 244.452 Q413.343 244.452 415.288 241.79 Q417.232 239.105 417.232 234.406 Q417.232 229.707 415.288 227.045 Q413.343 224.36 409.964 224.36 Q406.584 224.36 404.64 227.045 Q402.719 229.707 402.719 234.406 Z" fill="#000000" fill-rule="nonzero" fill-opacity="1" /><path clip-path="url(#clip540)" d="M442.047 234.313 Q436.885 234.313 434.894 235.494 Q432.904 236.674 432.904 239.522 Q432.904 241.79 434.385 243.133 Q435.89 244.452 438.459 244.452 Q442.001 244.452 444.13 241.952 Q446.283 239.429 446.283 235.262 L446.283 234.313 L442.047 234.313 M450.542 232.554 L450.542 247.346 L446.283 247.346 L446.283 243.411 Q444.825 245.772 442.649 246.906 Q440.473 248.017 437.325 248.017 Q433.343 248.017 430.982 245.795 Q428.644 243.549 428.644 239.799 Q428.644 235.424 431.561 233.202 Q434.501 230.98 440.311 230.98 L446.283 230.98 L446.283 230.563 Q446.283 227.624 444.339 226.026 Q442.417 224.406 438.922 224.406 Q436.7 224.406 434.593 224.938 Q432.487 225.471 430.542 226.536 L430.542 222.6 Q432.88 221.698 435.079 221.258 Q437.279 220.795 439.362 220.795 Q444.987 220.795 447.765 223.712 Q450.542 226.628 450.542 232.554 Z" fill="#000000" fill-rule="nonzero" fill-opacity="1" /><path clip-path="url(#clip540)" d="M463.436 243.457 L463.436 257.207 L459.153 257.207 L459.153 221.42 L463.436 221.42 L463.436 225.355 Q464.778 223.04 466.815 221.929 Q468.876 220.795 471.723 220.795 Q476.445 220.795 479.385 224.545 Q482.348 228.295 482.348 234.406 Q482.348 240.517 479.385 244.267 Q476.445 248.017 471.723 248.017 Q468.876 248.017 466.815 246.906 Q464.778 245.772 463.436 243.457 M477.926 234.406 Q477.926 229.707 475.982 227.045 Q474.061 224.36 470.681 224.36 Q467.301 224.36 465.357 227.045 Q463.436 229.707 463.436 234.406 Q463.436 239.105 465.357 241.79 Q467.301 244.452 470.681 244.452 Q474.061 244.452 475.982 241.79 Q477.926 239.105 477.926 234.406 Z" fill="#000000" fill-rule="nonzero" fill-opacity="1" /><path clip-path="url(#clip540)" d="M493.621 214.059 L493.621 221.42 L502.394 221.42 L502.394 224.73 L493.621 224.73 L493.621 238.804 Q493.621 241.975 494.477 242.878 Q495.357 243.781 498.019 243.781 L502.394 243.781 L502.394 247.346 L498.019 247.346 Q493.088 247.346 491.213 245.517 Q489.338 243.665 489.338 238.804 L489.338 224.73 L486.213 224.73 L486.213 221.42 L489.338 221.42 L489.338 214.059 L493.621 214.059 Z" fill="#000000" fill-rule="nonzero" fill-opacity="1" /><path clip-path="url(#clip540)" d="M507.996 221.42 L512.255 221.42 L512.255 247.346 L507.996 247.346 L507.996 221.42 M507.996 211.327 L512.255 211.327 L512.255 216.721 L507.996 216.721 L507.996 211.327 Z" fill="#000000" fill-rule="nonzero" fill-opacity="1" /><path clip-path="url(#clip540)" d="M518.111 221.42 L522.625 221.42 L530.727 243.179 L538.829 221.42 L543.343 221.42 L533.621 247.346 L527.834 247.346 L518.111 221.42 Z" fill="#000000" fill-rule="nonzero" fill-opacity="1" /><path clip-path="url(#clip540)" d="M571.398 233.318 L571.398 235.401 L551.815 235.401 Q552.093 239.799 554.454 242.114 Q556.838 244.406 561.074 244.406 Q563.528 244.406 565.819 243.804 Q568.134 243.202 570.403 241.999 L570.403 246.026 Q568.111 246.999 565.704 247.508 Q563.296 248.017 560.82 248.017 Q554.616 248.017 550.982 244.406 Q547.371 240.795 547.371 234.637 Q547.371 228.272 550.796 224.545 Q554.245 220.795 560.079 220.795 Q565.31 220.795 568.343 224.175 Q571.398 227.531 571.398 233.318 M567.139 232.068 Q567.093 228.573 565.171 226.489 Q563.273 224.406 560.125 224.406 Q556.56 224.406 554.408 226.42 Q552.278 228.434 551.954 232.091 L567.139 232.068 Z" fill="#000000" fill-rule="nonzero" fill-opacity="1" /><path clip-path="url(#clip540)" d="M598.088 255.216 L598.088 258.526 L573.458 258.526 L573.458 255.216 L598.088 255.216 Z" fill="#000000" fill-rule="nonzero" fill-opacity="1" /><path clip-path="url(#clip540)" d="M617.115 225.401 Q616.398 224.985 615.541 224.8 Q614.708 224.591 613.69 224.591 Q610.079 224.591 608.134 226.952 Q606.213 229.29 606.213 233.688 L606.213 247.346 L601.93 247.346 L601.93 221.42 L606.213 221.42 L606.213 225.448 Q607.555 223.087 609.708 221.952 Q611.861 220.795 614.94 220.795 Q615.379 220.795 615.912 220.864 Q616.444 220.911 617.092 221.026 L617.115 225.401 Z" fill="#000000" fill-rule="nonzero" fill-opacity="1" /><path clip-path="url(#clip540)" d="M642.717 233.318 L642.717 235.401 L623.134 235.401 Q623.412 239.799 625.773 242.114 Q628.157 244.406 632.393 244.406 Q634.847 244.406 637.139 243.804 Q639.453 243.202 641.722 241.999 L641.722 246.026 Q639.43 246.999 637.023 247.508 Q634.615 248.017 632.139 248.017 Q625.935 248.017 622.301 244.406 Q618.69 240.795 618.69 234.637 Q618.69 228.272 622.115 224.545 Q625.565 220.795 631.398 220.795 Q636.629 220.795 639.662 224.175 Q642.717 227.531 642.717 233.318 M638.458 232.068 Q638.412 228.573 636.49 226.489 Q634.592 224.406 631.444 224.406 Q627.879 224.406 625.727 226.42 Q623.597 228.434 623.273 232.091 L638.458 232.068 Z" fill="#000000" fill-rule="nonzero" fill-opacity="1" /><path clip-path="url(#clip540)" d="M666.236 222.184 L666.236 226.212 Q664.43 225.286 662.486 224.823 Q660.541 224.36 658.458 224.36 Q655.287 224.36 653.689 225.332 Q652.115 226.304 652.115 228.249 Q652.115 229.73 653.25 230.587 Q654.384 231.42 657.81 232.184 L659.268 232.508 Q663.805 233.48 665.703 235.262 Q667.624 237.022 667.624 240.193 Q667.624 243.804 664.754 245.911 Q661.907 248.017 656.907 248.017 Q654.824 248.017 652.555 247.6 Q650.31 247.207 647.81 246.397 L647.81 241.999 Q650.171 243.225 652.463 243.85 Q654.754 244.452 657 244.452 Q660.009 244.452 661.629 243.434 Q663.25 242.392 663.25 240.517 Q663.25 238.781 662.069 237.855 Q660.912 236.929 656.953 236.073 L655.472 235.725 Q651.513 234.892 649.754 233.179 Q647.995 231.443 647.995 228.434 Q647.995 224.776 650.588 222.786 Q653.18 220.795 657.949 220.795 Q660.31 220.795 662.393 221.142 Q664.476 221.489 666.236 222.184 Z" fill="#000000" fill-rule="nonzero" fill-opacity="1" /><path clip-path="url(#clip540)" d="M673.967 237.114 L673.967 221.42 L678.226 221.42 L678.226 236.952 Q678.226 240.633 679.661 242.485 Q681.097 244.313 683.967 244.313 Q687.416 244.313 689.407 242.114 Q691.421 239.915 691.421 236.119 L691.421 221.42 L695.68 221.42 L695.68 247.346 L691.421 247.346 L691.421 243.364 Q689.87 245.725 687.81 246.883 Q685.773 248.017 683.064 248.017 Q678.597 248.017 676.282 245.239 Q673.967 242.461 673.967 237.114 M684.685 220.795 L684.685 220.795 Z" fill="#000000" fill-rule="nonzero" fill-opacity="1" /><path clip-path="url(#clip540)" d="M704.453 211.327 L708.712 211.327 L708.712 247.346 L704.453 247.346 L704.453 211.327 Z" fill="#000000" fill-rule="nonzero" fill-opacity="1" /><path clip-path="url(#clip540)" d="M721.837 214.059 L721.837 221.42 L730.61 221.42 L730.61 224.73 L721.837 224.73 L721.837 238.804 Q721.837 241.975 722.694 242.878 Q723.573 243.781 726.235 243.781 L730.61 243.781 L730.61 247.346 L726.235 247.346 Q721.305 247.346 719.43 245.517 Q717.555 243.665 717.555 238.804 L717.555 224.73 L714.43 224.73 L714.43 221.42 L717.555 221.42 L717.555 214.059 L721.837 214.059 Z" fill="#000000" fill-rule="nonzero" fill-opacity="1" /><path clip-path="url(#clip540)" d="M736.814 241.466 L741.698 241.466 L741.698 247.346 L736.814 247.346 L736.814 241.466 Z" fill="#000000" fill-rule="nonzero" fill-opacity="1" /><path clip-path="url(#clip540)" d="M766.305 225.401 Q765.587 224.985 764.73 224.8 Q763.897 224.591 762.879 224.591 Q759.268 224.591 757.323 226.952 Q755.402 229.29 755.402 233.688 L755.402 247.346 L751.119 247.346 L751.119 221.42 L755.402 221.42 L755.402 225.448 Q756.744 223.087 758.897 221.952 Q761.05 220.795 764.129 220.795 Q764.568 220.795 765.101 220.864 Q765.633 220.911 766.281 221.026 L766.305 225.401 Z" fill="#000000" fill-rule="nonzero" fill-opacity="1" /><path clip-path="url(#clip540)" d="M791.906 233.318 L791.906 235.401 L772.323 235.401 Q772.601 239.799 774.962 242.114 Q777.346 244.406 781.582 244.406 Q784.036 244.406 786.328 243.804 Q788.642 243.202 790.911 241.999 L790.911 246.026 Q788.619 246.999 786.212 247.508 Q783.804 248.017 781.328 248.017 Q775.124 248.017 771.49 244.406 Q767.879 240.795 767.879 234.637 Q767.879 228.272 771.304 224.545 Q774.754 220.795 780.587 220.795 Q785.818 220.795 788.851 224.175 Q791.906 227.531 791.906 233.318 M787.647 232.068 Q787.601 228.573 785.679 226.489 Q783.781 224.406 780.633 224.406 Q777.068 224.406 774.916 226.42 Q772.786 228.434 772.462 232.091 L787.647 232.068 Z" fill="#000000" fill-rule="nonzero" fill-opacity="1" /><path clip-path="url(#clip540)" d="M815.425 222.184 L815.425 226.212 Q813.619 225.286 811.675 224.823 Q809.73 224.36 807.647 224.36 Q804.476 224.36 802.878 225.332 Q801.304 226.304 801.304 228.249 Q801.304 229.73 802.439 230.587 Q803.573 231.42 806.999 232.184 L808.457 232.508 Q812.994 233.48 814.892 235.262 Q816.814 237.022 816.814 240.193 Q816.814 243.804 813.943 245.911 Q811.096 248.017 806.096 248.017 Q804.013 248.017 801.744 247.6 Q799.499 247.207 796.999 246.397 L796.999 241.999 Q799.36 243.225 801.652 243.85 Q803.943 244.452 806.189 244.452 Q809.198 244.452 810.818 243.434 Q812.439 242.392 812.439 240.517 Q812.439 238.781 811.258 237.855 Q810.101 236.929 806.142 236.073 L804.661 235.725 Q800.702 234.892 798.943 233.179 Q797.184 231.443 797.184 228.434 Q797.184 224.776 799.777 222.786 Q802.369 220.795 807.138 220.795 Q809.499 220.795 811.582 221.142 Q813.665 221.489 815.425 222.184 Z" fill="#000000" fill-rule="nonzero" fill-opacity="1" /><path clip-path="url(#clip540)" d="M823.156 237.114 L823.156 221.42 L827.415 221.42 L827.415 236.952 Q827.415 240.633 828.85 242.485 Q830.286 244.313 833.156 244.313 Q836.605 244.313 838.596 242.114 Q840.61 239.915 840.61 236.119 L840.61 221.42 L844.869 221.42 L844.869 247.346 L840.61 247.346 L840.61 243.364 Q839.059 245.725 836.999 246.883 Q834.962 248.017 832.253 248.017 Q827.786 248.017 825.471 245.239 Q823.156 242.461 823.156 237.114 M833.874 220.795 L833.874 220.795 Z" fill="#000000" fill-rule="nonzero" fill-opacity="1" /><path clip-path="url(#clip540)" d="M853.642 211.327 L857.901 211.327 L857.901 247.346 L853.642 247.346 L853.642 211.327 Z" fill="#000000" fill-rule="nonzero" fill-opacity="1" /><path clip-path="url(#clip540)" d="M871.026 214.059 L871.026 221.42 L879.799 221.42 L879.799 224.73 L871.026 224.73 L871.026 238.804 Q871.026 241.975 871.883 242.878 Q872.762 243.781 875.424 243.781 L879.799 243.781 L879.799 247.346 L875.424 247.346 Q870.494 247.346 868.619 245.517 Q866.744 243.665 866.744 238.804 L866.744 224.73 L863.619 224.73 L863.619 221.42 L866.744 221.42 L866.744 214.059 L871.026 214.059 Z" fill="#000000" fill-rule="nonzero" fill-opacity="1" /><path clip-path="url(#clip540)" d="M1811.6 1051.41 L3105.51 1051.41 L3105.51 94.4882 L1811.6 94.4882  Z" fill="#ffffff" fill-rule="evenodd" fill-opacity="1"/>
<defs>
  <clipPath id="clip543">
    <rect x="1811" y="94" width="1295" height="958"/>
  </clipPath>
</defs>
<polyline clip-path="url(#clip543)" style="stroke:#000000; stroke-linecap:round; stroke-linejoin:round; stroke-width:2; stroke-opacity:0.1; fill:none" points="1970.29,1051.41 1970.29,94.4882 "/>
<polyline clip-path="url(#clip543)" style="stroke:#000000; stroke-linecap:round; stroke-linejoin:round; stroke-width:2; stroke-opacity:0.1; fill:none" points="2580.62,1051.41 2580.62,94.4882 "/>
<polyline clip-path="url(#clip543)" style="stroke:#000000; stroke-linecap:round; stroke-linejoin:round; stroke-width:2; stroke-opacity:0.1; fill:none" points="1811.6,1024.33 3105.51,1024.33 "/>
<polyline clip-path="url(#clip543)" style="stroke:#000000; stroke-linecap:round; stroke-linejoin:round; stroke-width:2; stroke-opacity:0.1; fill:none" points="1811.6,888.994 3105.51,888.994 "/>
<polyline clip-path="url(#clip543)" style="stroke:#000000; stroke-linecap:round; stroke-linejoin:round; stroke-width:2; stroke-opacity:0.1; fill:none" points="1811.6,753.657 3105.51,753.657 "/>
<polyline clip-path="url(#clip543)" style="stroke:#000000; stroke-linecap:round; stroke-linejoin:round; stroke-width:2; stroke-opacity:0.1; fill:none" points="1811.6,618.319 3105.51,618.319 "/>
<polyline clip-path="url(#clip543)" style="stroke:#000000; stroke-linecap:round; stroke-linejoin:round; stroke-width:2; stroke-opacity:0.1; fill:none" points="1811.6,482.982 3105.51,482.982 "/>
<polyline clip-path="url(#clip543)" style="stroke:#000000; stroke-linecap:round; stroke-linejoin:round; stroke-width:2; stroke-opacity:0.1; fill:none" points="1811.6,347.644 3105.51,347.644 "/>
<polyline clip-path="url(#clip543)" style="stroke:#000000; stroke-linecap:round; stroke-linejoin:round; stroke-width:2; stroke-opacity:0.1; fill:none" points="1811.6,212.307 3105.51,212.307 "/>
<polyline clip-path="url(#clip540)" style="stroke:#000000; stroke-linecap:round; stroke-linejoin:round; stroke-width:4; stroke-opacity:1; fill:none" points="1811.6,1051.41 3105.51,1051.41 "/>
<polyline clip-path="url(#clip540)" style="stroke:#000000; stroke-linecap:round; stroke-linejoin:round; stroke-width:4; stroke-opacity:1; fill:none" points="1970.29,1051.41 1970.29,1032.52 "/>
<polyline clip-path="url(#clip540)" style="stroke:#000000; stroke-linecap:round; stroke-linejoin:round; stroke-width:4; stroke-opacity:1; fill:none" points="2580.62,1051.41 2580.62,1032.52 "/>
<path clip-path="url(#clip540)" d="M1907.65 1131.94 L1915.29 1131.94 L1915.29 1105.57 L1906.98 1107.24 L1906.98 1102.98 L1915.24 1101.31 L1919.92 1101.31 L1919.92 1131.94 L1927.56 1131.94 L1927.56 1135.87 L1907.65 1135.87 L1907.65 1131.94 Z" fill="#000000" fill-rule="nonzero" fill-opacity="1" /><path clip-path="url(#clip540)" d="M1947 1104.39 Q1943.39 1104.39 1941.56 1107.96 Q1939.76 1111.5 1939.76 1118.63 Q1939.76 1125.74 1941.56 1129.3 Q1943.39 1132.84 1947 1132.84 Q1950.64 1132.84 1952.44 1129.3 Q1954.27 1125.74 1954.27 1118.63 Q1954.27 1111.5 1952.44 1107.96 Q1950.64 1104.39 1947 1104.39 M1947 1100.69 Q1952.81 1100.69 1955.87 1105.3 Q1958.95 1109.88 1958.95 1118.63 Q1958.95 1127.36 1955.87 1131.96 Q1952.81 1136.55 1947 1136.55 Q1941.19 1136.55 1938.11 1131.96 Q1935.06 1127.36 1935.06 1118.63 Q1935.06 1109.88 1938.11 1105.3 Q1941.19 1100.69 1947 1100.69 Z" fill="#000000" fill-rule="nonzero" fill-opacity="1" /><path clip-path="url(#clip540)" d="M1958.95 1094.79 L1983.06 1094.79 L1983.06 1097.99 L1958.95 1097.99 L1958.95 1094.79 Z" fill="#000000" fill-rule="nonzero" fill-opacity="1" /><path clip-path="url(#clip540)" d="M1991.92 1105.27 L1998.12 1105.27 L1998.12 1083.84 L1991.37 1085.2 L1991.37 1081.74 L1998.09 1080.38 L2001.88 1080.38 L2001.88 1105.27 L2008.09 1105.27 L2008.09 1108.46 L1991.92 1108.46 L1991.92 1105.27 Z" fill="#000000" fill-rule="nonzero" fill-opacity="1" /><path clip-path="url(#clip540)" d="M2023.89 1082.89 Q2020.96 1082.89 2019.47 1085.78 Q2018 1088.66 2018 1094.45 Q2018 1100.23 2019.47 1103.12 Q2020.96 1106 2023.89 1106 Q2026.84 1106 2028.31 1103.12 Q2029.8 1100.23 2029.8 1094.45 Q2029.8 1088.66 2028.31 1085.78 Q2026.84 1082.89 2023.89 1082.89 M2023.89 1079.88 Q2028.61 1079.88 2031.09 1083.62 Q2033.59 1087.34 2033.59 1094.45 Q2033.59 1101.54 2031.09 1105.29 Q2028.61 1109.01 2023.89 1109.01 Q2019.17 1109.01 2016.67 1105.29 Q2014.18 1101.54 2014.18 1094.45 Q2014.18 1087.34 2016.67 1083.62 Q2019.17 1079.88 2023.89 1079.88 Z" fill="#000000" fill-rule="nonzero" fill-opacity="1" /><path clip-path="url(#clip540)" d="M2530.64 1131.94 L2538.28 1131.94 L2538.28 1105.57 L2529.97 1107.24 L2529.97 1102.98 L2538.24 1101.31 L2542.91 1101.31 L2542.91 1131.94 L2550.55 1131.94 L2550.55 1135.87 L2530.64 1135.87 L2530.64 1131.94 Z" fill="#000000" fill-rule="nonzero" fill-opacity="1" /><path clip-path="url(#clip540)" d="M2570 1104.39 Q2566.38 1104.39 2564.56 1107.96 Q2562.75 1111.5 2562.75 1118.63 Q2562.75 1125.74 2564.56 1129.3 Q2566.38 1132.84 2570 1132.84 Q2573.63 1132.84 2575.44 1129.3 Q2577.26 1125.74 2577.26 1118.63 Q2577.26 1111.5 2575.44 1107.96 Q2573.63 1104.39 2570 1104.39 M2570 1100.69 Q2575.81 1100.69 2578.86 1105.3 Q2581.94 1109.88 2581.94 1118.63 Q2581.94 1127.36 2578.86 1131.96 Q2575.81 1136.55 2570 1136.55 Q2564.19 1136.55 2561.11 1131.96 Q2558.05 1127.36 2558.05 1118.63 Q2558.05 1109.88 2561.11 1105.3 Q2564.19 1100.69 2570 1100.69 Z" fill="#000000" fill-rule="nonzero" fill-opacity="1" /><path clip-path="url(#clip540)" d="M2581.94 1094.79 L2606.05 1094.79 L2606.05 1097.99 L2581.94 1097.99 L2581.94 1094.79 Z" fill="#000000" fill-rule="nonzero" fill-opacity="1" /><path clip-path="url(#clip540)" d="M2614.29 1080.38 L2629.2 1080.38 L2629.2 1083.58 L2617.77 1083.58 L2617.77 1090.47 Q2618.6 1090.18 2619.42 1090.05 Q2620.25 1089.9 2621.08 1089.9 Q2625.78 1089.9 2628.53 1092.48 Q2631.27 1095.05 2631.27 1099.46 Q2631.27 1103.99 2628.45 1106.51 Q2625.63 1109.01 2620.5 1109.01 Q2618.73 1109.01 2616.88 1108.71 Q2615.06 1108.41 2613.1 1107.81 L2613.1 1103.99 Q2614.8 1104.91 2616.6 1105.36 Q2618.41 1105.81 2620.42 1105.81 Q2623.67 1105.81 2625.57 1104.1 Q2627.47 1102.39 2627.47 1099.46 Q2627.47 1096.52 2625.57 1094.81 Q2623.67 1093.1 2620.42 1093.1 Q2618.9 1093.1 2617.37 1093.44 Q2615.87 1093.78 2614.29 1094.49 L2614.29 1080.38 Z" fill="#000000" fill-rule="nonzero" fill-opacity="1" /><polyline clip-path="url(#clip540)" style="stroke:#000000; stroke-linecap:round; stroke-linejoin:round; stroke-width:4; stroke-opacity:1; fill:none" points="1811.6,1051.41 1811.6,94.4882 "/>
<polyline clip-path="url(#clip540)" style="stroke:#000000; stroke-linecap:round; stroke-linejoin:round; stroke-width:4; stroke-opacity:1; fill:none" points="1811.6,1024.33 1830.5,1024.33 "/>
<polyline clip-path="url(#clip540)" style="stroke:#000000; stroke-linecap:round; stroke-linejoin:round; stroke-width:4; stroke-opacity:1; fill:none" points="1811.6,888.994 1830.5,888.994 "/>
<polyline clip-path="url(#clip540)" style="stroke:#000000; stroke-linecap:round; stroke-linejoin:round; stroke-width:4; stroke-opacity:1; fill:none" points="1811.6,753.657 1830.5,753.657 "/>
<polyline clip-path="url(#clip540)" style="stroke:#000000; stroke-linecap:round; stroke-linejoin:round; stroke-width:4; stroke-opacity:1; fill:none" points="1811.6,618.319 1830.5,618.319 "/>
<polyline clip-path="url(#clip540)" style="stroke:#000000; stroke-linecap:round; stroke-linejoin:round; stroke-width:4; stroke-opacity:1; fill:none" points="1811.6,482.982 1830.5,482.982 "/>
<polyline clip-path="url(#clip540)" style="stroke:#000000; stroke-linecap:round; stroke-linejoin:round; stroke-width:4; stroke-opacity:1; fill:none" points="1811.6,347.644 1830.5,347.644 "/>
<polyline clip-path="url(#clip540)" style="stroke:#000000; stroke-linecap:round; stroke-linejoin:round; stroke-width:4; stroke-opacity:1; fill:none" points="1811.6,212.307 1830.5,212.307 "/>
<path clip-path="url(#clip540)" d="M1706.42 1010.13 Q1702.81 1010.13 1700.98 1013.7 Q1699.18 1017.24 1699.18 1024.37 Q1699.18 1031.47 1700.98 1035.04 Q1702.81 1038.58 1706.42 1038.58 Q1710.06 1038.58 1711.86 1035.04 Q1713.69 1031.47 1713.69 1024.37 Q1713.69 1017.24 1711.86 1013.7 Q1710.06 1010.13 1706.42 1010.13 M1706.42 1006.43 Q1712.23 1006.43 1715.29 1011.03 Q1718.37 1015.62 1718.37 1024.37 Q1718.37 1033.09 1715.29 1037.7 Q1712.23 1042.28 1706.42 1042.28 Q1700.61 1042.28 1697.53 1037.7 Q1694.48 1033.09 1694.48 1024.37 Q1694.48 1015.62 1697.53 1011.03 Q1700.61 1006.43 1706.42 1006.43 Z" fill="#000000" fill-rule="nonzero" fill-opacity="1" /><path clip-path="url(#clip540)" d="M1726.59 1035.73 L1731.47 1035.73 L1731.47 1041.61 L1726.59 1041.61 L1726.59 1035.73 Z" fill="#000000" fill-rule="nonzero" fill-opacity="1" /><path clip-path="url(#clip540)" d="M1751.65 1010.13 Q1748.04 1010.13 1746.22 1013.7 Q1744.41 1017.24 1744.41 1024.37 Q1744.41 1031.47 1746.22 1035.04 Q1748.04 1038.58 1751.65 1038.58 Q1755.29 1038.58 1757.09 1035.04 Q1758.92 1031.47 1758.92 1024.37 Q1758.92 1017.24 1757.09 1013.7 Q1755.29 1010.13 1751.65 1010.13 M1751.65 1006.43 Q1757.47 1006.43 1760.52 1011.03 Q1763.6 1015.62 1763.6 1024.37 Q1763.6 1033.09 1760.52 1037.7 Q1757.47 1042.28 1751.65 1042.28 Q1745.84 1042.28 1742.77 1037.7 Q1739.71 1033.09 1739.71 1024.37 Q1739.71 1015.62 1742.77 1011.03 Q1745.84 1006.43 1751.65 1006.43 Z" fill="#000000" fill-rule="nonzero" fill-opacity="1" /><path clip-path="url(#clip540)" d="M1708.02 874.793 Q1704.41 874.793 1702.58 878.358 Q1700.78 881.899 1700.78 889.029 Q1700.78 896.135 1702.58 899.7 Q1704.41 903.242 1708.02 903.242 Q1711.66 903.242 1713.46 899.7 Q1715.29 896.135 1715.29 889.029 Q1715.29 881.899 1713.46 878.358 Q1711.66 874.793 1708.02 874.793 M1708.02 871.089 Q1713.83 871.089 1716.89 875.696 Q1719.97 880.279 1719.97 889.029 Q1719.97 897.756 1716.89 902.362 Q1713.83 906.945 1708.02 906.945 Q1702.21 906.945 1699.13 902.362 Q1696.08 897.756 1696.08 889.029 Q1696.08 880.279 1699.13 875.696 Q1702.21 871.089 1708.02 871.089 Z" fill="#000000" fill-rule="nonzero" fill-opacity="1" /><path clip-path="url(#clip540)" d="M1728.18 900.395 L1733.07 900.395 L1733.07 906.274 L1728.18 906.274 L1728.18 900.395 Z" fill="#000000" fill-rule="nonzero" fill-opacity="1" /><path clip-path="url(#clip540)" d="M1747.28 902.339 L1763.6 902.339 L1763.6 906.274 L1741.65 906.274 L1741.65 902.339 Q1744.32 899.584 1748.9 894.955 Q1753.51 890.302 1754.69 888.959 Q1756.93 886.436 1757.81 884.7 Q1758.72 882.941 1758.72 881.251 Q1758.72 878.497 1756.77 876.76 Q1754.85 875.024 1751.75 875.024 Q1749.55 875.024 1747.09 875.788 Q1744.66 876.552 1741.89 878.103 L1741.89 873.381 Q1744.71 872.247 1747.16 871.668 Q1749.62 871.089 1751.65 871.089 Q1757.03 871.089 1760.22 873.774 Q1763.41 876.46 1763.41 880.95 Q1763.41 883.08 1762.6 885.001 Q1761.82 886.899 1759.71 889.492 Q1759.13 890.163 1756.03 893.381 Q1752.93 896.575 1747.28 902.339 Z" fill="#000000" fill-rule="nonzero" fill-opacity="1" /><path clip-path="url(#clip540)" d="M1705.94 739.455 Q1702.33 739.455 1700.5 743.02 Q1698.69 746.562 1698.69 753.691 Q1698.69 760.798 1700.5 764.363 Q1702.33 767.904 1705.94 767.904 Q1709.57 767.904 1711.38 764.363 Q1713.21 760.798 1713.21 753.691 Q1713.21 746.562 1711.38 743.02 Q1709.57 739.455 1705.94 739.455 M1705.94 735.752 Q1711.75 735.752 1714.8 740.358 Q1717.88 744.942 1717.88 753.691 Q1717.88 762.418 1714.8 767.025 Q1711.75 771.608 1705.94 771.608 Q1700.13 771.608 1697.05 767.025 Q1693.99 762.418 1693.99 753.691 Q1693.99 744.942 1697.05 740.358 Q1700.13 735.752 1705.94 735.752 Z" fill="#000000" fill-rule="nonzero" fill-opacity="1" /><path clip-path="url(#clip540)" d="M1726.1 765.057 L1730.98 765.057 L1730.98 770.937 L1726.1 770.937 L1726.1 765.057 Z" fill="#000000" fill-rule="nonzero" fill-opacity="1" /><path clip-path="url(#clip540)" d="M1754.02 740.451 L1742.21 758.9 L1754.02 758.9 L1754.02 740.451 M1752.79 736.377 L1758.67 736.377 L1758.67 758.9 L1763.6 758.9 L1763.6 762.789 L1758.67 762.789 L1758.67 770.937 L1754.02 770.937 L1754.02 762.789 L1738.41 762.789 L1738.41 758.275 L1752.79 736.377 Z" fill="#000000" fill-rule="nonzero" fill-opacity="1" /><path clip-path="url(#clip540)" d="M1706.26 604.118 Q1702.65 604.118 1700.82 607.683 Q1699.02 611.224 1699.02 618.354 Q1699.02 625.46 1700.82 629.025 Q1702.65 632.567 1706.26 632.567 Q1709.9 632.567 1711.7 629.025 Q1713.53 625.46 1713.53 618.354 Q1713.53 611.224 1711.7 607.683 Q1709.9 604.118 1706.26 604.118 M1706.26 600.414 Q1712.07 600.414 1715.13 605.021 Q1718.21 609.604 1718.21 618.354 Q1718.21 627.081 1715.13 631.687 Q1712.07 636.271 1706.26 636.271 Q1700.45 636.271 1697.37 631.687 Q1694.32 627.081 1694.32 618.354 Q1694.32 609.604 1697.37 605.021 Q1700.45 600.414 1706.26 600.414 Z" fill="#000000" fill-rule="nonzero" fill-opacity="1" /><path clip-path="url(#clip540)" d="M1726.42 629.72 L1731.31 629.72 L1731.31 635.599 L1726.42 635.599 L1726.42 629.72 Z" fill="#000000" fill-rule="nonzero" fill-opacity="1" /><path clip-path="url(#clip540)" d="M1752.07 616.456 Q1748.92 616.456 1747.07 618.609 Q1745.24 620.761 1745.24 624.511 Q1745.24 628.238 1747.07 630.414 Q1748.92 632.567 1752.07 632.567 Q1755.22 632.567 1757.05 630.414 Q1758.9 628.238 1758.9 624.511 Q1758.9 620.761 1757.05 618.609 Q1755.22 616.456 1752.07 616.456 M1761.35 601.803 L1761.35 606.062 Q1759.59 605.229 1757.79 604.789 Q1756.01 604.349 1754.25 604.349 Q1749.62 604.349 1747.16 607.474 Q1744.73 610.599 1744.39 616.919 Q1745.75 614.905 1747.81 613.84 Q1749.87 612.752 1752.35 612.752 Q1757.56 612.752 1760.57 615.923 Q1763.6 619.072 1763.6 624.511 Q1763.6 629.835 1760.45 633.053 Q1757.3 636.271 1752.07 636.271 Q1746.08 636.271 1742.9 631.687 Q1739.73 627.081 1739.73 618.354 Q1739.73 610.16 1743.62 605.299 Q1747.51 600.414 1754.06 600.414 Q1755.82 600.414 1757.6 600.762 Q1759.41 601.109 1761.35 601.803 Z" fill="#000000" fill-rule="nonzero" fill-opacity="1" /><path clip-path="url(#clip540)" d="M1706.52 468.781 Q1702.91 468.781 1701.08 472.345 Q1699.27 475.887 1699.27 483.017 Q1699.27 490.123 1701.08 493.688 Q1702.91 497.229 1706.52 497.229 Q1710.15 497.229 1711.96 493.688 Q1713.78 490.123 1713.78 483.017 Q1713.78 475.887 1711.96 472.345 Q1710.15 468.781 1706.52 468.781 M1706.52 465.077 Q1712.33 465.077 1715.38 469.683 Q1718.46 474.267 1718.46 483.017 Q1718.46 491.743 1715.38 496.35 Q1712.33 500.933 1706.52 500.933 Q1700.71 500.933 1697.63 496.35 Q1694.57 491.743 1694.57 483.017 Q1694.57 474.267 1697.63 469.683 Q1700.71 465.077 1706.52 465.077 Z" fill="#000000" fill-rule="nonzero" fill-opacity="1" /><path clip-path="url(#clip540)" d="M1726.68 494.382 L1731.56 494.382 L1731.56 500.262 L1726.68 500.262 L1726.68 494.382 Z" fill="#000000" fill-rule="nonzero" fill-opacity="1" /><path clip-path="url(#clip540)" d="M1751.75 483.85 Q1748.41 483.85 1746.49 485.632 Q1744.59 487.415 1744.59 490.54 Q1744.59 493.665 1746.49 495.447 Q1748.41 497.229 1751.75 497.229 Q1755.08 497.229 1757 495.447 Q1758.92 493.641 1758.92 490.54 Q1758.92 487.415 1757 485.632 Q1755.1 483.85 1751.75 483.85 M1747.07 481.859 Q1744.06 481.118 1742.37 479.058 Q1740.71 476.998 1740.71 474.035 Q1740.71 469.892 1743.65 467.484 Q1746.61 465.077 1751.75 465.077 Q1756.91 465.077 1759.85 467.484 Q1762.79 469.892 1762.79 474.035 Q1762.79 476.998 1761.1 479.058 Q1759.43 481.118 1756.45 481.859 Q1759.83 482.646 1761.7 484.938 Q1763.6 487.229 1763.6 490.54 Q1763.6 495.563 1760.52 498.248 Q1757.47 500.933 1751.75 500.933 Q1746.03 500.933 1742.95 498.248 Q1739.9 495.563 1739.9 490.54 Q1739.9 487.229 1741.79 484.938 Q1743.69 482.646 1747.07 481.859 M1745.36 474.475 Q1745.36 477.16 1747.03 478.665 Q1748.72 480.169 1751.75 480.169 Q1754.76 480.169 1756.45 478.665 Q1758.16 477.16 1758.16 474.475 Q1758.16 471.79 1756.45 470.285 Q1754.76 468.781 1751.75 468.781 Q1748.72 468.781 1747.03 470.285 Q1745.36 471.79 1745.36 474.475 Z" fill="#000000" fill-rule="nonzero" fill-opacity="1" /><path clip-path="url(#clip540)" d="M1697.23 360.989 L1704.87 360.989 L1704.87 334.624 L1696.56 336.29 L1696.56 332.031 L1704.83 330.364 L1709.5 330.364 L1709.5 360.989 L1717.14 360.989 L1717.14 364.924 L1697.23 364.924 L1697.23 360.989 Z" fill="#000000" fill-rule="nonzero" fill-opacity="1" /><path clip-path="url(#clip540)" d="M1726.59 359.045 L1731.47 359.045 L1731.47 364.924 L1726.59 364.924 L1726.59 359.045 Z" fill="#000000" fill-rule="nonzero" fill-opacity="1" /><path clip-path="url(#clip540)" d="M1751.65 333.443 Q1748.04 333.443 1746.22 337.008 Q1744.41 340.549 1744.41 347.679 Q1744.41 354.786 1746.22 358.35 Q1748.04 361.892 1751.65 361.892 Q1755.29 361.892 1757.09 358.35 Q1758.92 354.786 1758.92 347.679 Q1758.92 340.549 1757.09 337.008 Q1755.29 333.443 1751.65 333.443 M1751.65 329.739 Q1757.47 329.739 1760.52 334.346 Q1763.6 338.929 1763.6 347.679 Q1763.6 356.406 1760.52 361.012 Q1757.47 365.596 1751.65 365.596 Q1745.84 365.596 1742.77 361.012 Q1739.71 356.406 1739.71 347.679 Q1739.71 338.929 1742.77 334.346 Q1745.84 329.739 1751.65 329.739 Z" fill="#000000" fill-rule="nonzero" fill-opacity="1" /><path clip-path="url(#clip540)" d="M1698.83 225.652 L1706.47 225.652 L1706.47 199.286 L1698.16 200.953 L1698.16 196.694 L1706.42 195.027 L1711.1 195.027 L1711.1 225.652 L1718.74 225.652 L1718.74 229.587 L1698.83 229.587 L1698.83 225.652 Z" fill="#000000" fill-rule="nonzero" fill-opacity="1" /><path clip-path="url(#clip540)" d="M1728.18 223.707 L1733.07 223.707 L1733.07 229.587 L1728.18 229.587 L1728.18 223.707 Z" fill="#000000" fill-rule="nonzero" fill-opacity="1" /><path clip-path="url(#clip540)" d="M1747.28 225.652 L1763.6 225.652 L1763.6 229.587 L1741.65 229.587 L1741.65 225.652 Q1744.32 222.897 1748.9 218.268 Q1753.51 213.615 1754.69 212.272 Q1756.93 209.749 1757.81 208.013 Q1758.72 206.254 1758.72 204.564 Q1758.72 201.809 1756.77 200.073 Q1754.85 198.337 1751.75 198.337 Q1749.55 198.337 1747.09 199.101 Q1744.66 199.865 1741.89 201.416 L1741.89 196.694 Q1744.71 195.559 1747.16 194.981 Q1749.62 194.402 1751.65 194.402 Q1757.03 194.402 1760.22 197.087 Q1763.41 199.772 1763.41 204.263 Q1763.41 206.393 1762.6 208.314 Q1761.82 210.212 1759.71 212.805 Q1759.13 213.476 1756.03 216.693 Q1752.93 219.888 1747.28 225.652 Z" fill="#000000" fill-rule="nonzero" fill-opacity="1" /><path clip-path="url(#clip543)" d="M1848.22 1023.41 L2238.11 1023.41 L2238.11 1024.33 L2274.84 1024.33 L2274.84 1024.33 L2311.58 1024.33 L2311.58 1024.33 L2348.32 1024.33 L2348.32 989.218 L2385.07 989.218 L2385.07 635.291 L2406.56 635.291 L2406.56 400.043 L2421.81 400.043 L2421.81 260.775 L2443.3 260.775 L2443.3 236.054 L2458.56 236.054 L2458.56 280.015 L2475.69 280.015 L2475.69 394.689 L2488.61 394.689 L2488.61 558.441 L2507.68 558.441 L2507.68 776.435 L2532.73 776.435 L2532.73 988.289 L2562.49 988.289 L2562.49 1024.33 L2595.37 1024.33 L2595.37 978.941 L2630.07 978.941 L2630.07 704.64 L2650.86 704.64 L2650.86 415.788 L2665.76 415.788 L2665.76 184.43 L2686.9 184.43 L2686.9 121.571 L2701.97 121.571 L2701.97 205.71 L2723.29 205.71 L2723.29 468.941 L2738.45 468.941 L2738.45 799.243 L2775.06 799.243 L2775.06 1015.11 L2811.74 1015.11 L2811.74 1020.95 L2848.45 1020.95 L2848.45 968.312 L2885.18 968.312 L2885.18 949.727 L2921.92 949.727 L2921.92 957.312 L2958.66 957.312 L2958.66 968.881 L2995.4 968.881 L2995.4 976.302 L3032.15 976.302 L3032.15 979.318 L3053.64 979.318 L3053.64 980.394 L3068.89 980.394 L3068.89 1024.33 L3053.64 1024.33 L3053.64 1024.33 L3032.15 1024.33 L3032.15 1024.33 L2995.4 1024.33 L2995.4 1024.33 L2958.66 1024.33 L2958.66 1024.33 L2921.92 1024.33 L2921.92 1024.33 L2885.18 1024.33 L2885.18 1024.33 L2848.45 1024.33 L2848.45 1024.33 L2811.74 1024.33 L2811.74 1024.33 L2775.06 1024.33 L2775.06 1024.33 L2738.45 1024.33 L2738.45 1024.33 L2723.29 1024.33 L2723.29 1024.33 L2701.97 1024.33 L2701.97 1024.33 L2686.9 1024.33 L2686.9 1024.33 L2665.76 1024.33 L2665.76 1024.33 L2650.86 1024.33 L2650.86 1024.33 L2630.07 1024.33 L2630.07 1024.33 L2595.37 1024.33 L2595.37 1024.33 L2562.49 1024.33 L2562.49 1024.33 L2532.73 1024.33 L2532.73 1024.33 L2507.68 1024.33 L2507.68 1024.33 L2488.61 1024.33 L2488.61 1024.33 L2475.69 1024.33 L2475.69 1024.33 L2458.56 1024.33 L2458.56 1024.33 L2443.3 1024.33 L2443.3 1024.33 L2421.81 1024.33 L2421.81 1024.33 L2406.56 1024.33 L2406.56 1024.33 L2385.07 1024.33 L2385.07 1024.33 L2348.32 1024.33 L2348.32 1024.33 L2311.58 1024.33 L2311.58 1024.33 L2274.84 1024.33 L2274.84 1024.33 L2238.11 1024.33 L2238.11 1024.33 L1848.22 1024.33  Z" fill="#e26f46" fill-rule="evenodd" fill-opacity="0.5"/>
<polyline clip-path="url(#clip543)" style="stroke:#e26f46; stroke-linecap:round; stroke-linejoin:round; stroke-width:4; stroke-opacity:1; fill:none" points="1848.22,1023.41 2238.11,1023.41 2238.11,1024.33 2274.84,1024.33 2311.58,1024.33 2348.32,1024.33 2348.32,989.218 2385.07,989.218 2385.07,635.291 2406.56,635.291 2406.56,400.043 2421.81,400.043 2421.81,260.775 2443.3,260.775 2443.3,236.054 2458.56,236.054 2458.56,280.015 2475.69,280.015 2475.69,394.689 2488.61,394.689 2488.61,558.441 2507.68,558.441 2507.68,776.435 2532.73,776.435 2532.73,988.289 2562.49,988.289 2562.49,1024.33 2595.37,1024.33 2595.37,978.941 2630.07,978.941 2630.07,704.64 2650.86,704.64 2650.86,415.788 2665.76,415.788 2665.76,184.43 2686.9,184.43 2686.9,121.571 2701.97,121.571 2701.97,205.71 2723.29,205.71 2723.29,468.941 2738.45,468.941 2738.45,799.243 2775.06,799.243 2775.06,1015.11 2811.74,1015.11 2811.74,1020.95 2848.45,1020.95 2848.45,968.312 2885.18,968.312 2885.18,949.727 2921.92,949.727 2921.92,957.312 2958.66,957.312 2958.66,968.881 2995.4,968.881 2995.4,976.302 3032.15,976.302 3032.15,979.318 3053.64,979.318 3053.64,980.394 3068.89,980.394 "/>
<path clip-path="url(#clip540)" d="M1854.73 230.066 L2449.97 230.066 L2449.97 126.386 L1854.73 126.386  Z" fill="#ffffff" fill-rule="evenodd" fill-opacity="1"/>
<polyline clip-path="url(#clip540)" style="stroke:#000000; stroke-linecap:round; stroke-linejoin:round; stroke-width:4; stroke-opacity:1; fill:none" points="1854.73,230.066 2449.97,230.066 2449.97,126.386 1854.73,126.386 1854.73,230.066 "/>
<path clip-path="url(#clip540)" d="M1869.11 198.962 L1955.37 198.962 L1955.37 157.49 L1869.11 157.49 L1869.11 198.962  Z" fill="#e26f46" fill-rule="evenodd" fill-opacity="0.5"/>
<polyline clip-path="url(#clip540)" style="stroke:#e26f46; stroke-linecap:round; stroke-linejoin:round; stroke-width:4; stroke-opacity:1; fill:none" points="1869.11,157.49 1955.37,157.49 "/>
<path clip-path="url(#clip540)" d="M1983.15 182.473 Q1977.98 182.473 1975.99 183.654 Q1974 184.834 1974 187.682 Q1974 189.95 1975.48 191.293 Q1976.99 192.612 1979.56 192.612 Q1983.1 192.612 1985.23 190.112 Q1987.38 187.589 1987.38 183.422 L1987.38 182.473 L1983.15 182.473 M1991.64 180.714 L1991.64 195.506 L1987.38 195.506 L1987.38 191.571 Q1985.92 193.932 1983.75 195.066 Q1981.57 196.177 1978.42 196.177 Q1974.44 196.177 1972.08 193.955 Q1969.74 191.709 1969.74 187.959 Q1969.74 183.584 1972.66 181.362 Q1975.6 179.14 1981.41 179.14 L1987.38 179.14 L1987.38 178.723 Q1987.38 175.784 1985.44 174.186 Q1983.52 172.566 1980.02 172.566 Q1977.8 172.566 1975.69 173.098 Q1973.59 173.631 1971.64 174.696 L1971.64 170.76 Q1973.98 169.858 1976.18 169.418 Q1978.38 168.955 1980.46 168.955 Q1986.09 168.955 1988.86 171.872 Q1991.64 174.788 1991.64 180.714 Z" fill="#000000" fill-rule="nonzero" fill-opacity="1" /><path clip-path="url(#clip540)" d="M2017.48 173.515 L2017.48 159.487 L2021.73 159.487 L2021.73 195.506 L2017.48 195.506 L2017.48 191.617 Q2016.13 193.932 2014.07 195.066 Q2012.04 196.177 2009.17 196.177 Q2004.47 196.177 2001.5 192.427 Q1998.56 188.677 1998.56 182.566 Q1998.56 176.455 2001.5 172.705 Q2004.47 168.955 2009.17 168.955 Q2012.04 168.955 2014.07 170.089 Q2016.13 171.2 2017.48 173.515 M2002.96 182.566 Q2002.96 187.265 2004.88 189.95 Q2006.83 192.612 2010.21 192.612 Q2013.59 192.612 2015.53 189.95 Q2017.48 187.265 2017.48 182.566 Q2017.48 177.867 2015.53 175.205 Q2013.59 172.52 2010.21 172.52 Q2006.83 172.52 2004.88 175.205 Q2002.96 177.867 2002.96 182.566 Z" fill="#000000" fill-rule="nonzero" fill-opacity="1" /><path clip-path="url(#clip540)" d="M2042.29 182.473 Q2037.13 182.473 2035.14 183.654 Q2033.15 184.834 2033.15 187.682 Q2033.15 189.95 2034.63 191.293 Q2036.13 192.612 2038.7 192.612 Q2042.24 192.612 2044.37 190.112 Q2046.53 187.589 2046.53 183.422 L2046.53 182.473 L2042.29 182.473 M2050.79 180.714 L2050.79 195.506 L2046.53 195.506 L2046.53 191.571 Q2045.07 193.932 2042.89 195.066 Q2040.72 196.177 2037.57 196.177 Q2033.59 196.177 2031.23 193.955 Q2028.89 191.709 2028.89 187.959 Q2028.89 183.584 2031.8 181.362 Q2034.74 179.14 2040.55 179.14 L2046.53 179.14 L2046.53 178.723 Q2046.53 175.784 2044.58 174.186 Q2042.66 172.566 2039.17 172.566 Q2036.94 172.566 2034.84 173.098 Q2032.73 173.631 2030.79 174.696 L2030.79 170.76 Q2033.12 169.858 2035.32 169.418 Q2037.52 168.955 2039.6 168.955 Q2045.23 168.955 2048.01 171.872 Q2050.79 174.788 2050.79 180.714 Z" fill="#000000" fill-rule="nonzero" fill-opacity="1" /><path clip-path="url(#clip540)" d="M2063.68 191.617 L2063.68 205.367 L2059.4 205.367 L2059.4 169.58 L2063.68 169.58 L2063.68 173.515 Q2065.02 171.2 2067.06 170.089 Q2069.12 168.955 2071.97 168.955 Q2076.69 168.955 2079.63 172.705 Q2082.59 176.455 2082.59 182.566 Q2082.59 188.677 2079.63 192.427 Q2076.69 196.177 2071.97 196.177 Q2069.12 196.177 2067.06 195.066 Q2065.02 193.932 2063.68 191.617 M2078.17 182.566 Q2078.17 177.867 2076.23 175.205 Q2074.3 172.52 2070.92 172.52 Q2067.54 172.52 2065.6 175.205 Q2063.68 177.867 2063.68 182.566 Q2063.68 187.265 2065.6 189.95 Q2067.54 192.612 2070.92 192.612 Q2074.3 192.612 2076.23 189.95 Q2078.17 187.265 2078.17 182.566 Z" fill="#000000" fill-rule="nonzero" fill-opacity="1" /><path clip-path="url(#clip540)" d="M2093.86 162.219 L2093.86 169.58 L2102.64 169.58 L2102.64 172.89 L2093.86 172.89 L2093.86 186.964 Q2093.86 190.135 2094.72 191.038 Q2095.6 191.941 2098.26 191.941 L2102.64 191.941 L2102.64 195.506 L2098.26 195.506 Q2093.33 195.506 2091.46 193.677 Q2089.58 191.825 2089.58 186.964 L2089.58 172.89 L2086.46 172.89 L2086.46 169.58 L2089.58 169.58 L2089.58 162.219 L2093.86 162.219 Z" fill="#000000" fill-rule="nonzero" fill-opacity="1" /><path clip-path="url(#clip540)" d="M2108.24 169.58 L2112.5 169.58 L2112.5 195.506 L2108.24 195.506 L2108.24 169.58 M2108.24 159.487 L2112.5 159.487 L2112.5 164.881 L2108.24 164.881 L2108.24 159.487 Z" fill="#000000" fill-rule="nonzero" fill-opacity="1" /><path clip-path="url(#clip540)" d="M2118.35 169.58 L2122.87 169.58 L2130.97 191.339 L2139.07 169.58 L2143.59 169.58 L2133.86 195.506 L2128.08 195.506 L2118.35 169.58 Z" fill="#000000" fill-rule="nonzero" fill-opacity="1" /><path clip-path="url(#clip540)" d="M2171.64 181.478 L2171.64 183.561 L2152.06 183.561 Q2152.34 187.959 2154.7 190.274 Q2157.08 192.566 2161.32 192.566 Q2163.77 192.566 2166.06 191.964 Q2168.38 191.362 2170.65 190.159 L2170.65 194.186 Q2168.35 195.159 2165.95 195.668 Q2163.54 196.177 2161.06 196.177 Q2154.86 196.177 2151.22 192.566 Q2147.61 188.955 2147.61 182.797 Q2147.61 176.432 2151.04 172.705 Q2154.49 168.955 2160.32 168.955 Q2165.55 168.955 2168.59 172.335 Q2171.64 175.691 2171.64 181.478 M2167.38 180.228 Q2167.34 176.733 2165.41 174.649 Q2163.52 172.566 2160.37 172.566 Q2156.8 172.566 2154.65 174.58 Q2152.52 176.594 2152.2 180.251 L2167.38 180.228 Z" fill="#000000" fill-rule="nonzero" fill-opacity="1" /><path clip-path="url(#clip540)" d="M2198.33 203.376 L2198.33 206.686 L2173.7 206.686 L2173.7 203.376 L2198.33 203.376 Z" fill="#000000" fill-rule="nonzero" fill-opacity="1" /><path clip-path="url(#clip540)" d="M2217.36 173.561 Q2216.64 173.145 2215.78 172.96 Q2214.95 172.751 2213.93 172.751 Q2210.32 172.751 2208.38 175.112 Q2206.46 177.45 2206.46 181.848 L2206.46 195.506 L2202.17 195.506 L2202.17 169.58 L2206.46 169.58 L2206.46 173.608 Q2207.8 171.247 2209.95 170.112 Q2212.1 168.955 2215.18 168.955 Q2215.62 168.955 2216.15 169.024 Q2216.69 169.071 2217.34 169.186 L2217.36 173.561 Z" fill="#000000" fill-rule="nonzero" fill-opacity="1" /><path clip-path="url(#clip540)" d="M2242.96 181.478 L2242.96 183.561 L2223.38 183.561 Q2223.65 187.959 2226.02 190.274 Q2228.4 192.566 2232.64 192.566 Q2235.09 192.566 2237.38 191.964 Q2239.7 191.362 2241.96 190.159 L2241.96 194.186 Q2239.67 195.159 2237.27 195.668 Q2234.86 196.177 2232.38 196.177 Q2226.18 196.177 2222.54 192.566 Q2218.93 188.955 2218.93 182.797 Q2218.93 176.432 2222.36 172.705 Q2225.81 168.955 2231.64 168.955 Q2236.87 168.955 2239.9 172.335 Q2242.96 175.691 2242.96 181.478 M2238.7 180.228 Q2238.65 176.733 2236.73 174.649 Q2234.84 172.566 2231.69 172.566 Q2228.12 172.566 2225.97 174.58 Q2223.84 176.594 2223.52 180.251 L2238.7 180.228 Z" fill="#000000" fill-rule="nonzero" fill-opacity="1" /><path clip-path="url(#clip540)" d="M2266.48 170.344 L2266.48 174.372 Q2264.67 173.446 2262.73 172.983 Q2260.78 172.52 2258.7 172.52 Q2255.53 172.52 2253.93 173.492 Q2252.36 174.464 2252.36 176.409 Q2252.36 177.89 2253.49 178.747 Q2254.63 179.58 2258.05 180.344 L2259.51 180.668 Q2264.05 181.64 2265.95 183.422 Q2267.87 185.182 2267.87 188.353 Q2267.87 191.964 2265 194.071 Q2262.15 196.177 2257.15 196.177 Q2255.07 196.177 2252.8 195.76 Q2250.55 195.367 2248.05 194.557 L2248.05 190.159 Q2250.41 191.385 2252.71 192.01 Q2255 192.612 2257.24 192.612 Q2260.25 192.612 2261.87 191.594 Q2263.49 190.552 2263.49 188.677 Q2263.49 186.941 2262.31 186.015 Q2261.15 185.089 2257.2 184.233 L2255.71 183.885 Q2251.76 183.052 2250 181.339 Q2248.24 179.603 2248.24 176.594 Q2248.24 172.936 2250.83 170.946 Q2253.42 168.955 2258.19 168.955 Q2260.55 168.955 2262.64 169.302 Q2264.72 169.649 2266.48 170.344 Z" fill="#000000" fill-rule="nonzero" fill-opacity="1" /><path clip-path="url(#clip540)" d="M2274.21 185.274 L2274.21 169.58 L2278.47 169.58 L2278.47 185.112 Q2278.47 188.793 2279.9 190.645 Q2281.34 192.473 2284.21 192.473 Q2287.66 192.473 2289.65 190.274 Q2291.66 188.075 2291.66 184.279 L2291.66 169.58 L2295.92 169.58 L2295.92 195.506 L2291.66 195.506 L2291.66 191.524 Q2290.11 193.885 2288.05 195.043 Q2286.02 196.177 2283.31 196.177 Q2278.84 196.177 2276.52 193.399 Q2274.21 190.621 2274.21 185.274 M2284.93 168.955 L2284.93 168.955 Z" fill="#000000" fill-rule="nonzero" fill-opacity="1" /><path clip-path="url(#clip540)" d="M2304.7 159.487 L2308.96 159.487 L2308.96 195.506 L2304.7 195.506 L2304.7 159.487 Z" fill="#000000" fill-rule="nonzero" fill-opacity="1" /><path clip-path="url(#clip540)" d="M2322.08 162.219 L2322.08 169.58 L2330.85 169.58 L2330.85 172.89 L2322.08 172.89 L2322.08 186.964 Q2322.08 190.135 2322.94 191.038 Q2323.82 191.941 2326.48 191.941 L2330.85 191.941 L2330.85 195.506 L2326.48 195.506 Q2321.55 195.506 2319.67 193.677 Q2317.8 191.825 2317.8 186.964 L2317.8 172.89 L2314.67 172.89 L2314.67 169.58 L2317.8 169.58 L2317.8 162.219 L2322.08 162.219 Z" fill="#000000" fill-rule="nonzero" fill-opacity="1" /><path clip-path="url(#clip540)" d="M2337.06 189.626 L2341.94 189.626 L2341.94 195.506 L2337.06 195.506 L2337.06 189.626 Z" fill="#000000" fill-rule="nonzero" fill-opacity="1" /><path clip-path="url(#clip540)" d="M2368.58 182.242 Q2368.58 177.612 2366.66 175.066 Q2364.77 172.52 2361.32 172.52 Q2357.89 172.52 2355.97 175.066 Q2354.07 177.612 2354.07 182.242 Q2354.07 186.848 2355.97 189.395 Q2357.89 191.941 2361.32 191.941 Q2364.77 191.941 2366.66 189.395 Q2368.58 186.848 2368.58 182.242 M2372.84 192.288 Q2372.84 198.908 2369.9 202.126 Q2366.96 205.367 2360.9 205.367 Q2358.65 205.367 2356.66 205.02 Q2354.67 204.695 2352.8 204.001 L2352.8 199.858 Q2354.67 200.876 2356.5 201.362 Q2358.33 201.848 2360.23 201.848 Q2364.42 201.848 2366.5 199.649 Q2368.58 197.473 2368.58 193.052 L2368.58 190.946 Q2367.27 193.237 2365.2 194.371 Q2363.14 195.506 2360.27 195.506 Q2355.51 195.506 2352.59 191.871 Q2349.67 188.237 2349.67 182.242 Q2349.67 176.223 2352.59 172.589 Q2355.51 168.955 2360.27 168.955 Q2363.14 168.955 2365.2 170.089 Q2367.27 171.223 2368.58 173.515 L2368.58 169.58 L2372.84 169.58 L2372.84 192.288 Z" fill="#000000" fill-rule="nonzero" fill-opacity="1" /><path clip-path="url(#clip540)" d="M2396.64 173.561 Q2395.92 173.145 2395.07 172.96 Q2394.23 172.751 2393.21 172.751 Q2389.6 172.751 2387.66 175.112 Q2385.74 177.45 2385.74 181.848 L2385.74 195.506 L2381.45 195.506 L2381.45 169.58 L2385.74 169.58 L2385.74 173.608 Q2387.08 171.247 2389.23 170.112 Q2391.39 168.955 2394.46 168.955 Q2394.9 168.955 2395.44 169.024 Q2395.97 169.071 2396.62 169.186 L2396.64 173.561 Z" fill="#000000" fill-rule="nonzero" fill-opacity="1" /><path clip-path="url(#clip540)" d="M2401.11 169.58 L2405.37 169.58 L2405.37 195.506 L2401.11 195.506 L2401.11 169.58 M2401.11 159.487 L2405.37 159.487 L2405.37 164.881 L2401.11 164.881 L2401.11 159.487 Z" fill="#000000" fill-rule="nonzero" fill-opacity="1" /><path clip-path="url(#clip540)" d="M2431.34 173.515 L2431.34 159.487 L2435.6 159.487 L2435.6 195.506 L2431.34 195.506 L2431.34 191.617 Q2430 193.932 2427.94 195.066 Q2425.9 196.177 2423.03 196.177 Q2418.33 196.177 2415.37 192.427 Q2412.43 188.677 2412.43 182.566 Q2412.43 176.455 2415.37 172.705 Q2418.33 168.955 2423.03 168.955 Q2425.9 168.955 2427.94 170.089 Q2430 171.2 2431.34 173.515 M2416.83 182.566 Q2416.83 187.265 2418.75 189.95 Q2420.69 192.612 2424.07 192.612 Q2427.45 192.612 2429.39 189.95 Q2431.34 187.265 2431.34 182.566 Q2431.34 177.867 2429.39 175.205 Q2427.45 172.52 2424.07 172.52 Q2420.69 172.52 2418.75 175.205 Q2416.83 177.867 2416.83 182.566 Z" fill="#000000" fill-rule="nonzero" fill-opacity="1" /></svg>
