<?xml version="1.0" encoding="utf-8"?>
<svg xmlns="http://www.w3.org/2000/svg" xmlns:xlink="http://www.w3.org/1999/xlink" width="600" height="400" viewBox="0 0 2400 1600">
<defs>
  <clipPath id="clip120">
    <rect x="0" y="0" width="2400" height="1600"/>
  </clipPath>
</defs>
<path clip-path="url(#clip120)" d="M0 1600 L2400 1600 L2400 0 L0 0  Z" fill="#ffffff" fill-rule="evenodd" fill-opacity="1"/>
<defs>
  <clipPath id="clip121">
    <rect x="480" y="0" width="1681" height="1600"/>
  </clipPath>
</defs>
<path clip-path="url(#clip120)" d="M156.112 1474.16 L2352.76 1474.16 L2352.76 47.2441 L156.112 47.2441  Z" fill="#ffffff" fill-rule="evenodd" fill-opacity="1"/>
<defs>
  <clipPath id="clip122">
    <rect x="156" y="47" width="2198" height="1428"/>
  </clipPath>
</defs>
<polyline clip-path="url(#clip122)" style="stroke:#000000; stroke-linecap:round; stroke-linejoin:round; stroke-width:2; stroke-opacity:0.1; fill:none" points="425.512,1474.16 425.512,47.2441 "/>
<polyline clip-path="url(#clip122)" style="stroke:#000000; stroke-linecap:round; stroke-linejoin:round; stroke-width:2; stroke-opacity:0.1; fill:none" points="1461.66,1474.16 1461.66,47.2441 "/>
<polyline clip-path="url(#clip120)" style="stroke:#000000; stroke-linecap:round; stroke-linejoin:round; stroke-width:4; stroke-opacity:1; fill:none" points="156.112,1474.16 2352.76,1474.16 "/>
<polyline clip-path="url(#clip120)" style="stroke:#000000; stroke-linecap:round; stroke-linejoin:round; stroke-width:4; stroke-opacity:1; fill:none" points="425.512,1474.16 425.512,1455.27 "/>
<polyline clip-path="url(#clip120)" style="stroke:#000000; stroke-linecap:round; stroke-linejoin:round; stroke-width:4; stroke-opacity:1; fill:none" points="1461.66,1474.16 1461.66,1455.27 "/>
<path clip-path="url(#clip120)" d="M362.875 1548.29 L370.514 1548.29 L370.514 1521.92 L362.204 1523.59 L362.204 1519.33 L370.468 1517.66 L375.144 1517.66 L375.144 1548.29 L382.783 1548.29 L382.783 1552.22 L362.875 1552.22 L362.875 1548.29 Z" fill="#000000" fill-rule="nonzero" fill-opacity="1" /><path clip-path="url(#clip120)" d="M402.227 1520.74 Q398.616 1520.74 396.787 1524.31 Q394.982 1527.85 394.982 1534.98 Q394.982 1542.09 396.787 1545.65 Q398.616 1549.19 402.227 1549.19 Q405.861 1549.19 407.667 1545.65 Q409.496 1542.09 409.496 1534.98 Q409.496 1527.85 407.667 1524.31 Q405.861 1520.74 402.227 1520.74 M402.227 1517.04 Q408.037 1517.04 411.093 1521.65 Q414.171 1526.23 414.171 1534.98 Q414.171 1543.71 411.093 1548.31 Q408.037 1552.9 402.227 1552.9 Q396.417 1552.9 393.338 1548.31 Q390.283 1543.71 390.283 1534.98 Q390.283 1526.23 393.338 1521.65 Q396.417 1517.04 402.227 1517.04 Z" fill="#000000" fill-rule="nonzero" fill-opacity="1" /><path clip-path="url(#clip120)" d="M414.171 1511.14 L438.283 1511.14 L438.283 1514.34 L414.171 1514.34 L414.171 1511.14 Z" fill="#000000" fill-rule="nonzero" fill-opacity="1" /><path clip-path="url(#clip120)" d="M447.141 1521.62 L453.348 1521.62 L453.348 1500.19 L446.596 1501.55 L446.596 1498.09 L453.31 1496.73 L457.11 1496.73 L457.11 1521.62 L463.316 1521.62 L463.316 1524.81 L447.141 1524.81 L447.141 1521.62 Z" fill="#000000" fill-rule="nonzero" fill-opacity="1" /><path clip-path="url(#clip120)" d="M479.115 1499.24 Q476.181 1499.24 474.695 1502.13 Q473.228 1505.01 473.228 1510.8 Q473.228 1516.58 474.695 1519.47 Q476.181 1522.35 479.115 1522.35 Q482.068 1522.35 483.535 1519.47 Q485.02 1516.58 485.02 1510.8 Q485.02 1505.01 483.535 1502.13 Q482.068 1499.24 479.115 1499.24 M479.115 1496.23 Q483.835 1496.23 486.318 1499.97 Q488.82 1503.69 488.82 1510.8 Q488.82 1517.89 486.318 1521.64 Q483.835 1525.36 479.115 1525.36 Q474.394 1525.36 471.893 1521.64 Q469.41 1517.89 469.41 1510.8 Q469.41 1503.69 471.893 1499.97 Q474.394 1496.23 479.115 1496.23 Z" fill="#000000" fill-rule="nonzero" fill-opacity="1" /><path clip-path="url(#clip120)" d="M1411.69 1548.29 L1419.32 1548.29 L1419.32 1521.92 L1411.01 1523.59 L1411.01 1519.33 L1419.28 1517.66 L1423.95 1517.66 L1423.95 1548.29 L1431.59 1548.29 L1431.59 1552.22 L1411.69 1552.22 L1411.69 1548.29 Z" fill="#000000" fill-rule="nonzero" fill-opacity="1" /><path clip-path="url(#clip120)" d="M1451.04 1520.74 Q1447.43 1520.74 1445.6 1524.31 Q1443.79 1527.85 1443.79 1534.98 Q1443.79 1542.09 1445.6 1545.65 Q1447.43 1549.19 1451.04 1549.19 Q1454.67 1549.19 1456.48 1545.65 Q1458.31 1542.09 1458.31 1534.98 Q1458.31 1527.85 1456.48 1524.31 Q1454.67 1520.74 1451.04 1520.74 M1451.04 1517.04 Q1456.85 1517.04 1459.9 1521.65 Q1462.98 1526.23 1462.98 1534.98 Q1462.98 1543.71 1459.9 1548.31 Q1456.85 1552.9 1451.04 1552.9 Q1445.23 1552.9 1442.15 1548.31 Q1439.09 1543.71 1439.09 1534.98 Q1439.09 1526.23 1442.15 1521.65 Q1445.23 1517.04 1451.04 1517.04 Z" fill="#000000" fill-rule="nonzero" fill-opacity="1" /><path clip-path="url(#clip120)" d="M1462.98 1511.14 L1487.09 1511.14 L1487.09 1514.34 L1462.98 1514.34 L1462.98 1511.14 Z" fill="#000000" fill-rule="nonzero" fill-opacity="1" /><path clip-path="url(#clip120)" d="M1495.33 1496.73 L1510.25 1496.73 L1510.25 1499.93 L1498.81 1499.93 L1498.81 1506.82 Q1499.64 1506.53 1500.47 1506.4 Q1501.29 1506.25 1502.12 1506.25 Q1506.82 1506.25 1509.57 1508.83 Q1512.31 1511.4 1512.31 1515.81 Q1512.31 1520.34 1509.49 1522.86 Q1506.67 1525.36 1501.54 1525.36 Q1499.77 1525.36 1497.93 1525.06 Q1496.1 1524.76 1494.15 1524.16 L1494.15 1520.34 Q1495.84 1521.26 1497.64 1521.71 Q1499.45 1522.16 1501.46 1522.16 Q1504.72 1522.16 1506.62 1520.45 Q1508.52 1518.74 1508.52 1515.81 Q1508.52 1512.87 1506.62 1511.16 Q1504.72 1509.45 1501.46 1509.45 Q1499.94 1509.45 1498.42 1509.79 Q1496.91 1510.13 1495.33 1510.84 L1495.33 1496.73 Z" fill="#000000" fill-rule="nonzero" fill-opacity="1" /><polyline clip-path="url(#clip122)" style="stroke:#000000; stroke-linecap:round; stroke-linejoin:round; stroke-width:2; stroke-opacity:0.1; fill:none" points="156.112,1433.78 2352.76,1433.78 "/>
<polyline clip-path="url(#clip122)" style="stroke:#000000; stroke-linecap:round; stroke-linejoin:round; stroke-width:2; stroke-opacity:0.1; fill:none" points="156.112,972.141 2352.76,972.141 "/>
<polyline clip-path="url(#clip122)" style="stroke:#000000; stroke-linecap:round; stroke-linejoin:round; stroke-width:2; stroke-opacity:0.1; fill:none" points="156.112,510.502 2352.76,510.502 "/>
<polyline clip-path="url(#clip122)" style="stroke:#000000; stroke-linecap:round; stroke-linejoin:round; stroke-width:2; stroke-opacity:0.1; fill:none" points="156.112,48.8636 2352.76,48.8636 "/>
<polyline clip-path="url(#clip120)" style="stroke:#000000; stroke-linecap:round; stroke-linejoin:round; stroke-width:4; stroke-opacity:1; fill:none" points="156.112,1474.16 156.112,47.2441 "/>
<polyline clip-path="url(#clip120)" style="stroke:#000000; stroke-linecap:round; stroke-linejoin:round; stroke-width:4; stroke-opacity:1; fill:none" points="156.112,1433.78 175.01,1433.78 "/>
<polyline clip-path="url(#clip120)" style="stroke:#000000; stroke-linecap:round; stroke-linejoin:round; stroke-width:4; stroke-opacity:1; fill:none" points="156.112,972.141 175.01,972.141 "/>
<polyline clip-path="url(#clip120)" style="stroke:#000000; stroke-linecap:round; stroke-linejoin:round; stroke-width:4; stroke-opacity:1; fill:none" points="156.112,510.502 175.01,510.502 "/>
<polyline clip-path="url(#clip120)" style="stroke:#000000; stroke-linecap:round; stroke-linejoin:round; stroke-width:4; stroke-opacity:1; fill:none" points="156.112,48.8636 175.01,48.8636 "/>
<path clip-path="url(#clip120)" d="M62.9365 1419.58 Q59.3254 1419.58 57.4967 1423.14 Q55.6912 1426.69 55.6912 1433.81 Q55.6912 1440.92 57.4967 1444.49 Q59.3254 1448.03 62.9365 1448.03 Q66.5707 1448.03 68.3763 1444.49 Q70.205 1440.92 70.205 1433.81 Q70.205 1426.69 68.3763 1423.14 Q66.5707 1419.58 62.9365 1419.58 M62.9365 1415.88 Q68.7467 1415.88 71.8022 1420.48 Q74.8809 1425.06 74.8809 1433.81 Q74.8809 1442.54 71.8022 1447.15 Q68.7467 1451.73 62.9365 1451.73 Q57.1264 1451.73 54.0477 1447.15 Q50.9921 1442.54 50.9921 1433.81 Q50.9921 1425.06 54.0477 1420.48 Q57.1264 1415.88 62.9365 1415.88 Z" fill="#000000" fill-rule="nonzero" fill-opacity="1" /><path clip-path="url(#clip120)" d="M83.0984 1445.18 L87.9827 1445.18 L87.9827 1451.06 L83.0984 1451.06 L83.0984 1445.18 Z" fill="#000000" fill-rule="nonzero" fill-opacity="1" /><path clip-path="url(#clip120)" d="M108.168 1419.58 Q104.557 1419.58 102.728 1423.14 Q100.922 1426.69 100.922 1433.81 Q100.922 1440.92 102.728 1444.49 Q104.557 1448.03 108.168 1448.03 Q111.802 1448.03 113.608 1444.49 Q115.436 1440.92 115.436 1433.81 Q115.436 1426.69 113.608 1423.14 Q111.802 1419.58 108.168 1419.58 M108.168 1415.88 Q113.978 1415.88 117.033 1420.48 Q120.112 1425.06 120.112 1433.81 Q120.112 1442.54 117.033 1447.15 Q113.978 1451.73 108.168 1451.73 Q102.358 1451.73 99.2789 1447.15 Q96.2234 1442.54 96.2234 1433.81 Q96.2234 1425.06 99.2789 1420.48 Q102.358 1415.88 108.168 1415.88 Z" fill="#000000" fill-rule="nonzero" fill-opacity="1" /><path clip-path="url(#clip120)" d="M63.9319 957.94 Q60.3208 957.94 58.4921 961.505 Q56.6865 965.046 56.6865 972.176 Q56.6865 979.282 58.4921 982.847 Q60.3208 986.389 63.9319 986.389 Q67.5661 986.389 69.3717 982.847 Q71.2004 979.282 71.2004 972.176 Q71.2004 965.046 69.3717 961.505 Q67.5661 957.94 63.9319 957.94 M63.9319 954.236 Q69.742 954.236 72.7976 958.843 Q75.8763 963.426 75.8763 972.176 Q75.8763 980.903 72.7976 985.509 Q69.742 990.093 63.9319 990.093 Q58.1217 990.093 55.043 985.509 Q51.9875 980.903 51.9875 972.176 Q51.9875 963.426 55.043 958.843 Q58.1217 954.236 63.9319 954.236 Z" fill="#000000" fill-rule="nonzero" fill-opacity="1" /><path clip-path="url(#clip120)" d="M84.0938 983.542 L88.978 983.542 L88.978 989.421 L84.0938 989.421 L84.0938 983.542 Z" fill="#000000" fill-rule="nonzero" fill-opacity="1" /><path clip-path="url(#clip120)" d="M99.2095 954.861 L117.566 954.861 L117.566 958.796 L103.492 958.796 L103.492 967.269 Q104.51 966.921 105.529 966.759 Q106.547 966.574 107.566 966.574 Q113.353 966.574 116.733 969.745 Q120.112 972.917 120.112 978.333 Q120.112 983.912 116.64 987.014 Q113.168 990.093 106.848 990.093 Q104.672 990.093 102.404 989.722 Q100.159 989.352 97.7511 988.611 L97.7511 983.912 Q99.8345 985.046 102.057 985.602 Q104.279 986.157 106.756 986.157 Q110.76 986.157 113.098 984.051 Q115.436 981.944 115.436 978.333 Q115.436 974.722 113.098 972.616 Q110.76 970.509 106.756 970.509 Q104.881 970.509 103.006 970.926 Q101.154 971.343 99.2095 972.222 L99.2095 954.861 Z" fill="#000000" fill-rule="nonzero" fill-opacity="1" /><path clip-path="url(#clip120)" d="M53.7467 523.847 L61.3856 523.847 L61.3856 497.482 L53.0754 499.148 L53.0754 494.889 L61.3393 493.222 L66.0152 493.222 L66.0152 523.847 L73.654 523.847 L73.654 527.782 L53.7467 527.782 L53.7467 523.847 Z" fill="#000000" fill-rule="nonzero" fill-opacity="1" /><path clip-path="url(#clip120)" d="M83.0984 521.903 L87.9827 521.903 L87.9827 527.782 L83.0984 527.782 L83.0984 521.903 Z" fill="#000000" fill-rule="nonzero" fill-opacity="1" /><path clip-path="url(#clip120)" d="M108.168 496.301 Q104.557 496.301 102.728 499.866 Q100.922 503.408 100.922 510.537 Q100.922 517.644 102.728 521.208 Q104.557 524.75 108.168 524.75 Q111.802 524.75 113.608 521.208 Q115.436 517.644 115.436 510.537 Q115.436 503.408 113.608 499.866 Q111.802 496.301 108.168 496.301 M108.168 492.597 Q113.978 492.597 117.033 497.204 Q120.112 501.787 120.112 510.537 Q120.112 519.264 117.033 523.87 Q113.978 528.454 108.168 528.454 Q102.358 528.454 99.2789 523.87 Q96.2234 519.264 96.2234 510.537 Q96.2234 501.787 99.2789 497.204 Q102.358 492.597 108.168 492.597 Z" fill="#000000" fill-rule="nonzero" fill-opacity="1" /><path clip-path="url(#clip120)" d="M54.7421 62.2084 L62.381 62.2084 L62.381 35.8428 L54.0708 37.5095 L54.0708 33.2502 L62.3347 31.5836 L67.0106 31.5836 L67.0106 62.2084 L74.6494 62.2084 L74.6494 66.1436 L54.7421 66.1436 L54.7421 62.2084 Z" fill="#000000" fill-rule="nonzero" fill-opacity="1" /><path clip-path="url(#clip120)" d="M84.0938 60.264 L88.978 60.264 L88.978 66.1436 L84.0938 66.1436 L84.0938 60.264 Z" fill="#000000" fill-rule="nonzero" fill-opacity="1" /><path clip-path="url(#clip120)" d="M99.2095 31.5836 L117.566 31.5836 L117.566 35.5187 L103.492 35.5187 L103.492 43.9909 Q104.51 43.6437 105.529 43.4817 Q106.547 43.2965 107.566 43.2965 Q113.353 43.2965 116.733 46.4678 Q120.112 49.639 120.112 55.0557 Q120.112 60.6344 116.64 63.7362 Q113.168 66.8149 106.848 66.8149 Q104.672 66.8149 102.404 66.4445 Q100.159 66.0741 97.7511 65.3334 L97.7511 60.6344 Q99.8345 61.7686 102.057 62.3242 Q104.279 62.8797 106.756 62.8797 Q110.76 62.8797 113.098 60.7732 Q115.436 58.6668 115.436 55.0557 Q115.436 51.4446 113.098 49.3381 Q110.76 47.2316 106.756 47.2316 Q104.881 47.2316 103.006 47.6483 Q101.154 48.065 99.2095 48.9446 L99.2095 31.5836 Z" fill="#000000" fill-rule="nonzero" fill-opacity="1" /><path clip-path="url(#clip122)" d="M218.281 1432.09 L880.195 1432.09 L880.195 1429.18 L942.549 1429.18 L942.549 1429.18 L1004.92 1429.18 L1004.92 1429.18 L1067.29 1429.18 L1067.29 1371.76 L1129.67 1371.76 L1129.67 878.847 L1166.16 878.847 L1166.16 547.998 L1192.05 547.998 L1192.05 367.856 L1228.54 367.856 L1228.54 324.25 L1254.43 324.25 L1254.43 387.962 L1283.52 387.962 L1283.52 534.581 L1305.46 534.581 L1305.46 770.918 L1337.83 770.918 L1337.83 1074.85 L1380.36 1074.85 L1380.36 1367.18 L1430.88 1367.18 L1430.88 1070.37 L1486.7 1070.37 L1486.7 1322.15 L1545.61 1322.15 L1545.61 914.661 L1580.91 914.661 L1580.91 487.719 L1606.2 487.719 L1606.2 206.233 L1642.09 206.233 L1642.09 87.6286 L1667.68 87.6286 L1667.68 235.942 L1703.86 235.942 L1703.86 562.253 L1729.6 562.253 L1729.6 1079.56 L1791.76 1079.56 L1791.76 1374.19 L1854.02 1374.19 L1854.02 851.36 L1916.35 851.36 L1916.35 1158.18 L1978.7 1158.18 L1978.7 1132.87 L2041.07 1132.87 L2041.07 1143.24 L2103.45 1143.24 L2103.45 1159.04 L2165.82 1159.04 L2165.82 1169.17 L2228.21 1169.17 L2228.21 1032.04 L2264.7 1032.04 L2264.7 894.177 L2290.59 894.177 L2290.59 1433.78 L2264.7 1433.78 L2264.7 1433.78 L2228.21 1433.78 L2228.21 1433.78 L2165.82 1433.78 L2165.82 1433.78 L2103.45 1433.78 L2103.45 1433.78 L2041.07 1433.78 L2041.07 1433.78 L1978.7 1433.78 L1978.7 1433.78 L1916.35 1433.78 L1916.35 1433.78 L1854.02 1433.78 L1854.02 1433.78 L1791.76 1433.78 L1791.76 1176.83 L1729.6 1176.83 L1729.6 797.128 L1703.86 797.128 L1703.86 403 L1667.68 403 L1667.68 323.888 L1642.09 323.888 L1642.09 374.685 L1606.2 374.685 L1606.2 726.748 L1580.91 726.748 L1580.91 1085.9 L1545.61 1085.9 L1545.61 1424.77 L1486.7 1424.77 L1486.7 1433.78 L1430.88 1433.78 L1430.88 1399.8 L1380.36 1399.8 L1380.36 1113.61 L1337.83 1113.61 L1337.83 821.845 L1305.46 821.845 L1305.46 609.688 L1283.52 609.688 L1283.52 444.636 L1254.43 444.636 L1254.43 387.91 L1228.54 387.91 L1228.54 413.024 L1192.05 413.024 L1192.05 611.659 L1166.16 611.659 L1166.16 924.016 L1129.67 924.016 L1129.67 1398.18 L1067.29 1398.18 L1067.29 1433.78 L1004.92 1433.78 L1004.92 1433.78 L942.549 1433.78 L942.549 1433.78 L880.195 1433.78 L880.195 1433.01 L218.281 1433.01  Z" fill="#082b58" fill-rule="evenodd" fill-opacity="1"/>
<polyline clip-path="url(#clip122)" style="stroke:#082b58; stroke-linecap:round; stroke-linejoin:round; stroke-width:4; stroke-opacity:1; fill:none" points="218.281,1432.09 880.195,1432.09 880.195,1429.18 942.549,1429.18 942.549,1429.18 1004.92,1429.18 1004.92,1429.18 1067.29,1429.18 1067.29,1371.76 1129.67,1371.76 1129.67,878.847 1166.16,878.847 1166.16,547.998 1192.05,547.998 1192.05,367.856 1228.54,367.856 1228.54,324.25 1254.43,324.25 1254.43,387.962 1283.52,387.962 1283.52,534.581 1305.46,534.581 1305.46,770.918 1337.83,770.918 1337.83,1074.85 1380.36,1074.85 1380.36,1367.18 1430.88,1367.18 1430.88,1070.37 1486.7,1070.37 1486.7,1322.15 1545.61,1322.15 1545.61,914.661 1580.91,914.661 1580.91,487.719 1606.2,487.719 1606.2,206.233 1642.09,206.233 1642.09,87.6286 1667.68,87.6286 1667.68,235.942 1703.86,235.942 1703.86,562.253 1729.6,562.253 1729.6,1079.56 1791.76,1079.56 1791.76,1374.19 1854.02,1374.19 1854.02,851.36 1916.35,851.36 1916.35,1158.18 1978.7,1158.18 1978.7,1132.87 2041.07,1132.87 2041.07,1143.24 2103.45,1143.24 2103.45,1159.04 2165.82,1159.04 2165.82,1169.17 2228.21,1169.17 2228.21,1032.04 2264.7,1032.04 2264.7,894.177 2290.59,894.177 "/>
<path clip-path="url(#clip122)" d="M218.281 1432.21 L880.195 1432.21 L880.195 1430.4 L942.549 1430.4 L942.549 1430.41 L1004.92 1430.41 L1004.92 1430.41 L1067.29 1430.41 L1067.29 1375.75 L1129.67 1375.75 L1129.67 885.664 L1166.16 885.664 L1166.16 557.606 L1192.05 557.606 L1192.05 374.673 L1228.54 374.673 L1228.54 333.858 L1254.43 333.858 L1254.43 396.516 L1283.52 396.516 L1283.52 545.916 L1305.46 545.916 L1305.46 778.604 L1337.83 778.604 L1337.83 1080.7 L1380.36 1080.7 L1380.36 1372.11 L1430.88 1372.11 L1430.88 1175.97 L1486.7 1175.97 L1486.7 1336.77 L1545.61 1336.77 L1545.61 939.052 L1580.91 939.052 L1580.91 521.765 L1606.2 521.765 L1606.2 230.227 L1642.09 230.227 L1642.09 121.281 L1667.68 121.281 L1667.68 259.737 L1703.86 259.737 L1703.86 595.708 L1729.6 595.708 L1729.6 1093.42 L1791.76 1093.42 L1791.76 1388.01 L1854.02 1388.01 L1854.02 1020.83 L1916.35 1020.83 L1916.35 1216.49 L1978.7 1216.49 L1978.7 1191.16 L2041.07 1191.16 L2041.07 1201.53 L2103.45 1201.53 L2103.45 1217.32 L2165.82 1217.32 L2165.82 1227.45 L2228.21 1227.45 L2228.21 1131.67 L2264.7 1131.67 L2264.7 1034.6 L2290.59 1034.6 L2290.59 1433.78 L2264.7 1433.78 L2264.7 1433.78 L2228.21 1433.78 L2228.21 1433.78 L2165.82 1433.78 L2165.82 1433.78 L2103.45 1433.78 L2103.45 1433.78 L2041.07 1433.78 L2041.07 1433.78 L1978.7 1433.78 L1978.7 1433.78 L1916.35 1433.78 L1916.35 1433.78 L1854.02 1433.78 L1854.02 1433.78 L1791.76 1433.78 L1791.76 1161.67 L1729.6 1161.67 L1729.6 760.534 L1703.86 760.534 L1703.86 376.972 L1667.68 376.972 L1667.68 287.079 L1642.09 287.079 L1642.09 348.44 L1606.2 348.44 L1606.2 689.507 L1580.91 689.507 L1580.91 1059.22 L1545.61 1059.22 L1545.61 1408.78 L1486.7 1408.78 L1486.7 1433.78 L1430.88 1433.78 L1430.88 1394.99 L1380.36 1394.99 L1380.36 1107.88 L1337.83 1107.88 L1337.83 814.327 L1305.46 814.327 L1305.46 598.6 L1283.52 598.6 L1283.52 436.269 L1254.43 436.269 L1254.43 378.512 L1228.54 378.512 L1228.54 406.355 L1192.05 406.355 L1192.05 602.261 L1166.16 602.261 L1166.16 917.348 L1129.67 917.348 L1129.67 1394.28 L1067.29 1394.28 L1067.29 1433.78 L1004.92 1433.78 L1004.92 1433.78 L942.549 1433.78 L942.549 1433.78 L880.195 1433.78 L880.195 1432.82 L218.281 1432.82  Z" fill="#3777bc" fill-rule="evenodd" fill-opacity="1"/>
<polyline clip-path="url(#clip122)" style="stroke:#3777bc; stroke-linecap:round; stroke-linejoin:round; stroke-width:4; stroke-opacity:1; fill:none" points="218.281,1432.21 880.195,1432.21 880.195,1430.4 942.549,1430.4 942.549,1430.41 1004.92,1430.41 1004.92,1430.41 1067.29,1430.41 1067.29,1375.75 1129.67,1375.75 1129.67,885.664 1166.16,885.664 1166.16,557.606 1192.05,557.606 1192.05,374.673 1228.54,374.673 1228.54,333.858 1254.43,333.858 1254.43,396.516 1283.52,396.516 1283.52,545.916 1305.46,545.916 1305.46,778.604 1337.83,778.604 1337.83,1080.7 1380.36,1080.7 1380.36,1372.11 1430.88,1372.11 1430.88,1175.97 1486.7,1175.97 1486.7,1336.77 1545.61,1336.77 1545.61,939.052 1580.91,939.052 1580.91,521.765 1606.2,521.765 1606.2,230.227 1642.09,230.227 1642.09,121.281 1667.68,121.281 1667.68,259.737 1703.86,259.737 1703.86,595.708 1729.6,595.708 1729.6,1093.42 1791.76,1093.42 1791.76,1388.01 1854.02,1388.01 1854.02,1020.83 1916.35,1020.83 1916.35,1216.49 1978.7,1216.49 1978.7,1191.16 2041.07,1191.16 2041.07,1201.53 2103.45,1201.53 2103.45,1217.32 2165.82,1217.32 2165.82,1227.45 2228.21,1227.45 2228.21,1131.67 2264.7,1131.67 2264.7,1034.6 2290.59,1034.6 "/>
<path clip-path="url(#clip122)" d="M218.281 1432.35 L880.195 1432.35 L880.195 1431.94 L942.549 1431.94 L942.549 1431.94 L1004.92 1431.94 L1004.92 1431.94 L1067.29 1431.94 L1067.29 1380.96 L1129.67 1380.96 L1129.67 894.579 L1166.16 894.579 L1166.16 570.171 L1192.05 570.171 L1192.05 383.587 L1228.54 383.587 L1228.54 346.422 L1254.43 346.422 L1254.43 407.701 L1283.52 407.701 L1283.52 560.74 L1305.46 560.74 L1305.46 788.655 L1337.83 788.655 L1337.83 1088.35 L1380.36 1088.35 L1380.36 1378.54 L1430.88 1378.54 L1430.88 1317.22 L1486.7 1317.22 L1486.7 1356.26 L1545.61 1356.26 L1545.61 971.573 L1580.91 971.573 L1580.91 567.161 L1606.2 567.161 L1606.2 262.219 L1642.09 262.219 L1642.09 166.15 L1667.68 166.15 L1667.68 291.464 L1703.86 291.464 L1703.86 640.315 L1729.6 640.315 L1729.6 1111.89 L1791.76 1111.89 L1791.76 1406.45 L1854.02 1406.45 L1854.02 1246.8 L1916.35 1246.8 L1916.35 1294.44 L1978.7 1294.44 L1978.7 1269.09 L2041.07 1269.09 L2041.07 1279.45 L2103.45 1279.45 L2103.45 1295.24 L2165.82 1295.24 L2165.82 1305.37 L2228.21 1305.37 L2228.21 1264.87 L2264.7 1264.87 L2264.7 1222.32 L2290.59 1222.32 L2290.59 1433.78 L2264.7 1433.78 L2264.7 1433.78 L2228.21 1433.78 L2228.21 1433.58 L2165.82 1433.58 L2165.82 1423.46 L2103.45 1423.46 L2103.45 1407.68 L2041.07 1407.68 L2041.07 1397.34 L1978.7 1397.34 L1978.7 1422.71 L1916.35 1422.71 L1916.35 1433.78 L1854.02 1433.78 L1854.02 1433.78 L1791.76 1433.78 L1791.76 1141.56 L1729.6 1141.56 L1729.6 711.955 L1703.86 711.955 L1703.86 342.419 L1667.68 342.419 L1667.68 238.213 L1642.09 238.213 L1642.09 313.599 L1606.2 313.599 L1606.2 640.068 L1580.91 640.068 L1580.91 1023.8 L1545.61 1023.8 L1545.61 1387.56 L1486.7 1387.56 L1486.7 1433.78 L1430.88 1433.78 L1430.88 1388.59 L1380.36 1388.59 L1380.36 1100.29 L1337.83 1100.29 L1337.83 804.341 L1305.46 804.341 L1305.46 583.874 L1283.52 583.874 L1283.52 425.157 L1254.43 425.157 L1254.43 366.03 L1228.54 366.03 L1228.54 397.499 L1192.05 397.499 L1192.05 589.779 L1166.16 589.779 L1166.16 908.491 L1129.67 908.491 L1129.67 1389.1 L1067.29 1389.1 L1067.29 1433.78 L1004.92 1433.78 L1004.92 1433.78 L942.549 1433.78 L942.549 1433.78 L880.195 1433.78 L880.195 1432.57 L218.281 1432.57  Z" fill="#76b4e7" fill-rule="evenodd" fill-opacity="1"/>
<polyline clip-path="url(#clip122)" style="stroke:#76b4e7; stroke-linecap:round; stroke-linejoin:round; stroke-width:4; stroke-opacity:1; fill:none" points="218.281,1432.35 880.195,1432.35 880.195,1431.94 942.549,1431.94 942.549,1431.94 1004.92,1431.94 1004.92,1431.94 1067.29,1431.94 1067.29,1380.96 1129.67,1380.96 1129.67,894.579 1166.16,894.579 1166.16,570.171 1192.05,570.171 1192.05,383.587 1228.54,383.587 1228.54,346.422 1254.43,346.422 1254.43,407.701 1283.52,407.701 1283.52,560.74 1305.46,560.74 1305.46,788.655 1337.83,788.655 1337.83,1088.35 1380.36,1088.35 1380.36,1378.54 1430.88,1378.54 1430.88,1317.22 1486.7,1317.22 1486.7,1356.26 1545.61,1356.26 1545.61,971.573 1580.91,971.573 1580.91,567.161 1606.2,567.161 1606.2,262.219 1642.09,262.219 1642.09,166.15 1667.68,166.15 1667.68,291.464 1703.86,291.464 1703.86,640.315 1729.6,640.315 1729.6,1111.89 1791.76,1111.89 1791.76,1406.45 1854.02,1406.45 1854.02,1246.8 1916.35,1246.8 1916.35,1294.44 1978.7,1294.44 1978.7,1269.09 2041.07,1269.09 2041.07,1279.45 2103.45,1279.45 2103.45,1295.24 2165.82,1295.24 2165.82,1305.37 2228.21,1305.37 2228.21,1264.87 2264.7,1264.87 2264.7,1222.32 2290.59,1222.32 "/>
<path clip-path="url(#clip122)" d="M218.281 1432.35 L880.195 1432.35 L880.195 1431.94 L942.549 1431.94 L942.549 1431.94 L1004.92 1431.94 L1004.92 1431.94 L1067.29 1431.94 L1067.29 1381.88 L1129.67 1381.88 L1129.67 896.152 L1166.16 896.152 L1166.16 572.388 L1192.05 572.388 L1192.05 385.16 L1228.54 385.16 L1228.54 348.639 L1254.43 348.639 L1254.43 409.675 L1283.52 409.675 L1283.52 563.356 L1305.46 563.356 L1305.46 790.429 L1337.83 790.429 L1337.83 1089.7 L1380.36 1089.7 L1380.36 1379.68 L1430.88 1379.68 L1430.88 1342.93 L1486.7 1342.93 L1486.7 1359.83 L1545.61 1359.83 L1545.61 977.535 L1580.91 977.535 L1580.91 575.484 L1606.2 575.484 L1606.2 268.084 L1642.09 268.084 L1642.09 174.377 L1667.68 174.377 L1667.68 297.281 L1703.86 297.281 L1703.86 648.493 L1729.6 648.493 L1729.6 1115.28 L1791.76 1115.28 L1791.76 1409.83 L1854.02 1409.83 L1854.02 1287.94 L1916.35 1287.94 L1916.35 1308.55 L1978.7 1308.55 L1978.7 1283.21 L2041.07 1283.21 L2041.07 1293.56 L2103.45 1293.56 L2103.45 1309.35 L2165.82 1309.35 L2165.82 1319.48 L2228.21 1319.48 L2228.21 1288.99 L2264.7 1288.99 L2264.7 1256.32 L2290.59 1256.32 L2290.59 1433.78 L2264.7 1433.78 L2264.7 1433.78 L2228.21 1433.78 L2228.21 1418.38 L2165.82 1418.38 L2165.82 1408.25 L2103.45 1408.25 L2103.45 1392.47 L2041.07 1392.47 L2041.07 1382.13 L1978.7 1382.13 L1978.7 1407.49 L1916.35 1407.49 L1916.35 1433.78 L1854.02 1433.78 L1854.02 1432.5 L1791.76 1432.5 L1791.76 1137.98 L1729.6 1137.98 L1729.6 703.326 L1703.86 703.326 L1703.86 336.281 L1667.68 336.281 L1667.68 229.533 L1642.09 229.533 L1642.09 307.41 L1606.2 307.41 L1606.2 631.287 L1580.91 631.287 L1580.91 1017.51 L1545.61 1017.51 L1545.61 1383.79 L1486.7 1383.79 L1486.7 1433.78 L1430.88 1433.78 L1430.88 1387.46 L1380.36 1387.46 L1380.36 1098.94 L1337.83 1098.94 L1337.83 802.579 L1305.46 802.579 L1305.46 581.275 L1283.52 581.275 L1283.52 423.196 L1254.43 423.196 L1254.43 363.827 L1228.54 363.827 L1228.54 395.936 L1192.05 395.936 L1192.05 587.576 L1166.16 587.576 L1166.16 906.928 L1129.67 906.928 L1129.67 1388.19 L1067.29 1388.19 L1067.29 1433.78 L1004.92 1433.78 L1004.92 1433.78 L942.549 1433.78 L942.549 1433.78 L880.195 1433.78 L880.195 1432.53 L218.281 1432.53  Z" fill="#b8def6" fill-rule="evenodd" fill-opacity="1"/>
<polyline clip-path="url(#clip122)" style="stroke:#b8def6; stroke-linecap:round; stroke-linejoin:round; stroke-width:4; stroke-opacity:1; fill:none" points="218.281,1432.35 880.195,1432.35 880.195,1431.94 942.549,1431.94 942.549,1431.94 1004.92,1431.94 1004.92,1431.94 1067.29,1431.94 1067.29,1381.88 1129.67,1381.88 1129.67,896.152 1166.16,896.152 1166.16,572.388 1192.05,572.388 1192.05,385.16 1228.54,385.16 1228.54,348.639 1254.43,348.639 1254.43,409.675 1283.52,409.675 1283.52,563.356 1305.46,563.356 1305.46,790.429 1337.83,790.429 1337.83,1089.7 1380.36,1089.7 1380.36,1379.68 1430.88,1379.68 1430.88,1342.93 1486.7,1342.93 1486.7,1359.83 1545.61,1359.83 1545.61,977.535 1580.91,977.535 1580.91,575.484 1606.2,575.484 1606.2,268.084 1642.09,268.084 1642.09,174.377 1667.68,174.377 1667.68,297.281 1703.86,297.281 1703.86,648.493 1729.6,648.493 1729.6,1115.28 1791.76,1115.28 1791.76,1409.83 1854.02,1409.83 1854.02,1287.94 1916.35,1287.94 1916.35,1308.55 1978.7,1308.55 1978.7,1283.21 2041.07,1283.21 2041.07,1293.56 2103.45,1293.56 2103.45,1309.35 2165.82,1309.35 2165.82,1319.48 2228.21,1319.48 2228.21,1288.99 2264.7,1288.99 2264.7,1256.32 2290.59,1256.32 "/>
<path clip-path="url(#clip122)" d="M218.281 1432.38 L880.195 1432.38 L880.195 1432.25 L942.549 1432.25 L942.549 1432.25 L1004.92 1432.25 L1004.92 1432.25 L1067.29 1432.25 L1067.29 1382.8 L1129.67 1382.8 L1129.67 897.725 L1166.16 897.725 L1166.16 574.605 L1192.05 574.605 L1192.05 386.733 L1228.54 386.733 L1228.54 350.857 L1254.43 350.857 L1254.43 411.648 L1283.52 411.648 L1283.52 565.972 L1305.46 565.972 L1305.46 792.203 L1337.83 792.203 L1337.83 1091.05 L1380.36 1091.05 L1380.36 1380.82 L1430.88 1380.82 L1430.88 1368.98 L1486.7 1368.98 L1486.7 1363.4 L1545.61 1363.4 L1545.61 983.498 L1580.91 983.498 L1580.91 583.806 L1606.2 583.806 L1606.2 273.949 L1642.09 273.949 L1642.09 182.603 L1667.68 182.603 L1667.68 303.097 L1703.86 303.097 L1703.86 656.67 L1729.6 656.67 L1729.6 1118.66 L1791.76 1118.66 L1791.76 1413.21 L1854.02 1413.21 L1854.02 1329.39 L1916.35 1329.39 L1916.35 1322.98 L1978.7 1322.98 L1978.7 1297.63 L2041.07 1297.63 L2041.07 1307.98 L2103.45 1307.98 L2103.45 1323.77 L2165.82 1323.77 L2165.82 1333.89 L2228.21 1333.89 L2228.21 1313.63 L2264.7 1313.63 L2264.7 1291.06 L2290.59 1291.06 L2290.59 1433.78 L2264.7 1433.78 L2264.7 1431.78 L2228.21 1431.78 L2228.21 1403.01 L2165.82 1403.01 L2165.82 1392.88 L2103.45 1392.88 L2103.45 1377.1 L2041.07 1377.1 L2041.07 1366.75 L1978.7 1366.75 L1978.7 1392.12 L1916.35 1392.12 L1916.35 1433.78 L1854.02 1433.78 L1854.02 1429.13 L1791.76 1429.13 L1791.76 1134.61 L1729.6 1134.61 L1729.6 695.176 L1703.86 695.176 L1703.86 330.485 L1667.68 330.485 L1667.68 221.335 L1642.09 221.335 L1642.09 301.565 L1606.2 301.565 L1606.2 622.993 L1580.91 622.993 L1580.91 1011.57 L1545.61 1011.57 L1545.61 1380.23 L1486.7 1380.23 L1486.7 1433.78 L1430.88 1433.78 L1430.88 1386.26 L1380.36 1386.26 L1380.36 1097.51 L1337.83 1097.51 L1337.83 800.7 L1305.46 800.7 L1305.46 578.503 L1283.52 578.503 L1283.52 421.104 L1254.43 421.104 L1254.43 361.478 L1228.54 361.478 L1228.54 394.269 L1192.05 394.269 L1192.05 585.226 L1166.16 585.226 L1166.16 905.261 L1129.67 905.261 L1129.67 1387.21 L1067.29 1387.21 L1067.29 1433.47 L1004.92 1433.47 L1004.92 1433.47 L942.549 1433.47 L942.549 1433.47 L880.195 1433.47 L880.195 1432.5 L218.281 1432.5  Z" fill="#ffc9bc" fill-rule="evenodd" fill-opacity="1"/>
<polyline clip-path="url(#clip122)" style="stroke:#ffc9bc; stroke-linecap:round; stroke-linejoin:round; stroke-width:4; stroke-opacity:1; fill:none" points="218.281,1432.38 880.195,1432.38 880.195,1432.25 942.549,1432.25 942.549,1432.25 1004.92,1432.25 1004.92,1432.25 1067.29,1432.25 1067.29,1382.8 1129.67,1382.8 1129.67,897.725 1166.16,897.725 1166.16,574.605 1192.05,574.605 1192.05,386.733 1228.54,386.733 1228.54,350.857 1254.43,350.857 1254.43,411.648 1283.52,411.648 1283.52,565.972 1305.46,565.972 1305.46,792.203 1337.83,792.203 1337.83,1091.05 1380.36,1091.05 1380.36,1380.82 1430.88,1380.82 1430.88,1368.98 1486.7,1368.98 1486.7,1363.4 1545.61,1363.4 1545.61,983.498 1580.91,983.498 1580.91,583.806 1606.2,583.806 1606.2,273.949 1642.09,273.949 1642.09,182.603 1667.68,182.603 1667.68,303.097 1703.86,303.097 1703.86,656.67 1729.6,656.67 1729.6,1118.66 1791.76,1118.66 1791.76,1413.21 1854.02,1413.21 1854.02,1329.39 1916.35,1329.39 1916.35,1322.98 1978.7,1322.98 1978.7,1297.63 2041.07,1297.63 2041.07,1307.98 2103.45,1307.98 2103.45,1323.77 2165.82,1323.77 2165.82,1333.89 2228.21,1333.89 2228.21,1313.63 2264.7,1313.63 2264.7,1291.06 2290.59,1291.06 "/>
<path clip-path="url(#clip122)" d="M218.281 1432.41 L880.195 1432.41 L880.195 1432.55 L942.549 1432.55 L942.549 1432.55 L1004.92 1432.55 L1004.92 1432.55 L1067.29 1432.55 L1067.29 1383.72 L1129.67 1383.72 L1129.67 899.298 L1166.16 899.298 L1166.16 576.822 L1192.05 576.822 L1192.05 388.306 L1228.54 388.306 L1228.54 353.074 L1254.43 353.074 L1254.43 413.622 L1283.52 413.622 L1283.52 568.587 L1305.46 568.587 L1305.46 793.976 L1337.83 793.976 L1337.83 1092.4 L1380.36 1092.4 L1380.36 1381.95 L1430.88 1381.95 L1430.88 1391.27 L1486.7 1391.27 L1486.7 1366.33 L1545.61 1366.33 L1545.61 988.376 L1580.91 988.376 L1580.91 590.615 L1606.2 590.615 L1606.2 278.748 L1642.09 278.748 L1642.09 189.333 L1667.68 189.333 L1667.68 307.856 L1703.86 307.856 L1703.86 663.361 L1729.6 663.361 L1729.6 1121.43 L1791.76 1121.43 L1791.76 1415.98 L1854.02 1415.98 L1854.02 1365 L1916.35 1365 L1916.35 1335.25 L1978.7 1335.25 L1978.7 1309.9 L2041.07 1309.9 L2041.07 1320.25 L2103.45 1320.25 L2103.45 1336.04 L2165.82 1336.04 L2165.82 1346.16 L2228.21 1346.16 L2228.21 1334.61 L2264.7 1334.61 L2264.7 1320.62 L2290.59 1320.62 L2290.59 1427.24 L2264.7 1427.24 L2264.7 1410.26 L2228.21 1410.26 L2228.21 1390.42 L2165.82 1390.42 L2165.82 1380.29 L2103.45 1380.29 L2103.45 1364.51 L2041.07 1364.51 L2041.07 1354.16 L1978.7 1354.16 L1978.7 1379.52 L1916.35 1379.52 L1916.35 1433.78 L1854.02 1433.78 L1854.02 1426.22 L1791.76 1426.22 L1791.76 1131.7 L1729.6 1131.7 L1729.6 688.145 L1703.86 688.145 L1703.86 325.484 L1667.68 325.484 L1667.68 214.262 L1642.09 214.262 L1642.09 296.522 L1606.2 296.522 L1606.2 615.837 L1580.91 615.837 L1580.91 1006.44 L1545.61 1006.44 L1545.61 1377.15 L1486.7 1377.15 L1486.7 1433.78 L1430.88 1433.78 L1430.88 1385.28 L1380.36 1385.28 L1380.36 1096.35 L1337.83 1096.35 L1337.83 799.172 L1305.46 799.172 L1305.46 576.25 L1283.52 576.25 L1283.52 419.405 L1254.43 419.405 L1254.43 359.569 L1228.54 359.569 L1228.54 392.915 L1192.05 392.915 L1192.05 583.317 L1166.16 583.317 L1166.16 903.907 L1129.67 903.907 L1129.67 1386.42 L1067.29 1386.42 L1067.29 1433.17 L1004.92 1433.17 L1004.92 1433.17 L942.549 1433.17 L942.549 1433.17 L880.195 1433.17 L880.195 1432.47 L218.281 1432.47  Z" fill="#ff8d7b" fill-rule="evenodd" fill-opacity="1"/>
<polyline clip-path="url(#clip122)" style="stroke:#ff8d7b; stroke-linecap:round; stroke-linejoin:round; stroke-width:4; stroke-opacity:1; fill:none" points="218.281,1432.41 880.195,1432.41 880.195,1432.55 942.549,1432.55 942.549,1432.55 1004.92,1432.55 1004.92,1432.55 1067.29,1432.55 1067.29,1383.72 1129.67,1383.72 1129.67,899.298 1166.16,899.298 1166.16,576.822 1192.05,576.822 1192.05,388.306 1228.54,388.306 1228.54,353.074 1254.43,353.074 1254.43,413.622 1283.52,413.622 1283.52,568.587 1305.46,568.587 1305.46,793.976 1337.83,793.976 1337.83,1092.4 1380.36,1092.4 1380.36,1381.95 1430.88,1381.95 1430.88,1391.27 1486.7,1391.27 1486.7,1366.33 1545.61,1366.33 1545.61,988.376 1580.91,988.376 1580.91,590.615 1606.2,590.615 1606.2,278.748 1642.09,278.748 1642.09,189.333 1667.68,189.333 1667.68,307.856 1703.86,307.856 1703.86,663.361 1729.6,663.361 1729.6,1121.43 1791.76,1121.43 1791.76,1415.98 1854.02,1415.98 1854.02,1365 1916.35,1365 1916.35,1335.25 1978.7,1335.25 1978.7,1309.9 2041.07,1309.9 2041.07,1320.25 2103.45,1320.25 2103.45,1336.04 2165.82,1336.04 2165.82,1346.16 2228.21,1346.16 2228.21,1334.61 2264.7,1334.61 2264.7,1320.62 2290.59,1320.62 "/>
<path clip-path="url(#clip122)" d="M218.281 1432.44 L880.195 1432.44 L880.195 1432.86 L942.549 1432.86 L942.549 1432.86 L1004.92 1432.86 L1004.92 1432.86 L1067.29 1432.86 L1067.29 1384.34 L1129.67 1384.34 L1129.67 900.347 L1166.16 900.347 L1166.16 578.3 L1192.05 578.3 L1192.05 389.355 L1228.54 389.355 L1228.54 354.552 L1254.43 354.552 L1254.43 414.938 L1283.52 414.938 L1283.52 570.331 L1305.46 570.331 L1305.46 795.159 L1337.83 795.159 L1337.83 1093.3 L1380.36 1093.3 L1380.36 1382.71 L1430.88 1382.71 L1430.88 1407.04 L1486.7 1407.04 L1486.7 1368.6 L1545.61 1368.6 L1545.61 992.17 L1580.91 992.17 L1580.91 595.912 L1606.2 595.912 L1606.2 282.48 L1642.09 282.48 L1642.09 194.568 L1667.68 194.568 L1667.68 311.558 L1703.86 311.558 L1703.86 668.565 L1729.6 668.565 L1729.6 1123.59 L1791.76 1123.59 L1791.76 1418.13 L1854.02 1418.13 L1854.02 1390.79 L1916.35 1390.79 L1916.35 1343.84 L1978.7 1343.84 L1978.7 1318.49 L2041.07 1318.49 L2041.07 1328.84 L2103.45 1328.84 L2103.45 1344.63 L2165.82 1344.63 L2165.82 1354.75 L2228.21 1354.75 L2228.21 1349.29 L2264.7 1349.29 L2264.7 1341.31 L2290.59 1341.31 L2290.59 1406.05 L2264.7 1406.05 L2264.7 1395.23 L2228.21 1395.23 L2228.21 1381.62 L2165.82 1381.62 L2165.82 1371.5 L2103.45 1371.5 L2103.45 1355.71 L2041.07 1355.71 L2041.07 1345.37 L1978.7 1345.37 L1978.7 1370.73 L1916.35 1370.73 L1916.35 1433.78 L1854.02 1433.78 L1854.02 1424.18 L1791.76 1424.18 L1791.76 1129.65 L1729.6 1129.65 L1729.6 683.191 L1703.86 683.191 L1703.86 321.96 L1667.68 321.96 L1667.68 209.279 L1642.09 209.279 L1642.09 292.969 L1606.2 292.969 L1606.2 610.796 L1580.91 610.796 L1580.91 1002.83 L1545.61 1002.83 L1545.61 1374.99 L1486.7 1374.99 L1486.7 1433.78 L1430.88 1433.78 L1430.88 1384.6 L1380.36 1384.6 L1380.36 1095.55 L1337.83 1095.55 L1337.83 798.115 L1305.46 798.115 L1305.46 574.691 L1283.52 574.691 L1283.52 418.228 L1254.43 418.228 L1254.43 358.247 L1228.54 358.247 L1228.54 391.977 L1192.05 391.977 L1192.05 581.996 L1166.16 581.996 L1166.16 902.969 L1129.67 902.969 L1129.67 1385.87 L1067.29 1385.87 L1067.29 1432.86 L1004.92 1432.86 L1004.92 1432.86 L942.549 1432.86 L942.549 1432.86 L880.195 1432.86 L880.195 1432.44 L218.281 1432.44  Z" fill="#d14135" fill-rule="evenodd" fill-opacity="1"/>
<polyline clip-path="url(#clip122)" style="stroke:#d14135; stroke-linecap:round; stroke-linejoin:round; stroke-width:4; stroke-opacity:1; fill:none" points="218.281,1432.44 880.195,1432.44 880.195,1432.86 942.549,1432.86 942.549,1432.86 1004.92,1432.86 1004.92,1432.86 1067.29,1432.86 1067.29,1384.34 1129.67,1384.34 1129.67,900.347 1166.16,900.347 1166.16,578.3 1192.05,578.3 1192.05,389.355 1228.54,389.355 1228.54,354.552 1254.43,354.552 1254.43,414.938 1283.52,414.938 1283.52,570.331 1305.46,570.331 1305.46,795.159 1337.83,795.159 1337.83,1093.3 1380.36,1093.3 1380.36,1382.71 1430.88,1382.71 1430.88,1407.04 1486.7,1407.04 1486.7,1368.6 1545.61,1368.6 1545.61,992.17 1580.91,992.17 1580.91,595.912 1606.2,595.912 1606.2,282.48 1642.09,282.48 1642.09,194.568 1667.68,194.568 1667.68,311.558 1703.86,311.558 1703.86,668.565 1729.6,668.565 1729.6,1123.59 1791.76,1123.59 1791.76,1418.13 1854.02,1418.13 1854.02,1390.79 1916.35,1390.79 1916.35,1343.84 1978.7,1343.84 1978.7,1318.49 2041.07,1318.49 2041.07,1328.84 2103.45,1328.84 2103.45,1344.63 2165.82,1344.63 2165.82,1354.75 2228.21,1354.75 2228.21,1349.29 2264.7,1349.29 2264.7,1341.31 2290.59,1341.31 "/>
<path clip-path="url(#clip122)" d="M218.281 1432.44 L880.195 1432.44 L880.195 1432.86 L942.549 1432.86 L942.549 1432.86 L1004.92 1432.86 L1004.92 1432.86 L1067.29 1432.86 L1067.29 1384.95 L1129.67 1384.95 L1129.67 901.396 L1166.16 901.396 L1166.16 579.779 L1192.05 579.779 L1192.05 390.404 L1228.54 390.404 L1228.54 356.03 L1254.43 356.03 L1254.43 416.254 L1283.52 416.254 L1283.52 572.075 L1305.46 572.075 L1305.46 796.341 L1337.83 796.341 L1337.83 1094.2 L1380.36 1094.2 L1380.36 1383.47 L1430.88 1383.47 L1430.88 1431.38 L1486.7 1431.38 L1486.7 1371.52 L1545.61 1371.52 L1545.61 997.048 L1580.91 997.048 L1580.91 602.721 L1606.2 602.721 L1606.2 287.279 L1642.09 287.279 L1642.09 201.298 L1667.68 201.298 L1667.68 316.317 L1703.86 316.317 L1703.86 675.256 L1729.6 675.256 L1729.6 1126.36 L1791.76 1126.36 L1791.76 1420.9 L1854.02 1420.9 L1854.02 1429.64 L1916.35 1429.64 L1916.35 1357.35 L1978.7 1357.35 L1978.7 1331.99 L2041.07 1331.99 L2041.07 1342.34 L2103.45 1342.34 L2103.45 1358.12 L2165.82 1358.12 L2165.82 1368.25 L2228.21 1368.25 L2228.21 1372.36 L2264.7 1372.36 L2264.7 1373.83 L2290.59 1373.83 L2290.59 1373.83 L2264.7 1373.83 L2264.7 1372.36 L2228.21 1372.36 L2228.21 1368.25 L2165.82 1368.25 L2165.82 1358.12 L2103.45 1358.12 L2103.45 1342.34 L2041.07 1342.34 L2041.07 1331.99 L1978.7 1331.99 L1978.7 1357.35 L1916.35 1357.35 L1916.35 1429.64 L1854.02 1429.64 L1854.02 1420.9 L1791.76 1420.9 L1791.76 1126.36 L1729.6 1126.36 L1729.6 675.256 L1703.86 675.256 L1703.86 316.317 L1667.68 316.317 L1667.68 201.298 L1642.09 201.298 L1642.09 287.279 L1606.2 287.279 L1606.2 602.721 L1580.91 602.721 L1580.91 997.048 L1545.61 997.048 L1545.61 1371.52 L1486.7 1371.52 L1486.7 1431.38 L1430.88 1431.38 L1430.88 1383.47 L1380.36 1383.47 L1380.36 1094.2 L1337.83 1094.2 L1337.83 796.341 L1305.46 796.341 L1305.46 572.075 L1283.52 572.075 L1283.52 416.254 L1254.43 416.254 L1254.43 356.03 L1228.54 356.03 L1228.54 390.404 L1192.05 390.404 L1192.05 579.779 L1166.16 579.779 L1166.16 901.396 L1129.67 901.396 L1129.67 1384.95 L1067.29 1384.95 L1067.29 1432.86 L1004.92 1432.86 L1004.92 1432.86 L942.549 1432.86 L942.549 1432.86 L880.195 1432.86 L880.195 1432.44 L218.281 1432.44  Z" fill="#600101" fill-rule="evenodd" fill-opacity="1"/>
<polyline clip-path="url(#clip122)" style="stroke:#600101; stroke-linecap:round; stroke-linejoin:round; stroke-width:4; stroke-opacity:1; fill:none" points="218.281,1432.44 880.195,1432.44 880.195,1432.86 942.549,1432.86 942.549,1432.86 1004.92,1432.86 1004.92,1432.86 1067.29,1432.86 1067.29,1384.95 1129.67,1384.95 1129.67,901.396 1166.16,901.396 1166.16,579.779 1192.05,579.779 1192.05,390.404 1228.54,390.404 1228.54,356.03 1254.43,356.03 1254.43,416.254 1283.52,416.254 1283.52,572.075 1305.46,572.075 1305.46,796.341 1337.83,796.341 1337.83,1094.2 1380.36,1094.2 1380.36,1383.47 1430.88,1383.47 1430.88,1431.38 1486.7,1431.38 1486.7,1371.52 1545.61,1371.52 1545.61,997.048 1580.91,997.048 1580.91,602.721 1606.2,602.721 1606.2,287.279 1642.09,287.279 1642.09,201.298 1667.68,201.298 1667.68,316.317 1703.86,316.317 1703.86,675.256 1729.6,675.256 1729.6,1126.36 1791.76,1126.36 1791.76,1420.9 1854.02,1420.9 1854.02,1429.64 1916.35,1429.64 1916.35,1357.35 1978.7,1357.35 1978.7,1331.99 2041.07,1331.99 2041.07,1342.34 2103.45,1342.34 2103.45,1358.12 2165.82,1358.12 2165.82,1368.25 2228.21,1368.25 2228.21,1372.36 2264.7,1372.36 2264.7,1373.83 2290.59,1373.83 "/>
<polyline clip-path="url(#clip122)" style="stroke:#808080; stroke-linecap:round; stroke-linejoin:round; stroke-width:4; stroke-opacity:1; fill:none" stroke-dasharray="16, 10" points="1067.29,1433.78 1067.29,87.6286 "/>
<polyline clip-path="url(#clip122)" style="stroke:#808080; stroke-linecap:round; stroke-linejoin:round; stroke-width:4; stroke-opacity:1; fill:none" stroke-dasharray="16, 10" points="1430.88,1433.78 1430.88,87.6286 "/>
<polyline clip-path="url(#clip122)" style="stroke:#808080; stroke-linecap:round; stroke-linejoin:round; stroke-width:4; stroke-opacity:1; fill:none" stroke-dasharray="16, 10" points="1486.7,1433.78 1486.7,87.6286 "/>
<polyline clip-path="url(#clip122)" style="stroke:#808080; stroke-linecap:round; stroke-linejoin:round; stroke-width:4; stroke-opacity:1; fill:none" stroke-dasharray="16, 10" points="1854.02,1433.78 1854.02,87.6286 "/>
<polyline clip-path="url(#clip122)" style="stroke:#808080; stroke-linecap:round; stroke-linejoin:round; stroke-width:4; stroke-opacity:1; fill:none" stroke-dasharray="16, 10" points="1916.35,1433.78 1916.35,87.6286 "/>
<polyline clip-path="url(#clip122)" style="stroke:#808080; stroke-linecap:round; stroke-linejoin:round; stroke-width:4; stroke-opacity:1; fill:none" stroke-dasharray="16, 10" points="2290.59,1433.78 2290.59,87.6286 "/>
<polyline clip-path="url(#clip122)" style="stroke:#808080; stroke-linecap:round; stroke-linejoin:round; stroke-width:4; stroke-opacity:1; fill:none" stroke-dasharray="16, 10" points="218.281,1433.78 218.281,87.6286 "/>
<polyline clip-path="url(#clip122)" style="stroke:#808080; stroke-linecap:round; stroke-linejoin:round; stroke-width:4; stroke-opacity:1; fill:none" stroke-dasharray="16, 10" points="1067.29,1433.78 1067.29,87.6286 "/>
<polyline clip-path="url(#clip122)" style="stroke:#808080; stroke-linecap:round; stroke-linejoin:round; stroke-width:4; stroke-opacity:1; fill:none" stroke-dasharray="16, 10" points="1430.88,1433.78 1430.88,87.6286 "/>
<polyline clip-path="url(#clip122)" style="stroke:#808080; stroke-linecap:round; stroke-linejoin:round; stroke-width:4; stroke-opacity:1; fill:none" stroke-dasharray="16, 10" points="1486.7,1433.78 1486.7,87.6286 "/>
<polyline clip-path="url(#clip122)" style="stroke:#808080; stroke-linecap:round; stroke-linejoin:round; stroke-width:4; stroke-opacity:1; fill:none" stroke-dasharray="16, 10" points="1854.02,1433.78 1854.02,87.6286 "/>
<polyline clip-path="url(#clip122)" style="stroke:#808080; stroke-linecap:round; stroke-linejoin:round; stroke-width:4; stroke-opacity:1; fill:none" stroke-dasharray="16, 10" points="1916.35,1433.78 1916.35,87.6286 "/>
<path clip-path="url(#clip120)" d="M229.334 561.368 L675.409 561.368 L675.409 94.8081 L229.334 94.8081  Z" fill="#ffffff" fill-rule="evenodd" fill-opacity="1"/>
<polyline clip-path="url(#clip120)" style="stroke:#000000; stroke-linecap:round; stroke-linejoin:round; stroke-width:4; stroke-opacity:1; fill:none" points="229.334,561.368 675.409,561.368 675.409,94.8081 229.334,94.8081 229.334,561.368 "/>
<path clip-path="url(#clip120)" d="M253.741 167.384 L400.184 167.384 L400.184 125.912 L253.741 125.912 L253.741 167.384  Z" fill="#082b58" fill-rule="evenodd" fill-opacity="1"/>
<polyline clip-path="url(#clip120)" style="stroke:#082b58; stroke-linecap:round; stroke-linejoin:round; stroke-width:4; stroke-opacity:1; fill:none" points="253.741,125.912 400.184,125.912 "/>
<path clip-path="url(#clip120)" d="M425.262 159.993 L432.901 159.993 L432.901 133.627 L424.591 135.294 L424.591 131.035 L432.855 129.368 L437.531 129.368 L437.531 159.993 L445.169 159.993 L445.169 163.928 L425.262 163.928 L425.262 159.993 Z" fill="#000000" fill-rule="nonzero" fill-opacity="1" /><path clip-path="url(#clip120)" d="M454.614 158.049 L459.498 158.049 L459.498 163.928 L454.614 163.928 L454.614 158.049 Z" fill="#000000" fill-rule="nonzero" fill-opacity="1" /><path clip-path="url(#clip120)" d="M479.683 132.447 Q476.072 132.447 474.243 136.012 Q472.438 139.553 472.438 146.683 Q472.438 153.789 474.243 157.354 Q476.072 160.896 479.683 160.896 Q483.317 160.896 485.123 157.354 Q486.952 153.789 486.952 146.683 Q486.952 139.553 485.123 136.012 Q483.317 132.447 479.683 132.447 M479.683 128.743 Q485.493 128.743 488.549 133.35 Q491.627 137.933 491.627 146.683 Q491.627 155.41 488.549 160.016 Q485.493 164.599 479.683 164.599 Q473.873 164.599 470.794 160.016 Q467.739 155.41 467.739 146.683 Q467.739 137.933 470.794 133.35 Q473.873 128.743 479.683 128.743 Z" fill="#000000" fill-rule="nonzero" fill-opacity="1" /><path clip-path="url(#clip120)" d="M509.845 132.447 Q506.234 132.447 504.405 136.012 Q502.6 139.553 502.6 146.683 Q502.6 153.789 504.405 157.354 Q506.234 160.896 509.845 160.896 Q513.479 160.896 515.285 157.354 Q517.113 153.789 517.113 146.683 Q517.113 139.553 515.285 136.012 Q513.479 132.447 509.845 132.447 M509.845 128.743 Q515.655 128.743 518.711 133.35 Q521.789 137.933 521.789 146.683 Q521.789 155.41 518.711 160.016 Q515.655 164.599 509.845 164.599 Q504.035 164.599 500.956 160.016 Q497.901 155.41 497.901 146.683 Q497.901 137.933 500.956 133.35 Q504.035 128.743 509.845 128.743 Z" fill="#000000" fill-rule="nonzero" fill-opacity="1" /><path clip-path="url(#clip120)" d="M551.581 149.9 L551.581 151.984 L531.998 151.984 Q532.275 156.382 534.637 158.697 Q537.021 160.988 541.257 160.988 Q543.711 160.988 546.002 160.386 Q548.317 159.785 550.586 158.581 L550.586 162.609 Q548.294 163.581 545.886 164.09 Q543.479 164.599 541.002 164.599 Q534.799 164.599 531.164 160.988 Q527.553 157.377 527.553 151.22 Q527.553 144.854 530.979 141.127 Q534.428 137.377 540.261 137.377 Q545.493 137.377 548.525 140.757 Q551.581 144.113 551.581 149.9 M547.322 148.65 Q547.275 145.155 545.354 143.072 Q543.456 140.988 540.308 140.988 Q536.743 140.988 534.59 143.002 Q532.461 145.016 532.137 148.674 L547.322 148.65 Z" fill="#000000" fill-rule="nonzero" fill-opacity="1" /><path clip-path="url(#clip120)" d="M556.419 149.044 L568.896 149.044 L568.896 152.84 L556.419 152.84 L556.419 149.044 Z" fill="#000000" fill-rule="nonzero" fill-opacity="1" /><path clip-path="url(#clip120)" d="M577.09 159.993 L584.729 159.993 L584.729 133.627 L576.419 135.294 L576.419 131.035 L584.683 129.368 L589.358 129.368 L589.358 159.993 L596.997 159.993 L596.997 163.928 L577.09 163.928 L577.09 159.993 Z" fill="#000000" fill-rule="nonzero" fill-opacity="1" /><path clip-path="url(#clip120)" d="M616.442 132.447 Q612.831 132.447 611.002 136.012 Q609.196 139.553 609.196 146.683 Q609.196 153.789 611.002 157.354 Q612.831 160.896 616.442 160.896 Q620.076 160.896 621.881 157.354 Q623.71 153.789 623.71 146.683 Q623.71 139.553 621.881 136.012 Q620.076 132.447 616.442 132.447 M616.442 128.743 Q622.252 128.743 625.307 133.35 Q628.386 137.933 628.386 146.683 Q628.386 155.41 625.307 160.016 Q622.252 164.599 616.442 164.599 Q610.631 164.599 607.553 160.016 Q604.497 155.41 604.497 146.683 Q604.497 137.933 607.553 133.35 Q610.631 128.743 616.442 128.743 Z" fill="#000000" fill-rule="nonzero" fill-opacity="1" /><path clip-path="url(#clip120)" d="M253.741 219.224 L400.184 219.224 L400.184 177.752 L253.741 177.752 L253.741 219.224  Z" fill="#3777bc" fill-rule="evenodd" fill-opacity="1"/>
<polyline clip-path="url(#clip120)" style="stroke:#3777bc; stroke-linecap:round; stroke-linejoin:round; stroke-width:4; stroke-opacity:1; fill:none" points="253.741,177.752 400.184,177.752 "/>
<path clip-path="url(#clip120)" d="M425.262 211.833 L432.901 211.833 L432.901 185.467 L424.591 187.134 L424.591 182.875 L432.855 181.208 L437.531 181.208 L437.531 211.833 L445.169 211.833 L445.169 215.768 L425.262 215.768 L425.262 211.833 Z" fill="#000000" fill-rule="nonzero" fill-opacity="1" /><path clip-path="url(#clip120)" d="M454.614 209.889 L459.498 209.889 L459.498 215.768 L454.614 215.768 L454.614 209.889 Z" fill="#000000" fill-rule="nonzero" fill-opacity="1" /><path clip-path="url(#clip120)" d="M479.683 184.287 Q476.072 184.287 474.243 187.852 Q472.438 191.393 472.438 198.523 Q472.438 205.629 474.243 209.194 Q476.072 212.736 479.683 212.736 Q483.317 212.736 485.123 209.194 Q486.952 205.629 486.952 198.523 Q486.952 191.393 485.123 187.852 Q483.317 184.287 479.683 184.287 M479.683 180.583 Q485.493 180.583 488.549 185.19 Q491.627 189.773 491.627 198.523 Q491.627 207.25 488.549 211.856 Q485.493 216.439 479.683 216.439 Q473.873 216.439 470.794 211.856 Q467.739 207.25 467.739 198.523 Q467.739 189.773 470.794 185.19 Q473.873 180.583 479.683 180.583 Z" fill="#000000" fill-rule="nonzero" fill-opacity="1" /><path clip-path="url(#clip120)" d="M509.845 184.287 Q506.234 184.287 504.405 187.852 Q502.6 191.393 502.6 198.523 Q502.6 205.629 504.405 209.194 Q506.234 212.736 509.845 212.736 Q513.479 212.736 515.285 209.194 Q517.113 205.629 517.113 198.523 Q517.113 191.393 515.285 187.852 Q513.479 184.287 509.845 184.287 M509.845 180.583 Q515.655 180.583 518.711 185.19 Q521.789 189.773 521.789 198.523 Q521.789 207.25 518.711 211.856 Q515.655 216.439 509.845 216.439 Q504.035 216.439 500.956 211.856 Q497.901 207.25 497.901 198.523 Q497.901 189.773 500.956 185.19 Q504.035 180.583 509.845 180.583 Z" fill="#000000" fill-rule="nonzero" fill-opacity="1" /><path clip-path="url(#clip120)" d="M551.581 201.74 L551.581 203.824 L531.998 203.824 Q532.275 208.222 534.637 210.537 Q537.021 212.828 541.257 212.828 Q543.711 212.828 546.002 212.226 Q548.317 211.625 550.586 210.421 L550.586 214.449 Q548.294 215.421 545.886 215.93 Q543.479 216.439 541.002 216.439 Q534.799 216.439 531.164 212.828 Q527.553 209.217 527.553 203.06 Q527.553 196.694 530.979 192.967 Q534.428 189.217 540.261 189.217 Q545.493 189.217 548.525 192.597 Q551.581 195.953 551.581 201.74 M547.322 200.49 Q547.275 196.995 545.354 194.912 Q543.456 192.828 540.308 192.828 Q536.743 192.828 534.59 194.842 Q532.461 196.856 532.137 200.514 L547.322 200.49 Z" fill="#000000" fill-rule="nonzero" fill-opacity="1" /><path clip-path="url(#clip120)" d="M556.419 200.884 L568.896 200.884 L568.896 204.68 L556.419 204.68 L556.419 200.884 Z" fill="#000000" fill-rule="nonzero" fill-opacity="1" /><path clip-path="url(#clip120)" d="M586.28 184.287 Q582.669 184.287 580.84 187.852 Q579.034 191.393 579.034 198.523 Q579.034 205.629 580.84 209.194 Q582.669 212.736 586.28 212.736 Q589.914 212.736 591.72 209.194 Q593.548 205.629 593.548 198.523 Q593.548 191.393 591.72 187.852 Q589.914 184.287 586.28 184.287 M586.28 180.583 Q592.09 180.583 595.145 185.19 Q598.224 189.773 598.224 198.523 Q598.224 207.25 595.145 211.856 Q592.09 216.439 586.28 216.439 Q580.47 216.439 577.391 211.856 Q574.335 207.25 574.335 198.523 Q574.335 189.773 577.391 185.19 Q580.47 180.583 586.28 180.583 Z" fill="#000000" fill-rule="nonzero" fill-opacity="1" /><path clip-path="url(#clip120)" d="M606.488 181.208 L624.844 181.208 L624.844 185.143 L610.77 185.143 L610.77 193.615 Q611.789 193.268 612.807 193.106 Q613.826 192.921 614.844 192.921 Q620.631 192.921 624.011 196.092 Q627.391 199.264 627.391 204.68 Q627.391 210.259 623.918 213.361 Q620.446 216.439 614.127 216.439 Q611.951 216.439 609.682 216.069 Q607.437 215.699 605.03 214.958 L605.03 210.259 Q607.113 211.393 609.335 211.949 Q611.557 212.504 614.034 212.504 Q618.039 212.504 620.377 210.398 Q622.715 208.291 622.715 204.68 Q622.715 201.069 620.377 198.963 Q618.039 196.856 614.034 196.856 Q612.159 196.856 610.284 197.273 Q608.432 197.69 606.488 198.569 L606.488 181.208 Z" fill="#000000" fill-rule="nonzero" fill-opacity="1" /><path clip-path="url(#clip120)" d="M253.741 271.064 L400.184 271.064 L400.184 229.592 L253.741 229.592 L253.741 271.064  Z" fill="#76b4e7" fill-rule="evenodd" fill-opacity="1"/>
<polyline clip-path="url(#clip120)" style="stroke:#76b4e7; stroke-linecap:round; stroke-linejoin:round; stroke-width:4; stroke-opacity:1; fill:none" points="253.741,229.592 400.184,229.592 "/>
<path clip-path="url(#clip120)" d="M425.262 263.673 L432.901 263.673 L432.901 237.307 L424.591 238.974 L424.591 234.715 L432.855 233.048 L437.531 233.048 L437.531 263.673 L445.169 263.673 L445.169 267.608 L425.262 267.608 L425.262 263.673 Z" fill="#000000" fill-rule="nonzero" fill-opacity="1" /><path clip-path="url(#clip120)" d="M454.614 261.729 L459.498 261.729 L459.498 267.608 L454.614 267.608 L454.614 261.729 Z" fill="#000000" fill-rule="nonzero" fill-opacity="1" /><path clip-path="url(#clip120)" d="M479.683 236.127 Q476.072 236.127 474.243 239.692 Q472.438 243.233 472.438 250.363 Q472.438 257.469 474.243 261.034 Q476.072 264.576 479.683 264.576 Q483.317 264.576 485.123 261.034 Q486.952 257.469 486.952 250.363 Q486.952 243.233 485.123 239.692 Q483.317 236.127 479.683 236.127 M479.683 232.423 Q485.493 232.423 488.549 237.03 Q491.627 241.613 491.627 250.363 Q491.627 259.09 488.549 263.696 Q485.493 268.279 479.683 268.279 Q473.873 268.279 470.794 263.696 Q467.739 259.09 467.739 250.363 Q467.739 241.613 470.794 237.03 Q473.873 232.423 479.683 232.423 Z" fill="#000000" fill-rule="nonzero" fill-opacity="1" /><path clip-path="url(#clip120)" d="M509.845 236.127 Q506.234 236.127 504.405 239.692 Q502.6 243.233 502.6 250.363 Q502.6 257.469 504.405 261.034 Q506.234 264.576 509.845 264.576 Q513.479 264.576 515.285 261.034 Q517.113 257.469 517.113 250.363 Q517.113 243.233 515.285 239.692 Q513.479 236.127 509.845 236.127 M509.845 232.423 Q515.655 232.423 518.711 237.03 Q521.789 241.613 521.789 250.363 Q521.789 259.09 518.711 263.696 Q515.655 268.279 509.845 268.279 Q504.035 268.279 500.956 263.696 Q497.901 259.09 497.901 250.363 Q497.901 241.613 500.956 237.03 Q504.035 232.423 509.845 232.423 Z" fill="#000000" fill-rule="nonzero" fill-opacity="1" /><path clip-path="url(#clip120)" d="M551.581 253.58 L551.581 255.664 L531.998 255.664 Q532.275 260.062 534.637 262.377 Q537.021 264.668 541.257 264.668 Q543.711 264.668 546.002 264.066 Q548.317 263.465 550.586 262.261 L550.586 266.289 Q548.294 267.261 545.886 267.77 Q543.479 268.279 541.002 268.279 Q534.799 268.279 531.164 264.668 Q527.553 261.057 527.553 254.9 Q527.553 248.534 530.979 244.807 Q534.428 241.057 540.261 241.057 Q545.493 241.057 548.525 244.437 Q551.581 247.793 551.581 253.58 M547.322 252.33 Q547.275 248.835 545.354 246.752 Q543.456 244.668 540.308 244.668 Q536.743 244.668 534.59 246.682 Q532.461 248.696 532.137 252.354 L547.322 252.33 Z" fill="#000000" fill-rule="nonzero" fill-opacity="1" /><path clip-path="url(#clip120)" d="M556.419 252.724 L568.896 252.724 L568.896 256.52 L556.419 256.52 L556.419 252.724 Z" fill="#000000" fill-rule="nonzero" fill-opacity="1" /><path clip-path="url(#clip120)" d="M586.28 236.127 Q582.669 236.127 580.84 239.692 Q579.034 243.233 579.034 250.363 Q579.034 257.469 580.84 261.034 Q582.669 264.576 586.28 264.576 Q589.914 264.576 591.72 261.034 Q593.548 257.469 593.548 250.363 Q593.548 243.233 591.72 239.692 Q589.914 236.127 586.28 236.127 M586.28 232.423 Q592.09 232.423 595.145 237.03 Q598.224 241.613 598.224 250.363 Q598.224 259.09 595.145 263.696 Q592.09 268.279 586.28 268.279 Q580.47 268.279 577.391 263.696 Q574.335 259.09 574.335 250.363 Q574.335 241.613 577.391 237.03 Q580.47 232.423 586.28 232.423 Z" fill="#000000" fill-rule="nonzero" fill-opacity="1" /><path clip-path="url(#clip120)" d="M607.252 263.673 L614.891 263.673 L614.891 237.307 L606.581 238.974 L606.581 234.715 L614.844 233.048 L619.52 233.048 L619.52 263.673 L627.159 263.673 L627.159 267.608 L607.252 267.608 L607.252 263.673 Z" fill="#000000" fill-rule="nonzero" fill-opacity="1" /><path clip-path="url(#clip120)" d="M253.741 322.904 L400.184 322.904 L400.184 281.432 L253.741 281.432 L253.741 322.904  Z" fill="#b8def6" fill-rule="evenodd" fill-opacity="1"/>
<polyline clip-path="url(#clip120)" style="stroke:#b8def6; stroke-linecap:round; stroke-linejoin:round; stroke-width:4; stroke-opacity:1; fill:none" points="253.741,281.432 400.184,281.432 "/>
<path clip-path="url(#clip120)" d="M430.216 315.513 L446.535 315.513 L446.535 319.448 L424.591 319.448 L424.591 315.513 Q427.253 312.758 431.836 308.129 Q436.443 303.476 437.623 302.133 Q439.869 299.61 440.748 297.874 Q441.651 296.115 441.651 294.425 Q441.651 291.67 439.706 289.934 Q437.785 288.198 434.683 288.198 Q432.484 288.198 430.031 288.962 Q427.6 289.726 424.822 291.277 L424.822 286.555 Q427.646 285.421 430.1 284.842 Q432.554 284.263 434.591 284.263 Q439.961 284.263 443.156 286.948 Q446.35 289.633 446.35 294.124 Q446.35 296.254 445.54 298.175 Q444.753 300.073 442.646 302.666 Q442.068 303.337 438.966 306.555 Q435.864 309.749 430.216 315.513 Z" fill="#000000" fill-rule="nonzero" fill-opacity="1" /><path clip-path="url(#clip120)" d="M456.35 313.569 L461.234 313.569 L461.234 319.448 L456.35 319.448 L456.35 313.569 Z" fill="#000000" fill-rule="nonzero" fill-opacity="1" /><path clip-path="url(#clip120)" d="M471.466 284.888 L489.822 284.888 L489.822 288.823 L475.748 288.823 L475.748 297.295 Q476.766 296.948 477.785 296.786 Q478.803 296.601 479.822 296.601 Q485.609 296.601 488.989 299.772 Q492.368 302.944 492.368 308.36 Q492.368 313.939 488.896 317.041 Q485.424 320.119 479.104 320.119 Q476.928 320.119 474.66 319.749 Q472.415 319.379 470.007 318.638 L470.007 313.939 Q472.091 315.073 474.313 315.629 Q476.535 316.184 479.012 316.184 Q483.016 316.184 485.354 314.078 Q487.692 311.971 487.692 308.36 Q487.692 304.749 485.354 302.643 Q483.016 300.536 479.012 300.536 Q477.137 300.536 475.262 300.953 Q473.41 301.37 471.466 302.249 L471.466 284.888 Z" fill="#000000" fill-rule="nonzero" fill-opacity="1" /><path clip-path="url(#clip120)" d="M511.581 287.967 Q507.97 287.967 506.141 291.532 Q504.336 295.073 504.336 302.203 Q504.336 309.309 506.141 312.874 Q507.97 316.416 511.581 316.416 Q515.215 316.416 517.021 312.874 Q518.85 309.309 518.85 302.203 Q518.85 295.073 517.021 291.532 Q515.215 287.967 511.581 287.967 M511.581 284.263 Q517.391 284.263 520.447 288.87 Q523.525 293.453 523.525 302.203 Q523.525 310.93 520.447 315.536 Q517.391 320.119 511.581 320.119 Q505.771 320.119 502.692 315.536 Q499.637 310.93 499.637 302.203 Q499.637 293.453 502.692 288.87 Q505.771 284.263 511.581 284.263 Z" fill="#000000" fill-rule="nonzero" fill-opacity="1" /><path clip-path="url(#clip120)" d="M553.317 305.42 L553.317 307.504 L533.734 307.504 Q534.012 311.902 536.373 314.217 Q538.757 316.508 542.993 316.508 Q545.447 316.508 547.738 315.906 Q550.053 315.305 552.322 314.101 L552.322 318.129 Q550.03 319.101 547.623 319.61 Q545.215 320.119 542.738 320.119 Q536.535 320.119 532.9 316.508 Q529.289 312.897 529.289 306.74 Q529.289 300.374 532.715 296.647 Q536.164 292.897 541.998 292.897 Q547.229 292.897 550.261 296.277 Q553.317 299.633 553.317 305.42 M549.058 304.17 Q549.011 300.675 547.09 298.592 Q545.192 296.508 542.044 296.508 Q538.479 296.508 536.326 298.522 Q534.197 300.536 533.873 304.194 L549.058 304.17 Z" fill="#000000" fill-rule="nonzero" fill-opacity="1" /><path clip-path="url(#clip120)" d="M558.155 304.564 L570.632 304.564 L570.632 308.36 L558.155 308.36 L558.155 304.564 Z" fill="#000000" fill-rule="nonzero" fill-opacity="1" /><path clip-path="url(#clip120)" d="M588.016 287.967 Q584.405 287.967 582.576 291.532 Q580.771 295.073 580.771 302.203 Q580.771 309.309 582.576 312.874 Q584.405 316.416 588.016 316.416 Q591.65 316.416 593.456 312.874 Q595.284 309.309 595.284 302.203 Q595.284 295.073 593.456 291.532 Q591.65 287.967 588.016 287.967 M588.016 284.263 Q593.826 284.263 596.882 288.87 Q599.96 293.453 599.96 302.203 Q599.96 310.93 596.882 315.536 Q593.826 320.119 588.016 320.119 Q582.206 320.119 579.127 315.536 Q576.071 310.93 576.071 302.203 Q576.071 293.453 579.127 288.87 Q582.206 284.263 588.016 284.263 Z" fill="#000000" fill-rule="nonzero" fill-opacity="1" /><path clip-path="url(#clip120)" d="M608.988 315.513 L616.627 315.513 L616.627 289.147 L608.317 290.814 L608.317 286.555 L616.581 284.888 L621.256 284.888 L621.256 315.513 L628.895 315.513 L628.895 319.448 L608.988 319.448 L608.988 315.513 Z" fill="#000000" fill-rule="nonzero" fill-opacity="1" /><path clip-path="url(#clip120)" d="M253.741 374.744 L400.184 374.744 L400.184 333.272 L253.741 333.272 L253.741 374.744  Z" fill="#ffc9bc" fill-rule="evenodd" fill-opacity="1"/>
<polyline clip-path="url(#clip120)" style="stroke:#ffc9bc; stroke-linecap:round; stroke-linejoin:round; stroke-width:4; stroke-opacity:1; fill:none" points="253.741,333.272 400.184,333.272 "/>
<path clip-path="url(#clip120)" d="M426.049 336.728 L444.406 336.728 L444.406 340.663 L430.332 340.663 L430.332 349.135 Q431.35 348.788 432.369 348.626 Q433.387 348.441 434.406 348.441 Q440.193 348.441 443.572 351.612 Q446.952 354.784 446.952 360.2 Q446.952 365.779 443.48 368.881 Q440.007 371.959 433.688 371.959 Q431.512 371.959 429.244 371.589 Q426.998 371.219 424.591 370.478 L424.591 365.779 Q426.674 366.913 428.896 367.469 Q431.119 368.024 433.595 368.024 Q437.6 368.024 439.938 365.918 Q442.276 363.811 442.276 360.2 Q442.276 356.589 439.938 354.483 Q437.6 352.376 433.595 352.376 Q431.72 352.376 429.845 352.793 Q427.994 353.21 426.049 354.089 L426.049 336.728 Z" fill="#000000" fill-rule="nonzero" fill-opacity="1" /><path clip-path="url(#clip120)" d="M456.165 365.409 L461.049 365.409 L461.049 371.288 L456.165 371.288 L456.165 365.409 Z" fill="#000000" fill-rule="nonzero" fill-opacity="1" /><path clip-path="url(#clip120)" d="M481.234 339.807 Q477.623 339.807 475.794 343.372 Q473.989 346.913 473.989 354.043 Q473.989 361.149 475.794 364.714 Q477.623 368.256 481.234 368.256 Q484.868 368.256 486.674 364.714 Q488.503 361.149 488.503 354.043 Q488.503 346.913 486.674 343.372 Q484.868 339.807 481.234 339.807 M481.234 336.103 Q487.044 336.103 490.1 340.71 Q493.178 345.293 493.178 354.043 Q493.178 362.77 490.1 367.376 Q487.044 371.959 481.234 371.959 Q475.424 371.959 472.345 367.376 Q469.29 362.77 469.29 354.043 Q469.29 345.293 472.345 340.71 Q475.424 336.103 481.234 336.103 Z" fill="#000000" fill-rule="nonzero" fill-opacity="1" /><path clip-path="url(#clip120)" d="M511.396 339.807 Q507.785 339.807 505.956 343.372 Q504.151 346.913 504.151 354.043 Q504.151 361.149 505.956 364.714 Q507.785 368.256 511.396 368.256 Q515.03 368.256 516.836 364.714 Q518.664 361.149 518.664 354.043 Q518.664 346.913 516.836 343.372 Q515.03 339.807 511.396 339.807 M511.396 336.103 Q517.206 336.103 520.262 340.71 Q523.34 345.293 523.34 354.043 Q523.34 362.77 520.262 367.376 Q517.206 371.959 511.396 371.959 Q505.586 371.959 502.507 367.376 Q499.452 362.77 499.452 354.043 Q499.452 345.293 502.507 340.71 Q505.586 336.103 511.396 336.103 Z" fill="#000000" fill-rule="nonzero" fill-opacity="1" /><path clip-path="url(#clip120)" d="M553.132 357.26 L553.132 359.344 L533.549 359.344 Q533.826 363.742 536.187 366.057 Q538.572 368.348 542.808 368.348 Q545.261 368.348 547.553 367.746 Q549.868 367.145 552.136 365.941 L552.136 369.969 Q549.845 370.941 547.437 371.45 Q545.03 371.959 542.553 371.959 Q536.349 371.959 532.715 368.348 Q529.104 364.737 529.104 358.58 Q529.104 352.214 532.53 348.487 Q535.979 344.737 541.812 344.737 Q547.044 344.737 550.076 348.117 Q553.132 351.473 553.132 357.26 M548.873 356.01 Q548.826 352.515 546.905 350.432 Q545.007 348.348 541.859 348.348 Q538.294 348.348 536.141 350.362 Q534.012 352.376 533.687 356.034 L548.873 356.01 Z" fill="#000000" fill-rule="nonzero" fill-opacity="1" /><path clip-path="url(#clip120)" d="M557.97 356.404 L570.447 356.404 L570.447 360.2 L557.97 360.2 L557.97 356.404 Z" fill="#000000" fill-rule="nonzero" fill-opacity="1" /><path clip-path="url(#clip120)" d="M587.831 339.807 Q584.22 339.807 582.391 343.372 Q580.585 346.913 580.585 354.043 Q580.585 361.149 582.391 364.714 Q584.22 368.256 587.831 368.256 Q591.465 368.256 593.27 364.714 Q595.099 361.149 595.099 354.043 Q595.099 346.913 593.27 343.372 Q591.465 339.807 587.831 339.807 M587.831 336.103 Q593.641 336.103 596.696 340.71 Q599.775 345.293 599.775 354.043 Q599.775 362.77 596.696 367.376 Q593.641 371.959 587.831 371.959 Q582.021 371.959 578.942 367.376 Q575.886 362.77 575.886 354.043 Q575.886 345.293 578.942 340.71 Q582.021 336.103 587.831 336.103 Z" fill="#000000" fill-rule="nonzero" fill-opacity="1" /><path clip-path="url(#clip120)" d="M608.803 367.353 L616.442 367.353 L616.442 340.987 L608.131 342.654 L608.131 338.395 L616.395 336.728 L621.071 336.728 L621.071 367.353 L628.71 367.353 L628.71 371.288 L608.803 371.288 L608.803 367.353 Z" fill="#000000" fill-rule="nonzero" fill-opacity="1" /><path clip-path="url(#clip120)" d="M253.741 426.584 L400.184 426.584 L400.184 385.112 L253.741 385.112 L253.741 426.584  Z" fill="#ff8d7b" fill-rule="evenodd" fill-opacity="1"/>
<polyline clip-path="url(#clip120)" style="stroke:#ff8d7b; stroke-linecap:round; stroke-linejoin:round; stroke-width:4; stroke-opacity:1; fill:none" points="253.741,385.112 400.184,385.112 "/>
<path clip-path="url(#clip120)" d="M424.591 388.568 L446.813 388.568 L446.813 390.559 L434.267 423.128 L429.382 423.128 L441.188 392.503 L424.591 392.503 L424.591 388.568 Z" fill="#000000" fill-rule="nonzero" fill-opacity="1" /><path clip-path="url(#clip120)" d="M455.933 417.249 L460.817 417.249 L460.817 423.128 L455.933 423.128 L455.933 417.249 Z" fill="#000000" fill-rule="nonzero" fill-opacity="1" /><path clip-path="url(#clip120)" d="M471.049 388.568 L489.405 388.568 L489.405 392.503 L475.331 392.503 L475.331 400.975 Q476.35 400.628 477.368 400.466 Q478.387 400.281 479.405 400.281 Q485.192 400.281 488.572 403.452 Q491.952 406.624 491.952 412.04 Q491.952 417.619 488.479 420.721 Q485.007 423.799 478.688 423.799 Q476.512 423.799 474.243 423.429 Q471.998 423.059 469.591 422.318 L469.591 417.619 Q471.674 418.753 473.896 419.309 Q476.118 419.864 478.595 419.864 Q482.6 419.864 484.938 417.758 Q487.276 415.651 487.276 412.04 Q487.276 408.429 484.938 406.323 Q482.6 404.216 478.595 404.216 Q476.72 404.216 474.845 404.633 Q472.993 405.05 471.049 405.929 L471.049 388.568 Z" fill="#000000" fill-rule="nonzero" fill-opacity="1" /><path clip-path="url(#clip120)" d="M511.164 391.647 Q507.553 391.647 505.725 395.212 Q503.919 398.753 503.919 405.883 Q503.919 412.989 505.725 416.554 Q507.553 420.096 511.164 420.096 Q514.799 420.096 516.604 416.554 Q518.433 412.989 518.433 405.883 Q518.433 398.753 516.604 395.212 Q514.799 391.647 511.164 391.647 M511.164 387.943 Q516.975 387.943 520.03 392.55 Q523.109 397.133 523.109 405.883 Q523.109 414.61 520.03 419.216 Q516.975 423.799 511.164 423.799 Q505.354 423.799 502.276 419.216 Q499.22 414.61 499.22 405.883 Q499.22 397.133 502.276 392.55 Q505.354 387.943 511.164 387.943 Z" fill="#000000" fill-rule="nonzero" fill-opacity="1" /><path clip-path="url(#clip120)" d="M552.9 409.1 L552.9 411.184 L533.317 411.184 Q533.595 415.582 535.956 417.897 Q538.34 420.188 542.576 420.188 Q545.03 420.188 547.322 419.586 Q549.636 418.985 551.905 417.781 L551.905 421.809 Q549.613 422.781 547.206 423.29 Q544.798 423.799 542.322 423.799 Q536.118 423.799 532.484 420.188 Q528.873 416.577 528.873 410.42 Q528.873 404.054 532.299 400.327 Q535.748 396.577 541.581 396.577 Q546.812 396.577 549.845 399.957 Q552.9 403.313 552.9 409.1 M548.641 407.85 Q548.595 404.355 546.673 402.272 Q544.775 400.188 541.627 400.188 Q538.062 400.188 535.91 402.202 Q533.78 404.216 533.456 407.874 L548.641 407.85 Z" fill="#000000" fill-rule="nonzero" fill-opacity="1" /><path clip-path="url(#clip120)" d="M557.738 408.244 L570.215 408.244 L570.215 412.04 L557.738 412.04 L557.738 408.244 Z" fill="#000000" fill-rule="nonzero" fill-opacity="1" /><path clip-path="url(#clip120)" d="M587.599 391.647 Q583.988 391.647 582.159 395.212 Q580.354 398.753 580.354 405.883 Q580.354 412.989 582.159 416.554 Q583.988 420.096 587.599 420.096 Q591.233 420.096 593.039 416.554 Q594.868 412.989 594.868 405.883 Q594.868 398.753 593.039 395.212 Q591.233 391.647 587.599 391.647 M587.599 387.943 Q593.409 387.943 596.465 392.55 Q599.544 397.133 599.544 405.883 Q599.544 414.61 596.465 419.216 Q593.409 423.799 587.599 423.799 Q581.789 423.799 578.71 419.216 Q575.655 414.61 575.655 405.883 Q575.655 397.133 578.71 392.55 Q581.789 387.943 587.599 387.943 Z" fill="#000000" fill-rule="nonzero" fill-opacity="1" /><path clip-path="url(#clip120)" d="M608.571 419.193 L616.21 419.193 L616.21 392.827 L607.9 394.494 L607.9 390.235 L616.164 388.568 L620.84 388.568 L620.84 419.193 L628.479 419.193 L628.479 423.128 L608.571 423.128 L608.571 419.193 Z" fill="#000000" fill-rule="nonzero" fill-opacity="1" /><path clip-path="url(#clip120)" d="M253.741 478.424 L400.184 478.424 L400.184 436.952 L253.741 436.952 L253.741 478.424  Z" fill="#d14135" fill-rule="evenodd" fill-opacity="1"/>
<polyline clip-path="url(#clip120)" style="stroke:#d14135; stroke-linecap:round; stroke-linejoin:round; stroke-width:4; stroke-opacity:1; fill:none" points="253.741,436.952 400.184,436.952 "/>
<path clip-path="url(#clip120)" d="M426.813 474.251 L426.813 469.991 Q428.572 470.825 430.378 471.264 Q432.183 471.704 433.919 471.704 Q438.549 471.704 440.98 468.602 Q443.433 465.477 443.781 459.135 Q442.438 461.126 440.378 462.19 Q438.318 463.255 435.818 463.255 Q430.632 463.255 427.6 460.13 Q424.591 456.982 424.591 451.542 Q424.591 446.218 427.739 443.001 Q430.887 439.783 436.119 439.783 Q442.114 439.783 445.262 444.39 Q448.433 448.973 448.433 457.723 Q448.433 465.894 444.544 470.778 Q440.679 475.639 434.128 475.639 Q432.369 475.639 430.563 475.292 Q428.757 474.945 426.813 474.251 M436.119 459.598 Q439.267 459.598 441.095 457.445 Q442.947 455.292 442.947 451.542 Q442.947 447.815 441.095 445.663 Q439.267 443.487 436.119 443.487 Q432.97 443.487 431.119 445.663 Q429.29 447.815 429.29 451.542 Q429.29 455.292 431.119 457.445 Q432.97 459.598 436.119 459.598 Z" fill="#000000" fill-rule="nonzero" fill-opacity="1" /><path clip-path="url(#clip120)" d="M456.836 469.089 L461.72 469.089 L461.72 474.968 L456.836 474.968 L456.836 469.089 Z" fill="#000000" fill-rule="nonzero" fill-opacity="1" /><path clip-path="url(#clip120)" d="M481.905 443.487 Q478.294 443.487 476.466 447.052 Q474.66 450.593 474.66 457.723 Q474.66 464.829 476.466 468.394 Q478.294 471.936 481.905 471.936 Q485.54 471.936 487.345 468.394 Q489.174 464.829 489.174 457.723 Q489.174 450.593 487.345 447.052 Q485.54 443.487 481.905 443.487 M481.905 439.783 Q487.715 439.783 490.771 444.39 Q493.85 448.973 493.85 457.723 Q493.85 466.45 490.771 471.056 Q487.715 475.639 481.905 475.639 Q476.095 475.639 473.016 471.056 Q469.961 466.45 469.961 457.723 Q469.961 448.973 473.016 444.39 Q476.095 439.783 481.905 439.783 Z" fill="#000000" fill-rule="nonzero" fill-opacity="1" /><path clip-path="url(#clip120)" d="M512.067 443.487 Q508.456 443.487 506.627 447.052 Q504.822 450.593 504.822 457.723 Q504.822 464.829 506.627 468.394 Q508.456 471.936 512.067 471.936 Q515.701 471.936 517.507 468.394 Q519.336 464.829 519.336 457.723 Q519.336 450.593 517.507 447.052 Q515.701 443.487 512.067 443.487 M512.067 439.783 Q517.877 439.783 520.933 444.39 Q524.012 448.973 524.012 457.723 Q524.012 466.45 520.933 471.056 Q517.877 475.639 512.067 475.639 Q506.257 475.639 503.178 471.056 Q500.123 466.45 500.123 457.723 Q500.123 448.973 503.178 444.39 Q506.257 439.783 512.067 439.783 Z" fill="#000000" fill-rule="nonzero" fill-opacity="1" /><path clip-path="url(#clip120)" d="M553.803 460.94 L553.803 463.024 L534.22 463.024 Q534.498 467.422 536.859 469.737 Q539.243 472.028 543.479 472.028 Q545.933 472.028 548.224 471.426 Q550.539 470.825 552.808 469.621 L552.808 473.649 Q550.516 474.621 548.109 475.13 Q545.701 475.639 543.224 475.639 Q537.021 475.639 533.387 472.028 Q529.775 468.417 529.775 462.26 Q529.775 455.894 533.201 452.167 Q536.65 448.417 542.484 448.417 Q547.715 448.417 550.748 451.797 Q553.803 455.153 553.803 460.94 M549.544 459.69 Q549.498 456.195 547.576 454.112 Q545.678 452.028 542.53 452.028 Q538.965 452.028 536.812 454.042 Q534.683 456.056 534.359 459.714 L549.544 459.69 Z" fill="#000000" fill-rule="nonzero" fill-opacity="1" /><path clip-path="url(#clip120)" d="M558.641 460.084 L571.118 460.084 L571.118 463.88 L558.641 463.88 L558.641 460.084 Z" fill="#000000" fill-rule="nonzero" fill-opacity="1" /><path clip-path="url(#clip120)" d="M588.502 443.487 Q584.891 443.487 583.062 447.052 Q581.257 450.593 581.257 457.723 Q581.257 464.829 583.062 468.394 Q584.891 471.936 588.502 471.936 Q592.136 471.936 593.942 468.394 Q595.77 464.829 595.77 457.723 Q595.77 450.593 593.942 447.052 Q592.136 443.487 588.502 443.487 M588.502 439.783 Q594.312 439.783 597.368 444.39 Q600.446 448.973 600.446 457.723 Q600.446 466.45 597.368 471.056 Q594.312 475.639 588.502 475.639 Q582.692 475.639 579.613 471.056 Q576.558 466.45 576.558 457.723 Q576.558 448.973 579.613 444.39 Q582.692 439.783 588.502 439.783 Z" fill="#000000" fill-rule="nonzero" fill-opacity="1" /><path clip-path="url(#clip120)" d="M609.474 471.033 L617.113 471.033 L617.113 444.667 L608.803 446.334 L608.803 442.075 L617.067 440.408 L621.743 440.408 L621.743 471.033 L629.381 471.033 L629.381 474.968 L609.474 474.968 L609.474 471.033 Z" fill="#000000" fill-rule="nonzero" fill-opacity="1" /><path clip-path="url(#clip120)" d="M253.741 530.264 L400.184 530.264 L400.184 488.792 L253.741 488.792 L253.741 530.264  Z" fill="#600101" fill-rule="evenodd" fill-opacity="1"/>
<polyline clip-path="url(#clip120)" style="stroke:#600101; stroke-linecap:round; stroke-linejoin:round; stroke-width:4; stroke-opacity:1; fill:none" points="253.741,488.792 400.184,488.792 "/>
<path clip-path="url(#clip120)" d="M425.262 522.873 L432.901 522.873 L432.901 496.507 L424.591 498.174 L424.591 493.915 L432.855 492.248 L437.531 492.248 L437.531 522.873 L445.169 522.873 L445.169 526.808 L425.262 526.808 L425.262 522.873 Z" fill="#000000" fill-rule="nonzero" fill-opacity="1" /><path clip-path="url(#clip120)" d="M454.614 520.929 L459.498 520.929 L459.498 526.808 L454.614 526.808 L454.614 520.929 Z" fill="#000000" fill-rule="nonzero" fill-opacity="1" /><path clip-path="url(#clip120)" d="M479.683 495.327 Q476.072 495.327 474.243 498.892 Q472.438 502.433 472.438 509.563 Q472.438 516.669 474.243 520.234 Q476.072 523.776 479.683 523.776 Q483.317 523.776 485.123 520.234 Q486.952 516.669 486.952 509.563 Q486.952 502.433 485.123 498.892 Q483.317 495.327 479.683 495.327 M479.683 491.623 Q485.493 491.623 488.549 496.23 Q491.627 500.813 491.627 509.563 Q491.627 518.29 488.549 522.896 Q485.493 527.479 479.683 527.479 Q473.873 527.479 470.794 522.896 Q467.739 518.29 467.739 509.563 Q467.739 500.813 470.794 496.23 Q473.873 491.623 479.683 491.623 Z" fill="#000000" fill-rule="nonzero" fill-opacity="1" /><path clip-path="url(#clip120)" d="M509.845 495.327 Q506.234 495.327 504.405 498.892 Q502.6 502.433 502.6 509.563 Q502.6 516.669 504.405 520.234 Q506.234 523.776 509.845 523.776 Q513.479 523.776 515.285 520.234 Q517.113 516.669 517.113 509.563 Q517.113 502.433 515.285 498.892 Q513.479 495.327 509.845 495.327 M509.845 491.623 Q515.655 491.623 518.711 496.23 Q521.789 500.813 521.789 509.563 Q521.789 518.29 518.711 522.896 Q515.655 527.479 509.845 527.479 Q504.035 527.479 500.956 522.896 Q497.901 518.29 497.901 509.563 Q497.901 500.813 500.956 496.23 Q504.035 491.623 509.845 491.623 Z" fill="#000000" fill-rule="nonzero" fill-opacity="1" /><path clip-path="url(#clip120)" d="M551.581 512.78 L551.581 514.864 L531.998 514.864 Q532.275 519.262 534.637 521.577 Q537.021 523.868 541.257 523.868 Q543.711 523.868 546.002 523.266 Q548.317 522.665 550.586 521.461 L550.586 525.489 Q548.294 526.461 545.886 526.97 Q543.479 527.479 541.002 527.479 Q534.799 527.479 531.164 523.868 Q527.553 520.257 527.553 514.1 Q527.553 507.734 530.979 504.007 Q534.428 500.257 540.261 500.257 Q545.493 500.257 548.525 503.637 Q551.581 506.993 551.581 512.78 M547.322 511.53 Q547.275 508.035 545.354 505.952 Q543.456 503.868 540.308 503.868 Q536.743 503.868 534.59 505.882 Q532.461 507.896 532.137 511.554 L547.322 511.53 Z" fill="#000000" fill-rule="nonzero" fill-opacity="1" /><path clip-path="url(#clip120)" d="M575.909 497.086 L575.909 509.98 L588.803 509.98 L588.803 513.915 L575.909 513.915 L575.909 526.808 L572.021 526.808 L572.021 513.915 L559.127 513.915 L559.127 509.98 L572.021 509.98 L572.021 497.086 L575.909 497.086 Z" fill="#000000" fill-rule="nonzero" fill-opacity="1" /><path clip-path="url(#clip120)" d="M608.895 495.327 Q605.284 495.327 603.456 498.892 Q601.65 502.433 601.65 509.563 Q601.65 516.669 603.456 520.234 Q605.284 523.776 608.895 523.776 Q612.53 523.776 614.335 520.234 Q616.164 516.669 616.164 509.563 Q616.164 502.433 614.335 498.892 Q612.53 495.327 608.895 495.327 M608.895 491.623 Q614.706 491.623 617.761 496.23 Q620.84 500.813 620.84 509.563 Q620.84 518.29 617.761 522.896 Q614.706 527.479 608.895 527.479 Q603.085 527.479 600.007 522.896 Q596.951 518.29 596.951 509.563 Q596.951 500.813 600.007 496.23 Q603.085 491.623 608.895 491.623 Z" fill="#000000" fill-rule="nonzero" fill-opacity="1" /><path clip-path="url(#clip120)" d="M639.057 495.327 Q635.446 495.327 633.617 498.892 Q631.812 502.433 631.812 509.563 Q631.812 516.669 633.617 520.234 Q635.446 523.776 639.057 523.776 Q642.691 523.776 644.497 520.234 Q646.326 516.669 646.326 509.563 Q646.326 502.433 644.497 498.892 Q642.691 495.327 639.057 495.327 M639.057 491.623 Q644.867 491.623 647.923 496.23 Q651.002 500.813 651.002 509.563 Q651.002 518.29 647.923 522.896 Q644.867 527.479 639.057 527.479 Q633.247 527.479 630.168 522.896 Q627.113 518.29 627.113 509.563 Q627.113 500.813 630.168 496.23 Q633.247 491.623 639.057 491.623 Z" fill="#000000" fill-rule="nonzero" fill-opacity="1" /></svg>
