<?xml version="1.0" encoding="utf-8"?>
<svg xmlns="http://www.w3.org/2000/svg" xmlns:xlink="http://www.w3.org/1999/xlink" width="600" height="400" viewBox="0 0 2400 1600">
<defs>
  <clipPath id="clip400">
    <rect x="0" y="0" width="2400" height="1600"/>
  </clipPath>
</defs>
<path clip-path="url(#clip400)" d="M0 1600 L2400 1600 L2400 0 L0 0  Z" fill="#ffffff" fill-rule="evenodd" fill-opacity="1"/>
<defs>
  <clipPath id="clip401">
    <rect x="480" y="0" width="1681" height="1600"/>
  </clipPath>
</defs>
<path clip-path="url(#clip400)" d="M219.38 1410.9 L2352.76 1410.9 L2352.76 47.2441 L219.38 47.2441  Z" fill="#ffffff" fill-rule="evenodd" fill-opacity="1"/>
<defs>
  <clipPath id="clip402">
    <rect x="219" y="47" width="2134" height="1365"/>
  </clipPath>
</defs>
<polyline clip-path="url(#clip402)" style="stroke:#000000; stroke-linecap:round; stroke-linejoin:round; stroke-width:2; stroke-opacity:0.1; fill:none" points="481.021,1410.9 481.021,47.2441 "/>
<polyline clip-path="url(#clip402)" style="stroke:#000000; stroke-linecap:round; stroke-linejoin:round; stroke-width:2; stroke-opacity:0.1; fill:none" points="1487.33,1410.9 1487.33,47.2441 "/>
<polyline clip-path="url(#clip400)" style="stroke:#000000; stroke-linecap:round; stroke-linejoin:round; stroke-width:4; stroke-opacity:1; fill:none" points="219.38,1410.9 2352.76,1410.9 "/>
<polyline clip-path="url(#clip400)" style="stroke:#000000; stroke-linecap:round; stroke-linejoin:round; stroke-width:4; stroke-opacity:1; fill:none" points="481.021,1410.9 481.021,1392 "/>
<polyline clip-path="url(#clip400)" style="stroke:#000000; stroke-linecap:round; stroke-linejoin:round; stroke-width:4; stroke-opacity:1; fill:none" points="1487.33,1410.9 1487.33,1392 "/>
<path clip-path="url(#clip400)" d="M418.384 1485.02 L426.023 1485.02 L426.023 1458.66 L417.713 1460.32 L417.713 1456.06 L425.977 1454.4 L430.653 1454.4 L430.653 1485.02 L438.291 1485.02 L438.291 1488.96 L418.384 1488.96 L418.384 1485.02 Z" fill="#000000" fill-rule="nonzero" fill-opacity="1" /><path clip-path="url(#clip400)" d="M457.736 1457.48 Q454.125 1457.48 452.296 1461.04 Q450.491 1464.58 450.491 1471.71 Q450.491 1478.82 452.296 1482.38 Q454.125 1485.92 457.736 1485.92 Q461.37 1485.92 463.176 1482.38 Q465.004 1478.82 465.004 1471.71 Q465.004 1464.58 463.176 1461.04 Q461.37 1457.48 457.736 1457.48 M457.736 1453.77 Q463.546 1453.77 466.602 1458.38 Q469.68 1462.96 469.68 1471.71 Q469.68 1480.44 466.602 1485.04 Q463.546 1489.63 457.736 1489.63 Q451.926 1489.63 448.847 1485.04 Q445.791 1480.44 445.791 1471.71 Q445.791 1462.96 448.847 1458.38 Q451.926 1453.77 457.736 1453.77 Z" fill="#000000" fill-rule="nonzero" fill-opacity="1" /><path clip-path="url(#clip400)" d="M469.68 1447.87 L493.792 1447.87 L493.792 1451.07 L469.68 1451.07 L469.68 1447.87 Z" fill="#000000" fill-rule="nonzero" fill-opacity="1" /><path clip-path="url(#clip400)" d="M502.65 1458.35 L508.857 1458.35 L508.857 1436.93 L502.105 1438.28 L502.105 1434.82 L508.819 1433.47 L512.618 1433.47 L512.618 1458.35 L518.825 1458.35 L518.825 1461.55 L502.65 1461.55 L502.65 1458.35 Z" fill="#000000" fill-rule="nonzero" fill-opacity="1" /><path clip-path="url(#clip400)" d="M534.623 1435.97 Q531.689 1435.97 530.204 1438.86 Q528.737 1441.74 528.737 1447.53 Q528.737 1453.31 530.204 1456.2 Q531.689 1459.08 534.623 1459.08 Q537.576 1459.08 539.043 1456.2 Q540.529 1453.31 540.529 1447.53 Q540.529 1441.74 539.043 1438.86 Q537.576 1435.97 534.623 1435.97 M534.623 1432.96 Q539.344 1432.96 541.827 1436.7 Q544.328 1440.43 544.328 1447.53 Q544.328 1454.62 541.827 1458.37 Q539.344 1462.09 534.623 1462.09 Q529.903 1462.09 527.401 1458.37 Q524.919 1454.62 524.919 1447.53 Q524.919 1440.43 527.401 1436.7 Q529.903 1432.96 534.623 1432.96 Z" fill="#000000" fill-rule="nonzero" fill-opacity="1" /><path clip-path="url(#clip400)" d="M1437.35 1485.02 L1444.99 1485.02 L1444.99 1458.66 L1436.68 1460.32 L1436.68 1456.06 L1444.94 1454.4 L1449.62 1454.4 L1449.62 1485.02 L1457.26 1485.02 L1457.26 1488.96 L1437.35 1488.96 L1437.35 1485.02 Z" fill="#000000" fill-rule="nonzero" fill-opacity="1" /><path clip-path="url(#clip400)" d="M1476.7 1457.48 Q1473.09 1457.48 1471.26 1461.04 Q1469.46 1464.58 1469.46 1471.71 Q1469.46 1478.82 1471.26 1482.38 Q1473.09 1485.92 1476.7 1485.92 Q1480.34 1485.92 1482.14 1482.38 Q1483.97 1478.82 1483.97 1471.71 Q1483.97 1464.58 1482.14 1461.04 Q1480.34 1457.48 1476.7 1457.48 M1476.7 1453.77 Q1482.51 1453.77 1485.57 1458.38 Q1488.65 1462.96 1488.65 1471.71 Q1488.65 1480.44 1485.57 1485.04 Q1482.51 1489.63 1476.7 1489.63 Q1470.89 1489.63 1467.81 1485.04 Q1464.76 1480.44 1464.76 1471.71 Q1464.76 1462.96 1467.81 1458.38 Q1470.89 1453.77 1476.7 1453.77 Z" fill="#000000" fill-rule="nonzero" fill-opacity="1" /><path clip-path="url(#clip400)" d="M1488.65 1447.87 L1512.76 1447.87 L1512.76 1451.07 L1488.65 1451.07 L1488.65 1447.87 Z" fill="#000000" fill-rule="nonzero" fill-opacity="1" /><path clip-path="url(#clip400)" d="M1521 1433.47 L1535.91 1433.47 L1535.91 1436.66 L1524.48 1436.66 L1524.48 1443.55 Q1525.3 1443.27 1526.13 1443.13 Q1526.96 1442.98 1527.79 1442.98 Q1532.49 1442.98 1535.23 1445.56 Q1537.98 1448.14 1537.98 1452.54 Q1537.98 1457.07 1535.16 1459.59 Q1532.34 1462.09 1527.2 1462.09 Q1525.44 1462.09 1523.59 1461.79 Q1521.77 1461.49 1519.81 1460.89 L1519.81 1457.07 Q1521.5 1457.99 1523.31 1458.44 Q1525.12 1458.89 1527.13 1458.89 Q1530.38 1458.89 1532.28 1457.18 Q1534.18 1455.47 1534.18 1452.54 Q1534.18 1449.6 1532.28 1447.89 Q1530.38 1446.18 1527.13 1446.18 Q1525.6 1446.18 1524.08 1446.52 Q1522.58 1446.86 1521 1447.57 L1521 1433.47 Z" fill="#000000" fill-rule="nonzero" fill-opacity="1" /><path clip-path="url(#clip400)" d="M1233.57 1526.67 L1240 1526.67 L1240 1546.75 L1261.32 1526.67 L1269.6 1526.67 L1246.01 1548.82 L1271.28 1574.19 L1262.82 1574.19 L1240 1551.3 L1240 1574.19 L1233.57 1574.19 L1233.57 1526.67 Z" fill="#000000" fill-rule="nonzero" fill-opacity="1" /><path clip-path="url(#clip400)" d="M1303.14 1585.01 L1303.14 1589.56 L1269.28 1589.56 L1269.28 1585.01 L1303.14 1585.01 Z" fill="#000000" fill-rule="nonzero" fill-opacity="1" /><path clip-path="url(#clip400)" d="M1326.12 1567.69 Q1327.27 1569.22 1330.71 1569.22 L1333.54 1569.22 L1333.54 1574.19 L1330.01 1574.19 Q1324.28 1574.19 1321.67 1571.13 Q1319.06 1568.01 1319.06 1561.26 L1319.06 1544.39 L1305.69 1544.39 L1305.69 1538.54 L1338.57 1538.54 L1338.57 1544.39 L1325.04 1544.39 L1325.04 1561.61 Q1325.04 1566.23 1326.12 1567.69 Z" fill="#000000" fill-rule="nonzero" fill-opacity="1" /><polyline clip-path="url(#clip402)" style="stroke:#000000; stroke-linecap:round; stroke-linejoin:round; stroke-width:2; stroke-opacity:0.1; fill:none" points="219.38,1372.3 2352.76,1372.3 "/>
<polyline clip-path="url(#clip402)" style="stroke:#000000; stroke-linecap:round; stroke-linejoin:round; stroke-width:2; stroke-opacity:0.1; fill:none" points="219.38,931.132 2352.76,931.132 "/>
<polyline clip-path="url(#clip402)" style="stroke:#000000; stroke-linecap:round; stroke-linejoin:round; stroke-width:2; stroke-opacity:0.1; fill:none" points="219.38,489.962 2352.76,489.962 "/>
<polyline clip-path="url(#clip402)" style="stroke:#000000; stroke-linecap:round; stroke-linejoin:round; stroke-width:2; stroke-opacity:0.1; fill:none" points="219.38,48.7918 2352.76,48.7918 "/>
<polyline clip-path="url(#clip400)" style="stroke:#000000; stroke-linecap:round; stroke-linejoin:round; stroke-width:4; stroke-opacity:1; fill:none" points="219.38,1410.9 219.38,47.2441 "/>
<polyline clip-path="url(#clip400)" style="stroke:#000000; stroke-linecap:round; stroke-linejoin:round; stroke-width:4; stroke-opacity:1; fill:none" points="219.38,1372.3 238.278,1372.3 "/>
<polyline clip-path="url(#clip400)" style="stroke:#000000; stroke-linecap:round; stroke-linejoin:round; stroke-width:4; stroke-opacity:1; fill:none" points="219.38,931.132 238.278,931.132 "/>
<polyline clip-path="url(#clip400)" style="stroke:#000000; stroke-linecap:round; stroke-linejoin:round; stroke-width:4; stroke-opacity:1; fill:none" points="219.38,489.962 238.278,489.962 "/>
<polyline clip-path="url(#clip400)" style="stroke:#000000; stroke-linecap:round; stroke-linejoin:round; stroke-width:4; stroke-opacity:1; fill:none" points="219.38,48.7918 238.278,48.7918 "/>
<path clip-path="url(#clip400)" d="M126.205 1358.1 Q122.593 1358.1 120.765 1361.67 Q118.959 1365.21 118.959 1372.34 Q118.959 1379.44 120.765 1383.01 Q122.593 1386.55 126.205 1386.55 Q129.839 1386.55 131.644 1383.01 Q133.473 1379.44 133.473 1372.34 Q133.473 1365.21 131.644 1361.67 Q129.839 1358.1 126.205 1358.1 M126.205 1354.4 Q132.015 1354.4 135.07 1359 Q138.149 1363.59 138.149 1372.34 Q138.149 1381.06 135.07 1385.67 Q132.015 1390.25 126.205 1390.25 Q120.394 1390.25 117.316 1385.67 Q114.26 1381.06 114.26 1372.34 Q114.26 1363.59 117.316 1359 Q120.394 1354.4 126.205 1354.4 Z" fill="#000000" fill-rule="nonzero" fill-opacity="1" /><path clip-path="url(#clip400)" d="M146.366 1383.7 L151.251 1383.7 L151.251 1389.58 L146.366 1389.58 L146.366 1383.7 Z" fill="#000000" fill-rule="nonzero" fill-opacity="1" /><path clip-path="url(#clip400)" d="M171.436 1358.1 Q167.825 1358.1 165.996 1361.67 Q164.19 1365.21 164.19 1372.34 Q164.19 1379.44 165.996 1383.01 Q167.825 1386.55 171.436 1386.55 Q175.07 1386.55 176.876 1383.01 Q178.704 1379.44 178.704 1372.34 Q178.704 1365.21 176.876 1361.67 Q175.07 1358.1 171.436 1358.1 M171.436 1354.4 Q177.246 1354.4 180.301 1359 Q183.38 1363.59 183.38 1372.34 Q183.38 1381.06 180.301 1385.67 Q177.246 1390.25 171.436 1390.25 Q165.626 1390.25 162.547 1385.67 Q159.491 1381.06 159.491 1372.34 Q159.491 1363.59 162.547 1359 Q165.626 1354.4 171.436 1354.4 Z" fill="#000000" fill-rule="nonzero" fill-opacity="1" /><path clip-path="url(#clip400)" d="M127.2 916.931 Q123.589 916.931 121.76 920.496 Q119.955 924.038 119.955 931.167 Q119.955 938.274 121.76 941.838 Q123.589 945.38 127.2 945.38 Q130.834 945.38 132.64 941.838 Q134.468 938.274 134.468 931.167 Q134.468 924.038 132.64 920.496 Q130.834 916.931 127.2 916.931 M127.2 913.227 Q133.01 913.227 136.066 917.834 Q139.144 922.417 139.144 931.167 Q139.144 939.894 136.066 944.5 Q133.01 949.084 127.2 949.084 Q121.39 949.084 118.311 944.5 Q115.256 939.894 115.256 931.167 Q115.256 922.417 118.311 917.834 Q121.39 913.227 127.2 913.227 Z" fill="#000000" fill-rule="nonzero" fill-opacity="1" /><path clip-path="url(#clip400)" d="M147.362 942.533 L152.246 942.533 L152.246 948.412 L147.362 948.412 L147.362 942.533 Z" fill="#000000" fill-rule="nonzero" fill-opacity="1" /><path clip-path="url(#clip400)" d="M162.477 913.852 L180.834 913.852 L180.834 917.788 L166.76 917.788 L166.76 926.26 Q167.778 925.913 168.797 925.75 Q169.815 925.565 170.834 925.565 Q176.621 925.565 180.001 928.737 Q183.38 931.908 183.38 937.324 Q183.38 942.903 179.908 946.005 Q176.436 949.084 170.116 949.084 Q167.94 949.084 165.672 948.713 Q163.427 948.343 161.019 947.602 L161.019 942.903 Q163.102 944.037 165.325 944.593 Q167.547 945.149 170.024 945.149 Q174.028 945.149 176.366 943.042 Q178.704 940.936 178.704 937.324 Q178.704 933.713 176.366 931.607 Q174.028 929.5 170.024 929.5 Q168.149 929.5 166.274 929.917 Q164.422 930.334 162.477 931.213 L162.477 913.852 Z" fill="#000000" fill-rule="nonzero" fill-opacity="1" /><path clip-path="url(#clip400)" d="M117.015 503.307 L124.654 503.307 L124.654 476.941 L116.343 478.608 L116.343 474.349 L124.607 472.682 L129.283 472.682 L129.283 503.307 L136.922 503.307 L136.922 507.242 L117.015 507.242 L117.015 503.307 Z" fill="#000000" fill-rule="nonzero" fill-opacity="1" /><path clip-path="url(#clip400)" d="M146.366 501.362 L151.251 501.362 L151.251 507.242 L146.366 507.242 L146.366 501.362 Z" fill="#000000" fill-rule="nonzero" fill-opacity="1" /><path clip-path="url(#clip400)" d="M171.436 475.761 Q167.825 475.761 165.996 479.326 Q164.19 482.867 164.19 489.997 Q164.19 497.103 165.996 500.668 Q167.825 504.21 171.436 504.21 Q175.07 504.21 176.876 500.668 Q178.704 497.103 178.704 489.997 Q178.704 482.867 176.876 479.326 Q175.07 475.761 171.436 475.761 M171.436 472.057 Q177.246 472.057 180.301 476.664 Q183.38 481.247 183.38 489.997 Q183.38 498.724 180.301 503.33 Q177.246 507.913 171.436 507.913 Q165.626 507.913 162.547 503.33 Q159.491 498.724 159.491 489.997 Q159.491 481.247 162.547 476.664 Q165.626 472.057 171.436 472.057 Z" fill="#000000" fill-rule="nonzero" fill-opacity="1" /><path clip-path="url(#clip400)" d="M118.01 62.1366 L125.649 62.1366 L125.649 35.771 L117.339 37.4377 L117.339 33.1784 L125.603 31.5118 L130.279 31.5118 L130.279 62.1366 L137.917 62.1366 L137.917 66.0718 L118.01 66.0718 L118.01 62.1366 Z" fill="#000000" fill-rule="nonzero" fill-opacity="1" /><path clip-path="url(#clip400)" d="M147.362 60.1922 L152.246 60.1922 L152.246 66.0718 L147.362 66.0718 L147.362 60.1922 Z" fill="#000000" fill-rule="nonzero" fill-opacity="1" /><path clip-path="url(#clip400)" d="M162.477 31.5118 L180.834 31.5118 L180.834 35.4469 L166.76 35.4469 L166.76 43.9191 Q167.778 43.5719 168.797 43.4099 Q169.815 43.2247 170.834 43.2247 Q176.621 43.2247 180.001 46.396 Q183.38 49.5672 183.38 54.9839 Q183.38 60.5625 179.908 63.6644 Q176.436 66.7431 170.116 66.7431 Q167.94 66.7431 165.672 66.3727 Q163.427 66.0023 161.019 65.2616 L161.019 60.5625 Q163.102 61.6968 165.325 62.2524 Q167.547 62.8079 170.024 62.8079 Q174.028 62.8079 176.366 60.7014 Q178.704 58.595 178.704 54.9839 Q178.704 51.3728 176.366 49.2663 Q174.028 47.1598 170.024 47.1598 Q168.149 47.1598 166.274 47.5765 Q164.422 47.9932 162.477 48.8728 L162.477 31.5118 Z" fill="#000000" fill-rule="nonzero" fill-opacity="1" /><path clip-path="url(#clip400)" d="M33.7671 819.798 L14.479 819.798 L14.479 813.941 L64.0042 813.941 L64.0042 819.798 L58.657 819.798 Q61.8398 821.644 63.3994 824.476 Q64.9272 827.277 64.9272 831.224 Q64.9272 837.685 59.771 841.759 Q54.6147 845.802 46.212 845.802 Q37.8093 845.802 32.6531 841.759 Q27.4968 837.685 27.4968 831.224 Q27.4968 827.277 29.0564 824.476 Q30.5842 821.644 33.7671 819.798 M46.212 839.754 Q52.6732 839.754 56.3653 837.112 Q60.0256 834.439 60.0256 829.792 Q60.0256 825.145 56.3653 822.471 Q52.6732 819.798 46.212 819.798 Q39.7508 819.798 36.0905 822.471 Q32.3984 825.145 32.3984 829.792 Q32.3984 834.439 36.0905 837.112 Q39.7508 839.754 46.212 839.754 Z" fill="#000000" fill-rule="nonzero" fill-opacity="1" /><path clip-path="url(#clip400)" d="M44.7161 771.386 L47.5806 771.386 L47.5806 798.313 Q53.6281 797.931 56.8109 794.685 Q59.9619 791.407 59.9619 785.582 Q59.9619 782.208 59.1344 779.057 Q58.3069 775.874 56.6518 772.755 L62.1899 772.755 Q63.5267 775.906 64.227 779.216 Q64.9272 782.526 64.9272 785.932 Q64.9272 794.462 59.9619 799.459 Q54.9967 804.424 46.5303 804.424 Q37.7774 804.424 32.6531 799.714 Q27.4968 794.971 27.4968 786.951 Q27.4968 779.757 32.1438 775.588 Q36.7589 771.386 44.7161 771.386 M42.9973 777.243 Q38.1912 777.307 35.3266 779.948 Q32.4621 782.558 32.4621 786.887 Q32.4621 791.788 35.2312 794.749 Q38.0002 797.677 43.0292 798.122 L42.9973 777.243 Z" fill="#000000" fill-rule="nonzero" fill-opacity="1" /><path clip-path="url(#clip400)" d="M42.4881 732.142 L64.0042 732.142 L64.0042 737.998 L42.679 737.998 Q37.6183 737.998 35.1038 739.972 Q32.5894 741.945 32.5894 745.892 Q32.5894 750.634 35.6131 753.371 Q38.6368 756.109 43.8567 756.109 L64.0042 756.109 L64.0042 761.997 L28.3562 761.997 L28.3562 756.109 L33.8944 756.109 Q30.6797 754.008 29.0883 751.175 Q27.4968 748.311 27.4968 744.587 Q27.4968 738.444 31.3163 735.293 Q35.1038 732.142 42.4881 732.142 Z" fill="#000000" fill-rule="nonzero" fill-opacity="1" /><path clip-path="url(#clip400)" d="M29.4065 697.735 L34.9447 697.735 Q33.6716 700.218 33.035 702.891 Q32.3984 705.565 32.3984 708.43 Q32.3984 712.79 33.7352 714.986 Q35.072 717.151 37.7456 717.151 Q39.7826 717.151 40.9603 715.591 Q42.1061 714.031 43.1565 709.321 L43.6021 707.316 Q44.9389 701.077 47.3897 698.467 Q49.8086 695.825 54.1691 695.825 Q59.1344 695.825 62.0308 699.772 Q64.9272 703.687 64.9272 710.562 Q64.9272 713.427 64.3543 716.546 Q63.8132 719.633 62.6992 723.071 L56.6518 723.071 Q58.3387 719.824 59.198 716.673 Q60.0256 713.522 60.0256 710.435 Q60.0256 706.297 58.6251 704.069 Q57.1929 701.841 54.6147 701.841 Q52.2276 701.841 50.9545 703.464 Q49.6813 705.056 48.5037 710.498 L48.0262 712.535 Q46.8804 717.978 44.5251 720.397 Q42.138 722.816 38.0002 722.816 Q32.9713 722.816 30.2341 719.251 Q27.4968 715.686 27.4968 709.13 Q27.4968 705.883 27.9743 703.019 Q28.4517 700.154 29.4065 697.735 Z" fill="#000000" fill-rule="nonzero" fill-opacity="1" /><path clip-path="url(#clip400)" d="M28.3562 686.5 L28.3562 680.643 L64.0042 680.643 L64.0042 686.5 L28.3562 686.5 M14.479 686.5 L14.479 680.643 L21.895 680.643 L21.895 686.5 L14.479 686.5 Z" fill="#000000" fill-rule="nonzero" fill-opacity="1" /><path clip-path="url(#clip400)" d="M18.2347 662.596 L28.3562 662.596 L28.3562 650.533 L32.9077 650.533 L32.9077 662.596 L52.2594 662.596 Q56.6199 662.596 57.8613 661.419 Q59.1026 660.209 59.1026 656.549 L59.1026 650.533 L64.0042 650.533 L64.0042 656.549 Q64.0042 663.329 61.4897 665.907 Q58.9434 668.485 52.2594 668.485 L32.9077 668.485 L32.9077 672.782 L28.3562 672.782 L28.3562 668.485 L18.2347 668.485 L18.2347 662.596 Z" fill="#000000" fill-rule="nonzero" fill-opacity="1" /><path clip-path="url(#clip400)" d="M67.3143 627.999 Q73.68 630.481 75.6216 632.837 Q77.5631 635.192 77.5631 639.139 L77.5631 643.818 L72.6615 643.818 L72.6615 640.38 Q72.6615 637.961 71.5157 636.624 Q70.3699 635.288 66.1048 633.664 L63.4312 632.614 L28.3562 647.032 L28.3562 640.826 L56.238 629.686 L28.3562 618.546 L28.3562 612.339 L67.3143 627.999 Z" fill="#000000" fill-rule="nonzero" fill-opacity="1" /><path clip-path="url(#clip402)" d="M279.759 1370.69 L922.608 1370.69 L922.608 1367.9 L983.166 1367.9 L983.166 1367.9 L1043.74 1367.9 L1043.74 1367.91 L1104.32 1367.91 L1104.32 1313.03 L1164.9 1313.03 L1164.9 841.975 L1200.34 841.975 L1200.34 525.795 L1225.48 525.795 L1225.48 353.64 L1260.92 353.64 L1260.92 311.968 L1286.07 311.968 L1286.07 372.855 L1314.31 372.855 L1314.31 512.973 L1335.63 512.973 L1335.63 738.831 L1367.06 738.831 L1367.06 1029.29 L1408.36 1029.29 L1408.36 1308.66 L1457.44 1308.66 L1457.44 1025.01 L1511.64 1025.01 L1511.64 1265.62 L1568.86 1265.62 L1568.86 876.201 L1603.14 876.201 L1603.14 468.189 L1627.7 468.189 L1627.7 199.184 L1662.56 199.184 L1662.56 85.838 L1687.41 85.838 L1687.41 227.575 L1722.55 227.575 L1722.55 539.418 L1747.55 539.418 L1747.55 1033.79 L1807.91 1033.79 L1807.91 1315.35 L1868.39 1315.35 L1868.39 815.706 L1928.92 815.706 L1928.92 1108.92 L1989.48 1108.92 L1989.48 1084.74 L2050.05 1084.74 L2050.05 1094.65 L2110.63 1094.65 L2110.63 1109.74 L2171.21 1109.74 L2171.21 1119.43 L2231.79 1119.43 L2231.79 988.377 L2267.23 988.377 L2267.23 856.625 L2292.38 856.625 L2292.38 1372.3 L2267.23 1372.3 L2267.23 1372.3 L2231.79 1372.3 L2231.79 1372.3 L2171.21 1372.3 L2171.21 1372.3 L2110.63 1372.3 L2110.63 1372.3 L2050.05 1372.3 L2050.05 1372.3 L1989.48 1372.3 L1989.48 1372.3 L1928.92 1372.3 L1928.92 1372.3 L1868.39 1372.3 L1868.39 1372.3 L1807.91 1372.3 L1807.91 1126.74 L1747.55 1126.74 L1747.55 763.879 L1722.55 763.879 L1722.55 387.226 L1687.41 387.226 L1687.41 311.622 L1662.56 311.622 L1662.56 360.167 L1627.7 360.167 L1627.7 696.62 L1603.14 696.62 L1603.14 1039.85 L1568.86 1039.85 L1568.86 1363.69 L1511.64 1363.69 L1511.64 1372.3 L1457.44 1372.3 L1457.44 1339.83 L1408.36 1339.83 L1408.36 1066.32 L1367.06 1066.32 L1367.06 787.5 L1335.63 787.5 L1335.63 584.75 L1314.31 584.75 L1314.31 427.016 L1286.07 427.016 L1286.07 372.806 L1260.92 372.806 L1260.92 396.805 L1225.48 396.805 L1225.48 586.634 L1200.34 586.634 L1200.34 885.141 L1164.9 885.141 L1164.9 1338.28 L1104.32 1338.28 L1104.32 1372.3 L1043.74 1372.3 L1043.74 1372.3 L983.166 1372.3 L983.166 1372.3 L922.608 1372.3 L922.608 1371.57 L279.759 1371.57  Z" fill="#082b58" fill-rule="evenodd" fill-opacity="1"/>
<polyline clip-path="url(#clip402)" style="stroke:#082b58; stroke-linecap:round; stroke-linejoin:round; stroke-width:4; stroke-opacity:1; fill:none" points="279.759,1370.69 922.608,1370.69 922.608,1367.9 983.166,1367.9 983.166,1367.9 1043.74,1367.9 1043.74,1367.91 1104.32,1367.91 1104.32,1313.03 1164.9,1313.03 1164.9,841.975 1200.34,841.975 1200.34,525.795 1225.48,525.795 1225.48,353.64 1260.92,353.64 1260.92,311.968 1286.07,311.968 1286.07,372.855 1314.31,372.855 1314.31,512.973 1335.63,512.973 1335.63,738.831 1367.06,738.831 1367.06,1029.29 1408.36,1029.29 1408.36,1308.66 1457.44,1308.66 1457.44,1025.01 1511.64,1025.01 1511.64,1265.62 1568.86,1265.62 1568.86,876.201 1603.14,876.201 1603.14,468.189 1627.7,468.189 1627.7,199.184 1662.56,199.184 1662.56,85.838 1687.41,85.838 1687.41,227.575 1722.55,227.575 1722.55,539.418 1747.55,539.418 1747.55,1033.79 1807.91,1033.79 1807.91,1315.35 1868.39,1315.35 1868.39,815.706 1928.92,815.706 1928.92,1108.92 1989.48,1108.92 1989.48,1084.74 2050.05,1084.74 2050.05,1094.65 2110.63,1094.65 2110.63,1109.74 2171.21,1109.74 2171.21,1119.43 2231.79,1119.43 2231.79,988.377 2267.23,988.377 2267.23,856.625 2292.38,856.625 "/>
<path clip-path="url(#clip402)" d="M279.759 1370.8 L922.608 1370.8 L922.608 1369.08 L983.166 1369.08 L983.166 1369.08 L1043.74 1369.08 L1043.74 1369.08 L1104.32 1369.08 L1104.32 1316.84 L1164.9 1316.84 L1164.9 848.49 L1200.34 848.49 L1200.34 534.977 L1225.48 534.977 L1225.48 360.155 L1260.92 360.155 L1260.92 321.15 L1286.07 321.15 L1286.07 381.029 L1314.31 381.029 L1314.31 523.806 L1335.63 523.806 L1335.63 746.176 L1367.06 746.176 L1367.06 1034.88 L1408.36 1034.88 L1408.36 1313.36 L1457.44 1313.36 L1457.44 1125.92 L1511.64 1125.92 L1511.64 1279.59 L1568.86 1279.59 L1568.86 899.51 L1603.14 899.51 L1603.14 500.726 L1627.7 500.726 L1627.7 222.114 L1662.56 222.114 L1662.56 117.998 L1687.41 117.998 L1687.41 250.315 L1722.55 250.315 L1722.55 571.39 L1747.55 571.39 L1747.55 1047.03 L1807.91 1047.03 L1807.91 1328.57 L1868.39 1328.57 L1868.39 977.667 L1928.92 977.667 L1928.92 1164.65 L1989.48 1164.65 L1989.48 1140.44 L2050.05 1140.44 L2050.05 1150.35 L2110.63 1150.35 L2110.63 1165.44 L2171.21 1165.44 L2171.21 1175.12 L2231.79 1175.12 L2231.79 1083.59 L2267.23 1083.59 L2267.23 990.821 L2292.38 990.821 L2292.38 1372.3 L2267.23 1372.3 L2267.23 1372.3 L2231.79 1372.3 L2231.79 1372.3 L2171.21 1372.3 L2171.21 1372.3 L2110.63 1372.3 L2110.63 1372.3 L2050.05 1372.3 L2050.05 1372.3 L1989.48 1372.3 L1989.48 1372.3 L1928.92 1372.3 L1928.92 1372.3 L1868.39 1372.3 L1868.39 1372.3 L1807.91 1372.3 L1807.91 1112.26 L1747.55 1112.26 L1747.55 728.907 L1722.55 728.907 L1722.55 362.352 L1687.41 362.352 L1687.41 276.445 L1662.56 276.445 L1662.56 335.085 L1627.7 335.085 L1627.7 661.03 L1603.14 661.03 L1603.14 1014.35 L1568.86 1014.35 L1568.86 1348.41 L1511.64 1348.41 L1511.64 1372.3 L1457.44 1372.3 L1457.44 1335.23 L1408.36 1335.23 L1408.36 1060.86 L1367.06 1060.86 L1367.06 780.315 L1335.63 780.315 L1335.63 574.154 L1314.31 574.154 L1314.31 419.02 L1286.07 419.02 L1286.07 363.824 L1260.92 363.824 L1260.92 390.433 L1225.48 390.433 L1225.48 577.652 L1200.34 577.652 L1200.34 878.768 L1164.9 878.768 L1164.9 1334.56 L1104.32 1334.56 L1104.32 1372.3 L1043.74 1372.3 L1043.74 1372.3 L983.166 1372.3 L983.166 1372.3 L922.608 1372.3 L922.608 1371.39 L279.759 1371.39  Z" fill="#3777bc" fill-rule="evenodd" fill-opacity="1"/>
<polyline clip-path="url(#clip402)" style="stroke:#3777bc; stroke-linecap:round; stroke-linejoin:round; stroke-width:4; stroke-opacity:1; fill:none" points="279.759,1370.8 922.608,1370.8 922.608,1369.08 983.166,1369.08 983.166,1369.08 1043.74,1369.08 1043.74,1369.08 1104.32,1369.08 1104.32,1316.84 1164.9,1316.84 1164.9,848.49 1200.34,848.49 1200.34,534.977 1225.48,534.977 1225.48,360.155 1260.92,360.155 1260.92,321.15 1286.07,321.15 1286.07,381.029 1314.31,381.029 1314.31,523.806 1335.63,523.806 1335.63,746.176 1367.06,746.176 1367.06,1034.88 1408.36,1034.88 1408.36,1313.36 1457.44,1313.36 1457.44,1125.92 1511.64,1125.92 1511.64,1279.59 1568.86,1279.59 1568.86,899.51 1603.14,899.51 1603.14,500.726 1627.7,500.726 1627.7,222.114 1662.56,222.114 1662.56,117.998 1687.41,117.998 1687.41,250.315 1722.55,250.315 1722.55,571.39 1747.55,571.39 1747.55,1047.03 1807.91,1047.03 1807.91,1328.57 1868.39,1328.57 1868.39,977.667 1928.92,977.667 1928.92,1164.65 1989.48,1164.65 1989.48,1140.44 2050.05,1140.44 2050.05,1150.35 2110.63,1150.35 2110.63,1165.44 2171.21,1165.44 2171.21,1175.12 2231.79,1175.12 2231.79,1083.59 2267.23,1083.59 2267.23,990.821 2292.38,990.821 "/>
<path clip-path="url(#clip402)" d="M279.759 1370.94 L922.608 1370.94 L922.608 1370.54 L983.166 1370.54 L983.166 1370.54 L1043.74 1370.54 L1043.74 1370.54 L1104.32 1370.54 L1104.32 1321.83 L1164.9 1321.83 L1164.9 857.009 L1200.34 857.009 L1200.34 546.985 L1225.48 546.985 L1225.48 368.674 L1260.92 368.674 L1260.92 333.157 L1286.07 333.157 L1286.07 391.719 L1314.31 391.719 L1314.31 537.972 L1335.63 537.972 L1335.63 755.782 L1367.06 755.782 L1367.06 1042.19 L1408.36 1042.19 L1408.36 1319.52 L1457.44 1319.52 L1457.44 1260.91 L1511.64 1260.91 L1511.64 1298.22 L1568.86 1298.22 L1568.86 930.589 L1603.14 930.589 L1603.14 544.109 L1627.7 544.109 L1627.7 252.687 L1662.56 252.687 L1662.56 160.878 L1687.41 160.878 L1687.41 280.636 L1722.55 280.636 L1722.55 614.019 L1747.55 614.019 L1747.55 1064.69 L1807.91 1064.69 L1807.91 1346.19 L1868.39 1346.19 L1868.39 1193.61 L1928.92 1193.61 L1928.92 1239.14 L1989.48 1239.14 L1989.48 1214.92 L2050.05 1214.92 L2050.05 1224.81 L2110.63 1224.81 L2110.63 1239.9 L2171.21 1239.9 L2171.21 1249.58 L2231.79 1249.58 L2231.79 1210.88 L2267.23 1210.88 L2267.23 1170.22 L2292.38 1170.22 L2292.38 1372.3 L2267.23 1372.3 L2267.23 1372.3 L2231.79 1372.3 L2231.79 1372.11 L2171.21 1372.11 L2171.21 1362.44 L2110.63 1362.44 L2110.63 1347.36 L2050.05 1347.36 L2050.05 1337.47 L1989.48 1337.47 L1989.48 1361.72 L1928.92 1361.72 L1928.92 1372.3 L1868.39 1372.3 L1868.39 1372.3 L1807.91 1372.3 L1807.91 1093.04 L1747.55 1093.04 L1747.55 682.482 L1722.55 682.482 L1722.55 329.331 L1687.41 329.331 L1687.41 229.746 L1662.56 229.746 L1662.56 301.789 L1627.7 301.789 L1627.7 613.783 L1603.14 613.783 L1603.14 980.504 L1568.86 980.504 L1568.86 1328.13 L1511.64 1328.13 L1511.64 1372.3 L1457.44 1372.3 L1457.44 1329.12 L1408.36 1329.12 L1408.36 1053.6 L1367.06 1053.6 L1367.06 770.772 L1335.63 770.772 L1335.63 560.08 L1314.31 560.08 L1314.31 408.401 L1286.07 408.401 L1286.07 351.896 L1260.92 351.896 L1260.92 381.969 L1225.48 381.969 L1225.48 565.723 L1200.34 565.723 L1200.34 870.305 L1164.9 870.305 L1164.9 1329.6 L1104.32 1329.6 L1104.32 1372.3 L1043.74 1372.3 L1043.74 1372.3 L983.166 1372.3 L983.166 1372.3 L922.608 1372.3 L922.608 1371.15 L279.759 1371.15  Z" fill="#76b4e7" fill-rule="evenodd" fill-opacity="1"/>
<polyline clip-path="url(#clip402)" style="stroke:#76b4e7; stroke-linecap:round; stroke-linejoin:round; stroke-width:4; stroke-opacity:1; fill:none" points="279.759,1370.94 922.608,1370.94 922.608,1370.54 983.166,1370.54 983.166,1370.54 1043.74,1370.54 1043.74,1370.54 1104.32,1370.54 1104.32,1321.83 1164.9,1321.83 1164.9,857.009 1200.34,857.009 1200.34,546.985 1225.48,546.985 1225.48,368.674 1260.92,368.674 1260.92,333.157 1286.07,333.157 1286.07,391.719 1314.31,391.719 1314.31,537.972 1335.63,537.972 1335.63,755.782 1367.06,755.782 1367.06,1042.19 1408.36,1042.19 1408.36,1319.52 1457.44,1319.52 1457.44,1260.91 1511.64,1260.91 1511.64,1298.22 1568.86,1298.22 1568.86,930.589 1603.14,930.589 1603.14,544.109 1627.7,544.109 1627.7,252.687 1662.56,252.687 1662.56,160.878 1687.41,160.878 1687.41,280.636 1722.55,280.636 1722.55,614.019 1747.55,614.019 1747.55,1064.69 1807.91,1064.69 1807.91,1346.19 1868.39,1346.19 1868.39,1193.61 1928.92,1193.61 1928.92,1239.14 1989.48,1239.14 1989.48,1214.92 2050.05,1214.92 2050.05,1224.81 2110.63,1224.81 2110.63,1239.9 2171.21,1239.9 2171.21,1249.58 2231.79,1249.58 2231.79,1210.88 2267.23,1210.88 2267.23,1170.22 2292.38,1170.22 "/>
<path clip-path="url(#clip402)" d="M279.759 1370.94 L922.608 1370.94 L922.608 1370.54 L983.166 1370.54 L983.166 1370.54 L1043.74 1370.54 L1043.74 1370.54 L1104.32 1370.54 L1104.32 1322.71 L1164.9 1322.71 L1164.9 858.513 L1200.34 858.513 L1200.34 549.104 L1225.48 549.104 L1225.48 370.177 L1260.92 370.177 L1260.92 335.276 L1286.07 335.276 L1286.07 393.605 L1314.31 393.605 L1314.31 540.472 L1335.63 540.472 L1335.63 757.477 L1367.06 757.477 L1367.06 1043.48 L1408.36 1043.48 L1408.36 1320.6 L1457.44 1320.6 L1457.44 1285.48 L1511.64 1285.48 L1511.64 1301.63 L1568.86 1301.63 L1568.86 936.287 L1603.14 936.287 L1603.14 552.062 L1627.7 552.062 L1627.7 258.292 L1662.56 258.292 L1662.56 168.74 L1687.41 168.74 L1687.41 286.194 L1722.55 286.194 L1722.55 621.834 L1747.55 621.834 L1747.55 1067.92 L1807.91 1067.92 L1807.91 1349.42 L1868.39 1349.42 L1868.39 1232.93 L1928.92 1232.93 L1928.92 1252.63 L1989.48 1252.63 L1989.48 1228.41 L2050.05 1228.41 L2050.05 1238.3 L2110.63 1238.3 L2110.63 1253.39 L2171.21 1253.39 L2171.21 1263.07 L2231.79 1263.07 L2231.79 1233.93 L2267.23 1233.93 L2267.23 1202.71 L2292.38 1202.71 L2292.38 1372.3 L2267.23 1372.3 L2267.23 1372.3 L2231.79 1372.3 L2231.79 1357.58 L2171.21 1357.58 L2171.21 1347.91 L2110.63 1347.91 L2110.63 1332.82 L2050.05 1332.82 L2050.05 1322.94 L1989.48 1322.94 L1989.48 1347.18 L1928.92 1347.18 L1928.92 1372.3 L1868.39 1372.3 L1868.39 1371.08 L1807.91 1371.08 L1807.91 1089.62 L1747.55 1089.62 L1747.55 674.236 L1722.55 674.236 L1722.55 323.466 L1687.41 323.466 L1687.41 221.45 L1662.56 221.45 L1662.56 295.875 L1627.7 295.875 L1627.7 605.391 L1603.14 605.391 L1603.14 974.492 L1568.86 974.492 L1568.86 1324.53 L1511.64 1324.53 L1511.64 1372.3 L1457.44 1372.3 L1457.44 1328.04 L1408.36 1328.04 L1408.36 1052.31 L1367.06 1052.31 L1367.06 769.088 L1335.63 769.088 L1335.63 557.597 L1314.31 557.597 L1314.31 406.526 L1286.07 406.526 L1286.07 349.79 L1260.92 349.79 L1260.92 380.476 L1225.48 380.476 L1225.48 563.618 L1200.34 563.618 L1200.34 868.811 L1164.9 868.811 L1164.9 1328.73 L1104.32 1328.73 L1104.32 1372.3 L1043.74 1372.3 L1043.74 1372.3 L983.166 1372.3 L983.166 1372.3 L922.608 1372.3 L922.608 1371.11 L279.759 1371.11  Z" fill="#b8def6" fill-rule="evenodd" fill-opacity="1"/>
<polyline clip-path="url(#clip402)" style="stroke:#b8def6; stroke-linecap:round; stroke-linejoin:round; stroke-width:4; stroke-opacity:1; fill:none" points="279.759,1370.94 922.608,1370.94 922.608,1370.54 983.166,1370.54 983.166,1370.54 1043.74,1370.54 1043.74,1370.54 1104.32,1370.54 1104.32,1322.71 1164.9,1322.71 1164.9,858.513 1200.34,858.513 1200.34,549.104 1225.48,549.104 1225.48,370.177 1260.92,370.177 1260.92,335.276 1286.07,335.276 1286.07,393.605 1314.31,393.605 1314.31,540.472 1335.63,540.472 1335.63,757.477 1367.06,757.477 1367.06,1043.48 1408.36,1043.48 1408.36,1320.6 1457.44,1320.6 1457.44,1285.48 1511.64,1285.48 1511.64,1301.63 1568.86,1301.63 1568.86,936.287 1603.14,936.287 1603.14,552.062 1627.7,552.062 1627.7,258.292 1662.56,258.292 1662.56,168.74 1687.41,168.74 1687.41,286.194 1722.55,286.194 1722.55,621.834 1747.55,621.834 1747.55,1067.92 1807.91,1067.92 1807.91,1349.42 1868.39,1349.42 1868.39,1232.93 1928.92,1232.93 1928.92,1252.63 1989.48,1252.63 1989.48,1228.41 2050.05,1228.41 2050.05,1238.3 2110.63,1238.3 2110.63,1253.39 2171.21,1253.39 2171.21,1263.07 2231.79,1263.07 2231.79,1233.93 2267.23,1233.93 2267.23,1202.71 2292.38,1202.71 "/>
<path clip-path="url(#clip402)" d="M279.759 1370.97 L922.608 1370.97 L922.608 1370.84 L983.166 1370.84 L983.166 1370.84 L1043.74 1370.84 L1043.74 1370.84 L1104.32 1370.84 L1104.32 1323.59 L1164.9 1323.59 L1164.9 860.016 L1200.34 860.016 L1200.34 551.222 L1225.48 551.222 L1225.48 371.681 L1260.92 371.681 L1260.92 337.395 L1286.07 337.395 L1286.07 395.491 L1314.31 395.491 L1314.31 542.972 L1335.63 542.972 L1335.63 759.172 L1367.06 759.172 L1367.06 1044.77 L1408.36 1044.77 L1408.36 1321.69 L1457.44 1321.69 L1457.44 1310.38 L1511.64 1310.38 L1511.64 1305.05 L1568.86 1305.05 L1568.86 941.985 L1603.14 941.985 L1603.14 560.016 L1627.7 560.016 L1627.7 263.897 L1662.56 263.897 L1662.56 176.601 L1687.41 176.601 L1687.41 291.753 L1722.55 291.753 L1722.55 629.649 L1747.55 629.649 L1747.55 1071.16 L1807.91 1071.16 L1807.91 1352.65 L1868.39 1352.65 L1868.39 1272.54 L1928.92 1272.54 L1928.92 1266.41 L1989.48 1266.41 L1989.48 1242.19 L2050.05 1242.19 L2050.05 1252.08 L2110.63 1252.08 L2110.63 1267.17 L2171.21 1267.17 L2171.21 1276.84 L2231.79 1276.84 L2231.79 1257.48 L2267.23 1257.48 L2267.23 1235.91 L2292.38 1235.91 L2292.38 1372.3 L2267.23 1372.3 L2267.23 1370.39 L2231.79 1370.39 L2231.79 1342.89 L2171.21 1342.89 L2171.21 1333.22 L2110.63 1333.22 L2110.63 1318.13 L2050.05 1318.13 L2050.05 1308.25 L1989.48 1308.25 L1989.48 1332.49 L1928.92 1332.49 L1928.92 1372.3 L1868.39 1372.3 L1868.39 1367.86 L1807.91 1367.86 L1807.91 1086.4 L1747.55 1086.4 L1747.55 666.447 L1722.55 666.447 L1722.55 317.926 L1687.41 317.926 L1687.41 213.616 L1662.56 213.616 L1662.56 290.289 L1627.7 290.289 L1627.7 597.465 L1603.14 597.465 L1603.14 968.813 L1568.86 968.813 L1568.86 1321.12 L1511.64 1321.12 L1511.64 1372.3 L1457.44 1372.3 L1457.44 1326.89 L1408.36 1326.89 L1408.36 1050.95 L1367.06 1050.95 L1367.06 767.292 L1335.63 767.292 L1335.63 554.947 L1314.31 554.947 L1314.31 404.528 L1286.07 404.528 L1286.07 347.545 L1260.92 347.545 L1260.92 378.883 L1225.48 378.883 L1225.48 561.373 L1200.34 561.373 L1200.34 867.218 L1164.9 867.218 L1164.9 1327.8 L1104.32 1327.8 L1104.32 1372.01 L1043.74 1372.01 L1043.74 1372.01 L983.166 1372.01 L983.166 1372.01 L922.608 1372.01 L922.608 1371.08 L279.759 1371.08  Z" fill="#ffc9bc" fill-rule="evenodd" fill-opacity="1"/>
<polyline clip-path="url(#clip402)" style="stroke:#ffc9bc; stroke-linecap:round; stroke-linejoin:round; stroke-width:4; stroke-opacity:1; fill:none" points="279.759,1370.97 922.608,1370.97 922.608,1370.84 983.166,1370.84 983.166,1370.84 1043.74,1370.84 1043.74,1370.84 1104.32,1370.84 1104.32,1323.59 1164.9,1323.59 1164.9,860.016 1200.34,860.016 1200.34,551.222 1225.48,551.222 1225.48,371.681 1260.92,371.681 1260.92,337.395 1286.07,337.395 1286.07,395.491 1314.31,395.491 1314.31,542.972 1335.63,542.972 1335.63,759.172 1367.06,759.172 1367.06,1044.77 1408.36,1044.77 1408.36,1321.69 1457.44,1321.69 1457.44,1310.38 1511.64,1310.38 1511.64,1305.05 1568.86,1305.05 1568.86,941.985 1603.14,941.985 1603.14,560.016 1627.7,560.016 1627.7,263.897 1662.56,263.897 1662.56,176.601 1687.41,176.601 1687.41,291.753 1722.55,291.753 1722.55,629.649 1747.55,629.649 1747.55,1071.16 1807.91,1071.16 1807.91,1352.65 1868.39,1352.65 1868.39,1272.54 1928.92,1272.54 1928.92,1266.41 1989.48,1266.41 1989.48,1242.19 2050.05,1242.19 2050.05,1252.08 2110.63,1252.08 2110.63,1267.17 2171.21,1267.17 2171.21,1276.84 2231.79,1276.84 2231.79,1257.48 2267.23,1257.48 2267.23,1235.91 2292.38,1235.91 "/>
<path clip-path="url(#clip402)" d="M279.759 1370.99 L922.608 1370.99 L922.608 1371.13 L983.166 1371.13 L983.166 1371.13 L1043.74 1371.13 L1043.74 1371.13 L1104.32 1371.13 L1104.32 1324.46 L1164.9 1324.46 L1164.9 861.519 L1200.34 861.519 L1200.34 553.341 L1225.48 553.341 L1225.48 373.184 L1260.92 373.184 L1260.92 339.514 L1286.07 339.514 L1286.07 397.378 L1314.31 397.378 L1314.31 545.472 L1335.63 545.472 L1335.63 760.867 L1367.06 760.867 L1367.06 1046.06 L1408.36 1046.06 L1408.36 1322.77 L1457.44 1322.77 L1457.44 1331.68 L1511.64 1331.68 L1511.64 1307.84 L1568.86 1307.84 L1568.86 946.647 L1603.14 946.647 L1603.14 566.523 L1627.7 566.523 L1627.7 268.483 L1662.56 268.483 L1662.56 183.033 L1687.41 183.033 L1687.41 296.301 L1722.55 296.301 L1722.55 636.043 L1747.55 636.043 L1747.55 1073.81 L1807.91 1073.81 L1807.91 1355.29 L1868.39 1355.29 L1868.39 1306.58 L1928.92 1306.58 L1928.92 1278.14 L1989.48 1278.14 L1989.48 1253.91 L2050.05 1253.91 L2050.05 1263.81 L2110.63 1263.81 L2110.63 1278.89 L2171.21 1278.89 L2171.21 1288.57 L2231.79 1288.57 L2231.79 1277.53 L2267.23 1277.53 L2267.23 1264.16 L2292.38 1264.16 L2292.38 1366.05 L2267.23 1366.05 L2267.23 1349.82 L2231.79 1349.82 L2231.79 1330.86 L2171.21 1330.86 L2171.21 1321.19 L2110.63 1321.19 L2110.63 1306.1 L2050.05 1306.1 L2050.05 1296.21 L1989.48 1296.21 L1989.48 1320.45 L1928.92 1320.45 L1928.92 1372.3 L1868.39 1372.3 L1868.39 1365.08 L1807.91 1365.08 L1807.91 1083.61 L1747.55 1083.61 L1747.55 659.728 L1722.55 659.728 L1722.55 313.147 L1687.41 313.147 L1687.41 206.857 L1662.56 206.857 L1662.56 285.47 L1627.7 285.47 L1627.7 590.626 L1603.14 590.626 L1603.14 963.915 L1568.86 963.915 L1568.86 1318.19 L1511.64 1318.19 L1511.64 1372.3 L1457.44 1372.3 L1457.44 1325.95 L1408.36 1325.95 L1408.36 1049.84 L1367.06 1049.84 L1367.06 765.833 L1335.63 765.833 L1335.63 552.795 L1314.31 552.795 L1314.31 402.903 L1286.07 402.903 L1286.07 345.721 L1260.92 345.721 L1260.92 377.588 L1225.48 377.588 L1225.48 559.549 L1200.34 559.549 L1200.34 865.923 L1164.9 865.923 L1164.9 1327.04 L1104.32 1327.04 L1104.32 1371.72 L1043.74 1371.72 L1043.74 1371.72 L983.166 1371.72 L983.166 1371.72 L922.608 1371.72 L922.608 1371.05 L279.759 1371.05  Z" fill="#ff8d7b" fill-rule="evenodd" fill-opacity="1"/>
<polyline clip-path="url(#clip402)" style="stroke:#ff8d7b; stroke-linecap:round; stroke-linejoin:round; stroke-width:4; stroke-opacity:1; fill:none" points="279.759,1370.99 922.608,1370.99 922.608,1371.13 983.166,1371.13 983.166,1371.13 1043.74,1371.13 1043.74,1371.13 1104.32,1371.13 1104.32,1324.46 1164.9,1324.46 1164.9,861.519 1200.34,861.519 1200.34,553.341 1225.48,553.341 1225.48,373.184 1260.92,373.184 1260.92,339.514 1286.07,339.514 1286.07,397.378 1314.31,397.378 1314.31,545.472 1335.63,545.472 1335.63,760.867 1367.06,760.867 1367.06,1046.06 1408.36,1046.06 1408.36,1322.77 1457.44,1322.77 1457.44,1331.68 1511.64,1331.68 1511.64,1307.84 1568.86,1307.84 1568.86,946.647 1603.14,946.647 1603.14,566.523 1627.7,566.523 1627.7,268.483 1662.56,268.483 1662.56,183.033 1687.41,183.033 1687.41,296.301 1722.55,296.301 1722.55,636.043 1747.55,636.043 1747.55,1073.81 1807.91,1073.81 1807.91,1355.29 1868.39,1355.29 1868.39,1306.58 1928.92,1306.58 1928.92,1278.14 1989.48,1278.14 1989.48,1253.91 2050.05,1253.91 2050.05,1263.81 2110.63,1263.81 2110.63,1278.89 2171.21,1278.89 2171.21,1288.57 2231.79,1288.57 2231.79,1277.53 2267.23,1277.53 2267.23,1264.16 2292.38,1264.16 "/>
<path clip-path="url(#clip402)" d="M279.759 1371.02 L922.608 1371.02 L922.608 1371.42 L983.166 1371.42 L983.166 1371.42 L1043.74 1371.42 L1043.74 1371.42 L1104.32 1371.42 L1104.32 1325.05 L1164.9 1325.05 L1164.9 862.522 L1200.34 862.522 L1200.34 554.754 L1225.48 554.754 L1225.48 374.186 L1260.92 374.186 L1260.92 340.926 L1286.07 340.926 L1286.07 398.635 L1314.31 398.635 L1314.31 547.138 L1335.63 547.138 L1335.63 761.997 L1367.06 761.997 L1367.06 1046.92 L1408.36 1046.92 L1408.36 1323.5 L1457.44 1323.5 L1457.44 1346.75 L1511.64 1346.75 L1511.64 1310.01 L1568.86 1310.01 L1568.86 950.273 L1603.14 950.273 L1603.14 571.584 L1627.7 571.584 L1627.7 272.05 L1662.56 272.05 L1662.56 188.036 L1687.41 188.036 L1687.41 299.838 L1722.55 299.838 L1722.55 641.017 L1747.55 641.017 L1747.55 1075.87 L1807.91 1075.87 L1807.91 1357.35 L1868.39 1357.35 L1868.39 1331.22 L1928.92 1331.22 L1928.92 1286.35 L1989.48 1286.35 L1989.48 1262.12 L2050.05 1262.12 L2050.05 1272.02 L2110.63 1272.02 L2110.63 1287.1 L2171.21 1287.1 L2171.21 1296.78 L2231.79 1296.78 L2231.79 1291.56 L2267.23 1291.56 L2267.23 1283.93 L2292.38 1283.93 L2292.38 1345.81 L2267.23 1345.81 L2267.23 1335.46 L2231.79 1335.46 L2231.79 1322.46 L2171.21 1322.46 L2171.21 1312.78 L2110.63 1312.78 L2110.63 1297.7 L2050.05 1297.7 L2050.05 1287.81 L1989.48 1287.81 L1989.48 1312.04 L1928.92 1312.04 L1928.92 1372.3 L1868.39 1372.3 L1868.39 1363.12 L1807.91 1363.12 L1807.91 1081.65 L1747.55 1081.65 L1747.55 654.994 L1722.55 654.994 L1722.55 309.78 L1687.41 309.78 L1687.41 202.095 L1662.56 202.095 L1662.56 282.074 L1627.7 282.074 L1627.7 585.808 L1603.14 585.808 L1603.14 960.463 L1568.86 960.463 L1568.86 1316.12 L1511.64 1316.12 L1511.64 1372.3 L1457.44 1372.3 L1457.44 1325.31 L1408.36 1325.31 L1408.36 1049.07 L1367.06 1049.07 L1367.06 764.822 L1335.63 764.822 L1335.63 551.305 L1314.31 551.305 L1314.31 401.779 L1286.07 401.779 L1286.07 344.458 L1260.92 344.458 L1260.92 376.692 L1225.48 376.692 L1225.48 558.286 L1200.34 558.286 L1200.34 865.027 L1164.9 865.027 L1164.9 1326.52 L1104.32 1326.52 L1104.32 1371.42 L1043.74 1371.42 L1043.74 1371.42 L983.166 1371.42 L983.166 1371.42 L922.608 1371.42 L922.608 1371.02 L279.759 1371.02  Z" fill="#d14135" fill-rule="evenodd" fill-opacity="1"/>
<polyline clip-path="url(#clip402)" style="stroke:#d14135; stroke-linecap:round; stroke-linejoin:round; stroke-width:4; stroke-opacity:1; fill:none" points="279.759,1371.02 922.608,1371.02 922.608,1371.42 983.166,1371.42 983.166,1371.42 1043.74,1371.42 1043.74,1371.42 1104.32,1371.42 1104.32,1325.05 1164.9,1325.05 1164.9,862.522 1200.34,862.522 1200.34,554.754 1225.48,554.754 1225.48,374.186 1260.92,374.186 1260.92,340.926 1286.07,340.926 1286.07,398.635 1314.31,398.635 1314.31,547.138 1335.63,547.138 1335.63,761.997 1367.06,761.997 1367.06,1046.92 1408.36,1046.92 1408.36,1323.5 1457.44,1323.5 1457.44,1346.75 1511.64,1346.75 1511.64,1310.01 1568.86,1310.01 1568.86,950.273 1603.14,950.273 1603.14,571.584 1627.7,571.584 1627.7,272.05 1662.56,272.05 1662.56,188.036 1687.41,188.036 1687.41,299.838 1722.55,299.838 1722.55,641.017 1747.55,641.017 1747.55,1075.87 1807.91,1075.87 1807.91,1357.35 1868.39,1357.35 1868.39,1331.22 1928.92,1331.22 1928.92,1286.35 1989.48,1286.35 1989.48,1262.12 2050.05,1262.12 2050.05,1272.02 2110.63,1272.02 2110.63,1287.1 2171.21,1287.1 2171.21,1296.78 2231.79,1296.78 2231.79,1291.56 2267.23,1291.56 2267.23,1283.93 2292.38,1283.93 "/>
<path clip-path="url(#clip402)" d="M279.759 1371.02 L922.608 1371.02 L922.608 1371.42 L983.166 1371.42 L983.166 1371.42 L1043.74 1371.42 L1043.74 1371.42 L1104.32 1371.42 L1104.32 1325.64 L1164.9 1325.64 L1164.9 863.524 L1200.34 863.524 L1200.34 556.167 L1225.48 556.167 L1225.48 375.189 L1260.92 375.189 L1260.92 342.339 L1286.07 342.339 L1286.07 399.893 L1314.31 399.893 L1314.31 548.805 L1335.63 548.805 L1335.63 763.127 L1367.06 763.127 L1367.06 1047.78 L1408.36 1047.78 L1408.36 1324.22 L1457.44 1324.22 L1457.44 1370.01 L1511.64 1370.01 L1511.64 1312.81 L1568.86 1312.81 L1568.86 954.935 L1603.14 954.935 L1603.14 578.092 L1627.7 578.092 L1627.7 276.636 L1662.56 276.636 L1662.56 194.468 L1687.41 194.468 L1687.41 304.386 L1722.55 304.386 L1722.55 647.411 L1747.55 647.411 L1747.55 1078.51 L1807.91 1078.51 L1807.91 1359.99 L1868.39 1359.99 L1868.39 1368.35 L1928.92 1368.35 L1928.92 1299.26 L1989.48 1299.26 L1989.48 1275.02 L2050.05 1275.02 L2050.05 1284.91 L2110.63 1284.91 L2110.63 1300 L2171.21 1300 L2171.21 1309.68 L2231.79 1309.68 L2231.79 1313.61 L2267.23 1313.61 L2267.23 1315.01 L2292.38 1315.01 L2292.38 1315.01 L2267.23 1315.01 L2267.23 1313.61 L2231.79 1313.61 L2231.79 1309.68 L2171.21 1309.68 L2171.21 1300 L2110.63 1300 L2110.63 1284.91 L2050.05 1284.91 L2050.05 1275.02 L1989.48 1275.02 L1989.48 1299.26 L1928.92 1299.26 L1928.92 1368.35 L1868.39 1368.35 L1868.39 1359.99 L1807.91 1359.99 L1807.91 1078.51 L1747.55 1078.51 L1747.55 647.411 L1722.55 647.411 L1722.55 304.386 L1687.41 304.386 L1687.41 194.468 L1662.56 194.468 L1662.56 276.636 L1627.7 276.636 L1627.7 578.092 L1603.14 578.092 L1603.14 954.935 L1568.86 954.935 L1568.86 1312.81 L1511.64 1312.81 L1511.64 1370.01 L1457.44 1370.01 L1457.44 1324.22 L1408.36 1324.22 L1408.36 1047.78 L1367.06 1047.78 L1367.06 763.127 L1335.63 763.127 L1335.63 548.805 L1314.31 548.805 L1314.31 399.893 L1286.07 399.893 L1286.07 342.339 L1260.92 342.339 L1260.92 375.189 L1225.48 375.189 L1225.48 556.167 L1200.34 556.167 L1200.34 863.524 L1164.9 863.524 L1164.9 1325.64 L1104.32 1325.64 L1104.32 1371.42 L1043.74 1371.42 L1043.74 1371.42 L983.166 1371.42 L983.166 1371.42 L922.608 1371.42 L922.608 1371.02 L279.759 1371.02  Z" fill="#600101" fill-rule="evenodd" fill-opacity="1"/>
<polyline clip-path="url(#clip402)" style="stroke:#600101; stroke-linecap:round; stroke-linejoin:round; stroke-width:4; stroke-opacity:1; fill:none" points="279.759,1371.02 922.608,1371.02 922.608,1371.42 983.166,1371.42 983.166,1371.42 1043.74,1371.42 1043.74,1371.42 1104.32,1371.42 1104.32,1325.64 1164.9,1325.64 1164.9,863.524 1200.34,863.524 1200.34,556.167 1225.48,556.167 1225.48,375.189 1260.92,375.189 1260.92,342.339 1286.07,342.339 1286.07,399.893 1314.31,399.893 1314.31,548.805 1335.63,548.805 1335.63,763.127 1367.06,763.127 1367.06,1047.78 1408.36,1047.78 1408.36,1324.22 1457.44,1324.22 1457.44,1370.01 1511.64,1370.01 1511.64,1312.81 1568.86,1312.81 1568.86,954.935 1603.14,954.935 1603.14,578.092 1627.7,578.092 1627.7,276.636 1662.56,276.636 1662.56,194.468 1687.41,194.468 1687.41,304.386 1722.55,304.386 1722.55,647.411 1747.55,647.411 1747.55,1078.51 1807.91,1078.51 1807.91,1359.99 1868.39,1359.99 1868.39,1368.35 1928.92,1368.35 1928.92,1299.26 1989.48,1299.26 1989.48,1275.02 2050.05,1275.02 2050.05,1284.91 2110.63,1284.91 2110.63,1300 2171.21,1300 2171.21,1309.68 2231.79,1309.68 2231.79,1313.61 2267.23,1313.61 2267.23,1315.01 2292.38,1315.01 "/>
<polyline clip-path="url(#clip402)" style="stroke:#808080; stroke-linecap:round; stroke-linejoin:round; stroke-width:4; stroke-opacity:1; fill:none" stroke-dasharray="16, 10" points="1104.32,1372.3 1104.32,85.838 "/>
<polyline clip-path="url(#clip402)" style="stroke:#808080; stroke-linecap:round; stroke-linejoin:round; stroke-width:4; stroke-opacity:1; fill:none" stroke-dasharray="16, 10" points="1457.44,1372.3 1457.44,85.838 "/>
<polyline clip-path="url(#clip402)" style="stroke:#808080; stroke-linecap:round; stroke-linejoin:round; stroke-width:4; stroke-opacity:1; fill:none" stroke-dasharray="16, 10" points="1511.64,1372.3 1511.64,85.838 "/>
<polyline clip-path="url(#clip402)" style="stroke:#808080; stroke-linecap:round; stroke-linejoin:round; stroke-width:4; stroke-opacity:1; fill:none" stroke-dasharray="16, 10" points="1868.39,1372.3 1868.39,85.838 "/>
<polyline clip-path="url(#clip402)" style="stroke:#808080; stroke-linecap:round; stroke-linejoin:round; stroke-width:4; stroke-opacity:1; fill:none" stroke-dasharray="16, 10" points="1928.92,1372.3 1928.92,85.838 "/>
<polyline clip-path="url(#clip402)" style="stroke:#808080; stroke-linecap:round; stroke-linejoin:round; stroke-width:4; stroke-opacity:1; fill:none" stroke-dasharray="16, 10" points="2292.38,1372.3 2292.38,85.838 "/>
<polyline clip-path="url(#clip402)" style="stroke:#808080; stroke-linecap:round; stroke-linejoin:round; stroke-width:4; stroke-opacity:1; fill:none" stroke-dasharray="16, 10" points="279.759,1372.3 279.759,85.838 "/>
<polyline clip-path="url(#clip402)" style="stroke:#808080; stroke-linecap:round; stroke-linejoin:round; stroke-width:4; stroke-opacity:1; fill:none" stroke-dasharray="16, 10" points="1104.32,1372.3 1104.32,85.838 "/>
<polyline clip-path="url(#clip402)" style="stroke:#808080; stroke-linecap:round; stroke-linejoin:round; stroke-width:4; stroke-opacity:1; fill:none" stroke-dasharray="16, 10" points="1457.44,1372.3 1457.44,85.838 "/>
<polyline clip-path="url(#clip402)" style="stroke:#808080; stroke-linecap:round; stroke-linejoin:round; stroke-width:4; stroke-opacity:1; fill:none" stroke-dasharray="16, 10" points="1511.64,1372.3 1511.64,85.838 "/>
<polyline clip-path="url(#clip402)" style="stroke:#808080; stroke-linecap:round; stroke-linejoin:round; stroke-width:4; stroke-opacity:1; fill:none" stroke-dasharray="16, 10" points="1868.39,1372.3 1868.39,85.838 "/>
<polyline clip-path="url(#clip402)" style="stroke:#808080; stroke-linecap:round; stroke-linejoin:round; stroke-width:4; stroke-opacity:1; fill:none" stroke-dasharray="16, 10" points="1928.92,1372.3 1928.92,85.838 "/>
<path clip-path="url(#clip400)" d="M290.493 559.259 L730.241 559.259 L730.241 92.6992 L290.493 92.6992  Z" fill="#ffffff" fill-rule="evenodd" fill-opacity="1"/>
<polyline clip-path="url(#clip400)" style="stroke:#000000; stroke-linecap:round; stroke-linejoin:round; stroke-width:4; stroke-opacity:1; fill:none" points="290.493,559.259 730.241,559.259 730.241,92.6992 290.493,92.6992 290.493,559.259 "/>
<path clip-path="url(#clip400)" d="M314.197 165.275 L456.422 165.275 L456.422 123.803 L314.197 123.803 L314.197 165.275  Z" fill="#082b58" fill-rule="evenodd" fill-opacity="1"/>
<polyline clip-path="url(#clip400)" style="stroke:#082b58; stroke-linecap:round; stroke-linejoin:round; stroke-width:4; stroke-opacity:1; fill:none" points="314.197,123.803 456.422,123.803 "/>
<path clip-path="url(#clip400)" d="M480.797 157.884 L488.436 157.884 L488.436 131.518 L480.126 133.185 L480.126 128.926 L488.39 127.259 L493.066 127.259 L493.066 157.884 L500.705 157.884 L500.705 161.819 L480.797 161.819 L480.797 157.884 Z" fill="#000000" fill-rule="nonzero" fill-opacity="1" /><path clip-path="url(#clip400)" d="M510.149 155.94 L515.033 155.94 L515.033 161.819 L510.149 161.819 L510.149 155.94 Z" fill="#000000" fill-rule="nonzero" fill-opacity="1" /><path clip-path="url(#clip400)" d="M535.218 130.338 Q531.607 130.338 529.779 133.903 Q527.973 137.444 527.973 144.574 Q527.973 151.68 529.779 155.245 Q531.607 158.787 535.218 158.787 Q538.853 158.787 540.658 155.245 Q542.487 151.68 542.487 144.574 Q542.487 137.444 540.658 133.903 Q538.853 130.338 535.218 130.338 M535.218 126.634 Q541.029 126.634 544.084 131.241 Q547.163 135.824 547.163 144.574 Q547.163 153.301 544.084 157.907 Q541.029 162.49 535.218 162.49 Q529.408 162.49 526.33 157.907 Q523.274 153.301 523.274 144.574 Q523.274 135.824 526.33 131.241 Q529.408 126.634 535.218 126.634 Z" fill="#000000" fill-rule="nonzero" fill-opacity="1" /><path clip-path="url(#clip400)" d="M565.38 130.338 Q561.769 130.338 559.94 133.903 Q558.135 137.444 558.135 144.574 Q558.135 151.68 559.94 155.245 Q561.769 158.787 565.38 158.787 Q569.014 158.787 570.82 155.245 Q572.649 151.68 572.649 144.574 Q572.649 137.444 570.82 133.903 Q569.014 130.338 565.38 130.338 M565.38 126.634 Q571.19 126.634 574.246 131.241 Q577.325 135.824 577.325 144.574 Q577.325 153.301 574.246 157.907 Q571.19 162.49 565.38 162.49 Q559.57 162.49 556.491 157.907 Q553.436 153.301 553.436 144.574 Q553.436 135.824 556.491 131.241 Q559.57 126.634 565.38 126.634 Z" fill="#000000" fill-rule="nonzero" fill-opacity="1" /><path clip-path="url(#clip400)" d="M607.116 147.791 L607.116 149.875 L587.533 149.875 Q587.811 154.273 590.172 156.588 Q592.556 158.879 596.792 158.879 Q599.246 158.879 601.537 158.278 Q603.852 157.676 606.121 156.472 L606.121 160.5 Q603.829 161.472 601.422 161.981 Q599.014 162.49 596.537 162.49 Q590.334 162.49 586.7 158.879 Q583.088 155.268 583.088 149.111 Q583.088 142.745 586.514 139.018 Q589.963 135.268 595.797 135.268 Q601.028 135.268 604.061 138.648 Q607.116 142.004 607.116 147.791 M602.857 146.541 Q602.811 143.046 600.889 140.963 Q598.991 138.879 595.843 138.879 Q592.278 138.879 590.125 140.893 Q587.996 142.907 587.672 146.565 L602.857 146.541 Z" fill="#000000" fill-rule="nonzero" fill-opacity="1" /><path clip-path="url(#clip400)" d="M611.954 146.935 L624.431 146.935 L624.431 150.731 L611.954 150.731 L611.954 146.935 Z" fill="#000000" fill-rule="nonzero" fill-opacity="1" /><path clip-path="url(#clip400)" d="M632.625 157.884 L640.264 157.884 L640.264 131.518 L631.954 133.185 L631.954 128.926 L640.218 127.259 L644.894 127.259 L644.894 157.884 L652.533 157.884 L652.533 161.819 L632.625 161.819 L632.625 157.884 Z" fill="#000000" fill-rule="nonzero" fill-opacity="1" /><path clip-path="url(#clip400)" d="M671.977 130.338 Q668.366 130.338 666.537 133.903 Q664.732 137.444 664.732 144.574 Q664.732 151.68 666.537 155.245 Q668.366 158.787 671.977 158.787 Q675.611 158.787 677.417 155.245 Q679.245 151.68 679.245 144.574 Q679.245 137.444 677.417 133.903 Q675.611 130.338 671.977 130.338 M671.977 126.634 Q677.787 126.634 680.843 131.241 Q683.921 135.824 683.921 144.574 Q683.921 153.301 680.843 157.907 Q677.787 162.49 671.977 162.49 Q666.167 162.49 663.088 157.907 Q660.033 153.301 660.033 144.574 Q660.033 135.824 663.088 131.241 Q666.167 126.634 671.977 126.634 Z" fill="#000000" fill-rule="nonzero" fill-opacity="1" /><path clip-path="url(#clip400)" d="M314.197 217.115 L456.422 217.115 L456.422 175.643 L314.197 175.643 L314.197 217.115  Z" fill="#3777bc" fill-rule="evenodd" fill-opacity="1"/>
<polyline clip-path="url(#clip400)" style="stroke:#3777bc; stroke-linecap:round; stroke-linejoin:round; stroke-width:4; stroke-opacity:1; fill:none" points="314.197,175.643 456.422,175.643 "/>
<path clip-path="url(#clip400)" d="M480.797 209.724 L488.436 209.724 L488.436 183.358 L480.126 185.025 L480.126 180.766 L488.39 179.099 L493.066 179.099 L493.066 209.724 L500.705 209.724 L500.705 213.659 L480.797 213.659 L480.797 209.724 Z" fill="#000000" fill-rule="nonzero" fill-opacity="1" /><path clip-path="url(#clip400)" d="M510.149 207.78 L515.033 207.78 L515.033 213.659 L510.149 213.659 L510.149 207.78 Z" fill="#000000" fill-rule="nonzero" fill-opacity="1" /><path clip-path="url(#clip400)" d="M535.218 182.178 Q531.607 182.178 529.779 185.743 Q527.973 189.284 527.973 196.414 Q527.973 203.52 529.779 207.085 Q531.607 210.627 535.218 210.627 Q538.853 210.627 540.658 207.085 Q542.487 203.52 542.487 196.414 Q542.487 189.284 540.658 185.743 Q538.853 182.178 535.218 182.178 M535.218 178.474 Q541.029 178.474 544.084 183.081 Q547.163 187.664 547.163 196.414 Q547.163 205.141 544.084 209.747 Q541.029 214.33 535.218 214.33 Q529.408 214.33 526.33 209.747 Q523.274 205.141 523.274 196.414 Q523.274 187.664 526.33 183.081 Q529.408 178.474 535.218 178.474 Z" fill="#000000" fill-rule="nonzero" fill-opacity="1" /><path clip-path="url(#clip400)" d="M565.38 182.178 Q561.769 182.178 559.94 185.743 Q558.135 189.284 558.135 196.414 Q558.135 203.52 559.94 207.085 Q561.769 210.627 565.38 210.627 Q569.014 210.627 570.82 207.085 Q572.649 203.52 572.649 196.414 Q572.649 189.284 570.82 185.743 Q569.014 182.178 565.38 182.178 M565.38 178.474 Q571.19 178.474 574.246 183.081 Q577.325 187.664 577.325 196.414 Q577.325 205.141 574.246 209.747 Q571.19 214.33 565.38 214.33 Q559.57 214.33 556.491 209.747 Q553.436 205.141 553.436 196.414 Q553.436 187.664 556.491 183.081 Q559.57 178.474 565.38 178.474 Z" fill="#000000" fill-rule="nonzero" fill-opacity="1" /><path clip-path="url(#clip400)" d="M607.116 199.631 L607.116 201.715 L587.533 201.715 Q587.811 206.113 590.172 208.428 Q592.556 210.719 596.792 210.719 Q599.246 210.719 601.537 210.118 Q603.852 209.516 606.121 208.312 L606.121 212.34 Q603.829 213.312 601.422 213.821 Q599.014 214.33 596.537 214.33 Q590.334 214.33 586.7 210.719 Q583.088 207.108 583.088 200.951 Q583.088 194.585 586.514 190.858 Q589.963 187.108 595.797 187.108 Q601.028 187.108 604.061 190.488 Q607.116 193.844 607.116 199.631 M602.857 198.381 Q602.811 194.886 600.889 192.803 Q598.991 190.719 595.843 190.719 Q592.278 190.719 590.125 192.733 Q587.996 194.747 587.672 198.405 L602.857 198.381 Z" fill="#000000" fill-rule="nonzero" fill-opacity="1" /><path clip-path="url(#clip400)" d="M611.954 198.775 L624.431 198.775 L624.431 202.571 L611.954 202.571 L611.954 198.775 Z" fill="#000000" fill-rule="nonzero" fill-opacity="1" /><path clip-path="url(#clip400)" d="M641.815 182.178 Q638.204 182.178 636.375 185.743 Q634.57 189.284 634.57 196.414 Q634.57 203.52 636.375 207.085 Q638.204 210.627 641.815 210.627 Q645.449 210.627 647.255 207.085 Q649.084 203.52 649.084 196.414 Q649.084 189.284 647.255 185.743 Q645.449 182.178 641.815 182.178 M641.815 178.474 Q647.625 178.474 650.681 183.081 Q653.759 187.664 653.759 196.414 Q653.759 205.141 650.681 209.747 Q647.625 214.33 641.815 214.33 Q636.005 214.33 632.926 209.747 Q629.871 205.141 629.871 196.414 Q629.871 187.664 632.926 183.081 Q636.005 178.474 641.815 178.474 Z" fill="#000000" fill-rule="nonzero" fill-opacity="1" /><path clip-path="url(#clip400)" d="M662.023 179.099 L680.38 179.099 L680.38 183.034 L666.306 183.034 L666.306 191.507 Q667.324 191.159 668.343 190.997 Q669.361 190.812 670.38 190.812 Q676.167 190.812 679.546 193.983 Q682.926 197.155 682.926 202.571 Q682.926 208.15 679.454 211.252 Q675.982 214.33 669.662 214.33 Q667.486 214.33 665.218 213.96 Q662.972 213.59 660.565 212.849 L660.565 208.15 Q662.648 209.284 664.87 209.84 Q667.093 210.395 669.57 210.395 Q673.574 210.395 675.912 208.289 Q678.25 206.182 678.25 202.571 Q678.25 198.96 675.912 196.854 Q673.574 194.747 669.57 194.747 Q667.695 194.747 665.82 195.164 Q663.968 195.581 662.023 196.46 L662.023 179.099 Z" fill="#000000" fill-rule="nonzero" fill-opacity="1" /><path clip-path="url(#clip400)" d="M314.197 268.955 L456.422 268.955 L456.422 227.483 L314.197 227.483 L314.197 268.955  Z" fill="#76b4e7" fill-rule="evenodd" fill-opacity="1"/>
<polyline clip-path="url(#clip400)" style="stroke:#76b4e7; stroke-linecap:round; stroke-linejoin:round; stroke-width:4; stroke-opacity:1; fill:none" points="314.197,227.483 456.422,227.483 "/>
<path clip-path="url(#clip400)" d="M480.797 261.564 L488.436 261.564 L488.436 235.198 L480.126 236.865 L480.126 232.606 L488.39 230.939 L493.066 230.939 L493.066 261.564 L500.705 261.564 L500.705 265.499 L480.797 265.499 L480.797 261.564 Z" fill="#000000" fill-rule="nonzero" fill-opacity="1" /><path clip-path="url(#clip400)" d="M510.149 259.62 L515.033 259.62 L515.033 265.499 L510.149 265.499 L510.149 259.62 Z" fill="#000000" fill-rule="nonzero" fill-opacity="1" /><path clip-path="url(#clip400)" d="M535.218 234.018 Q531.607 234.018 529.779 237.583 Q527.973 241.124 527.973 248.254 Q527.973 255.36 529.779 258.925 Q531.607 262.467 535.218 262.467 Q538.853 262.467 540.658 258.925 Q542.487 255.36 542.487 248.254 Q542.487 241.124 540.658 237.583 Q538.853 234.018 535.218 234.018 M535.218 230.314 Q541.029 230.314 544.084 234.921 Q547.163 239.504 547.163 248.254 Q547.163 256.981 544.084 261.587 Q541.029 266.17 535.218 266.17 Q529.408 266.17 526.33 261.587 Q523.274 256.981 523.274 248.254 Q523.274 239.504 526.33 234.921 Q529.408 230.314 535.218 230.314 Z" fill="#000000" fill-rule="nonzero" fill-opacity="1" /><path clip-path="url(#clip400)" d="M565.38 234.018 Q561.769 234.018 559.94 237.583 Q558.135 241.124 558.135 248.254 Q558.135 255.36 559.94 258.925 Q561.769 262.467 565.38 262.467 Q569.014 262.467 570.82 258.925 Q572.649 255.36 572.649 248.254 Q572.649 241.124 570.82 237.583 Q569.014 234.018 565.38 234.018 M565.38 230.314 Q571.19 230.314 574.246 234.921 Q577.325 239.504 577.325 248.254 Q577.325 256.981 574.246 261.587 Q571.19 266.17 565.38 266.17 Q559.57 266.17 556.491 261.587 Q553.436 256.981 553.436 248.254 Q553.436 239.504 556.491 234.921 Q559.57 230.314 565.38 230.314 Z" fill="#000000" fill-rule="nonzero" fill-opacity="1" /><path clip-path="url(#clip400)" d="M607.116 251.471 L607.116 253.555 L587.533 253.555 Q587.811 257.953 590.172 260.268 Q592.556 262.559 596.792 262.559 Q599.246 262.559 601.537 261.958 Q603.852 261.356 606.121 260.152 L606.121 264.18 Q603.829 265.152 601.422 265.661 Q599.014 266.17 596.537 266.17 Q590.334 266.17 586.7 262.559 Q583.088 258.948 583.088 252.791 Q583.088 246.425 586.514 242.698 Q589.963 238.948 595.797 238.948 Q601.028 238.948 604.061 242.328 Q607.116 245.684 607.116 251.471 M602.857 250.221 Q602.811 246.726 600.889 244.643 Q598.991 242.559 595.843 242.559 Q592.278 242.559 590.125 244.573 Q587.996 246.587 587.672 250.245 L602.857 250.221 Z" fill="#000000" fill-rule="nonzero" fill-opacity="1" /><path clip-path="url(#clip400)" d="M611.954 250.615 L624.431 250.615 L624.431 254.411 L611.954 254.411 L611.954 250.615 Z" fill="#000000" fill-rule="nonzero" fill-opacity="1" /><path clip-path="url(#clip400)" d="M641.815 234.018 Q638.204 234.018 636.375 237.583 Q634.57 241.124 634.57 248.254 Q634.57 255.36 636.375 258.925 Q638.204 262.467 641.815 262.467 Q645.449 262.467 647.255 258.925 Q649.084 255.36 649.084 248.254 Q649.084 241.124 647.255 237.583 Q645.449 234.018 641.815 234.018 M641.815 230.314 Q647.625 230.314 650.681 234.921 Q653.759 239.504 653.759 248.254 Q653.759 256.981 650.681 261.587 Q647.625 266.17 641.815 266.17 Q636.005 266.17 632.926 261.587 Q629.871 256.981 629.871 248.254 Q629.871 239.504 632.926 234.921 Q636.005 230.314 641.815 230.314 Z" fill="#000000" fill-rule="nonzero" fill-opacity="1" /><path clip-path="url(#clip400)" d="M662.787 261.564 L670.426 261.564 L670.426 235.198 L662.116 236.865 L662.116 232.606 L670.38 230.939 L675.056 230.939 L675.056 261.564 L682.694 261.564 L682.694 265.499 L662.787 265.499 L662.787 261.564 Z" fill="#000000" fill-rule="nonzero" fill-opacity="1" /><path clip-path="url(#clip400)" d="M314.197 320.795 L456.422 320.795 L456.422 279.323 L314.197 279.323 L314.197 320.795  Z" fill="#b8def6" fill-rule="evenodd" fill-opacity="1"/>
<polyline clip-path="url(#clip400)" style="stroke:#b8def6; stroke-linecap:round; stroke-linejoin:round; stroke-width:4; stroke-opacity:1; fill:none" points="314.197,279.323 456.422,279.323 "/>
<path clip-path="url(#clip400)" d="M485.751 313.404 L502.07 313.404 L502.07 317.339 L480.126 317.339 L480.126 313.404 Q482.788 310.649 487.371 306.02 Q491.978 301.367 493.158 300.024 Q495.404 297.501 496.283 295.765 Q497.186 294.006 497.186 292.316 Q497.186 289.562 495.242 287.825 Q493.32 286.089 490.219 286.089 Q488.02 286.089 485.566 286.853 Q483.135 287.617 480.358 289.168 L480.358 284.446 Q483.182 283.312 485.635 282.733 Q488.089 282.154 490.126 282.154 Q495.496 282.154 498.691 284.839 Q501.885 287.525 501.885 292.015 Q501.885 294.145 501.075 296.066 Q500.288 297.964 498.182 300.557 Q497.603 301.228 494.501 304.446 Q491.399 307.64 485.751 313.404 Z" fill="#000000" fill-rule="nonzero" fill-opacity="1" /><path clip-path="url(#clip400)" d="M511.885 311.46 L516.769 311.46 L516.769 317.339 L511.885 317.339 L511.885 311.46 Z" fill="#000000" fill-rule="nonzero" fill-opacity="1" /><path clip-path="url(#clip400)" d="M527.001 282.779 L545.357 282.779 L545.357 286.714 L531.283 286.714 L531.283 295.187 Q532.302 294.839 533.32 294.677 Q534.339 294.492 535.357 294.492 Q541.144 294.492 544.524 297.663 Q547.903 300.835 547.903 306.251 Q547.903 311.83 544.431 314.932 Q540.959 318.01 534.64 318.01 Q532.464 318.01 530.195 317.64 Q527.95 317.27 525.543 316.529 L525.543 311.83 Q527.626 312.964 529.848 313.52 Q532.07 314.075 534.547 314.075 Q538.552 314.075 540.89 311.969 Q543.228 309.862 543.228 306.251 Q543.228 302.64 540.89 300.534 Q538.552 298.427 534.547 298.427 Q532.672 298.427 530.797 298.844 Q528.945 299.261 527.001 300.14 L527.001 282.779 Z" fill="#000000" fill-rule="nonzero" fill-opacity="1" /><path clip-path="url(#clip400)" d="M567.116 285.858 Q563.505 285.858 561.677 289.423 Q559.871 292.964 559.871 300.094 Q559.871 307.2 561.677 310.765 Q563.505 314.307 567.116 314.307 Q570.751 314.307 572.556 310.765 Q574.385 307.2 574.385 300.094 Q574.385 292.964 572.556 289.423 Q570.751 285.858 567.116 285.858 M567.116 282.154 Q572.927 282.154 575.982 286.761 Q579.061 291.344 579.061 300.094 Q579.061 308.821 575.982 313.427 Q572.927 318.01 567.116 318.01 Q561.306 318.01 558.228 313.427 Q555.172 308.821 555.172 300.094 Q555.172 291.344 558.228 286.761 Q561.306 282.154 567.116 282.154 Z" fill="#000000" fill-rule="nonzero" fill-opacity="1" /><path clip-path="url(#clip400)" d="M608.852 303.311 L608.852 305.395 L589.269 305.395 Q589.547 309.793 591.908 312.108 Q594.292 314.399 598.528 314.399 Q600.982 314.399 603.274 313.798 Q605.588 313.196 607.857 311.992 L607.857 316.02 Q605.565 316.992 603.158 317.501 Q600.75 318.01 598.274 318.01 Q592.07 318.01 588.436 314.399 Q584.825 310.788 584.825 304.631 Q584.825 298.265 588.251 294.538 Q591.7 290.788 597.533 290.788 Q602.764 290.788 605.797 294.168 Q608.852 297.524 608.852 303.311 M604.593 302.061 Q604.547 298.566 602.625 296.483 Q600.727 294.399 597.579 294.399 Q594.014 294.399 591.862 296.413 Q589.732 298.427 589.408 302.085 L604.593 302.061 Z" fill="#000000" fill-rule="nonzero" fill-opacity="1" /><path clip-path="url(#clip400)" d="M613.69 302.455 L626.167 302.455 L626.167 306.251 L613.69 306.251 L613.69 302.455 Z" fill="#000000" fill-rule="nonzero" fill-opacity="1" /><path clip-path="url(#clip400)" d="M643.551 285.858 Q639.94 285.858 638.111 289.423 Q636.306 292.964 636.306 300.094 Q636.306 307.2 638.111 310.765 Q639.94 314.307 643.551 314.307 Q647.185 314.307 648.991 310.765 Q650.82 307.2 650.82 300.094 Q650.82 292.964 648.991 289.423 Q647.185 285.858 643.551 285.858 M643.551 282.154 Q649.361 282.154 652.417 286.761 Q655.496 291.344 655.496 300.094 Q655.496 308.821 652.417 313.427 Q649.361 318.01 643.551 318.01 Q637.741 318.01 634.662 313.427 Q631.607 308.821 631.607 300.094 Q631.607 291.344 634.662 286.761 Q637.741 282.154 643.551 282.154 Z" fill="#000000" fill-rule="nonzero" fill-opacity="1" /><path clip-path="url(#clip400)" d="M664.523 313.404 L672.162 313.404 L672.162 287.038 L663.852 288.705 L663.852 284.446 L672.116 282.779 L676.792 282.779 L676.792 313.404 L684.431 313.404 L684.431 317.339 L664.523 317.339 L664.523 313.404 Z" fill="#000000" fill-rule="nonzero" fill-opacity="1" /><path clip-path="url(#clip400)" d="M314.197 372.635 L456.422 372.635 L456.422 331.163 L314.197 331.163 L314.197 372.635  Z" fill="#ffc9bc" fill-rule="evenodd" fill-opacity="1"/>
<polyline clip-path="url(#clip400)" style="stroke:#ffc9bc; stroke-linecap:round; stroke-linejoin:round; stroke-width:4; stroke-opacity:1; fill:none" points="314.197,331.163 456.422,331.163 "/>
<path clip-path="url(#clip400)" d="M481.584 334.619 L499.941 334.619 L499.941 338.554 L485.867 338.554 L485.867 347.027 Q486.885 346.679 487.904 346.517 Q488.922 346.332 489.941 346.332 Q495.728 346.332 499.107 349.503 Q502.487 352.675 502.487 358.091 Q502.487 363.67 499.015 366.772 Q495.543 369.85 489.223 369.85 Q487.047 369.85 484.779 369.48 Q482.533 369.11 480.126 368.369 L480.126 363.67 Q482.209 364.804 484.432 365.36 Q486.654 365.915 489.131 365.915 Q493.135 365.915 495.473 363.809 Q497.811 361.702 497.811 358.091 Q497.811 354.48 495.473 352.374 Q493.135 350.267 489.131 350.267 Q487.256 350.267 485.381 350.684 Q483.529 351.101 481.584 351.98 L481.584 334.619 Z" fill="#000000" fill-rule="nonzero" fill-opacity="1" /><path clip-path="url(#clip400)" d="M511.7 363.3 L516.584 363.3 L516.584 369.179 L511.7 369.179 L511.7 363.3 Z" fill="#000000" fill-rule="nonzero" fill-opacity="1" /><path clip-path="url(#clip400)" d="M536.769 337.698 Q533.158 337.698 531.33 341.263 Q529.524 344.804 529.524 351.934 Q529.524 359.04 531.33 362.605 Q533.158 366.147 536.769 366.147 Q540.404 366.147 542.209 362.605 Q544.038 359.04 544.038 351.934 Q544.038 344.804 542.209 341.263 Q540.404 337.698 536.769 337.698 M536.769 333.994 Q542.579 333.994 545.635 338.601 Q548.714 343.184 548.714 351.934 Q548.714 360.661 545.635 365.267 Q542.579 369.85 536.769 369.85 Q530.959 369.85 527.88 365.267 Q524.825 360.661 524.825 351.934 Q524.825 343.184 527.88 338.601 Q530.959 333.994 536.769 333.994 Z" fill="#000000" fill-rule="nonzero" fill-opacity="1" /><path clip-path="url(#clip400)" d="M566.931 337.698 Q563.32 337.698 561.491 341.263 Q559.686 344.804 559.686 351.934 Q559.686 359.04 561.491 362.605 Q563.32 366.147 566.931 366.147 Q570.565 366.147 572.371 362.605 Q574.2 359.04 574.2 351.934 Q574.2 344.804 572.371 341.263 Q570.565 337.698 566.931 337.698 M566.931 333.994 Q572.741 333.994 575.797 338.601 Q578.876 343.184 578.876 351.934 Q578.876 360.661 575.797 365.267 Q572.741 369.85 566.931 369.85 Q561.121 369.85 558.042 365.267 Q554.987 360.661 554.987 351.934 Q554.987 343.184 558.042 338.601 Q561.121 333.994 566.931 333.994 Z" fill="#000000" fill-rule="nonzero" fill-opacity="1" /><path clip-path="url(#clip400)" d="M608.667 355.151 L608.667 357.235 L589.084 357.235 Q589.362 361.633 591.723 363.948 Q594.107 366.239 598.343 366.239 Q600.797 366.239 603.088 365.638 Q605.403 365.036 607.672 363.832 L607.672 367.86 Q605.38 368.832 602.973 369.341 Q600.565 369.85 598.088 369.85 Q591.885 369.85 588.251 366.239 Q584.639 362.628 584.639 356.471 Q584.639 350.105 588.065 346.378 Q591.514 342.628 597.348 342.628 Q602.579 342.628 605.612 346.008 Q608.667 349.364 608.667 355.151 M604.408 353.901 Q604.362 350.406 602.44 348.323 Q600.542 346.239 597.394 346.239 Q593.829 346.239 591.676 348.253 Q589.547 350.267 589.223 353.925 L604.408 353.901 Z" fill="#000000" fill-rule="nonzero" fill-opacity="1" /><path clip-path="url(#clip400)" d="M613.505 354.295 L625.982 354.295 L625.982 358.091 L613.505 358.091 L613.505 354.295 Z" fill="#000000" fill-rule="nonzero" fill-opacity="1" /><path clip-path="url(#clip400)" d="M643.366 337.698 Q639.755 337.698 637.926 341.263 Q636.121 344.804 636.121 351.934 Q636.121 359.04 637.926 362.605 Q639.755 366.147 643.366 366.147 Q647 366.147 648.806 362.605 Q650.634 359.04 650.634 351.934 Q650.634 344.804 648.806 341.263 Q647 337.698 643.366 337.698 M643.366 333.994 Q649.176 333.994 652.232 338.601 Q655.31 343.184 655.31 351.934 Q655.31 360.661 652.232 365.267 Q649.176 369.85 643.366 369.85 Q637.556 369.85 634.477 365.267 Q631.422 360.661 631.422 351.934 Q631.422 343.184 634.477 338.601 Q637.556 333.994 643.366 333.994 Z" fill="#000000" fill-rule="nonzero" fill-opacity="1" /><path clip-path="url(#clip400)" d="M664.338 365.244 L671.977 365.244 L671.977 338.878 L663.667 340.545 L663.667 336.286 L671.931 334.619 L676.607 334.619 L676.607 365.244 L684.245 365.244 L684.245 369.179 L664.338 369.179 L664.338 365.244 Z" fill="#000000" fill-rule="nonzero" fill-opacity="1" /><path clip-path="url(#clip400)" d="M314.197 424.475 L456.422 424.475 L456.422 383.003 L314.197 383.003 L314.197 424.475  Z" fill="#ff8d7b" fill-rule="evenodd" fill-opacity="1"/>
<polyline clip-path="url(#clip400)" style="stroke:#ff8d7b; stroke-linecap:round; stroke-linejoin:round; stroke-width:4; stroke-opacity:1; fill:none" points="314.197,383.003 456.422,383.003 "/>
<path clip-path="url(#clip400)" d="M480.126 386.459 L502.348 386.459 L502.348 388.45 L489.802 421.019 L484.918 421.019 L496.723 390.394 L480.126 390.394 L480.126 386.459 Z" fill="#000000" fill-rule="nonzero" fill-opacity="1" /><path clip-path="url(#clip400)" d="M511.469 415.14 L516.353 415.14 L516.353 421.019 L511.469 421.019 L511.469 415.14 Z" fill="#000000" fill-rule="nonzero" fill-opacity="1" /><path clip-path="url(#clip400)" d="M526.584 386.459 L544.941 386.459 L544.941 390.394 L530.867 390.394 L530.867 398.867 Q531.885 398.519 532.904 398.357 Q533.922 398.172 534.941 398.172 Q540.728 398.172 544.107 401.343 Q547.487 404.515 547.487 409.931 Q547.487 415.51 544.015 418.612 Q540.542 421.69 534.223 421.69 Q532.047 421.69 529.779 421.32 Q527.533 420.95 525.126 420.209 L525.126 415.51 Q527.209 416.644 529.431 417.2 Q531.654 417.755 534.13 417.755 Q538.135 417.755 540.473 415.649 Q542.811 413.542 542.811 409.931 Q542.811 406.32 540.473 404.214 Q538.135 402.107 534.13 402.107 Q532.255 402.107 530.38 402.524 Q528.529 402.941 526.584 403.82 L526.584 386.459 Z" fill="#000000" fill-rule="nonzero" fill-opacity="1" /><path clip-path="url(#clip400)" d="M566.7 389.538 Q563.089 389.538 561.26 393.103 Q559.454 396.644 559.454 403.774 Q559.454 410.88 561.26 414.445 Q563.089 417.987 566.7 417.987 Q570.334 417.987 572.139 414.445 Q573.968 410.88 573.968 403.774 Q573.968 396.644 572.139 393.103 Q570.334 389.538 566.7 389.538 M566.7 385.834 Q572.51 385.834 575.565 390.441 Q578.644 395.024 578.644 403.774 Q578.644 412.501 575.565 417.107 Q572.51 421.69 566.7 421.69 Q560.89 421.69 557.811 417.107 Q554.755 412.501 554.755 403.774 Q554.755 395.024 557.811 390.441 Q560.89 385.834 566.7 385.834 Z" fill="#000000" fill-rule="nonzero" fill-opacity="1" /><path clip-path="url(#clip400)" d="M608.436 406.991 L608.436 409.075 L588.852 409.075 Q589.13 413.473 591.491 415.788 Q593.875 418.079 598.112 418.079 Q600.565 418.079 602.857 417.478 Q605.172 416.876 607.44 415.672 L607.44 419.7 Q605.149 420.672 602.741 421.181 Q600.334 421.69 597.857 421.69 Q591.653 421.69 588.019 418.079 Q584.408 414.468 584.408 408.311 Q584.408 401.945 587.834 398.218 Q591.283 394.468 597.116 394.468 Q602.348 394.468 605.38 397.848 Q608.436 401.204 608.436 406.991 M604.176 405.741 Q604.13 402.246 602.209 400.163 Q600.311 398.079 597.162 398.079 Q593.598 398.079 591.445 400.093 Q589.315 402.107 588.991 405.765 L604.176 405.741 Z" fill="#000000" fill-rule="nonzero" fill-opacity="1" /><path clip-path="url(#clip400)" d="M613.274 406.135 L625.75 406.135 L625.75 409.931 L613.274 409.931 L613.274 406.135 Z" fill="#000000" fill-rule="nonzero" fill-opacity="1" /><path clip-path="url(#clip400)" d="M643.134 389.538 Q639.523 389.538 637.695 393.103 Q635.889 396.644 635.889 403.774 Q635.889 410.88 637.695 414.445 Q639.523 417.987 643.134 417.987 Q646.769 417.987 648.574 414.445 Q650.403 410.88 650.403 403.774 Q650.403 396.644 648.574 393.103 Q646.769 389.538 643.134 389.538 M643.134 385.834 Q648.945 385.834 652 390.441 Q655.079 395.024 655.079 403.774 Q655.079 412.501 652 417.107 Q648.945 421.69 643.134 421.69 Q637.324 421.69 634.246 417.107 Q631.19 412.501 631.19 403.774 Q631.19 395.024 634.246 390.441 Q637.324 385.834 643.134 385.834 Z" fill="#000000" fill-rule="nonzero" fill-opacity="1" /><path clip-path="url(#clip400)" d="M664.107 417.084 L671.745 417.084 L671.745 390.718 L663.435 392.385 L663.435 388.126 L671.699 386.459 L676.375 386.459 L676.375 417.084 L684.014 417.084 L684.014 421.019 L664.107 421.019 L664.107 417.084 Z" fill="#000000" fill-rule="nonzero" fill-opacity="1" /><path clip-path="url(#clip400)" d="M314.197 476.315 L456.422 476.315 L456.422 434.843 L314.197 434.843 L314.197 476.315  Z" fill="#d14135" fill-rule="evenodd" fill-opacity="1"/>
<polyline clip-path="url(#clip400)" style="stroke:#d14135; stroke-linecap:round; stroke-linejoin:round; stroke-width:4; stroke-opacity:1; fill:none" points="314.197,434.843 456.422,434.843 "/>
<path clip-path="url(#clip400)" d="M482.348 472.142 L482.348 467.882 Q484.108 468.716 485.913 469.155 Q487.719 469.595 489.455 469.595 Q494.084 469.595 496.515 466.493 Q498.969 463.368 499.316 457.026 Q497.973 459.017 495.913 460.081 Q493.853 461.146 491.353 461.146 Q486.168 461.146 483.135 458.021 Q480.126 454.873 480.126 449.433 Q480.126 444.109 483.274 440.892 Q486.422 437.674 491.654 437.674 Q497.649 437.674 500.797 442.281 Q503.969 446.864 503.969 455.614 Q503.969 463.785 500.08 468.669 Q496.214 473.53 489.663 473.53 Q487.904 473.53 486.098 473.183 Q484.293 472.836 482.348 472.142 M491.654 457.489 Q494.802 457.489 496.631 455.336 Q498.482 453.183 498.482 449.433 Q498.482 445.707 496.631 443.554 Q494.802 441.378 491.654 441.378 Q488.506 441.378 486.654 443.554 Q484.825 445.707 484.825 449.433 Q484.825 453.183 486.654 455.336 Q488.506 457.489 491.654 457.489 Z" fill="#000000" fill-rule="nonzero" fill-opacity="1" /><path clip-path="url(#clip400)" d="M512.371 466.98 L517.256 466.98 L517.256 472.859 L512.371 472.859 L512.371 466.98 Z" fill="#000000" fill-rule="nonzero" fill-opacity="1" /><path clip-path="url(#clip400)" d="M537.441 441.378 Q533.829 441.378 532.001 444.943 Q530.195 448.484 530.195 455.614 Q530.195 462.72 532.001 466.285 Q533.829 469.827 537.441 469.827 Q541.075 469.827 542.88 466.285 Q544.709 462.72 544.709 455.614 Q544.709 448.484 542.88 444.943 Q541.075 441.378 537.441 441.378 M537.441 437.674 Q543.251 437.674 546.306 442.281 Q549.385 446.864 549.385 455.614 Q549.385 464.341 546.306 468.947 Q543.251 473.53 537.441 473.53 Q531.63 473.53 528.552 468.947 Q525.496 464.341 525.496 455.614 Q525.496 446.864 528.552 442.281 Q531.63 437.674 537.441 437.674 Z" fill="#000000" fill-rule="nonzero" fill-opacity="1" /><path clip-path="url(#clip400)" d="M567.602 441.378 Q563.991 441.378 562.163 444.943 Q560.357 448.484 560.357 455.614 Q560.357 462.72 562.163 466.285 Q563.991 469.827 567.602 469.827 Q571.237 469.827 573.042 466.285 Q574.871 462.72 574.871 455.614 Q574.871 448.484 573.042 444.943 Q571.237 441.378 567.602 441.378 M567.602 437.674 Q573.413 437.674 576.468 442.281 Q579.547 446.864 579.547 455.614 Q579.547 464.341 576.468 468.947 Q573.413 473.53 567.602 473.53 Q561.792 473.53 558.714 468.947 Q555.658 464.341 555.658 455.614 Q555.658 446.864 558.714 442.281 Q561.792 437.674 567.602 437.674 Z" fill="#000000" fill-rule="nonzero" fill-opacity="1" /><path clip-path="url(#clip400)" d="M609.338 458.831 L609.338 460.915 L589.755 460.915 Q590.033 465.313 592.394 467.628 Q594.778 469.919 599.014 469.919 Q601.468 469.919 603.76 469.318 Q606.074 468.716 608.343 467.512 L608.343 471.54 Q606.051 472.512 603.644 473.021 Q601.237 473.53 598.76 473.53 Q592.556 473.53 588.922 469.919 Q585.311 466.308 585.311 460.151 Q585.311 453.785 588.737 450.058 Q592.186 446.308 598.019 446.308 Q603.25 446.308 606.283 449.688 Q609.338 453.044 609.338 458.831 M605.079 457.581 Q605.033 454.086 603.112 452.003 Q601.213 449.919 598.065 449.919 Q594.5 449.919 592.348 451.933 Q590.218 453.947 589.894 457.605 L605.079 457.581 Z" fill="#000000" fill-rule="nonzero" fill-opacity="1" /><path clip-path="url(#clip400)" d="M614.176 457.975 L626.653 457.975 L626.653 461.771 L614.176 461.771 L614.176 457.975 Z" fill="#000000" fill-rule="nonzero" fill-opacity="1" /><path clip-path="url(#clip400)" d="M644.037 441.378 Q640.426 441.378 638.597 444.943 Q636.792 448.484 636.792 455.614 Q636.792 462.72 638.597 466.285 Q640.426 469.827 644.037 469.827 Q647.671 469.827 649.477 466.285 Q651.306 462.72 651.306 455.614 Q651.306 448.484 649.477 444.943 Q647.671 441.378 644.037 441.378 M644.037 437.674 Q649.847 437.674 652.903 442.281 Q655.982 446.864 655.982 455.614 Q655.982 464.341 652.903 468.947 Q649.847 473.53 644.037 473.53 Q638.227 473.53 635.148 468.947 Q632.093 464.341 632.093 455.614 Q632.093 446.864 635.148 442.281 Q638.227 437.674 644.037 437.674 Z" fill="#000000" fill-rule="nonzero" fill-opacity="1" /><path clip-path="url(#clip400)" d="M665.009 468.924 L672.648 468.924 L672.648 442.558 L664.338 444.225 L664.338 439.966 L672.602 438.299 L677.278 438.299 L677.278 468.924 L684.917 468.924 L684.917 472.859 L665.009 472.859 L665.009 468.924 Z" fill="#000000" fill-rule="nonzero" fill-opacity="1" /><path clip-path="url(#clip400)" d="M314.197 528.155 L456.422 528.155 L456.422 486.683 L314.197 486.683 L314.197 528.155  Z" fill="#600101" fill-rule="evenodd" fill-opacity="1"/>
<polyline clip-path="url(#clip400)" style="stroke:#600101; stroke-linecap:round; stroke-linejoin:round; stroke-width:4; stroke-opacity:1; fill:none" points="314.197,486.683 456.422,486.683 "/>
<path clip-path="url(#clip400)" d="M480.797 520.764 L488.436 520.764 L488.436 494.398 L480.126 496.065 L480.126 491.806 L488.39 490.139 L493.066 490.139 L493.066 520.764 L500.705 520.764 L500.705 524.699 L480.797 524.699 L480.797 520.764 Z" fill="#000000" fill-rule="nonzero" fill-opacity="1" /><path clip-path="url(#clip400)" d="M510.149 518.82 L515.033 518.82 L515.033 524.699 L510.149 524.699 L510.149 518.82 Z" fill="#000000" fill-rule="nonzero" fill-opacity="1" /><path clip-path="url(#clip400)" d="M535.218 493.218 Q531.607 493.218 529.779 496.783 Q527.973 500.324 527.973 507.454 Q527.973 514.56 529.779 518.125 Q531.607 521.667 535.218 521.667 Q538.853 521.667 540.658 518.125 Q542.487 514.56 542.487 507.454 Q542.487 500.324 540.658 496.783 Q538.853 493.218 535.218 493.218 M535.218 489.514 Q541.029 489.514 544.084 494.121 Q547.163 498.704 547.163 507.454 Q547.163 516.181 544.084 520.787 Q541.029 525.37 535.218 525.37 Q529.408 525.37 526.33 520.787 Q523.274 516.181 523.274 507.454 Q523.274 498.704 526.33 494.121 Q529.408 489.514 535.218 489.514 Z" fill="#000000" fill-rule="nonzero" fill-opacity="1" /><path clip-path="url(#clip400)" d="M565.38 493.218 Q561.769 493.218 559.94 496.783 Q558.135 500.324 558.135 507.454 Q558.135 514.56 559.94 518.125 Q561.769 521.667 565.38 521.667 Q569.014 521.667 570.82 518.125 Q572.649 514.56 572.649 507.454 Q572.649 500.324 570.82 496.783 Q569.014 493.218 565.38 493.218 M565.38 489.514 Q571.19 489.514 574.246 494.121 Q577.325 498.704 577.325 507.454 Q577.325 516.181 574.246 520.787 Q571.19 525.37 565.38 525.37 Q559.57 525.37 556.491 520.787 Q553.436 516.181 553.436 507.454 Q553.436 498.704 556.491 494.121 Q559.57 489.514 565.38 489.514 Z" fill="#000000" fill-rule="nonzero" fill-opacity="1" /><path clip-path="url(#clip400)" d="M607.116 510.671 L607.116 512.755 L587.533 512.755 Q587.811 517.153 590.172 519.468 Q592.556 521.759 596.792 521.759 Q599.246 521.759 601.537 521.158 Q603.852 520.556 606.121 519.352 L606.121 523.38 Q603.829 524.352 601.422 524.861 Q599.014 525.37 596.537 525.37 Q590.334 525.37 586.7 521.759 Q583.088 518.148 583.088 511.991 Q583.088 505.625 586.514 501.898 Q589.963 498.148 595.797 498.148 Q601.028 498.148 604.061 501.528 Q607.116 504.884 607.116 510.671 M602.857 509.421 Q602.811 505.926 600.889 503.843 Q598.991 501.759 595.843 501.759 Q592.278 501.759 590.125 503.773 Q587.996 505.787 587.672 509.445 L602.857 509.421 Z" fill="#000000" fill-rule="nonzero" fill-opacity="1" /><path clip-path="url(#clip400)" d="M631.445 494.977 L631.445 507.871 L644.338 507.871 L644.338 511.806 L631.445 511.806 L631.445 524.699 L627.556 524.699 L627.556 511.806 L614.662 511.806 L614.662 507.871 L627.556 507.871 L627.556 494.977 L631.445 494.977 Z" fill="#000000" fill-rule="nonzero" fill-opacity="1" /><path clip-path="url(#clip400)" d="M664.431 493.218 Q660.82 493.218 658.991 496.783 Q657.185 500.324 657.185 507.454 Q657.185 514.56 658.991 518.125 Q660.82 521.667 664.431 521.667 Q668.065 521.667 669.87 518.125 Q671.699 514.56 671.699 507.454 Q671.699 500.324 669.87 496.783 Q668.065 493.218 664.431 493.218 M664.431 489.514 Q670.241 489.514 673.296 494.121 Q676.375 498.704 676.375 507.454 Q676.375 516.181 673.296 520.787 Q670.241 525.37 664.431 525.37 Q658.62 525.37 655.542 520.787 Q652.486 516.181 652.486 507.454 Q652.486 498.704 655.542 494.121 Q658.62 489.514 664.431 489.514 Z" fill="#000000" fill-rule="nonzero" fill-opacity="1" /><path clip-path="url(#clip400)" d="M694.593 493.218 Q690.981 493.218 689.153 496.783 Q687.347 500.324 687.347 507.454 Q687.347 514.56 689.153 518.125 Q690.981 521.667 694.593 521.667 Q698.227 521.667 700.032 518.125 Q701.861 514.56 701.861 507.454 Q701.861 500.324 700.032 496.783 Q698.227 493.218 694.593 493.218 M694.593 489.514 Q700.403 489.514 703.458 494.121 Q706.537 498.704 706.537 507.454 Q706.537 516.181 703.458 520.787 Q700.403 525.37 694.593 525.37 Q688.782 525.37 685.704 520.787 Q682.648 516.181 682.648 507.454 Q682.648 498.704 685.704 494.121 Q688.782 489.514 694.593 489.514 Z" fill="#000000" fill-rule="nonzero" fill-opacity="1" /></svg>
