<?xml version="1.0" encoding="utf-8"?>
<svg xmlns="http://www.w3.org/2000/svg" xmlns:xlink="http://www.w3.org/1999/xlink" width="600" height="400" viewBox="0 0 2400 1600">
<defs>
  <clipPath id="clip220">
    <rect x="0" y="0" width="2400" height="1600"/>
  </clipPath>
</defs>
<path clip-path="url(#clip220)" d="M0 1600 L2400 1600 L2400 0 L0 0  Z" fill="#ffffff" fill-rule="evenodd" fill-opacity="1"/>
<defs>
  <clipPath id="clip221">
    <rect x="480" y="0" width="1681" height="1600"/>
  </clipPath>
</defs>
<path clip-path="url(#clip220)" d="M219.38 1410.9 L2352.76 1410.9 L2352.76 47.2441 L219.38 47.2441  Z" fill="#ffffff" fill-rule="evenodd" fill-opacity="1"/>
<defs>
  <clipPath id="clip222">
    <rect x="219" y="47" width="2134" height="1365"/>
  </clipPath>
</defs>
<polyline clip-path="url(#clip222)" style="stroke:#000000; stroke-linecap:round; stroke-linejoin:round; stroke-width:2; stroke-opacity:0.1; fill:none" points="279.759,1410.9 279.759,47.2441 "/>
<polyline clip-path="url(#clip222)" style="stroke:#000000; stroke-linecap:round; stroke-linejoin:round; stroke-width:2; stroke-opacity:0.1; fill:none" points="1537.65,1410.9 1537.65,47.2441 "/>
<polyline clip-path="url(#clip220)" style="stroke:#000000; stroke-linecap:round; stroke-linejoin:round; stroke-width:4; stroke-opacity:1; fill:none" points="219.38,1410.9 2352.76,1410.9 "/>
<polyline clip-path="url(#clip220)" style="stroke:#000000; stroke-linecap:round; stroke-linejoin:round; stroke-width:4; stroke-opacity:1; fill:none" points="279.759,1410.9 279.759,1392 "/>
<polyline clip-path="url(#clip220)" style="stroke:#000000; stroke-linecap:round; stroke-linejoin:round; stroke-width:4; stroke-opacity:1; fill:none" points="1537.65,1410.9 1537.65,1392 "/>
<path clip-path="url(#clip220)" d="M217.122 1485.02 L224.761 1485.02 L224.761 1458.66 L216.451 1460.32 L216.451 1456.06 L224.715 1454.4 L229.391 1454.4 L229.391 1485.02 L237.03 1485.02 L237.03 1488.96 L217.122 1488.96 L217.122 1485.02 Z" fill="#000000" fill-rule="nonzero" fill-opacity="1" /><path clip-path="url(#clip220)" d="M256.474 1457.48 Q252.863 1457.48 251.034 1461.04 Q249.229 1464.58 249.229 1471.71 Q249.229 1478.82 251.034 1482.38 Q252.863 1485.92 256.474 1485.92 Q260.108 1485.92 261.914 1482.38 Q263.742 1478.82 263.742 1471.71 Q263.742 1464.58 261.914 1461.04 Q260.108 1457.48 256.474 1457.48 M256.474 1453.77 Q262.284 1453.77 265.34 1458.38 Q268.418 1462.96 268.418 1471.71 Q268.418 1480.44 265.34 1485.04 Q262.284 1489.63 256.474 1489.63 Q250.664 1489.63 247.585 1485.04 Q244.53 1480.44 244.53 1471.71 Q244.53 1462.96 247.585 1458.38 Q250.664 1453.77 256.474 1453.77 Z" fill="#000000" fill-rule="nonzero" fill-opacity="1" /><path clip-path="url(#clip220)" d="M268.418 1447.87 L292.53 1447.87 L292.53 1451.07 L268.418 1451.07 L268.418 1447.87 Z" fill="#000000" fill-rule="nonzero" fill-opacity="1" /><path clip-path="url(#clip220)" d="M301.388 1458.35 L307.595 1458.35 L307.595 1436.93 L300.843 1438.28 L300.843 1434.82 L307.557 1433.47 L311.356 1433.47 L311.356 1458.35 L317.563 1458.35 L317.563 1461.55 L301.388 1461.55 L301.388 1458.35 Z" fill="#000000" fill-rule="nonzero" fill-opacity="1" /><path clip-path="url(#clip220)" d="M333.362 1435.97 Q330.428 1435.97 328.942 1438.86 Q327.475 1441.74 327.475 1447.53 Q327.475 1453.31 328.942 1456.2 Q330.428 1459.08 333.362 1459.08 Q336.314 1459.08 337.781 1456.2 Q339.267 1453.31 339.267 1447.53 Q339.267 1441.74 337.781 1438.86 Q336.314 1435.97 333.362 1435.97 M333.362 1432.96 Q338.082 1432.96 340.565 1436.7 Q343.066 1440.43 343.066 1447.53 Q343.066 1454.62 340.565 1458.37 Q338.082 1462.09 333.362 1462.09 Q328.641 1462.09 326.139 1458.37 Q323.657 1454.62 323.657 1447.53 Q323.657 1440.43 326.139 1436.7 Q328.641 1432.96 333.362 1432.96 Z" fill="#000000" fill-rule="nonzero" fill-opacity="1" /><path clip-path="url(#clip220)" d="M1487.67 1485.02 L1495.31 1485.02 L1495.31 1458.66 L1487 1460.32 L1487 1456.06 L1495.26 1454.4 L1499.94 1454.4 L1499.94 1485.02 L1507.57 1485.02 L1507.57 1488.96 L1487.67 1488.96 L1487.67 1485.02 Z" fill="#000000" fill-rule="nonzero" fill-opacity="1" /><path clip-path="url(#clip220)" d="M1527.02 1457.48 Q1523.41 1457.48 1521.58 1461.04 Q1519.77 1464.58 1519.77 1471.71 Q1519.77 1478.82 1521.58 1482.38 Q1523.41 1485.92 1527.02 1485.92 Q1530.65 1485.92 1532.46 1482.38 Q1534.29 1478.82 1534.29 1471.71 Q1534.29 1464.58 1532.46 1461.04 Q1530.65 1457.48 1527.02 1457.48 M1527.02 1453.77 Q1532.83 1453.77 1535.88 1458.38 Q1538.96 1462.96 1538.96 1471.71 Q1538.96 1480.44 1535.88 1485.04 Q1532.83 1489.63 1527.02 1489.63 Q1521.21 1489.63 1518.13 1485.04 Q1515.07 1480.44 1515.07 1471.71 Q1515.07 1462.96 1518.13 1458.38 Q1521.21 1453.77 1527.02 1453.77 Z" fill="#000000" fill-rule="nonzero" fill-opacity="1" /><path clip-path="url(#clip220)" d="M1538.96 1447.87 L1563.07 1447.87 L1563.07 1451.07 L1538.96 1451.07 L1538.96 1447.87 Z" fill="#000000" fill-rule="nonzero" fill-opacity="1" /><path clip-path="url(#clip220)" d="M1571.31 1433.47 L1586.23 1433.47 L1586.23 1436.66 L1574.79 1436.66 L1574.79 1443.55 Q1575.62 1443.27 1576.45 1443.13 Q1577.27 1442.98 1578.1 1442.98 Q1582.8 1442.98 1585.55 1445.56 Q1588.3 1448.14 1588.3 1452.54 Q1588.3 1457.07 1585.47 1459.59 Q1582.65 1462.09 1577.52 1462.09 Q1575.75 1462.09 1573.91 1461.79 Q1572.08 1461.49 1570.13 1460.89 L1570.13 1457.07 Q1571.82 1457.99 1573.63 1458.44 Q1575.43 1458.89 1577.44 1458.89 Q1580.7 1458.89 1582.6 1457.18 Q1584.5 1455.47 1584.5 1452.54 Q1584.5 1449.6 1582.6 1447.89 Q1580.7 1446.18 1577.44 1446.18 Q1575.92 1446.18 1574.4 1446.52 Q1572.89 1446.86 1571.31 1447.57 L1571.31 1433.47 Z" fill="#000000" fill-rule="nonzero" fill-opacity="1" /><path clip-path="url(#clip220)" d="M1093.11 1539.91 L1093.11 1545.38 Q1090.62 1544.01 1088.11 1543.34 Q1085.63 1542.64 1083.08 1542.64 Q1077.38 1542.64 1074.23 1546.27 Q1071.08 1549.87 1071.08 1556.39 Q1071.08 1562.92 1074.23 1566.55 Q1077.38 1570.14 1083.08 1570.14 Q1085.63 1570.14 1088.11 1569.47 Q1090.62 1568.77 1093.11 1567.41 L1093.11 1572.82 Q1090.66 1573.96 1088.01 1574.54 Q1085.41 1575.11 1082.44 1575.11 Q1074.39 1575.11 1069.65 1570.05 Q1064.91 1564.99 1064.91 1556.39 Q1064.91 1547.67 1069.68 1542.68 Q1074.49 1537.68 1082.83 1537.68 Q1085.53 1537.68 1088.11 1538.25 Q1090.69 1538.79 1093.11 1539.91 Z" fill="#000000" fill-rule="nonzero" fill-opacity="1" /><path clip-path="url(#clip220)" d="M1117.11 1542.64 Q1112.4 1542.64 1109.66 1546.34 Q1106.92 1550 1106.92 1556.39 Q1106.92 1562.79 1109.63 1566.48 Q1112.36 1570.14 1117.11 1570.14 Q1121.79 1570.14 1124.52 1566.45 Q1127.26 1562.76 1127.26 1556.39 Q1127.26 1550.06 1124.52 1546.37 Q1121.79 1542.64 1117.11 1542.64 M1117.11 1537.68 Q1124.75 1537.68 1129.11 1542.64 Q1133.47 1547.61 1133.47 1556.39 Q1133.47 1565.15 1129.11 1570.14 Q1124.75 1575.11 1117.11 1575.11 Q1109.44 1575.11 1105.08 1570.14 Q1100.75 1565.15 1100.75 1556.39 Q1100.75 1547.61 1105.08 1542.64 Q1109.44 1537.68 1117.11 1537.68 Z" fill="#000000" fill-rule="nonzero" fill-opacity="1" /><path clip-path="url(#clip220)" d="M1172.81 1552.67 L1172.81 1574.19 L1166.95 1574.19 L1166.95 1552.86 Q1166.95 1547.8 1164.98 1545.29 Q1163 1542.77 1159.06 1542.77 Q1154.31 1542.77 1151.58 1545.79 Q1148.84 1548.82 1148.84 1554.04 L1148.84 1574.19 L1142.95 1574.19 L1142.95 1538.54 L1148.84 1538.54 L1148.84 1544.08 Q1150.94 1540.86 1153.77 1539.27 Q1156.64 1537.68 1160.36 1537.68 Q1166.5 1537.68 1169.66 1541.5 Q1172.81 1545.29 1172.81 1552.67 Z" fill="#000000" fill-rule="nonzero" fill-opacity="1" /><path clip-path="url(#clip220)" d="M1210.14 1539.91 L1210.14 1545.38 Q1207.66 1544.01 1205.14 1543.34 Q1202.66 1542.64 1200.12 1542.64 Q1194.42 1542.64 1191.27 1546.27 Q1188.12 1549.87 1188.12 1556.39 Q1188.12 1562.92 1191.27 1566.55 Q1194.42 1570.14 1200.12 1570.14 Q1202.66 1570.14 1205.14 1569.47 Q1207.66 1568.77 1210.14 1567.41 L1210.14 1572.82 Q1207.69 1573.96 1205.05 1574.54 Q1202.44 1575.11 1199.48 1575.11 Q1191.43 1575.11 1186.68 1570.05 Q1181.94 1564.99 1181.94 1556.39 Q1181.94 1547.67 1186.72 1542.68 Q1191.52 1537.68 1199.86 1537.68 Q1202.57 1537.68 1205.14 1538.25 Q1207.72 1538.79 1210.14 1539.91 Z" fill="#000000" fill-rule="nonzero" fill-opacity="1" /><path clip-path="url(#clip220)" d="M1250.82 1554.9 L1250.82 1557.76 L1223.89 1557.76 Q1224.27 1563.81 1227.52 1566.99 Q1230.8 1570.14 1236.62 1570.14 Q1240 1570.14 1243.15 1569.32 Q1246.33 1568.49 1249.45 1566.83 L1249.45 1572.37 Q1246.3 1573.71 1242.99 1574.41 Q1239.68 1575.11 1236.27 1575.11 Q1227.74 1575.11 1222.75 1570.14 Q1217.78 1565.18 1217.78 1556.71 Q1217.78 1547.96 1222.49 1542.83 Q1227.23 1537.68 1235.25 1537.68 Q1242.45 1537.68 1246.62 1542.33 Q1250.82 1546.94 1250.82 1554.9 M1244.96 1553.18 Q1244.9 1548.37 1242.26 1545.51 Q1239.65 1542.64 1235.32 1542.64 Q1230.42 1542.64 1227.46 1545.41 Q1224.53 1548.18 1224.08 1553.21 L1244.96 1553.18 Z" fill="#000000" fill-rule="nonzero" fill-opacity="1" /><path clip-path="url(#clip220)" d="M1290.06 1552.67 L1290.06 1574.19 L1284.21 1574.19 L1284.21 1552.86 Q1284.21 1547.8 1282.23 1545.29 Q1280.26 1542.77 1276.31 1542.77 Q1271.57 1542.77 1268.83 1545.79 Q1266.1 1548.82 1266.1 1554.04 L1266.1 1574.19 L1260.21 1574.19 L1260.21 1538.54 L1266.1 1538.54 L1266.1 1544.08 Q1268.2 1540.86 1271.03 1539.27 Q1273.89 1537.68 1277.62 1537.68 Q1283.76 1537.68 1286.91 1541.5 Q1290.06 1545.29 1290.06 1552.67 Z" fill="#000000" fill-rule="nonzero" fill-opacity="1" /><path clip-path="url(#clip220)" d="M1307.54 1528.42 L1307.54 1538.54 L1319.6 1538.54 L1319.6 1543.09 L1307.54 1543.09 L1307.54 1562.44 Q1307.54 1566.8 1308.71 1568.04 Q1309.92 1569.28 1313.58 1569.28 L1319.6 1569.28 L1319.6 1574.19 L1313.58 1574.19 Q1306.8 1574.19 1304.23 1571.67 Q1301.65 1569.12 1301.65 1562.44 L1301.65 1543.09 L1297.35 1543.09 L1297.35 1538.54 L1301.65 1538.54 L1301.65 1528.42 L1307.54 1528.42 Z" fill="#000000" fill-rule="nonzero" fill-opacity="1" /><path clip-path="url(#clip220)" d="M1347.96 1544.01 Q1346.97 1543.44 1345.79 1543.18 Q1344.65 1542.9 1343.25 1542.9 Q1338.28 1542.9 1335.61 1546.14 Q1332.97 1549.36 1332.97 1555.41 L1332.97 1574.19 L1327.08 1574.19 L1327.08 1538.54 L1332.97 1538.54 L1332.97 1544.08 Q1334.81 1540.83 1337.77 1539.27 Q1340.73 1537.68 1344.97 1537.68 Q1345.57 1537.68 1346.3 1537.77 Q1347.04 1537.84 1347.93 1538 L1347.96 1544.01 Z" fill="#000000" fill-rule="nonzero" fill-opacity="1" /><path clip-path="url(#clip220)" d="M1370.3 1556.27 Q1363.2 1556.27 1360.47 1557.89 Q1357.73 1559.51 1357.73 1563.43 Q1357.73 1566.55 1359.77 1568.39 Q1361.84 1570.21 1365.37 1570.21 Q1370.24 1570.21 1373.17 1566.77 Q1376.13 1563.3 1376.13 1557.57 L1376.13 1556.27 L1370.3 1556.27 M1381.98 1553.85 L1381.98 1574.19 L1376.13 1574.19 L1376.13 1568.77 Q1374.12 1572.02 1371.13 1573.58 Q1368.14 1575.11 1363.81 1575.11 Q1358.33 1575.11 1355.09 1572.05 Q1351.87 1568.97 1351.87 1563.81 Q1351.87 1557.79 1355.88 1554.74 Q1359.93 1551.68 1367.92 1551.68 L1376.13 1551.68 L1376.13 1551.11 Q1376.13 1547.07 1373.45 1544.87 Q1370.81 1542.64 1366.01 1542.64 Q1362.95 1542.64 1360.05 1543.38 Q1357.16 1544.11 1354.48 1545.57 L1354.48 1540.16 Q1357.7 1538.92 1360.72 1538.31 Q1363.75 1537.68 1366.61 1537.68 Q1374.34 1537.68 1378.16 1541.69 Q1381.98 1545.7 1381.98 1553.85 Z" fill="#000000" fill-rule="nonzero" fill-opacity="1" /><path clip-path="url(#clip220)" d="M1399.84 1528.42 L1399.84 1538.54 L1411.9 1538.54 L1411.9 1543.09 L1399.84 1543.09 L1399.84 1562.44 Q1399.84 1566.8 1401.02 1568.04 Q1402.23 1569.28 1405.89 1569.28 L1411.9 1569.28 L1411.9 1574.19 L1405.89 1574.19 Q1399.11 1574.19 1396.53 1571.67 Q1393.95 1569.12 1393.95 1562.44 L1393.95 1543.09 L1389.65 1543.09 L1389.65 1538.54 L1393.95 1538.54 L1393.95 1528.42 L1399.84 1528.42 Z" fill="#000000" fill-rule="nonzero" fill-opacity="1" /><path clip-path="url(#clip220)" d="M1419.6 1538.54 L1425.46 1538.54 L1425.46 1574.19 L1419.6 1574.19 L1419.6 1538.54 M1419.6 1524.66 L1425.46 1524.66 L1425.46 1532.08 L1419.6 1532.08 L1419.6 1524.66 Z" fill="#000000" fill-rule="nonzero" fill-opacity="1" /><path clip-path="url(#clip220)" d="M1451.53 1542.64 Q1446.82 1542.64 1444.08 1546.34 Q1441.34 1550 1441.34 1556.39 Q1441.34 1562.79 1444.05 1566.48 Q1446.79 1570.14 1451.53 1570.14 Q1456.21 1570.14 1458.94 1566.45 Q1461.68 1562.76 1461.68 1556.39 Q1461.68 1550.06 1458.94 1546.37 Q1456.21 1542.64 1451.53 1542.64 M1451.53 1537.68 Q1459.17 1537.68 1463.53 1542.64 Q1467.89 1547.61 1467.89 1556.39 Q1467.89 1565.15 1463.53 1570.14 Q1459.17 1575.11 1451.53 1575.11 Q1443.86 1575.11 1439.5 1570.14 Q1435.17 1565.15 1435.17 1556.39 Q1435.17 1547.61 1439.5 1542.64 Q1443.86 1537.68 1451.53 1537.68 Z" fill="#000000" fill-rule="nonzero" fill-opacity="1" /><path clip-path="url(#clip220)" d="M1507.23 1552.67 L1507.23 1574.19 L1501.37 1574.19 L1501.37 1552.86 Q1501.37 1547.8 1499.4 1545.29 Q1497.43 1542.77 1493.48 1542.77 Q1488.74 1542.77 1486 1545.79 Q1483.26 1548.82 1483.26 1554.04 L1483.26 1574.19 L1477.37 1574.19 L1477.37 1538.54 L1483.26 1538.54 L1483.26 1544.08 Q1485.36 1540.86 1488.2 1539.27 Q1491.06 1537.68 1494.78 1537.68 Q1500.93 1537.68 1504.08 1541.5 Q1507.23 1545.29 1507.23 1552.67 Z" fill="#000000" fill-rule="nonzero" fill-opacity="1" /><polyline clip-path="url(#clip222)" style="stroke:#000000; stroke-linecap:round; stroke-linejoin:round; stroke-width:2; stroke-opacity:0.1; fill:none" points="219.38,1372.4 2352.76,1372.4 "/>
<polyline clip-path="url(#clip222)" style="stroke:#000000; stroke-linecap:round; stroke-linejoin:round; stroke-width:2; stroke-opacity:0.1; fill:none" points="219.38,1121.85 2352.76,1121.85 "/>
<polyline clip-path="url(#clip222)" style="stroke:#000000; stroke-linecap:round; stroke-linejoin:round; stroke-width:2; stroke-opacity:0.1; fill:none" points="219.38,871.295 2352.76,871.295 "/>
<polyline clip-path="url(#clip222)" style="stroke:#000000; stroke-linecap:round; stroke-linejoin:round; stroke-width:2; stroke-opacity:0.1; fill:none" points="219.38,620.741 2352.76,620.741 "/>
<polyline clip-path="url(#clip222)" style="stroke:#000000; stroke-linecap:round; stroke-linejoin:round; stroke-width:2; stroke-opacity:0.1; fill:none" points="219.38,370.188 2352.76,370.188 "/>
<polyline clip-path="url(#clip222)" style="stroke:#000000; stroke-linecap:round; stroke-linejoin:round; stroke-width:2; stroke-opacity:0.1; fill:none" points="219.38,119.634 2352.76,119.634 "/>
<polyline clip-path="url(#clip220)" style="stroke:#000000; stroke-linecap:round; stroke-linejoin:round; stroke-width:4; stroke-opacity:1; fill:none" points="219.38,1410.9 219.38,47.2441 "/>
<polyline clip-path="url(#clip220)" style="stroke:#000000; stroke-linecap:round; stroke-linejoin:round; stroke-width:4; stroke-opacity:1; fill:none" points="219.38,1372.4 238.278,1372.4 "/>
<polyline clip-path="url(#clip220)" style="stroke:#000000; stroke-linecap:round; stroke-linejoin:round; stroke-width:4; stroke-opacity:1; fill:none" points="219.38,1121.85 238.278,1121.85 "/>
<polyline clip-path="url(#clip220)" style="stroke:#000000; stroke-linecap:round; stroke-linejoin:round; stroke-width:4; stroke-opacity:1; fill:none" points="219.38,871.295 238.278,871.295 "/>
<polyline clip-path="url(#clip220)" style="stroke:#000000; stroke-linecap:round; stroke-linejoin:round; stroke-width:4; stroke-opacity:1; fill:none" points="219.38,620.741 238.278,620.741 "/>
<polyline clip-path="url(#clip220)" style="stroke:#000000; stroke-linecap:round; stroke-linejoin:round; stroke-width:4; stroke-opacity:1; fill:none" points="219.38,370.188 238.278,370.188 "/>
<polyline clip-path="url(#clip220)" style="stroke:#000000; stroke-linecap:round; stroke-linejoin:round; stroke-width:4; stroke-opacity:1; fill:none" points="219.38,119.634 238.278,119.634 "/>
<path clip-path="url(#clip220)" d="M126.205 1358.2 Q122.593 1358.2 120.765 1361.77 Q118.959 1365.31 118.959 1372.44 Q118.959 1379.54 120.765 1383.11 Q122.593 1386.65 126.205 1386.65 Q129.839 1386.65 131.644 1383.11 Q133.473 1379.54 133.473 1372.44 Q133.473 1365.31 131.644 1361.77 Q129.839 1358.2 126.205 1358.2 M126.205 1354.5 Q132.015 1354.5 135.07 1359.1 Q138.149 1363.69 138.149 1372.44 Q138.149 1381.16 135.07 1385.77 Q132.015 1390.35 126.205 1390.35 Q120.394 1390.35 117.316 1385.77 Q114.26 1381.16 114.26 1372.44 Q114.26 1363.69 117.316 1359.1 Q120.394 1354.5 126.205 1354.5 Z" fill="#000000" fill-rule="nonzero" fill-opacity="1" /><path clip-path="url(#clip220)" d="M146.366 1383.8 L151.251 1383.8 L151.251 1389.68 L146.366 1389.68 L146.366 1383.8 Z" fill="#000000" fill-rule="nonzero" fill-opacity="1" /><path clip-path="url(#clip220)" d="M171.436 1358.2 Q167.825 1358.2 165.996 1361.77 Q164.19 1365.31 164.19 1372.44 Q164.19 1379.54 165.996 1383.11 Q167.825 1386.65 171.436 1386.65 Q175.07 1386.65 176.876 1383.11 Q178.704 1379.54 178.704 1372.44 Q178.704 1365.31 176.876 1361.77 Q175.07 1358.2 171.436 1358.2 M171.436 1354.5 Q177.246 1354.5 180.301 1359.1 Q183.38 1363.69 183.38 1372.44 Q183.38 1381.16 180.301 1385.77 Q177.246 1390.35 171.436 1390.35 Q165.626 1390.35 162.547 1385.77 Q159.491 1381.16 159.491 1372.44 Q159.491 1363.69 162.547 1359.1 Q165.626 1354.5 171.436 1354.5 Z" fill="#000000" fill-rule="nonzero" fill-opacity="1" /><path clip-path="url(#clip220)" d="M127.2 1107.65 Q123.589 1107.65 121.76 1111.21 Q119.955 1114.75 119.955 1121.88 Q119.955 1128.99 121.76 1132.55 Q123.589 1136.1 127.2 1136.1 Q130.834 1136.1 132.64 1132.55 Q134.468 1128.99 134.468 1121.88 Q134.468 1114.75 132.64 1111.21 Q130.834 1107.65 127.2 1107.65 M127.2 1103.94 Q133.01 1103.94 136.066 1108.55 Q139.144 1113.13 139.144 1121.88 Q139.144 1130.61 136.066 1135.22 Q133.01 1139.8 127.2 1139.8 Q121.39 1139.8 118.311 1135.22 Q115.256 1130.61 115.256 1121.88 Q115.256 1113.13 118.311 1108.55 Q121.39 1103.94 127.2 1103.94 Z" fill="#000000" fill-rule="nonzero" fill-opacity="1" /><path clip-path="url(#clip220)" d="M147.362 1133.25 L152.246 1133.25 L152.246 1139.13 L147.362 1139.13 L147.362 1133.25 Z" fill="#000000" fill-rule="nonzero" fill-opacity="1" /><path clip-path="url(#clip220)" d="M162.477 1104.57 L180.834 1104.57 L180.834 1108.5 L166.76 1108.5 L166.76 1116.98 Q167.778 1116.63 168.797 1116.47 Q169.815 1116.28 170.834 1116.28 Q176.621 1116.28 180.001 1119.45 Q183.38 1122.62 183.38 1128.04 Q183.38 1133.62 179.908 1136.72 Q176.436 1139.8 170.116 1139.8 Q167.94 1139.8 165.672 1139.43 Q163.427 1139.06 161.019 1138.32 L161.019 1133.62 Q163.102 1134.75 165.325 1135.31 Q167.547 1135.86 170.024 1135.86 Q174.028 1135.86 176.366 1133.76 Q178.704 1131.65 178.704 1128.04 Q178.704 1124.43 176.366 1122.32 Q174.028 1120.22 170.024 1120.22 Q168.149 1120.22 166.274 1120.63 Q164.422 1121.05 162.477 1121.93 L162.477 1104.57 Z" fill="#000000" fill-rule="nonzero" fill-opacity="1" /><path clip-path="url(#clip220)" d="M117.015 884.64 L124.654 884.64 L124.654 858.274 L116.343 859.941 L116.343 855.682 L124.607 854.015 L129.283 854.015 L129.283 884.64 L136.922 884.64 L136.922 888.575 L117.015 888.575 L117.015 884.64 Z" fill="#000000" fill-rule="nonzero" fill-opacity="1" /><path clip-path="url(#clip220)" d="M146.366 882.695 L151.251 882.695 L151.251 888.575 L146.366 888.575 L146.366 882.695 Z" fill="#000000" fill-rule="nonzero" fill-opacity="1" /><path clip-path="url(#clip220)" d="M171.436 857.094 Q167.825 857.094 165.996 860.658 Q164.19 864.2 164.19 871.33 Q164.19 878.436 165.996 882.001 Q167.825 885.543 171.436 885.543 Q175.07 885.543 176.876 882.001 Q178.704 878.436 178.704 871.33 Q178.704 864.2 176.876 860.658 Q175.07 857.094 171.436 857.094 M171.436 853.39 Q177.246 853.39 180.301 857.996 Q183.38 862.58 183.38 871.33 Q183.38 880.056 180.301 884.663 Q177.246 889.246 171.436 889.246 Q165.626 889.246 162.547 884.663 Q159.491 880.056 159.491 871.33 Q159.491 862.58 162.547 857.996 Q165.626 853.39 171.436 853.39 Z" fill="#000000" fill-rule="nonzero" fill-opacity="1" /><path clip-path="url(#clip220)" d="M118.01 634.086 L125.649 634.086 L125.649 607.72 L117.339 609.387 L117.339 605.128 L125.603 603.461 L130.279 603.461 L130.279 634.086 L137.917 634.086 L137.917 638.021 L118.01 638.021 L118.01 634.086 Z" fill="#000000" fill-rule="nonzero" fill-opacity="1" /><path clip-path="url(#clip220)" d="M147.362 632.142 L152.246 632.142 L152.246 638.021 L147.362 638.021 L147.362 632.142 Z" fill="#000000" fill-rule="nonzero" fill-opacity="1" /><path clip-path="url(#clip220)" d="M162.477 603.461 L180.834 603.461 L180.834 607.396 L166.76 607.396 L166.76 615.869 Q167.778 615.521 168.797 615.359 Q169.815 615.174 170.834 615.174 Q176.621 615.174 180.001 618.345 Q183.38 621.517 183.38 626.933 Q183.38 632.512 179.908 635.614 Q176.436 638.693 170.116 638.693 Q167.94 638.693 165.672 638.322 Q163.427 637.952 161.019 637.211 L161.019 632.512 Q163.102 633.646 165.325 634.202 Q167.547 634.757 170.024 634.757 Q174.028 634.757 176.366 632.651 Q178.704 630.544 178.704 626.933 Q178.704 623.322 176.366 621.216 Q174.028 619.109 170.024 619.109 Q168.149 619.109 166.274 619.526 Q164.422 619.943 162.477 620.822 L162.477 603.461 Z" fill="#000000" fill-rule="nonzero" fill-opacity="1" /><path clip-path="url(#clip220)" d="M120.232 383.532 L136.552 383.532 L136.552 387.468 L114.607 387.468 L114.607 383.532 Q117.269 380.778 121.853 376.148 Q126.459 371.495 127.64 370.153 Q129.885 367.63 130.765 365.894 Q131.667 364.134 131.667 362.445 Q131.667 359.69 129.723 357.954 Q127.802 356.218 124.7 356.218 Q122.501 356.218 120.047 356.982 Q117.617 357.745 114.839 359.296 L114.839 354.574 Q117.663 353.44 120.117 352.861 Q122.57 352.283 124.607 352.283 Q129.978 352.283 133.172 354.968 Q136.367 357.653 136.367 362.144 Q136.367 364.273 135.556 366.195 Q134.769 368.093 132.663 370.685 Q132.084 371.357 128.982 374.574 Q125.88 377.769 120.232 383.532 Z" fill="#000000" fill-rule="nonzero" fill-opacity="1" /><path clip-path="url(#clip220)" d="M146.366 381.588 L151.251 381.588 L151.251 387.468 L146.366 387.468 L146.366 381.588 Z" fill="#000000" fill-rule="nonzero" fill-opacity="1" /><path clip-path="url(#clip220)" d="M171.436 355.986 Q167.825 355.986 165.996 359.551 Q164.19 363.093 164.19 370.222 Q164.19 377.329 165.996 380.893 Q167.825 384.435 171.436 384.435 Q175.07 384.435 176.876 380.893 Q178.704 377.329 178.704 370.222 Q178.704 363.093 176.876 359.551 Q175.07 355.986 171.436 355.986 M171.436 352.283 Q177.246 352.283 180.301 356.889 Q183.38 361.472 183.38 370.222 Q183.38 378.949 180.301 383.556 Q177.246 388.139 171.436 388.139 Q165.626 388.139 162.547 383.556 Q159.491 378.949 159.491 370.222 Q159.491 361.472 162.547 356.889 Q165.626 352.283 171.436 352.283 Z" fill="#000000" fill-rule="nonzero" fill-opacity="1" /><path clip-path="url(#clip220)" d="M121.228 132.979 L137.547 132.979 L137.547 136.914 L115.603 136.914 L115.603 132.979 Q118.265 130.224 122.848 125.594 Q127.455 120.942 128.635 119.599 Q130.88 117.076 131.76 115.34 Q132.663 113.581 132.663 111.891 Q132.663 109.136 130.718 107.4 Q128.797 105.664 125.695 105.664 Q123.496 105.664 121.043 106.428 Q118.612 107.192 115.834 108.743 L115.834 104.02 Q118.658 102.886 121.112 102.308 Q123.566 101.729 125.603 101.729 Q130.973 101.729 134.167 104.414 Q137.362 107.099 137.362 111.59 Q137.362 113.72 136.552 115.641 Q135.765 117.539 133.658 120.132 Q133.08 120.803 129.978 124.02 Q126.876 127.215 121.228 132.979 Z" fill="#000000" fill-rule="nonzero" fill-opacity="1" /><path clip-path="url(#clip220)" d="M147.362 131.034 L152.246 131.034 L152.246 136.914 L147.362 136.914 L147.362 131.034 Z" fill="#000000" fill-rule="nonzero" fill-opacity="1" /><path clip-path="url(#clip220)" d="M162.477 102.354 L180.834 102.354 L180.834 106.289 L166.76 106.289 L166.76 114.761 Q167.778 114.414 168.797 114.252 Q169.815 114.067 170.834 114.067 Q176.621 114.067 180.001 117.238 Q183.38 120.409 183.38 125.826 Q183.38 131.405 179.908 134.506 Q176.436 137.585 170.116 137.585 Q167.94 137.585 165.672 137.215 Q163.427 136.844 161.019 136.104 L161.019 131.405 Q163.102 132.539 165.325 133.094 Q167.547 133.65 170.024 133.65 Q174.028 133.65 176.366 131.543 Q178.704 129.437 178.704 125.826 Q178.704 122.215 176.366 120.108 Q174.028 118.002 170.024 118.002 Q168.149 118.002 166.274 118.419 Q164.422 118.835 162.477 119.715 L162.477 102.354 Z" fill="#000000" fill-rule="nonzero" fill-opacity="1" /><path clip-path="url(#clip220)" d="M33.8307 851.531 Q33.2578 852.517 33.0032 853.695 Q32.7167 854.841 32.7167 856.241 Q32.7167 861.207 35.9632 863.88 Q39.1779 866.522 45.2253 866.522 L64.0042 866.522 L64.0042 872.41 L28.3562 872.41 L28.3562 866.522 L33.8944 866.522 Q30.6479 864.676 29.0883 861.716 Q27.4968 858.756 27.4968 854.523 Q27.4968 853.918 27.5923 853.186 Q27.656 852.454 27.8151 851.562 L33.8307 851.531 Z" fill="#000000" fill-rule="nonzero" fill-opacity="1" /><path clip-path="url(#clip220)" d="M44.7161 816.328 L47.5806 816.328 L47.5806 843.255 Q53.6281 842.873 56.8109 839.627 Q59.9619 836.348 59.9619 830.524 Q59.9619 827.15 59.1344 823.999 Q58.3069 820.816 56.6518 817.697 L62.1899 817.697 Q63.5267 820.848 64.227 824.158 Q64.9272 827.468 64.9272 830.874 Q64.9272 839.404 59.9619 844.401 Q54.9967 849.366 46.5303 849.366 Q37.7774 849.366 32.6531 844.656 Q27.4968 839.913 27.4968 831.892 Q27.4968 824.699 32.1438 820.53 Q36.7589 816.328 44.7161 816.328 M42.9973 822.185 Q38.1912 822.248 35.3266 824.89 Q32.4621 827.5 32.4621 831.829 Q32.4621 836.73 35.2312 839.69 Q38.0002 842.619 43.0292 843.064 L42.9973 822.185 Z" fill="#000000" fill-rule="nonzero" fill-opacity="1" /><path clip-path="url(#clip220)" d="M29.4065 783.991 L34.9447 783.991 Q33.6716 786.473 33.035 789.147 Q32.3984 791.82 32.3984 794.685 Q32.3984 799.045 33.7352 801.242 Q35.072 803.406 37.7456 803.406 Q39.7826 803.406 40.9603 801.846 Q42.1061 800.287 43.1565 795.576 L43.6021 793.571 Q44.9389 787.332 47.3897 784.723 Q49.8086 782.081 54.1691 782.081 Q59.1344 782.081 62.0308 786.028 Q64.9272 789.942 64.9272 796.817 Q64.9272 799.682 64.3543 802.801 Q63.8132 805.889 62.6992 809.326 L56.6518 809.326 Q58.3387 806.08 59.198 802.928 Q60.0256 799.777 60.0256 796.69 Q60.0256 792.552 58.6251 790.324 Q57.1929 788.096 54.6147 788.096 Q52.2276 788.096 50.9545 789.72 Q49.6813 791.311 48.5037 796.754 L48.0262 798.791 Q46.8804 804.233 44.5251 806.652 Q42.138 809.071 38.0002 809.071 Q32.9713 809.071 30.2341 805.507 Q27.4968 801.942 27.4968 795.385 Q27.4968 792.139 27.9743 789.274 Q28.4517 786.409 29.4065 783.991 Z" fill="#000000" fill-rule="nonzero" fill-opacity="1" /><path clip-path="url(#clip220)" d="M58.657 767.09 L77.5631 767.09 L77.5631 772.978 L28.3562 772.978 L28.3562 767.09 L33.7671 767.09 Q30.5842 765.243 29.0564 762.443 Q27.4968 759.61 27.4968 755.695 Q27.4968 749.202 32.6531 745.16 Q37.8093 741.086 46.212 741.086 Q54.6147 741.086 59.771 745.16 Q64.9272 749.202 64.9272 755.695 Q64.9272 759.61 63.3994 762.443 Q61.8398 765.243 58.657 767.09 M46.212 747.165 Q39.7508 747.165 36.0905 749.838 Q32.3984 752.48 32.3984 757.127 Q32.3984 761.774 36.0905 764.448 Q39.7508 767.09 46.212 767.09 Q52.6732 767.09 56.3653 764.448 Q60.0256 761.774 60.0256 757.127 Q60.0256 752.48 56.3653 749.838 Q52.6732 747.165 46.212 747.165 Z" fill="#000000" fill-rule="nonzero" fill-opacity="1" /><path clip-path="url(#clip220)" d="M32.4621 717.564 Q32.4621 722.275 36.1542 725.012 Q39.8145 727.749 46.212 727.749 Q52.6095 727.749 56.3017 725.044 Q59.9619 722.307 59.9619 717.564 Q59.9619 712.886 56.2698 710.148 Q52.5777 707.411 46.212 707.411 Q39.8781 707.411 36.186 710.148 Q32.4621 712.886 32.4621 717.564 M27.4968 717.564 Q27.4968 709.926 32.4621 705.565 Q37.4273 701.204 46.212 701.204 Q54.9649 701.204 59.9619 705.565 Q64.9272 709.926 64.9272 717.564 Q64.9272 725.235 59.9619 729.596 Q54.9649 733.924 46.212 733.924 Q37.4273 733.924 32.4621 729.596 Q27.4968 725.235 27.4968 717.564 Z" fill="#000000" fill-rule="nonzero" fill-opacity="1" /><path clip-path="url(#clip220)" d="M42.4881 661.864 L64.0042 661.864 L64.0042 667.721 L42.679 667.721 Q37.6183 667.721 35.1038 669.694 Q32.5894 671.668 32.5894 675.614 Q32.5894 680.357 35.6131 683.094 Q38.6368 685.831 43.8567 685.831 L64.0042 685.831 L64.0042 691.72 L28.3562 691.72 L28.3562 685.831 L33.8944 685.831 Q30.6797 683.731 29.0883 680.898 Q27.4968 678.033 27.4968 674.309 Q27.4968 668.166 31.3163 665.015 Q35.1038 661.864 42.4881 661.864 Z" fill="#000000" fill-rule="nonzero" fill-opacity="1" /><path clip-path="url(#clip220)" d="M29.4065 627.458 L34.9447 627.458 Q33.6716 629.94 33.035 632.614 Q32.3984 635.288 32.3984 638.152 Q32.3984 642.513 33.7352 644.709 Q35.072 646.873 37.7456 646.873 Q39.7826 646.873 40.9603 645.314 Q42.1061 643.754 43.1565 639.043 L43.6021 637.038 Q44.9389 630.8 47.3897 628.19 Q49.8086 625.548 54.1691 625.548 Q59.1344 625.548 62.0308 629.495 Q64.9272 633.41 64.9272 640.285 Q64.9272 643.149 64.3543 646.268 Q63.8132 649.356 62.6992 652.793 L56.6518 652.793 Q58.3387 649.547 59.198 646.396 Q60.0256 643.245 60.0256 640.157 Q60.0256 636.02 58.6251 633.792 Q57.1929 631.564 54.6147 631.564 Q52.2276 631.564 50.9545 633.187 Q49.6813 634.778 48.5037 640.221 L48.0262 642.258 Q46.8804 647.701 44.5251 650.12 Q42.138 652.539 38.0002 652.539 Q32.9713 652.539 30.2341 648.974 Q27.4968 645.409 27.4968 638.852 Q27.4968 635.606 27.9743 632.741 Q28.4517 629.877 29.4065 627.458 Z" fill="#000000" fill-rule="nonzero" fill-opacity="1" /><path clip-path="url(#clip220)" d="M44.7161 585.731 L47.5806 585.731 L47.5806 612.658 Q53.6281 612.276 56.8109 609.029 Q59.9619 605.751 59.9619 599.926 Q59.9619 596.552 59.1344 593.401 Q58.3069 590.218 56.6518 587.099 L62.1899 587.099 Q63.5267 590.25 64.227 593.56 Q64.9272 596.871 64.9272 600.276 Q64.9272 608.806 59.9619 613.803 Q54.9967 618.769 46.5303 618.769 Q37.7774 618.769 32.6531 614.058 Q27.4968 609.316 27.4968 601.295 Q27.4968 594.101 32.1438 589.932 Q36.7589 585.731 44.7161 585.731 M42.9973 591.587 Q38.1912 591.651 35.3266 594.292 Q32.4621 596.902 32.4621 601.231 Q32.4621 606.133 35.2312 609.093 Q38.0002 612.021 43.0292 612.467 L42.9973 591.587 Z" fill="#000000" fill-rule="nonzero" fill-opacity="1" /><polyline clip-path="url(#clip222)" style="stroke:#ff0000; stroke-linecap:round; stroke-linejoin:round; stroke-width:12; stroke-opacity:1; fill:none" points="279.759,1372.3 300.088,1372.28 320.418,1372.26 340.747,1372.23 361.077,1372.19 381.406,1372.15 401.736,1372.1 422.065,1372.04 442.395,1371.96 462.724,1371.87 483.054,1371.77 503.383,1371.64 523.712,1371.49 544.042,1371.3 564.371,1371.08 584.701,1370.82 605.03,1370.51 625.36,1370.14 645.689,1369.69 666.019,1369.17 686.348,1368.55 706.678,1367.81 727.007,1366.95 747.337,1365.93 767.666,1364.74 787.996,1363.34 808.325,1361.69 828.655,1359.77 848.984,1357.5 869.314,1354.83 889.643,1351.69 909.973,1347.97 930.302,1343.56 950.632,1338.35 970.961,1332.18 991.291,1324.91 1011.62,1316.37 1031.95,1306.38 1052.28,1294.76 1072.61,1281.34 1092.94,1265.96 1113.27,1248.48 1133.6,1228.82 1153.93,1206.98 1174.26,1183.03 1194.59,1157.16 1214.91,1129.66 1235.24,1100.97 1255.57,1071.59 1275.9,1042.12 1296.23,1013.16 1316.56,985.284 1336.89,958.984 1357.22,934.633 1377.55,912.457 1397.88,892.522 1418.21,874.742 1438.54,858.893 1458.87,844.638 1479.2,831.553 1499.53,819.159 1519.86,806.948 1540.19,794.415 1560.52,781.08 1580.85,766.514 1601.17,750.353 1621.5,732.323 1641.83,712.252 1662.16,690.081 1682.49,665.876 1702.82,639.84 1723.15,612.308 1743.48,583.751 1763.81,554.753 1784.14,525.979 1804.47,498.125 1824.8,471.863 1845.13,447.775 1865.46,426.301 1885.79,407.705 1906.12,392.059 1926.45,379.253 1946.78,369.028 1967.11,361.025 1987.44,354.83 2007.76,350.022 2028.09,346.213 2048.42,343.063 2068.75,340.292 2089.08,337.679 2109.41,335.057 2129.74,332.318 2150.07,329.408 2170.4,326.319 2190.73,323.072 2211.06,319.707 2231.39,316.273 2251.72,312.822 2272.05,309.405 2292.38,306.061 "/>
<path clip-path="url(#clip222)" d="M279.759 1372.28 L300.088 1372.26 L320.418 1372.23 L340.747 1372.19 L361.077 1372.15 L381.406 1372.1 L401.736 1372.04 L422.065 1371.97 L442.395 1371.88 L462.724 1371.77 L483.054 1371.64 L503.383 1371.49 L523.712 1371.31 L544.042 1371.09 L564.371 1370.82 L584.701 1370.51 L605.03 1370.13 L625.36 1369.69 L645.689 1369.16 L666.019 1368.53 L686.348 1367.78 L706.678 1366.9 L727.007 1365.87 L747.337 1364.65 L767.666 1363.22 L787.996 1361.54 L808.325 1359.57 L828.655 1357.26 L848.984 1354.55 L869.314 1351.35 L889.643 1347.58 L909.973 1343.13 L930.302 1337.85 L950.632 1331.6 L970.961 1324.22 L991.291 1315.51 L1011.62 1305.28 L1031.95 1293.31 L1052.28 1279.4 L1072.61 1263.33 L1092.94 1244.91 L1113.27 1223.99 L1133.6 1200.46 L1153.93 1174.32 L1174.26 1145.66 L1194.59 1114.72 L1214.91 1081.85 L1235.24 1047.56 L1255.57 1012.49 L1275.9 977.342 L1296.23 942.846 L1316.56 909.703 L1336.89 878.515 L1357.22 849.738 L1377.55 823.658 L1397.88 800.37 L1418.21 779.79 L1438.54 761.672 L1458.87 745.633 L1479.2 731.194 L1499.53 717.81 L1519.86 704.906 L1540.19 691.91 L1560.52 678.283 L1580.85 663.542 L1601.17 647.285 L1621.5 629.205 L1641.83 609.111 L1662.16 586.929 L1682.49 562.721 L1702.82 536.683 L1723.15 509.151 L1743.48 474.603 L1763.81 434.006 L1784.14 393.722 L1804.47 354.727 L1824.8 317.96 L1845.13 284.237 L1865.46 254.174 L1885.79 228.14 L1906.12 206.235 L1926.45 188.306 L1946.78 173.992 L1967.11 162.787 L1987.44 154.114 L2007.76 147.383 L2028.09 142.05 L2048.42 137.64 L2068.75 133.761 L2089.08 130.103 L2109.41 126.432 L2129.74 122.597 L2150.07 118.524 L2170.4 114.199 L2190.73 109.653 L2211.06 104.941 L2231.39 100.134 L2251.72 95.3034 L2272.05 90.5186 L2292.38 85.838 L2292.38 306.061 L2272.05 309.405 L2251.72 312.822 L2231.39 316.273 L2211.06 319.707 L2190.73 323.072 L2170.4 326.319 L2150.07 329.408 L2129.74 332.318 L2109.41 335.057 L2089.08 337.679 L2068.75 340.292 L2048.42 343.063 L2028.09 346.213 L2007.76 350.022 L1987.44 354.83 L1967.11 361.025 L1946.78 369.028 L1926.45 379.253 L1906.12 392.059 L1885.79 407.705 L1865.46 426.301 L1845.13 447.775 L1824.8 471.863 L1804.47 498.125 L1784.14 525.979 L1763.81 554.753 L1743.48 583.751 L1723.15 612.308 L1702.82 639.84 L1682.49 665.876 L1662.16 690.081 L1641.83 712.252 L1621.5 732.323 L1601.17 750.353 L1580.85 766.514 L1560.52 781.08 L1540.19 794.415 L1519.86 806.948 L1499.53 819.159 L1479.2 831.553 L1458.87 844.638 L1438.54 858.893 L1418.21 874.742 L1397.88 892.522 L1377.55 912.457 L1357.22 934.633 L1336.89 958.984 L1316.56 985.284 L1296.23 1013.16 L1275.9 1042.12 L1255.57 1071.59 L1235.24 1100.97 L1214.91 1129.66 L1194.59 1157.16 L1174.26 1183.03 L1153.93 1206.98 L1133.6 1228.82 L1113.27 1248.48 L1092.94 1265.96 L1072.61 1281.34 L1052.28 1294.76 L1031.95 1306.38 L1011.62 1316.37 L991.291 1324.91 L970.961 1332.18 L950.632 1338.35 L930.302 1343.56 L909.973 1347.97 L889.643 1351.69 L869.314 1354.83 L848.984 1357.5 L828.655 1359.77 L808.325 1361.69 L787.996 1363.34 L767.666 1364.74 L747.337 1365.93 L727.007 1366.95 L706.678 1367.81 L686.348 1368.55 L666.019 1369.17 L645.689 1369.69 L625.36 1370.14 L605.03 1370.51 L584.701 1370.82 L564.371 1371.08 L544.042 1371.3 L523.712 1371.49 L503.383 1371.64 L483.054 1371.77 L462.724 1371.87 L442.395 1371.96 L422.065 1372.04 L401.736 1372.1 L381.406 1372.15 L361.077 1372.19 L340.747 1372.23 L320.418 1372.26 L300.088 1372.28 L279.759 1372.3  Z" fill="#008000" fill-rule="evenodd" fill-opacity="0.5"/>
<polyline clip-path="url(#clip222)" style="stroke:#008000; stroke-linecap:round; stroke-linejoin:round; stroke-width:0; stroke-opacity:1; fill:none" points="279.759,1372.28 300.088,1372.26 320.418,1372.23 340.747,1372.19 361.077,1372.15 381.406,1372.1 401.736,1372.04 422.065,1371.97 442.395,1371.88 462.724,1371.77 483.054,1371.64 503.383,1371.49 523.712,1371.31 544.042,1371.09 564.371,1370.82 584.701,1370.51 605.03,1370.13 625.36,1369.69 645.689,1369.16 666.019,1368.53 686.348,1367.78 706.678,1366.9 727.007,1365.87 747.337,1364.65 767.666,1363.22 787.996,1361.54 808.325,1359.57 828.655,1357.26 848.984,1354.55 869.314,1351.35 889.643,1347.58 909.973,1343.13 930.302,1337.85 950.632,1331.6 970.961,1324.22 991.291,1315.51 1011.62,1305.28 1031.95,1293.31 1052.28,1279.4 1072.61,1263.33 1092.94,1244.91 1113.27,1223.99 1133.6,1200.46 1153.93,1174.32 1174.26,1145.66 1194.59,1114.72 1214.91,1081.85 1235.24,1047.56 1255.57,1012.49 1275.9,977.342 1296.23,942.846 1316.56,909.703 1336.89,878.515 1357.22,849.738 1377.55,823.658 1397.88,800.37 1418.21,779.79 1438.54,761.672 1458.87,745.633 1479.2,731.194 1499.53,717.81 1519.86,704.906 1540.19,691.91 1560.52,678.283 1580.85,663.542 1601.17,647.285 1621.5,629.205 1641.83,609.111 1662.16,586.929 1682.49,562.721 1702.82,536.683 1723.15,509.151 1743.48,474.603 1763.81,434.006 1784.14,393.722 1804.47,354.727 1824.8,317.96 1845.13,284.237 1865.46,254.174 1885.79,228.14 1906.12,206.235 1926.45,188.306 1946.78,173.992 1967.11,162.787 1987.44,154.114 2007.76,147.383 2028.09,142.05 2048.42,137.64 2068.75,133.761 2089.08,130.103 2109.41,126.432 2129.74,122.597 2150.07,118.524 2170.4,114.199 2190.73,109.653 2211.06,104.941 2231.39,100.134 2251.72,95.3034 2272.05,90.5186 2292.38,85.838 "/>
<polyline clip-path="url(#clip222)" style="stroke:#0000ff; stroke-linecap:round; stroke-linejoin:round; stroke-width:10; stroke-opacity:1; fill:none" stroke-dasharray="40, 25" points="279.759,1372.28 300.088,1372.26 320.418,1372.23 340.747,1372.19 361.077,1372.15 381.406,1372.1 401.736,1372.04 422.065,1371.97 442.395,1371.88 462.724,1371.77 483.054,1371.64 503.383,1371.49 523.712,1371.31 544.042,1371.09 564.371,1370.82 584.701,1370.51 605.03,1370.13 625.36,1369.69 645.689,1369.16 666.019,1368.53 686.348,1367.78 706.678,1366.9 727.007,1365.87 747.337,1364.65 767.666,1363.22 787.996,1361.54 808.325,1359.57 828.655,1357.26 848.984,1354.55 869.314,1351.35 889.643,1347.58 909.973,1343.13 930.302,1337.85 950.632,1331.6 970.961,1324.22 991.291,1315.51 1011.62,1305.28 1031.95,1293.31 1052.28,1279.4 1072.61,1263.33 1092.94,1244.91 1113.27,1223.99 1133.6,1200.46 1153.93,1174.32 1174.26,1145.66 1194.59,1114.72 1214.91,1081.85 1235.24,1047.56 1255.57,1012.49 1275.9,977.342 1296.23,942.846 1316.56,909.703 1336.89,878.515 1357.22,849.738 1377.55,823.658 1397.88,800.37 1418.21,779.79 1438.54,761.672 1458.87,745.633 1479.2,731.194 1499.53,717.81 1519.86,704.906 1540.19,691.91 1560.52,678.283 1580.85,663.542 1601.17,647.285 1621.5,629.205 1641.83,609.111 1662.16,586.929 1682.49,562.721 1702.82,536.683 1723.15,509.151 1743.48,480.594 1763.81,451.596 1784.14,422.822 1804.47,394.969 1824.8,368.706 1845.13,344.618 1865.46,323.145 1885.79,304.549 1906.12,288.902 1926.45,276.096 1946.78,265.872 1967.11,257.869 1987.44,251.673 2007.76,246.866 2028.09,243.056 2048.42,239.906 2068.75,237.136 2089.08,234.522 2109.41,231.9 2129.74,229.161 2150.07,226.252 2170.4,223.163 2190.73,219.915 2211.06,216.55 2231.39,213.116 2251.72,209.666 2272.05,206.248 2292.38,202.905 "/>
<polyline clip-path="url(#clip222)" style="stroke:#8a2be2; stroke-linecap:round; stroke-linejoin:round; stroke-width:10; stroke-opacity:1; fill:none" stroke-dasharray="40, 20, 5, 20, 5, 20" points="279.759,1372.3 300.088,1372.28 320.418,1372.26 340.747,1372.23 361.077,1372.19 381.406,1372.15 401.736,1372.1 422.065,1372.04 442.395,1371.96 462.724,1371.87 483.054,1371.77 503.383,1371.64 523.712,1371.48 544.042,1371.3 564.371,1371.08 584.701,1370.82 605.03,1370.5 625.36,1370.13 645.689,1369.69 666.019,1369.16 686.348,1368.54 706.678,1367.8 727.007,1366.93 747.337,1365.91 767.666,1364.71 787.996,1363.31 808.325,1361.66 828.655,1359.72 848.984,1357.45 869.314,1354.77 889.643,1351.61 909.973,1347.88 930.302,1343.45 950.632,1338.22 970.961,1332.03 991.291,1324.72 1011.62,1316.14 1031.95,1306.1 1052.28,1294.43 1072.61,1280.94 1092.94,1265.48 1113.27,1247.9 1133.6,1228.13 1153.93,1206.14 1174.26,1182.02 1194.59,1155.94 1214.91,1128.2 1235.24,1099.2 1255.57,1069.47 1275.9,1039.57 1296.23,1010.09 1316.56,981.596 1336.89,954.555 1357.22,929.316 1377.55,906.077 1397.88,884.873 1418.21,865.581 1438.54,847.933 1458.87,831.542 1479.2,815.931 1499.53,800.558 1519.86,784.849 1540.19,768.229 1560.52,750.147 1580.85,730.102 1601.17,707.67 1621.5,682.528 1641.83,654.474 1662.16,623.454 1682.49,589.576 1702.82,553.127 1723.15,514.583 1743.48,474.603 1763.81,434.006 1784.14,393.722 1804.47,354.727 1824.8,317.96 1845.13,284.237 1865.46,254.174 1885.79,228.14 1906.12,206.235 1926.45,188.306 1946.78,173.992 1967.11,162.787 1987.44,154.114 2007.76,147.383 2028.09,142.05 2048.42,137.64 2068.75,133.761 2089.08,130.103 2109.41,126.432 2129.74,122.597 2150.07,118.524 2170.4,114.199 2190.73,109.653 2211.06,104.941 2231.39,100.134 2251.72,95.3034 2272.05,90.5186 2292.38,85.838 "/>
<path clip-path="url(#clip220)" d="M290.493 351.899 L1049.36 351.899 L1049.36 92.6992 L290.493 92.6992  Z" fill="#ffffff" fill-rule="evenodd" fill-opacity="1"/>
<polyline clip-path="url(#clip220)" style="stroke:#000000; stroke-linecap:round; stroke-linejoin:round; stroke-width:4; stroke-opacity:1; fill:none" points="290.493,351.899 1049.36,351.899 1049.36,92.6992 290.493,92.6992 290.493,351.899 "/>
<polyline clip-path="url(#clip220)" style="stroke:#ff0000; stroke-linecap:round; stroke-linejoin:round; stroke-width:12; stroke-opacity:1; fill:none" points="314.197,144.539 456.422,144.539 "/>
<path clip-path="url(#clip220)" d="M498.899 148.879 Q498.899 144.18 496.955 141.518 Q495.033 138.833 491.654 138.833 Q488.274 138.833 486.33 141.518 Q484.408 144.18 484.408 148.879 Q484.408 153.578 486.33 156.264 Q488.274 158.926 491.654 158.926 Q495.033 158.926 496.955 156.264 Q498.899 153.578 498.899 148.879 M484.408 139.829 Q485.751 137.514 487.788 136.403 Q489.848 135.268 492.695 135.268 Q497.418 135.268 500.357 139.018 Q503.32 142.768 503.32 148.879 Q503.32 154.991 500.357 158.74 Q497.418 162.49 492.695 162.49 Q489.848 162.49 487.788 161.379 Q485.751 160.245 484.408 157.93 L484.408 161.819 L480.126 161.819 L480.126 125.801 L484.408 125.801 L484.408 139.829 Z" fill="#000000" fill-rule="nonzero" fill-opacity="1" /><path clip-path="url(#clip220)" d="M532.556 147.791 L532.556 149.875 L512.973 149.875 Q513.251 154.273 515.612 156.588 Q517.996 158.879 522.232 158.879 Q524.686 158.879 526.978 158.278 Q529.292 157.676 531.561 156.472 L531.561 160.5 Q529.269 161.472 526.862 161.981 Q524.455 162.49 521.978 162.49 Q515.774 162.49 512.14 158.879 Q508.529 155.268 508.529 149.111 Q508.529 142.745 511.955 139.018 Q515.404 135.268 521.237 135.268 Q526.468 135.268 529.501 138.648 Q532.556 142.004 532.556 147.791 M528.297 146.541 Q528.251 143.046 526.33 140.963 Q524.431 138.879 521.283 138.879 Q517.718 138.879 515.566 140.893 Q513.436 142.907 513.112 146.565 L528.297 146.541 Z" fill="#000000" fill-rule="nonzero" fill-opacity="1" /><path clip-path="url(#clip220)" d="M556.075 136.657 L556.075 140.685 Q554.269 139.759 552.325 139.296 Q550.38 138.833 548.297 138.833 Q545.126 138.833 543.529 139.805 Q541.954 140.778 541.954 142.722 Q541.954 144.204 543.089 145.06 Q544.223 145.893 547.649 146.657 L549.107 146.981 Q553.644 147.954 555.542 149.736 Q557.464 151.495 557.464 154.666 Q557.464 158.278 554.593 160.384 Q551.746 162.49 546.746 162.49 Q544.663 162.49 542.394 162.074 Q540.149 161.68 537.649 160.87 L537.649 156.472 Q540.01 157.699 542.302 158.324 Q544.593 158.926 546.839 158.926 Q549.848 158.926 551.468 157.907 Q553.089 156.866 553.089 154.991 Q553.089 153.254 551.908 152.328 Q550.751 151.403 546.792 150.546 L545.311 150.199 Q541.353 149.366 539.593 147.653 Q537.834 145.916 537.834 142.907 Q537.834 139.25 540.427 137.259 Q543.019 135.268 547.788 135.268 Q550.149 135.268 552.232 135.616 Q554.315 135.963 556.075 136.657 Z" fill="#000000" fill-rule="nonzero" fill-opacity="1" /><path clip-path="url(#clip220)" d="M568.459 128.532 L568.459 135.893 L577.232 135.893 L577.232 139.204 L568.459 139.204 L568.459 153.278 Q568.459 156.449 569.315 157.352 Q570.195 158.254 572.857 158.254 L577.232 158.254 L577.232 161.819 L572.857 161.819 Q567.927 161.819 566.052 159.99 Q564.177 158.139 564.177 153.278 L564.177 139.204 L561.052 139.204 L561.052 135.893 L564.177 135.893 L564.177 128.532 L568.459 128.532 Z" fill="#000000" fill-rule="nonzero" fill-opacity="1" /><path clip-path="url(#clip220)" d="M611.028 125.801 L611.028 129.343 L606.954 129.343 Q604.662 129.343 603.76 130.268 Q602.88 131.194 602.88 133.602 L602.88 135.893 L609.894 135.893 L609.894 139.204 L602.88 139.204 L602.88 161.819 L598.598 161.819 L598.598 139.204 L594.524 139.204 L594.524 135.893 L598.598 135.893 L598.598 134.088 Q598.598 129.759 600.612 127.792 Q602.625 125.801 607 125.801 L611.028 125.801 Z" fill="#000000" fill-rule="nonzero" fill-opacity="1" /><path clip-path="url(#clip220)" d="M614.593 135.893 L618.852 135.893 L618.852 161.819 L614.593 161.819 L614.593 135.893 M614.593 125.801 L618.852 125.801 L618.852 131.194 L614.593 131.194 L614.593 125.801 Z" fill="#000000" fill-rule="nonzero" fill-opacity="1" /><path clip-path="url(#clip220)" d="M631.977 128.532 L631.977 135.893 L640.75 135.893 L640.75 139.204 L631.977 139.204 L631.977 153.278 Q631.977 156.449 632.834 157.352 Q633.713 158.254 636.375 158.254 L640.75 158.254 L640.75 161.819 L636.375 161.819 Q631.445 161.819 629.57 159.99 Q627.695 158.139 627.695 153.278 L627.695 139.204 L624.57 139.204 L624.57 135.893 L627.695 135.893 L627.695 128.532 L631.977 128.532 Z" fill="#000000" fill-rule="nonzero" fill-opacity="1" /><path clip-path="url(#clip220)" d="M314.197 217.115 L456.422 217.115 L456.422 175.643 L314.197 175.643 L314.197 217.115  Z" fill="#008000" fill-rule="evenodd" fill-opacity="0.5"/>
<polyline clip-path="url(#clip220)" style="stroke:#008000; stroke-linecap:round; stroke-linejoin:round; stroke-width:0.8; stroke-opacity:1; fill:none" points="314.197,175.643 456.422,175.643 "/>
<path clip-path="url(#clip220)" d="M500.635 188.729 L500.635 192.71 Q498.83 191.715 497.001 191.229 Q495.195 190.719 493.344 190.719 Q489.2 190.719 486.908 193.358 Q484.617 195.974 484.617 200.719 Q484.617 205.465 486.908 208.104 Q489.2 210.719 493.344 210.719 Q495.195 210.719 497.001 210.233 Q498.83 209.724 500.635 208.729 L500.635 212.664 Q498.853 213.497 496.932 213.914 Q495.033 214.33 492.881 214.33 Q487.024 214.33 483.575 210.65 Q480.126 206.969 480.126 200.719 Q480.126 194.377 483.598 190.743 Q487.094 187.108 493.158 187.108 Q495.126 187.108 497.001 187.525 Q498.876 187.919 500.635 188.729 Z" fill="#000000" fill-rule="nonzero" fill-opacity="1" /><path clip-path="url(#clip220)" d="M518.089 190.719 Q514.663 190.719 512.672 193.405 Q510.681 196.067 510.681 200.719 Q510.681 205.372 512.649 208.057 Q514.64 210.719 518.089 210.719 Q521.492 210.719 523.482 208.034 Q525.473 205.349 525.473 200.719 Q525.473 196.113 523.482 193.428 Q521.492 190.719 518.089 190.719 M518.089 187.108 Q523.644 187.108 526.816 190.719 Q529.987 194.331 529.987 200.719 Q529.987 207.085 526.816 210.719 Q523.644 214.33 518.089 214.33 Q512.51 214.33 509.339 210.719 Q506.191 207.085 506.191 200.719 Q506.191 194.331 509.339 190.719 Q512.51 187.108 518.089 187.108 Z" fill="#000000" fill-rule="nonzero" fill-opacity="1" /><path clip-path="url(#clip220)" d="M557.232 192.71 Q558.829 189.84 561.052 188.474 Q563.274 187.108 566.283 187.108 Q570.334 187.108 572.533 189.956 Q574.732 192.78 574.732 198.011 L574.732 213.659 L570.45 213.659 L570.45 198.15 Q570.45 194.423 569.13 192.618 Q567.811 190.812 565.102 190.812 Q561.792 190.812 559.871 193.011 Q557.95 195.21 557.95 199.006 L557.95 213.659 L553.667 213.659 L553.667 198.15 Q553.667 194.4 552.348 192.618 Q551.028 190.812 548.274 190.812 Q545.01 190.812 543.089 193.034 Q541.167 195.233 541.167 199.006 L541.167 213.659 L536.885 213.659 L536.885 187.733 L541.167 187.733 L541.167 191.761 Q542.626 189.377 544.663 188.243 Q546.7 187.108 549.501 187.108 Q552.325 187.108 554.292 188.544 Q556.283 189.979 557.232 192.71 Z" fill="#000000" fill-rule="nonzero" fill-opacity="1" /><path clip-path="url(#clip220)" d="M587.348 209.77 L587.348 223.52 L583.065 223.52 L583.065 187.733 L587.348 187.733 L587.348 191.669 Q588.69 189.354 590.727 188.243 Q592.788 187.108 595.635 187.108 Q600.357 187.108 603.297 190.858 Q606.26 194.608 606.26 200.719 Q606.26 206.831 603.297 210.58 Q600.357 214.33 595.635 214.33 Q592.788 214.33 590.727 213.219 Q588.69 212.085 587.348 209.77 M601.838 200.719 Q601.838 196.02 599.894 193.358 Q597.973 190.673 594.593 190.673 Q591.213 190.673 589.269 193.358 Q587.348 196.02 587.348 200.719 Q587.348 205.418 589.269 208.104 Q591.213 210.766 594.593 210.766 Q597.973 210.766 599.894 208.104 Q601.838 205.418 601.838 200.719 Z" fill="#000000" fill-rule="nonzero" fill-opacity="1" /><path clip-path="url(#clip220)" d="M623.366 190.719 Q619.94 190.719 617.949 193.405 Q615.959 196.067 615.959 200.719 Q615.959 205.372 617.926 208.057 Q619.917 210.719 623.366 210.719 Q626.769 210.719 628.76 208.034 Q630.75 205.349 630.75 200.719 Q630.75 196.113 628.76 193.428 Q626.769 190.719 623.366 190.719 M623.366 187.108 Q628.922 187.108 632.093 190.719 Q635.264 194.331 635.264 200.719 Q635.264 207.085 632.093 210.719 Q628.922 214.33 623.366 214.33 Q617.787 214.33 614.616 210.719 Q611.468 207.085 611.468 200.719 Q611.468 194.331 614.616 190.719 Q617.787 187.108 623.366 187.108 Z" fill="#000000" fill-rule="nonzero" fill-opacity="1" /><path clip-path="url(#clip220)" d="M663.875 198.011 L663.875 213.659 L659.616 213.659 L659.616 198.15 Q659.616 194.469 658.181 192.641 Q656.746 190.812 653.875 190.812 Q650.426 190.812 648.435 193.011 Q646.445 195.21 646.445 199.006 L646.445 213.659 L642.162 213.659 L642.162 187.733 L646.445 187.733 L646.445 191.761 Q647.972 189.423 650.033 188.266 Q652.116 187.108 654.824 187.108 Q659.292 187.108 661.583 189.886 Q663.875 192.641 663.875 198.011 Z" fill="#000000" fill-rule="nonzero" fill-opacity="1" /><path clip-path="url(#clip220)" d="M694.546 199.631 L694.546 201.715 L674.963 201.715 Q675.241 206.113 677.602 208.428 Q679.986 210.719 684.222 210.719 Q686.676 210.719 688.968 210.118 Q691.282 209.516 693.551 208.312 L693.551 212.34 Q691.259 213.312 688.852 213.821 Q686.444 214.33 683.968 214.33 Q677.764 214.33 674.13 210.719 Q670.519 207.108 670.519 200.951 Q670.519 194.585 673.944 190.858 Q677.394 187.108 683.227 187.108 Q688.458 187.108 691.491 190.488 Q694.546 193.844 694.546 199.631 M690.287 198.381 Q690.241 194.886 688.319 192.803 Q686.421 190.719 683.273 190.719 Q679.708 190.719 677.556 192.733 Q675.426 194.747 675.102 198.405 L690.287 198.381 Z" fill="#000000" fill-rule="nonzero" fill-opacity="1" /><path clip-path="url(#clip220)" d="M723.088 198.011 L723.088 213.659 L718.829 213.659 L718.829 198.15 Q718.829 194.469 717.393 192.641 Q715.958 190.812 713.088 190.812 Q709.639 190.812 707.648 193.011 Q705.657 195.21 705.657 199.006 L705.657 213.659 L701.375 213.659 L701.375 187.733 L705.657 187.733 L705.657 191.761 Q707.185 189.423 709.245 188.266 Q711.329 187.108 714.037 187.108 Q718.504 187.108 720.796 189.886 Q723.088 192.641 723.088 198.011 Z" fill="#000000" fill-rule="nonzero" fill-opacity="1" /><path clip-path="url(#clip220)" d="M735.796 180.372 L735.796 187.733 L744.569 187.733 L744.569 191.044 L735.796 191.044 L735.796 205.118 Q735.796 208.289 736.652 209.192 Q737.532 210.094 740.194 210.094 L744.569 210.094 L744.569 213.659 L740.194 213.659 Q735.264 213.659 733.389 211.83 Q731.514 209.979 731.514 205.118 L731.514 191.044 L728.389 191.044 L728.389 187.733 L731.514 187.733 L731.514 180.372 L735.796 180.372 Z" fill="#000000" fill-rule="nonzero" fill-opacity="1" /><path clip-path="url(#clip220)" d="M785.425 192.71 Q787.023 189.84 789.245 188.474 Q791.467 187.108 794.476 187.108 Q798.527 187.108 800.726 189.956 Q802.925 192.78 802.925 198.011 L802.925 213.659 L798.643 213.659 L798.643 198.15 Q798.643 194.423 797.323 192.618 Q796.004 190.812 793.296 190.812 Q789.986 190.812 788.064 193.011 Q786.143 195.21 786.143 199.006 L786.143 213.659 L781.861 213.659 L781.861 198.15 Q781.861 194.4 780.541 192.618 Q779.222 190.812 776.467 190.812 Q773.203 190.812 771.282 193.034 Q769.361 195.233 769.361 199.006 L769.361 213.659 L765.078 213.659 L765.078 187.733 L769.361 187.733 L769.361 191.761 Q770.819 189.377 772.856 188.243 Q774.893 187.108 777.694 187.108 Q780.518 187.108 782.486 188.544 Q784.476 189.979 785.425 192.71 Z" fill="#000000" fill-rule="nonzero" fill-opacity="1" /><path clip-path="url(#clip220)" d="M823.203 200.627 Q818.041 200.627 816.05 201.807 Q814.059 202.988 814.059 205.835 Q814.059 208.104 815.541 209.446 Q817.046 210.766 819.615 210.766 Q823.157 210.766 825.286 208.266 Q827.439 205.743 827.439 201.576 L827.439 200.627 L823.203 200.627 M831.698 198.868 L831.698 213.659 L827.439 213.659 L827.439 209.724 Q825.981 212.085 823.805 213.219 Q821.629 214.33 818.481 214.33 Q814.499 214.33 812.138 212.108 Q809.8 209.863 809.8 206.113 Q809.8 201.738 812.717 199.516 Q815.657 197.294 821.467 197.294 L827.439 197.294 L827.439 196.877 Q827.439 193.937 825.495 192.34 Q823.573 190.719 820.078 190.719 Q817.856 190.719 815.749 191.252 Q813.643 191.784 811.698 192.849 L811.698 188.914 Q814.036 188.011 816.235 187.571 Q818.434 187.108 820.518 187.108 Q826.143 187.108 828.921 190.025 Q831.698 192.942 831.698 198.868 Z" fill="#000000" fill-rule="nonzero" fill-opacity="1" /><path clip-path="url(#clip220)" d="M862.022 187.733 L852.647 200.349 L862.508 213.659 L857.485 213.659 L849.939 203.474 L842.393 213.659 L837.37 213.659 L847.439 200.094 L838.226 187.733 L843.249 187.733 L850.124 196.969 L856.999 187.733 L862.022 187.733 Z" fill="#000000" fill-rule="nonzero" fill-opacity="1" /><path clip-path="url(#clip220)" d="M868.527 187.733 L872.786 187.733 L872.786 213.659 L868.527 213.659 L868.527 187.733 M868.527 177.641 L872.786 177.641 L872.786 183.034 L868.527 183.034 L868.527 177.641 Z" fill="#000000" fill-rule="nonzero" fill-opacity="1" /><path clip-path="url(#clip220)" d="M881.258 203.428 L881.258 187.733 L885.517 187.733 L885.517 203.266 Q885.517 206.946 886.953 208.798 Q888.388 210.627 891.258 210.627 Q894.707 210.627 896.698 208.428 Q898.712 206.229 898.712 202.432 L898.712 187.733 L902.971 187.733 L902.971 213.659 L898.712 213.659 L898.712 209.678 Q897.161 212.039 895.101 213.196 Q893.064 214.33 890.355 214.33 Q885.888 214.33 883.573 211.553 Q881.258 208.775 881.258 203.428 M891.976 187.108 L891.976 187.108 Z" fill="#000000" fill-rule="nonzero" fill-opacity="1" /><path clip-path="url(#clip220)" d="M931.929 192.71 Q933.526 189.84 935.749 188.474 Q937.971 187.108 940.98 187.108 Q945.031 187.108 947.23 189.956 Q949.429 192.78 949.429 198.011 L949.429 213.659 L945.147 213.659 L945.147 198.15 Q945.147 194.423 943.827 192.618 Q942.508 190.812 939.8 190.812 Q936.489 190.812 934.568 193.011 Q932.647 195.21 932.647 199.006 L932.647 213.659 L928.364 213.659 L928.364 198.15 Q928.364 194.4 927.045 192.618 Q925.726 190.812 922.971 190.812 Q919.707 190.812 917.786 193.034 Q915.864 195.233 915.864 199.006 L915.864 213.659 L911.582 213.659 L911.582 187.733 L915.864 187.733 L915.864 191.761 Q917.323 189.377 919.36 188.243 Q921.397 187.108 924.198 187.108 Q927.022 187.108 928.989 188.544 Q930.98 189.979 931.929 192.71 Z" fill="#000000" fill-rule="nonzero" fill-opacity="1" /><path clip-path="url(#clip220)" d="M957.485 203.428 L957.485 187.733 L961.744 187.733 L961.744 203.266 Q961.744 206.946 963.179 208.798 Q964.614 210.627 967.485 210.627 Q970.934 210.627 972.924 208.428 Q974.938 206.229 974.938 202.432 L974.938 187.733 L979.197 187.733 L979.197 213.659 L974.938 213.659 L974.938 209.678 Q973.387 212.039 971.327 213.196 Q969.29 214.33 966.582 214.33 Q962.114 214.33 959.799 211.553 Q957.485 208.775 957.485 203.428 M968.202 187.108 L968.202 187.108 Z" fill="#000000" fill-rule="nonzero" fill-opacity="1" /><path clip-path="url(#clip220)" d="M1008.16 192.71 Q1009.75 189.84 1011.98 188.474 Q1014.2 187.108 1017.21 187.108 Q1021.26 187.108 1023.46 189.956 Q1025.66 192.78 1025.66 198.011 L1025.66 213.659 L1021.37 213.659 L1021.37 198.15 Q1021.37 194.423 1020.05 192.618 Q1018.73 190.812 1016.03 190.812 Q1012.72 190.812 1010.79 193.011 Q1008.87 195.21 1008.87 199.006 L1008.87 213.659 L1004.59 213.659 L1004.59 198.15 Q1004.59 194.4 1003.27 192.618 Q1001.95 190.812 999.197 190.812 Q995.934 190.812 994.012 193.034 Q992.091 195.233 992.091 199.006 L992.091 213.659 L987.809 213.659 L987.809 187.733 L992.091 187.733 L992.091 191.761 Q993.549 189.377 995.586 188.243 Q997.623 187.108 1000.42 187.108 Q1003.25 187.108 1005.22 188.544 Q1007.21 189.979 1008.16 192.71 Z" fill="#000000" fill-rule="nonzero" fill-opacity="1" /><polyline clip-path="url(#clip220)" style="stroke:#0000ff; stroke-linecap:round; stroke-linejoin:round; stroke-width:10; stroke-opacity:1; fill:none" stroke-dasharray="40, 25" points="314.197,248.219 456.422,248.219 "/>
<path clip-path="url(#clip220)" d="M484.408 261.61 L484.408 275.36 L480.126 275.36 L480.126 239.573 L484.408 239.573 L484.408 243.509 Q485.751 241.194 487.788 240.083 Q489.848 238.948 492.695 238.948 Q497.418 238.948 500.357 242.698 Q503.32 246.448 503.32 252.559 Q503.32 258.671 500.357 262.42 Q497.418 266.17 492.695 266.17 Q489.848 266.17 487.788 265.059 Q485.751 263.925 484.408 261.61 M498.899 252.559 Q498.899 247.86 496.955 245.198 Q495.033 242.513 491.654 242.513 Q488.274 242.513 486.33 245.198 Q484.408 247.86 484.408 252.559 Q484.408 257.258 486.33 259.944 Q488.274 262.606 491.654 262.606 Q495.033 262.606 496.955 259.944 Q498.899 257.258 498.899 252.559 Z" fill="#000000" fill-rule="nonzero" fill-opacity="1" /><path clip-path="url(#clip220)" d="M532.556 251.471 L532.556 253.555 L512.973 253.555 Q513.251 257.953 515.612 260.268 Q517.996 262.559 522.232 262.559 Q524.686 262.559 526.978 261.958 Q529.292 261.356 531.561 260.152 L531.561 264.18 Q529.269 265.152 526.862 265.661 Q524.455 266.17 521.978 266.17 Q515.774 266.17 512.14 262.559 Q508.529 258.948 508.529 252.791 Q508.529 246.425 511.955 242.698 Q515.404 238.948 521.237 238.948 Q526.468 238.948 529.501 242.328 Q532.556 245.684 532.556 251.471 M528.297 250.221 Q528.251 246.726 526.33 244.643 Q524.431 242.559 521.283 242.559 Q517.718 242.559 515.566 244.573 Q513.436 246.587 513.112 250.245 L528.297 250.221 Z" fill="#000000" fill-rule="nonzero" fill-opacity="1" /><path clip-path="url(#clip220)" d="M551.329 252.467 Q546.167 252.467 544.177 253.647 Q542.186 254.828 542.186 257.675 Q542.186 259.944 543.667 261.286 Q545.172 262.606 547.741 262.606 Q551.283 262.606 553.413 260.106 Q555.565 257.583 555.565 253.416 L555.565 252.467 L551.329 252.467 M559.825 250.708 L559.825 265.499 L555.565 265.499 L555.565 261.564 Q554.107 263.925 551.931 265.059 Q549.755 266.17 546.607 266.17 Q542.626 266.17 540.265 263.948 Q537.927 261.703 537.927 257.953 Q537.927 253.578 540.843 251.356 Q543.783 249.134 549.593 249.134 L555.565 249.134 L555.565 248.717 Q555.565 245.777 553.621 244.18 Q551.7 242.559 548.204 242.559 Q545.982 242.559 543.876 243.092 Q541.769 243.624 539.825 244.689 L539.825 240.754 Q542.163 239.851 544.362 239.411 Q546.561 238.948 548.644 238.948 Q554.269 238.948 557.047 241.865 Q559.825 244.782 559.825 250.708 Z" fill="#000000" fill-rule="nonzero" fill-opacity="1" /><path clip-path="url(#clip220)" d="M568.436 229.481 L572.718 229.481 L572.718 250.754 L585.426 239.573 L590.866 239.573 L577.116 251.703 L591.445 265.499 L585.889 265.499 L572.718 252.837 L572.718 265.499 L568.436 265.499 L568.436 229.481 Z" fill="#000000" fill-rule="nonzero" fill-opacity="1" /><path clip-path="url(#clip220)" d="M612.533 261.564 L620.172 261.564 L620.172 235.198 L611.861 236.865 L611.861 232.606 L620.125 230.939 L624.801 230.939 L624.801 261.564 L632.44 261.564 L632.44 265.499 L612.533 265.499 L612.533 261.564 Z" fill="#000000" fill-rule="nonzero" fill-opacity="1" /><path clip-path="url(#clip220)" d="M653.296 239.573 L657.81 239.573 L665.912 261.333 L674.014 239.573 L678.528 239.573 L668.806 265.499 L663.019 265.499 L653.296 239.573 Z" fill="#000000" fill-rule="nonzero" fill-opacity="1" /><path clip-path="url(#clip220)" d="M696.19 252.467 Q691.028 252.467 689.037 253.647 Q687.046 254.828 687.046 257.675 Q687.046 259.944 688.528 261.286 Q690.032 262.606 692.602 262.606 Q696.143 262.606 698.273 260.106 Q700.426 257.583 700.426 253.416 L700.426 252.467 L696.19 252.467 M704.685 250.708 L704.685 265.499 L700.426 265.499 L700.426 261.564 Q698.968 263.925 696.792 265.059 Q694.616 266.17 691.468 266.17 Q687.486 266.17 685.125 263.948 Q682.787 261.703 682.787 257.953 Q682.787 253.578 685.704 251.356 Q688.643 249.134 694.454 249.134 L700.426 249.134 L700.426 248.717 Q700.426 245.777 698.481 244.18 Q696.56 242.559 693.065 242.559 Q690.843 242.559 688.736 243.092 Q686.63 243.624 684.685 244.689 L684.685 240.754 Q687.023 239.851 689.222 239.411 Q691.421 238.948 693.505 238.948 Q699.13 238.948 701.907 241.865 Q704.685 244.782 704.685 250.708 Z" fill="#000000" fill-rule="nonzero" fill-opacity="1" /><path clip-path="url(#clip220)" d="M728.481 243.555 Q727.764 243.138 726.907 242.953 Q726.074 242.745 725.055 242.745 Q721.444 242.745 719.5 245.106 Q717.579 247.444 717.579 251.842 L717.579 265.499 L713.296 265.499 L713.296 239.573 L717.579 239.573 L717.579 243.601 Q718.921 241.24 721.074 240.106 Q723.227 238.948 726.305 238.948 Q726.745 238.948 727.278 239.018 Q727.81 239.064 728.458 239.18 L728.481 243.555 Z" fill="#000000" fill-rule="nonzero" fill-opacity="1" /><path clip-path="url(#clip220)" d="M732.949 239.573 L737.208 239.573 L737.208 265.499 L732.949 265.499 L732.949 239.573 M732.949 229.481 L737.208 229.481 L737.208 234.874 L732.949 234.874 L732.949 229.481 Z" fill="#000000" fill-rule="nonzero" fill-opacity="1" /><path clip-path="url(#clip220)" d="M757.902 252.467 Q752.74 252.467 750.75 253.647 Q748.759 254.828 748.759 257.675 Q748.759 259.944 750.24 261.286 Q751.745 262.606 754.314 262.606 Q757.856 262.606 759.986 260.106 Q762.138 257.583 762.138 253.416 L762.138 252.467 L757.902 252.467 M766.398 250.708 L766.398 265.499 L762.138 265.499 L762.138 261.564 Q760.68 263.925 758.504 265.059 Q756.328 266.17 753.18 266.17 Q749.199 266.17 746.838 263.948 Q744.5 261.703 744.5 257.953 Q744.5 253.578 747.416 251.356 Q750.356 249.134 756.166 249.134 L762.138 249.134 L762.138 248.717 Q762.138 245.777 760.194 244.18 Q758.273 242.559 754.777 242.559 Q752.555 242.559 750.449 243.092 Q748.342 243.624 746.398 244.689 L746.398 240.754 Q748.736 239.851 750.935 239.411 Q753.134 238.948 755.217 238.948 Q760.842 238.948 763.62 241.865 Q766.398 244.782 766.398 250.708 Z" fill="#000000" fill-rule="nonzero" fill-opacity="1" /><path clip-path="url(#clip220)" d="M779.384 232.212 L779.384 239.573 L788.157 239.573 L788.157 242.884 L779.384 242.884 L779.384 256.958 Q779.384 260.129 780.24 261.032 Q781.12 261.934 783.782 261.934 L788.157 261.934 L788.157 265.499 L783.782 265.499 Q778.851 265.499 776.976 263.67 Q775.101 261.819 775.101 256.958 L775.101 242.884 L771.976 242.884 L771.976 239.573 L775.101 239.573 L775.101 232.212 L779.384 232.212 Z" fill="#000000" fill-rule="nonzero" fill-opacity="1" /><path clip-path="url(#clip220)" d="M793.759 239.573 L798.018 239.573 L798.018 265.499 L793.759 265.499 L793.759 239.573 M793.759 229.481 L798.018 229.481 L798.018 234.874 L793.759 234.874 L793.759 229.481 Z" fill="#000000" fill-rule="nonzero" fill-opacity="1" /><path clip-path="url(#clip220)" d="M816.976 242.559 Q813.55 242.559 811.559 245.245 Q809.569 247.907 809.569 252.559 Q809.569 257.212 811.536 259.897 Q813.527 262.559 816.976 262.559 Q820.379 262.559 822.37 259.874 Q824.36 257.189 824.36 252.559 Q824.36 247.953 822.37 245.268 Q820.379 242.559 816.976 242.559 M816.976 238.948 Q822.532 238.948 825.703 242.559 Q828.874 246.171 828.874 252.559 Q828.874 258.925 825.703 262.559 Q822.532 266.17 816.976 266.17 Q811.397 266.17 808.226 262.559 Q805.078 258.925 805.078 252.559 Q805.078 246.171 808.226 242.559 Q811.397 238.948 816.976 238.948 Z" fill="#000000" fill-rule="nonzero" fill-opacity="1" /><path clip-path="url(#clip220)" d="M857.485 249.851 L857.485 265.499 L853.226 265.499 L853.226 249.99 Q853.226 246.309 851.791 244.481 Q850.356 242.652 847.485 242.652 Q844.036 242.652 842.045 244.851 Q840.055 247.05 840.055 250.846 L840.055 265.499 L835.772 265.499 L835.772 239.573 L840.055 239.573 L840.055 243.601 Q841.582 241.263 843.643 240.106 Q845.726 238.948 848.434 238.948 Q852.902 238.948 855.194 241.726 Q857.485 244.481 857.485 249.851 Z" fill="#000000" fill-rule="nonzero" fill-opacity="1" /><polyline clip-path="url(#clip220)" style="stroke:#8a2be2; stroke-linecap:round; stroke-linejoin:round; stroke-width:10; stroke-opacity:1; fill:none" stroke-dasharray="40, 20, 5, 20, 5, 20" points="314.197,300.059 456.422,300.059 "/>
<path clip-path="url(#clip220)" d="M484.408 313.45 L484.408 327.2 L480.126 327.2 L480.126 291.413 L484.408 291.413 L484.408 295.349 Q485.751 293.034 487.788 291.923 Q489.848 290.788 492.695 290.788 Q497.418 290.788 500.357 294.538 Q503.32 298.288 503.32 304.399 Q503.32 310.511 500.357 314.26 Q497.418 318.01 492.695 318.01 Q489.848 318.01 487.788 316.899 Q485.751 315.765 484.408 313.45 M498.899 304.399 Q498.899 299.7 496.955 297.038 Q495.033 294.353 491.654 294.353 Q488.274 294.353 486.33 297.038 Q484.408 299.7 484.408 304.399 Q484.408 309.098 486.33 311.784 Q488.274 314.446 491.654 314.446 Q495.033 314.446 496.955 311.784 Q498.899 309.098 498.899 304.399 Z" fill="#000000" fill-rule="nonzero" fill-opacity="1" /><path clip-path="url(#clip220)" d="M532.556 303.311 L532.556 305.395 L512.973 305.395 Q513.251 309.793 515.612 312.108 Q517.996 314.399 522.232 314.399 Q524.686 314.399 526.978 313.798 Q529.292 313.196 531.561 311.992 L531.561 316.02 Q529.269 316.992 526.862 317.501 Q524.455 318.01 521.978 318.01 Q515.774 318.01 512.14 314.399 Q508.529 310.788 508.529 304.631 Q508.529 298.265 511.955 294.538 Q515.404 290.788 521.237 290.788 Q526.468 290.788 529.501 294.168 Q532.556 297.524 532.556 303.311 M528.297 302.061 Q528.251 298.566 526.33 296.483 Q524.431 294.399 521.283 294.399 Q517.718 294.399 515.566 296.413 Q513.436 298.427 513.112 302.085 L528.297 302.061 Z" fill="#000000" fill-rule="nonzero" fill-opacity="1" /><path clip-path="url(#clip220)" d="M551.329 304.307 Q546.167 304.307 544.177 305.487 Q542.186 306.668 542.186 309.515 Q542.186 311.784 543.667 313.126 Q545.172 314.446 547.741 314.446 Q551.283 314.446 553.413 311.946 Q555.565 309.423 555.565 305.256 L555.565 304.307 L551.329 304.307 M559.825 302.548 L559.825 317.339 L555.565 317.339 L555.565 313.404 Q554.107 315.765 551.931 316.899 Q549.755 318.01 546.607 318.01 Q542.626 318.01 540.265 315.788 Q537.927 313.543 537.927 309.793 Q537.927 305.418 540.843 303.196 Q543.783 300.974 549.593 300.974 L555.565 300.974 L555.565 300.557 Q555.565 297.617 553.621 296.02 Q551.7 294.399 548.204 294.399 Q545.982 294.399 543.876 294.932 Q541.769 295.464 539.825 296.529 L539.825 292.594 Q542.163 291.691 544.362 291.251 Q546.561 290.788 548.644 290.788 Q554.269 290.788 557.047 293.705 Q559.825 296.622 559.825 302.548 Z" fill="#000000" fill-rule="nonzero" fill-opacity="1" /><path clip-path="url(#clip220)" d="M568.436 281.321 L572.718 281.321 L572.718 302.594 L585.426 291.413 L590.866 291.413 L577.116 303.543 L591.445 317.339 L585.889 317.339 L572.718 304.677 L572.718 317.339 L568.436 317.339 L568.436 281.321 Z" fill="#000000" fill-rule="nonzero" fill-opacity="1" /><path clip-path="url(#clip220)" d="M615.75 313.404 L632.07 313.404 L632.07 317.339 L610.125 317.339 L610.125 313.404 Q612.787 310.649 617.371 306.02 Q621.977 301.367 623.158 300.024 Q625.403 297.501 626.283 295.765 Q627.185 294.006 627.185 292.316 Q627.185 289.562 625.241 287.825 Q623.32 286.089 620.218 286.089 Q618.019 286.089 615.565 286.853 Q613.135 287.617 610.357 289.168 L610.357 284.446 Q613.181 283.312 615.635 282.733 Q618.088 282.154 620.125 282.154 Q625.496 282.154 628.69 284.839 Q631.885 287.525 631.885 292.015 Q631.885 294.145 631.074 296.066 Q630.287 297.964 628.181 300.557 Q627.602 301.228 624.5 304.446 Q621.398 307.64 615.75 313.404 Z" fill="#000000" fill-rule="nonzero" fill-opacity="1" /><path clip-path="url(#clip220)" d="M653.296 291.413 L657.81 291.413 L665.912 313.173 L674.014 291.413 L678.528 291.413 L668.806 317.339 L663.019 317.339 L653.296 291.413 Z" fill="#000000" fill-rule="nonzero" fill-opacity="1" /><path clip-path="url(#clip220)" d="M696.19 304.307 Q691.028 304.307 689.037 305.487 Q687.046 306.668 687.046 309.515 Q687.046 311.784 688.528 313.126 Q690.032 314.446 692.602 314.446 Q696.143 314.446 698.273 311.946 Q700.426 309.423 700.426 305.256 L700.426 304.307 L696.19 304.307 M704.685 302.548 L704.685 317.339 L700.426 317.339 L700.426 313.404 Q698.968 315.765 696.792 316.899 Q694.616 318.01 691.468 318.01 Q687.486 318.01 685.125 315.788 Q682.787 313.543 682.787 309.793 Q682.787 305.418 685.704 303.196 Q688.643 300.974 694.454 300.974 L700.426 300.974 L700.426 300.557 Q700.426 297.617 698.481 296.02 Q696.56 294.399 693.065 294.399 Q690.843 294.399 688.736 294.932 Q686.63 295.464 684.685 296.529 L684.685 292.594 Q687.023 291.691 689.222 291.251 Q691.421 290.788 693.505 290.788 Q699.13 290.788 701.907 293.705 Q704.685 296.622 704.685 302.548 Z" fill="#000000" fill-rule="nonzero" fill-opacity="1" /><path clip-path="url(#clip220)" d="M728.481 295.395 Q727.764 294.978 726.907 294.793 Q726.074 294.585 725.055 294.585 Q721.444 294.585 719.5 296.946 Q717.579 299.284 717.579 303.682 L717.579 317.339 L713.296 317.339 L713.296 291.413 L717.579 291.413 L717.579 295.441 Q718.921 293.08 721.074 291.946 Q723.227 290.788 726.305 290.788 Q726.745 290.788 727.278 290.858 Q727.81 290.904 728.458 291.02 L728.481 295.395 Z" fill="#000000" fill-rule="nonzero" fill-opacity="1" /><path clip-path="url(#clip220)" d="M732.949 291.413 L737.208 291.413 L737.208 317.339 L732.949 317.339 L732.949 291.413 M732.949 281.321 L737.208 281.321 L737.208 286.714 L732.949 286.714 L732.949 281.321 Z" fill="#000000" fill-rule="nonzero" fill-opacity="1" /><path clip-path="url(#clip220)" d="M757.902 304.307 Q752.74 304.307 750.75 305.487 Q748.759 306.668 748.759 309.515 Q748.759 311.784 750.24 313.126 Q751.745 314.446 754.314 314.446 Q757.856 314.446 759.986 311.946 Q762.138 309.423 762.138 305.256 L762.138 304.307 L757.902 304.307 M766.398 302.548 L766.398 317.339 L762.138 317.339 L762.138 313.404 Q760.68 315.765 758.504 316.899 Q756.328 318.01 753.18 318.01 Q749.199 318.01 746.838 315.788 Q744.5 313.543 744.5 309.793 Q744.5 305.418 747.416 303.196 Q750.356 300.974 756.166 300.974 L762.138 300.974 L762.138 300.557 Q762.138 297.617 760.194 296.02 Q758.273 294.399 754.777 294.399 Q752.555 294.399 750.449 294.932 Q748.342 295.464 746.398 296.529 L746.398 292.594 Q748.736 291.691 750.935 291.251 Q753.134 290.788 755.217 290.788 Q760.842 290.788 763.62 293.705 Q766.398 296.622 766.398 302.548 Z" fill="#000000" fill-rule="nonzero" fill-opacity="1" /><path clip-path="url(#clip220)" d="M779.384 284.052 L779.384 291.413 L788.157 291.413 L788.157 294.724 L779.384 294.724 L779.384 308.798 Q779.384 311.969 780.24 312.872 Q781.12 313.774 783.782 313.774 L788.157 313.774 L788.157 317.339 L783.782 317.339 Q778.851 317.339 776.976 315.51 Q775.101 313.659 775.101 308.798 L775.101 294.724 L771.976 294.724 L771.976 291.413 L775.101 291.413 L775.101 284.052 L779.384 284.052 Z" fill="#000000" fill-rule="nonzero" fill-opacity="1" /><path clip-path="url(#clip220)" d="M793.759 291.413 L798.018 291.413 L798.018 317.339 L793.759 317.339 L793.759 291.413 M793.759 281.321 L798.018 281.321 L798.018 286.714 L793.759 286.714 L793.759 281.321 Z" fill="#000000" fill-rule="nonzero" fill-opacity="1" /><path clip-path="url(#clip220)" d="M816.976 294.399 Q813.55 294.399 811.559 297.085 Q809.569 299.747 809.569 304.399 Q809.569 309.052 811.536 311.737 Q813.527 314.399 816.976 314.399 Q820.379 314.399 822.37 311.714 Q824.36 309.029 824.36 304.399 Q824.36 299.793 822.37 297.108 Q820.379 294.399 816.976 294.399 M816.976 290.788 Q822.532 290.788 825.703 294.399 Q828.874 298.011 828.874 304.399 Q828.874 310.765 825.703 314.399 Q822.532 318.01 816.976 318.01 Q811.397 318.01 808.226 314.399 Q805.078 310.765 805.078 304.399 Q805.078 298.011 808.226 294.399 Q811.397 290.788 816.976 290.788 Z" fill="#000000" fill-rule="nonzero" fill-opacity="1" /><path clip-path="url(#clip220)" d="M857.485 301.691 L857.485 317.339 L853.226 317.339 L853.226 301.83 Q853.226 298.149 851.791 296.321 Q850.356 294.492 847.485 294.492 Q844.036 294.492 842.045 296.691 Q840.055 298.89 840.055 302.686 L840.055 317.339 L835.772 317.339 L835.772 291.413 L840.055 291.413 L840.055 295.441 Q841.582 293.103 843.643 291.946 Q845.726 290.788 848.434 290.788 Q852.902 290.788 855.194 293.566 Q857.485 296.321 857.485 301.691 Z" fill="#000000" fill-rule="nonzero" fill-opacity="1" /></svg>
