<?xml version="1.0" encoding="utf-8"?>
<svg xmlns="http://www.w3.org/2000/svg" xmlns:xlink="http://www.w3.org/1999/xlink" width="600" height="400" viewBox="0 0 2400 1600">
<defs>
  <clipPath id="clip660">
    <rect x="0" y="0" width="2400" height="1600"/>
  </clipPath>
</defs>
<path clip-path="url(#clip660)" d="M0 1600 L2400 1600 L2400 0 L0 0  Z" fill="#ffffff" fill-rule="evenodd" fill-opacity="1"/>
<defs>
  <clipPath id="clip661">
    <rect x="480" y="0" width="1681" height="1600"/>
  </clipPath>
</defs>
<path clip-path="url(#clip660)" d="M219.38 1410.9 L2352.76 1410.9 L2352.76 47.2441 L219.38 47.2441  Z" fill="#ffffff" fill-rule="evenodd" fill-opacity="1"/>
<defs>
  <clipPath id="clip662">
    <rect x="219" y="47" width="2134" height="1365"/>
  </clipPath>
</defs>
<polyline clip-path="url(#clip662)" style="stroke:#000000; stroke-linecap:round; stroke-linejoin:round; stroke-width:2; stroke-opacity:0.1; fill:none" points="279.759,1410.9 279.759,47.2441 "/>
<polyline clip-path="url(#clip662)" style="stroke:#000000; stroke-linecap:round; stroke-linejoin:round; stroke-width:2; stroke-opacity:0.1; fill:none" points="1537.65,1410.9 1537.65,47.2441 "/>
<polyline clip-path="url(#clip660)" style="stroke:#000000; stroke-linecap:round; stroke-linejoin:round; stroke-width:4; stroke-opacity:1; fill:none" points="219.38,1410.9 2352.76,1410.9 "/>
<polyline clip-path="url(#clip660)" style="stroke:#000000; stroke-linecap:round; stroke-linejoin:round; stroke-width:4; stroke-opacity:1; fill:none" points="279.759,1410.9 279.759,1392 "/>
<polyline clip-path="url(#clip660)" style="stroke:#000000; stroke-linecap:round; stroke-linejoin:round; stroke-width:4; stroke-opacity:1; fill:none" points="1537.65,1410.9 1537.65,1392 "/>
<path clip-path="url(#clip660)" d="M217.122 1485.02 L224.761 1485.02 L224.761 1458.66 L216.451 1460.32 L216.451 1456.06 L224.715 1454.4 L229.391 1454.4 L229.391 1485.02 L237.03 1485.02 L237.03 1488.96 L217.122 1488.96 L217.122 1485.02 Z" fill="#000000" fill-rule="nonzero" fill-opacity="1" /><path clip-path="url(#clip660)" d="M256.474 1457.48 Q252.863 1457.48 251.034 1461.04 Q249.229 1464.58 249.229 1471.71 Q249.229 1478.82 251.034 1482.38 Q252.863 1485.92 256.474 1485.92 Q260.108 1485.92 261.914 1482.38 Q263.742 1478.82 263.742 1471.71 Q263.742 1464.58 261.914 1461.04 Q260.108 1457.48 256.474 1457.48 M256.474 1453.77 Q262.284 1453.77 265.34 1458.38 Q268.418 1462.96 268.418 1471.71 Q268.418 1480.44 265.34 1485.04 Q262.284 1489.63 256.474 1489.63 Q250.664 1489.63 247.585 1485.04 Q244.53 1480.44 244.53 1471.71 Q244.53 1462.96 247.585 1458.38 Q250.664 1453.77 256.474 1453.77 Z" fill="#000000" fill-rule="nonzero" fill-opacity="1" /><path clip-path="url(#clip660)" d="M268.418 1447.87 L292.53 1447.87 L292.53 1451.07 L268.418 1451.07 L268.418 1447.87 Z" fill="#000000" fill-rule="nonzero" fill-opacity="1" /><path clip-path="url(#clip660)" d="M301.388 1458.35 L307.595 1458.35 L307.595 1436.93 L300.843 1438.28 L300.843 1434.82 L307.557 1433.47 L311.356 1433.47 L311.356 1458.35 L317.563 1458.35 L317.563 1461.55 L301.388 1461.55 L301.388 1458.35 Z" fill="#000000" fill-rule="nonzero" fill-opacity="1" /><path clip-path="url(#clip660)" d="M333.362 1435.97 Q330.428 1435.97 328.942 1438.86 Q327.475 1441.74 327.475 1447.53 Q327.475 1453.31 328.942 1456.2 Q330.428 1459.08 333.362 1459.08 Q336.314 1459.08 337.781 1456.2 Q339.267 1453.31 339.267 1447.53 Q339.267 1441.74 337.781 1438.86 Q336.314 1435.97 333.362 1435.97 M333.362 1432.96 Q338.082 1432.96 340.565 1436.7 Q343.066 1440.43 343.066 1447.53 Q343.066 1454.62 340.565 1458.37 Q338.082 1462.09 333.362 1462.09 Q328.641 1462.09 326.139 1458.37 Q323.657 1454.62 323.657 1447.53 Q323.657 1440.43 326.139 1436.7 Q328.641 1432.96 333.362 1432.96 Z" fill="#000000" fill-rule="nonzero" fill-opacity="1" /><path clip-path="url(#clip660)" d="M1487.67 1485.02 L1495.31 1485.02 L1495.31 1458.66 L1487 1460.32 L1487 1456.06 L1495.26 1454.4 L1499.94 1454.4 L1499.94 1485.02 L1507.57 1485.02 L1507.57 1488.96 L1487.67 1488.96 L1487.67 1485.02 Z" fill="#000000" fill-rule="nonzero" fill-opacity="1" /><path clip-path="url(#clip660)" d="M1527.02 1457.48 Q1523.41 1457.48 1521.58 1461.04 Q1519.77 1464.58 1519.77 1471.71 Q1519.77 1478.82 1521.58 1482.38 Q1523.41 1485.92 1527.02 1485.92 Q1530.65 1485.92 1532.46 1482.38 Q1534.29 1478.82 1534.29 1471.71 Q1534.29 1464.58 1532.46 1461.04 Q1530.65 1457.48 1527.02 1457.48 M1527.02 1453.77 Q1532.83 1453.77 1535.88 1458.38 Q1538.96 1462.96 1538.96 1471.71 Q1538.96 1480.44 1535.88 1485.04 Q1532.83 1489.63 1527.02 1489.63 Q1521.21 1489.63 1518.13 1485.04 Q1515.07 1480.44 1515.07 1471.71 Q1515.07 1462.96 1518.13 1458.38 Q1521.21 1453.77 1527.02 1453.77 Z" fill="#000000" fill-rule="nonzero" fill-opacity="1" /><path clip-path="url(#clip660)" d="M1538.96 1447.87 L1563.07 1447.87 L1563.07 1451.07 L1538.96 1451.07 L1538.96 1447.87 Z" fill="#000000" fill-rule="nonzero" fill-opacity="1" /><path clip-path="url(#clip660)" d="M1571.31 1433.47 L1586.23 1433.47 L1586.23 1436.66 L1574.79 1436.66 L1574.79 1443.55 Q1575.62 1443.27 1576.45 1443.13 Q1577.27 1442.98 1578.1 1442.98 Q1582.8 1442.98 1585.55 1445.56 Q1588.3 1448.14 1588.3 1452.54 Q1588.3 1457.07 1585.47 1459.59 Q1582.65 1462.09 1577.52 1462.09 Q1575.75 1462.09 1573.91 1461.79 Q1572.08 1461.49 1570.13 1460.89 L1570.13 1457.07 Q1571.82 1457.99 1573.63 1458.44 Q1575.43 1458.89 1577.44 1458.89 Q1580.7 1458.89 1582.6 1457.18 Q1584.5 1455.47 1584.5 1452.54 Q1584.5 1449.6 1582.6 1447.89 Q1580.7 1446.18 1577.44 1446.18 Q1575.92 1446.18 1574.4 1446.52 Q1572.89 1446.86 1571.31 1447.57 L1571.31 1433.47 Z" fill="#000000" fill-rule="nonzero" fill-opacity="1" /><path clip-path="url(#clip660)" d="M1074.95 1539.91 L1074.95 1545.38 Q1072.47 1544.01 1069.95 1543.34 Q1067.47 1542.64 1064.92 1542.64 Q1059.23 1542.64 1056.08 1546.27 Q1052.92 1549.87 1052.92 1556.39 Q1052.92 1562.92 1056.08 1566.55 Q1059.23 1570.14 1064.92 1570.14 Q1067.47 1570.14 1069.95 1569.47 Q1072.47 1568.77 1074.95 1567.41 L1074.95 1572.82 Q1072.5 1573.96 1069.86 1574.54 Q1067.25 1575.11 1064.29 1575.11 Q1056.23 1575.11 1051.49 1570.05 Q1046.75 1564.99 1046.75 1556.39 Q1046.75 1547.67 1051.52 1542.68 Q1056.33 1537.68 1064.67 1537.68 Q1067.37 1537.68 1069.95 1538.25 Q1072.53 1538.79 1074.95 1539.91 Z" fill="#000000" fill-rule="nonzero" fill-opacity="1" /><path clip-path="url(#clip660)" d="M1098.95 1542.64 Q1094.24 1542.64 1091.5 1546.34 Q1088.76 1550 1088.76 1556.39 Q1088.76 1562.79 1091.47 1566.48 Q1094.21 1570.14 1098.95 1570.14 Q1103.63 1570.14 1106.36 1566.45 Q1109.1 1562.76 1109.1 1556.39 Q1109.1 1550.06 1106.36 1546.37 Q1103.63 1542.64 1098.95 1542.64 M1098.95 1537.68 Q1106.59 1537.68 1110.95 1542.64 Q1115.31 1547.61 1115.31 1556.39 Q1115.31 1565.15 1110.95 1570.14 Q1106.59 1575.11 1098.95 1575.11 Q1091.28 1575.11 1086.92 1570.14 Q1082.59 1565.15 1082.59 1556.39 Q1082.59 1547.61 1086.92 1542.64 Q1091.28 1537.68 1098.95 1537.68 Z" fill="#000000" fill-rule="nonzero" fill-opacity="1" /><path clip-path="url(#clip660)" d="M1154.65 1552.67 L1154.65 1574.19 L1148.79 1574.19 L1148.79 1552.86 Q1148.79 1547.8 1146.82 1545.29 Q1144.84 1542.77 1140.9 1542.77 Q1136.16 1542.77 1133.42 1545.79 Q1130.68 1548.82 1130.68 1554.04 L1130.68 1574.19 L1124.79 1574.19 L1124.79 1538.54 L1130.68 1538.54 L1130.68 1544.08 Q1132.78 1540.86 1135.61 1539.27 Q1138.48 1537.68 1142.2 1537.68 Q1148.35 1537.68 1151.5 1541.5 Q1154.65 1545.29 1154.65 1552.67 Z" fill="#000000" fill-rule="nonzero" fill-opacity="1" /><path clip-path="url(#clip660)" d="M1191.98 1539.91 L1191.98 1545.38 Q1189.5 1544.01 1186.99 1543.34 Q1184.5 1542.64 1181.96 1542.64 Q1176.26 1542.64 1173.11 1546.27 Q1169.96 1549.87 1169.96 1556.39 Q1169.96 1562.92 1173.11 1566.55 Q1176.26 1570.14 1181.96 1570.14 Q1184.5 1570.14 1186.99 1569.47 Q1189.5 1568.77 1191.98 1567.41 L1191.98 1572.82 Q1189.53 1573.96 1186.89 1574.54 Q1184.28 1575.11 1181.32 1575.11 Q1173.27 1575.11 1168.53 1570.05 Q1163.78 1564.99 1163.78 1556.39 Q1163.78 1547.67 1168.56 1542.68 Q1173.36 1537.68 1181.7 1537.68 Q1184.41 1537.68 1186.99 1538.25 Q1189.56 1538.79 1191.98 1539.91 Z" fill="#000000" fill-rule="nonzero" fill-opacity="1" /><path clip-path="url(#clip660)" d="M1232.66 1554.9 L1232.66 1557.76 L1205.73 1557.76 Q1206.11 1563.81 1209.36 1566.99 Q1212.64 1570.14 1218.46 1570.14 Q1221.84 1570.14 1224.99 1569.32 Q1228.17 1568.49 1231.29 1566.83 L1231.29 1572.37 Q1228.14 1573.71 1224.83 1574.41 Q1221.52 1575.11 1218.11 1575.11 Q1209.58 1575.11 1204.59 1570.14 Q1199.62 1565.18 1199.62 1556.71 Q1199.62 1547.96 1204.33 1542.83 Q1209.07 1537.68 1217.1 1537.68 Q1224.29 1537.68 1228.46 1542.33 Q1232.66 1546.94 1232.66 1554.9 M1226.8 1553.18 Q1226.74 1548.37 1224.1 1545.51 Q1221.49 1542.64 1217.16 1542.64 Q1212.26 1542.64 1209.3 1545.41 Q1206.37 1548.18 1205.92 1553.21 L1226.8 1553.18 Z" fill="#000000" fill-rule="nonzero" fill-opacity="1" /><path clip-path="url(#clip660)" d="M1271.9 1552.67 L1271.9 1574.19 L1266.05 1574.19 L1266.05 1552.86 Q1266.05 1547.8 1264.07 1545.29 Q1262.1 1542.77 1258.15 1542.77 Q1253.41 1542.77 1250.67 1545.79 Q1247.94 1548.82 1247.94 1554.04 L1247.94 1574.19 L1242.05 1574.19 L1242.05 1538.54 L1247.94 1538.54 L1247.94 1544.08 Q1250.04 1540.86 1252.87 1539.27 Q1255.74 1537.68 1259.46 1537.68 Q1265.6 1537.68 1268.75 1541.5 Q1271.9 1545.29 1271.9 1552.67 Z" fill="#000000" fill-rule="nonzero" fill-opacity="1" /><path clip-path="url(#clip660)" d="M1289.38 1528.42 L1289.38 1538.54 L1301.44 1538.54 L1301.44 1543.09 L1289.38 1543.09 L1289.38 1562.44 Q1289.38 1566.8 1290.56 1568.04 Q1291.77 1569.28 1295.43 1569.28 L1301.44 1569.28 L1301.44 1574.19 L1295.43 1574.19 Q1288.65 1574.19 1286.07 1571.67 Q1283.49 1569.12 1283.49 1562.44 L1283.49 1543.09 L1279.19 1543.09 L1279.19 1538.54 L1283.49 1538.54 L1283.49 1528.42 L1289.38 1528.42 Z" fill="#000000" fill-rule="nonzero" fill-opacity="1" /><path clip-path="url(#clip660)" d="M1329.8 1544.01 Q1328.81 1543.44 1327.64 1543.18 Q1326.49 1542.9 1325.09 1542.9 Q1320.12 1542.9 1317.45 1546.14 Q1314.81 1549.36 1314.81 1555.41 L1314.81 1574.19 L1308.92 1574.19 L1308.92 1538.54 L1314.81 1538.54 L1314.81 1544.08 Q1316.66 1540.83 1319.62 1539.27 Q1322.58 1537.68 1326.81 1537.68 Q1327.41 1537.68 1328.15 1537.77 Q1328.88 1537.84 1329.77 1538 L1329.8 1544.01 Z" fill="#000000" fill-rule="nonzero" fill-opacity="1" /><path clip-path="url(#clip660)" d="M1352.14 1556.27 Q1345.05 1556.27 1342.31 1557.89 Q1339.57 1559.51 1339.57 1563.43 Q1339.57 1566.55 1341.61 1568.39 Q1343.68 1570.21 1347.21 1570.21 Q1352.08 1570.21 1355.01 1566.77 Q1357.97 1563.3 1357.97 1557.57 L1357.97 1556.27 L1352.14 1556.27 M1363.83 1553.85 L1363.83 1574.19 L1357.97 1574.19 L1357.97 1568.77 Q1355.96 1572.02 1352.97 1573.58 Q1349.98 1575.11 1345.65 1575.11 Q1340.18 1575.11 1336.93 1572.05 Q1333.72 1568.97 1333.72 1563.81 Q1333.72 1557.79 1337.73 1554.74 Q1341.77 1551.68 1349.76 1551.68 L1357.97 1551.68 L1357.97 1551.11 Q1357.97 1547.07 1355.3 1544.87 Q1352.65 1542.64 1347.85 1542.64 Q1344.79 1542.64 1341.9 1543.38 Q1339 1544.11 1336.33 1545.57 L1336.33 1540.16 Q1339.54 1538.92 1342.56 1538.31 Q1345.59 1537.68 1348.45 1537.68 Q1356.19 1537.68 1360.01 1541.69 Q1363.83 1545.7 1363.83 1553.85 Z" fill="#000000" fill-rule="nonzero" fill-opacity="1" /><path clip-path="url(#clip660)" d="M1381.68 1528.42 L1381.68 1538.54 L1393.74 1538.54 L1393.74 1543.09 L1381.68 1543.09 L1381.68 1562.44 Q1381.68 1566.8 1382.86 1568.04 Q1384.07 1569.28 1387.73 1569.28 L1393.74 1569.28 L1393.74 1574.19 L1387.73 1574.19 Q1380.95 1574.19 1378.37 1571.67 Q1375.79 1569.12 1375.79 1562.44 L1375.79 1543.09 L1371.5 1543.09 L1371.5 1538.54 L1375.79 1538.54 L1375.79 1528.42 L1381.68 1528.42 Z" fill="#000000" fill-rule="nonzero" fill-opacity="1" /><path clip-path="url(#clip660)" d="M1401.45 1538.54 L1407.3 1538.54 L1407.3 1574.19 L1401.45 1574.19 L1401.45 1538.54 M1401.45 1524.66 L1407.3 1524.66 L1407.3 1532.08 L1401.45 1532.08 L1401.45 1524.66 Z" fill="#000000" fill-rule="nonzero" fill-opacity="1" /><path clip-path="url(#clip660)" d="M1433.37 1542.64 Q1428.66 1542.64 1425.92 1546.34 Q1423.19 1550 1423.19 1556.39 Q1423.19 1562.79 1425.89 1566.48 Q1428.63 1570.14 1433.37 1570.14 Q1438.05 1570.14 1440.79 1566.45 Q1443.52 1562.76 1443.52 1556.39 Q1443.52 1550.06 1440.79 1546.37 Q1438.05 1542.64 1433.37 1542.64 M1433.37 1537.68 Q1441.01 1537.68 1445.37 1542.64 Q1449.73 1547.61 1449.73 1556.39 Q1449.73 1565.15 1445.37 1570.14 Q1441.01 1575.11 1433.37 1575.11 Q1425.7 1575.11 1421.34 1570.14 Q1417.01 1565.15 1417.01 1556.39 Q1417.01 1547.61 1421.34 1542.64 Q1425.7 1537.68 1433.37 1537.68 Z" fill="#000000" fill-rule="nonzero" fill-opacity="1" /><path clip-path="url(#clip660)" d="M1489.07 1552.67 L1489.07 1574.19 L1483.21 1574.19 L1483.21 1552.86 Q1483.21 1547.8 1481.24 1545.29 Q1479.27 1542.77 1475.32 1542.77 Q1470.58 1542.77 1467.84 1545.79 Q1465.1 1548.82 1465.1 1554.04 L1465.1 1574.19 L1459.22 1574.19 L1459.22 1538.54 L1465.1 1538.54 L1465.1 1544.08 Q1467.2 1540.86 1470.04 1539.27 Q1472.9 1537.68 1476.63 1537.68 Q1482.77 1537.68 1485.92 1541.5 Q1489.07 1545.29 1489.07 1552.67 Z" fill="#000000" fill-rule="nonzero" fill-opacity="1" /><path clip-path="url(#clip660)" d="M1523.48 1539.59 L1523.48 1545.13 Q1520.99 1543.85 1518.32 1543.22 Q1515.65 1542.58 1512.78 1542.58 Q1508.42 1542.58 1506.23 1543.92 Q1504.06 1545.25 1504.06 1547.93 Q1504.06 1549.96 1505.62 1551.14 Q1507.18 1552.29 1511.89 1553.34 L1513.9 1553.78 Q1520.14 1555.12 1522.75 1557.57 Q1525.39 1559.99 1525.39 1564.35 Q1525.39 1569.32 1521.44 1572.21 Q1517.53 1575.11 1510.65 1575.11 Q1507.79 1575.11 1504.67 1574.54 Q1501.58 1573.99 1498.14 1572.88 L1498.14 1566.83 Q1501.39 1568.52 1504.54 1569.38 Q1507.69 1570.21 1510.78 1570.21 Q1514.92 1570.21 1517.14 1568.81 Q1519.37 1567.37 1519.37 1564.8 Q1519.37 1562.41 1517.75 1561.14 Q1516.16 1559.86 1510.71 1558.68 L1508.68 1558.21 Q1503.23 1557.06 1500.82 1554.71 Q1498.4 1552.32 1498.4 1548.18 Q1498.4 1543.15 1501.96 1540.42 Q1505.53 1537.68 1512.08 1537.68 Q1515.33 1537.68 1518.19 1538.16 Q1521.06 1538.63 1523.48 1539.59 Z" fill="#000000" fill-rule="nonzero" fill-opacity="1" /><polyline clip-path="url(#clip662)" style="stroke:#000000; stroke-linecap:round; stroke-linejoin:round; stroke-width:2; stroke-opacity:0.1; fill:none" points="219.38,1372.42 2352.76,1372.42 "/>
<polyline clip-path="url(#clip662)" style="stroke:#000000; stroke-linecap:round; stroke-linejoin:round; stroke-width:2; stroke-opacity:0.1; fill:none" points="219.38,1087.36 2352.76,1087.36 "/>
<polyline clip-path="url(#clip662)" style="stroke:#000000; stroke-linecap:round; stroke-linejoin:round; stroke-width:2; stroke-opacity:0.1; fill:none" points="219.38,802.293 2352.76,802.293 "/>
<polyline clip-path="url(#clip662)" style="stroke:#000000; stroke-linecap:round; stroke-linejoin:round; stroke-width:2; stroke-opacity:0.1; fill:none" points="219.38,517.23 2352.76,517.23 "/>
<polyline clip-path="url(#clip662)" style="stroke:#000000; stroke-linecap:round; stroke-linejoin:round; stroke-width:2; stroke-opacity:0.1; fill:none" points="219.38,232.166 2352.76,232.166 "/>
<polyline clip-path="url(#clip660)" style="stroke:#000000; stroke-linecap:round; stroke-linejoin:round; stroke-width:4; stroke-opacity:1; fill:none" points="219.38,1410.9 219.38,47.2441 "/>
<polyline clip-path="url(#clip660)" style="stroke:#000000; stroke-linecap:round; stroke-linejoin:round; stroke-width:4; stroke-opacity:1; fill:none" points="219.38,1372.42 238.278,1372.42 "/>
<polyline clip-path="url(#clip660)" style="stroke:#000000; stroke-linecap:round; stroke-linejoin:round; stroke-width:4; stroke-opacity:1; fill:none" points="219.38,1087.36 238.278,1087.36 "/>
<polyline clip-path="url(#clip660)" style="stroke:#000000; stroke-linecap:round; stroke-linejoin:round; stroke-width:4; stroke-opacity:1; fill:none" points="219.38,802.293 238.278,802.293 "/>
<polyline clip-path="url(#clip660)" style="stroke:#000000; stroke-linecap:round; stroke-linejoin:round; stroke-width:4; stroke-opacity:1; fill:none" points="219.38,517.23 238.278,517.23 "/>
<polyline clip-path="url(#clip660)" style="stroke:#000000; stroke-linecap:round; stroke-linejoin:round; stroke-width:4; stroke-opacity:1; fill:none" points="219.38,232.166 238.278,232.166 "/>
<path clip-path="url(#clip660)" d="M126.205 1358.22 Q122.593 1358.22 120.765 1361.78 Q118.959 1365.33 118.959 1372.46 Q118.959 1379.56 120.765 1383.13 Q122.593 1386.67 126.205 1386.67 Q129.839 1386.67 131.644 1383.13 Q133.473 1379.56 133.473 1372.46 Q133.473 1365.33 131.644 1361.78 Q129.839 1358.22 126.205 1358.22 M126.205 1354.52 Q132.015 1354.52 135.07 1359.12 Q138.149 1363.71 138.149 1372.46 Q138.149 1381.18 135.07 1385.79 Q132.015 1390.37 126.205 1390.37 Q120.394 1390.37 117.316 1385.79 Q114.26 1381.18 114.26 1372.46 Q114.26 1363.71 117.316 1359.12 Q120.394 1354.52 126.205 1354.52 Z" fill="#000000" fill-rule="nonzero" fill-opacity="1" /><path clip-path="url(#clip660)" d="M146.366 1383.82 L151.251 1383.82 L151.251 1389.7 L146.366 1389.7 L146.366 1383.82 Z" fill="#000000" fill-rule="nonzero" fill-opacity="1" /><path clip-path="url(#clip660)" d="M171.436 1358.22 Q167.825 1358.22 165.996 1361.78 Q164.19 1365.33 164.19 1372.46 Q164.19 1379.56 165.996 1383.13 Q167.825 1386.67 171.436 1386.67 Q175.07 1386.67 176.876 1383.13 Q178.704 1379.56 178.704 1372.46 Q178.704 1365.33 176.876 1361.78 Q175.07 1358.22 171.436 1358.22 M171.436 1354.52 Q177.246 1354.52 180.301 1359.12 Q183.38 1363.71 183.38 1372.46 Q183.38 1381.18 180.301 1385.79 Q177.246 1390.37 171.436 1390.37 Q165.626 1390.37 162.547 1385.79 Q159.491 1381.18 159.491 1372.46 Q159.491 1363.71 162.547 1359.12 Q165.626 1354.52 171.436 1354.52 Z" fill="#000000" fill-rule="nonzero" fill-opacity="1" /><path clip-path="url(#clip660)" d="M127.2 1073.16 Q123.589 1073.16 121.76 1076.72 Q119.955 1080.26 119.955 1087.39 Q119.955 1094.5 121.76 1098.06 Q123.589 1101.6 127.2 1101.6 Q130.834 1101.6 132.64 1098.06 Q134.468 1094.5 134.468 1087.39 Q134.468 1080.26 132.64 1076.72 Q130.834 1073.16 127.2 1073.16 M127.2 1069.45 Q133.01 1069.45 136.066 1074.06 Q139.144 1078.64 139.144 1087.39 Q139.144 1096.12 136.066 1100.73 Q133.01 1105.31 127.2 1105.31 Q121.39 1105.31 118.311 1100.73 Q115.256 1096.12 115.256 1087.39 Q115.256 1078.64 118.311 1074.06 Q121.39 1069.45 127.2 1069.45 Z" fill="#000000" fill-rule="nonzero" fill-opacity="1" /><path clip-path="url(#clip660)" d="M147.362 1098.76 L152.246 1098.76 L152.246 1104.64 L147.362 1104.64 L147.362 1098.76 Z" fill="#000000" fill-rule="nonzero" fill-opacity="1" /><path clip-path="url(#clip660)" d="M162.477 1070.08 L180.834 1070.08 L180.834 1074.01 L166.76 1074.01 L166.76 1082.48 Q167.778 1082.14 168.797 1081.98 Q169.815 1081.79 170.834 1081.79 Q176.621 1081.79 180.001 1084.96 Q183.38 1088.13 183.38 1093.55 Q183.38 1099.13 179.908 1102.23 Q176.436 1105.31 170.116 1105.31 Q167.94 1105.31 165.672 1104.94 Q163.427 1104.57 161.019 1103.83 L161.019 1099.13 Q163.102 1100.26 165.325 1100.82 Q167.547 1101.37 170.024 1101.37 Q174.028 1101.37 176.366 1099.27 Q178.704 1097.16 178.704 1093.55 Q178.704 1089.94 176.366 1087.83 Q174.028 1085.73 170.024 1085.73 Q168.149 1085.73 166.274 1086.14 Q164.422 1086.56 162.477 1087.44 L162.477 1070.08 Z" fill="#000000" fill-rule="nonzero" fill-opacity="1" /><path clip-path="url(#clip660)" d="M117.015 815.638 L124.654 815.638 L124.654 789.273 L116.343 790.939 L116.343 786.68 L124.607 785.013 L129.283 785.013 L129.283 815.638 L136.922 815.638 L136.922 819.573 L117.015 819.573 L117.015 815.638 Z" fill="#000000" fill-rule="nonzero" fill-opacity="1" /><path clip-path="url(#clip660)" d="M146.366 813.694 L151.251 813.694 L151.251 819.573 L146.366 819.573 L146.366 813.694 Z" fill="#000000" fill-rule="nonzero" fill-opacity="1" /><path clip-path="url(#clip660)" d="M171.436 788.092 Q167.825 788.092 165.996 791.657 Q164.19 795.199 164.19 802.328 Q164.19 809.435 165.996 812.999 Q167.825 816.541 171.436 816.541 Q175.07 816.541 176.876 812.999 Q178.704 809.435 178.704 802.328 Q178.704 795.199 176.876 791.657 Q175.07 788.092 171.436 788.092 M171.436 784.388 Q177.246 784.388 180.301 788.995 Q183.38 793.578 183.38 802.328 Q183.38 811.055 180.301 815.661 Q177.246 820.245 171.436 820.245 Q165.626 820.245 162.547 815.661 Q159.491 811.055 159.491 802.328 Q159.491 793.578 162.547 788.995 Q165.626 784.388 171.436 784.388 Z" fill="#000000" fill-rule="nonzero" fill-opacity="1" /><path clip-path="url(#clip660)" d="M118.01 530.574 L125.649 530.574 L125.649 504.209 L117.339 505.875 L117.339 501.616 L125.603 499.95 L130.279 499.95 L130.279 530.574 L137.917 530.574 L137.917 534.51 L118.01 534.51 L118.01 530.574 Z" fill="#000000" fill-rule="nonzero" fill-opacity="1" /><path clip-path="url(#clip660)" d="M147.362 528.63 L152.246 528.63 L152.246 534.51 L147.362 534.51 L147.362 528.63 Z" fill="#000000" fill-rule="nonzero" fill-opacity="1" /><path clip-path="url(#clip660)" d="M162.477 499.95 L180.834 499.95 L180.834 503.885 L166.76 503.885 L166.76 512.357 Q167.778 512.01 168.797 511.848 Q169.815 511.662 170.834 511.662 Q176.621 511.662 180.001 514.834 Q183.38 518.005 183.38 523.422 Q183.38 529 179.908 532.102 Q176.436 535.181 170.116 535.181 Q167.94 535.181 165.672 534.81 Q163.427 534.44 161.019 533.699 L161.019 529 Q163.102 530.135 165.325 530.69 Q167.547 531.246 170.024 531.246 Q174.028 531.246 176.366 529.139 Q178.704 527.033 178.704 523.422 Q178.704 519.811 176.366 517.704 Q174.028 515.598 170.024 515.598 Q168.149 515.598 166.274 516.014 Q164.422 516.431 162.477 517.311 L162.477 499.95 Z" fill="#000000" fill-rule="nonzero" fill-opacity="1" /><path clip-path="url(#clip660)" d="M120.232 245.51 L136.552 245.51 L136.552 249.446 L114.607 249.446 L114.607 245.51 Q117.269 242.756 121.853 238.126 Q126.459 233.474 127.64 232.131 Q129.885 229.608 130.765 227.872 Q131.667 226.112 131.667 224.423 Q131.667 221.668 129.723 219.932 Q127.802 218.196 124.7 218.196 Q122.501 218.196 120.047 218.96 Q117.617 219.724 114.839 221.275 L114.839 216.552 Q117.663 215.418 120.117 214.839 Q122.57 214.261 124.607 214.261 Q129.978 214.261 133.172 216.946 Q136.367 219.631 136.367 224.122 Q136.367 226.251 135.556 228.173 Q134.769 230.071 132.663 232.663 Q132.084 233.335 128.982 236.552 Q125.88 239.747 120.232 245.51 Z" fill="#000000" fill-rule="nonzero" fill-opacity="1" /><path clip-path="url(#clip660)" d="M146.366 243.566 L151.251 243.566 L151.251 249.446 L146.366 249.446 L146.366 243.566 Z" fill="#000000" fill-rule="nonzero" fill-opacity="1" /><path clip-path="url(#clip660)" d="M171.436 217.964 Q167.825 217.964 165.996 221.529 Q164.19 225.071 164.19 232.2 Q164.19 239.307 165.996 242.872 Q167.825 246.413 171.436 246.413 Q175.07 246.413 176.876 242.872 Q178.704 239.307 178.704 232.2 Q178.704 225.071 176.876 221.529 Q175.07 217.964 171.436 217.964 M171.436 214.261 Q177.246 214.261 180.301 218.867 Q183.38 223.45 183.38 232.2 Q183.38 240.927 180.301 245.534 Q177.246 250.117 171.436 250.117 Q165.626 250.117 162.547 245.534 Q159.491 240.927 159.491 232.2 Q159.491 223.45 162.547 218.867 Q165.626 214.261 171.436 214.261 Z" fill="#000000" fill-rule="nonzero" fill-opacity="1" /><path clip-path="url(#clip660)" d="M33.8307 851.531 Q33.2578 852.517 33.0032 853.695 Q32.7167 854.841 32.7167 856.241 Q32.7167 861.207 35.9632 863.88 Q39.1779 866.522 45.2253 866.522 L64.0042 866.522 L64.0042 872.41 L28.3562 872.41 L28.3562 866.522 L33.8944 866.522 Q30.6479 864.676 29.0883 861.716 Q27.4968 858.756 27.4968 854.523 Q27.4968 853.918 27.5923 853.186 Q27.656 852.454 27.8151 851.562 L33.8307 851.531 Z" fill="#000000" fill-rule="nonzero" fill-opacity="1" /><path clip-path="url(#clip660)" d="M44.7161 816.328 L47.5806 816.328 L47.5806 843.255 Q53.6281 842.873 56.8109 839.627 Q59.9619 836.348 59.9619 830.524 Q59.9619 827.15 59.1344 823.999 Q58.3069 820.816 56.6518 817.697 L62.1899 817.697 Q63.5267 820.848 64.227 824.158 Q64.9272 827.468 64.9272 830.874 Q64.9272 839.404 59.9619 844.401 Q54.9967 849.366 46.5303 849.366 Q37.7774 849.366 32.6531 844.656 Q27.4968 839.913 27.4968 831.892 Q27.4968 824.699 32.1438 820.53 Q36.7589 816.328 44.7161 816.328 M42.9973 822.185 Q38.1912 822.248 35.3266 824.89 Q32.4621 827.5 32.4621 831.829 Q32.4621 836.73 35.2312 839.69 Q38.0002 842.619 43.0292 843.064 L42.9973 822.185 Z" fill="#000000" fill-rule="nonzero" fill-opacity="1" /><path clip-path="url(#clip660)" d="M29.4065 783.991 L34.9447 783.991 Q33.6716 786.473 33.035 789.147 Q32.3984 791.82 32.3984 794.685 Q32.3984 799.045 33.7352 801.242 Q35.072 803.406 37.7456 803.406 Q39.7826 803.406 40.9603 801.846 Q42.1061 800.287 43.1565 795.576 L43.6021 793.571 Q44.9389 787.332 47.3897 784.723 Q49.8086 782.081 54.1691 782.081 Q59.1344 782.081 62.0308 786.028 Q64.9272 789.942 64.9272 796.817 Q64.9272 799.682 64.3543 802.801 Q63.8132 805.889 62.6992 809.326 L56.6518 809.326 Q58.3387 806.08 59.198 802.928 Q60.0256 799.777 60.0256 796.69 Q60.0256 792.552 58.6251 790.324 Q57.1929 788.096 54.6147 788.096 Q52.2276 788.096 50.9545 789.72 Q49.6813 791.311 48.5037 796.754 L48.0262 798.791 Q46.8804 804.233 44.5251 806.652 Q42.138 809.071 38.0002 809.071 Q32.9713 809.071 30.2341 805.507 Q27.4968 801.942 27.4968 795.385 Q27.4968 792.139 27.9743 789.274 Q28.4517 786.409 29.4065 783.991 Z" fill="#000000" fill-rule="nonzero" fill-opacity="1" /><path clip-path="url(#clip660)" d="M58.657 767.09 L77.5631 767.09 L77.5631 772.978 L28.3562 772.978 L28.3562 767.09 L33.7671 767.09 Q30.5842 765.243 29.0564 762.443 Q27.4968 759.61 27.4968 755.695 Q27.4968 749.202 32.6531 745.16 Q37.8093 741.086 46.212 741.086 Q54.6147 741.086 59.771 745.16 Q64.9272 749.202 64.9272 755.695 Q64.9272 759.61 63.3994 762.443 Q61.8398 765.243 58.657 767.09 M46.212 747.165 Q39.7508 747.165 36.0905 749.838 Q32.3984 752.48 32.3984 757.127 Q32.3984 761.774 36.0905 764.448 Q39.7508 767.09 46.212 767.09 Q52.6732 767.09 56.3653 764.448 Q60.0256 761.774 60.0256 757.127 Q60.0256 752.48 56.3653 749.838 Q52.6732 747.165 46.212 747.165 Z" fill="#000000" fill-rule="nonzero" fill-opacity="1" /><path clip-path="url(#clip660)" d="M32.4621 717.564 Q32.4621 722.275 36.1542 725.012 Q39.8145 727.749 46.212 727.749 Q52.6095 727.749 56.3017 725.044 Q59.9619 722.307 59.9619 717.564 Q59.9619 712.886 56.2698 710.148 Q52.5777 707.411 46.212 707.411 Q39.8781 707.411 36.186 710.148 Q32.4621 712.886 32.4621 717.564 M27.4968 717.564 Q27.4968 709.926 32.4621 705.565 Q37.4273 701.204 46.212 701.204 Q54.9649 701.204 59.9619 705.565 Q64.9272 709.926 64.9272 717.564 Q64.9272 725.235 59.9619 729.596 Q54.9649 733.924 46.212 733.924 Q37.4273 733.924 32.4621 729.596 Q27.4968 725.235 27.4968 717.564 Z" fill="#000000" fill-rule="nonzero" fill-opacity="1" /><path clip-path="url(#clip660)" d="M42.4881 661.864 L64.0042 661.864 L64.0042 667.721 L42.679 667.721 Q37.6183 667.721 35.1038 669.694 Q32.5894 671.668 32.5894 675.614 Q32.5894 680.357 35.6131 683.094 Q38.6368 685.831 43.8567 685.831 L64.0042 685.831 L64.0042 691.72 L28.3562 691.72 L28.3562 685.831 L33.8944 685.831 Q30.6797 683.731 29.0883 680.898 Q27.4968 678.033 27.4968 674.309 Q27.4968 668.166 31.3163 665.015 Q35.1038 661.864 42.4881 661.864 Z" fill="#000000" fill-rule="nonzero" fill-opacity="1" /><path clip-path="url(#clip660)" d="M29.4065 627.458 L34.9447 627.458 Q33.6716 629.94 33.035 632.614 Q32.3984 635.288 32.3984 638.152 Q32.3984 642.513 33.7352 644.709 Q35.072 646.873 37.7456 646.873 Q39.7826 646.873 40.9603 645.314 Q42.1061 643.754 43.1565 639.043 L43.6021 637.038 Q44.9389 630.8 47.3897 628.19 Q49.8086 625.548 54.1691 625.548 Q59.1344 625.548 62.0308 629.495 Q64.9272 633.41 64.9272 640.285 Q64.9272 643.149 64.3543 646.268 Q63.8132 649.356 62.6992 652.793 L56.6518 652.793 Q58.3387 649.547 59.198 646.396 Q60.0256 643.245 60.0256 640.157 Q60.0256 636.02 58.6251 633.792 Q57.1929 631.564 54.6147 631.564 Q52.2276 631.564 50.9545 633.187 Q49.6813 634.778 48.5037 640.221 L48.0262 642.258 Q46.8804 647.701 44.5251 650.12 Q42.138 652.539 38.0002 652.539 Q32.9713 652.539 30.2341 648.974 Q27.4968 645.409 27.4968 638.852 Q27.4968 635.606 27.9743 632.741 Q28.4517 629.877 29.4065 627.458 Z" fill="#000000" fill-rule="nonzero" fill-opacity="1" /><path clip-path="url(#clip660)" d="M44.7161 585.731 L47.5806 585.731 L47.5806 612.658 Q53.6281 612.276 56.8109 609.029 Q59.9619 605.751 59.9619 599.926 Q59.9619 596.552 59.1344 593.401 Q58.3069 590.218 56.6518 587.099 L62.1899 587.099 Q63.5267 590.25 64.227 593.56 Q64.9272 596.871 64.9272 600.276 Q64.9272 608.806 59.9619 613.803 Q54.9967 618.769 46.5303 618.769 Q37.7774 618.769 32.6531 614.058 Q27.4968 609.316 27.4968 601.295 Q27.4968 594.101 32.1438 589.932 Q36.7589 585.731 44.7161 585.731 M42.9973 591.587 Q38.1912 591.651 35.3266 594.292 Q32.4621 596.902 32.4621 601.231 Q32.4621 606.133 35.2312 609.093 Q38.0002 612.021 43.0292 612.467 L42.9973 591.587 Z" fill="#000000" fill-rule="nonzero" fill-opacity="1" /><circle clip-path="url(#clip662)" cx="279.759" cy="1372.29" r="14.4" fill="#000000" fill-rule="evenodd" fill-opacity="0.2" stroke="none"/>
<circle clip-path="url(#clip662)" cx="413.933" cy="1372.01" r="14.4" fill="#000000" fill-rule="evenodd" fill-opacity="0.2" stroke="none"/>
<circle clip-path="url(#clip662)" cx="548.108" cy="1371.15" r="14.4" fill="#000000" fill-rule="evenodd" fill-opacity="0.2" stroke="none"/>
<circle clip-path="url(#clip662)" cx="682.282" cy="1367.75" r="14.4" fill="#000000" fill-rule="evenodd" fill-opacity="0.2" stroke="none"/>
<circle clip-path="url(#clip662)" cx="816.457" cy="1359.92" r="14.4" fill="#000000" fill-rule="evenodd" fill-opacity="0.2" stroke="none"/>
<circle clip-path="url(#clip662)" cx="950.632" cy="1333.85" r="14.4" fill="#000000" fill-rule="evenodd" fill-opacity="0.2" stroke="none"/>
<circle clip-path="url(#clip662)" cx="1084.81" cy="1257.37" r="14.4" fill="#000000" fill-rule="evenodd" fill-opacity="0.2" stroke="none"/>
<circle clip-path="url(#clip662)" cx="1218.98" cy="1110.24" r="14.4" fill="#000000" fill-rule="evenodd" fill-opacity="0.2" stroke="none"/>
<circle clip-path="url(#clip662)" cx="1353.16" cy="888.819" r="14.4" fill="#000000" fill-rule="evenodd" fill-opacity="0.2" stroke="none"/>
<circle clip-path="url(#clip662)" cx="1487.33" cy="764.073" r="14.4" fill="#000000" fill-rule="evenodd" fill-opacity="0.2" stroke="none"/>
<circle clip-path="url(#clip662)" cx="1621.5" cy="627.866" r="14.4" fill="#000000" fill-rule="evenodd" fill-opacity="0.2" stroke="none"/>
<circle clip-path="url(#clip662)" cx="1755.68" cy="482.353" r="14.4" fill="#000000" fill-rule="evenodd" fill-opacity="0.2" stroke="none"/>
<circle clip-path="url(#clip662)" cx="1889.85" cy="282.145" r="14.4" fill="#000000" fill-rule="evenodd" fill-opacity="0.2" stroke="none"/>
<circle clip-path="url(#clip662)" cx="2024.03" cy="232.303" r="14.4" fill="#000000" fill-rule="evenodd" fill-opacity="0.2" stroke="none"/>
<circle clip-path="url(#clip662)" cx="2158.2" cy="85.838" r="14.4" fill="#000000" fill-rule="evenodd" fill-opacity="0.2" stroke="none"/>
<circle clip-path="url(#clip662)" cx="2292.38" cy="175.683" r="14.4" fill="#000000" fill-rule="evenodd" fill-opacity="0.2" stroke="none"/>
<circle clip-path="url(#clip662)" cx="279.759" cy="1372.3" r="14.4" fill="#000000" fill-rule="evenodd" fill-opacity="0.2" stroke="none"/>
<circle clip-path="url(#clip662)" cx="413.933" cy="1371.94" r="14.4" fill="#000000" fill-rule="evenodd" fill-opacity="0.2" stroke="none"/>
<circle clip-path="url(#clip662)" cx="548.108" cy="1371.19" r="14.4" fill="#000000" fill-rule="evenodd" fill-opacity="0.2" stroke="none"/>
<circle clip-path="url(#clip662)" cx="682.282" cy="1368.27" r="14.4" fill="#000000" fill-rule="evenodd" fill-opacity="0.2" stroke="none"/>
<circle clip-path="url(#clip662)" cx="816.457" cy="1360.05" r="14.4" fill="#000000" fill-rule="evenodd" fill-opacity="0.2" stroke="none"/>
<circle clip-path="url(#clip662)" cx="950.632" cy="1335.53" r="14.4" fill="#000000" fill-rule="evenodd" fill-opacity="0.2" stroke="none"/>
<circle clip-path="url(#clip662)" cx="1084.81" cy="1257.75" r="14.4" fill="#000000" fill-rule="evenodd" fill-opacity="0.2" stroke="none"/>
<circle clip-path="url(#clip662)" cx="1218.98" cy="1110.48" r="14.4" fill="#000000" fill-rule="evenodd" fill-opacity="0.2" stroke="none"/>
<circle clip-path="url(#clip662)" cx="1353.16" cy="872.105" r="14.4" fill="#000000" fill-rule="evenodd" fill-opacity="0.2" stroke="none"/>
<circle clip-path="url(#clip662)" cx="1487.33" cy="696.291" r="14.4" fill="#000000" fill-rule="evenodd" fill-opacity="0.2" stroke="none"/>
<circle clip-path="url(#clip662)" cx="1621.5" cy="669.579" r="14.4" fill="#000000" fill-rule="evenodd" fill-opacity="0.2" stroke="none"/>
<circle clip-path="url(#clip662)" cx="1755.68" cy="401.363" r="14.4" fill="#000000" fill-rule="evenodd" fill-opacity="0.2" stroke="none"/>
<circle clip-path="url(#clip662)" cx="1889.85" cy="165.392" r="14.4" fill="#000000" fill-rule="evenodd" fill-opacity="0.2" stroke="none"/>
<circle clip-path="url(#clip662)" cx="2024.03" cy="210.476" r="14.4" fill="#000000" fill-rule="evenodd" fill-opacity="0.2" stroke="none"/>
<circle clip-path="url(#clip662)" cx="2158.2" cy="249.412" r="14.4" fill="#000000" fill-rule="evenodd" fill-opacity="0.2" stroke="none"/>
<circle clip-path="url(#clip662)" cx="2292.38" cy="175.479" r="14.4" fill="#000000" fill-rule="evenodd" fill-opacity="0.2" stroke="none"/>
<circle clip-path="url(#clip662)" cx="279.759" cy="1372.3" r="14.4" fill="#000000" fill-rule="evenodd" fill-opacity="0.2" stroke="none"/>
<circle clip-path="url(#clip662)" cx="413.933" cy="1372" r="14.4" fill="#000000" fill-rule="evenodd" fill-opacity="0.2" stroke="none"/>
<circle clip-path="url(#clip662)" cx="548.108" cy="1371.01" r="14.4" fill="#000000" fill-rule="evenodd" fill-opacity="0.2" stroke="none"/>
<circle clip-path="url(#clip662)" cx="682.282" cy="1368.44" r="14.4" fill="#000000" fill-rule="evenodd" fill-opacity="0.2" stroke="none"/>
<circle clip-path="url(#clip662)" cx="816.457" cy="1359.07" r="14.4" fill="#000000" fill-rule="evenodd" fill-opacity="0.2" stroke="none"/>
<circle clip-path="url(#clip662)" cx="950.632" cy="1331.56" r="14.4" fill="#000000" fill-rule="evenodd" fill-opacity="0.2" stroke="none"/>
<circle clip-path="url(#clip662)" cx="1084.81" cy="1260.14" r="14.4" fill="#000000" fill-rule="evenodd" fill-opacity="0.2" stroke="none"/>
<circle clip-path="url(#clip662)" cx="1218.98" cy="1064.83" r="14.4" fill="#000000" fill-rule="evenodd" fill-opacity="0.2" stroke="none"/>
<circle clip-path="url(#clip662)" cx="1353.16" cy="878.503" r="14.4" fill="#000000" fill-rule="evenodd" fill-opacity="0.2" stroke="none"/>
<circle clip-path="url(#clip662)" cx="1487.33" cy="764.05" r="14.4" fill="#000000" fill-rule="evenodd" fill-opacity="0.2" stroke="none"/>
<circle clip-path="url(#clip662)" cx="1621.5" cy="644.437" r="14.4" fill="#000000" fill-rule="evenodd" fill-opacity="0.2" stroke="none"/>
<circle clip-path="url(#clip662)" cx="1755.68" cy="504.723" r="14.4" fill="#000000" fill-rule="evenodd" fill-opacity="0.2" stroke="none"/>
<circle clip-path="url(#clip662)" cx="1889.85" cy="107.396" r="14.4" fill="#000000" fill-rule="evenodd" fill-opacity="0.2" stroke="none"/>
<circle clip-path="url(#clip662)" cx="2024.03" cy="188.004" r="14.4" fill="#000000" fill-rule="evenodd" fill-opacity="0.2" stroke="none"/>
<circle clip-path="url(#clip662)" cx="2158.2" cy="140.476" r="14.4" fill="#000000" fill-rule="evenodd" fill-opacity="0.2" stroke="none"/>
<circle clip-path="url(#clip662)" cx="2292.38" cy="127.889" r="14.4" fill="#000000" fill-rule="evenodd" fill-opacity="0.2" stroke="none"/>
<polyline clip-path="url(#clip662)" style="stroke:#e26f46; stroke-linecap:round; stroke-linejoin:round; stroke-width:4; stroke-opacity:1; fill:none" points="279.759,1372.3 413.933,1372.03 548.108,1371.12 682.282,1368.18 816.457,1359.39 950.632,1333.67 1084.81,1258.59 1218.98,1089.8 1353.16,879.695 1487.33,751.365 1621.5,644.171 1755.68,455.353 1889.85,271.014 2024.03,205.675 2158.2,184.378 2292.38,159.198 "/>
<circle clip-path="url(#clip662)" cx="279.759" cy="1372.3" r="14.4" fill="#009af9" fill-rule="evenodd" fill-opacity="1" stroke="#000000" stroke-opacity="1" stroke-width="3.2"/>
<circle clip-path="url(#clip662)" cx="413.933" cy="1371.98" r="14.4" fill="#009af9" fill-rule="evenodd" fill-opacity="1" stroke="#000000" stroke-opacity="1" stroke-width="3.2"/>
<circle clip-path="url(#clip662)" cx="548.108" cy="1371.12" r="14.4" fill="#009af9" fill-rule="evenodd" fill-opacity="1" stroke="#000000" stroke-opacity="1" stroke-width="3.2"/>
<circle clip-path="url(#clip662)" cx="682.282" cy="1368.16" r="14.4" fill="#009af9" fill-rule="evenodd" fill-opacity="1" stroke="#000000" stroke-opacity="1" stroke-width="3.2"/>
<circle clip-path="url(#clip662)" cx="816.457" cy="1359.68" r="14.4" fill="#009af9" fill-rule="evenodd" fill-opacity="1" stroke="#000000" stroke-opacity="1" stroke-width="3.2"/>
<circle clip-path="url(#clip662)" cx="950.632" cy="1333.65" r="14.4" fill="#009af9" fill-rule="evenodd" fill-opacity="1" stroke="#000000" stroke-opacity="1" stroke-width="3.2"/>
<circle clip-path="url(#clip662)" cx="1084.81" cy="1258.42" r="14.4" fill="#009af9" fill-rule="evenodd" fill-opacity="1" stroke="#000000" stroke-opacity="1" stroke-width="3.2"/>
<circle clip-path="url(#clip662)" cx="1218.98" cy="1095.18" r="14.4" fill="#009af9" fill-rule="evenodd" fill-opacity="1" stroke="#000000" stroke-opacity="1" stroke-width="3.2"/>
<circle clip-path="url(#clip662)" cx="1353.16" cy="879.809" r="14.4" fill="#009af9" fill-rule="evenodd" fill-opacity="1" stroke="#000000" stroke-opacity="1" stroke-width="3.2"/>
<circle clip-path="url(#clip662)" cx="1487.33" cy="741.472" r="14.4" fill="#009af9" fill-rule="evenodd" fill-opacity="1" stroke="#000000" stroke-opacity="1" stroke-width="3.2"/>
<circle clip-path="url(#clip662)" cx="1621.5" cy="647.294" r="14.4" fill="#009af9" fill-rule="evenodd" fill-opacity="1" stroke="#000000" stroke-opacity="1" stroke-width="3.2"/>
<circle clip-path="url(#clip662)" cx="1755.68" cy="462.813" r="14.4" fill="#009af9" fill-rule="evenodd" fill-opacity="1" stroke="#000000" stroke-opacity="1" stroke-width="3.2"/>
<circle clip-path="url(#clip662)" cx="1889.85" cy="184.978" r="14.4" fill="#009af9" fill-rule="evenodd" fill-opacity="1" stroke="#000000" stroke-opacity="1" stroke-width="3.2"/>
<circle clip-path="url(#clip662)" cx="2024.03" cy="210.261" r="14.4" fill="#009af9" fill-rule="evenodd" fill-opacity="1" stroke="#000000" stroke-opacity="1" stroke-width="3.2"/>
<circle clip-path="url(#clip662)" cx="2158.2" cy="158.575" r="14.4" fill="#009af9" fill-rule="evenodd" fill-opacity="1" stroke="#000000" stroke-opacity="1" stroke-width="3.2"/>
<circle clip-path="url(#clip662)" cx="2292.38" cy="159.684" r="14.4" fill="#009af9" fill-rule="evenodd" fill-opacity="1" stroke="#000000" stroke-opacity="1" stroke-width="3.2"/>
</svg>
