<?xml version="1.0" encoding="utf-8"?>
<svg xmlns="http://www.w3.org/2000/svg" xmlns:xlink="http://www.w3.org/1999/xlink" width="600" height="400" viewBox="0 0 2400 1600">
<defs>
  <clipPath id="clip600">
    <rect x="0" y="0" width="2400" height="1600"/>
  </clipPath>
</defs>
<path clip-path="url(#clip600)" d="M0 1600 L2400 1600 L2400 0 L0 0  Z" fill="#ffffff" fill-rule="evenodd" fill-opacity="1"/>
<defs>
  <clipPath id="clip601">
    <rect x="480" y="0" width="1681" height="1600"/>
  </clipPath>
</defs>
<path clip-path="url(#clip600)" d="M219.38 1410.9 L2352.76 1410.9 L2352.76 47.2441 L219.38 47.2441  Z" fill="#ffffff" fill-rule="evenodd" fill-opacity="1"/>
<defs>
  <clipPath id="clip602">
    <rect x="219" y="47" width="2134" height="1365"/>
  </clipPath>
</defs>
<polyline clip-path="url(#clip602)" style="stroke:#000000; stroke-linecap:round; stroke-linejoin:round; stroke-width:2; stroke-opacity:0.1; fill:none" points="279.759,1410.9 279.759,47.2441 "/>
<polyline clip-path="url(#clip602)" style="stroke:#000000; stroke-linecap:round; stroke-linejoin:round; stroke-width:2; stroke-opacity:0.1; fill:none" points="1537.65,1410.9 1537.65,47.2441 "/>
<polyline clip-path="url(#clip600)" style="stroke:#000000; stroke-linecap:round; stroke-linejoin:round; stroke-width:4; stroke-opacity:1; fill:none" points="219.38,1410.9 2352.76,1410.9 "/>
<polyline clip-path="url(#clip600)" style="stroke:#000000; stroke-linecap:round; stroke-linejoin:round; stroke-width:4; stroke-opacity:1; fill:none" points="279.759,1410.9 279.759,1392 "/>
<polyline clip-path="url(#clip600)" style="stroke:#000000; stroke-linecap:round; stroke-linejoin:round; stroke-width:4; stroke-opacity:1; fill:none" points="1537.65,1410.9 1537.65,1392 "/>
<path clip-path="url(#clip600)" d="M217.122 1485.02 L224.761 1485.02 L224.761 1458.66 L216.451 1460.32 L216.451 1456.06 L224.715 1454.4 L229.391 1454.4 L229.391 1485.02 L237.03 1485.02 L237.03 1488.96 L217.122 1488.96 L217.122 1485.02 Z" fill="#000000" fill-rule="nonzero" fill-opacity="1" /><path clip-path="url(#clip600)" d="M256.474 1457.48 Q252.863 1457.48 251.034 1461.04 Q249.229 1464.58 249.229 1471.71 Q249.229 1478.82 251.034 1482.38 Q252.863 1485.92 256.474 1485.92 Q260.108 1485.92 261.914 1482.38 Q263.742 1478.82 263.742 1471.71 Q263.742 1464.58 261.914 1461.04 Q260.108 1457.48 256.474 1457.48 M256.474 1453.77 Q262.284 1453.77 265.34 1458.38 Q268.418 1462.96 268.418 1471.71 Q268.418 1480.44 265.34 1485.04 Q262.284 1489.63 256.474 1489.63 Q250.664 1489.63 247.585 1485.04 Q244.53 1480.44 244.53 1471.71 Q244.53 1462.96 247.585 1458.38 Q250.664 1453.77 256.474 1453.77 Z" fill="#000000" fill-rule="nonzero" fill-opacity="1" /><path clip-path="url(#clip600)" d="M268.418 1447.87 L292.53 1447.87 L292.53 1451.07 L268.418 1451.07 L268.418 1447.87 Z" fill="#000000" fill-rule="nonzero" fill-opacity="1" /><path clip-path="url(#clip600)" d="M301.388 1458.35 L307.595 1458.35 L307.595 1436.93 L300.843 1438.28 L300.843 1434.82 L307.557 1433.47 L311.356 1433.47 L311.356 1458.35 L317.563 1458.35 L317.563 1461.55 L301.388 1461.55 L301.388 1458.35 Z" fill="#000000" fill-rule="nonzero" fill-opacity="1" /><path clip-path="url(#clip600)" d="M333.362 1435.97 Q330.428 1435.97 328.942 1438.86 Q327.475 1441.74 327.475 1447.53 Q327.475 1453.31 328.942 1456.2 Q330.428 1459.08 333.362 1459.08 Q336.314 1459.08 337.781 1456.2 Q339.267 1453.31 339.267 1447.53 Q339.267 1441.74 337.781 1438.86 Q336.314 1435.97 333.362 1435.97 M333.362 1432.96 Q338.082 1432.96 340.565 1436.7 Q343.066 1440.43 343.066 1447.53 Q343.066 1454.62 340.565 1458.37 Q338.082 1462.09 333.362 1462.09 Q328.641 1462.09 326.139 1458.37 Q323.657 1454.62 323.657 1447.53 Q323.657 1440.43 326.139 1436.7 Q328.641 1432.96 333.362 1432.96 Z" fill="#000000" fill-rule="nonzero" fill-opacity="1" /><path clip-path="url(#clip600)" d="M1487.67 1485.02 L1495.31 1485.02 L1495.31 1458.66 L1487 1460.32 L1487 1456.06 L1495.26 1454.4 L1499.94 1454.4 L1499.94 1485.02 L1507.57 1485.02 L1507.57 1488.96 L1487.67 1488.96 L1487.67 1485.02 Z" fill="#000000" fill-rule="nonzero" fill-opacity="1" /><path clip-path="url(#clip600)" d="M1527.02 1457.48 Q1523.41 1457.48 1521.58 1461.04 Q1519.77 1464.58 1519.77 1471.71 Q1519.77 1478.82 1521.58 1482.38 Q1523.41 1485.92 1527.02 1485.92 Q1530.65 1485.92 1532.46 1482.38 Q1534.29 1478.82 1534.29 1471.71 Q1534.29 1464.58 1532.46 1461.04 Q1530.65 1457.48 1527.02 1457.48 M1527.02 1453.77 Q1532.83 1453.77 1535.88 1458.38 Q1538.96 1462.96 1538.96 1471.71 Q1538.96 1480.44 1535.88 1485.04 Q1532.83 1489.63 1527.02 1489.63 Q1521.21 1489.63 1518.13 1485.04 Q1515.07 1480.44 1515.07 1471.71 Q1515.07 1462.96 1518.13 1458.38 Q1521.21 1453.77 1527.02 1453.77 Z" fill="#000000" fill-rule="nonzero" fill-opacity="1" /><path clip-path="url(#clip600)" d="M1538.96 1447.87 L1563.07 1447.87 L1563.07 1451.07 L1538.96 1451.07 L1538.96 1447.87 Z" fill="#000000" fill-rule="nonzero" fill-opacity="1" /><path clip-path="url(#clip600)" d="M1571.31 1433.47 L1586.23 1433.47 L1586.23 1436.66 L1574.79 1436.66 L1574.79 1443.55 Q1575.62 1443.27 1576.45 1443.13 Q1577.27 1442.98 1578.1 1442.98 Q1582.8 1442.98 1585.55 1445.56 Q1588.3 1448.14 1588.3 1452.54 Q1588.3 1457.07 1585.47 1459.59 Q1582.65 1462.09 1577.52 1462.09 Q1575.75 1462.09 1573.91 1461.79 Q1572.08 1461.49 1570.13 1460.89 L1570.13 1457.07 Q1571.82 1457.99 1573.63 1458.44 Q1575.43 1458.89 1577.44 1458.89 Q1580.7 1458.89 1582.6 1457.18 Q1584.5 1455.47 1584.5 1452.54 Q1584.5 1449.6 1582.6 1447.89 Q1580.7 1446.18 1577.44 1446.18 Q1575.92 1446.18 1574.4 1446.52 Q1572.89 1446.86 1571.31 1447.57 L1571.31 1433.47 Z" fill="#000000" fill-rule="nonzero" fill-opacity="1" /><path clip-path="url(#clip600)" d="M1194.75 1543.95 L1194.75 1524.66 L1200.61 1524.66 L1200.61 1574.19 L1194.75 1574.19 L1194.75 1568.84 Q1192.91 1572.02 1190.07 1573.58 Q1187.27 1575.11 1183.33 1575.11 Q1176.86 1575.11 1172.79 1569.95 Q1168.75 1564.8 1168.75 1556.39 Q1168.75 1547.99 1172.79 1542.83 Q1176.86 1537.68 1183.33 1537.68 Q1187.27 1537.68 1190.07 1539.24 Q1192.91 1540.77 1194.75 1543.95 M1174.8 1556.39 Q1174.8 1562.85 1177.44 1566.55 Q1180.11 1570.21 1184.76 1570.21 Q1189.4 1570.21 1192.08 1566.55 Q1194.75 1562.85 1194.75 1556.39 Q1194.75 1549.93 1192.08 1546.27 Q1189.4 1542.58 1184.76 1542.58 Q1180.11 1542.58 1177.44 1546.27 Q1174.8 1549.93 1174.8 1556.39 Z" fill="#000000" fill-rule="nonzero" fill-opacity="1" /><path clip-path="url(#clip600)" d="M1212.67 1538.54 L1218.53 1538.54 L1218.53 1574.19 L1212.67 1574.19 L1212.67 1538.54 M1212.67 1524.66 L1218.53 1524.66 L1218.53 1532.08 L1212.67 1532.08 L1212.67 1524.66 Z" fill="#000000" fill-rule="nonzero" fill-opacity="1" /><path clip-path="url(#clip600)" d="M1230.78 1524.66 L1236.64 1524.66 L1236.64 1574.19 L1230.78 1574.19 L1230.78 1524.66 Z" fill="#000000" fill-rule="nonzero" fill-opacity="1" /><path clip-path="url(#clip600)" d="M1248.29 1560.12 L1248.29 1538.54 L1254.14 1538.54 L1254.14 1559.89 Q1254.14 1564.96 1256.12 1567.5 Q1258.09 1570.02 1262.04 1570.02 Q1266.78 1570.02 1269.52 1566.99 Q1272.29 1563.97 1272.29 1558.75 L1272.29 1538.54 L1278.14 1538.54 L1278.14 1574.19 L1272.29 1574.19 L1272.29 1568.71 Q1270.15 1571.96 1267.32 1573.55 Q1264.52 1575.11 1260.8 1575.11 Q1254.65 1575.11 1251.47 1571.29 Q1248.29 1567.47 1248.29 1560.12 M1263.02 1537.68 L1263.02 1537.68 Z" fill="#000000" fill-rule="nonzero" fill-opacity="1" /><path clip-path="url(#clip600)" d="M1296 1528.42 L1296 1538.54 L1308.06 1538.54 L1308.06 1543.09 L1296 1543.09 L1296 1562.44 Q1296 1566.8 1297.18 1568.04 Q1298.39 1569.28 1302.05 1569.28 L1308.06 1569.28 L1308.06 1574.19 L1302.05 1574.19 Q1295.27 1574.19 1292.69 1571.67 Q1290.11 1569.12 1290.11 1562.44 L1290.11 1543.09 L1285.81 1543.09 L1285.81 1538.54 L1290.11 1538.54 L1290.11 1528.42 L1296 1528.42 Z" fill="#000000" fill-rule="nonzero" fill-opacity="1" /><path clip-path="url(#clip600)" d="M1315.76 1538.54 L1321.62 1538.54 L1321.62 1574.19 L1315.76 1574.19 L1315.76 1538.54 M1315.76 1524.66 L1321.62 1524.66 L1321.62 1532.08 L1315.76 1532.08 L1315.76 1524.66 Z" fill="#000000" fill-rule="nonzero" fill-opacity="1" /><path clip-path="url(#clip600)" d="M1347.69 1542.64 Q1342.98 1542.64 1340.24 1546.34 Q1337.5 1550 1337.5 1556.39 Q1337.5 1562.79 1340.21 1566.48 Q1342.95 1570.14 1347.69 1570.14 Q1352.37 1570.14 1355.1 1566.45 Q1357.84 1562.76 1357.84 1556.39 Q1357.84 1550.06 1355.1 1546.37 Q1352.37 1542.64 1347.69 1542.64 M1347.69 1537.68 Q1355.33 1537.68 1359.69 1542.64 Q1364.05 1547.61 1364.05 1556.39 Q1364.05 1565.15 1359.69 1570.14 Q1355.33 1575.11 1347.69 1575.11 Q1340.02 1575.11 1335.66 1570.14 Q1331.33 1565.15 1331.33 1556.39 Q1331.33 1547.61 1335.66 1542.64 Q1340.02 1537.68 1347.69 1537.68 Z" fill="#000000" fill-rule="nonzero" fill-opacity="1" /><path clip-path="url(#clip600)" d="M1403.39 1552.67 L1403.39 1574.19 L1397.53 1574.19 L1397.53 1552.86 Q1397.53 1547.8 1395.56 1545.29 Q1393.58 1542.77 1389.64 1542.77 Q1384.9 1542.77 1382.16 1545.79 Q1379.42 1548.82 1379.42 1554.04 L1379.42 1574.19 L1373.53 1574.19 L1373.53 1538.54 L1379.42 1538.54 L1379.42 1544.08 Q1381.52 1540.86 1384.35 1539.27 Q1387.22 1537.68 1390.94 1537.68 Q1397.09 1537.68 1400.24 1541.5 Q1403.39 1545.29 1403.39 1552.67 Z" fill="#000000" fill-rule="nonzero" fill-opacity="1" /><polyline clip-path="url(#clip602)" style="stroke:#000000; stroke-linecap:round; stroke-linejoin:round; stroke-width:2; stroke-opacity:0.1; fill:none" points="219.38,1372.42 2352.76,1372.42 "/>
<polyline clip-path="url(#clip602)" style="stroke:#000000; stroke-linecap:round; stroke-linejoin:round; stroke-width:2; stroke-opacity:0.1; fill:none" points="219.38,1087.36 2352.76,1087.36 "/>
<polyline clip-path="url(#clip602)" style="stroke:#000000; stroke-linecap:round; stroke-linejoin:round; stroke-width:2; stroke-opacity:0.1; fill:none" points="219.38,802.293 2352.76,802.293 "/>
<polyline clip-path="url(#clip602)" style="stroke:#000000; stroke-linecap:round; stroke-linejoin:round; stroke-width:2; stroke-opacity:0.1; fill:none" points="219.38,517.23 2352.76,517.23 "/>
<polyline clip-path="url(#clip602)" style="stroke:#000000; stroke-linecap:round; stroke-linejoin:round; stroke-width:2; stroke-opacity:0.1; fill:none" points="219.38,232.166 2352.76,232.166 "/>
<polyline clip-path="url(#clip600)" style="stroke:#000000; stroke-linecap:round; stroke-linejoin:round; stroke-width:4; stroke-opacity:1; fill:none" points="219.38,1410.9 219.38,47.2441 "/>
<polyline clip-path="url(#clip600)" style="stroke:#000000; stroke-linecap:round; stroke-linejoin:round; stroke-width:4; stroke-opacity:1; fill:none" points="219.38,1372.42 238.278,1372.42 "/>
<polyline clip-path="url(#clip600)" style="stroke:#000000; stroke-linecap:round; stroke-linejoin:round; stroke-width:4; stroke-opacity:1; fill:none" points="219.38,1087.36 238.278,1087.36 "/>
<polyline clip-path="url(#clip600)" style="stroke:#000000; stroke-linecap:round; stroke-linejoin:round; stroke-width:4; stroke-opacity:1; fill:none" points="219.38,802.293 238.278,802.293 "/>
<polyline clip-path="url(#clip600)" style="stroke:#000000; stroke-linecap:round; stroke-linejoin:round; stroke-width:4; stroke-opacity:1; fill:none" points="219.38,517.23 238.278,517.23 "/>
<polyline clip-path="url(#clip600)" style="stroke:#000000; stroke-linecap:round; stroke-linejoin:round; stroke-width:4; stroke-opacity:1; fill:none" points="219.38,232.166 238.278,232.166 "/>
<path clip-path="url(#clip600)" d="M126.205 1358.22 Q122.593 1358.22 120.765 1361.78 Q118.959 1365.33 118.959 1372.46 Q118.959 1379.56 120.765 1383.13 Q122.593 1386.67 126.205 1386.67 Q129.839 1386.67 131.644 1383.13 Q133.473 1379.56 133.473 1372.46 Q133.473 1365.33 131.644 1361.78 Q129.839 1358.22 126.205 1358.22 M126.205 1354.52 Q132.015 1354.52 135.07 1359.12 Q138.149 1363.71 138.149 1372.46 Q138.149 1381.18 135.07 1385.79 Q132.015 1390.37 126.205 1390.37 Q120.394 1390.37 117.316 1385.79 Q114.26 1381.18 114.26 1372.46 Q114.26 1363.71 117.316 1359.12 Q120.394 1354.52 126.205 1354.52 Z" fill="#000000" fill-rule="nonzero" fill-opacity="1" /><path clip-path="url(#clip600)" d="M146.366 1383.82 L151.251 1383.82 L151.251 1389.7 L146.366 1389.7 L146.366 1383.82 Z" fill="#000000" fill-rule="nonzero" fill-opacity="1" /><path clip-path="url(#clip600)" d="M171.436 1358.22 Q167.825 1358.22 165.996 1361.78 Q164.19 1365.33 164.19 1372.46 Q164.19 1379.56 165.996 1383.13 Q167.825 1386.67 171.436 1386.67 Q175.07 1386.67 176.876 1383.13 Q178.704 1379.56 178.704 1372.46 Q178.704 1365.33 176.876 1361.78 Q175.07 1358.22 171.436 1358.22 M171.436 1354.52 Q177.246 1354.52 180.301 1359.12 Q183.38 1363.71 183.38 1372.46 Q183.38 1381.18 180.301 1385.79 Q177.246 1390.37 171.436 1390.37 Q165.626 1390.37 162.547 1385.79 Q159.491 1381.18 159.491 1372.46 Q159.491 1363.71 162.547 1359.12 Q165.626 1354.52 171.436 1354.52 Z" fill="#000000" fill-rule="nonzero" fill-opacity="1" /><path clip-path="url(#clip600)" d="M127.2 1073.16 Q123.589 1073.16 121.76 1076.72 Q119.955 1080.26 119.955 1087.39 Q119.955 1094.5 121.76 1098.06 Q123.589 1101.6 127.2 1101.6 Q130.834 1101.6 132.64 1098.06 Q134.468 1094.5 134.468 1087.39 Q134.468 1080.26 132.64 1076.72 Q130.834 1073.16 127.2 1073.16 M127.2 1069.45 Q133.01 1069.45 136.066 1074.06 Q139.144 1078.64 139.144 1087.39 Q139.144 1096.12 136.066 1100.73 Q133.01 1105.31 127.2 1105.31 Q121.39 1105.31 118.311 1100.73 Q115.256 1096.12 115.256 1087.39 Q115.256 1078.64 118.311 1074.06 Q121.39 1069.45 127.2 1069.45 Z" fill="#000000" fill-rule="nonzero" fill-opacity="1" /><path clip-path="url(#clip600)" d="M147.362 1098.76 L152.246 1098.76 L152.246 1104.64 L147.362 1104.64 L147.362 1098.76 Z" fill="#000000" fill-rule="nonzero" fill-opacity="1" /><path clip-path="url(#clip600)" d="M162.477 1070.08 L180.834 1070.08 L180.834 1074.01 L166.76 1074.01 L166.76 1082.48 Q167.778 1082.14 168.797 1081.98 Q169.815 1081.79 170.834 1081.79 Q176.621 1081.79 180.001 1084.96 Q183.38 1088.13 183.38 1093.55 Q183.38 1099.13 179.908 1102.23 Q176.436 1105.31 170.116 1105.31 Q167.94 1105.31 165.672 1104.94 Q163.427 1104.57 161.019 1103.83 L161.019 1099.13 Q163.102 1100.26 165.325 1100.82 Q167.547 1101.37 170.024 1101.37 Q174.028 1101.37 176.366 1099.27 Q178.704 1097.16 178.704 1093.55 Q178.704 1089.94 176.366 1087.83 Q174.028 1085.73 170.024 1085.73 Q168.149 1085.73 166.274 1086.14 Q164.422 1086.56 162.477 1087.44 L162.477 1070.08 Z" fill="#000000" fill-rule="nonzero" fill-opacity="1" /><path clip-path="url(#clip600)" d="M117.015 815.638 L124.654 815.638 L124.654 789.273 L116.343 790.939 L116.343 786.68 L124.607 785.013 L129.283 785.013 L129.283 815.638 L136.922 815.638 L136.922 819.573 L117.015 819.573 L117.015 815.638 Z" fill="#000000" fill-rule="nonzero" fill-opacity="1" /><path clip-path="url(#clip600)" d="M146.366 813.694 L151.251 813.694 L151.251 819.573 L146.366 819.573 L146.366 813.694 Z" fill="#000000" fill-rule="nonzero" fill-opacity="1" /><path clip-path="url(#clip600)" d="M171.436 788.092 Q167.825 788.092 165.996 791.657 Q164.19 795.199 164.19 802.328 Q164.19 809.435 165.996 812.999 Q167.825 816.541 171.436 816.541 Q175.07 816.541 176.876 812.999 Q178.704 809.435 178.704 802.328 Q178.704 795.199 176.876 791.657 Q175.07 788.092 171.436 788.092 M171.436 784.388 Q177.246 784.388 180.301 788.995 Q183.38 793.578 183.38 802.328 Q183.38 811.055 180.301 815.661 Q177.246 820.245 171.436 820.245 Q165.626 820.245 162.547 815.661 Q159.491 811.055 159.491 802.328 Q159.491 793.578 162.547 788.995 Q165.626 784.388 171.436 784.388 Z" fill="#000000" fill-rule="nonzero" fill-opacity="1" /><path clip-path="url(#clip600)" d="M118.01 530.574 L125.649 530.574 L125.649 504.209 L117.339 505.875 L117.339 501.616 L125.603 499.95 L130.279 499.95 L130.279 530.574 L137.917 530.574 L137.917 534.51 L118.01 534.51 L118.01 530.574 Z" fill="#000000" fill-rule="nonzero" fill-opacity="1" /><path clip-path="url(#clip600)" d="M147.362 528.63 L152.246 528.63 L152.246 534.51 L147.362 534.51 L147.362 528.63 Z" fill="#000000" fill-rule="nonzero" fill-opacity="1" /><path clip-path="url(#clip600)" d="M162.477 499.95 L180.834 499.95 L180.834 503.885 L166.76 503.885 L166.76 512.357 Q167.778 512.01 168.797 511.848 Q169.815 511.662 170.834 511.662 Q176.621 511.662 180.001 514.834 Q183.38 518.005 183.38 523.422 Q183.38 529 179.908 532.102 Q176.436 535.181 170.116 535.181 Q167.94 535.181 165.672 534.81 Q163.427 534.44 161.019 533.699 L161.019 529 Q163.102 530.135 165.325 530.69 Q167.547 531.246 170.024 531.246 Q174.028 531.246 176.366 529.139 Q178.704 527.033 178.704 523.422 Q178.704 519.811 176.366 517.704 Q174.028 515.598 170.024 515.598 Q168.149 515.598 166.274 516.014 Q164.422 516.431 162.477 517.311 L162.477 499.95 Z" fill="#000000" fill-rule="nonzero" fill-opacity="1" /><path clip-path="url(#clip600)" d="M120.232 245.51 L136.552 245.51 L136.552 249.446 L114.607 249.446 L114.607 245.51 Q117.269 242.756 121.853 238.126 Q126.459 233.474 127.64 232.131 Q129.885 229.608 130.765 227.872 Q131.667 226.112 131.667 224.423 Q131.667 221.668 129.723 219.932 Q127.802 218.196 124.7 218.196 Q122.501 218.196 120.047 218.96 Q117.617 219.724 114.839 221.275 L114.839 216.552 Q117.663 215.418 120.117 214.839 Q122.57 214.261 124.607 214.261 Q129.978 214.261 133.172 216.946 Q136.367 219.631 136.367 224.122 Q136.367 226.251 135.556 228.173 Q134.769 230.071 132.663 232.663 Q132.084 233.335 128.982 236.552 Q125.88 239.747 120.232 245.51 Z" fill="#000000" fill-rule="nonzero" fill-opacity="1" /><path clip-path="url(#clip600)" d="M146.366 243.566 L151.251 243.566 L151.251 249.446 L146.366 249.446 L146.366 243.566 Z" fill="#000000" fill-rule="nonzero" fill-opacity="1" /><path clip-path="url(#clip600)" d="M171.436 217.964 Q167.825 217.964 165.996 221.529 Q164.19 225.071 164.19 232.2 Q164.19 239.307 165.996 242.872 Q167.825 246.413 171.436 246.413 Q175.07 246.413 176.876 242.872 Q178.704 239.307 178.704 232.2 Q178.704 225.071 176.876 221.529 Q175.07 217.964 171.436 217.964 M171.436 214.261 Q177.246 214.261 180.301 218.867 Q183.38 223.45 183.38 232.2 Q183.38 240.927 180.301 245.534 Q177.246 250.117 171.436 250.117 Q165.626 250.117 162.547 245.534 Q159.491 240.927 159.491 232.2 Q159.491 223.45 162.547 218.867 Q165.626 214.261 171.436 214.261 Z" fill="#000000" fill-rule="nonzero" fill-opacity="1" /><path clip-path="url(#clip600)" d="M33.8307 851.531 Q33.2578 852.517 33.0032 853.695 Q32.7167 854.841 32.7167 856.241 Q32.7167 861.207 35.9632 863.88 Q39.1779 866.522 45.2253 866.522 L64.0042 866.522 L64.0042 872.41 L28.3562 872.41 L28.3562 866.522 L33.8944 866.522 Q30.6479 864.676 29.0883 861.716 Q27.4968 858.756 27.4968 854.523 Q27.4968 853.918 27.5923 853.186 Q27.656 852.454 27.8151 851.562 L33.8307 851.531 Z" fill="#000000" fill-rule="nonzero" fill-opacity="1" /><path clip-path="url(#clip600)" d="M44.7161 816.328 L47.5806 816.328 L47.5806 843.255 Q53.6281 842.873 56.8109 839.627 Q59.9619 836.348 59.9619 830.524 Q59.9619 827.15 59.1344 823.999 Q58.3069 820.816 56.6518 817.697 L62.1899 817.697 Q63.5267 820.848 64.227 824.158 Q64.9272 827.468 64.9272 830.874 Q64.9272 839.404 59.9619 844.401 Q54.9967 849.366 46.5303 849.366 Q37.7774 849.366 32.6531 844.656 Q27.4968 839.913 27.4968 831.892 Q27.4968 824.699 32.1438 820.53 Q36.7589 816.328 44.7161 816.328 M42.9973 822.185 Q38.1912 822.248 35.3266 824.89 Q32.4621 827.5 32.4621 831.829 Q32.4621 836.73 35.2312 839.69 Q38.0002 842.619 43.0292 843.064 L42.9973 822.185 Z" fill="#000000" fill-rule="nonzero" fill-opacity="1" /><path clip-path="url(#clip600)" d="M29.4065 783.991 L34.9447 783.991 Q33.6716 786.473 33.035 789.147 Q32.3984 791.82 32.3984 794.685 Q32.3984 799.045 33.7352 801.242 Q35.072 803.406 37.7456 803.406 Q39.7826 803.406 40.9603 801.846 Q42.1061 800.287 43.1565 795.576 L43.6021 793.571 Q44.9389 787.332 47.3897 784.723 Q49.8086 782.081 54.1691 782.081 Q59.1344 782.081 62.0308 786.028 Q64.9272 789.942 64.9272 796.817 Q64.9272 799.682 64.3543 802.801 Q63.8132 805.889 62.6992 809.326 L56.6518 809.326 Q58.3387 806.08 59.198 802.928 Q60.0256 799.777 60.0256 796.69 Q60.0256 792.552 58.6251 790.324 Q57.1929 788.096 54.6147 788.096 Q52.2276 788.096 50.9545 789.72 Q49.6813 791.311 48.5037 796.754 L48.0262 798.791 Q46.8804 804.233 44.5251 806.652 Q42.138 809.071 38.0002 809.071 Q32.9713 809.071 30.2341 805.507 Q27.4968 801.942 27.4968 795.385 Q27.4968 792.139 27.9743 789.274 Q28.4517 786.409 29.4065 783.991 Z" fill="#000000" fill-rule="nonzero" fill-opacity="1" /><path clip-path="url(#clip600)" d="M58.657 767.09 L77.5631 767.09 L77.5631 772.978 L28.3562 772.978 L28.3562 767.09 L33.7671 767.09 Q30.5842 765.243 29.0564 762.443 Q27.4968 759.61 27.4968 755.695 Q27.4968 749.202 32.6531 745.16 Q37.8093 741.086 46.212 741.086 Q54.6147 741.086 59.771 745.16 Q64.9272 749.202 64.9272 755.695 Q64.9272 759.61 63.3994 762.443 Q61.8398 765.243 58.657 767.09 M46.212 747.165 Q39.7508 747.165 36.0905 749.838 Q32.3984 752.48 32.3984 757.127 Q32.3984 761.774 36.0905 764.448 Q39.7508 767.09 46.212 767.09 Q52.6732 767.09 56.3653 764.448 Q60.0256 761.774 60.0256 757.127 Q60.0256 752.48 56.3653 749.838 Q52.6732 747.165 46.212 747.165 Z" fill="#000000" fill-rule="nonzero" fill-opacity="1" /><path clip-path="url(#clip600)" d="M32.4621 717.564 Q32.4621 722.275 36.1542 725.012 Q39.8145 727.749 46.212 727.749 Q52.6095 727.749 56.3017 725.044 Q59.9619 722.307 59.9619 717.564 Q59.9619 712.886 56.2698 710.148 Q52.5777 707.411 46.212 707.411 Q39.8781 707.411 36.186 710.148 Q32.4621 712.886 32.4621 717.564 M27.4968 717.564 Q27.4968 709.926 32.4621 705.565 Q37.4273 701.204 46.212 701.204 Q54.9649 701.204 59.9619 705.565 Q64.9272 709.926 64.9272 717.564 Q64.9272 725.235 59.9619 729.596 Q54.9649 733.924 46.212 733.924 Q37.4273 733.924 32.4621 729.596 Q27.4968 725.235 27.4968 717.564 Z" fill="#000000" fill-rule="nonzero" fill-opacity="1" /><path clip-path="url(#clip600)" d="M42.4881 661.864 L64.0042 661.864 L64.0042 667.721 L42.679 667.721 Q37.6183 667.721 35.1038 669.694 Q32.5894 671.668 32.5894 675.614 Q32.5894 680.357 35.6131 683.094 Q38.6368 685.831 43.8567 685.831 L64.0042 685.831 L64.0042 691.72 L28.3562 691.72 L28.3562 685.831 L33.8944 685.831 Q30.6797 683.731 29.0883 680.898 Q27.4968 678.033 27.4968 674.309 Q27.4968 668.166 31.3163 665.015 Q35.1038 661.864 42.4881 661.864 Z" fill="#000000" fill-rule="nonzero" fill-opacity="1" /><path clip-path="url(#clip600)" d="M29.4065 627.458 L34.9447 627.458 Q33.6716 629.94 33.035 632.614 Q32.3984 635.288 32.3984 638.152 Q32.3984 642.513 33.7352 644.709 Q35.072 646.873 37.7456 646.873 Q39.7826 646.873 40.9603 645.314 Q42.1061 643.754 43.1565 639.043 L43.6021 637.038 Q44.9389 630.8 47.3897 628.19 Q49.8086 625.548 54.1691 625.548 Q59.1344 625.548 62.0308 629.495 Q64.9272 633.41 64.9272 640.285 Q64.9272 643.149 64.3543 646.268 Q63.8132 649.356 62.6992 652.793 L56.6518 652.793 Q58.3387 649.547 59.198 646.396 Q60.0256 643.245 60.0256 640.157 Q60.0256 636.02 58.6251 633.792 Q57.1929 631.564 54.6147 631.564 Q52.2276 631.564 50.9545 633.187 Q49.6813 634.778 48.5037 640.221 L48.0262 642.258 Q46.8804 647.701 44.5251 650.12 Q42.138 652.539 38.0002 652.539 Q32.9713 652.539 30.2341 648.974 Q27.4968 645.409 27.4968 638.852 Q27.4968 635.606 27.9743 632.741 Q28.4517 629.877 29.4065 627.458 Z" fill="#000000" fill-rule="nonzero" fill-opacity="1" /><path clip-path="url(#clip600)" d="M44.7161 585.731 L47.5806 585.731 L47.5806 612.658 Q53.6281 612.276 56.8109 609.029 Q59.9619 605.751 59.9619 599.926 Q59.9619 596.552 59.1344 593.401 Q58.3069 590.218 56.6518 587.099 L62.1899 587.099 Q63.5267 590.25 64.227 593.56 Q64.9272 596.871 64.9272 600.276 Q64.9272 608.806 59.9619 613.803 Q54.9967 618.769 46.5303 618.769 Q37.7774 618.769 32.6531 614.058 Q27.4968 609.316 27.4968 601.295 Q27.4968 594.101 32.1438 589.932 Q36.7589 585.731 44.7161 585.731 M42.9973 591.587 Q38.1912 591.651 35.3266 594.292 Q32.4621 596.902 32.4621 601.231 Q32.4621 606.133 35.2312 609.093 Q38.0002 612.021 43.0292 612.467 L42.9973 591.587 Z" fill="#000000" fill-rule="nonzero" fill-opacity="1" /><circle clip-path="url(#clip602)" cx="279.759" cy="1372.29" r="14.4" fill="#000000" fill-rule="evenodd" fill-opacity="0.2" stroke="none"/>
<circle clip-path="url(#clip602)" cx="413.933" cy="1372.01" r="14.4" fill="#000000" fill-rule="evenodd" fill-opacity="0.2" stroke="none"/>
<circle clip-path="url(#clip602)" cx="548.108" cy="1371.15" r="14.4" fill="#000000" fill-rule="evenodd" fill-opacity="0.2" stroke="none"/>
<circle clip-path="url(#clip602)" cx="682.282" cy="1367.75" r="14.4" fill="#000000" fill-rule="evenodd" fill-opacity="0.2" stroke="none"/>
<circle clip-path="url(#clip602)" cx="816.457" cy="1359.92" r="14.4" fill="#000000" fill-rule="evenodd" fill-opacity="0.2" stroke="none"/>
<circle clip-path="url(#clip602)" cx="950.632" cy="1333.85" r="14.4" fill="#000000" fill-rule="evenodd" fill-opacity="0.2" stroke="none"/>
<circle clip-path="url(#clip602)" cx="1084.81" cy="1257.37" r="14.4" fill="#000000" fill-rule="evenodd" fill-opacity="0.2" stroke="none"/>
<circle clip-path="url(#clip602)" cx="1218.98" cy="1110.24" r="14.4" fill="#000000" fill-rule="evenodd" fill-opacity="0.2" stroke="none"/>
<circle clip-path="url(#clip602)" cx="1353.16" cy="888.819" r="14.4" fill="#000000" fill-rule="evenodd" fill-opacity="0.2" stroke="none"/>
<circle clip-path="url(#clip602)" cx="1487.33" cy="764.073" r="14.4" fill="#000000" fill-rule="evenodd" fill-opacity="0.2" stroke="none"/>
<circle clip-path="url(#clip602)" cx="1621.5" cy="627.866" r="14.4" fill="#000000" fill-rule="evenodd" fill-opacity="0.2" stroke="none"/>
<circle clip-path="url(#clip602)" cx="1755.68" cy="482.353" r="14.4" fill="#000000" fill-rule="evenodd" fill-opacity="0.2" stroke="none"/>
<circle clip-path="url(#clip602)" cx="1889.85" cy="282.145" r="14.4" fill="#000000" fill-rule="evenodd" fill-opacity="0.2" stroke="none"/>
<circle clip-path="url(#clip602)" cx="2024.03" cy="232.303" r="14.4" fill="#000000" fill-rule="evenodd" fill-opacity="0.2" stroke="none"/>
<circle clip-path="url(#clip602)" cx="2158.2" cy="85.838" r="14.4" fill="#000000" fill-rule="evenodd" fill-opacity="0.2" stroke="none"/>
<circle clip-path="url(#clip602)" cx="2292.38" cy="175.683" r="14.4" fill="#000000" fill-rule="evenodd" fill-opacity="0.2" stroke="none"/>
<circle clip-path="url(#clip602)" cx="279.759" cy="1372.3" r="14.4" fill="#000000" fill-rule="evenodd" fill-opacity="0.2" stroke="none"/>
<circle clip-path="url(#clip602)" cx="413.933" cy="1371.94" r="14.4" fill="#000000" fill-rule="evenodd" fill-opacity="0.2" stroke="none"/>
<circle clip-path="url(#clip602)" cx="548.108" cy="1371.19" r="14.4" fill="#000000" fill-rule="evenodd" fill-opacity="0.2" stroke="none"/>
<circle clip-path="url(#clip602)" cx="682.282" cy="1368.27" r="14.4" fill="#000000" fill-rule="evenodd" fill-opacity="0.2" stroke="none"/>
<circle clip-path="url(#clip602)" cx="816.457" cy="1360.05" r="14.4" fill="#000000" fill-rule="evenodd" fill-opacity="0.2" stroke="none"/>
<circle clip-path="url(#clip602)" cx="950.632" cy="1335.53" r="14.4" fill="#000000" fill-rule="evenodd" fill-opacity="0.2" stroke="none"/>
<circle clip-path="url(#clip602)" cx="1084.81" cy="1257.75" r="14.4" fill="#000000" fill-rule="evenodd" fill-opacity="0.2" stroke="none"/>
<circle clip-path="url(#clip602)" cx="1218.98" cy="1110.48" r="14.4" fill="#000000" fill-rule="evenodd" fill-opacity="0.2" stroke="none"/>
<circle clip-path="url(#clip602)" cx="1353.16" cy="872.105" r="14.4" fill="#000000" fill-rule="evenodd" fill-opacity="0.2" stroke="none"/>
<circle clip-path="url(#clip602)" cx="1487.33" cy="696.291" r="14.4" fill="#000000" fill-rule="evenodd" fill-opacity="0.2" stroke="none"/>
<circle clip-path="url(#clip602)" cx="1621.5" cy="669.579" r="14.4" fill="#000000" fill-rule="evenodd" fill-opacity="0.2" stroke="none"/>
<circle clip-path="url(#clip602)" cx="1755.68" cy="401.363" r="14.4" fill="#000000" fill-rule="evenodd" fill-opacity="0.2" stroke="none"/>
<circle clip-path="url(#clip602)" cx="1889.85" cy="165.392" r="14.4" fill="#000000" fill-rule="evenodd" fill-opacity="0.2" stroke="none"/>
<circle clip-path="url(#clip602)" cx="2024.03" cy="210.476" r="14.4" fill="#000000" fill-rule="evenodd" fill-opacity="0.2" stroke="none"/>
<circle clip-path="url(#clip602)" cx="2158.2" cy="249.412" r="14.4" fill="#000000" fill-rule="evenodd" fill-opacity="0.2" stroke="none"/>
<circle clip-path="url(#clip602)" cx="2292.38" cy="175.479" r="14.4" fill="#000000" fill-rule="evenodd" fill-opacity="0.2" stroke="none"/>
<circle clip-path="url(#clip602)" cx="279.759" cy="1372.3" r="14.4" fill="#000000" fill-rule="evenodd" fill-opacity="0.2" stroke="none"/>
<circle clip-path="url(#clip602)" cx="413.933" cy="1372" r="14.4" fill="#000000" fill-rule="evenodd" fill-opacity="0.2" stroke="none"/>
<circle clip-path="url(#clip602)" cx="548.108" cy="1371.01" r="14.4" fill="#000000" fill-rule="evenodd" fill-opacity="0.2" stroke="none"/>
<circle clip-path="url(#clip602)" cx="682.282" cy="1368.44" r="14.4" fill="#000000" fill-rule="evenodd" fill-opacity="0.2" stroke="none"/>
<circle clip-path="url(#clip602)" cx="816.457" cy="1359.07" r="14.4" fill="#000000" fill-rule="evenodd" fill-opacity="0.2" stroke="none"/>
<circle clip-path="url(#clip602)" cx="950.632" cy="1331.56" r="14.4" fill="#000000" fill-rule="evenodd" fill-opacity="0.2" stroke="none"/>
<circle clip-path="url(#clip602)" cx="1084.81" cy="1260.14" r="14.4" fill="#000000" fill-rule="evenodd" fill-opacity="0.2" stroke="none"/>
<circle clip-path="url(#clip602)" cx="1218.98" cy="1064.83" r="14.4" fill="#000000" fill-rule="evenodd" fill-opacity="0.2" stroke="none"/>
<circle clip-path="url(#clip602)" cx="1353.16" cy="878.503" r="14.4" fill="#000000" fill-rule="evenodd" fill-opacity="0.2" stroke="none"/>
<circle clip-path="url(#clip602)" cx="1487.33" cy="764.05" r="14.4" fill="#000000" fill-rule="evenodd" fill-opacity="0.2" stroke="none"/>
<circle clip-path="url(#clip602)" cx="1621.5" cy="644.437" r="14.4" fill="#000000" fill-rule="evenodd" fill-opacity="0.2" stroke="none"/>
<circle clip-path="url(#clip602)" cx="1755.68" cy="504.723" r="14.4" fill="#000000" fill-rule="evenodd" fill-opacity="0.2" stroke="none"/>
<circle clip-path="url(#clip602)" cx="1889.85" cy="107.396" r="14.4" fill="#000000" fill-rule="evenodd" fill-opacity="0.2" stroke="none"/>
<circle clip-path="url(#clip602)" cx="2024.03" cy="188.004" r="14.4" fill="#000000" fill-rule="evenodd" fill-opacity="0.2" stroke="none"/>
<circle clip-path="url(#clip602)" cx="2158.2" cy="140.476" r="14.4" fill="#000000" fill-rule="evenodd" fill-opacity="0.2" stroke="none"/>
<circle clip-path="url(#clip602)" cx="2292.38" cy="127.889" r="14.4" fill="#000000" fill-rule="evenodd" fill-opacity="0.2" stroke="none"/>
<polyline clip-path="url(#clip602)" style="stroke:#e26f46; stroke-linecap:round; stroke-linejoin:round; stroke-width:4; stroke-opacity:1; fill:none" points="279.759,1372.3 413.933,1372.03 548.108,1371.12 682.282,1368.18 816.457,1359.39 950.632,1333.67 1084.81,1258.59 1218.98,1089.8 1353.16,879.695 1487.33,751.365 1621.5,644.171 1755.68,455.353 1889.85,271.014 2024.03,205.675 2158.2,184.378 2292.38,159.198 "/>
<path clip-path="url(#clip602)" d="M279.759 1356.3 L263.759 1388.3 L295.759 1388.3 L279.759 1356.3 Z" fill="#009af9" fill-rule="evenodd" fill-opacity="1" stroke="#000000" stroke-opacity="1" stroke-width="3.2"/>
<path clip-path="url(#clip602)" d="M413.933 1355.98 L397.933 1387.98 L429.933 1387.98 L413.933 1355.98 Z" fill="#009af9" fill-rule="evenodd" fill-opacity="1" stroke="#000000" stroke-opacity="1" stroke-width="3.2"/>
<path clip-path="url(#clip602)" d="M548.108 1355.12 L532.108 1387.12 L564.108 1387.12 L548.108 1355.12 Z" fill="#009af9" fill-rule="evenodd" fill-opacity="1" stroke="#000000" stroke-opacity="1" stroke-width="3.2"/>
<path clip-path="url(#clip602)" d="M682.282 1352.16 L666.282 1384.16 L698.282 1384.16 L682.282 1352.16 Z" fill="#009af9" fill-rule="evenodd" fill-opacity="1" stroke="#000000" stroke-opacity="1" stroke-width="3.2"/>
<path clip-path="url(#clip602)" d="M816.457 1343.68 L800.457 1375.68 L832.457 1375.68 L816.457 1343.68 Z" fill="#009af9" fill-rule="evenodd" fill-opacity="1" stroke="#000000" stroke-opacity="1" stroke-width="3.2"/>
<path clip-path="url(#clip602)" d="M950.632 1317.65 L934.632 1349.65 L966.632 1349.65 L950.632 1317.65 Z" fill="#009af9" fill-rule="evenodd" fill-opacity="1" stroke="#000000" stroke-opacity="1" stroke-width="3.2"/>
<path clip-path="url(#clip602)" d="M1084.81 1242.42 L1068.81 1274.42 L1100.81 1274.42 L1084.81 1242.42 Z" fill="#009af9" fill-rule="evenodd" fill-opacity="1" stroke="#000000" stroke-opacity="1" stroke-width="3.2"/>
<path clip-path="url(#clip602)" d="M1218.98 1079.18 L1202.98 1111.18 L1234.98 1111.18 L1218.98 1079.18 Z" fill="#009af9" fill-rule="evenodd" fill-opacity="1" stroke="#000000" stroke-opacity="1" stroke-width="3.2"/>
<path clip-path="url(#clip602)" d="M1353.16 863.809 L1337.16 895.809 L1369.16 895.809 L1353.16 863.809 Z" fill="#009af9" fill-rule="evenodd" fill-opacity="1" stroke="#000000" stroke-opacity="1" stroke-width="3.2"/>
<path clip-path="url(#clip602)" d="M1487.33 725.472 L1471.33 757.472 L1503.33 757.472 L1487.33 725.472 Z" fill="#009af9" fill-rule="evenodd" fill-opacity="1" stroke="#000000" stroke-opacity="1" stroke-width="3.2"/>
<path clip-path="url(#clip602)" d="M1621.5 631.294 L1605.5 663.294 L1637.5 663.294 L1621.5 631.294 Z" fill="#009af9" fill-rule="evenodd" fill-opacity="1" stroke="#000000" stroke-opacity="1" stroke-width="3.2"/>
<path clip-path="url(#clip602)" d="M1755.68 446.813 L1739.68 478.813 L1771.68 478.813 L1755.68 446.813 Z" fill="#009af9" fill-rule="evenodd" fill-opacity="1" stroke="#000000" stroke-opacity="1" stroke-width="3.2"/>
<path clip-path="url(#clip602)" d="M1889.85 168.978 L1873.85 200.978 L1905.85 200.978 L1889.85 168.978 Z" fill="#009af9" fill-rule="evenodd" fill-opacity="1" stroke="#000000" stroke-opacity="1" stroke-width="3.2"/>
<path clip-path="url(#clip602)" d="M2024.03 194.261 L2008.03 226.261 L2040.03 226.261 L2024.03 194.261 Z" fill="#009af9" fill-rule="evenodd" fill-opacity="1" stroke="#000000" stroke-opacity="1" stroke-width="3.2"/>
<path clip-path="url(#clip602)" d="M2158.2 142.575 L2142.2 174.575 L2174.2 174.575 L2158.2 142.575 Z" fill="#009af9" fill-rule="evenodd" fill-opacity="1" stroke="#000000" stroke-opacity="1" stroke-width="3.2"/>
<path clip-path="url(#clip602)" d="M2292.38 143.684 L2276.38 175.684 L2308.38 175.684 L2292.38 143.684 Z" fill="#009af9" fill-rule="evenodd" fill-opacity="1" stroke="#000000" stroke-opacity="1" stroke-width="3.2"/>
<path clip-path="url(#clip600)" d="M290.493 300.059 L834.731 300.059 L834.731 92.6992 L290.493 92.6992  Z" fill="#ffffff" fill-rule="evenodd" fill-opacity="1"/>
<polyline clip-path="url(#clip600)" style="stroke:#000000; stroke-linecap:round; stroke-linejoin:round; stroke-width:4; stroke-opacity:1; fill:none" points="290.493,300.059 834.731,300.059 834.731,92.6992 290.493,92.6992 290.493,300.059 "/>
<circle clip-path="url(#clip600)" cx="385.309" cy="144.539" r="20.48" fill="#000000" fill-rule="evenodd" fill-opacity="0.2" stroke="none"/>
<path clip-path="url(#clip600)" d="M495.311 139.875 Q494.594 139.458 493.737 139.273 Q492.904 139.065 491.885 139.065 Q488.274 139.065 486.33 141.426 Q484.408 143.764 484.408 148.162 L484.408 161.819 L480.126 161.819 L480.126 135.893 L484.408 135.893 L484.408 139.921 Q485.751 137.56 487.904 136.426 Q490.057 135.268 493.135 135.268 Q493.575 135.268 494.107 135.338 Q494.64 135.384 495.288 135.5 L495.311 139.875 Z" fill="#000000" fill-rule="nonzero" fill-opacity="1" /><path clip-path="url(#clip600)" d="M520.913 147.791 L520.913 149.875 L501.33 149.875 Q501.607 154.273 503.969 156.588 Q506.353 158.879 510.589 158.879 Q513.043 158.879 515.334 158.278 Q517.649 157.676 519.918 156.472 L519.918 160.5 Q517.626 161.472 515.218 161.981 Q512.811 162.49 510.334 162.49 Q504.131 162.49 500.496 158.879 Q496.885 155.268 496.885 149.111 Q496.885 142.745 500.311 139.018 Q503.76 135.268 509.594 135.268 Q514.825 135.268 517.857 138.648 Q520.913 142.004 520.913 147.791 M516.654 146.541 Q516.607 143.046 514.686 140.963 Q512.788 138.879 509.64 138.879 Q506.075 138.879 503.922 140.893 Q501.793 142.907 501.469 146.565 L516.654 146.541 Z" fill="#000000" fill-rule="nonzero" fill-opacity="1" /><path clip-path="url(#clip600)" d="M532.024 157.93 L532.024 171.68 L527.742 171.68 L527.742 135.893 L532.024 135.893 L532.024 139.829 Q533.367 137.514 535.404 136.403 Q537.464 135.268 540.311 135.268 Q545.033 135.268 547.973 139.018 Q550.936 142.768 550.936 148.879 Q550.936 154.991 547.973 158.74 Q545.033 162.49 540.311 162.49 Q537.464 162.49 535.404 161.379 Q533.367 160.245 532.024 157.93 M546.515 148.879 Q546.515 144.18 544.57 141.518 Q542.649 138.833 539.269 138.833 Q535.89 138.833 533.945 141.518 Q532.024 144.18 532.024 148.879 Q532.024 153.578 533.945 156.264 Q535.89 158.926 539.269 158.926 Q542.649 158.926 544.57 156.264 Q546.515 153.578 546.515 148.879 Z" fill="#000000" fill-rule="nonzero" fill-opacity="1" /><path clip-path="url(#clip600)" d="M557.996 125.801 L562.255 125.801 L562.255 161.819 L557.996 161.819 L557.996 125.801 Z" fill="#000000" fill-rule="nonzero" fill-opacity="1" /><path clip-path="url(#clip600)" d="M571.167 135.893 L575.426 135.893 L575.426 161.819 L571.167 161.819 L571.167 135.893 M571.167 125.801 L575.426 125.801 L575.426 131.194 L571.167 131.194 L571.167 125.801 Z" fill="#000000" fill-rule="nonzero" fill-opacity="1" /><path clip-path="url(#clip600)" d="M602.996 136.889 L602.996 140.87 Q601.19 139.875 599.362 139.389 Q597.556 138.879 595.704 138.879 Q591.561 138.879 589.269 141.518 Q586.977 144.134 586.977 148.879 Q586.977 153.625 589.269 156.264 Q591.561 158.879 595.704 158.879 Q597.556 158.879 599.362 158.393 Q601.19 157.884 602.996 156.889 L602.996 160.824 Q601.213 161.657 599.292 162.074 Q597.394 162.49 595.241 162.49 Q589.385 162.49 585.936 158.81 Q582.487 155.129 582.487 148.879 Q582.487 142.537 585.959 138.903 Q589.454 135.268 595.519 135.268 Q597.487 135.268 599.362 135.685 Q601.237 136.079 602.996 136.889 Z" fill="#000000" fill-rule="nonzero" fill-opacity="1" /><path clip-path="url(#clip600)" d="M622.186 148.787 Q617.023 148.787 615.033 149.967 Q613.042 151.148 613.042 153.995 Q613.042 156.264 614.524 157.606 Q616.028 158.926 618.598 158.926 Q622.139 158.926 624.269 156.426 Q626.422 153.903 626.422 149.736 L626.422 148.787 L622.186 148.787 M630.681 147.028 L630.681 161.819 L626.422 161.819 L626.422 157.884 Q624.963 160.245 622.787 161.379 Q620.611 162.49 617.463 162.49 Q613.482 162.49 611.121 160.268 Q608.783 158.023 608.783 154.273 Q608.783 149.898 611.699 147.676 Q614.639 145.454 620.449 145.454 L626.422 145.454 L626.422 145.037 Q626.422 142.097 624.477 140.5 Q622.556 138.879 619.061 138.879 Q616.838 138.879 614.732 139.412 Q612.625 139.944 610.681 141.009 L610.681 137.074 Q613.019 136.171 615.218 135.731 Q617.417 135.268 619.5 135.268 Q625.125 135.268 627.903 138.185 Q630.681 141.102 630.681 147.028 Z" fill="#000000" fill-rule="nonzero" fill-opacity="1" /><path clip-path="url(#clip600)" d="M643.667 128.532 L643.667 135.893 L652.44 135.893 L652.44 139.204 L643.667 139.204 L643.667 153.278 Q643.667 156.449 644.523 157.352 Q645.403 158.254 648.065 158.254 L652.44 158.254 L652.44 161.819 L648.065 161.819 Q643.134 161.819 641.259 159.99 Q639.384 158.139 639.384 153.278 L639.384 139.204 L636.26 139.204 L636.26 135.893 L639.384 135.893 L639.384 128.532 L643.667 128.532 Z" fill="#000000" fill-rule="nonzero" fill-opacity="1" /><path clip-path="url(#clip600)" d="M680.218 147.791 L680.218 149.875 L660.634 149.875 Q660.912 154.273 663.273 156.588 Q665.657 158.879 669.894 158.879 Q672.347 158.879 674.639 158.278 Q676.954 157.676 679.222 156.472 L679.222 160.5 Q676.931 161.472 674.523 161.981 Q672.116 162.49 669.639 162.49 Q663.435 162.49 659.801 158.879 Q656.19 155.268 656.19 149.111 Q656.19 142.745 659.616 139.018 Q663.065 135.268 668.898 135.268 Q674.13 135.268 677.162 138.648 Q680.218 142.004 680.218 147.791 M675.958 146.541 Q675.912 143.046 673.991 140.963 Q672.093 138.879 668.945 138.879 Q665.38 138.879 663.227 140.893 Q661.097 142.907 660.773 146.565 L675.958 146.541 Z" fill="#000000" fill-rule="nonzero" fill-opacity="1" /><path clip-path="url(#clip600)" d="M703.736 136.657 L703.736 140.685 Q701.93 139.759 699.986 139.296 Q698.042 138.833 695.958 138.833 Q692.787 138.833 691.19 139.805 Q689.616 140.778 689.616 142.722 Q689.616 144.204 690.75 145.06 Q691.884 145.893 695.31 146.657 L696.768 146.981 Q701.305 147.954 703.204 149.736 Q705.125 151.495 705.125 154.666 Q705.125 158.278 702.255 160.384 Q699.407 162.49 694.407 162.49 Q692.324 162.49 690.056 162.074 Q687.81 161.68 685.31 160.87 L685.31 156.472 Q687.671 157.699 689.963 158.324 Q692.255 158.926 694.5 158.926 Q697.509 158.926 699.13 157.907 Q700.75 156.866 700.75 154.991 Q700.75 153.254 699.569 152.328 Q698.412 151.403 694.454 150.546 L692.972 150.199 Q689.014 149.366 687.255 147.653 Q685.495 145.916 685.495 142.907 Q685.495 139.25 688.088 137.259 Q690.681 135.268 695.449 135.268 Q697.81 135.268 699.893 135.616 Q701.977 135.963 703.736 136.657 Z" fill="#000000" fill-rule="nonzero" fill-opacity="1" /><polyline clip-path="url(#clip600)" style="stroke:#e26f46; stroke-linecap:round; stroke-linejoin:round; stroke-width:4; stroke-opacity:1; fill:none" points="314.197,196.379 456.422,196.379 "/>
<path clip-path="url(#clip600)" d="M496.631 177.641 L496.631 181.183 L492.557 181.183 Q490.265 181.183 489.362 182.108 Q488.483 183.034 488.483 185.442 L488.483 187.733 L495.496 187.733 L495.496 191.044 L488.483 191.044 L488.483 213.659 L484.2 213.659 L484.2 191.044 L480.126 191.044 L480.126 187.733 L484.2 187.733 L484.2 185.928 Q484.2 181.599 486.214 179.632 Q488.228 177.641 492.603 177.641 L496.631 177.641 Z" fill="#000000" fill-rule="nonzero" fill-opacity="1" /><path clip-path="url(#clip600)" d="M500.195 187.733 L504.455 187.733 L504.455 213.659 L500.195 213.659 L500.195 187.733 M500.195 177.641 L504.455 177.641 L504.455 183.034 L500.195 183.034 L500.195 177.641 Z" fill="#000000" fill-rule="nonzero" fill-opacity="1" /><path clip-path="url(#clip600)" d="M517.58 180.372 L517.58 187.733 L526.353 187.733 L526.353 191.044 L517.58 191.044 L517.58 205.118 Q517.58 208.289 518.436 209.192 Q519.316 210.094 521.978 210.094 L526.353 210.094 L526.353 213.659 L521.978 213.659 Q517.047 213.659 515.172 211.83 Q513.297 209.979 513.297 205.118 L513.297 191.044 L510.172 191.044 L510.172 187.733 L513.297 187.733 L513.297 180.372 L517.58 180.372 Z" fill="#000000" fill-rule="nonzero" fill-opacity="1" /><path clip-path="url(#clip600)" d="M562.047 191.715 Q561.329 191.298 560.473 191.113 Q559.64 190.905 558.621 190.905 Q555.01 190.905 553.066 193.266 Q551.144 195.604 551.144 200.002 L551.144 213.659 L546.862 213.659 L546.862 187.733 L551.144 187.733 L551.144 191.761 Q552.487 189.4 554.64 188.266 Q556.792 187.108 559.871 187.108 Q560.311 187.108 560.843 187.178 Q561.376 187.224 562.024 187.34 L562.047 191.715 Z" fill="#000000" fill-rule="nonzero" fill-opacity="1" /><path clip-path="url(#clip600)" d="M587.649 199.631 L587.649 201.715 L568.065 201.715 Q568.343 206.113 570.704 208.428 Q573.089 210.719 577.325 210.719 Q579.778 210.719 582.07 210.118 Q584.385 209.516 586.653 208.312 L586.653 212.34 Q584.362 213.312 581.954 213.821 Q579.547 214.33 577.07 214.33 Q570.866 214.33 567.232 210.719 Q563.621 207.108 563.621 200.951 Q563.621 194.585 567.047 190.858 Q570.496 187.108 576.329 187.108 Q581.561 187.108 584.593 190.488 Q587.649 193.844 587.649 199.631 M583.389 198.381 Q583.343 194.886 581.422 192.803 Q579.524 190.719 576.376 190.719 Q572.811 190.719 570.658 192.733 Q568.528 194.747 568.204 198.405 L583.389 198.381 Z" fill="#000000" fill-rule="nonzero" fill-opacity="1" /><path clip-path="url(#clip600)" d="M611.167 188.497 L611.167 192.525 Q609.362 191.599 607.417 191.136 Q605.473 190.673 603.389 190.673 Q600.218 190.673 598.621 191.645 Q597.047 192.618 597.047 194.562 Q597.047 196.044 598.181 196.9 Q599.315 197.733 602.741 198.497 L604.199 198.821 Q608.737 199.794 610.635 201.576 Q612.556 203.335 612.556 206.506 Q612.556 210.118 609.686 212.224 Q606.838 214.33 601.838 214.33 Q599.755 214.33 597.487 213.914 Q595.241 213.52 592.741 212.71 L592.741 208.312 Q595.102 209.539 597.394 210.164 Q599.686 210.766 601.931 210.766 Q604.94 210.766 606.561 209.747 Q608.181 208.706 608.181 206.831 Q608.181 205.094 607 204.168 Q605.843 203.243 601.885 202.386 L600.403 202.039 Q596.445 201.206 594.686 199.493 Q592.926 197.756 592.926 194.747 Q592.926 191.09 595.519 189.099 Q598.112 187.108 602.88 187.108 Q605.241 187.108 607.324 187.456 Q609.408 187.803 611.167 188.497 Z" fill="#000000" fill-rule="nonzero" fill-opacity="1" /><path clip-path="url(#clip600)" d="M618.898 203.428 L618.898 187.733 L623.158 187.733 L623.158 203.266 Q623.158 206.946 624.593 208.798 Q626.028 210.627 628.898 210.627 Q632.347 210.627 634.338 208.428 Q636.352 206.229 636.352 202.432 L636.352 187.733 L640.611 187.733 L640.611 213.659 L636.352 213.659 L636.352 209.678 Q634.801 212.039 632.741 213.196 Q630.704 214.33 627.996 214.33 Q623.528 214.33 621.213 211.553 Q618.898 208.775 618.898 203.428 M629.616 187.108 L629.616 187.108 Z" fill="#000000" fill-rule="nonzero" fill-opacity="1" /><path clip-path="url(#clip600)" d="M649.384 177.641 L653.644 177.641 L653.644 213.659 L649.384 213.659 L649.384 177.641 Z" fill="#000000" fill-rule="nonzero" fill-opacity="1" /><path clip-path="url(#clip600)" d="M666.769 180.372 L666.769 187.733 L675.542 187.733 L675.542 191.044 L666.769 191.044 L666.769 205.118 Q666.769 208.289 667.625 209.192 Q668.505 210.094 671.167 210.094 L675.542 210.094 L675.542 213.659 L671.167 213.659 Q666.236 213.659 664.361 211.83 Q662.486 209.979 662.486 205.118 L662.486 191.044 L659.361 191.044 L659.361 187.733 L662.486 187.733 L662.486 180.372 L666.769 180.372 Z" fill="#000000" fill-rule="nonzero" fill-opacity="1" /><path clip-path="url(#clip600)" d="M385.309 225.464 L362.554 270.975 L408.065 270.975 L385.309 225.464 Z" fill="#009af9" fill-rule="evenodd" fill-opacity="1" stroke="#000000" stroke-opacity="1" stroke-width="4.55111"/>
<path clip-path="url(#clip600)" d="M501.839 249.851 L501.839 265.499 L497.58 265.499 L497.58 249.99 Q497.58 246.309 496.145 244.481 Q494.709 242.652 491.839 242.652 Q488.39 242.652 486.399 244.851 Q484.408 247.05 484.408 250.846 L484.408 265.499 L480.126 265.499 L480.126 239.573 L484.408 239.573 L484.408 243.601 Q485.936 241.263 487.996 240.106 Q490.08 238.948 492.788 238.948 Q497.256 238.948 499.547 241.726 Q501.839 244.481 501.839 249.851 Z" fill="#000000" fill-rule="nonzero" fill-opacity="1" /><path clip-path="url(#clip600)" d="M532.51 251.471 L532.51 253.555 L512.927 253.555 Q513.205 257.953 515.566 260.268 Q517.95 262.559 522.186 262.559 Q524.64 262.559 526.931 261.958 Q529.246 261.356 531.515 260.152 L531.515 264.18 Q529.223 265.152 526.816 265.661 Q524.408 266.17 521.931 266.17 Q515.728 266.17 512.094 262.559 Q508.482 258.948 508.482 252.791 Q508.482 246.425 511.908 242.698 Q515.357 238.948 521.191 238.948 Q526.422 238.948 529.455 242.328 Q532.51 245.684 532.51 251.471 M528.251 250.221 Q528.205 246.726 526.283 244.643 Q524.385 242.559 521.237 242.559 Q517.672 242.559 515.519 244.573 Q513.39 246.587 513.066 250.245 L528.251 250.221 Z" fill="#000000" fill-rule="nonzero" fill-opacity="1" /><path clip-path="url(#clip600)" d="M537.024 239.573 L541.283 239.573 L546.607 259.805 L551.908 239.573 L556.931 239.573 L562.255 259.805 L567.556 239.573 L571.815 239.573 L565.033 265.499 L560.01 265.499 L554.431 244.249 L548.829 265.499 L543.806 265.499 L537.024 239.573 Z" fill="#000000" fill-rule="nonzero" fill-opacity="1" /><path clip-path="url(#clip600)" d="M593.343 229.481 L597.602 229.481 L597.602 265.499 L593.343 265.499 L593.343 229.481 Z" fill="#000000" fill-rule="nonzero" fill-opacity="1" /><path clip-path="url(#clip600)" d="M618.297 252.467 Q613.135 252.467 611.144 253.647 Q609.153 254.828 609.153 257.675 Q609.153 259.944 610.635 261.286 Q612.139 262.606 614.709 262.606 Q618.25 262.606 620.38 260.106 Q622.533 257.583 622.533 253.416 L622.533 252.467 L618.297 252.467 M626.792 250.708 L626.792 265.499 L622.533 265.499 L622.533 261.564 Q621.074 263.925 618.898 265.059 Q616.723 266.17 613.574 266.17 Q609.593 266.17 607.232 263.948 Q604.894 261.703 604.894 257.953 Q604.894 253.578 607.811 251.356 Q610.75 249.134 616.561 249.134 L622.533 249.134 L622.533 248.717 Q622.533 245.777 620.588 244.18 Q618.667 242.559 615.172 242.559 Q612.949 242.559 610.843 243.092 Q608.737 243.624 606.792 244.689 L606.792 240.754 Q609.13 239.851 611.329 239.411 Q613.528 238.948 615.611 238.948 Q621.236 238.948 624.014 241.865 Q626.792 244.782 626.792 250.708 Z" fill="#000000" fill-rule="nonzero" fill-opacity="1" /><path clip-path="url(#clip600)" d="M654.176 252.559 Q654.176 247.86 652.232 245.198 Q650.31 242.513 646.931 242.513 Q643.551 242.513 641.607 245.198 Q639.685 247.86 639.685 252.559 Q639.685 257.258 641.607 259.944 Q643.551 262.606 646.931 262.606 Q650.31 262.606 652.232 259.944 Q654.176 257.258 654.176 252.559 M639.685 243.509 Q641.028 241.194 643.065 240.083 Q645.125 238.948 647.972 238.948 Q652.695 238.948 655.634 242.698 Q658.597 246.448 658.597 252.559 Q658.597 258.671 655.634 262.42 Q652.695 266.17 647.972 266.17 Q645.125 266.17 643.065 265.059 Q641.028 263.925 639.685 261.61 L639.685 265.499 L635.403 265.499 L635.403 229.481 L639.685 229.481 L639.685 243.509 Z" fill="#000000" fill-rule="nonzero" fill-opacity="1" /><path clip-path="url(#clip600)" d="M687.833 251.471 L687.833 253.555 L668.25 253.555 Q668.528 257.953 670.889 260.268 Q673.273 262.559 677.509 262.559 Q679.963 262.559 682.255 261.958 Q684.569 261.356 686.838 260.152 L686.838 264.18 Q684.546 265.152 682.139 265.661 Q679.731 266.17 677.255 266.17 Q671.051 266.17 667.417 262.559 Q663.806 258.948 663.806 252.791 Q663.806 246.425 667.232 242.698 Q670.681 238.948 676.514 238.948 Q681.745 238.948 684.778 242.328 Q687.833 245.684 687.833 251.471 M683.574 250.221 Q683.528 246.726 681.606 244.643 Q679.708 242.559 676.56 242.559 Q672.995 242.559 670.843 244.573 Q668.713 246.587 668.389 250.245 L683.574 250.221 Z" fill="#000000" fill-rule="nonzero" fill-opacity="1" /><path clip-path="url(#clip600)" d="M694.824 229.481 L699.083 229.481 L699.083 265.499 L694.824 265.499 L694.824 229.481 Z" fill="#000000" fill-rule="nonzero" fill-opacity="1" /><path clip-path="url(#clip600)" d="M727.278 232.212 L727.278 239.573 L736.051 239.573 L736.051 242.884 L727.278 242.884 L727.278 256.958 Q727.278 260.129 728.134 261.032 Q729.014 261.934 731.676 261.934 L736.051 261.934 L736.051 265.499 L731.676 265.499 Q726.745 265.499 724.87 263.67 Q722.995 261.819 722.995 256.958 L722.995 242.884 L719.87 242.884 L719.87 239.573 L722.995 239.573 L722.995 232.212 L727.278 232.212 Z" fill="#000000" fill-rule="nonzero" fill-opacity="1" /><path clip-path="url(#clip600)" d="M763.828 251.471 L763.828 253.555 L744.245 253.555 Q744.523 257.953 746.884 260.268 Q749.268 262.559 753.504 262.559 Q755.958 262.559 758.25 261.958 Q760.564 261.356 762.833 260.152 L762.833 264.18 Q760.541 265.152 758.134 265.661 Q755.726 266.17 753.25 266.17 Q747.046 266.17 743.412 262.559 Q739.801 258.948 739.801 252.791 Q739.801 246.425 743.227 242.698 Q746.676 238.948 752.509 238.948 Q757.74 238.948 760.773 242.328 Q763.828 245.684 763.828 251.471 M759.569 250.221 Q759.523 246.726 757.601 244.643 Q755.703 242.559 752.555 242.559 Q748.99 242.559 746.838 244.573 Q744.708 246.587 744.384 250.245 L759.569 250.221 Z" fill="#000000" fill-rule="nonzero" fill-opacity="1" /><path clip-path="url(#clip600)" d="M791.536 239.573 L782.162 252.189 L792.023 265.499 L786.999 265.499 L779.453 255.314 L771.907 265.499 L766.884 265.499 L776.953 251.934 L767.74 239.573 L772.763 239.573 L779.638 248.809 L786.513 239.573 L791.536 239.573 Z" fill="#000000" fill-rule="nonzero" fill-opacity="1" /><path clip-path="url(#clip600)" d="M802.254 232.212 L802.254 239.573 L811.027 239.573 L811.027 242.884 L802.254 242.884 L802.254 256.958 Q802.254 260.129 803.11 261.032 Q803.99 261.934 806.652 261.934 L811.027 261.934 L811.027 265.499 L806.652 265.499 Q801.722 265.499 799.847 263.67 Q797.972 261.819 797.972 256.958 L797.972 242.884 L794.847 242.884 L794.847 239.573 L797.972 239.573 L797.972 232.212 L802.254 232.212 Z" fill="#000000" fill-rule="nonzero" fill-opacity="1" /></svg>
