<?xml version="1.0" encoding="utf-8"?>
<svg xmlns="http://www.w3.org/2000/svg" xmlns:xlink="http://www.w3.org/1999/xlink" width="600" height="400" viewBox="0 0 2400 1600">
<defs>
  <clipPath id="clip510">
    <rect x="0" y="0" width="2400" height="1600"/>
  </clipPath>
</defs>
<path clip-path="url(#clip510)" d="M0 1600 L2400 1600 L2400 0 L0 0  Z" fill="#ffffff" fill-rule="evenodd" fill-opacity="1"/>
<defs>
  <clipPath id="clip511">
    <rect x="480" y="0" width="1681" height="1600"/>
  </clipPath>
</defs>
<path clip-path="url(#clip510)" d="M219.38 1410.9 L2352.76 1410.9 L2352.76 47.2441 L219.38 47.2441  Z" fill="#ffffff" fill-rule="evenodd" fill-opacity="1"/>
<defs>
  <clipPath id="clip512">
    <rect x="219" y="47" width="2134" height="1365"/>
  </clipPath>
</defs>
<polyline clip-path="url(#clip512)" style="stroke:#000000; stroke-linecap:round; stroke-linejoin:round; stroke-width:2; stroke-opacity:0.1; fill:none" points="279.759,1410.9 279.759,47.2441 "/>
<polyline clip-path="url(#clip512)" style="stroke:#000000; stroke-linecap:round; stroke-linejoin:round; stroke-width:2; stroke-opacity:0.1; fill:none" points="1537.65,1410.9 1537.65,47.2441 "/>
<polyline clip-path="url(#clip510)" style="stroke:#000000; stroke-linecap:round; stroke-linejoin:round; stroke-width:4; stroke-opacity:1; fill:none" points="219.38,1410.9 2352.76,1410.9 "/>
<polyline clip-path="url(#clip510)" style="stroke:#000000; stroke-linecap:round; stroke-linejoin:round; stroke-width:4; stroke-opacity:1; fill:none" points="279.759,1410.9 279.759,1392 "/>
<polyline clip-path="url(#clip510)" style="stroke:#000000; stroke-linecap:round; stroke-linejoin:round; stroke-width:4; stroke-opacity:1; fill:none" points="1537.65,1410.9 1537.65,1392 "/>
<path clip-path="url(#clip510)" d="M217.122 1485.02 L224.761 1485.02 L224.761 1458.66 L216.451 1460.32 L216.451 1456.06 L224.715 1454.4 L229.391 1454.4 L229.391 1485.02 L237.03 1485.02 L237.03 1488.96 L217.122 1488.96 L217.122 1485.02 Z" fill="#000000" fill-rule="nonzero" fill-opacity="1" /><path clip-path="url(#clip510)" d="M256.474 1457.48 Q252.863 1457.48 251.034 1461.04 Q249.229 1464.58 249.229 1471.71 Q249.229 1478.82 251.034 1482.38 Q252.863 1485.92 256.474 1485.92 Q260.108 1485.92 261.914 1482.38 Q263.742 1478.82 263.742 1471.71 Q263.742 1464.58 261.914 1461.04 Q260.108 1457.48 256.474 1457.48 M256.474 1453.77 Q262.284 1453.77 265.34 1458.38 Q268.418 1462.96 268.418 1471.71 Q268.418 1480.44 265.34 1485.04 Q262.284 1489.63 256.474 1489.63 Q250.664 1489.63 247.585 1485.04 Q244.53 1480.44 244.53 1471.71 Q244.53 1462.96 247.585 1458.38 Q250.664 1453.77 256.474 1453.77 Z" fill="#000000" fill-rule="nonzero" fill-opacity="1" /><path clip-path="url(#clip510)" d="M268.418 1447.87 L292.53 1447.87 L292.53 1451.07 L268.418 1451.07 L268.418 1447.87 Z" fill="#000000" fill-rule="nonzero" fill-opacity="1" /><path clip-path="url(#clip510)" d="M301.388 1458.35 L307.595 1458.35 L307.595 1436.93 L300.843 1438.28 L300.843 1434.82 L307.557 1433.47 L311.356 1433.47 L311.356 1458.35 L317.563 1458.35 L317.563 1461.55 L301.388 1461.55 L301.388 1458.35 Z" fill="#000000" fill-rule="nonzero" fill-opacity="1" /><path clip-path="url(#clip510)" d="M333.362 1435.97 Q330.428 1435.97 328.942 1438.86 Q327.475 1441.74 327.475 1447.53 Q327.475 1453.31 328.942 1456.2 Q330.428 1459.08 333.362 1459.08 Q336.314 1459.08 337.781 1456.2 Q339.267 1453.31 339.267 1447.53 Q339.267 1441.74 337.781 1438.86 Q336.314 1435.97 333.362 1435.97 M333.362 1432.96 Q338.082 1432.96 340.565 1436.7 Q343.066 1440.43 343.066 1447.53 Q343.066 1454.62 340.565 1458.37 Q338.082 1462.09 333.362 1462.09 Q328.641 1462.09 326.139 1458.37 Q323.657 1454.62 323.657 1447.53 Q323.657 1440.43 326.139 1436.7 Q328.641 1432.96 333.362 1432.96 Z" fill="#000000" fill-rule="nonzero" fill-opacity="1" /><path clip-path="url(#clip510)" d="M1487.67 1485.02 L1495.31 1485.02 L1495.31 1458.66 L1487 1460.32 L1487 1456.06 L1495.26 1454.4 L1499.94 1454.4 L1499.94 1485.02 L1507.57 1485.02 L1507.57 1488.96 L1487.67 1488.96 L1487.67 1485.02 Z" fill="#000000" fill-rule="nonzero" fill-opacity="1" /><path clip-path="url(#clip510)" d="M1527.02 1457.48 Q1523.41 1457.48 1521.58 1461.04 Q1519.77 1464.58 1519.77 1471.71 Q1519.77 1478.82 1521.58 1482.38 Q1523.41 1485.92 1527.02 1485.92 Q1530.65 1485.92 1532.46 1482.38 Q1534.29 1478.82 1534.29 1471.71 Q1534.29 1464.58 1532.46 1461.04 Q1530.65 1457.48 1527.02 1457.48 M1527.02 1453.77 Q1532.83 1453.77 1535.88 1458.38 Q1538.96 1462.96 1538.96 1471.71 Q1538.96 1480.44 1535.88 1485.04 Q1532.83 1489.63 1527.02 1489.63 Q1521.21 1489.63 1518.13 1485.04 Q1515.07 1480.44 1515.07 1471.71 Q1515.07 1462.96 1518.13 1458.38 Q1521.21 1453.77 1527.02 1453.77 Z" fill="#000000" fill-rule="nonzero" fill-opacity="1" /><path clip-path="url(#clip510)" d="M1538.96 1447.87 L1563.07 1447.87 L1563.07 1451.07 L1538.96 1451.07 L1538.96 1447.87 Z" fill="#000000" fill-rule="nonzero" fill-opacity="1" /><path clip-path="url(#clip510)" d="M1571.31 1433.47 L1586.23 1433.47 L1586.23 1436.66 L1574.79 1436.66 L1574.79 1443.55 Q1575.62 1443.27 1576.45 1443.13 Q1577.27 1442.98 1578.1 1442.98 Q1582.8 1442.98 1585.55 1445.56 Q1588.3 1448.14 1588.3 1452.54 Q1588.3 1457.07 1585.47 1459.59 Q1582.65 1462.09 1577.52 1462.09 Q1575.75 1462.09 1573.91 1461.79 Q1572.08 1461.49 1570.13 1460.89 L1570.13 1457.07 Q1571.82 1457.99 1573.63 1458.44 Q1575.43 1458.89 1577.44 1458.89 Q1580.7 1458.89 1582.6 1457.18 Q1584.5 1455.47 1584.5 1452.54 Q1584.5 1449.6 1582.6 1447.89 Q1580.7 1446.18 1577.44 1446.18 Q1575.92 1446.18 1574.4 1446.52 Q1572.89 1446.86 1571.31 1447.57 L1571.31 1433.47 Z" fill="#000000" fill-rule="nonzero" fill-opacity="1" /><path clip-path="url(#clip510)" d="M1093.11 1539.91 L1093.11 1545.38 Q1090.62 1544.01 1088.11 1543.34 Q1085.63 1542.64 1083.08 1542.64 Q1077.38 1542.64 1074.23 1546.27 Q1071.08 1549.87 1071.08 1556.39 Q1071.08 1562.92 1074.23 1566.55 Q1077.38 1570.14 1083.08 1570.14 Q1085.63 1570.14 1088.11 1569.47 Q1090.62 1568.77 1093.11 1567.41 L1093.11 1572.82 Q1090.66 1573.96 1088.01 1574.54 Q1085.41 1575.11 1082.44 1575.11 Q1074.39 1575.11 1069.65 1570.05 Q1064.91 1564.99 1064.91 1556.39 Q1064.91 1547.67 1069.68 1542.68 Q1074.49 1537.68 1082.83 1537.68 Q1085.53 1537.68 1088.11 1538.25 Q1090.69 1538.79 1093.11 1539.91 Z" fill="#000000" fill-rule="nonzero" fill-opacity="1" /><path clip-path="url(#clip510)" d="M1117.11 1542.64 Q1112.4 1542.64 1109.66 1546.34 Q1106.92 1550 1106.92 1556.39 Q1106.92 1562.79 1109.63 1566.48 Q1112.36 1570.14 1117.11 1570.14 Q1121.79 1570.14 1124.52 1566.45 Q1127.26 1562.76 1127.26 1556.39 Q1127.26 1550.06 1124.52 1546.37 Q1121.79 1542.64 1117.11 1542.64 M1117.11 1537.68 Q1124.75 1537.68 1129.11 1542.64 Q1133.47 1547.61 1133.47 1556.39 Q1133.47 1565.15 1129.11 1570.14 Q1124.75 1575.11 1117.11 1575.11 Q1109.44 1575.11 1105.08 1570.14 Q1100.75 1565.15 1100.75 1556.39 Q1100.75 1547.61 1105.08 1542.64 Q1109.44 1537.68 1117.11 1537.68 Z" fill="#000000" fill-rule="nonzero" fill-opacity="1" /><path clip-path="url(#clip510)" d="M1172.81 1552.67 L1172.81 1574.19 L1166.95 1574.19 L1166.95 1552.86 Q1166.95 1547.8 1164.98 1545.29 Q1163 1542.77 1159.06 1542.77 Q1154.31 1542.77 1151.58 1545.79 Q1148.84 1548.82 1148.84 1554.04 L1148.84 1574.19 L1142.95 1574.19 L1142.95 1538.54 L1148.84 1538.54 L1148.84 1544.08 Q1150.94 1540.86 1153.77 1539.27 Q1156.64 1537.68 1160.36 1537.68 Q1166.5 1537.68 1169.66 1541.5 Q1172.81 1545.29 1172.81 1552.67 Z" fill="#000000" fill-rule="nonzero" fill-opacity="1" /><path clip-path="url(#clip510)" d="M1210.14 1539.91 L1210.14 1545.38 Q1207.66 1544.01 1205.14 1543.34 Q1202.66 1542.64 1200.12 1542.64 Q1194.42 1542.64 1191.27 1546.27 Q1188.12 1549.87 1188.12 1556.39 Q1188.12 1562.92 1191.27 1566.55 Q1194.42 1570.14 1200.12 1570.14 Q1202.66 1570.14 1205.14 1569.47 Q1207.66 1568.77 1210.14 1567.41 L1210.14 1572.82 Q1207.69 1573.96 1205.05 1574.54 Q1202.44 1575.11 1199.48 1575.11 Q1191.43 1575.11 1186.68 1570.05 Q1181.94 1564.99 1181.94 1556.39 Q1181.94 1547.67 1186.72 1542.68 Q1191.52 1537.68 1199.86 1537.68 Q1202.57 1537.68 1205.14 1538.25 Q1207.72 1538.79 1210.14 1539.91 Z" fill="#000000" fill-rule="nonzero" fill-opacity="1" /><path clip-path="url(#clip510)" d="M1250.82 1554.9 L1250.82 1557.76 L1223.89 1557.76 Q1224.27 1563.81 1227.52 1566.99 Q1230.8 1570.14 1236.62 1570.14 Q1240 1570.14 1243.15 1569.32 Q1246.33 1568.49 1249.45 1566.83 L1249.45 1572.37 Q1246.3 1573.71 1242.99 1574.41 Q1239.68 1575.11 1236.27 1575.11 Q1227.74 1575.11 1222.75 1570.14 Q1217.78 1565.18 1217.78 1556.71 Q1217.78 1547.96 1222.49 1542.83 Q1227.23 1537.68 1235.25 1537.68 Q1242.45 1537.68 1246.62 1542.33 Q1250.82 1546.94 1250.82 1554.9 M1244.96 1553.18 Q1244.9 1548.37 1242.26 1545.51 Q1239.65 1542.64 1235.32 1542.64 Q1230.42 1542.64 1227.46 1545.41 Q1224.53 1548.18 1224.08 1553.21 L1244.96 1553.18 Z" fill="#000000" fill-rule="nonzero" fill-opacity="1" /><path clip-path="url(#clip510)" d="M1290.06 1552.67 L1290.06 1574.19 L1284.21 1574.19 L1284.21 1552.86 Q1284.21 1547.8 1282.23 1545.29 Q1280.26 1542.77 1276.31 1542.77 Q1271.57 1542.77 1268.83 1545.79 Q1266.1 1548.82 1266.1 1554.04 L1266.1 1574.19 L1260.21 1574.19 L1260.21 1538.54 L1266.1 1538.54 L1266.1 1544.08 Q1268.2 1540.86 1271.03 1539.27 Q1273.89 1537.68 1277.62 1537.68 Q1283.76 1537.68 1286.91 1541.5 Q1290.06 1545.29 1290.06 1552.67 Z" fill="#000000" fill-rule="nonzero" fill-opacity="1" /><path clip-path="url(#clip510)" d="M1307.54 1528.42 L1307.54 1538.54 L1319.6 1538.54 L1319.6 1543.09 L1307.54 1543.09 L1307.54 1562.44 Q1307.54 1566.8 1308.71 1568.04 Q1309.92 1569.28 1313.58 1569.28 L1319.6 1569.28 L1319.6 1574.19 L1313.58 1574.19 Q1306.8 1574.19 1304.23 1571.67 Q1301.65 1569.12 1301.65 1562.44 L1301.65 1543.09 L1297.35 1543.09 L1297.35 1538.54 L1301.65 1538.54 L1301.65 1528.42 L1307.54 1528.42 Z" fill="#000000" fill-rule="nonzero" fill-opacity="1" /><path clip-path="url(#clip510)" d="M1347.96 1544.01 Q1346.97 1543.44 1345.79 1543.18 Q1344.65 1542.9 1343.25 1542.9 Q1338.28 1542.9 1335.61 1546.14 Q1332.97 1549.36 1332.97 1555.41 L1332.97 1574.19 L1327.08 1574.19 L1327.08 1538.54 L1332.97 1538.54 L1332.97 1544.08 Q1334.81 1540.83 1337.77 1539.27 Q1340.73 1537.68 1344.97 1537.68 Q1345.57 1537.68 1346.3 1537.77 Q1347.04 1537.84 1347.93 1538 L1347.96 1544.01 Z" fill="#000000" fill-rule="nonzero" fill-opacity="1" /><path clip-path="url(#clip510)" d="M1370.3 1556.27 Q1363.2 1556.27 1360.47 1557.89 Q1357.73 1559.51 1357.73 1563.43 Q1357.73 1566.55 1359.77 1568.39 Q1361.84 1570.21 1365.37 1570.21 Q1370.24 1570.21 1373.17 1566.77 Q1376.13 1563.3 1376.13 1557.57 L1376.13 1556.27 L1370.3 1556.27 M1381.98 1553.85 L1381.98 1574.19 L1376.13 1574.19 L1376.13 1568.77 Q1374.12 1572.02 1371.13 1573.58 Q1368.14 1575.11 1363.81 1575.11 Q1358.33 1575.11 1355.09 1572.05 Q1351.87 1568.97 1351.87 1563.81 Q1351.87 1557.79 1355.88 1554.74 Q1359.93 1551.68 1367.92 1551.68 L1376.13 1551.68 L1376.13 1551.11 Q1376.13 1547.07 1373.45 1544.87 Q1370.81 1542.64 1366.01 1542.64 Q1362.95 1542.64 1360.05 1543.38 Q1357.16 1544.11 1354.48 1545.57 L1354.48 1540.16 Q1357.7 1538.92 1360.72 1538.31 Q1363.75 1537.68 1366.61 1537.68 Q1374.34 1537.68 1378.16 1541.69 Q1381.98 1545.7 1381.98 1553.85 Z" fill="#000000" fill-rule="nonzero" fill-opacity="1" /><path clip-path="url(#clip510)" d="M1399.84 1528.42 L1399.84 1538.54 L1411.9 1538.54 L1411.9 1543.09 L1399.84 1543.09 L1399.84 1562.44 Q1399.84 1566.8 1401.02 1568.04 Q1402.23 1569.28 1405.89 1569.28 L1411.9 1569.28 L1411.9 1574.19 L1405.89 1574.19 Q1399.11 1574.19 1396.53 1571.67 Q1393.95 1569.12 1393.95 1562.44 L1393.95 1543.09 L1389.65 1543.09 L1389.65 1538.54 L1393.95 1538.54 L1393.95 1528.42 L1399.84 1528.42 Z" fill="#000000" fill-rule="nonzero" fill-opacity="1" /><path clip-path="url(#clip510)" d="M1419.6 1538.54 L1425.46 1538.54 L1425.46 1574.19 L1419.6 1574.19 L1419.6 1538.54 M1419.6 1524.66 L1425.46 1524.66 L1425.46 1532.08 L1419.6 1532.08 L1419.6 1524.66 Z" fill="#000000" fill-rule="nonzero" fill-opacity="1" /><path clip-path="url(#clip510)" d="M1451.53 1542.64 Q1446.82 1542.64 1444.08 1546.34 Q1441.34 1550 1441.34 1556.39 Q1441.34 1562.79 1444.05 1566.48 Q1446.79 1570.14 1451.53 1570.14 Q1456.21 1570.14 1458.94 1566.45 Q1461.68 1562.76 1461.68 1556.39 Q1461.68 1550.06 1458.94 1546.37 Q1456.21 1542.64 1451.53 1542.64 M1451.53 1537.68 Q1459.17 1537.68 1463.53 1542.64 Q1467.89 1547.61 1467.89 1556.39 Q1467.89 1565.15 1463.53 1570.14 Q1459.17 1575.11 1451.53 1575.11 Q1443.86 1575.11 1439.5 1570.14 Q1435.17 1565.15 1435.17 1556.39 Q1435.17 1547.61 1439.5 1542.64 Q1443.86 1537.68 1451.53 1537.68 Z" fill="#000000" fill-rule="nonzero" fill-opacity="1" /><path clip-path="url(#clip510)" d="M1507.23 1552.67 L1507.23 1574.19 L1501.37 1574.19 L1501.37 1552.86 Q1501.37 1547.8 1499.4 1545.29 Q1497.43 1542.77 1493.48 1542.77 Q1488.74 1542.77 1486 1545.79 Q1483.26 1548.82 1483.26 1554.04 L1483.26 1574.19 L1477.37 1574.19 L1477.37 1538.54 L1483.26 1538.54 L1483.26 1544.08 Q1485.36 1540.86 1488.2 1539.27 Q1491.06 1537.68 1494.78 1537.68 Q1500.93 1537.68 1504.08 1541.5 Q1507.23 1545.29 1507.23 1552.67 Z" fill="#000000" fill-rule="nonzero" fill-opacity="1" /><polyline clip-path="url(#clip512)" style="stroke:#000000; stroke-linecap:round; stroke-linejoin:round; stroke-width:2; stroke-opacity:0.1; fill:none" points="219.38,1372.42 2352.76,1372.42 "/>
<polyline clip-path="url(#clip512)" style="stroke:#000000; stroke-linecap:round; stroke-linejoin:round; stroke-width:2; stroke-opacity:0.1; fill:none" points="219.38,1087.36 2352.76,1087.36 "/>
<polyline clip-path="url(#clip512)" style="stroke:#000000; stroke-linecap:round; stroke-linejoin:round; stroke-width:2; stroke-opacity:0.1; fill:none" points="219.38,802.293 2352.76,802.293 "/>
<polyline clip-path="url(#clip512)" style="stroke:#000000; stroke-linecap:round; stroke-linejoin:round; stroke-width:2; stroke-opacity:0.1; fill:none" points="219.38,517.23 2352.76,517.23 "/>
<polyline clip-path="url(#clip512)" style="stroke:#000000; stroke-linecap:round; stroke-linejoin:round; stroke-width:2; stroke-opacity:0.1; fill:none" points="219.38,232.166 2352.76,232.166 "/>
<polyline clip-path="url(#clip510)" style="stroke:#000000; stroke-linecap:round; stroke-linejoin:round; stroke-width:4; stroke-opacity:1; fill:none" points="219.38,1410.9 219.38,47.2441 "/>
<polyline clip-path="url(#clip510)" style="stroke:#000000; stroke-linecap:round; stroke-linejoin:round; stroke-width:4; stroke-opacity:1; fill:none" points="219.38,1372.42 238.278,1372.42 "/>
<polyline clip-path="url(#clip510)" style="stroke:#000000; stroke-linecap:round; stroke-linejoin:round; stroke-width:4; stroke-opacity:1; fill:none" points="219.38,1087.36 238.278,1087.36 "/>
<polyline clip-path="url(#clip510)" style="stroke:#000000; stroke-linecap:round; stroke-linejoin:round; stroke-width:4; stroke-opacity:1; fill:none" points="219.38,802.293 238.278,802.293 "/>
<polyline clip-path="url(#clip510)" style="stroke:#000000; stroke-linecap:round; stroke-linejoin:round; stroke-width:4; stroke-opacity:1; fill:none" points="219.38,517.23 238.278,517.23 "/>
<polyline clip-path="url(#clip510)" style="stroke:#000000; stroke-linecap:round; stroke-linejoin:round; stroke-width:4; stroke-opacity:1; fill:none" points="219.38,232.166 238.278,232.166 "/>
<path clip-path="url(#clip510)" d="M126.205 1358.22 Q122.593 1358.22 120.765 1361.78 Q118.959 1365.33 118.959 1372.46 Q118.959 1379.56 120.765 1383.13 Q122.593 1386.67 126.205 1386.67 Q129.839 1386.67 131.644 1383.13 Q133.473 1379.56 133.473 1372.46 Q133.473 1365.33 131.644 1361.78 Q129.839 1358.22 126.205 1358.22 M126.205 1354.52 Q132.015 1354.52 135.07 1359.12 Q138.149 1363.71 138.149 1372.46 Q138.149 1381.18 135.07 1385.79 Q132.015 1390.37 126.205 1390.37 Q120.394 1390.37 117.316 1385.79 Q114.26 1381.18 114.26 1372.46 Q114.26 1363.71 117.316 1359.12 Q120.394 1354.52 126.205 1354.52 Z" fill="#000000" fill-rule="nonzero" fill-opacity="1" /><path clip-path="url(#clip510)" d="M146.366 1383.82 L151.251 1383.82 L151.251 1389.7 L146.366 1389.7 L146.366 1383.82 Z" fill="#000000" fill-rule="nonzero" fill-opacity="1" /><path clip-path="url(#clip510)" d="M171.436 1358.22 Q167.825 1358.22 165.996 1361.78 Q164.19 1365.33 164.19 1372.46 Q164.19 1379.56 165.996 1383.13 Q167.825 1386.67 171.436 1386.67 Q175.07 1386.67 176.876 1383.13 Q178.704 1379.56 178.704 1372.46 Q178.704 1365.33 176.876 1361.78 Q175.07 1358.22 171.436 1358.22 M171.436 1354.52 Q177.246 1354.52 180.301 1359.12 Q183.38 1363.71 183.38 1372.46 Q183.38 1381.18 180.301 1385.79 Q177.246 1390.37 171.436 1390.37 Q165.626 1390.37 162.547 1385.79 Q159.491 1381.18 159.491 1372.46 Q159.491 1363.71 162.547 1359.12 Q165.626 1354.52 171.436 1354.52 Z" fill="#000000" fill-rule="nonzero" fill-opacity="1" /><path clip-path="url(#clip510)" d="M127.2 1073.16 Q123.589 1073.16 121.76 1076.72 Q119.955 1080.26 119.955 1087.39 Q119.955 1094.5 121.76 1098.06 Q123.589 1101.6 127.2 1101.6 Q130.834 1101.6 132.64 1098.06 Q134.468 1094.5 134.468 1087.39 Q134.468 1080.26 132.64 1076.72 Q130.834 1073.16 127.2 1073.16 M127.2 1069.45 Q133.01 1069.45 136.066 1074.06 Q139.144 1078.64 139.144 1087.39 Q139.144 1096.12 136.066 1100.73 Q133.01 1105.31 127.2 1105.31 Q121.39 1105.31 118.311 1100.73 Q115.256 1096.12 115.256 1087.39 Q115.256 1078.64 118.311 1074.06 Q121.39 1069.45 127.2 1069.45 Z" fill="#000000" fill-rule="nonzero" fill-opacity="1" /><path clip-path="url(#clip510)" d="M147.362 1098.76 L152.246 1098.76 L152.246 1104.64 L147.362 1104.64 L147.362 1098.76 Z" fill="#000000" fill-rule="nonzero" fill-opacity="1" /><path clip-path="url(#clip510)" d="M162.477 1070.08 L180.834 1070.08 L180.834 1074.01 L166.76 1074.01 L166.76 1082.48 Q167.778 1082.14 168.797 1081.98 Q169.815 1081.79 170.834 1081.79 Q176.621 1081.79 180.001 1084.96 Q183.38 1088.13 183.38 1093.55 Q183.38 1099.13 179.908 1102.23 Q176.436 1105.31 170.116 1105.31 Q167.94 1105.31 165.672 1104.94 Q163.427 1104.57 161.019 1103.83 L161.019 1099.13 Q163.102 1100.26 165.325 1100.82 Q167.547 1101.37 170.024 1101.37 Q174.028 1101.37 176.366 1099.27 Q178.704 1097.16 178.704 1093.55 Q178.704 1089.94 176.366 1087.83 Q174.028 1085.73 170.024 1085.73 Q168.149 1085.73 166.274 1086.14 Q164.422 1086.56 162.477 1087.44 L162.477 1070.08 Z" fill="#000000" fill-rule="nonzero" fill-opacity="1" /><path clip-path="url(#clip510)" d="M117.015 815.638 L124.654 815.638 L124.654 789.273 L116.343 790.939 L116.343 786.68 L124.607 785.013 L129.283 785.013 L129.283 815.638 L136.922 815.638 L136.922 819.573 L117.015 819.573 L117.015 815.638 Z" fill="#000000" fill-rule="nonzero" fill-opacity="1" /><path clip-path="url(#clip510)" d="M146.366 813.694 L151.251 813.694 L151.251 819.573 L146.366 819.573 L146.366 813.694 Z" fill="#000000" fill-rule="nonzero" fill-opacity="1" /><path clip-path="url(#clip510)" d="M171.436 788.092 Q167.825 788.092 165.996 791.657 Q164.19 795.199 164.19 802.328 Q164.19 809.435 165.996 812.999 Q167.825 816.541 171.436 816.541 Q175.07 816.541 176.876 812.999 Q178.704 809.435 178.704 802.328 Q178.704 795.199 176.876 791.657 Q175.07 788.092 171.436 788.092 M171.436 784.388 Q177.246 784.388 180.301 788.995 Q183.38 793.578 183.38 802.328 Q183.38 811.055 180.301 815.661 Q177.246 820.245 171.436 820.245 Q165.626 820.245 162.547 815.661 Q159.491 811.055 159.491 802.328 Q159.491 793.578 162.547 788.995 Q165.626 784.388 171.436 784.388 Z" fill="#000000" fill-rule="nonzero" fill-opacity="1" /><path clip-path="url(#clip510)" d="M118.01 530.574 L125.649 530.574 L125.649 504.209 L117.339 505.875 L117.339 501.616 L125.603 499.95 L130.279 499.95 L130.279 530.574 L137.917 530.574 L137.917 534.51 L118.01 534.51 L118.01 530.574 Z" fill="#000000" fill-rule="nonzero" fill-opacity="1" /><path clip-path="url(#clip510)" d="M147.362 528.63 L152.246 528.63 L152.246 534.51 L147.362 534.51 L147.362 528.63 Z" fill="#000000" fill-rule="nonzero" fill-opacity="1" /><path clip-path="url(#clip510)" d="M162.477 499.95 L180.834 499.95 L180.834 503.885 L166.76 503.885 L166.76 512.357 Q167.778 512.01 168.797 511.848 Q169.815 511.662 170.834 511.662 Q176.621 511.662 180.001 514.834 Q183.38 518.005 183.38 523.422 Q183.38 529 179.908 532.102 Q176.436 535.181 170.116 535.181 Q167.94 535.181 165.672 534.81 Q163.427 534.44 161.019 533.699 L161.019 529 Q163.102 530.135 165.325 530.69 Q167.547 531.246 170.024 531.246 Q174.028 531.246 176.366 529.139 Q178.704 527.033 178.704 523.422 Q178.704 519.811 176.366 517.704 Q174.028 515.598 170.024 515.598 Q168.149 515.598 166.274 516.014 Q164.422 516.431 162.477 517.311 L162.477 499.95 Z" fill="#000000" fill-rule="nonzero" fill-opacity="1" /><path clip-path="url(#clip510)" d="M120.232 245.51 L136.552 245.51 L136.552 249.446 L114.607 249.446 L114.607 245.51 Q117.269 242.756 121.853 238.126 Q126.459 233.474 127.64 232.131 Q129.885 229.608 130.765 227.872 Q131.667 226.112 131.667 224.423 Q131.667 221.668 129.723 219.932 Q127.802 218.196 124.7 218.196 Q122.501 218.196 120.047 218.96 Q117.617 219.724 114.839 221.275 L114.839 216.552 Q117.663 215.418 120.117 214.839 Q122.57 214.261 124.607 214.261 Q129.978 214.261 133.172 216.946 Q136.367 219.631 136.367 224.122 Q136.367 226.251 135.556 228.173 Q134.769 230.071 132.663 232.663 Q132.084 233.335 128.982 236.552 Q125.88 239.747 120.232 245.51 Z" fill="#000000" fill-rule="nonzero" fill-opacity="1" /><path clip-path="url(#clip510)" d="M146.366 243.566 L151.251 243.566 L151.251 249.446 L146.366 249.446 L146.366 243.566 Z" fill="#000000" fill-rule="nonzero" fill-opacity="1" /><path clip-path="url(#clip510)" d="M171.436 217.964 Q167.825 217.964 165.996 221.529 Q164.19 225.071 164.19 232.2 Q164.19 239.307 165.996 242.872 Q167.825 246.413 171.436 246.413 Q175.07 246.413 176.876 242.872 Q178.704 239.307 178.704 232.2 Q178.704 225.071 176.876 221.529 Q175.07 217.964 171.436 217.964 M171.436 214.261 Q177.246 214.261 180.301 218.867 Q183.38 223.45 183.38 232.2 Q183.38 240.927 180.301 245.534 Q177.246 250.117 171.436 250.117 Q165.626 250.117 162.547 245.534 Q159.491 240.927 159.491 232.2 Q159.491 223.45 162.547 218.867 Q165.626 214.261 171.436 214.261 Z" fill="#000000" fill-rule="nonzero" fill-opacity="1" /><path clip-path="url(#clip510)" d="M33.8307 851.531 Q33.2578 852.517 33.0032 853.695 Q32.7167 854.841 32.7167 856.241 Q32.7167 861.207 35.9632 863.88 Q39.1779 866.522 45.2253 866.522 L64.0042 866.522 L64.0042 872.41 L28.3562 872.41 L28.3562 866.522 L33.8944 866.522 Q30.6479 864.676 29.0883 861.716 Q27.4968 858.756 27.4968 854.523 Q27.4968 853.918 27.5923 853.186 Q27.656 852.454 27.8151 851.562 L33.8307 851.531 Z" fill="#000000" fill-rule="nonzero" fill-opacity="1" /><path clip-path="url(#clip510)" d="M44.7161 816.328 L47.5806 816.328 L47.5806 843.255 Q53.6281 842.873 56.8109 839.627 Q59.9619 836.348 59.9619 830.524 Q59.9619 827.15 59.1344 823.999 Q58.3069 820.816 56.6518 817.697 L62.1899 817.697 Q63.5267 820.848 64.227 824.158 Q64.9272 827.468 64.9272 830.874 Q64.9272 839.404 59.9619 844.401 Q54.9967 849.366 46.5303 849.366 Q37.7774 849.366 32.6531 844.656 Q27.4968 839.913 27.4968 831.892 Q27.4968 824.699 32.1438 820.53 Q36.7589 816.328 44.7161 816.328 M42.9973 822.185 Q38.1912 822.248 35.3266 824.89 Q32.4621 827.5 32.4621 831.829 Q32.4621 836.73 35.2312 839.69 Q38.0002 842.619 43.0292 843.064 L42.9973 822.185 Z" fill="#000000" fill-rule="nonzero" fill-opacity="1" /><path clip-path="url(#clip510)" d="M29.4065 783.991 L34.9447 783.991 Q33.6716 786.473 33.035 789.147 Q32.3984 791.82 32.3984 794.685 Q32.3984 799.045 33.7352 801.242 Q35.072 803.406 37.7456 803.406 Q39.7826 803.406 40.9603 801.846 Q42.1061 800.287 43.1565 795.576 L43.6021 793.571 Q44.9389 787.332 47.3897 784.723 Q49.8086 782.081 54.1691 782.081 Q59.1344 782.081 62.0308 786.028 Q64.9272 789.942 64.9272 796.817 Q64.9272 799.682 64.3543 802.801 Q63.8132 805.889 62.6992 809.326 L56.6518 809.326 Q58.3387 806.08 59.198 802.928 Q60.0256 799.777 60.0256 796.69 Q60.0256 792.552 58.6251 790.324 Q57.1929 788.096 54.6147 788.096 Q52.2276 788.096 50.9545 789.72 Q49.6813 791.311 48.5037 796.754 L48.0262 798.791 Q46.8804 804.233 44.5251 806.652 Q42.138 809.071 38.0002 809.071 Q32.9713 809.071 30.2341 805.507 Q27.4968 801.942 27.4968 795.385 Q27.4968 792.139 27.9743 789.274 Q28.4517 786.409 29.4065 783.991 Z" fill="#000000" fill-rule="nonzero" fill-opacity="1" /><path clip-path="url(#clip510)" d="M58.657 767.09 L77.5631 767.09 L77.5631 772.978 L28.3562 772.978 L28.3562 767.09 L33.7671 767.09 Q30.5842 765.243 29.0564 762.443 Q27.4968 759.61 27.4968 755.695 Q27.4968 749.202 32.6531 745.16 Q37.8093 741.086 46.212 741.086 Q54.6147 741.086 59.771 745.16 Q64.9272 749.202 64.9272 755.695 Q64.9272 759.61 63.3994 762.443 Q61.8398 765.243 58.657 767.09 M46.212 747.165 Q39.7508 747.165 36.0905 749.838 Q32.3984 752.48 32.3984 757.127 Q32.3984 761.774 36.0905 764.448 Q39.7508 767.09 46.212 767.09 Q52.6732 767.09 56.3653 764.448 Q60.0256 761.774 60.0256 757.127 Q60.0256 752.48 56.3653 749.838 Q52.6732 747.165 46.212 747.165 Z" fill="#000000" fill-rule="nonzero" fill-opacity="1" /><path clip-path="url(#clip510)" d="M32.4621 717.564 Q32.4621 722.275 36.1542 725.012 Q39.8145 727.749 46.212 727.749 Q52.6095 727.749 56.3017 725.044 Q59.9619 722.307 59.9619 717.564 Q59.9619 712.886 56.2698 710.148 Q52.5777 707.411 46.212 707.411 Q39.8781 707.411 36.186 710.148 Q32.4621 712.886 32.4621 717.564 M27.4968 717.564 Q27.4968 709.926 32.4621 705.565 Q37.4273 701.204 46.212 701.204 Q54.9649 701.204 59.9619 705.565 Q64.9272 709.926 64.9272 717.564 Q64.9272 725.235 59.9619 729.596 Q54.9649 733.924 46.212 733.924 Q37.4273 733.924 32.4621 729.596 Q27.4968 725.235 27.4968 717.564 Z" fill="#000000" fill-rule="nonzero" fill-opacity="1" /><path clip-path="url(#clip510)" d="M42.4881 661.864 L64.0042 661.864 L64.0042 667.721 L42.679 667.721 Q37.6183 667.721 35.1038 669.694 Q32.5894 671.668 32.5894 675.614 Q32.5894 680.357 35.6131 683.094 Q38.6368 685.831 43.8567 685.831 L64.0042 685.831 L64.0042 691.72 L28.3562 691.72 L28.3562 685.831 L33.8944 685.831 Q30.6797 683.731 29.0883 680.898 Q27.4968 678.033 27.4968 674.309 Q27.4968 668.166 31.3163 665.015 Q35.1038 661.864 42.4881 661.864 Z" fill="#000000" fill-rule="nonzero" fill-opacity="1" /><path clip-path="url(#clip510)" d="M29.4065 627.458 L34.9447 627.458 Q33.6716 629.94 33.035 632.614 Q32.3984 635.288 32.3984 638.152 Q32.3984 642.513 33.7352 644.709 Q35.072 646.873 37.7456 646.873 Q39.7826 646.873 40.9603 645.314 Q42.1061 643.754 43.1565 639.043 L43.6021 637.038 Q44.9389 630.8 47.3897 628.19 Q49.8086 625.548 54.1691 625.548 Q59.1344 625.548 62.0308 629.495 Q64.9272 633.41 64.9272 640.285 Q64.9272 643.149 64.3543 646.268 Q63.8132 649.356 62.6992 652.793 L56.6518 652.793 Q58.3387 649.547 59.198 646.396 Q60.0256 643.245 60.0256 640.157 Q60.0256 636.02 58.6251 633.792 Q57.1929 631.564 54.6147 631.564 Q52.2276 631.564 50.9545 633.187 Q49.6813 634.778 48.5037 640.221 L48.0262 642.258 Q46.8804 647.701 44.5251 650.12 Q42.138 652.539 38.0002 652.539 Q32.9713 652.539 30.2341 648.974 Q27.4968 645.409 27.4968 638.852 Q27.4968 635.606 27.9743 632.741 Q28.4517 629.877 29.4065 627.458 Z" fill="#000000" fill-rule="nonzero" fill-opacity="1" /><path clip-path="url(#clip510)" d="M44.7161 585.731 L47.5806 585.731 L47.5806 612.658 Q53.6281 612.276 56.8109 609.029 Q59.9619 605.751 59.9619 599.926 Q59.9619 596.552 59.1344 593.401 Q58.3069 590.218 56.6518 587.099 L62.1899 587.099 Q63.5267 590.25 64.227 593.56 Q64.9272 596.871 64.9272 600.276 Q64.9272 608.806 59.9619 613.803 Q54.9967 618.769 46.5303 618.769 Q37.7774 618.769 32.6531 614.058 Q27.4968 609.316 27.4968 601.295 Q27.4968 594.101 32.1438 589.932 Q36.7589 585.731 44.7161 585.731 M42.9973 591.587 Q38.1912 591.651 35.3266 594.292 Q32.4621 596.902 32.4621 601.231 Q32.4621 606.133 35.2312 609.093 Q38.0002 612.021 43.0292 612.467 L42.9973 591.587 Z" fill="#000000" fill-rule="nonzero" fill-opacity="1" /><circle clip-path="url(#clip512)" cx="279.759" cy="1372.29" r="14.4" fill="#009af9" fill-rule="evenodd" fill-opacity="1" stroke="#000000" stroke-opacity="1" stroke-width="3.2"/>
<circle clip-path="url(#clip512)" cx="413.933" cy="1372.01" r="14.4" fill="#009af9" fill-rule="evenodd" fill-opacity="1" stroke="#000000" stroke-opacity="1" stroke-width="3.2"/>
<circle clip-path="url(#clip512)" cx="548.108" cy="1371.15" r="14.4" fill="#009af9" fill-rule="evenodd" fill-opacity="1" stroke="#000000" stroke-opacity="1" stroke-width="3.2"/>
<circle clip-path="url(#clip512)" cx="682.282" cy="1367.75" r="14.4" fill="#009af9" fill-rule="evenodd" fill-opacity="1" stroke="#000000" stroke-opacity="1" stroke-width="3.2"/>
<circle clip-path="url(#clip512)" cx="816.457" cy="1359.92" r="14.4" fill="#009af9" fill-rule="evenodd" fill-opacity="1" stroke="#000000" stroke-opacity="1" stroke-width="3.2"/>
<circle clip-path="url(#clip512)" cx="950.632" cy="1333.85" r="14.4" fill="#009af9" fill-rule="evenodd" fill-opacity="1" stroke="#000000" stroke-opacity="1" stroke-width="3.2"/>
<circle clip-path="url(#clip512)" cx="1084.81" cy="1257.37" r="14.4" fill="#009af9" fill-rule="evenodd" fill-opacity="1" stroke="#000000" stroke-opacity="1" stroke-width="3.2"/>
<circle clip-path="url(#clip512)" cx="1218.98" cy="1110.24" r="14.4" fill="#009af9" fill-rule="evenodd" fill-opacity="1" stroke="#000000" stroke-opacity="1" stroke-width="3.2"/>
<circle clip-path="url(#clip512)" cx="1353.16" cy="888.819" r="14.4" fill="#009af9" fill-rule="evenodd" fill-opacity="1" stroke="#000000" stroke-opacity="1" stroke-width="3.2"/>
<circle clip-path="url(#clip512)" cx="1487.33" cy="764.073" r="14.4" fill="#009af9" fill-rule="evenodd" fill-opacity="1" stroke="#000000" stroke-opacity="1" stroke-width="3.2"/>
<circle clip-path="url(#clip512)" cx="1621.5" cy="627.866" r="14.4" fill="#009af9" fill-rule="evenodd" fill-opacity="1" stroke="#000000" stroke-opacity="1" stroke-width="3.2"/>
<circle clip-path="url(#clip512)" cx="1755.68" cy="482.353" r="14.4" fill="#009af9" fill-rule="evenodd" fill-opacity="1" stroke="#000000" stroke-opacity="1" stroke-width="3.2"/>
<circle clip-path="url(#clip512)" cx="1889.85" cy="282.145" r="14.4" fill="#009af9" fill-rule="evenodd" fill-opacity="1" stroke="#000000" stroke-opacity="1" stroke-width="3.2"/>
<circle clip-path="url(#clip512)" cx="2024.03" cy="232.303" r="14.4" fill="#009af9" fill-rule="evenodd" fill-opacity="1" stroke="#000000" stroke-opacity="1" stroke-width="3.2"/>
<circle clip-path="url(#clip512)" cx="2158.2" cy="85.838" r="14.4" fill="#009af9" fill-rule="evenodd" fill-opacity="1" stroke="#000000" stroke-opacity="1" stroke-width="3.2"/>
<circle clip-path="url(#clip512)" cx="2292.38" cy="175.683" r="14.4" fill="#009af9" fill-rule="evenodd" fill-opacity="1" stroke="#000000" stroke-opacity="1" stroke-width="3.2"/>
<path clip-path="url(#clip512)" d="M263.759 1356.3 L263.759 1388.3 L295.759 1388.3 L295.759 1356.3 L263.759 1356.3 Z" fill="#e26f46" fill-rule="evenodd" fill-opacity="1" stroke="#000000" stroke-opacity="1" stroke-width="3.2"/>
<path clip-path="url(#clip512)" d="M397.933 1355.94 L397.933 1387.94 L429.933 1387.94 L429.933 1355.94 L397.933 1355.94 Z" fill="#e26f46" fill-rule="evenodd" fill-opacity="1" stroke="#000000" stroke-opacity="1" stroke-width="3.2"/>
<path clip-path="url(#clip512)" d="M532.108 1355.19 L532.108 1387.19 L564.108 1387.19 L564.108 1355.19 L532.108 1355.19 Z" fill="#e26f46" fill-rule="evenodd" fill-opacity="1" stroke="#000000" stroke-opacity="1" stroke-width="3.2"/>
<path clip-path="url(#clip512)" d="M666.282 1352.27 L666.282 1384.27 L698.282 1384.27 L698.282 1352.27 L666.282 1352.27 Z" fill="#e26f46" fill-rule="evenodd" fill-opacity="1" stroke="#000000" stroke-opacity="1" stroke-width="3.2"/>
<path clip-path="url(#clip512)" d="M800.457 1344.05 L800.457 1376.05 L832.457 1376.05 L832.457 1344.05 L800.457 1344.05 Z" fill="#e26f46" fill-rule="evenodd" fill-opacity="1" stroke="#000000" stroke-opacity="1" stroke-width="3.2"/>
<path clip-path="url(#clip512)" d="M934.632 1319.53 L934.632 1351.53 L966.632 1351.53 L966.632 1319.53 L934.632 1319.53 Z" fill="#e26f46" fill-rule="evenodd" fill-opacity="1" stroke="#000000" stroke-opacity="1" stroke-width="3.2"/>
<path clip-path="url(#clip512)" d="M1068.81 1241.75 L1068.81 1273.75 L1100.81 1273.75 L1100.81 1241.75 L1068.81 1241.75 Z" fill="#e26f46" fill-rule="evenodd" fill-opacity="1" stroke="#000000" stroke-opacity="1" stroke-width="3.2"/>
<path clip-path="url(#clip512)" d="M1202.98 1094.48 L1202.98 1126.48 L1234.98 1126.48 L1234.98 1094.48 L1202.98 1094.48 Z" fill="#e26f46" fill-rule="evenodd" fill-opacity="1" stroke="#000000" stroke-opacity="1" stroke-width="3.2"/>
<path clip-path="url(#clip512)" d="M1337.16 856.105 L1337.16 888.105 L1369.16 888.105 L1369.16 856.105 L1337.16 856.105 Z" fill="#e26f46" fill-rule="evenodd" fill-opacity="1" stroke="#000000" stroke-opacity="1" stroke-width="3.2"/>
<path clip-path="url(#clip512)" d="M1471.33 680.291 L1471.33 712.291 L1503.33 712.291 L1503.33 680.291 L1471.33 680.291 Z" fill="#e26f46" fill-rule="evenodd" fill-opacity="1" stroke="#000000" stroke-opacity="1" stroke-width="3.2"/>
<path clip-path="url(#clip512)" d="M1605.5 653.579 L1605.5 685.579 L1637.5 685.579 L1637.5 653.579 L1605.5 653.579 Z" fill="#e26f46" fill-rule="evenodd" fill-opacity="1" stroke="#000000" stroke-opacity="1" stroke-width="3.2"/>
<path clip-path="url(#clip512)" d="M1739.68 385.363 L1739.68 417.363 L1771.68 417.363 L1771.68 385.363 L1739.68 385.363 Z" fill="#e26f46" fill-rule="evenodd" fill-opacity="1" stroke="#000000" stroke-opacity="1" stroke-width="3.2"/>
<path clip-path="url(#clip512)" d="M1873.85 149.392 L1873.85 181.392 L1905.85 181.392 L1905.85 149.392 L1873.85 149.392 Z" fill="#e26f46" fill-rule="evenodd" fill-opacity="1" stroke="#000000" stroke-opacity="1" stroke-width="3.2"/>
<path clip-path="url(#clip512)" d="M2008.03 194.476 L2008.03 226.476 L2040.03 226.476 L2040.03 194.476 L2008.03 194.476 Z" fill="#e26f46" fill-rule="evenodd" fill-opacity="1" stroke="#000000" stroke-opacity="1" stroke-width="3.2"/>
<path clip-path="url(#clip512)" d="M2142.2 233.412 L2142.2 265.412 L2174.2 265.412 L2174.2 233.412 L2142.2 233.412 Z" fill="#e26f46" fill-rule="evenodd" fill-opacity="1" stroke="#000000" stroke-opacity="1" stroke-width="3.2"/>
<path clip-path="url(#clip512)" d="M2276.38 159.479 L2276.38 191.479 L2308.38 191.479 L2308.38 159.479 L2276.38 159.479 Z" fill="#e26f46" fill-rule="evenodd" fill-opacity="1" stroke="#000000" stroke-opacity="1" stroke-width="3.2"/>
<path clip-path="url(#clip512)" d="M279.759 1356.3 L263.759 1388.3 L295.759 1388.3 L279.759 1356.3 Z" fill="#3da44d" fill-rule="evenodd" fill-opacity="1" stroke="#000000" stroke-opacity="1" stroke-width="3.2"/>
<path clip-path="url(#clip512)" d="M413.933 1356 L397.933 1388 L429.933 1388 L413.933 1356 Z" fill="#3da44d" fill-rule="evenodd" fill-opacity="1" stroke="#000000" stroke-opacity="1" stroke-width="3.2"/>
<path clip-path="url(#clip512)" d="M548.108 1355.01 L532.108 1387.01 L564.108 1387.01 L548.108 1355.01 Z" fill="#3da44d" fill-rule="evenodd" fill-opacity="1" stroke="#000000" stroke-opacity="1" stroke-width="3.2"/>
<path clip-path="url(#clip512)" d="M682.282 1352.44 L666.282 1384.44 L698.282 1384.44 L682.282 1352.44 Z" fill="#3da44d" fill-rule="evenodd" fill-opacity="1" stroke="#000000" stroke-opacity="1" stroke-width="3.2"/>
<path clip-path="url(#clip512)" d="M816.457 1343.07 L800.457 1375.07 L832.457 1375.07 L816.457 1343.07 Z" fill="#3da44d" fill-rule="evenodd" fill-opacity="1" stroke="#000000" stroke-opacity="1" stroke-width="3.2"/>
<path clip-path="url(#clip512)" d="M950.632 1315.56 L934.632 1347.56 L966.632 1347.56 L950.632 1315.56 Z" fill="#3da44d" fill-rule="evenodd" fill-opacity="1" stroke="#000000" stroke-opacity="1" stroke-width="3.2"/>
<path clip-path="url(#clip512)" d="M1084.81 1244.14 L1068.81 1276.14 L1100.81 1276.14 L1084.81 1244.14 Z" fill="#3da44d" fill-rule="evenodd" fill-opacity="1" stroke="#000000" stroke-opacity="1" stroke-width="3.2"/>
<path clip-path="url(#clip512)" d="M1218.98 1048.83 L1202.98 1080.83 L1234.98 1080.83 L1218.98 1048.83 Z" fill="#3da44d" fill-rule="evenodd" fill-opacity="1" stroke="#000000" stroke-opacity="1" stroke-width="3.2"/>
<path clip-path="url(#clip512)" d="M1353.16 862.503 L1337.16 894.503 L1369.16 894.503 L1353.16 862.503 Z" fill="#3da44d" fill-rule="evenodd" fill-opacity="1" stroke="#000000" stroke-opacity="1" stroke-width="3.2"/>
<path clip-path="url(#clip512)" d="M1487.33 748.05 L1471.33 780.05 L1503.33 780.05 L1487.33 748.05 Z" fill="#3da44d" fill-rule="evenodd" fill-opacity="1" stroke="#000000" stroke-opacity="1" stroke-width="3.2"/>
<path clip-path="url(#clip512)" d="M1621.5 628.437 L1605.5 660.437 L1637.5 660.437 L1621.5 628.437 Z" fill="#3da44d" fill-rule="evenodd" fill-opacity="1" stroke="#000000" stroke-opacity="1" stroke-width="3.2"/>
<path clip-path="url(#clip512)" d="M1755.68 488.723 L1739.68 520.723 L1771.68 520.723 L1755.68 488.723 Z" fill="#3da44d" fill-rule="evenodd" fill-opacity="1" stroke="#000000" stroke-opacity="1" stroke-width="3.2"/>
<path clip-path="url(#clip512)" d="M1889.85 91.3965 L1873.85 123.396 L1905.85 123.396 L1889.85 91.3965 Z" fill="#3da44d" fill-rule="evenodd" fill-opacity="1" stroke="#000000" stroke-opacity="1" stroke-width="3.2"/>
<path clip-path="url(#clip512)" d="M2024.03 172.004 L2008.03 204.004 L2040.03 204.004 L2024.03 172.004 Z" fill="#3da44d" fill-rule="evenodd" fill-opacity="1" stroke="#000000" stroke-opacity="1" stroke-width="3.2"/>
<path clip-path="url(#clip512)" d="M2158.2 124.476 L2142.2 156.476 L2174.2 156.476 L2158.2 124.476 Z" fill="#3da44d" fill-rule="evenodd" fill-opacity="1" stroke="#000000" stroke-opacity="1" stroke-width="3.2"/>
<path clip-path="url(#clip512)" d="M2292.38 111.889 L2276.38 143.889 L2308.38 143.889 L2292.38 111.889 Z" fill="#3da44d" fill-rule="evenodd" fill-opacity="1" stroke="#000000" stroke-opacity="1" stroke-width="3.2"/>
<path clip-path="url(#clip510)" d="M290.493 300.059 L747.88 300.059 L747.88 92.6992 L290.493 92.6992  Z" fill="#ffffff" fill-rule="evenodd" fill-opacity="1"/>
<polyline clip-path="url(#clip510)" style="stroke:#000000; stroke-linecap:round; stroke-linejoin:round; stroke-width:4; stroke-opacity:1; fill:none" points="290.493,300.059 747.88,300.059 747.88,92.6992 290.493,92.6992 290.493,300.059 "/>
<circle clip-path="url(#clip510)" cx="385.309" cy="144.539" r="20.48" fill="#009af9" fill-rule="evenodd" fill-opacity="1" stroke="#000000" stroke-opacity="1" stroke-width="4.55111"/>
<path clip-path="url(#clip510)" d="M495.311 139.875 Q494.594 139.458 493.737 139.273 Q492.904 139.065 491.885 139.065 Q488.274 139.065 486.33 141.426 Q484.408 143.764 484.408 148.162 L484.408 161.819 L480.126 161.819 L480.126 135.893 L484.408 135.893 L484.408 139.921 Q485.751 137.56 487.904 136.426 Q490.057 135.268 493.135 135.268 Q493.575 135.268 494.107 135.338 Q494.64 135.384 495.288 135.5 L495.311 139.875 Z" fill="#000000" fill-rule="nonzero" fill-opacity="1" /><path clip-path="url(#clip510)" d="M520.913 147.791 L520.913 149.875 L501.33 149.875 Q501.607 154.273 503.969 156.588 Q506.353 158.879 510.589 158.879 Q513.043 158.879 515.334 158.278 Q517.649 157.676 519.918 156.472 L519.918 160.5 Q517.626 161.472 515.218 161.981 Q512.811 162.49 510.334 162.49 Q504.131 162.49 500.496 158.879 Q496.885 155.268 496.885 149.111 Q496.885 142.745 500.311 139.018 Q503.76 135.268 509.594 135.268 Q514.825 135.268 517.857 138.648 Q520.913 142.004 520.913 147.791 M516.654 146.541 Q516.607 143.046 514.686 140.963 Q512.788 138.879 509.64 138.879 Q506.075 138.879 503.922 140.893 Q501.793 142.907 501.469 146.565 L516.654 146.541 Z" fill="#000000" fill-rule="nonzero" fill-opacity="1" /><path clip-path="url(#clip510)" d="M532.024 157.93 L532.024 171.68 L527.742 171.68 L527.742 135.893 L532.024 135.893 L532.024 139.829 Q533.367 137.514 535.404 136.403 Q537.464 135.268 540.311 135.268 Q545.033 135.268 547.973 139.018 Q550.936 142.768 550.936 148.879 Q550.936 154.991 547.973 158.74 Q545.033 162.49 540.311 162.49 Q537.464 162.49 535.404 161.379 Q533.367 160.245 532.024 157.93 M546.515 148.879 Q546.515 144.18 544.57 141.518 Q542.649 138.833 539.269 138.833 Q535.89 138.833 533.945 141.518 Q532.024 144.18 532.024 148.879 Q532.024 153.578 533.945 156.264 Q535.89 158.926 539.269 158.926 Q542.649 158.926 544.57 156.264 Q546.515 153.578 546.515 148.879 Z" fill="#000000" fill-rule="nonzero" fill-opacity="1" /><path clip-path="url(#clip510)" d="M557.996 125.801 L562.255 125.801 L562.255 161.819 L557.996 161.819 L557.996 125.801 Z" fill="#000000" fill-rule="nonzero" fill-opacity="1" /><path clip-path="url(#clip510)" d="M571.167 135.893 L575.426 135.893 L575.426 161.819 L571.167 161.819 L571.167 135.893 M571.167 125.801 L575.426 125.801 L575.426 131.194 L571.167 131.194 L571.167 125.801 Z" fill="#000000" fill-rule="nonzero" fill-opacity="1" /><path clip-path="url(#clip510)" d="M602.996 136.889 L602.996 140.87 Q601.19 139.875 599.362 139.389 Q597.556 138.879 595.704 138.879 Q591.561 138.879 589.269 141.518 Q586.977 144.134 586.977 148.879 Q586.977 153.625 589.269 156.264 Q591.561 158.879 595.704 158.879 Q597.556 158.879 599.362 158.393 Q601.19 157.884 602.996 156.889 L602.996 160.824 Q601.213 161.657 599.292 162.074 Q597.394 162.49 595.241 162.49 Q589.385 162.49 585.936 158.81 Q582.487 155.129 582.487 148.879 Q582.487 142.537 585.959 138.903 Q589.454 135.268 595.519 135.268 Q597.487 135.268 599.362 135.685 Q601.237 136.079 602.996 136.889 Z" fill="#000000" fill-rule="nonzero" fill-opacity="1" /><path clip-path="url(#clip510)" d="M622.186 148.787 Q617.023 148.787 615.033 149.967 Q613.042 151.148 613.042 153.995 Q613.042 156.264 614.524 157.606 Q616.028 158.926 618.598 158.926 Q622.139 158.926 624.269 156.426 Q626.422 153.903 626.422 149.736 L626.422 148.787 L622.186 148.787 M630.681 147.028 L630.681 161.819 L626.422 161.819 L626.422 157.884 Q624.963 160.245 622.787 161.379 Q620.611 162.49 617.463 162.49 Q613.482 162.49 611.121 160.268 Q608.783 158.023 608.783 154.273 Q608.783 149.898 611.699 147.676 Q614.639 145.454 620.449 145.454 L626.422 145.454 L626.422 145.037 Q626.422 142.097 624.477 140.5 Q622.556 138.879 619.061 138.879 Q616.838 138.879 614.732 139.412 Q612.625 139.944 610.681 141.009 L610.681 137.074 Q613.019 136.171 615.218 135.731 Q617.417 135.268 619.5 135.268 Q625.125 135.268 627.903 138.185 Q630.681 141.102 630.681 147.028 Z" fill="#000000" fill-rule="nonzero" fill-opacity="1" /><path clip-path="url(#clip510)" d="M643.667 128.532 L643.667 135.893 L652.44 135.893 L652.44 139.204 L643.667 139.204 L643.667 153.278 Q643.667 156.449 644.523 157.352 Q645.403 158.254 648.065 158.254 L652.44 158.254 L652.44 161.819 L648.065 161.819 Q643.134 161.819 641.259 159.99 Q639.384 158.139 639.384 153.278 L639.384 139.204 L636.26 139.204 L636.26 135.893 L639.384 135.893 L639.384 128.532 L643.667 128.532 Z" fill="#000000" fill-rule="nonzero" fill-opacity="1" /><path clip-path="url(#clip510)" d="M680.218 147.791 L680.218 149.875 L660.634 149.875 Q660.912 154.273 663.273 156.588 Q665.657 158.879 669.894 158.879 Q672.347 158.879 674.639 158.278 Q676.954 157.676 679.222 156.472 L679.222 160.5 Q676.931 161.472 674.523 161.981 Q672.116 162.49 669.639 162.49 Q663.435 162.49 659.801 158.879 Q656.19 155.268 656.19 149.111 Q656.19 142.745 659.616 139.018 Q663.065 135.268 668.898 135.268 Q674.13 135.268 677.162 138.648 Q680.218 142.004 680.218 147.791 M675.958 146.541 Q675.912 143.046 673.991 140.963 Q672.093 138.879 668.945 138.879 Q665.38 138.879 663.227 140.893 Q661.097 142.907 660.773 146.565 L675.958 146.541 Z" fill="#000000" fill-rule="nonzero" fill-opacity="1" /><path clip-path="url(#clip510)" d="M703.69 157.884 L711.329 157.884 L711.329 131.518 L703.018 133.185 L703.018 128.926 L711.282 127.259 L715.958 127.259 L715.958 157.884 L723.597 157.884 L723.597 161.819 L703.69 161.819 L703.69 157.884 Z" fill="#000000" fill-rule="nonzero" fill-opacity="1" /><path clip-path="url(#clip510)" d="M362.554 173.624 L362.554 219.135 L408.065 219.135 L408.065 173.624 L362.554 173.624 Z" fill="#e26f46" fill-rule="evenodd" fill-opacity="1" stroke="#000000" stroke-opacity="1" stroke-width="4.55111"/>
<path clip-path="url(#clip510)" d="M495.311 191.715 Q494.594 191.298 493.737 191.113 Q492.904 190.905 491.885 190.905 Q488.274 190.905 486.33 193.266 Q484.408 195.604 484.408 200.002 L484.408 213.659 L480.126 213.659 L480.126 187.733 L484.408 187.733 L484.408 191.761 Q485.751 189.4 487.904 188.266 Q490.057 187.108 493.135 187.108 Q493.575 187.108 494.107 187.178 Q494.64 187.224 495.288 187.34 L495.311 191.715 Z" fill="#000000" fill-rule="nonzero" fill-opacity="1" /><path clip-path="url(#clip510)" d="M520.913 199.631 L520.913 201.715 L501.33 201.715 Q501.607 206.113 503.969 208.428 Q506.353 210.719 510.589 210.719 Q513.043 210.719 515.334 210.118 Q517.649 209.516 519.918 208.312 L519.918 212.34 Q517.626 213.312 515.218 213.821 Q512.811 214.33 510.334 214.33 Q504.131 214.33 500.496 210.719 Q496.885 207.108 496.885 200.951 Q496.885 194.585 500.311 190.858 Q503.76 187.108 509.594 187.108 Q514.825 187.108 517.857 190.488 Q520.913 193.844 520.913 199.631 M516.654 198.381 Q516.607 194.886 514.686 192.803 Q512.788 190.719 509.64 190.719 Q506.075 190.719 503.922 192.733 Q501.793 194.747 501.469 198.405 L516.654 198.381 Z" fill="#000000" fill-rule="nonzero" fill-opacity="1" /><path clip-path="url(#clip510)" d="M532.024 209.77 L532.024 223.52 L527.742 223.52 L527.742 187.733 L532.024 187.733 L532.024 191.669 Q533.367 189.354 535.404 188.243 Q537.464 187.108 540.311 187.108 Q545.033 187.108 547.973 190.858 Q550.936 194.608 550.936 200.719 Q550.936 206.831 547.973 210.58 Q545.033 214.33 540.311 214.33 Q537.464 214.33 535.404 213.219 Q533.367 212.085 532.024 209.77 M546.515 200.719 Q546.515 196.02 544.57 193.358 Q542.649 190.673 539.269 190.673 Q535.89 190.673 533.945 193.358 Q532.024 196.02 532.024 200.719 Q532.024 205.418 533.945 208.104 Q535.89 210.766 539.269 210.766 Q542.649 210.766 544.57 208.104 Q546.515 205.418 546.515 200.719 Z" fill="#000000" fill-rule="nonzero" fill-opacity="1" /><path clip-path="url(#clip510)" d="M557.996 177.641 L562.255 177.641 L562.255 213.659 L557.996 213.659 L557.996 177.641 Z" fill="#000000" fill-rule="nonzero" fill-opacity="1" /><path clip-path="url(#clip510)" d="M571.167 187.733 L575.426 187.733 L575.426 213.659 L571.167 213.659 L571.167 187.733 M571.167 177.641 L575.426 177.641 L575.426 183.034 L571.167 183.034 L571.167 177.641 Z" fill="#000000" fill-rule="nonzero" fill-opacity="1" /><path clip-path="url(#clip510)" d="M602.996 188.729 L602.996 192.71 Q601.19 191.715 599.362 191.229 Q597.556 190.719 595.704 190.719 Q591.561 190.719 589.269 193.358 Q586.977 195.974 586.977 200.719 Q586.977 205.465 589.269 208.104 Q591.561 210.719 595.704 210.719 Q597.556 210.719 599.362 210.233 Q601.19 209.724 602.996 208.729 L602.996 212.664 Q601.213 213.497 599.292 213.914 Q597.394 214.33 595.241 214.33 Q589.385 214.33 585.936 210.65 Q582.487 206.969 582.487 200.719 Q582.487 194.377 585.959 190.743 Q589.454 187.108 595.519 187.108 Q597.487 187.108 599.362 187.525 Q601.237 187.919 602.996 188.729 Z" fill="#000000" fill-rule="nonzero" fill-opacity="1" /><path clip-path="url(#clip510)" d="M622.186 200.627 Q617.023 200.627 615.033 201.807 Q613.042 202.988 613.042 205.835 Q613.042 208.104 614.524 209.446 Q616.028 210.766 618.598 210.766 Q622.139 210.766 624.269 208.266 Q626.422 205.743 626.422 201.576 L626.422 200.627 L622.186 200.627 M630.681 198.868 L630.681 213.659 L626.422 213.659 L626.422 209.724 Q624.963 212.085 622.787 213.219 Q620.611 214.33 617.463 214.33 Q613.482 214.33 611.121 212.108 Q608.783 209.863 608.783 206.113 Q608.783 201.738 611.699 199.516 Q614.639 197.294 620.449 197.294 L626.422 197.294 L626.422 196.877 Q626.422 193.937 624.477 192.34 Q622.556 190.719 619.061 190.719 Q616.838 190.719 614.732 191.252 Q612.625 191.784 610.681 192.849 L610.681 188.914 Q613.019 188.011 615.218 187.571 Q617.417 187.108 619.5 187.108 Q625.125 187.108 627.903 190.025 Q630.681 192.942 630.681 198.868 Z" fill="#000000" fill-rule="nonzero" fill-opacity="1" /><path clip-path="url(#clip510)" d="M643.667 180.372 L643.667 187.733 L652.44 187.733 L652.44 191.044 L643.667 191.044 L643.667 205.118 Q643.667 208.289 644.523 209.192 Q645.403 210.094 648.065 210.094 L652.44 210.094 L652.44 213.659 L648.065 213.659 Q643.134 213.659 641.259 211.83 Q639.384 209.979 639.384 205.118 L639.384 191.044 L636.26 191.044 L636.26 187.733 L639.384 187.733 L639.384 180.372 L643.667 180.372 Z" fill="#000000" fill-rule="nonzero" fill-opacity="1" /><path clip-path="url(#clip510)" d="M680.218 199.631 L680.218 201.715 L660.634 201.715 Q660.912 206.113 663.273 208.428 Q665.657 210.719 669.894 210.719 Q672.347 210.719 674.639 210.118 Q676.954 209.516 679.222 208.312 L679.222 212.34 Q676.931 213.312 674.523 213.821 Q672.116 214.33 669.639 214.33 Q663.435 214.33 659.801 210.719 Q656.19 207.108 656.19 200.951 Q656.19 194.585 659.616 190.858 Q663.065 187.108 668.898 187.108 Q674.13 187.108 677.162 190.488 Q680.218 193.844 680.218 199.631 M675.958 198.381 Q675.912 194.886 673.991 192.803 Q672.093 190.719 668.945 190.719 Q665.38 190.719 663.227 192.733 Q661.097 194.747 660.773 198.405 L675.958 198.381 Z" fill="#000000" fill-rule="nonzero" fill-opacity="1" /><path clip-path="url(#clip510)" d="M706.907 209.724 L723.227 209.724 L723.227 213.659 L701.282 213.659 L701.282 209.724 Q703.944 206.969 708.528 202.34 Q713.134 197.687 714.315 196.344 Q716.56 193.821 717.44 192.085 Q718.342 190.326 718.342 188.636 Q718.342 185.882 716.398 184.145 Q714.477 182.409 711.375 182.409 Q709.176 182.409 706.722 183.173 Q704.292 183.937 701.514 185.488 L701.514 180.766 Q704.338 179.632 706.792 179.053 Q709.245 178.474 711.282 178.474 Q716.653 178.474 719.847 181.159 Q723.041 183.845 723.041 188.335 Q723.041 190.465 722.231 192.386 Q721.444 194.284 719.338 196.877 Q718.759 197.548 715.657 200.766 Q712.555 203.96 706.907 209.724 Z" fill="#000000" fill-rule="nonzero" fill-opacity="1" /><path clip-path="url(#clip510)" d="M385.309 225.464 L362.554 270.975 L408.065 270.975 L385.309 225.464 Z" fill="#3da44d" fill-rule="evenodd" fill-opacity="1" stroke="#000000" stroke-opacity="1" stroke-width="4.55111"/>
<path clip-path="url(#clip510)" d="M495.311 243.555 Q494.594 243.138 493.737 242.953 Q492.904 242.745 491.885 242.745 Q488.274 242.745 486.33 245.106 Q484.408 247.444 484.408 251.842 L484.408 265.499 L480.126 265.499 L480.126 239.573 L484.408 239.573 L484.408 243.601 Q485.751 241.24 487.904 240.106 Q490.057 238.948 493.135 238.948 Q493.575 238.948 494.107 239.018 Q494.64 239.064 495.288 239.18 L495.311 243.555 Z" fill="#000000" fill-rule="nonzero" fill-opacity="1" /><path clip-path="url(#clip510)" d="M520.913 251.471 L520.913 253.555 L501.33 253.555 Q501.607 257.953 503.969 260.268 Q506.353 262.559 510.589 262.559 Q513.043 262.559 515.334 261.958 Q517.649 261.356 519.918 260.152 L519.918 264.18 Q517.626 265.152 515.218 265.661 Q512.811 266.17 510.334 266.17 Q504.131 266.17 500.496 262.559 Q496.885 258.948 496.885 252.791 Q496.885 246.425 500.311 242.698 Q503.76 238.948 509.594 238.948 Q514.825 238.948 517.857 242.328 Q520.913 245.684 520.913 251.471 M516.654 250.221 Q516.607 246.726 514.686 244.643 Q512.788 242.559 509.64 242.559 Q506.075 242.559 503.922 244.573 Q501.793 246.587 501.469 250.245 L516.654 250.221 Z" fill="#000000" fill-rule="nonzero" fill-opacity="1" /><path clip-path="url(#clip510)" d="M532.024 261.61 L532.024 275.36 L527.742 275.36 L527.742 239.573 L532.024 239.573 L532.024 243.509 Q533.367 241.194 535.404 240.083 Q537.464 238.948 540.311 238.948 Q545.033 238.948 547.973 242.698 Q550.936 246.448 550.936 252.559 Q550.936 258.671 547.973 262.42 Q545.033 266.17 540.311 266.17 Q537.464 266.17 535.404 265.059 Q533.367 263.925 532.024 261.61 M546.515 252.559 Q546.515 247.86 544.57 245.198 Q542.649 242.513 539.269 242.513 Q535.89 242.513 533.945 245.198 Q532.024 247.86 532.024 252.559 Q532.024 257.258 533.945 259.944 Q535.89 262.606 539.269 262.606 Q542.649 262.606 544.57 259.944 Q546.515 257.258 546.515 252.559 Z" fill="#000000" fill-rule="nonzero" fill-opacity="1" /><path clip-path="url(#clip510)" d="M557.996 229.481 L562.255 229.481 L562.255 265.499 L557.996 265.499 L557.996 229.481 Z" fill="#000000" fill-rule="nonzero" fill-opacity="1" /><path clip-path="url(#clip510)" d="M571.167 239.573 L575.426 239.573 L575.426 265.499 L571.167 265.499 L571.167 239.573 M571.167 229.481 L575.426 229.481 L575.426 234.874 L571.167 234.874 L571.167 229.481 Z" fill="#000000" fill-rule="nonzero" fill-opacity="1" /><path clip-path="url(#clip510)" d="M602.996 240.569 L602.996 244.55 Q601.19 243.555 599.362 243.069 Q597.556 242.559 595.704 242.559 Q591.561 242.559 589.269 245.198 Q586.977 247.814 586.977 252.559 Q586.977 257.305 589.269 259.944 Q591.561 262.559 595.704 262.559 Q597.556 262.559 599.362 262.073 Q601.19 261.564 602.996 260.569 L602.996 264.504 Q601.213 265.337 599.292 265.754 Q597.394 266.17 595.241 266.17 Q589.385 266.17 585.936 262.49 Q582.487 258.809 582.487 252.559 Q582.487 246.217 585.959 242.583 Q589.454 238.948 595.519 238.948 Q597.487 238.948 599.362 239.365 Q601.237 239.759 602.996 240.569 Z" fill="#000000" fill-rule="nonzero" fill-opacity="1" /><path clip-path="url(#clip510)" d="M622.186 252.467 Q617.023 252.467 615.033 253.647 Q613.042 254.828 613.042 257.675 Q613.042 259.944 614.524 261.286 Q616.028 262.606 618.598 262.606 Q622.139 262.606 624.269 260.106 Q626.422 257.583 626.422 253.416 L626.422 252.467 L622.186 252.467 M630.681 250.708 L630.681 265.499 L626.422 265.499 L626.422 261.564 Q624.963 263.925 622.787 265.059 Q620.611 266.17 617.463 266.17 Q613.482 266.17 611.121 263.948 Q608.783 261.703 608.783 257.953 Q608.783 253.578 611.699 251.356 Q614.639 249.134 620.449 249.134 L626.422 249.134 L626.422 248.717 Q626.422 245.777 624.477 244.18 Q622.556 242.559 619.061 242.559 Q616.838 242.559 614.732 243.092 Q612.625 243.624 610.681 244.689 L610.681 240.754 Q613.019 239.851 615.218 239.411 Q617.417 238.948 619.5 238.948 Q625.125 238.948 627.903 241.865 Q630.681 244.782 630.681 250.708 Z" fill="#000000" fill-rule="nonzero" fill-opacity="1" /><path clip-path="url(#clip510)" d="M643.667 232.212 L643.667 239.573 L652.44 239.573 L652.44 242.884 L643.667 242.884 L643.667 256.958 Q643.667 260.129 644.523 261.032 Q645.403 261.934 648.065 261.934 L652.44 261.934 L652.44 265.499 L648.065 265.499 Q643.134 265.499 641.259 263.67 Q639.384 261.819 639.384 256.958 L639.384 242.884 L636.26 242.884 L636.26 239.573 L639.384 239.573 L639.384 232.212 L643.667 232.212 Z" fill="#000000" fill-rule="nonzero" fill-opacity="1" /><path clip-path="url(#clip510)" d="M680.218 251.471 L680.218 253.555 L660.634 253.555 Q660.912 257.953 663.273 260.268 Q665.657 262.559 669.894 262.559 Q672.347 262.559 674.639 261.958 Q676.954 261.356 679.222 260.152 L679.222 264.18 Q676.931 265.152 674.523 265.661 Q672.116 266.17 669.639 266.17 Q663.435 266.17 659.801 262.559 Q656.19 258.948 656.19 252.791 Q656.19 246.425 659.616 242.698 Q663.065 238.948 668.898 238.948 Q674.13 238.948 677.162 242.328 Q680.218 245.684 680.218 251.471 M675.958 250.221 Q675.912 246.726 673.991 244.643 Q672.093 242.559 668.945 242.559 Q665.38 242.559 663.227 244.573 Q661.097 246.587 660.773 250.245 L675.958 250.221 Z" fill="#000000" fill-rule="nonzero" fill-opacity="1" /><path clip-path="url(#clip510)" d="M717.046 246.865 Q720.403 247.583 722.278 249.851 Q724.176 252.12 724.176 255.453 Q724.176 260.569 720.657 263.37 Q717.139 266.17 710.657 266.17 Q708.481 266.17 706.167 265.731 Q703.875 265.314 701.421 264.458 L701.421 259.944 Q703.366 261.078 705.68 261.657 Q707.995 262.235 710.518 262.235 Q714.916 262.235 717.208 260.499 Q719.523 258.763 719.523 255.453 Q719.523 252.397 717.37 250.684 Q715.241 248.948 711.421 248.948 L707.393 248.948 L707.393 245.106 L711.606 245.106 Q715.055 245.106 716.884 243.74 Q718.713 242.351 718.713 239.759 Q718.713 237.097 716.815 235.685 Q714.94 234.249 711.421 234.249 Q709.5 234.249 707.301 234.666 Q705.102 235.083 702.463 235.962 L702.463 231.796 Q705.125 231.055 707.44 230.685 Q709.778 230.314 711.838 230.314 Q717.162 230.314 720.264 232.745 Q723.366 235.152 723.366 239.272 Q723.366 242.143 721.722 244.134 Q720.079 246.101 717.046 246.865 Z" fill="#000000" fill-rule="nonzero" fill-opacity="1" /></svg>
