<?xml version="1.0" encoding="utf-8"?>
<svg xmlns="http://www.w3.org/2000/svg" xmlns:xlink="http://www.w3.org/1999/xlink" width="600" height="400" viewBox="0 0 2400 1600">
<defs>
  <clipPath id="clip240">
    <rect x="0" y="0" width="2400" height="1600"/>
  </clipPath>
</defs>
<path clip-path="url(#clip240)" d="M0 1600 L2400 1600 L2400 0 L0 0  Z" fill="#ffffff" fill-rule="evenodd" fill-opacity="1"/>
<defs>
  <clipPath id="clip241">
    <rect x="480" y="0" width="1681" height="1600"/>
  </clipPath>
</defs>
<path clip-path="url(#clip240)" d="M156.598 1474.16 L2352.76 1474.16 L2352.76 47.2441 L156.598 47.2441  Z" fill="#ffffff" fill-rule="evenodd" fill-opacity="1"/>
<defs>
  <clipPath id="clip242">
    <rect x="156" y="47" width="2197" height="1428"/>
  </clipPath>
</defs>
<polyline clip-path="url(#clip242)" style="stroke:#000000; stroke-linecap:round; stroke-linejoin:round; stroke-width:2; stroke-opacity:0.1; fill:none" points="425.938,1474.16 425.938,47.2441 "/>
<polyline clip-path="url(#clip242)" style="stroke:#000000; stroke-linecap:round; stroke-linejoin:round; stroke-width:2; stroke-opacity:0.1; fill:none" points="1461.86,1474.16 1461.86,47.2441 "/>
<polyline clip-path="url(#clip240)" style="stroke:#000000; stroke-linecap:round; stroke-linejoin:round; stroke-width:4; stroke-opacity:1; fill:none" points="156.598,1474.16 2352.76,1474.16 "/>
<polyline clip-path="url(#clip240)" style="stroke:#000000; stroke-linecap:round; stroke-linejoin:round; stroke-width:4; stroke-opacity:1; fill:none" points="425.938,1474.16 425.938,1455.27 "/>
<polyline clip-path="url(#clip240)" style="stroke:#000000; stroke-linecap:round; stroke-linejoin:round; stroke-width:4; stroke-opacity:1; fill:none" points="1461.86,1474.16 1461.86,1455.27 "/>
<path clip-path="url(#clip240)" d="M363.302 1548.29 L370.941 1548.29 L370.941 1521.92 L362.631 1523.59 L362.631 1519.33 L370.894 1517.66 L375.57 1517.66 L375.57 1548.29 L383.209 1548.29 L383.209 1552.22 L363.302 1552.22 L363.302 1548.29 Z" fill="#000000" fill-rule="nonzero" fill-opacity="1" /><path clip-path="url(#clip240)" d="M402.654 1520.74 Q399.042 1520.74 397.214 1524.31 Q395.408 1527.85 395.408 1534.98 Q395.408 1542.09 397.214 1545.65 Q399.042 1549.19 402.654 1549.19 Q406.288 1549.19 408.093 1545.65 Q409.922 1542.09 409.922 1534.98 Q409.922 1527.85 408.093 1524.31 Q406.288 1520.74 402.654 1520.74 M402.654 1517.04 Q408.464 1517.04 411.519 1521.65 Q414.598 1526.23 414.598 1534.98 Q414.598 1543.71 411.519 1548.31 Q408.464 1552.9 402.654 1552.9 Q396.843 1552.9 393.765 1548.31 Q390.709 1543.71 390.709 1534.98 Q390.709 1526.23 393.765 1521.65 Q396.843 1517.04 402.654 1517.04 Z" fill="#000000" fill-rule="nonzero" fill-opacity="1" /><path clip-path="url(#clip240)" d="M414.598 1511.14 L438.71 1511.14 L438.71 1514.34 L414.598 1514.34 L414.598 1511.14 Z" fill="#000000" fill-rule="nonzero" fill-opacity="1" /><path clip-path="url(#clip240)" d="M447.568 1521.62 L453.775 1521.62 L453.775 1500.19 L447.023 1501.55 L447.023 1498.09 L453.737 1496.73 L457.536 1496.73 L457.536 1521.62 L463.743 1521.62 L463.743 1524.81 L447.568 1524.81 L447.568 1521.62 Z" fill="#000000" fill-rule="nonzero" fill-opacity="1" /><path clip-path="url(#clip240)" d="M479.541 1499.24 Q476.607 1499.24 475.121 1502.13 Q473.654 1505.01 473.654 1510.8 Q473.654 1516.58 475.121 1519.47 Q476.607 1522.35 479.541 1522.35 Q482.494 1522.35 483.961 1519.47 Q485.447 1516.58 485.447 1510.8 Q485.447 1505.01 483.961 1502.13 Q482.494 1499.24 479.541 1499.24 M479.541 1496.23 Q484.262 1496.23 486.745 1499.97 Q489.246 1503.69 489.246 1510.8 Q489.246 1517.89 486.745 1521.64 Q484.262 1525.36 479.541 1525.36 Q474.82 1525.36 472.319 1521.64 Q469.836 1517.89 469.836 1510.8 Q469.836 1503.69 472.319 1499.97 Q474.82 1496.23 479.541 1496.23 Z" fill="#000000" fill-rule="nonzero" fill-opacity="1" /><path clip-path="url(#clip240)" d="M1411.88 1548.29 L1419.52 1548.29 L1419.52 1521.92 L1411.21 1523.59 L1411.21 1519.33 L1419.48 1517.66 L1424.15 1517.66 L1424.15 1548.29 L1431.79 1548.29 L1431.79 1552.22 L1411.88 1552.22 L1411.88 1548.29 Z" fill="#000000" fill-rule="nonzero" fill-opacity="1" /><path clip-path="url(#clip240)" d="M1451.23 1520.74 Q1447.62 1520.74 1445.79 1524.31 Q1443.99 1527.85 1443.99 1534.98 Q1443.99 1542.09 1445.79 1545.65 Q1447.62 1549.19 1451.23 1549.19 Q1454.87 1549.19 1456.67 1545.65 Q1458.5 1542.09 1458.5 1534.98 Q1458.5 1527.85 1456.67 1524.31 Q1454.87 1520.74 1451.23 1520.74 M1451.23 1517.04 Q1457.04 1517.04 1460.1 1521.65 Q1463.18 1526.23 1463.18 1534.98 Q1463.18 1543.71 1460.1 1548.31 Q1457.04 1552.9 1451.23 1552.9 Q1445.42 1552.9 1442.35 1548.31 Q1439.29 1543.71 1439.29 1534.98 Q1439.29 1526.23 1442.35 1521.65 Q1445.42 1517.04 1451.23 1517.04 Z" fill="#000000" fill-rule="nonzero" fill-opacity="1" /><path clip-path="url(#clip240)" d="M1463.18 1511.14 L1487.29 1511.14 L1487.29 1514.34 L1463.18 1514.34 L1463.18 1511.14 Z" fill="#000000" fill-rule="nonzero" fill-opacity="1" /><path clip-path="url(#clip240)" d="M1495.53 1496.73 L1510.44 1496.73 L1510.44 1499.93 L1499.01 1499.93 L1499.01 1506.82 Q1499.84 1506.53 1500.66 1506.4 Q1501.49 1506.25 1502.32 1506.25 Q1507.02 1506.25 1509.77 1508.83 Q1512.51 1511.4 1512.51 1515.81 Q1512.51 1520.34 1509.69 1522.86 Q1506.87 1525.36 1501.73 1525.36 Q1499.97 1525.36 1498.12 1525.06 Q1496.3 1524.76 1494.34 1524.16 L1494.34 1520.34 Q1496.04 1521.26 1497.84 1521.71 Q1499.65 1522.16 1501.66 1522.16 Q1504.91 1522.16 1506.81 1520.45 Q1508.71 1518.74 1508.71 1515.81 Q1508.71 1512.87 1506.81 1511.16 Q1504.91 1509.45 1501.66 1509.45 Q1500.14 1509.45 1498.61 1509.79 Q1497.11 1510.13 1495.53 1510.84 L1495.53 1496.73 Z" fill="#000000" fill-rule="nonzero" fill-opacity="1" /><polyline clip-path="url(#clip242)" style="stroke:#000000; stroke-linecap:round; stroke-linejoin:round; stroke-width:2; stroke-opacity:0.1; fill:none" points="156.598,1433.78 2352.76,1433.78 "/>
<polyline clip-path="url(#clip242)" style="stroke:#000000; stroke-linecap:round; stroke-linejoin:round; stroke-width:2; stroke-opacity:0.1; fill:none" points="156.598,1231.97 2352.76,1231.97 "/>
<polyline clip-path="url(#clip242)" style="stroke:#000000; stroke-linecap:round; stroke-linejoin:round; stroke-width:2; stroke-opacity:0.1; fill:none" points="156.598,1030.16 2352.76,1030.16 "/>
<polyline clip-path="url(#clip242)" style="stroke:#000000; stroke-linecap:round; stroke-linejoin:round; stroke-width:2; stroke-opacity:0.1; fill:none" points="156.598,828.355 2352.76,828.355 "/>
<polyline clip-path="url(#clip242)" style="stroke:#000000; stroke-linecap:round; stroke-linejoin:round; stroke-width:2; stroke-opacity:0.1; fill:none" points="156.598,626.546 2352.76,626.546 "/>
<polyline clip-path="url(#clip242)" style="stroke:#000000; stroke-linecap:round; stroke-linejoin:round; stroke-width:2; stroke-opacity:0.1; fill:none" points="156.598,424.738 2352.76,424.738 "/>
<polyline clip-path="url(#clip242)" style="stroke:#000000; stroke-linecap:round; stroke-linejoin:round; stroke-width:2; stroke-opacity:0.1; fill:none" points="156.598,222.929 2352.76,222.929 "/>
<polyline clip-path="url(#clip240)" style="stroke:#000000; stroke-linecap:round; stroke-linejoin:round; stroke-width:4; stroke-opacity:1; fill:none" points="156.598,1474.16 156.598,47.2441 "/>
<polyline clip-path="url(#clip240)" style="stroke:#000000; stroke-linecap:round; stroke-linejoin:round; stroke-width:4; stroke-opacity:1; fill:none" points="156.598,1433.78 175.496,1433.78 "/>
<polyline clip-path="url(#clip240)" style="stroke:#000000; stroke-linecap:round; stroke-linejoin:round; stroke-width:4; stroke-opacity:1; fill:none" points="156.598,1231.97 175.496,1231.97 "/>
<polyline clip-path="url(#clip240)" style="stroke:#000000; stroke-linecap:round; stroke-linejoin:round; stroke-width:4; stroke-opacity:1; fill:none" points="156.598,1030.16 175.496,1030.16 "/>
<polyline clip-path="url(#clip240)" style="stroke:#000000; stroke-linecap:round; stroke-linejoin:round; stroke-width:4; stroke-opacity:1; fill:none" points="156.598,828.355 175.496,828.355 "/>
<polyline clip-path="url(#clip240)" style="stroke:#000000; stroke-linecap:round; stroke-linejoin:round; stroke-width:4; stroke-opacity:1; fill:none" points="156.598,626.546 175.496,626.546 "/>
<polyline clip-path="url(#clip240)" style="stroke:#000000; stroke-linecap:round; stroke-linejoin:round; stroke-width:4; stroke-opacity:1; fill:none" points="156.598,424.738 175.496,424.738 "/>
<polyline clip-path="url(#clip240)" style="stroke:#000000; stroke-linecap:round; stroke-linejoin:round; stroke-width:4; stroke-opacity:1; fill:none" points="156.598,222.929 175.496,222.929 "/>
<path clip-path="url(#clip240)" d="M63.4226 1419.58 Q59.8115 1419.58 57.9828 1423.14 Q56.1773 1426.69 56.1773 1433.81 Q56.1773 1440.92 57.9828 1444.49 Q59.8115 1448.03 63.4226 1448.03 Q67.0569 1448.03 68.8624 1444.49 Q70.6911 1440.92 70.6911 1433.81 Q70.6911 1426.69 68.8624 1423.14 Q67.0569 1419.58 63.4226 1419.58 M63.4226 1415.88 Q69.2328 1415.88 72.2883 1420.48 Q75.367 1425.06 75.367 1433.81 Q75.367 1442.54 72.2883 1447.15 Q69.2328 1451.73 63.4226 1451.73 Q57.6125 1451.73 54.5338 1447.15 Q51.4782 1442.54 51.4782 1433.81 Q51.4782 1425.06 54.5338 1420.48 Q57.6125 1415.88 63.4226 1415.88 Z" fill="#000000" fill-rule="nonzero" fill-opacity="1" /><path clip-path="url(#clip240)" d="M83.5845 1445.18 L88.4688 1445.18 L88.4688 1451.06 L83.5845 1451.06 L83.5845 1445.18 Z" fill="#000000" fill-rule="nonzero" fill-opacity="1" /><path clip-path="url(#clip240)" d="M108.654 1419.58 Q105.043 1419.58 103.214 1423.14 Q101.409 1426.69 101.409 1433.81 Q101.409 1440.92 103.214 1444.49 Q105.043 1448.03 108.654 1448.03 Q112.288 1448.03 114.094 1444.49 Q115.922 1440.92 115.922 1433.81 Q115.922 1426.69 114.094 1423.14 Q112.288 1419.58 108.654 1419.58 M108.654 1415.88 Q114.464 1415.88 117.52 1420.48 Q120.598 1425.06 120.598 1433.81 Q120.598 1442.54 117.52 1447.15 Q114.464 1451.73 108.654 1451.73 Q102.844 1451.73 99.765 1447.15 Q96.7095 1442.54 96.7095 1433.81 Q96.7095 1425.06 99.765 1420.48 Q102.844 1415.88 108.654 1415.88 Z" fill="#000000" fill-rule="nonzero" fill-opacity="1" /><path clip-path="url(#clip240)" d="M65.0198 1217.77 Q61.4087 1217.77 59.58 1221.34 Q57.7745 1224.88 57.7745 1232.01 Q57.7745 1239.11 59.58 1242.68 Q61.4087 1246.22 65.0198 1246.22 Q68.6541 1246.22 70.4596 1242.68 Q72.2883 1239.11 72.2883 1232.01 Q72.2883 1224.88 70.4596 1221.34 Q68.6541 1217.77 65.0198 1217.77 M65.0198 1214.07 Q70.83 1214.07 73.8855 1218.67 Q76.9642 1223.26 76.9642 1232.01 Q76.9642 1240.73 73.8855 1245.34 Q70.83 1249.92 65.0198 1249.92 Q59.2097 1249.92 56.131 1245.34 Q53.0754 1240.73 53.0754 1232.01 Q53.0754 1223.26 56.131 1218.67 Q59.2097 1214.07 65.0198 1214.07 Z" fill="#000000" fill-rule="nonzero" fill-opacity="1" /><path clip-path="url(#clip240)" d="M85.1818 1243.37 L90.066 1243.37 L90.066 1249.25 L85.1818 1249.25 L85.1818 1243.37 Z" fill="#000000" fill-rule="nonzero" fill-opacity="1" /><path clip-path="url(#clip240)" d="M104.279 1245.32 L120.598 1245.32 L120.598 1249.25 L98.6539 1249.25 L98.6539 1245.32 Q101.316 1242.56 105.899 1237.93 Q110.506 1233.28 111.686 1231.94 Q113.932 1229.41 114.811 1227.68 Q115.714 1225.92 115.714 1224.23 Q115.714 1221.47 113.77 1219.74 Q111.848 1218 108.746 1218 Q106.547 1218 104.094 1218.77 Q101.663 1219.53 98.8854 1221.08 L98.8854 1216.36 Q101.709 1215.22 104.163 1214.65 Q106.617 1214.07 108.654 1214.07 Q114.024 1214.07 117.219 1216.75 Q120.413 1219.44 120.413 1223.93 Q120.413 1226.06 119.603 1227.98 Q118.816 1229.88 116.709 1232.47 Q116.131 1233.14 113.029 1236.36 Q109.927 1239.55 104.279 1245.32 Z" fill="#000000" fill-rule="nonzero" fill-opacity="1" /><path clip-path="url(#clip240)" d="M62.9365 1015.96 Q59.3254 1015.96 57.4967 1019.53 Q55.6912 1023.07 55.6912 1030.2 Q55.6912 1037.3 57.4967 1040.87 Q59.3254 1044.41 62.9365 1044.41 Q66.5707 1044.41 68.3763 1040.87 Q70.205 1037.3 70.205 1030.2 Q70.205 1023.07 68.3763 1019.53 Q66.5707 1015.96 62.9365 1015.96 M62.9365 1012.26 Q68.7467 1012.26 71.8022 1016.86 Q74.8809 1021.45 74.8809 1030.2 Q74.8809 1038.92 71.8022 1043.53 Q68.7467 1048.11 62.9365 1048.11 Q57.1264 1048.11 54.0477 1043.53 Q50.9921 1038.92 50.9921 1030.2 Q50.9921 1021.45 54.0477 1016.86 Q57.1264 1012.26 62.9365 1012.26 Z" fill="#000000" fill-rule="nonzero" fill-opacity="1" /><path clip-path="url(#clip240)" d="M83.0984 1041.56 L87.9827 1041.56 L87.9827 1047.44 L83.0984 1047.44 L83.0984 1041.56 Z" fill="#000000" fill-rule="nonzero" fill-opacity="1" /><path clip-path="url(#clip240)" d="M111.015 1016.96 L99.2095 1035.41 L111.015 1035.41 L111.015 1016.96 M109.788 1012.88 L115.668 1012.88 L115.668 1035.41 L120.598 1035.41 L120.598 1039.3 L115.668 1039.3 L115.668 1047.44 L111.015 1047.44 L111.015 1039.3 L95.4132 1039.3 L95.4132 1034.78 L109.788 1012.88 Z" fill="#000000" fill-rule="nonzero" fill-opacity="1" /><path clip-path="url(#clip240)" d="M63.2606 814.153 Q59.6495 814.153 57.8208 817.718 Q56.0152 821.26 56.0152 828.39 Q56.0152 835.496 57.8208 839.061 Q59.6495 842.602 63.2606 842.602 Q66.8948 842.602 68.7004 839.061 Q70.5291 835.496 70.5291 828.39 Q70.5291 821.26 68.7004 817.718 Q66.8948 814.153 63.2606 814.153 M63.2606 810.45 Q69.0707 810.45 72.1263 815.056 Q75.205 819.64 75.205 828.39 Q75.205 837.116 72.1263 841.723 Q69.0707 846.306 63.2606 846.306 Q57.4504 846.306 54.3717 841.723 Q51.3162 837.116 51.3162 828.39 Q51.3162 819.64 54.3717 815.056 Q57.4504 810.45 63.2606 810.45 Z" fill="#000000" fill-rule="nonzero" fill-opacity="1" /><path clip-path="url(#clip240)" d="M83.4225 839.755 L88.3067 839.755 L88.3067 845.635 L83.4225 845.635 L83.4225 839.755 Z" fill="#000000" fill-rule="nonzero" fill-opacity="1" /><path clip-path="url(#clip240)" d="M109.071 826.491 Q105.922 826.491 104.071 828.644 Q102.242 830.797 102.242 834.547 Q102.242 838.274 104.071 840.45 Q105.922 842.602 109.071 842.602 Q112.219 842.602 114.047 840.45 Q115.899 838.274 115.899 834.547 Q115.899 830.797 114.047 828.644 Q112.219 826.491 109.071 826.491 M118.353 811.839 L118.353 816.098 Q116.594 815.265 114.788 814.825 Q113.006 814.385 111.246 814.385 Q106.617 814.385 104.163 817.51 Q101.733 820.635 101.385 826.954 Q102.751 824.94 104.811 823.876 Q106.871 822.788 109.348 822.788 Q114.557 822.788 117.566 825.959 Q120.598 829.107 120.598 834.547 Q120.598 839.871 117.45 843.089 Q114.302 846.306 109.071 846.306 Q103.075 846.306 99.9039 841.723 Q96.7326 837.116 96.7326 828.39 Q96.7326 820.195 100.621 815.334 Q104.51 810.45 111.061 810.45 Q112.82 810.45 114.603 810.797 Q116.408 811.144 118.353 811.839 Z" fill="#000000" fill-rule="nonzero" fill-opacity="1" /><path clip-path="url(#clip240)" d="M63.5152 612.345 Q59.9041 612.345 58.0754 615.91 Q56.2699 619.451 56.2699 626.581 Q56.2699 633.688 58.0754 637.252 Q59.9041 640.794 63.5152 640.794 Q67.1494 640.794 68.955 637.252 Q70.7837 633.688 70.7837 626.581 Q70.7837 619.451 68.955 615.91 Q67.1494 612.345 63.5152 612.345 M63.5152 608.641 Q69.3254 608.641 72.3809 613.248 Q75.4596 617.831 75.4596 626.581 Q75.4596 635.308 72.3809 639.914 Q69.3254 644.498 63.5152 644.498 Q57.7051 644.498 54.6264 639.914 Q51.5708 635.308 51.5708 626.581 Q51.5708 617.831 54.6264 613.248 Q57.7051 608.641 63.5152 608.641 Z" fill="#000000" fill-rule="nonzero" fill-opacity="1" /><path clip-path="url(#clip240)" d="M83.6771 637.947 L88.5614 637.947 L88.5614 643.826 L83.6771 643.826 L83.6771 637.947 Z" fill="#000000" fill-rule="nonzero" fill-opacity="1" /><path clip-path="url(#clip240)" d="M108.746 627.414 Q105.413 627.414 103.492 629.197 Q101.594 630.979 101.594 634.104 Q101.594 637.229 103.492 639.012 Q105.413 640.794 108.746 640.794 Q112.08 640.794 114.001 639.012 Q115.922 637.206 115.922 634.104 Q115.922 630.979 114.001 629.197 Q112.103 627.414 108.746 627.414 M104.071 625.424 Q101.061 624.683 99.3715 622.623 Q97.7048 620.563 97.7048 617.6 Q97.7048 613.456 100.645 611.049 Q103.608 608.641 108.746 608.641 Q113.908 608.641 116.848 611.049 Q119.788 613.456 119.788 617.6 Q119.788 620.563 118.098 622.623 Q116.432 624.683 113.445 625.424 Q116.825 626.211 118.7 628.502 Q120.598 630.794 120.598 634.104 Q120.598 639.127 117.52 641.812 Q114.464 644.498 108.746 644.498 Q103.029 644.498 99.9502 641.812 Q96.8947 639.127 96.8947 634.104 Q96.8947 630.794 98.7928 628.502 Q100.691 626.211 104.071 625.424 M102.358 618.039 Q102.358 620.725 104.024 622.229 Q105.714 623.734 108.746 623.734 Q111.756 623.734 113.445 622.229 Q115.158 620.725 115.158 618.039 Q115.158 615.354 113.445 613.85 Q111.756 612.345 108.746 612.345 Q105.714 612.345 104.024 613.85 Q102.358 615.354 102.358 618.039 Z" fill="#000000" fill-rule="nonzero" fill-opacity="1" /><path clip-path="url(#clip240)" d="M54.2328 438.083 L61.8717 438.083 L61.8717 411.717 L53.5616 413.384 L53.5616 409.125 L61.8254 407.458 L66.5013 407.458 L66.5013 438.083 L74.1402 438.083 L74.1402 442.018 L54.2328 442.018 L54.2328 438.083 Z" fill="#000000" fill-rule="nonzero" fill-opacity="1" /><path clip-path="url(#clip240)" d="M83.5845 436.138 L88.4688 436.138 L88.4688 442.018 L83.5845 442.018 L83.5845 436.138 Z" fill="#000000" fill-rule="nonzero" fill-opacity="1" /><path clip-path="url(#clip240)" d="M108.654 410.537 Q105.043 410.537 103.214 414.101 Q101.409 417.643 101.409 424.773 Q101.409 431.879 103.214 435.444 Q105.043 438.986 108.654 438.986 Q112.288 438.986 114.094 435.444 Q115.922 431.879 115.922 424.773 Q115.922 417.643 114.094 414.101 Q112.288 410.537 108.654 410.537 M108.654 406.833 Q114.464 406.833 117.52 411.439 Q120.598 416.023 120.598 424.773 Q120.598 433.499 117.52 438.106 Q114.464 442.689 108.654 442.689 Q102.844 442.689 99.765 438.106 Q96.7095 433.499 96.7095 424.773 Q96.7095 416.023 99.765 411.439 Q102.844 406.833 108.654 406.833 Z" fill="#000000" fill-rule="nonzero" fill-opacity="1" /><path clip-path="url(#clip240)" d="M55.8301 236.274 L63.4689 236.274 L63.4689 209.909 L55.1588 211.575 L55.1588 207.316 L63.4226 205.649 L68.0985 205.649 L68.0985 236.274 L75.7374 236.274 L75.7374 240.209 L55.8301 240.209 L55.8301 236.274 Z" fill="#000000" fill-rule="nonzero" fill-opacity="1" /><path clip-path="url(#clip240)" d="M85.1818 234.33 L90.066 234.33 L90.066 240.209 L85.1818 240.209 L85.1818 234.33 Z" fill="#000000" fill-rule="nonzero" fill-opacity="1" /><path clip-path="url(#clip240)" d="M104.279 236.274 L120.598 236.274 L120.598 240.209 L98.6539 240.209 L98.6539 236.274 Q101.316 233.52 105.899 228.89 Q110.506 224.237 111.686 222.895 Q113.932 220.372 114.811 218.635 Q115.714 216.876 115.714 215.186 Q115.714 212.432 113.77 210.696 Q111.848 208.96 108.746 208.96 Q106.547 208.96 104.094 209.724 Q101.663 210.487 98.8854 212.038 L98.8854 207.316 Q101.709 206.182 104.163 205.603 Q106.617 205.024 108.654 205.024 Q114.024 205.024 117.219 207.71 Q120.413 210.395 120.413 214.886 Q120.413 217.015 119.603 218.936 Q118.816 220.835 116.709 223.427 Q116.131 224.098 113.029 227.316 Q109.927 230.51 104.279 236.274 Z" fill="#000000" fill-rule="nonzero" fill-opacity="1" /><path clip-path="url(#clip242)" d="M218.754 1432.41 L880.521 1432.41 L880.521 1433.78 L942.861 1433.78 L942.861 1433.78 L1005.22 1433.78 L1005.22 1433.78 L1067.58 1433.78 L1067.58 1381.42 L1129.94 1381.42 L1129.94 853.661 L1166.42 853.661 L1166.42 502.872 L1192.31 502.872 L1192.31 295.203 L1228.79 295.203 L1228.79 258.339 L1254.68 258.339 L1254.68 323.892 L1283.75 323.892 L1283.75 494.889 L1305.69 494.889 L1305.69 739.067 L1338.05 739.067 L1338.05 1064.13 L1380.57 1064.13 L1380.57 1380.04 L1431.09 1380.04 L1431.09 1433.78 L1486.89 1433.78 L1486.89 1366.1 L1545.79 1366.1 L1545.79 957.072 L1581.08 957.072 L1581.08 526.35 L1606.37 526.35 L1606.37 181.362 L1642.25 181.362 L1642.25 87.6286 L1667.83 87.6286 L1667.83 213.092 L1704.01 213.092 L1704.01 605.609 L1729.74 605.609 L1729.74 1098.14 L1791.88 1098.14 L1791.88 1420.03 L1854.13 1420.03 L1854.13 1428.74 L1916.44 1428.74 L1916.44 1350.25 L1978.78 1350.25 L1978.78 1322.53 L2041.14 1322.53 L2041.14 1333.84 L2103.5 1333.84 L2103.5 1351.09 L2165.87 1351.09 L2165.87 1362.16 L2228.23 1362.16 L2228.23 1366.66 L2264.72 1366.66 L2264.72 1368.26 L2290.6 1368.26 L2290.6 1433.78 L2264.72 1433.78 L2264.72 1433.78 L2228.23 1433.78 L2228.23 1433.78 L2165.87 1433.78 L2165.87 1433.78 L2103.5 1433.78 L2103.5 1433.78 L2041.14 1433.78 L2041.14 1433.78 L1978.78 1433.78 L1978.78 1433.78 L1916.44 1433.78 L1916.44 1433.78 L1854.13 1433.78 L1854.13 1433.78 L1791.88 1433.78 L1791.88 1433.78 L1729.74 1433.78 L1729.74 1433.78 L1704.01 1433.78 L1704.01 1433.78 L1667.83 1433.78 L1667.83 1433.78 L1642.25 1433.78 L1642.25 1433.78 L1606.37 1433.78 L1606.37 1433.78 L1581.08 1433.78 L1581.08 1433.78 L1545.79 1433.78 L1545.79 1433.78 L1486.89 1433.78 L1486.89 1433.78 L1431.09 1433.78 L1431.09 1433.78 L1380.57 1433.78 L1380.57 1433.78 L1338.05 1433.78 L1338.05 1433.78 L1305.69 1433.78 L1305.69 1433.78 L1283.75 1433.78 L1283.75 1433.78 L1254.68 1433.78 L1254.68 1433.78 L1228.79 1433.78 L1228.79 1433.78 L1192.31 1433.78 L1192.31 1433.78 L1166.42 1433.78 L1166.42 1433.78 L1129.94 1433.78 L1129.94 1433.78 L1067.58 1433.78 L1067.58 1433.78 L1005.22 1433.78 L1005.22 1433.78 L942.861 1433.78 L942.861 1433.78 L880.521 1433.78 L880.521 1433.78 L218.754 1433.78  Z" fill="#009af9" fill-rule="evenodd" fill-opacity="0.5"/>
<polyline clip-path="url(#clip242)" style="stroke:#009af9; stroke-linecap:round; stroke-linejoin:round; stroke-width:4; stroke-opacity:1; fill:none" points="218.754,1432.41 880.521,1432.41 880.521,1433.78 942.861,1433.78 1005.22,1433.78 1067.58,1433.78 1067.58,1381.42 1129.94,1381.42 1129.94,853.661 1166.42,853.661 1166.42,502.872 1192.31,502.872 1192.31,295.203 1228.79,295.203 1228.79,258.339 1254.68,258.339 1254.68,323.892 1283.75,323.892 1283.75,494.889 1305.69,494.889 1305.69,739.067 1338.05,739.067 1338.05,1064.13 1380.57,1064.13 1380.57,1380.04 1431.09,1380.04 1431.09,1433.78 1486.89,1433.78 1486.89,1366.1 1545.79,1366.1 1545.79,957.072 1581.08,957.072 1581.08,526.35 1606.37,526.35 1606.37,181.362 1642.25,181.362 1642.25,87.6286 1667.83,87.6286 1667.83,213.092 1704.01,213.092 1704.01,605.609 1729.74,605.609 1729.74,1098.14 1791.88,1098.14 1791.88,1420.03 1854.13,1420.03 1854.13,1428.74 1916.44,1428.74 1916.44,1350.25 1978.78,1350.25 1978.78,1322.53 2041.14,1322.53 2041.14,1333.84 2103.5,1333.84 2103.5,1351.09 2165.87,1351.09 2165.87,1362.16 2228.23,1362.16 2228.23,1366.66 2264.72,1366.66 2264.72,1368.26 2290.6,1368.26 "/>
<path clip-path="url(#clip240)" d="M2007.5 198.488 L2279.55 198.488 L2279.55 94.8081 L2007.5 94.8081  Z" fill="#ffffff" fill-rule="evenodd" fill-opacity="1"/>
<polyline clip-path="url(#clip240)" style="stroke:#000000; stroke-linecap:round; stroke-linejoin:round; stroke-width:4; stroke-opacity:1; fill:none" points="2007.5,198.488 2279.55,198.488 2279.55,94.8081 2007.5,94.8081 2007.5,198.488 "/>
<path clip-path="url(#clip240)" d="M2031.91 167.384 L2178.32 167.384 L2178.32 125.912 L2031.91 125.912 L2031.91 167.384  Z" fill="#009af9" fill-rule="evenodd" fill-opacity="0.5"/>
<polyline clip-path="url(#clip240)" style="stroke:#009af9; stroke-linecap:round; stroke-linejoin:round; stroke-width:4; stroke-opacity:1; fill:none" points="2031.91,125.912 2178.32,125.912 "/>
<path clip-path="url(#clip240)" d="M2216.56 166.336 Q2214.76 170.965 2213.04 172.377 Q2211.33 173.789 2208.46 173.789 L2205.06 173.789 L2205.06 170.224 L2207.56 170.224 Q2209.32 170.224 2210.29 169.391 Q2211.26 168.558 2212.44 165.456 L2213.2 163.511 L2202.72 138.002 L2207.23 138.002 L2215.33 158.28 L2223.44 138.002 L2227.95 138.002 L2216.56 166.336 Z" fill="#000000" fill-rule="nonzero" fill-opacity="1" /><path clip-path="url(#clip240)" d="M2235.24 159.993 L2242.88 159.993 L2242.88 133.627 L2234.57 135.294 L2234.57 131.035 L2242.83 129.368 L2247.51 129.368 L2247.51 159.993 L2255.15 159.993 L2255.15 163.928 L2235.24 163.928 L2235.24 159.993 Z" fill="#000000" fill-rule="nonzero" fill-opacity="1" /></svg>
