<?xml version="1.0" encoding="utf-8"?>
<svg xmlns="http://www.w3.org/2000/svg" xmlns:xlink="http://www.w3.org/1999/xlink" width="600" height="400" viewBox="0 0 2400 1600">
<defs>
  <clipPath id="clip610">
    <rect x="0" y="0" width="2400" height="1600"/>
  </clipPath>
</defs>
<path clip-path="url(#clip610)" d="M0 1600 L2400 1600 L2400 0 L0 0  Z" fill="#ffffff" fill-rule="evenodd" fill-opacity="1"/>
<defs>
  <clipPath id="clip611">
    <rect x="480" y="0" width="1681" height="1600"/>
  </clipPath>
</defs>
<path clip-path="url(#clip610)" d="M156.112 1474.16 L2352.76 1474.16 L2352.76 47.2441 L156.112 47.2441  Z" fill="#ffffff" fill-rule="evenodd" fill-opacity="1"/>
<defs>
  <clipPath id="clip612">
    <rect x="156" y="47" width="2198" height="1428"/>
  </clipPath>
</defs>
<polyline clip-path="url(#clip612)" style="stroke:#000000; stroke-linecap:round; stroke-linejoin:round; stroke-width:2; stroke-opacity:0.1; fill:none" points="425.512,1474.16 425.512,47.2441 "/>
<polyline clip-path="url(#clip612)" style="stroke:#000000; stroke-linecap:round; stroke-linejoin:round; stroke-width:2; stroke-opacity:0.1; fill:none" points="1461.66,1474.16 1461.66,47.2441 "/>
<polyline clip-path="url(#clip610)" style="stroke:#000000; stroke-linecap:round; stroke-linejoin:round; stroke-width:4; stroke-opacity:1; fill:none" points="156.112,1474.16 2352.76,1474.16 "/>
<polyline clip-path="url(#clip610)" style="stroke:#000000; stroke-linecap:round; stroke-linejoin:round; stroke-width:4; stroke-opacity:1; fill:none" points="425.512,1474.16 425.512,1455.27 "/>
<polyline clip-path="url(#clip610)" style="stroke:#000000; stroke-linecap:round; stroke-linejoin:round; stroke-width:4; stroke-opacity:1; fill:none" points="1461.66,1474.16 1461.66,1455.27 "/>
<path clip-path="url(#clip610)" d="M362.875 1548.29 L370.514 1548.29 L370.514 1521.92 L362.204 1523.59 L362.204 1519.33 L370.468 1517.66 L375.144 1517.66 L375.144 1548.29 L382.783 1548.29 L382.783 1552.22 L362.875 1552.22 L362.875 1548.29 Z" fill="#000000" fill-rule="nonzero" fill-opacity="1" /><path clip-path="url(#clip610)" d="M402.227 1520.74 Q398.616 1520.74 396.787 1524.31 Q394.982 1527.85 394.982 1534.98 Q394.982 1542.09 396.787 1545.65 Q398.616 1549.19 402.227 1549.19 Q405.861 1549.19 407.667 1545.65 Q409.496 1542.09 409.496 1534.98 Q409.496 1527.85 407.667 1524.31 Q405.861 1520.74 402.227 1520.74 M402.227 1517.04 Q408.037 1517.04 411.093 1521.65 Q414.171 1526.23 414.171 1534.98 Q414.171 1543.71 411.093 1548.31 Q408.037 1552.9 402.227 1552.9 Q396.417 1552.9 393.338 1548.31 Q390.283 1543.71 390.283 1534.98 Q390.283 1526.23 393.338 1521.65 Q396.417 1517.04 402.227 1517.04 Z" fill="#000000" fill-rule="nonzero" fill-opacity="1" /><path clip-path="url(#clip610)" d="M414.171 1511.14 L438.283 1511.14 L438.283 1514.34 L414.171 1514.34 L414.171 1511.14 Z" fill="#000000" fill-rule="nonzero" fill-opacity="1" /><path clip-path="url(#clip610)" d="M447.141 1521.62 L453.348 1521.62 L453.348 1500.19 L446.596 1501.55 L446.596 1498.09 L453.31 1496.73 L457.11 1496.73 L457.11 1521.62 L463.316 1521.62 L463.316 1524.81 L447.141 1524.81 L447.141 1521.62 Z" fill="#000000" fill-rule="nonzero" fill-opacity="1" /><path clip-path="url(#clip610)" d="M479.115 1499.24 Q476.181 1499.24 474.695 1502.13 Q473.228 1505.01 473.228 1510.8 Q473.228 1516.58 474.695 1519.47 Q476.181 1522.35 479.115 1522.35 Q482.068 1522.35 483.535 1519.47 Q485.02 1516.58 485.02 1510.8 Q485.02 1505.01 483.535 1502.13 Q482.068 1499.24 479.115 1499.24 M479.115 1496.23 Q483.835 1496.23 486.318 1499.97 Q488.82 1503.69 488.82 1510.8 Q488.82 1517.89 486.318 1521.64 Q483.835 1525.36 479.115 1525.36 Q474.394 1525.36 471.893 1521.64 Q469.41 1517.89 469.41 1510.8 Q469.41 1503.69 471.893 1499.97 Q474.394 1496.23 479.115 1496.23 Z" fill="#000000" fill-rule="nonzero" fill-opacity="1" /><path clip-path="url(#clip610)" d="M1411.69 1548.29 L1419.32 1548.29 L1419.32 1521.92 L1411.01 1523.59 L1411.01 1519.33 L1419.28 1517.66 L1423.95 1517.66 L1423.95 1548.29 L1431.59 1548.29 L1431.59 1552.22 L1411.69 1552.22 L1411.69 1548.29 Z" fill="#000000" fill-rule="nonzero" fill-opacity="1" /><path clip-path="url(#clip610)" d="M1451.04 1520.74 Q1447.43 1520.74 1445.6 1524.31 Q1443.79 1527.85 1443.79 1534.98 Q1443.79 1542.09 1445.6 1545.65 Q1447.43 1549.19 1451.04 1549.19 Q1454.67 1549.19 1456.48 1545.65 Q1458.31 1542.09 1458.31 1534.98 Q1458.31 1527.85 1456.48 1524.31 Q1454.67 1520.74 1451.04 1520.74 M1451.04 1517.04 Q1456.85 1517.04 1459.9 1521.65 Q1462.98 1526.23 1462.98 1534.98 Q1462.98 1543.71 1459.9 1548.31 Q1456.85 1552.9 1451.04 1552.9 Q1445.23 1552.9 1442.15 1548.31 Q1439.09 1543.71 1439.09 1534.98 Q1439.09 1526.23 1442.15 1521.65 Q1445.23 1517.04 1451.04 1517.04 Z" fill="#000000" fill-rule="nonzero" fill-opacity="1" /><path clip-path="url(#clip610)" d="M1462.98 1511.14 L1487.09 1511.14 L1487.09 1514.34 L1462.98 1514.34 L1462.98 1511.14 Z" fill="#000000" fill-rule="nonzero" fill-opacity="1" /><path clip-path="url(#clip610)" d="M1495.33 1496.73 L1510.25 1496.73 L1510.25 1499.93 L1498.81 1499.93 L1498.81 1506.82 Q1499.64 1506.53 1500.47 1506.4 Q1501.29 1506.25 1502.12 1506.25 Q1506.82 1506.25 1509.57 1508.83 Q1512.31 1511.4 1512.31 1515.81 Q1512.31 1520.34 1509.49 1522.86 Q1506.67 1525.36 1501.54 1525.36 Q1499.77 1525.36 1497.93 1525.06 Q1496.1 1524.76 1494.15 1524.16 L1494.15 1520.34 Q1495.84 1521.26 1497.64 1521.71 Q1499.45 1522.16 1501.46 1522.16 Q1504.72 1522.16 1506.62 1520.45 Q1508.52 1518.74 1508.52 1515.81 Q1508.52 1512.87 1506.62 1511.16 Q1504.72 1509.45 1501.46 1509.45 Q1499.94 1509.45 1498.42 1509.79 Q1496.91 1510.13 1495.33 1510.84 L1495.33 1496.73 Z" fill="#000000" fill-rule="nonzero" fill-opacity="1" /><polyline clip-path="url(#clip612)" style="stroke:#000000; stroke-linecap:round; stroke-linejoin:round; stroke-width:2; stroke-opacity:0.1; fill:none" points="156.112,1433.78 2352.76,1433.78 "/>
<polyline clip-path="url(#clip612)" style="stroke:#000000; stroke-linecap:round; stroke-linejoin:round; stroke-width:2; stroke-opacity:0.1; fill:none" points="156.112,1002.45 2352.76,1002.45 "/>
<polyline clip-path="url(#clip612)" style="stroke:#000000; stroke-linecap:round; stroke-linejoin:round; stroke-width:2; stroke-opacity:0.1; fill:none" points="156.112,571.125 2352.76,571.125 "/>
<polyline clip-path="url(#clip612)" style="stroke:#000000; stroke-linecap:round; stroke-linejoin:round; stroke-width:2; stroke-opacity:0.1; fill:none" points="156.112,139.798 2352.76,139.798 "/>
<polyline clip-path="url(#clip610)" style="stroke:#000000; stroke-linecap:round; stroke-linejoin:round; stroke-width:4; stroke-opacity:1; fill:none" points="156.112,1474.16 156.112,47.2441 "/>
<polyline clip-path="url(#clip610)" style="stroke:#000000; stroke-linecap:round; stroke-linejoin:round; stroke-width:4; stroke-opacity:1; fill:none" points="156.112,1433.78 175.01,1433.78 "/>
<polyline clip-path="url(#clip610)" style="stroke:#000000; stroke-linecap:round; stroke-linejoin:round; stroke-width:4; stroke-opacity:1; fill:none" points="156.112,1002.45 175.01,1002.45 "/>
<polyline clip-path="url(#clip610)" style="stroke:#000000; stroke-linecap:round; stroke-linejoin:round; stroke-width:4; stroke-opacity:1; fill:none" points="156.112,571.125 175.01,571.125 "/>
<polyline clip-path="url(#clip610)" style="stroke:#000000; stroke-linecap:round; stroke-linejoin:round; stroke-width:4; stroke-opacity:1; fill:none" points="156.112,139.798 175.01,139.798 "/>
<path clip-path="url(#clip610)" d="M62.9365 1419.58 Q59.3254 1419.58 57.4967 1423.14 Q55.6912 1426.69 55.6912 1433.81 Q55.6912 1440.92 57.4967 1444.49 Q59.3254 1448.03 62.9365 1448.03 Q66.5707 1448.03 68.3763 1444.49 Q70.205 1440.92 70.205 1433.81 Q70.205 1426.69 68.3763 1423.14 Q66.5707 1419.58 62.9365 1419.58 M62.9365 1415.88 Q68.7467 1415.88 71.8022 1420.48 Q74.8809 1425.06 74.8809 1433.81 Q74.8809 1442.54 71.8022 1447.15 Q68.7467 1451.73 62.9365 1451.73 Q57.1264 1451.73 54.0477 1447.15 Q50.9921 1442.54 50.9921 1433.81 Q50.9921 1425.06 54.0477 1420.48 Q57.1264 1415.88 62.9365 1415.88 Z" fill="#000000" fill-rule="nonzero" fill-opacity="1" /><path clip-path="url(#clip610)" d="M83.0984 1445.18 L87.9827 1445.18 L87.9827 1451.06 L83.0984 1451.06 L83.0984 1445.18 Z" fill="#000000" fill-rule="nonzero" fill-opacity="1" /><path clip-path="url(#clip610)" d="M108.168 1419.58 Q104.557 1419.58 102.728 1423.14 Q100.922 1426.69 100.922 1433.81 Q100.922 1440.92 102.728 1444.49 Q104.557 1448.03 108.168 1448.03 Q111.802 1448.03 113.608 1444.49 Q115.436 1440.92 115.436 1433.81 Q115.436 1426.69 113.608 1423.14 Q111.802 1419.58 108.168 1419.58 M108.168 1415.88 Q113.978 1415.88 117.033 1420.48 Q120.112 1425.06 120.112 1433.81 Q120.112 1442.54 117.033 1447.15 Q113.978 1451.73 108.168 1451.73 Q102.358 1451.73 99.2789 1447.15 Q96.2234 1442.54 96.2234 1433.81 Q96.2234 1425.06 99.2789 1420.48 Q102.358 1415.88 108.168 1415.88 Z" fill="#000000" fill-rule="nonzero" fill-opacity="1" /><path clip-path="url(#clip610)" d="M63.9319 988.251 Q60.3208 988.251 58.4921 991.816 Q56.6865 995.358 56.6865 1002.49 Q56.6865 1009.59 58.4921 1013.16 Q60.3208 1016.7 63.9319 1016.7 Q67.5661 1016.7 69.3717 1013.16 Q71.2004 1009.59 71.2004 1002.49 Q71.2004 995.358 69.3717 991.816 Q67.5661 988.251 63.9319 988.251 M63.9319 984.548 Q69.742 984.548 72.7976 989.154 Q75.8763 993.738 75.8763 1002.49 Q75.8763 1011.21 72.7976 1015.82 Q69.742 1020.4 63.9319 1020.4 Q58.1217 1020.4 55.043 1015.82 Q51.9875 1011.21 51.9875 1002.49 Q51.9875 993.738 55.043 989.154 Q58.1217 984.548 63.9319 984.548 Z" fill="#000000" fill-rule="nonzero" fill-opacity="1" /><path clip-path="url(#clip610)" d="M84.0938 1013.85 L88.978 1013.85 L88.978 1019.73 L84.0938 1019.73 L84.0938 1013.85 Z" fill="#000000" fill-rule="nonzero" fill-opacity="1" /><path clip-path="url(#clip610)" d="M99.2095 985.173 L117.566 985.173 L117.566 989.108 L103.492 989.108 L103.492 997.58 Q104.51 997.233 105.529 997.071 Q106.547 996.886 107.566 996.886 Q113.353 996.886 116.733 1000.06 Q120.112 1003.23 120.112 1008.64 Q120.112 1014.22 116.64 1017.33 Q113.168 1020.4 106.848 1020.4 Q104.672 1020.4 102.404 1020.03 Q100.159 1019.66 97.7511 1018.92 L97.7511 1014.22 Q99.8345 1015.36 102.057 1015.91 Q104.279 1016.47 106.756 1016.47 Q110.76 1016.47 113.098 1014.36 Q115.436 1012.26 115.436 1008.64 Q115.436 1005.03 113.098 1002.93 Q110.76 1000.82 106.756 1000.82 Q104.881 1000.82 103.006 1001.24 Q101.154 1001.65 99.2095 1002.53 L99.2095 985.173 Z" fill="#000000" fill-rule="nonzero" fill-opacity="1" /><path clip-path="url(#clip610)" d="M53.7467 584.47 L61.3856 584.47 L61.3856 558.105 L53.0754 559.771 L53.0754 555.512 L61.3393 553.845 L66.0152 553.845 L66.0152 584.47 L73.654 584.47 L73.654 588.405 L53.7467 588.405 L53.7467 584.47 Z" fill="#000000" fill-rule="nonzero" fill-opacity="1" /><path clip-path="url(#clip610)" d="M83.0984 582.526 L87.9827 582.526 L87.9827 588.405 L83.0984 588.405 L83.0984 582.526 Z" fill="#000000" fill-rule="nonzero" fill-opacity="1" /><path clip-path="url(#clip610)" d="M108.168 556.924 Q104.557 556.924 102.728 560.489 Q100.922 564.03 100.922 571.16 Q100.922 578.267 102.728 581.831 Q104.557 585.373 108.168 585.373 Q111.802 585.373 113.608 581.831 Q115.436 578.267 115.436 571.16 Q115.436 564.03 113.608 560.489 Q111.802 556.924 108.168 556.924 M108.168 553.22 Q113.978 553.22 117.033 557.827 Q120.112 562.41 120.112 571.16 Q120.112 579.887 117.033 584.493 Q113.978 589.077 108.168 589.077 Q102.358 589.077 99.2789 584.493 Q96.2234 579.887 96.2234 571.16 Q96.2234 562.41 99.2789 557.827 Q102.358 553.22 108.168 553.22 Z" fill="#000000" fill-rule="nonzero" fill-opacity="1" /><path clip-path="url(#clip610)" d="M54.7421 153.143 L62.381 153.143 L62.381 126.777 L54.0708 128.444 L54.0708 124.185 L62.3347 122.518 L67.0106 122.518 L67.0106 153.143 L74.6494 153.143 L74.6494 157.078 L54.7421 157.078 L54.7421 153.143 Z" fill="#000000" fill-rule="nonzero" fill-opacity="1" /><path clip-path="url(#clip610)" d="M84.0938 151.198 L88.978 151.198 L88.978 157.078 L84.0938 157.078 L84.0938 151.198 Z" fill="#000000" fill-rule="nonzero" fill-opacity="1" /><path clip-path="url(#clip610)" d="M99.2095 122.518 L117.566 122.518 L117.566 126.453 L103.492 126.453 L103.492 134.925 Q104.51 134.578 105.529 134.416 Q106.547 134.231 107.566 134.231 Q113.353 134.231 116.733 137.402 Q120.112 140.573 120.112 145.99 Q120.112 151.569 116.64 154.671 Q113.168 157.749 106.848 157.749 Q104.672 157.749 102.404 157.379 Q100.159 157.009 97.7511 156.268 L97.7511 151.569 Q99.8345 152.703 102.057 153.259 Q104.279 153.814 106.756 153.814 Q110.76 153.814 113.098 151.708 Q115.436 149.601 115.436 145.99 Q115.436 142.379 113.098 140.273 Q110.76 138.166 106.756 138.166 Q104.881 138.166 103.006 138.583 Q101.154 138.999 99.2095 139.879 L99.2095 122.518 Z" fill="#000000" fill-rule="nonzero" fill-opacity="1" /><path clip-path="url(#clip612)" d="M425.512 1433.78 L468.021 1433.78 L468.021 1433.75 L510.529 1433.75 L510.529 1433.7 L553.038 1433.7 L553.038 1433.78 L595.547 1433.78 L595.547 1433.73 L638.056 1433.73 L638.056 1433.54 L680.565 1433.54 L680.565 1430.78 L723.074 1430.78 L723.074 1433.45 L765.582 1433.45 L765.582 1432.87 L808.091 1432.87 L808.091 1430.89 L850.6 1430.89 L850.6 1429.98 L893.109 1429.98 L893.109 1432.07 L935.618 1432.07 L935.618 1433.76 L978.127 1433.76 L978.127 1433.73 L1020.64 1433.73 L1020.64 1400.68 L1063.14 1400.68 L1063.14 1361.57 L1105.65 1361.57 L1105.65 1223.63 L1148.16 1223.63 L1148.16 757.368 L1190.67 757.368 L1190.67 797.221 L1233.18 797.221 L1233.18 209.556 L1275.69 209.556 L1275.69 980.738 L1318.2 980.738 L1318.2 207.936 L1360.71 207.936 L1360.71 1433.78 L1403.21 1433.78 L1403.21 1433.78 L1445.72 1433.78 L1445.72 1433.77 L1488.23 1433.77 L1488.23 1433.77 L1530.74 1433.77 L1530.74 1433.76 L1573.25 1433.76 L1573.25 892.065 L1615.76 892.065 L1615.76 215.465 L1658.27 215.465 L1658.27 87.6286 L1700.78 87.6286 L1700.78 568.145 L1743.29 568.145 L1743.29 1433.71 L1785.79 1433.71 L1785.79 1433.74 L1828.3 1433.74 L1828.3 1433.74 L1870.81 1433.74 L1870.81 1433.72 L1913.32 1433.72 L1913.32 1347.05 L1955.83 1347.05 L1955.83 1291.23 L1998.34 1291.23 L1998.34 1270.57 L2040.85 1270.57 L2040.85 1335.25 L2083.36 1335.25 L2083.36 1433.78 L2040.85 1433.78 L2040.85 1433.78 L1998.34 1433.78 L1998.34 1433.78 L1955.83 1433.78 L1955.83 1433.78 L1913.32 1433.78 L1913.32 1433.78 L1870.81 1433.78 L1870.81 1433.78 L1828.3 1433.78 L1828.3 1433.78 L1785.79 1433.78 L1785.79 1433.78 L1743.29 1433.78 L1743.29 1433.78 L1700.78 1433.78 L1700.78 1433.78 L1658.27 1433.78 L1658.27 1433.78 L1615.76 1433.78 L1615.76 1433.78 L1573.25 1433.78 L1573.25 1433.78 L1530.74 1433.78 L1530.74 1433.78 L1488.23 1433.78 L1488.23 1433.78 L1445.72 1433.78 L1445.72 1433.78 L1403.21 1433.78 L1403.21 1433.78 L1360.71 1433.78 L1360.71 1433.78 L1318.2 1433.78 L1318.2 1433.78 L1275.69 1433.78 L1275.69 1433.78 L1233.18 1433.78 L1233.18 1433.78 L1190.67 1433.78 L1190.67 1433.78 L1148.16 1433.78 L1148.16 1433.78 L1105.65 1433.78 L1105.65 1433.78 L1063.14 1433.78 L1063.14 1433.78 L1020.64 1433.78 L1020.64 1433.78 L978.127 1433.78 L978.127 1433.78 L935.618 1433.78 L935.618 1433.78 L893.109 1433.78 L893.109 1433.78 L850.6 1433.78 L850.6 1433.78 L808.091 1433.78 L808.091 1433.78 L765.582 1433.78 L765.582 1433.78 L723.074 1433.78 L723.074 1433.78 L680.565 1433.78 L680.565 1433.78 L638.056 1433.78 L638.056 1433.78 L595.547 1433.78 L595.547 1433.78 L553.038 1433.78 L553.038 1433.78 L510.529 1433.78 L510.529 1433.78 L468.021 1433.78 L468.021 1433.78 L425.512 1433.78  Z" fill="#e26f46" fill-rule="evenodd" fill-opacity="0.5"/>
<polyline clip-path="url(#clip612)" style="stroke:#e26f46; stroke-linecap:round; stroke-linejoin:round; stroke-width:4; stroke-opacity:1; fill:none" points="425.512,1433.78 468.021,1433.78 468.021,1433.75 510.529,1433.75 510.529,1433.7 553.038,1433.7 553.038,1433.78 595.547,1433.78 595.547,1433.73 638.056,1433.73 638.056,1433.54 680.565,1433.54 680.565,1430.78 723.074,1430.78 723.074,1433.45 765.582,1433.45 765.582,1432.87 808.091,1432.87 808.091,1430.89 850.6,1430.89 850.6,1429.98 893.109,1429.98 893.109,1432.07 935.618,1432.07 935.618,1433.76 978.127,1433.76 978.127,1433.73 1020.64,1433.73 1020.64,1400.68 1063.14,1400.68 1063.14,1361.57 1105.65,1361.57 1105.65,1223.63 1148.16,1223.63 1148.16,757.368 1190.67,757.368 1190.67,797.221 1233.18,797.221 1233.18,209.556 1275.69,209.556 1275.69,980.738 1318.2,980.738 1318.2,207.936 1360.71,207.936 1360.71,1433.78 1403.21,1433.78 1403.21,1433.78 1445.72,1433.78 1445.72,1433.77 1488.23,1433.77 1488.23,1433.77 1530.74,1433.77 1530.74,1433.76 1573.25,1433.76 1573.25,892.065 1615.76,892.065 1615.76,215.465 1658.27,215.465 1658.27,87.6286 1700.78,87.6286 1700.78,568.145 1743.29,568.145 1743.29,1433.71 1785.79,1433.71 1785.79,1433.74 1828.3,1433.74 1828.3,1433.74 1870.81,1433.74 1870.81,1433.72 1913.32,1433.72 1913.32,1347.05 1955.83,1347.05 1955.83,1291.23 1998.34,1291.23 1998.34,1270.57 2040.85,1270.57 2040.85,1335.25 2083.36,1335.25 "/>
<path clip-path="url(#clip612)" d="M218.281 1432.61 L880.195 1432.61 L880.195 1433.78 L942.549 1433.78 L942.549 1433.78 L1004.92 1433.78 L1004.92 1433.78 L1067.29 1433.78 L1067.29 1389.02 L1129.67 1389.02 L1129.67 937.823 L1166.16 937.823 L1166.16 637.924 L1192.05 637.924 L1192.05 460.382 L1228.54 460.382 L1228.54 428.867 L1254.43 428.867 L1254.43 484.91 L1283.52 484.91 L1283.52 631.099 L1305.46 631.099 L1305.46 839.853 L1337.83 839.853 L1337.83 1117.76 L1380.36 1117.76 L1380.36 1387.83 L1430.88 1387.83 L1430.88 1433.78 L1486.7 1433.78 L1486.7 1375.91 L1545.61 1375.91 L1545.61 1026.23 L1580.91 1026.23 L1580.91 657.996 L1606.2 657.996 L1606.2 363.057 L1642.09 363.057 L1642.09 282.922 L1667.68 282.922 L1667.68 390.184 L1703.86 390.184 L1703.86 725.756 L1729.6 725.756 L1729.6 1146.83 L1791.76 1146.83 L1791.76 1422.03 L1854.02 1422.03 L1854.02 1429.47 L1916.35 1429.47 L1916.35 1362.36 L1978.7 1362.36 L1978.7 1338.67 L2041.07 1338.67 L2041.07 1348.34 L2103.45 1348.34 L2103.45 1363.09 L2165.82 1363.09 L2165.82 1372.55 L2228.21 1372.55 L2228.21 1376.4 L2264.7 1376.4 L2264.7 1377.77 L2290.59 1377.77 L2290.59 1433.78 L2264.7 1433.78 L2264.7 1433.78 L2228.21 1433.78 L2228.21 1433.78 L2165.82 1433.78 L2165.82 1433.78 L2103.45 1433.78 L2103.45 1433.78 L2041.07 1433.78 L2041.07 1433.78 L1978.7 1433.78 L1978.7 1433.78 L1916.35 1433.78 L1916.35 1433.78 L1854.02 1433.78 L1854.02 1433.78 L1791.76 1433.78 L1791.76 1433.78 L1729.6 1433.78 L1729.6 1433.78 L1703.86 1433.78 L1703.86 1433.78 L1667.68 1433.78 L1667.68 1433.78 L1642.09 1433.78 L1642.09 1433.78 L1606.2 1433.78 L1606.2 1433.78 L1580.91 1433.78 L1580.91 1433.78 L1545.61 1433.78 L1545.61 1433.78 L1486.7 1433.78 L1486.7 1433.78 L1430.88 1433.78 L1430.88 1433.78 L1380.36 1433.78 L1380.36 1433.78 L1337.83 1433.78 L1337.83 1433.78 L1305.46 1433.78 L1305.46 1433.78 L1283.52 1433.78 L1283.52 1433.78 L1254.43 1433.78 L1254.43 1433.78 L1228.54 1433.78 L1228.54 1433.78 L1192.05 1433.78 L1192.05 1433.78 L1166.16 1433.78 L1166.16 1433.78 L1129.67 1433.78 L1129.67 1433.78 L1067.29 1433.78 L1067.29 1433.78 L1004.92 1433.78 L1004.92 1433.78 L942.549 1433.78 L942.549 1433.78 L880.195 1433.78 L880.195 1433.78 L218.281 1433.78  Z" fill="#3da44d" fill-rule="evenodd" fill-opacity="0.5"/>
<polyline clip-path="url(#clip612)" style="stroke:#3da44d; stroke-linecap:round; stroke-linejoin:round; stroke-width:4; stroke-opacity:1; fill:none" points="218.281,1432.61 880.195,1432.61 880.195,1433.78 942.549,1433.78 1004.92,1433.78 1067.29,1433.78 1067.29,1389.02 1129.67,1389.02 1129.67,937.823 1166.16,937.823 1166.16,637.924 1192.05,637.924 1192.05,460.382 1228.54,460.382 1228.54,428.867 1254.43,428.867 1254.43,484.91 1283.52,484.91 1283.52,631.099 1305.46,631.099 1305.46,839.853 1337.83,839.853 1337.83,1117.76 1380.36,1117.76 1380.36,1387.83 1430.88,1387.83 1430.88,1433.78 1486.7,1433.78 1486.7,1375.91 1545.61,1375.91 1545.61,1026.23 1580.91,1026.23 1580.91,657.996 1606.2,657.996 1606.2,363.057 1642.09,363.057 1642.09,282.922 1667.68,282.922 1667.68,390.184 1703.86,390.184 1703.86,725.756 1729.6,725.756 1729.6,1146.83 1791.76,1146.83 1791.76,1422.03 1854.02,1422.03 1854.02,1429.47 1916.35,1429.47 1916.35,1362.36 1978.7,1362.36 1978.7,1338.67 2041.07,1338.67 2041.07,1348.34 2103.45,1348.34 2103.45,1363.09 2165.82,1363.09 2165.82,1372.55 2228.21,1372.55 2228.21,1376.4 2264.7,1376.4 2264.7,1377.77 2290.59,1377.77 "/>
<path clip-path="url(#clip610)" d="M229.334 250.328 L715.802 250.328 L715.802 94.8081 L229.334 94.8081  Z" fill="#ffffff" fill-rule="evenodd" fill-opacity="1"/>
<polyline clip-path="url(#clip610)" style="stroke:#000000; stroke-linecap:round; stroke-linejoin:round; stroke-width:4; stroke-opacity:1; fill:none" points="229.334,250.328 715.802,250.328 715.802,94.8081 229.334,94.8081 229.334,250.328 "/>
<path clip-path="url(#clip610)" d="M253.741 167.384 L400.184 167.384 L400.184 125.912 L253.741 125.912 L253.741 167.384  Z" fill="#e26f46" fill-rule="evenodd" fill-opacity="0.5"/>
<polyline clip-path="url(#clip610)" style="stroke:#e26f46; stroke-linecap:round; stroke-linejoin:round; stroke-width:4; stroke-opacity:1; fill:none" points="253.741,125.912 400.184,125.912 "/>
<path clip-path="url(#clip610)" d="M443.017 138.766 L443.017 142.794 Q441.211 141.868 439.267 141.405 Q437.322 140.942 435.239 140.942 Q432.068 140.942 430.47 141.914 Q428.896 142.887 428.896 144.831 Q428.896 146.312 430.031 147.169 Q431.165 148.002 434.591 148.766 L436.049 149.09 Q440.586 150.062 442.484 151.845 Q444.406 153.604 444.406 156.775 Q444.406 160.386 441.535 162.493 Q438.688 164.599 433.688 164.599 Q431.605 164.599 429.336 164.183 Q427.091 163.789 424.591 162.979 L424.591 158.581 Q426.952 159.808 429.244 160.433 Q431.535 161.035 433.781 161.035 Q436.79 161.035 438.41 160.016 Q440.031 158.974 440.031 157.099 Q440.031 155.363 438.85 154.437 Q437.693 153.512 433.734 152.655 L432.253 152.308 Q428.294 151.474 426.535 149.762 Q424.776 148.025 424.776 145.016 Q424.776 141.359 427.369 139.368 Q429.961 137.377 434.73 137.377 Q437.091 137.377 439.174 137.725 Q441.257 138.072 443.017 138.766 Z" fill="#000000" fill-rule="nonzero" fill-opacity="1" /><path clip-path="url(#clip610)" d="M451.188 138.002 L455.447 138.002 L455.447 163.928 L451.188 163.928 L451.188 138.002 M451.188 127.91 L455.447 127.91 L455.447 133.303 L451.188 133.303 L451.188 127.91 Z" fill="#000000" fill-rule="nonzero" fill-opacity="1" /><path clip-path="url(#clip610)" d="M484.544 142.979 Q486.141 140.109 488.364 138.743 Q490.586 137.377 493.595 137.377 Q497.646 137.377 499.845 140.225 Q502.044 143.049 502.044 148.28 L502.044 163.928 L497.762 163.928 L497.762 148.419 Q497.762 144.692 496.442 142.887 Q495.123 141.081 492.415 141.081 Q489.104 141.081 487.183 143.28 Q485.262 145.479 485.262 149.275 L485.262 163.928 L480.979 163.928 L480.979 148.419 Q480.979 144.669 479.66 142.887 Q478.341 141.081 475.586 141.081 Q472.322 141.081 470.401 143.303 Q468.479 145.502 468.479 149.275 L468.479 163.928 L464.197 163.928 L464.197 138.002 L468.479 138.002 L468.479 142.03 Q469.938 139.646 471.975 138.512 Q474.012 137.377 476.813 137.377 Q479.637 137.377 481.604 138.813 Q483.595 140.248 484.544 142.979 Z" fill="#000000" fill-rule="nonzero" fill-opacity="1" /><path clip-path="url(#clip610)" d="M514.66 160.039 L514.66 173.789 L510.377 173.789 L510.377 138.002 L514.66 138.002 L514.66 141.937 Q516.002 139.623 518.039 138.512 Q520.1 137.377 522.947 137.377 Q527.669 137.377 530.609 141.127 Q533.572 144.877 533.572 150.988 Q533.572 157.099 530.609 160.849 Q527.669 164.599 522.947 164.599 Q520.1 164.599 518.039 163.488 Q516.002 162.354 514.66 160.039 M529.15 150.988 Q529.15 146.289 527.206 143.627 Q525.285 140.942 521.905 140.942 Q518.525 140.942 516.581 143.627 Q514.66 146.289 514.66 150.988 Q514.66 155.687 516.581 158.373 Q518.525 161.035 521.905 161.035 Q525.285 161.035 527.206 158.373 Q529.15 155.687 529.15 150.988 Z" fill="#000000" fill-rule="nonzero" fill-opacity="1" /><path clip-path="url(#clip610)" d="M540.632 127.91 L544.891 127.91 L544.891 163.928 L540.632 163.928 L540.632 127.91 Z" fill="#000000" fill-rule="nonzero" fill-opacity="1" /><path clip-path="url(#clip610)" d="M575.979 149.9 L575.979 151.984 L556.396 151.984 Q556.673 156.382 559.035 158.697 Q561.419 160.988 565.655 160.988 Q568.109 160.988 570.4 160.386 Q572.715 159.785 574.984 158.581 L574.984 162.609 Q572.692 163.581 570.284 164.09 Q567.877 164.599 565.4 164.599 Q559.197 164.599 555.562 160.988 Q551.951 157.377 551.951 151.22 Q551.951 144.854 555.377 141.127 Q558.826 137.377 564.66 137.377 Q569.891 137.377 572.923 140.757 Q575.979 144.113 575.979 149.9 M571.72 148.65 Q571.673 145.155 569.752 143.072 Q567.854 140.988 564.706 140.988 Q561.141 140.988 558.988 143.002 Q556.859 145.016 556.535 148.674 L571.72 148.65 Z" fill="#000000" fill-rule="nonzero" fill-opacity="1" /><path clip-path="url(#clip610)" d="M611.164 127.91 L611.164 131.451 L607.09 131.451 Q604.798 131.451 603.895 132.377 Q603.016 133.303 603.016 135.711 L603.016 138.002 L610.03 138.002 L610.03 141.312 L603.016 141.312 L603.016 163.928 L598.733 163.928 L598.733 141.312 L594.659 141.312 L594.659 138.002 L598.733 138.002 L598.733 136.197 Q598.733 131.868 600.747 129.901 Q602.761 127.91 607.136 127.91 L611.164 127.91 Z" fill="#000000" fill-rule="nonzero" fill-opacity="1" /><path clip-path="url(#clip610)" d="M614.729 138.002 L618.988 138.002 L618.988 163.928 L614.729 163.928 L614.729 138.002 M614.729 127.91 L618.988 127.91 L618.988 133.303 L614.729 133.303 L614.729 127.91 Z" fill="#000000" fill-rule="nonzero" fill-opacity="1" /><path clip-path="url(#clip610)" d="M632.113 130.641 L632.113 138.002 L640.886 138.002 L640.886 141.312 L632.113 141.312 L632.113 155.386 Q632.113 158.558 632.969 159.461 Q633.849 160.363 636.511 160.363 L640.886 160.363 L640.886 163.928 L636.511 163.928 Q631.58 163.928 629.705 162.099 Q627.83 160.248 627.83 155.386 L627.83 141.312 L624.705 141.312 L624.705 138.002 L627.83 138.002 L627.83 130.641 L632.113 130.641 Z" fill="#000000" fill-rule="nonzero" fill-opacity="1" /><path clip-path="url(#clip610)" d="M253.741 219.224 L400.184 219.224 L400.184 177.752 L253.741 177.752 L253.741 219.224  Z" fill="#3da44d" fill-rule="evenodd" fill-opacity="0.5"/>
<polyline clip-path="url(#clip610)" style="stroke:#3da44d; stroke-linecap:round; stroke-linejoin:round; stroke-width:4; stroke-opacity:1; fill:none" points="253.741,177.752 400.184,177.752 "/>
<path clip-path="url(#clip610)" d="M437.994 202.736 Q432.832 202.736 430.841 203.916 Q428.85 205.097 428.85 207.944 Q428.85 210.213 430.332 211.555 Q431.836 212.875 434.406 212.875 Q437.947 212.875 440.077 210.375 Q442.23 207.851 442.23 203.685 L442.23 202.736 L437.994 202.736 M446.489 200.977 L446.489 215.768 L442.23 215.768 L442.23 211.833 Q440.771 214.194 438.595 215.328 Q436.419 216.439 433.271 216.439 Q429.29 216.439 426.929 214.217 Q424.591 211.972 424.591 208.222 Q424.591 203.847 427.507 201.625 Q430.447 199.402 436.257 199.402 L442.23 199.402 L442.23 198.986 Q442.23 196.046 440.285 194.449 Q438.364 192.828 434.869 192.828 Q432.646 192.828 430.54 193.361 Q428.433 193.893 426.489 194.958 L426.489 191.023 Q428.827 190.12 431.026 189.68 Q433.225 189.217 435.308 189.217 Q440.933 189.217 443.711 192.134 Q446.489 195.051 446.489 200.977 Z" fill="#000000" fill-rule="nonzero" fill-opacity="1" /><path clip-path="url(#clip610)" d="M472.322 193.777 L472.322 179.75 L476.581 179.75 L476.581 215.768 L472.322 215.768 L472.322 211.879 Q470.979 214.194 468.919 215.328 Q466.882 216.439 464.012 216.439 Q459.313 216.439 456.35 212.689 Q453.41 208.939 453.41 202.828 Q453.41 196.717 456.35 192.967 Q459.313 189.217 464.012 189.217 Q466.882 189.217 468.919 190.352 Q470.979 191.463 472.322 193.777 M457.808 202.828 Q457.808 207.527 459.73 210.213 Q461.674 212.875 465.054 212.875 Q468.433 212.875 470.378 210.213 Q472.322 207.527 472.322 202.828 Q472.322 198.129 470.378 195.467 Q468.433 192.782 465.054 192.782 Q461.674 192.782 459.73 195.467 Q457.808 198.129 457.808 202.828 Z" fill="#000000" fill-rule="nonzero" fill-opacity="1" /><path clip-path="url(#clip610)" d="M497.137 202.736 Q491.975 202.736 489.984 203.916 Q487.993 205.097 487.993 207.944 Q487.993 210.213 489.475 211.555 Q490.979 212.875 493.549 212.875 Q497.09 212.875 499.22 210.375 Q501.373 207.851 501.373 203.685 L501.373 202.736 L497.137 202.736 M505.632 200.977 L505.632 215.768 L501.373 215.768 L501.373 211.833 Q499.914 214.194 497.739 215.328 Q495.563 216.439 492.415 216.439 Q488.433 216.439 486.072 214.217 Q483.734 211.972 483.734 208.222 Q483.734 203.847 486.651 201.625 Q489.59 199.402 495.401 199.402 L501.373 199.402 L501.373 198.986 Q501.373 196.046 499.428 194.449 Q497.507 192.828 494.012 192.828 Q491.79 192.828 489.683 193.361 Q487.577 193.893 485.632 194.958 L485.632 191.023 Q487.97 190.12 490.169 189.68 Q492.368 189.217 494.452 189.217 Q500.077 189.217 502.854 192.134 Q505.632 195.051 505.632 200.977 Z" fill="#000000" fill-rule="nonzero" fill-opacity="1" /><path clip-path="url(#clip610)" d="M518.525 211.879 L518.525 225.629 L514.243 225.629 L514.243 189.842 L518.525 189.842 L518.525 193.777 Q519.868 191.463 521.905 190.352 Q523.965 189.217 526.812 189.217 Q531.535 189.217 534.474 192.967 Q537.437 196.717 537.437 202.828 Q537.437 208.939 534.474 212.689 Q531.535 216.439 526.812 216.439 Q523.965 216.439 521.905 215.328 Q519.868 214.194 518.525 211.879 M533.016 202.828 Q533.016 198.129 531.072 195.467 Q529.15 192.782 525.771 192.782 Q522.391 192.782 520.447 195.467 Q518.525 198.129 518.525 202.828 Q518.525 207.527 520.447 210.213 Q522.391 212.875 525.771 212.875 Q529.15 212.875 531.072 210.213 Q533.016 207.527 533.016 202.828 Z" fill="#000000" fill-rule="nonzero" fill-opacity="1" /><path clip-path="url(#clip610)" d="M548.711 182.481 L548.711 189.842 L557.484 189.842 L557.484 193.152 L548.711 193.152 L548.711 207.226 Q548.711 210.398 549.567 211.301 Q550.447 212.203 553.109 212.203 L557.484 212.203 L557.484 215.768 L553.109 215.768 Q548.178 215.768 546.303 213.939 Q544.428 212.088 544.428 207.226 L544.428 193.152 L541.303 193.152 L541.303 189.842 L544.428 189.842 L544.428 182.481 L548.711 182.481 Z" fill="#000000" fill-rule="nonzero" fill-opacity="1" /><path clip-path="url(#clip610)" d="M563.085 189.842 L567.345 189.842 L567.345 215.768 L563.085 215.768 L563.085 189.842 M563.085 179.75 L567.345 179.75 L567.345 185.143 L563.085 185.143 L563.085 179.75 Z" fill="#000000" fill-rule="nonzero" fill-opacity="1" /><path clip-path="url(#clip610)" d="M573.201 189.842 L577.715 189.842 L585.817 211.601 L593.919 189.842 L598.432 189.842 L588.71 215.768 L582.923 215.768 L573.201 189.842 Z" fill="#000000" fill-rule="nonzero" fill-opacity="1" /><path clip-path="url(#clip610)" d="M626.488 201.74 L626.488 203.824 L606.905 203.824 Q607.182 208.222 609.544 210.537 Q611.928 212.828 616.164 212.828 Q618.618 212.828 620.909 212.226 Q623.224 211.625 625.493 210.421 L625.493 214.449 Q623.201 215.421 620.793 215.93 Q618.386 216.439 615.909 216.439 Q609.706 216.439 606.071 212.828 Q602.46 209.217 602.46 203.06 Q602.46 196.694 605.886 192.967 Q609.335 189.217 615.168 189.217 Q620.4 189.217 623.432 192.597 Q626.488 195.953 626.488 201.74 M622.229 200.49 Q622.182 196.995 620.261 194.912 Q618.363 192.828 615.215 192.828 Q611.65 192.828 609.497 194.842 Q607.368 196.856 607.044 200.514 L622.229 200.49 Z" fill="#000000" fill-rule="nonzero" fill-opacity="1" /><path clip-path="url(#clip610)" d="M661.673 179.75 L661.673 183.291 L657.599 183.291 Q655.307 183.291 654.404 184.217 Q653.525 185.143 653.525 187.551 L653.525 189.842 L660.539 189.842 L660.539 193.152 L653.525 193.152 L653.525 215.768 L649.242 215.768 L649.242 193.152 L645.168 193.152 L645.168 189.842 L649.242 189.842 L649.242 188.037 Q649.242 183.708 651.256 181.741 Q653.27 179.75 657.645 179.75 L661.673 179.75 Z" fill="#000000" fill-rule="nonzero" fill-opacity="1" /><path clip-path="url(#clip610)" d="M665.238 189.842 L669.497 189.842 L669.497 215.768 L665.238 215.768 L665.238 189.842 M665.238 179.75 L669.497 179.75 L669.497 185.143 L665.238 185.143 L665.238 179.75 Z" fill="#000000" fill-rule="nonzero" fill-opacity="1" /><path clip-path="url(#clip610)" d="M682.622 182.481 L682.622 189.842 L691.395 189.842 L691.395 193.152 L682.622 193.152 L682.622 207.226 Q682.622 210.398 683.478 211.301 Q684.358 212.203 687.02 212.203 L691.395 212.203 L691.395 215.768 L687.02 215.768 Q682.089 215.768 680.214 213.939 Q678.339 212.088 678.339 207.226 L678.339 193.152 L675.214 193.152 L675.214 189.842 L678.339 189.842 L678.339 182.481 L682.622 182.481 Z" fill="#000000" fill-rule="nonzero" fill-opacity="1" /></svg>
