<?xml version="1.0" encoding="utf-8"?>
<svg xmlns="http://www.w3.org/2000/svg" xmlns:xlink="http://www.w3.org/1999/xlink" width="600" height="400" viewBox="0 0 2400 1600">
<defs>
  <clipPath id="clip160">
    <rect x="0" y="0" width="2400" height="1600"/>
  </clipPath>
</defs>
<path clip-path="url(#clip160)" d="M0 1600 L2400 1600 L2400 0 L0 0  Z" fill="#ffffff" fill-rule="evenodd" fill-opacity="1"/>
<defs>
  <clipPath id="clip161">
    <rect x="480" y="0" width="1681" height="1600"/>
  </clipPath>
</defs>
<path clip-path="url(#clip160)" d="M156.112 1474.16 L2352.76 1474.16 L2352.76 47.2441 L156.112 47.2441  Z" fill="#ffffff" fill-rule="evenodd" fill-opacity="1"/>
<defs>
  <clipPath id="clip162">
    <rect x="156" y="47" width="2198" height="1428"/>
  </clipPath>
</defs>
<polyline clip-path="url(#clip162)" style="stroke:#000000; stroke-linecap:round; stroke-linejoin:round; stroke-width:2; stroke-opacity:0.1; fill:none" points="218.281,1474.16 218.281,47.2441 "/>
<polyline clip-path="url(#clip162)" style="stroke:#000000; stroke-linecap:round; stroke-linejoin:round; stroke-width:2; stroke-opacity:0.1; fill:none" points="1513.47,1474.16 1513.47,47.2441 "/>
<polyline clip-path="url(#clip162)" style="stroke:#000000; stroke-linecap:round; stroke-linejoin:round; stroke-width:2; stroke-opacity:0.1; fill:none" points="156.112,1433.78 2352.76,1433.78 "/>
<polyline clip-path="url(#clip162)" style="stroke:#000000; stroke-linecap:round; stroke-linejoin:round; stroke-width:2; stroke-opacity:0.1; fill:none" points="156.112,1002.45 2352.76,1002.45 "/>
<polyline clip-path="url(#clip162)" style="stroke:#000000; stroke-linecap:round; stroke-linejoin:round; stroke-width:2; stroke-opacity:0.1; fill:none" points="156.112,571.125 2352.76,571.125 "/>
<polyline clip-path="url(#clip162)" style="stroke:#000000; stroke-linecap:round; stroke-linejoin:round; stroke-width:2; stroke-opacity:0.1; fill:none" points="156.112,139.798 2352.76,139.798 "/>
<polyline clip-path="url(#clip160)" style="stroke:#000000; stroke-linecap:round; stroke-linejoin:round; stroke-width:4; stroke-opacity:1; fill:none" points="156.112,1474.16 2352.76,1474.16 "/>
<polyline clip-path="url(#clip160)" style="stroke:#000000; stroke-linecap:round; stroke-linejoin:round; stroke-width:4; stroke-opacity:1; fill:none" points="218.281,1474.16 218.281,1455.27 "/>
<polyline clip-path="url(#clip160)" style="stroke:#000000; stroke-linecap:round; stroke-linejoin:round; stroke-width:4; stroke-opacity:1; fill:none" points="1513.47,1474.16 1513.47,1455.27 "/>
<path clip-path="url(#clip160)" d="M155.645 1548.29 L163.284 1548.29 L163.284 1521.92 L154.974 1523.59 L154.974 1519.33 L163.237 1517.66 L167.913 1517.66 L167.913 1548.29 L175.552 1548.29 L175.552 1552.22 L155.645 1552.22 L155.645 1548.29 Z" fill="#000000" fill-rule="nonzero" fill-opacity="1" /><path clip-path="url(#clip160)" d="M194.997 1520.74 Q191.385 1520.74 189.557 1524.31 Q187.751 1527.85 187.751 1534.98 Q187.751 1542.09 189.557 1545.65 Q191.385 1549.19 194.997 1549.19 Q198.631 1549.19 200.436 1545.65 Q202.265 1542.09 202.265 1534.98 Q202.265 1527.85 200.436 1524.31 Q198.631 1520.74 194.997 1520.74 M194.997 1517.04 Q200.807 1517.04 203.862 1521.65 Q206.941 1526.23 206.941 1534.98 Q206.941 1543.71 203.862 1548.31 Q200.807 1552.9 194.997 1552.9 Q189.186 1552.9 186.108 1548.31 Q183.052 1543.71 183.052 1534.98 Q183.052 1526.23 186.108 1521.65 Q189.186 1517.04 194.997 1517.04 Z" fill="#000000" fill-rule="nonzero" fill-opacity="1" /><path clip-path="url(#clip160)" d="M206.941 1511.14 L231.052 1511.14 L231.052 1514.34 L206.941 1514.34 L206.941 1511.14 Z" fill="#000000" fill-rule="nonzero" fill-opacity="1" /><path clip-path="url(#clip160)" d="M239.911 1521.62 L246.118 1521.62 L246.118 1500.19 L239.366 1501.55 L239.366 1498.09 L246.08 1496.73 L249.879 1496.73 L249.879 1521.62 L256.086 1521.62 L256.086 1524.81 L239.911 1524.81 L239.911 1521.62 Z" fill="#000000" fill-rule="nonzero" fill-opacity="1" /><path clip-path="url(#clip160)" d="M271.884 1499.24 Q268.95 1499.24 267.464 1502.13 Q265.997 1505.01 265.997 1510.8 Q265.997 1516.58 267.464 1519.47 Q268.95 1522.35 271.884 1522.35 Q274.837 1522.35 276.304 1519.47 Q277.79 1516.58 277.79 1510.8 Q277.79 1505.01 276.304 1502.13 Q274.837 1499.24 271.884 1499.24 M271.884 1496.23 Q276.605 1496.23 279.088 1499.97 Q281.589 1503.69 281.589 1510.8 Q281.589 1517.89 279.088 1521.64 Q276.605 1525.36 271.884 1525.36 Q267.163 1525.36 264.662 1521.64 Q262.179 1517.89 262.179 1510.8 Q262.179 1503.69 264.662 1499.97 Q267.163 1496.23 271.884 1496.23 Z" fill="#000000" fill-rule="nonzero" fill-opacity="1" /><path clip-path="url(#clip160)" d="M1463.49 1548.29 L1471.13 1548.29 L1471.13 1521.92 L1462.82 1523.59 L1462.82 1519.33 L1471.09 1517.66 L1475.76 1517.66 L1475.76 1548.29 L1483.4 1548.29 L1483.4 1552.22 L1463.49 1552.22 L1463.49 1548.29 Z" fill="#000000" fill-rule="nonzero" fill-opacity="1" /><path clip-path="url(#clip160)" d="M1502.85 1520.74 Q1499.23 1520.74 1497.41 1524.31 Q1495.6 1527.85 1495.6 1534.98 Q1495.6 1542.09 1497.41 1545.65 Q1499.23 1549.19 1502.85 1549.19 Q1506.48 1549.19 1508.28 1545.65 Q1510.11 1542.09 1510.11 1534.98 Q1510.11 1527.85 1508.28 1524.31 Q1506.48 1520.74 1502.85 1520.74 M1502.85 1517.04 Q1508.66 1517.04 1511.71 1521.65 Q1514.79 1526.23 1514.79 1534.98 Q1514.79 1543.71 1511.71 1548.31 Q1508.66 1552.9 1502.85 1552.9 Q1497.03 1552.9 1493.96 1548.31 Q1490.9 1543.71 1490.9 1534.98 Q1490.9 1526.23 1493.96 1521.65 Q1497.03 1517.04 1502.85 1517.04 Z" fill="#000000" fill-rule="nonzero" fill-opacity="1" /><path clip-path="url(#clip160)" d="M1514.79 1511.14 L1538.9 1511.14 L1538.9 1514.34 L1514.79 1514.34 L1514.79 1511.14 Z" fill="#000000" fill-rule="nonzero" fill-opacity="1" /><path clip-path="url(#clip160)" d="M1547.14 1496.73 L1562.05 1496.73 L1562.05 1499.93 L1550.62 1499.93 L1550.62 1506.82 Q1551.45 1506.53 1552.27 1506.4 Q1553.1 1506.25 1553.93 1506.25 Q1558.63 1506.25 1561.38 1508.83 Q1564.12 1511.4 1564.12 1515.81 Q1564.12 1520.34 1561.3 1522.86 Q1558.48 1525.36 1553.35 1525.36 Q1551.58 1525.36 1549.73 1525.06 Q1547.91 1524.76 1545.95 1524.16 L1545.95 1520.34 Q1547.65 1521.26 1549.45 1521.71 Q1551.26 1522.16 1553.27 1522.16 Q1556.52 1522.16 1558.42 1520.45 Q1560.32 1518.74 1560.32 1515.81 Q1560.32 1512.87 1558.42 1511.16 Q1556.52 1509.45 1553.27 1509.45 Q1551.75 1509.45 1550.22 1509.79 Q1548.72 1510.13 1547.14 1510.84 L1547.14 1496.73 Z" fill="#000000" fill-rule="nonzero" fill-opacity="1" /><polyline clip-path="url(#clip160)" style="stroke:#000000; stroke-linecap:round; stroke-linejoin:round; stroke-width:4; stroke-opacity:1; fill:none" points="156.112,1474.16 156.112,47.2441 "/>
<polyline clip-path="url(#clip160)" style="stroke:#000000; stroke-linecap:round; stroke-linejoin:round; stroke-width:4; stroke-opacity:1; fill:none" points="156.112,1433.78 175.01,1433.78 "/>
<polyline clip-path="url(#clip160)" style="stroke:#000000; stroke-linecap:round; stroke-linejoin:round; stroke-width:4; stroke-opacity:1; fill:none" points="156.112,1002.45 175.01,1002.45 "/>
<polyline clip-path="url(#clip160)" style="stroke:#000000; stroke-linecap:round; stroke-linejoin:round; stroke-width:4; stroke-opacity:1; fill:none" points="156.112,571.125 175.01,571.125 "/>
<polyline clip-path="url(#clip160)" style="stroke:#000000; stroke-linecap:round; stroke-linejoin:round; stroke-width:4; stroke-opacity:1; fill:none" points="156.112,139.798 175.01,139.798 "/>
<path clip-path="url(#clip160)" d="M62.9365 1419.58 Q59.3254 1419.58 57.4967 1423.14 Q55.6912 1426.69 55.6912 1433.81 Q55.6912 1440.92 57.4967 1444.49 Q59.3254 1448.03 62.9365 1448.03 Q66.5707 1448.03 68.3763 1444.49 Q70.205 1440.92 70.205 1433.81 Q70.205 1426.69 68.3763 1423.14 Q66.5707 1419.58 62.9365 1419.58 M62.9365 1415.88 Q68.7467 1415.88 71.8022 1420.48 Q74.8809 1425.06 74.8809 1433.81 Q74.8809 1442.54 71.8022 1447.15 Q68.7467 1451.73 62.9365 1451.73 Q57.1264 1451.73 54.0477 1447.15 Q50.9921 1442.54 50.9921 1433.81 Q50.9921 1425.06 54.0477 1420.48 Q57.1264 1415.88 62.9365 1415.88 Z" fill="#000000" fill-rule="nonzero" fill-opacity="1" /><path clip-path="url(#clip160)" d="M83.0984 1445.18 L87.9827 1445.18 L87.9827 1451.06 L83.0984 1451.06 L83.0984 1445.18 Z" fill="#000000" fill-rule="nonzero" fill-opacity="1" /><path clip-path="url(#clip160)" d="M108.168 1419.58 Q104.557 1419.58 102.728 1423.14 Q100.922 1426.69 100.922 1433.81 Q100.922 1440.92 102.728 1444.49 Q104.557 1448.03 108.168 1448.03 Q111.802 1448.03 113.608 1444.49 Q115.436 1440.92 115.436 1433.81 Q115.436 1426.69 113.608 1423.14 Q111.802 1419.58 108.168 1419.58 M108.168 1415.88 Q113.978 1415.88 117.033 1420.48 Q120.112 1425.06 120.112 1433.81 Q120.112 1442.54 117.033 1447.15 Q113.978 1451.73 108.168 1451.73 Q102.358 1451.73 99.2789 1447.15 Q96.2234 1442.54 96.2234 1433.81 Q96.2234 1425.06 99.2789 1420.48 Q102.358 1415.88 108.168 1415.88 Z" fill="#000000" fill-rule="nonzero" fill-opacity="1" /><path clip-path="url(#clip160)" d="M63.9319 988.251 Q60.3208 988.251 58.4921 991.816 Q56.6865 995.358 56.6865 1002.49 Q56.6865 1009.59 58.4921 1013.16 Q60.3208 1016.7 63.9319 1016.7 Q67.5661 1016.7 69.3717 1013.16 Q71.2004 1009.59 71.2004 1002.49 Q71.2004 995.358 69.3717 991.816 Q67.5661 988.251 63.9319 988.251 M63.9319 984.548 Q69.742 984.548 72.7976 989.154 Q75.8763 993.738 75.8763 1002.49 Q75.8763 1011.21 72.7976 1015.82 Q69.742 1020.4 63.9319 1020.4 Q58.1217 1020.4 55.043 1015.82 Q51.9875 1011.21 51.9875 1002.49 Q51.9875 993.738 55.043 989.154 Q58.1217 984.548 63.9319 984.548 Z" fill="#000000" fill-rule="nonzero" fill-opacity="1" /><path clip-path="url(#clip160)" d="M84.0938 1013.85 L88.978 1013.85 L88.978 1019.73 L84.0938 1019.73 L84.0938 1013.85 Z" fill="#000000" fill-rule="nonzero" fill-opacity="1" /><path clip-path="url(#clip160)" d="M99.2095 985.173 L117.566 985.173 L117.566 989.108 L103.492 989.108 L103.492 997.58 Q104.51 997.233 105.529 997.071 Q106.547 996.886 107.566 996.886 Q113.353 996.886 116.733 1000.06 Q120.112 1003.23 120.112 1008.64 Q120.112 1014.22 116.64 1017.33 Q113.168 1020.4 106.848 1020.4 Q104.672 1020.4 102.404 1020.03 Q100.159 1019.66 97.7511 1018.92 L97.7511 1014.22 Q99.8345 1015.36 102.057 1015.91 Q104.279 1016.47 106.756 1016.47 Q110.76 1016.47 113.098 1014.36 Q115.436 1012.26 115.436 1008.64 Q115.436 1005.03 113.098 1002.93 Q110.76 1000.82 106.756 1000.82 Q104.881 1000.82 103.006 1001.24 Q101.154 1001.65 99.2095 1002.53 L99.2095 985.173 Z" fill="#000000" fill-rule="nonzero" fill-opacity="1" /><path clip-path="url(#clip160)" d="M53.7467 584.47 L61.3856 584.47 L61.3856 558.105 L53.0754 559.771 L53.0754 555.512 L61.3393 553.845 L66.0152 553.845 L66.0152 584.47 L73.654 584.47 L73.654 588.405 L53.7467 588.405 L53.7467 584.47 Z" fill="#000000" fill-rule="nonzero" fill-opacity="1" /><path clip-path="url(#clip160)" d="M83.0984 582.526 L87.9827 582.526 L87.9827 588.405 L83.0984 588.405 L83.0984 582.526 Z" fill="#000000" fill-rule="nonzero" fill-opacity="1" /><path clip-path="url(#clip160)" d="M108.168 556.924 Q104.557 556.924 102.728 560.489 Q100.922 564.03 100.922 571.16 Q100.922 578.267 102.728 581.831 Q104.557 585.373 108.168 585.373 Q111.802 585.373 113.608 581.831 Q115.436 578.267 115.436 571.16 Q115.436 564.03 113.608 560.489 Q111.802 556.924 108.168 556.924 M108.168 553.22 Q113.978 553.22 117.033 557.827 Q120.112 562.41 120.112 571.16 Q120.112 579.887 117.033 584.493 Q113.978 589.077 108.168 589.077 Q102.358 589.077 99.2789 584.493 Q96.2234 579.887 96.2234 571.16 Q96.2234 562.41 99.2789 557.827 Q102.358 553.22 108.168 553.22 Z" fill="#000000" fill-rule="nonzero" fill-opacity="1" /><path clip-path="url(#clip160)" d="M54.7421 153.143 L62.381 153.143 L62.381 126.777 L54.0708 128.444 L54.0708 124.185 L62.3347 122.518 L67.0106 122.518 L67.0106 153.143 L74.6494 153.143 L74.6494 157.078 L54.7421 157.078 L54.7421 153.143 Z" fill="#000000" fill-rule="nonzero" fill-opacity="1" /><path clip-path="url(#clip160)" d="M84.0938 151.198 L88.978 151.198 L88.978 157.078 L84.0938 157.078 L84.0938 151.198 Z" fill="#000000" fill-rule="nonzero" fill-opacity="1" /><path clip-path="url(#clip160)" d="M99.2095 122.518 L117.566 122.518 L117.566 126.453 L103.492 126.453 L103.492 134.925 Q104.51 134.578 105.529 134.416 Q106.547 134.231 107.566 134.231 Q113.353 134.231 116.733 137.402 Q120.112 140.573 120.112 145.99 Q120.112 151.569 116.64 154.671 Q113.168 157.749 106.848 157.749 Q104.672 157.749 102.404 157.379 Q100.159 157.009 97.7511 156.268 L97.7511 151.569 Q99.8345 152.703 102.057 153.259 Q104.279 153.814 106.756 153.814 Q110.76 153.814 113.098 151.708 Q115.436 149.601 115.436 145.99 Q115.436 142.379 113.098 140.273 Q110.76 138.166 106.756 138.166 Q104.881 138.166 103.006 138.583 Q101.154 138.999 99.2095 139.879 L99.2095 122.518 Z" fill="#000000" fill-rule="nonzero" fill-opacity="1" /><path clip-path="url(#clip162)" d="M218.281 1433.78 L271.417 1433.78 L271.417 1433.75 L324.553 1433.75 L324.553 1433.7 L377.689 1433.7 L377.689 1433.78 L430.825 1433.78 L430.825 1433.73 L483.961 1433.73 L483.961 1433.54 L537.098 1433.54 L537.098 1430.78 L590.234 1430.78 L590.234 1433.45 L643.37 1433.45 L643.37 1432.87 L696.506 1432.87 L696.506 1430.89 L749.642 1430.89 L749.642 1429.98 L802.778 1429.98 L802.778 1432.07 L855.914 1432.07 L855.914 1433.76 L909.05 1433.76 L909.05 1433.73 L962.186 1433.73 L962.186 1400.68 L1015.32 1400.68 L1015.32 1361.57 L1068.46 1361.57 L1068.46 1223.63 L1121.59 1223.63 L1121.59 757.368 L1174.73 757.368 L1174.73 797.221 L1227.87 797.221 L1227.87 209.556 L1281 209.556 L1281 980.738 L1334.14 980.738 L1334.14 207.936 L1387.27 207.936 L1387.27 1433.78 L1440.41 1433.78 L1440.41 1433.78 L1493.55 1433.78 L1493.55 1433.77 L1546.68 1433.77 L1546.68 1433.77 L1599.82 1433.77 L1599.82 1433.76 L1652.95 1433.76 L1652.95 892.065 L1706.09 892.065 L1706.09 215.465 L1759.23 215.465 L1759.23 87.6286 L1812.36 87.6286 L1812.36 568.145 L1865.5 568.145 L1865.5 1433.71 L1918.63 1433.71 L1918.63 1433.74 L1971.77 1433.74 L1971.77 1433.74 L2024.91 1433.74 L2024.91 1433.72 L2078.04 1433.72 L2078.04 1347.05 L2131.18 1347.05 L2131.18 1291.23 L2184.31 1291.23 L2184.31 1270.57 L2237.45 1270.57 L2237.45 1335.25 L2290.59 1335.25 L2290.59 1433.78 L2237.45 1433.78 L2237.45 1433.78 L2184.31 1433.78 L2184.31 1433.78 L2131.18 1433.78 L2131.18 1433.78 L2078.04 1433.78 L2078.04 1433.78 L2024.91 1433.78 L2024.91 1433.78 L1971.77 1433.78 L1971.77 1433.78 L1918.63 1433.78 L1918.63 1433.78 L1865.5 1433.78 L1865.5 1433.78 L1812.36 1433.78 L1812.36 1433.78 L1759.23 1433.78 L1759.23 1433.78 L1706.09 1433.78 L1706.09 1433.78 L1652.95 1433.78 L1652.95 1433.78 L1599.82 1433.78 L1599.82 1433.78 L1546.68 1433.78 L1546.68 1433.78 L1493.55 1433.78 L1493.55 1433.78 L1440.41 1433.78 L1440.41 1433.78 L1387.27 1433.78 L1387.27 1433.78 L1334.14 1433.78 L1334.14 1433.78 L1281 1433.78 L1281 1433.78 L1227.87 1433.78 L1227.87 1433.78 L1174.73 1433.78 L1174.73 1433.78 L1121.59 1433.78 L1121.59 1433.78 L1068.46 1433.78 L1068.46 1433.78 L1015.32 1433.78 L1015.32 1433.78 L962.186 1433.78 L962.186 1433.78 L909.05 1433.78 L909.05 1433.78 L855.914 1433.78 L855.914 1433.78 L802.778 1433.78 L802.778 1433.78 L749.642 1433.78 L749.642 1433.78 L696.506 1433.78 L696.506 1433.78 L643.37 1433.78 L643.37 1433.78 L590.234 1433.78 L590.234 1433.78 L537.098 1433.78 L537.098 1433.78 L483.961 1433.78 L483.961 1433.78 L430.825 1433.78 L430.825 1433.78 L377.689 1433.78 L377.689 1433.78 L324.553 1433.78 L324.553 1433.78 L271.417 1433.78 L271.417 1433.78 L218.281 1433.78  Z" fill="#e26f46" fill-rule="evenodd" fill-opacity="0.5"/>
<polyline clip-path="url(#clip162)" style="stroke:#e26f46; stroke-linecap:round; stroke-linejoin:round; stroke-width:4; stroke-opacity:1; fill:none" points="218.281,1433.78 271.417,1433.78 271.417,1433.75 324.553,1433.75 324.553,1433.7 377.689,1433.7 377.689,1433.78 430.825,1433.78 430.825,1433.73 483.961,1433.73 483.961,1433.54 537.098,1433.54 537.098,1430.78 590.234,1430.78 590.234,1433.45 643.37,1433.45 643.37,1432.87 696.506,1432.87 696.506,1430.89 749.642,1430.89 749.642,1429.98 802.778,1429.98 802.778,1432.07 855.914,1432.07 855.914,1433.76 909.05,1433.76 909.05,1433.73 962.186,1433.73 962.186,1400.68 1015.32,1400.68 1015.32,1361.57 1068.46,1361.57 1068.46,1223.63 1121.59,1223.63 1121.59,757.368 1174.73,757.368 1174.73,797.221 1227.87,797.221 1227.87,209.556 1281,209.556 1281,980.738 1334.14,980.738 1334.14,207.936 1387.27,207.936 1387.27,1433.78 1440.41,1433.78 1440.41,1433.78 1493.55,1433.78 1493.55,1433.77 1546.68,1433.77 1546.68,1433.77 1599.82,1433.77 1599.82,1433.76 1652.95,1433.76 1652.95,892.065 1706.09,892.065 1706.09,215.465 1759.23,215.465 1759.23,87.6286 1812.36,87.6286 1812.36,568.145 1865.5,568.145 1865.5,1433.71 1918.63,1433.71 1918.63,1433.74 1971.77,1433.74 1971.77,1433.74 2024.91,1433.74 2024.91,1433.72 2078.04,1433.72 2078.04,1347.05 2131.18,1347.05 2131.18,1291.23 2184.31,1291.23 2184.31,1270.57 2237.45,1270.57 2237.45,1335.25 2290.59,1335.25 "/>
<path clip-path="url(#clip160)" d="M1864.45 198.488 L2279.53 198.488 L2279.53 94.8081 L1864.45 94.8081  Z" fill="#ffffff" fill-rule="evenodd" fill-opacity="1"/>
<polyline clip-path="url(#clip160)" style="stroke:#000000; stroke-linecap:round; stroke-linejoin:round; stroke-width:4; stroke-opacity:1; fill:none" points="1864.45,198.488 2279.53,198.488 2279.53,94.8081 1864.45,94.8081 1864.45,198.488 "/>
<path clip-path="url(#clip160)" d="M1888.86 167.384 L2035.3 167.384 L2035.3 125.912 L1888.86 125.912 L1888.86 167.384  Z" fill="#e26f46" fill-rule="evenodd" fill-opacity="0.5"/>
<polyline clip-path="url(#clip160)" style="stroke:#e26f46; stroke-linecap:round; stroke-linejoin:round; stroke-width:4; stroke-opacity:1; fill:none" points="1888.86,125.912 2035.3,125.912 "/>
<path clip-path="url(#clip160)" d="M2076.22 127.91 L2076.22 131.451 L2072.14 131.451 Q2069.85 131.451 2068.95 132.377 Q2068.07 133.303 2068.07 135.711 L2068.07 138.002 L2075.08 138.002 L2075.08 141.312 L2068.07 141.312 L2068.07 163.928 L2063.79 163.928 L2063.79 141.312 L2059.71 141.312 L2059.71 138.002 L2063.79 138.002 L2063.79 136.197 Q2063.79 131.868 2065.8 129.901 Q2067.81 127.91 2072.19 127.91 L2076.22 127.91 Z" fill="#000000" fill-rule="nonzero" fill-opacity="1" /><path clip-path="url(#clip160)" d="M2079.78 138.002 L2084.04 138.002 L2084.04 163.928 L2079.78 163.928 L2079.78 138.002 M2079.78 127.91 L2084.04 127.91 L2084.04 133.303 L2079.78 133.303 L2079.78 127.91 Z" fill="#000000" fill-rule="nonzero" fill-opacity="1" /><path clip-path="url(#clip160)" d="M2097.17 130.641 L2097.17 138.002 L2105.94 138.002 L2105.94 141.312 L2097.17 141.312 L2097.17 155.386 Q2097.17 158.558 2098.02 159.461 Q2098.9 160.363 2101.56 160.363 L2105.94 160.363 L2105.94 163.928 L2101.56 163.928 Q2096.63 163.928 2094.76 162.099 Q2092.88 160.248 2092.88 155.386 L2092.88 141.312 L2089.76 141.312 L2089.76 138.002 L2092.88 138.002 L2092.88 130.641 L2097.17 130.641 Z" fill="#000000" fill-rule="nonzero" fill-opacity="1" /><path clip-path="url(#clip160)" d="M2141.63 141.984 Q2140.91 141.567 2140.06 141.382 Q2139.23 141.174 2138.21 141.174 Q2134.6 141.174 2132.65 143.535 Q2130.73 145.873 2130.73 150.271 L2130.73 163.928 L2126.45 163.928 L2126.45 138.002 L2130.73 138.002 L2130.73 142.03 Q2132.07 139.669 2134.23 138.535 Q2136.38 137.377 2139.46 137.377 Q2139.9 137.377 2140.43 137.447 Q2140.96 137.493 2141.61 137.609 L2141.63 141.984 Z" fill="#000000" fill-rule="nonzero" fill-opacity="1" /><path clip-path="url(#clip160)" d="M2167.23 149.9 L2167.23 151.984 L2147.65 151.984 Q2147.93 156.382 2150.29 158.697 Q2152.67 160.988 2156.91 160.988 Q2159.36 160.988 2161.66 160.386 Q2163.97 159.785 2166.24 158.581 L2166.24 162.609 Q2163.95 163.581 2161.54 164.09 Q2159.13 164.599 2156.66 164.599 Q2150.45 164.599 2146.82 160.988 Q2143.21 157.377 2143.21 151.22 Q2143.21 144.854 2146.63 141.127 Q2150.08 137.377 2155.91 137.377 Q2161.15 137.377 2164.18 140.757 Q2167.23 144.113 2167.23 149.9 M2162.98 148.65 Q2162.93 145.155 2161.01 143.072 Q2159.11 140.988 2155.96 140.988 Q2152.4 140.988 2150.24 143.002 Q2148.11 145.016 2147.79 148.674 L2162.98 148.65 Z" fill="#000000" fill-rule="nonzero" fill-opacity="1" /><path clip-path="url(#clip160)" d="M2190.75 138.766 L2190.75 142.794 Q2188.95 141.868 2187 141.405 Q2185.06 140.942 2182.97 140.942 Q2179.8 140.942 2178.21 141.914 Q2176.63 142.887 2176.63 144.831 Q2176.63 146.312 2177.77 147.169 Q2178.9 148.002 2182.33 148.766 L2183.79 149.09 Q2188.32 150.062 2190.22 151.845 Q2192.14 153.604 2192.14 156.775 Q2192.14 160.386 2189.27 162.493 Q2186.42 164.599 2181.42 164.599 Q2179.34 164.599 2177.07 164.183 Q2174.83 163.789 2172.33 162.979 L2172.33 158.581 Q2174.69 159.808 2176.98 160.433 Q2179.27 161.035 2181.52 161.035 Q2184.53 161.035 2186.15 160.016 Q2187.77 158.974 2187.77 157.099 Q2187.77 155.363 2186.59 154.437 Q2185.43 153.512 2181.47 152.655 L2179.99 152.308 Q2176.03 151.474 2174.27 149.762 Q2172.51 148.025 2172.51 145.016 Q2172.51 141.359 2175.1 139.368 Q2177.7 137.377 2182.47 137.377 Q2184.83 137.377 2186.91 137.725 Q2188.99 138.072 2190.75 138.766 Z" fill="#000000" fill-rule="nonzero" fill-opacity="1" /><path clip-path="url(#clip160)" d="M2198.48 153.697 L2198.48 138.002 L2202.74 138.002 L2202.74 153.535 Q2202.74 157.215 2204.18 159.067 Q2205.61 160.896 2208.48 160.896 Q2211.93 160.896 2213.92 158.697 Q2215.94 156.498 2215.94 152.701 L2215.94 138.002 L2220.2 138.002 L2220.2 163.928 L2215.94 163.928 L2215.94 159.947 Q2214.39 162.308 2212.33 163.465 Q2210.29 164.599 2207.58 164.599 Q2203.11 164.599 2200.8 161.822 Q2198.48 159.044 2198.48 153.697 M2209.2 137.377 L2209.2 137.377 Z" fill="#000000" fill-rule="nonzero" fill-opacity="1" /><path clip-path="url(#clip160)" d="M2228.97 127.91 L2233.23 127.91 L2233.23 163.928 L2228.97 163.928 L2228.97 127.91 Z" fill="#000000" fill-rule="nonzero" fill-opacity="1" /><path clip-path="url(#clip160)" d="M2246.35 130.641 L2246.35 138.002 L2255.13 138.002 L2255.13 141.312 L2246.35 141.312 L2246.35 155.386 Q2246.35 158.558 2247.21 159.461 Q2248.09 160.363 2250.75 160.363 L2255.13 160.363 L2255.13 163.928 L2250.75 163.928 Q2245.82 163.928 2243.95 162.099 Q2242.07 160.248 2242.07 155.386 L2242.07 141.312 L2238.95 141.312 L2238.95 138.002 L2242.07 138.002 L2242.07 130.641 L2246.35 130.641 Z" fill="#000000" fill-rule="nonzero" fill-opacity="1" /></svg>
