<?xml version="1.0" encoding="utf-8"?>
<svg xmlns="http://www.w3.org/2000/svg" xmlns:xlink="http://www.w3.org/1999/xlink" width="600" height="400" viewBox="0 0 2400 1600">
<defs>
  <clipPath id="clip250">
    <rect x="0" y="0" width="2400" height="1600"/>
  </clipPath>
</defs>
<path clip-path="url(#clip250)" d="M0 1600 L2400 1600 L2400 0 L0 0  Z" fill="#ffffff" fill-rule="evenodd" fill-opacity="1"/>
<defs>
  <clipPath id="clip251">
    <rect x="480" y="0" width="1681" height="1600"/>
  </clipPath>
</defs>
<path clip-path="url(#clip250)" d="M156.112 1474.16 L2352.76 1474.16 L2352.76 47.2441 L156.112 47.2441  Z" fill="#ffffff" fill-rule="evenodd" fill-opacity="1"/>
<defs>
  <clipPath id="clip252">
    <rect x="156" y="47" width="2198" height="1428"/>
  </clipPath>
</defs>
<polyline clip-path="url(#clip252)" style="stroke:#000000; stroke-linecap:round; stroke-linejoin:round; stroke-width:2; stroke-opacity:0.1; fill:none" points="218.281,1474.16 218.281,47.2441 "/>
<polyline clip-path="url(#clip252)" style="stroke:#000000; stroke-linecap:round; stroke-linejoin:round; stroke-width:2; stroke-opacity:0.1; fill:none" points="1513.47,1474.16 1513.47,47.2441 "/>
<polyline clip-path="url(#clip250)" style="stroke:#000000; stroke-linecap:round; stroke-linejoin:round; stroke-width:4; stroke-opacity:1; fill:none" points="156.112,1474.16 2352.76,1474.16 "/>
<polyline clip-path="url(#clip250)" style="stroke:#000000; stroke-linecap:round; stroke-linejoin:round; stroke-width:4; stroke-opacity:1; fill:none" points="218.281,1474.16 218.281,1455.27 "/>
<polyline clip-path="url(#clip250)" style="stroke:#000000; stroke-linecap:round; stroke-linejoin:round; stroke-width:4; stroke-opacity:1; fill:none" points="1513.47,1474.16 1513.47,1455.27 "/>
<path clip-path="url(#clip250)" d="M155.645 1548.29 L163.284 1548.29 L163.284 1521.92 L154.974 1523.59 L154.974 1519.33 L163.237 1517.66 L167.913 1517.66 L167.913 1548.29 L175.552 1548.29 L175.552 1552.22 L155.645 1552.22 L155.645 1548.29 Z" fill="#000000" fill-rule="nonzero" fill-opacity="1" /><path clip-path="url(#clip250)" d="M194.997 1520.74 Q191.385 1520.74 189.557 1524.31 Q187.751 1527.85 187.751 1534.98 Q187.751 1542.09 189.557 1545.65 Q191.385 1549.19 194.997 1549.19 Q198.631 1549.19 200.436 1545.65 Q202.265 1542.09 202.265 1534.98 Q202.265 1527.85 200.436 1524.31 Q198.631 1520.74 194.997 1520.74 M194.997 1517.04 Q200.807 1517.04 203.862 1521.65 Q206.941 1526.23 206.941 1534.98 Q206.941 1543.71 203.862 1548.31 Q200.807 1552.9 194.997 1552.9 Q189.186 1552.9 186.108 1548.31 Q183.052 1543.71 183.052 1534.98 Q183.052 1526.23 186.108 1521.65 Q189.186 1517.04 194.997 1517.04 Z" fill="#000000" fill-rule="nonzero" fill-opacity="1" /><path clip-path="url(#clip250)" d="M206.941 1511.14 L231.052 1511.14 L231.052 1514.34 L206.941 1514.34 L206.941 1511.14 Z" fill="#000000" fill-rule="nonzero" fill-opacity="1" /><path clip-path="url(#clip250)" d="M239.911 1521.62 L246.118 1521.62 L246.118 1500.19 L239.366 1501.55 L239.366 1498.09 L246.08 1496.73 L249.879 1496.73 L249.879 1521.62 L256.086 1521.62 L256.086 1524.81 L239.911 1524.81 L239.911 1521.62 Z" fill="#000000" fill-rule="nonzero" fill-opacity="1" /><path clip-path="url(#clip250)" d="M271.884 1499.24 Q268.95 1499.24 267.464 1502.13 Q265.997 1505.01 265.997 1510.8 Q265.997 1516.58 267.464 1519.47 Q268.95 1522.35 271.884 1522.35 Q274.837 1522.35 276.304 1519.47 Q277.79 1516.58 277.79 1510.8 Q277.79 1505.01 276.304 1502.13 Q274.837 1499.24 271.884 1499.24 M271.884 1496.23 Q276.605 1496.23 279.088 1499.97 Q281.589 1503.69 281.589 1510.8 Q281.589 1517.89 279.088 1521.64 Q276.605 1525.36 271.884 1525.36 Q267.163 1525.36 264.662 1521.64 Q262.179 1517.89 262.179 1510.8 Q262.179 1503.69 264.662 1499.97 Q267.163 1496.23 271.884 1496.23 Z" fill="#000000" fill-rule="nonzero" fill-opacity="1" /><path clip-path="url(#clip250)" d="M1463.49 1548.29 L1471.13 1548.29 L1471.13 1521.92 L1462.82 1523.59 L1462.82 1519.33 L1471.09 1517.66 L1475.76 1517.66 L1475.76 1548.29 L1483.4 1548.29 L1483.4 1552.22 L1463.49 1552.22 L1463.49 1548.29 Z" fill="#000000" fill-rule="nonzero" fill-opacity="1" /><path clip-path="url(#clip250)" d="M1502.85 1520.74 Q1499.23 1520.74 1497.41 1524.31 Q1495.6 1527.85 1495.6 1534.98 Q1495.6 1542.09 1497.41 1545.65 Q1499.23 1549.19 1502.85 1549.19 Q1506.48 1549.19 1508.28 1545.65 Q1510.11 1542.09 1510.11 1534.98 Q1510.11 1527.85 1508.28 1524.31 Q1506.48 1520.74 1502.85 1520.74 M1502.85 1517.04 Q1508.66 1517.04 1511.71 1521.65 Q1514.79 1526.23 1514.79 1534.98 Q1514.79 1543.71 1511.71 1548.31 Q1508.66 1552.9 1502.85 1552.9 Q1497.03 1552.9 1493.96 1548.31 Q1490.9 1543.71 1490.9 1534.98 Q1490.9 1526.23 1493.96 1521.65 Q1497.03 1517.04 1502.85 1517.04 Z" fill="#000000" fill-rule="nonzero" fill-opacity="1" /><path clip-path="url(#clip250)" d="M1514.79 1511.14 L1538.9 1511.14 L1538.9 1514.34 L1514.79 1514.34 L1514.79 1511.14 Z" fill="#000000" fill-rule="nonzero" fill-opacity="1" /><path clip-path="url(#clip250)" d="M1547.14 1496.73 L1562.05 1496.73 L1562.05 1499.93 L1550.62 1499.93 L1550.62 1506.82 Q1551.45 1506.53 1552.27 1506.4 Q1553.1 1506.25 1553.93 1506.25 Q1558.63 1506.25 1561.38 1508.83 Q1564.12 1511.4 1564.12 1515.81 Q1564.12 1520.34 1561.3 1522.86 Q1558.48 1525.36 1553.35 1525.36 Q1551.58 1525.36 1549.73 1525.06 Q1547.91 1524.76 1545.95 1524.16 L1545.95 1520.34 Q1547.65 1521.26 1549.45 1521.71 Q1551.26 1522.16 1553.27 1522.16 Q1556.52 1522.16 1558.42 1520.45 Q1560.32 1518.74 1560.32 1515.81 Q1560.32 1512.87 1558.42 1511.16 Q1556.52 1509.45 1553.27 1509.45 Q1551.75 1509.45 1550.22 1509.79 Q1548.72 1510.13 1547.14 1510.84 L1547.14 1496.73 Z" fill="#000000" fill-rule="nonzero" fill-opacity="1" /><polyline clip-path="url(#clip252)" style="stroke:#000000; stroke-linecap:round; stroke-linejoin:round; stroke-width:2; stroke-opacity:0.1; fill:none" points="156.112,1433.9 2352.76,1433.9 "/>
<polyline clip-path="url(#clip252)" style="stroke:#000000; stroke-linecap:round; stroke-linejoin:round; stroke-width:2; stroke-opacity:0.1; fill:none" points="156.112,1138.04 2352.76,1138.04 "/>
<polyline clip-path="url(#clip252)" style="stroke:#000000; stroke-linecap:round; stroke-linejoin:round; stroke-width:2; stroke-opacity:0.1; fill:none" points="156.112,842.17 2352.76,842.17 "/>
<polyline clip-path="url(#clip252)" style="stroke:#000000; stroke-linecap:round; stroke-linejoin:round; stroke-width:2; stroke-opacity:0.1; fill:none" points="156.112,546.304 2352.76,546.304 "/>
<polyline clip-path="url(#clip252)" style="stroke:#000000; stroke-linecap:round; stroke-linejoin:round; stroke-width:2; stroke-opacity:0.1; fill:none" points="156.112,250.439 2352.76,250.439 "/>
<polyline clip-path="url(#clip250)" style="stroke:#000000; stroke-linecap:round; stroke-linejoin:round; stroke-width:4; stroke-opacity:1; fill:none" points="156.112,1474.16 156.112,47.2441 "/>
<polyline clip-path="url(#clip250)" style="stroke:#000000; stroke-linecap:round; stroke-linejoin:round; stroke-width:4; stroke-opacity:1; fill:none" points="156.112,1433.9 175.01,1433.9 "/>
<polyline clip-path="url(#clip250)" style="stroke:#000000; stroke-linecap:round; stroke-linejoin:round; stroke-width:4; stroke-opacity:1; fill:none" points="156.112,1138.04 175.01,1138.04 "/>
<polyline clip-path="url(#clip250)" style="stroke:#000000; stroke-linecap:round; stroke-linejoin:round; stroke-width:4; stroke-opacity:1; fill:none" points="156.112,842.17 175.01,842.17 "/>
<polyline clip-path="url(#clip250)" style="stroke:#000000; stroke-linecap:round; stroke-linejoin:round; stroke-width:4; stroke-opacity:1; fill:none" points="156.112,546.304 175.01,546.304 "/>
<polyline clip-path="url(#clip250)" style="stroke:#000000; stroke-linecap:round; stroke-linejoin:round; stroke-width:4; stroke-opacity:1; fill:none" points="156.112,250.439 175.01,250.439 "/>
<path clip-path="url(#clip250)" d="M62.9365 1419.7 Q59.3254 1419.7 57.4967 1423.26 Q55.6912 1426.81 55.6912 1433.94 Q55.6912 1441.04 57.4967 1444.61 Q59.3254 1448.15 62.9365 1448.15 Q66.5707 1448.15 68.3763 1444.61 Q70.205 1441.04 70.205 1433.94 Q70.205 1426.81 68.3763 1423.26 Q66.5707 1419.7 62.9365 1419.7 M62.9365 1416 Q68.7467 1416 71.8022 1420.6 Q74.8809 1425.19 74.8809 1433.94 Q74.8809 1442.66 71.8022 1447.27 Q68.7467 1451.85 62.9365 1451.85 Q57.1264 1451.85 54.0477 1447.27 Q50.9921 1442.66 50.9921 1433.94 Q50.9921 1425.19 54.0477 1420.6 Q57.1264 1416 62.9365 1416 Z" fill="#000000" fill-rule="nonzero" fill-opacity="1" /><path clip-path="url(#clip250)" d="M83.0984 1445.3 L87.9827 1445.3 L87.9827 1451.18 L83.0984 1451.18 L83.0984 1445.3 Z" fill="#000000" fill-rule="nonzero" fill-opacity="1" /><path clip-path="url(#clip250)" d="M108.168 1419.7 Q104.557 1419.7 102.728 1423.26 Q100.922 1426.81 100.922 1433.94 Q100.922 1441.04 102.728 1444.61 Q104.557 1448.15 108.168 1448.15 Q111.802 1448.15 113.608 1444.61 Q115.436 1441.04 115.436 1433.94 Q115.436 1426.81 113.608 1423.26 Q111.802 1419.7 108.168 1419.7 M108.168 1416 Q113.978 1416 117.033 1420.6 Q120.112 1425.19 120.112 1433.94 Q120.112 1442.66 117.033 1447.27 Q113.978 1451.85 108.168 1451.85 Q102.358 1451.85 99.2789 1447.27 Q96.2234 1442.66 96.2234 1433.94 Q96.2234 1425.19 99.2789 1420.6 Q102.358 1416 108.168 1416 Z" fill="#000000" fill-rule="nonzero" fill-opacity="1" /><path clip-path="url(#clip250)" d="M63.9319 1123.83 Q60.3208 1123.83 58.4921 1127.4 Q56.6865 1130.94 56.6865 1138.07 Q56.6865 1145.18 58.4921 1148.74 Q60.3208 1152.28 63.9319 1152.28 Q67.5661 1152.28 69.3717 1148.74 Q71.2004 1145.18 71.2004 1138.07 Q71.2004 1130.94 69.3717 1127.4 Q67.5661 1123.83 63.9319 1123.83 M63.9319 1120.13 Q69.742 1120.13 72.7976 1124.74 Q75.8763 1129.32 75.8763 1138.07 Q75.8763 1146.8 72.7976 1151.4 Q69.742 1155.99 63.9319 1155.99 Q58.1217 1155.99 55.043 1151.4 Q51.9875 1146.8 51.9875 1138.07 Q51.9875 1129.32 55.043 1124.74 Q58.1217 1120.13 63.9319 1120.13 Z" fill="#000000" fill-rule="nonzero" fill-opacity="1" /><path clip-path="url(#clip250)" d="M84.0938 1149.44 L88.978 1149.44 L88.978 1155.32 L84.0938 1155.32 L84.0938 1149.44 Z" fill="#000000" fill-rule="nonzero" fill-opacity="1" /><path clip-path="url(#clip250)" d="M99.2095 1120.76 L117.566 1120.76 L117.566 1124.69 L103.492 1124.69 L103.492 1133.16 Q104.51 1132.82 105.529 1132.65 Q106.547 1132.47 107.566 1132.47 Q113.353 1132.47 116.733 1135.64 Q120.112 1138.81 120.112 1144.23 Q120.112 1149.81 116.64 1152.91 Q113.168 1155.99 106.848 1155.99 Q104.672 1155.99 102.404 1155.62 Q100.159 1155.25 97.7511 1154.51 L97.7511 1149.81 Q99.8345 1150.94 102.057 1151.5 Q104.279 1152.05 106.756 1152.05 Q110.76 1152.05 113.098 1149.95 Q115.436 1147.84 115.436 1144.23 Q115.436 1140.62 113.098 1138.51 Q110.76 1136.4 106.756 1136.4 Q104.881 1136.4 103.006 1136.82 Q101.154 1137.24 99.2095 1138.12 L99.2095 1120.76 Z" fill="#000000" fill-rule="nonzero" fill-opacity="1" /><path clip-path="url(#clip250)" d="M53.7467 855.515 L61.3856 855.515 L61.3856 829.149 L53.0754 830.816 L53.0754 826.557 L61.3393 824.89 L66.0152 824.89 L66.0152 855.515 L73.654 855.515 L73.654 859.45 L53.7467 859.45 L53.7467 855.515 Z" fill="#000000" fill-rule="nonzero" fill-opacity="1" /><path clip-path="url(#clip250)" d="M83.0984 853.57 L87.9827 853.57 L87.9827 859.45 L83.0984 859.45 L83.0984 853.57 Z" fill="#000000" fill-rule="nonzero" fill-opacity="1" /><path clip-path="url(#clip250)" d="M108.168 827.969 Q104.557 827.969 102.728 831.534 Q100.922 835.075 100.922 842.205 Q100.922 849.311 102.728 852.876 Q104.557 856.418 108.168 856.418 Q111.802 856.418 113.608 852.876 Q115.436 849.311 115.436 842.205 Q115.436 835.075 113.608 831.534 Q111.802 827.969 108.168 827.969 M108.168 824.265 Q113.978 824.265 117.033 828.872 Q120.112 833.455 120.112 842.205 Q120.112 850.932 117.033 855.538 Q113.978 860.121 108.168 860.121 Q102.358 860.121 99.2789 855.538 Q96.2234 850.932 96.2234 842.205 Q96.2234 833.455 99.2789 828.872 Q102.358 824.265 108.168 824.265 Z" fill="#000000" fill-rule="nonzero" fill-opacity="1" /><path clip-path="url(#clip250)" d="M54.7421 559.649 L62.381 559.649 L62.381 533.284 L54.0708 534.95 L54.0708 530.691 L62.3347 529.024 L67.0106 529.024 L67.0106 559.649 L74.6494 559.649 L74.6494 563.584 L54.7421 563.584 L54.7421 559.649 Z" fill="#000000" fill-rule="nonzero" fill-opacity="1" /><path clip-path="url(#clip250)" d="M84.0938 557.705 L88.978 557.705 L88.978 563.584 L84.0938 563.584 L84.0938 557.705 Z" fill="#000000" fill-rule="nonzero" fill-opacity="1" /><path clip-path="url(#clip250)" d="M99.2095 529.024 L117.566 529.024 L117.566 532.96 L103.492 532.96 L103.492 541.432 Q104.51 541.085 105.529 540.922 Q106.547 540.737 107.566 540.737 Q113.353 540.737 116.733 543.909 Q120.112 547.08 120.112 552.496 Q120.112 558.075 116.64 561.177 Q113.168 564.256 106.848 564.256 Q104.672 564.256 102.404 563.885 Q100.159 563.515 97.7511 562.774 L97.7511 558.075 Q99.8345 559.209 102.057 559.765 Q104.279 560.321 106.756 560.321 Q110.76 560.321 113.098 558.214 Q115.436 556.108 115.436 552.496 Q115.436 548.885 113.098 546.779 Q110.76 544.672 106.756 544.672 Q104.881 544.672 103.006 545.089 Q101.154 545.506 99.2095 546.385 L99.2095 529.024 Z" fill="#000000" fill-rule="nonzero" fill-opacity="1" /><path clip-path="url(#clip250)" d="M56.9643 263.784 L73.2837 263.784 L73.2837 267.719 L51.3393 267.719 L51.3393 263.784 Q54.0014 261.029 58.5847 256.399 Q63.1911 251.747 64.3717 250.404 Q66.617 247.881 67.4967 246.145 Q68.3994 244.385 68.3994 242.696 Q68.3994 239.941 66.455 238.205 Q64.5337 236.469 61.4319 236.469 Q59.2328 236.469 56.7791 237.233 Q54.3486 237.997 51.5708 239.548 L51.5708 234.825 Q54.3949 233.691 56.8486 233.112 Q59.3023 232.534 61.3393 232.534 Q66.7096 232.534 69.9041 235.219 Q73.0985 237.904 73.0985 242.395 Q73.0985 244.524 72.2883 246.446 Q71.5013 248.344 69.3948 250.936 Q68.8161 251.608 65.7143 254.825 Q62.6124 258.02 56.9643 263.784 Z" fill="#000000" fill-rule="nonzero" fill-opacity="1" /><path clip-path="url(#clip250)" d="M83.0984 261.839 L87.9827 261.839 L87.9827 267.719 L83.0984 267.719 L83.0984 261.839 Z" fill="#000000" fill-rule="nonzero" fill-opacity="1" /><path clip-path="url(#clip250)" d="M108.168 236.237 Q104.557 236.237 102.728 239.802 Q100.922 243.344 100.922 250.473 Q100.922 257.58 102.728 261.145 Q104.557 264.686 108.168 264.686 Q111.802 264.686 113.608 261.145 Q115.436 257.58 115.436 250.473 Q115.436 243.344 113.608 239.802 Q111.802 236.237 108.168 236.237 M108.168 232.534 Q113.978 232.534 117.033 237.14 Q120.112 241.723 120.112 250.473 Q120.112 259.2 117.033 263.807 Q113.978 268.39 108.168 268.39 Q102.358 268.39 99.2789 263.807 Q96.2234 259.2 96.2234 250.473 Q96.2234 241.723 99.2789 237.14 Q102.358 232.534 108.168 232.534 Z" fill="#000000" fill-rule="nonzero" fill-opacity="1" /><polyline clip-path="url(#clip252)" style="stroke:#000000; stroke-linecap:round; stroke-linejoin:round; stroke-width:4; stroke-opacity:1; fill:none" points="218.281,1433.78 218.281,1433.77 "/>
<polyline clip-path="url(#clip252)" style="stroke:#000000; stroke-linecap:round; stroke-linejoin:round; stroke-width:4; stroke-opacity:1; fill:none" points="356.435,1433.49 356.435,1433.4 "/>
<polyline clip-path="url(#clip252)" style="stroke:#000000; stroke-linecap:round; stroke-linejoin:round; stroke-width:4; stroke-opacity:1; fill:none" points="494.589,1432.65 494.589,1432.44 "/>
<polyline clip-path="url(#clip252)" style="stroke:#000000; stroke-linecap:round; stroke-linejoin:round; stroke-width:4; stroke-opacity:1; fill:none" points="632.742,1429.85 632.742,1429.1 "/>
<polyline clip-path="url(#clip252)" style="stroke:#000000; stroke-linecap:round; stroke-linejoin:round; stroke-width:4; stroke-opacity:1; fill:none" points="770.896,1421.23 770.896,1420.13 "/>
<polyline clip-path="url(#clip252)" style="stroke:#000000; stroke-linecap:round; stroke-linejoin:round; stroke-width:4; stroke-opacity:1; fill:none" points="909.05,1395.73 909.05,1391.59 "/>
<polyline clip-path="url(#clip252)" style="stroke:#000000; stroke-linecap:round; stroke-linejoin:round; stroke-width:4; stroke-opacity:1; fill:none" points="1047.2,1317.13 1047.2,1314.02 "/>
<polyline clip-path="url(#clip252)" style="stroke:#000000; stroke-linecap:round; stroke-linejoin:round; stroke-width:4; stroke-opacity:1; fill:none" points="1185.36,1173.44 1185.36,1118.87 "/>
<polyline clip-path="url(#clip252)" style="stroke:#000000; stroke-linecap:round; stroke-linejoin:round; stroke-width:4; stroke-opacity:1; fill:none" points="1323.51,931.376 1323.51,913.87 "/>
<polyline clip-path="url(#clip252)" style="stroke:#000000; stroke-linecap:round; stroke-linejoin:round; stroke-width:4; stroke-opacity:1; fill:none" points="1461.66,819.654 1461.66,738.433 "/>
<polyline clip-path="url(#clip252)" style="stroke:#000000; stroke-linecap:round; stroke-linejoin:round; stroke-width:4; stroke-opacity:1; fill:none" points="1599.82,703.096 1599.82,659.499 "/>
<polyline clip-path="url(#clip252)" style="stroke:#000000; stroke-linecap:round; stroke-linejoin:round; stroke-width:4; stroke-opacity:1; fill:none" points="1737.97,546.266 1737.97,433.385 "/>
<polyline clip-path="url(#clip252)" style="stroke:#000000; stroke-linecap:round; stroke-linejoin:round; stroke-width:4; stroke-opacity:1; fill:none" points="1876.13,293.841 1876.13,109.085 "/>
<polyline clip-path="url(#clip252)" style="stroke:#000000; stroke-linecap:round; stroke-linejoin:round; stroke-width:4; stroke-opacity:1; fill:none" points="2014.28,250.694 2014.28,204.714 "/>
<polyline clip-path="url(#clip252)" style="stroke:#000000; stroke-linecap:round; stroke-linejoin:round; stroke-width:4; stroke-opacity:1; fill:none" points="2152.43,260.491 2152.43,87.6286 "/>
<polyline clip-path="url(#clip252)" style="stroke:#000000; stroke-linecap:round; stroke-linejoin:round; stroke-width:4; stroke-opacity:1; fill:none" points="2290.59,203.789 2290.59,146.632 "/>
<line clip-path="url(#clip252)" x1="234.281" y1="1433.78" x2="202.281" y2="1433.78" style="stroke:#000000; stroke-width:4; stroke-opacity:1"/>
<line clip-path="url(#clip252)" x1="234.281" y1="1433.77" x2="202.281" y2="1433.77" style="stroke:#000000; stroke-width:4; stroke-opacity:1"/>
<line clip-path="url(#clip252)" x1="372.435" y1="1433.49" x2="340.435" y2="1433.49" style="stroke:#000000; stroke-width:4; stroke-opacity:1"/>
<line clip-path="url(#clip252)" x1="372.435" y1="1433.4" x2="340.435" y2="1433.4" style="stroke:#000000; stroke-width:4; stroke-opacity:1"/>
<line clip-path="url(#clip252)" x1="510.589" y1="1432.65" x2="478.589" y2="1432.65" style="stroke:#000000; stroke-width:4; stroke-opacity:1"/>
<line clip-path="url(#clip252)" x1="510.589" y1="1432.44" x2="478.589" y2="1432.44" style="stroke:#000000; stroke-width:4; stroke-opacity:1"/>
<line clip-path="url(#clip252)" x1="648.742" y1="1429.85" x2="616.742" y2="1429.85" style="stroke:#000000; stroke-width:4; stroke-opacity:1"/>
<line clip-path="url(#clip252)" x1="648.742" y1="1429.1" x2="616.742" y2="1429.1" style="stroke:#000000; stroke-width:4; stroke-opacity:1"/>
<line clip-path="url(#clip252)" x1="786.896" y1="1421.23" x2="754.896" y2="1421.23" style="stroke:#000000; stroke-width:4; stroke-opacity:1"/>
<line clip-path="url(#clip252)" x1="786.896" y1="1420.13" x2="754.896" y2="1420.13" style="stroke:#000000; stroke-width:4; stroke-opacity:1"/>
<line clip-path="url(#clip252)" x1="925.05" y1="1395.73" x2="893.05" y2="1395.73" style="stroke:#000000; stroke-width:4; stroke-opacity:1"/>
<line clip-path="url(#clip252)" x1="925.05" y1="1391.59" x2="893.05" y2="1391.59" style="stroke:#000000; stroke-width:4; stroke-opacity:1"/>
<line clip-path="url(#clip252)" x1="1063.2" y1="1317.13" x2="1031.2" y2="1317.13" style="stroke:#000000; stroke-width:4; stroke-opacity:1"/>
<line clip-path="url(#clip252)" x1="1063.2" y1="1314.02" x2="1031.2" y2="1314.02" style="stroke:#000000; stroke-width:4; stroke-opacity:1"/>
<line clip-path="url(#clip252)" x1="1201.36" y1="1173.44" x2="1169.36" y2="1173.44" style="stroke:#000000; stroke-width:4; stroke-opacity:1"/>
<line clip-path="url(#clip252)" x1="1201.36" y1="1118.87" x2="1169.36" y2="1118.87" style="stroke:#000000; stroke-width:4; stroke-opacity:1"/>
<line clip-path="url(#clip252)" x1="1339.51" y1="931.376" x2="1307.51" y2="931.376" style="stroke:#000000; stroke-width:4; stroke-opacity:1"/>
<line clip-path="url(#clip252)" x1="1339.51" y1="913.87" x2="1307.51" y2="913.87" style="stroke:#000000; stroke-width:4; stroke-opacity:1"/>
<line clip-path="url(#clip252)" x1="1477.66" y1="819.654" x2="1445.66" y2="819.654" style="stroke:#000000; stroke-width:4; stroke-opacity:1"/>
<line clip-path="url(#clip252)" x1="1477.66" y1="738.433" x2="1445.66" y2="738.433" style="stroke:#000000; stroke-width:4; stroke-opacity:1"/>
<line clip-path="url(#clip252)" x1="1615.82" y1="703.096" x2="1583.82" y2="703.096" style="stroke:#000000; stroke-width:4; stroke-opacity:1"/>
<line clip-path="url(#clip252)" x1="1615.82" y1="659.499" x2="1583.82" y2="659.499" style="stroke:#000000; stroke-width:4; stroke-opacity:1"/>
<line clip-path="url(#clip252)" x1="1753.97" y1="546.266" x2="1721.97" y2="546.266" style="stroke:#000000; stroke-width:4; stroke-opacity:1"/>
<line clip-path="url(#clip252)" x1="1753.97" y1="433.385" x2="1721.97" y2="433.385" style="stroke:#000000; stroke-width:4; stroke-opacity:1"/>
<line clip-path="url(#clip252)" x1="1892.13" y1="293.841" x2="1860.13" y2="293.841" style="stroke:#000000; stroke-width:4; stroke-opacity:1"/>
<line clip-path="url(#clip252)" x1="1892.13" y1="109.085" x2="1860.13" y2="109.085" style="stroke:#000000; stroke-width:4; stroke-opacity:1"/>
<line clip-path="url(#clip252)" x1="2030.28" y1="250.694" x2="1998.28" y2="250.694" style="stroke:#000000; stroke-width:4; stroke-opacity:1"/>
<line clip-path="url(#clip252)" x1="2030.28" y1="204.714" x2="1998.28" y2="204.714" style="stroke:#000000; stroke-width:4; stroke-opacity:1"/>
<line clip-path="url(#clip252)" x1="2168.43" y1="260.491" x2="2136.43" y2="260.491" style="stroke:#000000; stroke-width:4; stroke-opacity:1"/>
<line clip-path="url(#clip252)" x1="2168.43" y1="87.6286" x2="2136.43" y2="87.6286" style="stroke:#000000; stroke-width:4; stroke-opacity:1"/>
<line clip-path="url(#clip252)" x1="2306.59" y1="203.789" x2="2274.59" y2="203.789" style="stroke:#000000; stroke-width:4; stroke-opacity:1"/>
<line clip-path="url(#clip252)" x1="2306.59" y1="146.632" x2="2274.59" y2="146.632" style="stroke:#000000; stroke-width:4; stroke-opacity:1"/>
<circle clip-path="url(#clip252)" cx="218.281" cy="1433.77" r="14.4" fill="#009af9" fill-rule="evenodd" fill-opacity="1" stroke="#000000" stroke-opacity="1" stroke-width="3.2"/>
<circle clip-path="url(#clip252)" cx="356.435" cy="1433.45" r="14.4" fill="#009af9" fill-rule="evenodd" fill-opacity="1" stroke="#000000" stroke-opacity="1" stroke-width="3.2"/>
<circle clip-path="url(#clip252)" cx="494.589" cy="1432.55" r="14.4" fill="#009af9" fill-rule="evenodd" fill-opacity="1" stroke="#000000" stroke-opacity="1" stroke-width="3.2"/>
<circle clip-path="url(#clip252)" cx="632.742" cy="1429.48" r="14.4" fill="#009af9" fill-rule="evenodd" fill-opacity="1" stroke="#000000" stroke-opacity="1" stroke-width="3.2"/>
<circle clip-path="url(#clip252)" cx="770.896" cy="1420.68" r="14.4" fill="#009af9" fill-rule="evenodd" fill-opacity="1" stroke="#000000" stroke-opacity="1" stroke-width="3.2"/>
<circle clip-path="url(#clip252)" cx="909.05" cy="1393.66" r="14.4" fill="#009af9" fill-rule="evenodd" fill-opacity="1" stroke="#000000" stroke-opacity="1" stroke-width="3.2"/>
<circle clip-path="url(#clip252)" cx="1047.2" cy="1315.58" r="14.4" fill="#009af9" fill-rule="evenodd" fill-opacity="1" stroke="#000000" stroke-opacity="1" stroke-width="3.2"/>
<circle clip-path="url(#clip252)" cx="1185.36" cy="1146.16" r="14.4" fill="#009af9" fill-rule="evenodd" fill-opacity="1" stroke="#000000" stroke-opacity="1" stroke-width="3.2"/>
<circle clip-path="url(#clip252)" cx="1323.51" cy="922.623" r="14.4" fill="#009af9" fill-rule="evenodd" fill-opacity="1" stroke="#000000" stroke-opacity="1" stroke-width="3.2"/>
<circle clip-path="url(#clip252)" cx="1461.66" cy="779.044" r="14.4" fill="#009af9" fill-rule="evenodd" fill-opacity="1" stroke="#000000" stroke-opacity="1" stroke-width="3.2"/>
<circle clip-path="url(#clip252)" cx="1599.82" cy="681.297" r="14.4" fill="#009af9" fill-rule="evenodd" fill-opacity="1" stroke="#000000" stroke-opacity="1" stroke-width="3.2"/>
<circle clip-path="url(#clip252)" cx="1737.97" cy="489.826" r="14.4" fill="#009af9" fill-rule="evenodd" fill-opacity="1" stroke="#000000" stroke-opacity="1" stroke-width="3.2"/>
<circle clip-path="url(#clip252)" cx="1876.13" cy="201.463" r="14.4" fill="#009af9" fill-rule="evenodd" fill-opacity="1" stroke="#000000" stroke-opacity="1" stroke-width="3.2"/>
<circle clip-path="url(#clip252)" cx="2014.28" cy="227.704" r="14.4" fill="#009af9" fill-rule="evenodd" fill-opacity="1" stroke="#000000" stroke-opacity="1" stroke-width="3.2"/>
<circle clip-path="url(#clip252)" cx="2152.43" cy="174.06" r="14.4" fill="#009af9" fill-rule="evenodd" fill-opacity="1" stroke="#000000" stroke-opacity="1" stroke-width="3.2"/>
<circle clip-path="url(#clip252)" cx="2290.59" cy="175.21" r="14.4" fill="#009af9" fill-rule="evenodd" fill-opacity="1" stroke="#000000" stroke-opacity="1" stroke-width="3.2"/>
</svg>
