<?xml version="1.0" encoding="utf-8"?>
<svg xmlns="http://www.w3.org/2000/svg" xmlns:xlink="http://www.w3.org/1999/xlink" width="600" height="400" viewBox="0 0 2400 1600">
<defs>
  <clipPath id="clip060">
    <rect x="0" y="0" width="2400" height="1600"/>
  </clipPath>
</defs>
<path clip-path="url(#clip060)" d="M0 1600 L2400 1600 L2400 0 L0 0  Z" fill="#ffffff" fill-rule="evenodd" fill-opacity="1"/>
<defs>
  <clipPath id="clip061">
    <rect x="480" y="0" width="1681" height="1600"/>
  </clipPath>
</defs>
<path clip-path="url(#clip060)" d="M186.274 1486.45 L2352.76 1486.45 L2352.76 47.2441 L186.274 47.2441  Z" fill="#ffffff" fill-rule="evenodd" fill-opacity="1"/>
<defs>
  <clipPath id="clip062">
    <rect x="186" y="47" width="2167" height="1440"/>
  </clipPath>
</defs>
<polyline clip-path="url(#clip062)" style="stroke:#000000; stroke-linecap:round; stroke-linejoin:round; stroke-width:2; stroke-opacity:0.1; fill:none" points="247.587,1486.45 247.587,47.2441 "/>
<polyline clip-path="url(#clip062)" style="stroke:#000000; stroke-linecap:round; stroke-linejoin:round; stroke-width:2; stroke-opacity:0.1; fill:none" points="758.551,1486.45 758.551,47.2441 "/>
<polyline clip-path="url(#clip062)" style="stroke:#000000; stroke-linecap:round; stroke-linejoin:round; stroke-width:2; stroke-opacity:0.1; fill:none" points="1269.51,1486.45 1269.51,47.2441 "/>
<polyline clip-path="url(#clip062)" style="stroke:#000000; stroke-linecap:round; stroke-linejoin:round; stroke-width:2; stroke-opacity:0.1; fill:none" points="1780.48,1486.45 1780.48,47.2441 "/>
<polyline clip-path="url(#clip062)" style="stroke:#000000; stroke-linecap:round; stroke-linejoin:round; stroke-width:2; stroke-opacity:0.1; fill:none" points="2291.44,1486.45 2291.44,47.2441 "/>
<polyline clip-path="url(#clip060)" style="stroke:#000000; stroke-linecap:round; stroke-linejoin:round; stroke-width:4; stroke-opacity:1; fill:none" points="186.274,1486.45 2352.76,1486.45 "/>
<polyline clip-path="url(#clip060)" style="stroke:#000000; stroke-linecap:round; stroke-linejoin:round; stroke-width:4; stroke-opacity:1; fill:none" points="247.587,1486.45 247.587,1467.55 "/>
<polyline clip-path="url(#clip060)" style="stroke:#000000; stroke-linecap:round; stroke-linejoin:round; stroke-width:4; stroke-opacity:1; fill:none" points="758.551,1486.45 758.551,1467.55 "/>
<polyline clip-path="url(#clip060)" style="stroke:#000000; stroke-linecap:round; stroke-linejoin:round; stroke-width:4; stroke-opacity:1; fill:none" points="1269.51,1486.45 1269.51,1467.55 "/>
<polyline clip-path="url(#clip060)" style="stroke:#000000; stroke-linecap:round; stroke-linejoin:round; stroke-width:4; stroke-opacity:1; fill:none" points="1780.48,1486.45 1780.48,1467.55 "/>
<polyline clip-path="url(#clip060)" style="stroke:#000000; stroke-linecap:round; stroke-linejoin:round; stroke-width:4; stroke-opacity:1; fill:none" points="2291.44,1486.45 2291.44,1467.55 "/>
<path clip-path="url(#clip060)" d="M179.729 1517.37 Q176.118 1517.37 174.289 1520.93 Q172.484 1524.47 172.484 1531.6 Q172.484 1538.71 174.289 1542.27 Q176.118 1545.82 179.729 1545.82 Q183.363 1545.82 185.169 1542.27 Q186.998 1538.71 186.998 1531.6 Q186.998 1524.47 185.169 1520.93 Q183.363 1517.37 179.729 1517.37 M179.729 1513.66 Q185.539 1513.66 188.595 1518.27 Q191.673 1522.85 191.673 1531.6 Q191.673 1540.33 188.595 1544.94 Q185.539 1549.52 179.729 1549.52 Q173.919 1549.52 170.84 1544.94 Q167.785 1540.33 167.785 1531.6 Q167.785 1522.85 170.84 1518.27 Q173.919 1513.66 179.729 1513.66 Z" fill="#000000" fill-rule="nonzero" fill-opacity="1" /><path clip-path="url(#clip060)" d="M199.891 1542.97 L204.775 1542.97 L204.775 1548.85 L199.891 1548.85 L199.891 1542.97 Z" fill="#000000" fill-rule="nonzero" fill-opacity="1" /><path clip-path="url(#clip060)" d="M224.96 1517.37 Q221.349 1517.37 219.521 1520.93 Q217.715 1524.47 217.715 1531.6 Q217.715 1538.71 219.521 1542.27 Q221.349 1545.82 224.96 1545.82 Q228.595 1545.82 230.4 1542.27 Q232.229 1538.71 232.229 1531.6 Q232.229 1524.47 230.4 1520.93 Q228.595 1517.37 224.96 1517.37 M224.96 1513.66 Q230.77 1513.66 233.826 1518.27 Q236.905 1522.85 236.905 1531.6 Q236.905 1540.33 233.826 1544.94 Q230.77 1549.52 224.96 1549.52 Q219.15 1549.52 216.071 1544.94 Q213.016 1540.33 213.016 1531.6 Q213.016 1522.85 216.071 1518.27 Q219.15 1513.66 224.96 1513.66 Z" fill="#000000" fill-rule="nonzero" fill-opacity="1" /><path clip-path="url(#clip060)" d="M255.122 1517.37 Q251.511 1517.37 249.682 1520.93 Q247.877 1524.47 247.877 1531.6 Q247.877 1538.71 249.682 1542.27 Q251.511 1545.82 255.122 1545.82 Q258.756 1545.82 260.562 1542.27 Q262.391 1538.71 262.391 1531.6 Q262.391 1524.47 260.562 1520.93 Q258.756 1517.37 255.122 1517.37 M255.122 1513.66 Q260.932 1513.66 263.988 1518.27 Q267.067 1522.85 267.067 1531.6 Q267.067 1540.33 263.988 1544.94 Q260.932 1549.52 255.122 1549.52 Q249.312 1549.52 246.233 1544.94 Q243.178 1540.33 243.178 1531.6 Q243.178 1522.85 246.233 1518.27 Q249.312 1513.66 255.122 1513.66 Z" fill="#000000" fill-rule="nonzero" fill-opacity="1" /><path clip-path="url(#clip060)" d="M285.284 1517.37 Q281.673 1517.37 279.844 1520.93 Q278.039 1524.47 278.039 1531.6 Q278.039 1538.71 279.844 1542.27 Q281.673 1545.82 285.284 1545.82 Q288.918 1545.82 290.724 1542.27 Q292.553 1538.71 292.553 1531.6 Q292.553 1524.47 290.724 1520.93 Q288.918 1517.37 285.284 1517.37 M285.284 1513.66 Q291.094 1513.66 294.15 1518.27 Q297.228 1522.85 297.228 1531.6 Q297.228 1540.33 294.15 1544.94 Q291.094 1549.52 285.284 1549.52 Q279.474 1549.52 276.395 1544.94 Q273.34 1540.33 273.34 1531.6 Q273.34 1522.85 276.395 1518.27 Q279.474 1513.66 285.284 1513.66 Z" fill="#000000" fill-rule="nonzero" fill-opacity="1" /><path clip-path="url(#clip060)" d="M315.446 1517.37 Q311.835 1517.37 310.006 1520.93 Q308.201 1524.47 308.201 1531.6 Q308.201 1538.71 310.006 1542.27 Q311.835 1545.82 315.446 1545.82 Q319.08 1545.82 320.886 1542.27 Q322.714 1538.71 322.714 1531.6 Q322.714 1524.47 320.886 1520.93 Q319.08 1517.37 315.446 1517.37 M315.446 1513.66 Q321.256 1513.66 324.312 1518.27 Q327.39 1522.85 327.39 1531.6 Q327.39 1540.33 324.312 1544.94 Q321.256 1549.52 315.446 1549.52 Q309.636 1549.52 306.557 1544.94 Q303.502 1540.33 303.502 1531.6 Q303.502 1522.85 306.557 1518.27 Q309.636 1513.66 315.446 1513.66 Z" fill="#000000" fill-rule="nonzero" fill-opacity="1" /><path clip-path="url(#clip060)" d="M691.19 1517.37 Q687.579 1517.37 685.75 1520.93 Q683.945 1524.47 683.945 1531.6 Q683.945 1538.71 685.75 1542.27 Q687.579 1545.82 691.19 1545.82 Q694.824 1545.82 696.63 1542.27 Q698.458 1538.71 698.458 1531.6 Q698.458 1524.47 696.63 1520.93 Q694.824 1517.37 691.19 1517.37 M691.19 1513.66 Q697 1513.66 700.056 1518.27 Q703.134 1522.85 703.134 1531.6 Q703.134 1540.33 700.056 1544.94 Q697 1549.52 691.19 1549.52 Q685.38 1549.52 682.301 1544.94 Q679.246 1540.33 679.246 1531.6 Q679.246 1522.85 682.301 1518.27 Q685.38 1513.66 691.19 1513.66 Z" fill="#000000" fill-rule="nonzero" fill-opacity="1" /><path clip-path="url(#clip060)" d="M711.352 1542.97 L716.236 1542.97 L716.236 1548.85 L711.352 1548.85 L711.352 1542.97 Z" fill="#000000" fill-rule="nonzero" fill-opacity="1" /><path clip-path="url(#clip060)" d="M736.421 1517.37 Q732.81 1517.37 730.981 1520.93 Q729.176 1524.47 729.176 1531.6 Q729.176 1538.71 730.981 1542.27 Q732.81 1545.82 736.421 1545.82 Q740.055 1545.82 741.861 1542.27 Q743.69 1538.71 743.69 1531.6 Q743.69 1524.47 741.861 1520.93 Q740.055 1517.37 736.421 1517.37 M736.421 1513.66 Q742.231 1513.66 745.287 1518.27 Q748.366 1522.85 748.366 1531.6 Q748.366 1540.33 745.287 1544.94 Q742.231 1549.52 736.421 1549.52 Q730.611 1549.52 727.532 1544.94 Q724.477 1540.33 724.477 1531.6 Q724.477 1522.85 727.532 1518.27 Q730.611 1513.66 736.421 1513.66 Z" fill="#000000" fill-rule="nonzero" fill-opacity="1" /><path clip-path="url(#clip060)" d="M766.583 1517.37 Q762.972 1517.37 761.143 1520.93 Q759.338 1524.47 759.338 1531.6 Q759.338 1538.71 761.143 1542.27 Q762.972 1545.82 766.583 1545.82 Q770.217 1545.82 772.023 1542.27 Q773.852 1538.71 773.852 1531.6 Q773.852 1524.47 772.023 1520.93 Q770.217 1517.37 766.583 1517.37 M766.583 1513.66 Q772.393 1513.66 775.449 1518.27 Q778.527 1522.85 778.527 1531.6 Q778.527 1540.33 775.449 1544.94 Q772.393 1549.52 766.583 1549.52 Q760.773 1549.52 757.694 1544.94 Q754.639 1540.33 754.639 1531.6 Q754.639 1522.85 757.694 1518.27 Q760.773 1513.66 766.583 1513.66 Z" fill="#000000" fill-rule="nonzero" fill-opacity="1" /><path clip-path="url(#clip060)" d="M790.773 1544.91 L807.092 1544.91 L807.092 1548.85 L785.148 1548.85 L785.148 1544.91 Q787.81 1542.16 792.393 1537.53 Q797 1532.88 798.18 1531.53 Q800.425 1529.01 801.305 1527.27 Q802.208 1525.51 802.208 1523.82 Q802.208 1521.07 800.263 1519.33 Q798.342 1517.6 795.24 1517.6 Q793.041 1517.6 790.588 1518.36 Q788.157 1519.13 785.379 1520.68 L785.379 1515.95 Q788.203 1514.82 790.657 1514.24 Q793.111 1513.66 795.148 1513.66 Q800.518 1513.66 803.713 1516.35 Q806.907 1519.03 806.907 1523.52 Q806.907 1525.65 806.097 1527.57 Q805.31 1529.47 803.203 1532.07 Q802.625 1532.74 799.523 1535.95 Q796.421 1539.15 790.773 1544.91 Z" fill="#000000" fill-rule="nonzero" fill-opacity="1" /><path clip-path="url(#clip060)" d="M816.953 1514.29 L835.31 1514.29 L835.31 1518.22 L821.236 1518.22 L821.236 1526.7 Q822.254 1526.35 823.273 1526.19 Q824.291 1526 825.31 1526 Q831.097 1526 834.476 1529.17 Q837.856 1532.34 837.856 1537.76 Q837.856 1543.34 834.384 1546.44 Q830.911 1549.52 824.592 1549.52 Q822.416 1549.52 820.148 1549.15 Q817.902 1548.78 815.495 1548.04 L815.495 1543.34 Q817.578 1544.47 819.8 1545.03 Q822.023 1545.58 824.499 1545.58 Q828.504 1545.58 830.842 1543.48 Q833.18 1541.37 833.18 1537.76 Q833.18 1534.15 830.842 1532.04 Q828.504 1529.94 824.499 1529.94 Q822.624 1529.94 820.749 1530.35 Q818.898 1530.77 816.953 1531.65 L816.953 1514.29 Z" fill="#000000" fill-rule="nonzero" fill-opacity="1" /><path clip-path="url(#clip060)" d="M1201.66 1517.37 Q1198.04 1517.37 1196.22 1520.93 Q1194.41 1524.47 1194.41 1531.6 Q1194.41 1538.71 1196.22 1542.27 Q1198.04 1545.82 1201.66 1545.82 Q1205.29 1545.82 1207.1 1542.27 Q1208.92 1538.71 1208.92 1531.6 Q1208.92 1524.47 1207.1 1520.93 Q1205.29 1517.37 1201.66 1517.37 M1201.66 1513.66 Q1207.47 1513.66 1210.52 1518.27 Q1213.6 1522.85 1213.6 1531.6 Q1213.6 1540.33 1210.52 1544.94 Q1207.47 1549.52 1201.66 1549.52 Q1195.85 1549.52 1192.77 1544.94 Q1189.71 1540.33 1189.71 1531.6 Q1189.71 1522.85 1192.77 1518.27 Q1195.85 1513.66 1201.66 1513.66 Z" fill="#000000" fill-rule="nonzero" fill-opacity="1" /><path clip-path="url(#clip060)" d="M1221.82 1542.97 L1226.7 1542.97 L1226.7 1548.85 L1221.82 1548.85 L1221.82 1542.97 Z" fill="#000000" fill-rule="nonzero" fill-opacity="1" /><path clip-path="url(#clip060)" d="M1246.89 1517.37 Q1243.28 1517.37 1241.45 1520.93 Q1239.64 1524.47 1239.64 1531.6 Q1239.64 1538.71 1241.45 1542.27 Q1243.28 1545.82 1246.89 1545.82 Q1250.52 1545.82 1252.33 1542.27 Q1254.16 1538.71 1254.16 1531.6 Q1254.16 1524.47 1252.33 1520.93 Q1250.52 1517.37 1246.89 1517.37 M1246.89 1513.66 Q1252.7 1513.66 1255.75 1518.27 Q1258.83 1522.85 1258.83 1531.6 Q1258.83 1540.33 1255.75 1544.94 Q1252.7 1549.52 1246.89 1549.52 Q1241.08 1549.52 1238 1544.94 Q1234.94 1540.33 1234.94 1531.6 Q1234.94 1522.85 1238 1518.27 Q1241.08 1513.66 1246.89 1513.66 Z" fill="#000000" fill-rule="nonzero" fill-opacity="1" /><path clip-path="url(#clip060)" d="M1277.05 1517.37 Q1273.44 1517.37 1271.61 1520.93 Q1269.8 1524.47 1269.8 1531.6 Q1269.8 1538.71 1271.61 1542.27 Q1273.44 1545.82 1277.05 1545.82 Q1280.68 1545.82 1282.49 1542.27 Q1284.32 1538.71 1284.32 1531.6 Q1284.32 1524.47 1282.49 1520.93 Q1280.68 1517.37 1277.05 1517.37 M1277.05 1513.66 Q1282.86 1513.66 1285.91 1518.27 Q1288.99 1522.85 1288.99 1531.6 Q1288.99 1540.33 1285.91 1544.94 Q1282.86 1549.52 1277.05 1549.52 Q1271.24 1549.52 1268.16 1544.94 Q1265.1 1540.33 1265.1 1531.6 Q1265.1 1522.85 1268.16 1518.27 Q1271.24 1513.66 1277.05 1513.66 Z" fill="#000000" fill-rule="nonzero" fill-opacity="1" /><path clip-path="url(#clip060)" d="M1297.26 1514.29 L1315.61 1514.29 L1315.61 1518.22 L1301.54 1518.22 L1301.54 1526.7 Q1302.56 1526.35 1303.58 1526.19 Q1304.59 1526 1305.61 1526 Q1311.4 1526 1314.78 1529.17 Q1318.16 1532.34 1318.16 1537.76 Q1318.16 1543.34 1314.69 1546.44 Q1311.22 1549.52 1304.9 1549.52 Q1302.72 1549.52 1300.45 1549.15 Q1298.21 1548.78 1295.8 1548.04 L1295.8 1543.34 Q1297.88 1544.47 1300.1 1545.03 Q1302.33 1545.58 1304.8 1545.58 Q1308.81 1545.58 1311.15 1543.48 Q1313.48 1541.37 1313.48 1537.76 Q1313.48 1534.15 1311.15 1532.04 Q1308.81 1529.94 1304.8 1529.94 Q1302.93 1529.94 1301.05 1530.35 Q1299.2 1530.77 1297.26 1531.65 L1297.26 1514.29 Z" fill="#000000" fill-rule="nonzero" fill-opacity="1" /><path clip-path="url(#clip060)" d="M1337.37 1517.37 Q1333.76 1517.37 1331.93 1520.93 Q1330.13 1524.47 1330.13 1531.6 Q1330.13 1538.71 1331.93 1542.27 Q1333.76 1545.82 1337.37 1545.82 Q1341.01 1545.82 1342.81 1542.27 Q1344.64 1538.71 1344.64 1531.6 Q1344.64 1524.47 1342.81 1520.93 Q1341.01 1517.37 1337.37 1517.37 M1337.37 1513.66 Q1343.18 1513.66 1346.24 1518.27 Q1349.32 1522.85 1349.32 1531.6 Q1349.32 1540.33 1346.24 1544.94 Q1343.18 1549.52 1337.37 1549.52 Q1331.56 1549.52 1328.48 1544.94 Q1325.43 1540.33 1325.43 1531.6 Q1325.43 1522.85 1328.48 1518.27 Q1331.56 1513.66 1337.37 1513.66 Z" fill="#000000" fill-rule="nonzero" fill-opacity="1" /><path clip-path="url(#clip060)" d="M1713.12 1517.37 Q1709.51 1517.37 1707.68 1520.93 Q1705.87 1524.47 1705.87 1531.6 Q1705.87 1538.71 1707.68 1542.27 Q1709.51 1545.82 1713.12 1545.82 Q1716.75 1545.82 1718.56 1542.27 Q1720.38 1538.71 1720.38 1531.6 Q1720.38 1524.47 1718.56 1520.93 Q1716.75 1517.37 1713.12 1517.37 M1713.12 1513.66 Q1718.93 1513.66 1721.98 1518.27 Q1725.06 1522.85 1725.06 1531.6 Q1725.06 1540.33 1721.98 1544.94 Q1718.93 1549.52 1713.12 1549.52 Q1707.31 1549.52 1704.23 1544.94 Q1701.17 1540.33 1701.17 1531.6 Q1701.17 1522.85 1704.23 1518.27 Q1707.31 1513.66 1713.12 1513.66 Z" fill="#000000" fill-rule="nonzero" fill-opacity="1" /><path clip-path="url(#clip060)" d="M1733.28 1542.97 L1738.16 1542.97 L1738.16 1548.85 L1733.28 1548.85 L1733.28 1542.97 Z" fill="#000000" fill-rule="nonzero" fill-opacity="1" /><path clip-path="url(#clip060)" d="M1758.35 1517.37 Q1754.74 1517.37 1752.91 1520.93 Q1751.1 1524.47 1751.1 1531.6 Q1751.1 1538.71 1752.91 1542.27 Q1754.74 1545.82 1758.35 1545.82 Q1761.98 1545.82 1763.79 1542.27 Q1765.62 1538.71 1765.62 1531.6 Q1765.62 1524.47 1763.79 1520.93 Q1761.98 1517.37 1758.35 1517.37 M1758.35 1513.66 Q1764.16 1513.66 1767.21 1518.27 Q1770.29 1522.85 1770.29 1531.6 Q1770.29 1540.33 1767.21 1544.94 Q1764.16 1549.52 1758.35 1549.52 Q1752.54 1549.52 1749.46 1544.94 Q1746.4 1540.33 1746.4 1531.6 Q1746.4 1522.85 1749.46 1518.27 Q1752.54 1513.66 1758.35 1513.66 Z" fill="#000000" fill-rule="nonzero" fill-opacity="1" /><path clip-path="url(#clip060)" d="M1788.51 1517.37 Q1784.9 1517.37 1783.07 1520.93 Q1781.26 1524.47 1781.26 1531.6 Q1781.26 1538.71 1783.07 1542.27 Q1784.9 1545.82 1788.51 1545.82 Q1792.14 1545.82 1793.95 1542.27 Q1795.78 1538.71 1795.78 1531.6 Q1795.78 1524.47 1793.95 1520.93 Q1792.14 1517.37 1788.51 1517.37 M1788.51 1513.66 Q1794.32 1513.66 1797.38 1518.27 Q1800.45 1522.85 1800.45 1531.6 Q1800.45 1540.33 1797.38 1544.94 Q1794.32 1549.52 1788.51 1549.52 Q1782.7 1549.52 1779.62 1544.94 Q1776.57 1540.33 1776.57 1531.6 Q1776.57 1522.85 1779.62 1518.27 Q1782.7 1513.66 1788.51 1513.66 Z" fill="#000000" fill-rule="nonzero" fill-opacity="1" /><path clip-path="url(#clip060)" d="M1807.49 1514.29 L1829.71 1514.29 L1829.71 1516.28 L1817.17 1548.85 L1812.28 1548.85 L1824.09 1518.22 L1807.49 1518.22 L1807.49 1514.29 Z" fill="#000000" fill-rule="nonzero" fill-opacity="1" /><path clip-path="url(#clip060)" d="M1838.88 1514.29 L1857.24 1514.29 L1857.24 1518.22 L1843.16 1518.22 L1843.16 1526.7 Q1844.18 1526.35 1845.2 1526.19 Q1846.22 1526 1847.24 1526 Q1853.02 1526 1856.4 1529.17 Q1859.78 1532.34 1859.78 1537.76 Q1859.78 1543.34 1856.31 1546.44 Q1852.84 1549.52 1846.52 1549.52 Q1844.34 1549.52 1842.07 1549.15 Q1839.83 1548.78 1837.42 1548.04 L1837.42 1543.34 Q1839.5 1544.47 1841.73 1545.03 Q1843.95 1545.58 1846.43 1545.58 Q1850.43 1545.58 1852.77 1543.48 Q1855.11 1541.37 1855.11 1537.76 Q1855.11 1534.15 1852.77 1532.04 Q1850.43 1529.94 1846.43 1529.94 Q1844.55 1529.94 1842.68 1530.35 Q1840.82 1530.77 1838.88 1531.65 L1838.88 1514.29 Z" fill="#000000" fill-rule="nonzero" fill-opacity="1" /><path clip-path="url(#clip060)" d="M2223.58 1517.37 Q2219.97 1517.37 2218.14 1520.93 Q2216.34 1524.47 2216.34 1531.6 Q2216.34 1538.71 2218.14 1542.27 Q2219.97 1545.82 2223.58 1545.82 Q2227.22 1545.82 2229.02 1542.27 Q2230.85 1538.71 2230.85 1531.6 Q2230.85 1524.47 2229.02 1520.93 Q2227.22 1517.37 2223.58 1517.37 M2223.58 1513.66 Q2229.39 1513.66 2232.45 1518.27 Q2235.53 1522.85 2235.53 1531.6 Q2235.53 1540.33 2232.45 1544.94 Q2229.39 1549.52 2223.58 1549.52 Q2217.77 1549.52 2214.69 1544.94 Q2211.64 1540.33 2211.64 1531.6 Q2211.64 1522.85 2214.69 1518.27 Q2217.77 1513.66 2223.58 1513.66 Z" fill="#000000" fill-rule="nonzero" fill-opacity="1" /><path clip-path="url(#clip060)" d="M2243.74 1542.97 L2248.63 1542.97 L2248.63 1548.85 L2243.74 1548.85 L2243.74 1542.97 Z" fill="#000000" fill-rule="nonzero" fill-opacity="1" /><path clip-path="url(#clip060)" d="M2268.81 1517.37 Q2265.2 1517.37 2263.37 1520.93 Q2261.57 1524.47 2261.57 1531.6 Q2261.57 1538.71 2263.37 1542.27 Q2265.2 1545.82 2268.81 1545.82 Q2272.45 1545.82 2274.25 1542.27 Q2276.08 1538.71 2276.08 1531.6 Q2276.08 1524.47 2274.25 1520.93 Q2272.45 1517.37 2268.81 1517.37 M2268.81 1513.66 Q2274.62 1513.66 2277.68 1518.27 Q2280.76 1522.85 2280.76 1531.6 Q2280.76 1540.33 2277.68 1544.94 Q2274.62 1549.52 2268.81 1549.52 Q2263 1549.52 2259.92 1544.94 Q2256.87 1540.33 2256.87 1531.6 Q2256.87 1522.85 2259.92 1518.27 Q2263 1513.66 2268.81 1513.66 Z" fill="#000000" fill-rule="nonzero" fill-opacity="1" /><path clip-path="url(#clip060)" d="M2289.79 1544.91 L2297.42 1544.91 L2297.42 1518.55 L2289.11 1520.21 L2289.11 1515.95 L2297.38 1514.29 L2302.05 1514.29 L2302.05 1544.91 L2309.69 1544.91 L2309.69 1548.85 L2289.79 1548.85 L2289.79 1544.91 Z" fill="#000000" fill-rule="nonzero" fill-opacity="1" /><path clip-path="url(#clip060)" d="M2329.14 1517.37 Q2325.53 1517.37 2323.7 1520.93 Q2321.89 1524.47 2321.89 1531.6 Q2321.89 1538.71 2323.7 1542.27 Q2325.53 1545.82 2329.14 1545.82 Q2332.77 1545.82 2334.58 1542.27 Q2336.41 1538.71 2336.41 1531.6 Q2336.41 1524.47 2334.58 1520.93 Q2332.77 1517.37 2329.14 1517.37 M2329.14 1513.66 Q2334.95 1513.66 2338 1518.27 Q2341.08 1522.85 2341.08 1531.6 Q2341.08 1540.33 2338 1544.94 Q2334.95 1549.52 2329.14 1549.52 Q2323.33 1549.52 2320.25 1544.94 Q2317.19 1540.33 2317.19 1531.6 Q2317.19 1522.85 2320.25 1518.27 Q2323.33 1513.66 2329.14 1513.66 Z" fill="#000000" fill-rule="nonzero" fill-opacity="1" /><path clip-path="url(#clip060)" d="M2359.3 1517.37 Q2355.69 1517.37 2353.86 1520.93 Q2352.05 1524.47 2352.05 1531.6 Q2352.05 1538.71 2353.86 1542.27 Q2355.69 1545.82 2359.3 1545.82 Q2362.93 1545.82 2364.74 1542.27 Q2366.57 1538.71 2366.57 1531.6 Q2366.57 1524.47 2364.74 1520.93 Q2362.93 1517.37 2359.3 1517.37 M2359.3 1513.66 Q2365.11 1513.66 2368.16 1518.27 Q2371.24 1522.85 2371.24 1531.6 Q2371.24 1540.33 2368.16 1544.94 Q2365.11 1549.52 2359.3 1549.52 Q2353.49 1549.52 2350.41 1544.94 Q2347.35 1540.33 2347.35 1531.6 Q2347.35 1522.85 2350.41 1518.27 Q2353.49 1513.66 2359.3 1513.66 Z" fill="#000000" fill-rule="nonzero" fill-opacity="1" /><polyline clip-path="url(#clip062)" style="stroke:#000000; stroke-linecap:round; stroke-linejoin:round; stroke-width:2; stroke-opacity:0.1; fill:none" points="186.274,1445.72 2352.76,1445.72 "/>
<polyline clip-path="url(#clip062)" style="stroke:#000000; stroke-linecap:round; stroke-linejoin:round; stroke-width:2; stroke-opacity:0.1; fill:none" points="186.274,1106.28 2352.76,1106.28 "/>
<polyline clip-path="url(#clip062)" style="stroke:#000000; stroke-linecap:round; stroke-linejoin:round; stroke-width:2; stroke-opacity:0.1; fill:none" points="186.274,766.846 2352.76,766.846 "/>
<polyline clip-path="url(#clip062)" style="stroke:#000000; stroke-linecap:round; stroke-linejoin:round; stroke-width:2; stroke-opacity:0.1; fill:none" points="186.274,427.411 2352.76,427.411 "/>
<polyline clip-path="url(#clip062)" style="stroke:#000000; stroke-linecap:round; stroke-linejoin:round; stroke-width:2; stroke-opacity:0.1; fill:none" points="186.274,87.9763 2352.76,87.9763 "/>
<polyline clip-path="url(#clip060)" style="stroke:#000000; stroke-linecap:round; stroke-linejoin:round; stroke-width:4; stroke-opacity:1; fill:none" points="186.274,1486.45 186.274,47.2441 "/>
<polyline clip-path="url(#clip060)" style="stroke:#000000; stroke-linecap:round; stroke-linejoin:round; stroke-width:4; stroke-opacity:1; fill:none" points="186.274,1445.72 205.172,1445.72 "/>
<polyline clip-path="url(#clip060)" style="stroke:#000000; stroke-linecap:round; stroke-linejoin:round; stroke-width:4; stroke-opacity:1; fill:none" points="186.274,1106.28 205.172,1106.28 "/>
<polyline clip-path="url(#clip060)" style="stroke:#000000; stroke-linecap:round; stroke-linejoin:round; stroke-width:4; stroke-opacity:1; fill:none" points="186.274,766.846 205.172,766.846 "/>
<polyline clip-path="url(#clip060)" style="stroke:#000000; stroke-linecap:round; stroke-linejoin:round; stroke-width:4; stroke-opacity:1; fill:none" points="186.274,427.411 205.172,427.411 "/>
<polyline clip-path="url(#clip060)" style="stroke:#000000; stroke-linecap:round; stroke-linejoin:round; stroke-width:4; stroke-opacity:1; fill:none" points="186.274,87.9763 205.172,87.9763 "/>
<path clip-path="url(#clip060)" d="M62.9365 1431.51 Q59.3254 1431.51 57.4967 1435.08 Q55.6912 1438.62 55.6912 1445.75 Q55.6912 1452.86 57.4967 1456.42 Q59.3254 1459.96 62.9365 1459.96 Q66.5707 1459.96 68.3763 1456.42 Q70.205 1452.86 70.205 1445.75 Q70.205 1438.62 68.3763 1435.08 Q66.5707 1431.51 62.9365 1431.51 M62.9365 1427.81 Q68.7467 1427.81 71.8022 1432.42 Q74.8809 1437 74.8809 1445.75 Q74.8809 1454.48 71.8022 1459.08 Q68.7467 1463.67 62.9365 1463.67 Q57.1264 1463.67 54.0477 1459.08 Q50.9921 1454.48 50.9921 1445.75 Q50.9921 1437 54.0477 1432.42 Q57.1264 1427.81 62.9365 1427.81 Z" fill="#000000" fill-rule="nonzero" fill-opacity="1" /><path clip-path="url(#clip060)" d="M83.0984 1457.12 L87.9827 1457.12 L87.9827 1463 L83.0984 1463 L83.0984 1457.12 Z" fill="#000000" fill-rule="nonzero" fill-opacity="1" /><path clip-path="url(#clip060)" d="M108.168 1431.51 Q104.557 1431.51 102.728 1435.08 Q100.922 1438.62 100.922 1445.75 Q100.922 1452.86 102.728 1456.42 Q104.557 1459.96 108.168 1459.96 Q111.802 1459.96 113.608 1456.42 Q115.436 1452.86 115.436 1445.75 Q115.436 1438.62 113.608 1435.08 Q111.802 1431.51 108.168 1431.51 M108.168 1427.81 Q113.978 1427.81 117.033 1432.42 Q120.112 1437 120.112 1445.75 Q120.112 1454.48 117.033 1459.08 Q113.978 1463.67 108.168 1463.67 Q102.358 1463.67 99.2789 1459.08 Q96.2234 1454.48 96.2234 1445.75 Q96.2234 1437 99.2789 1432.42 Q102.358 1427.81 108.168 1427.81 Z" fill="#000000" fill-rule="nonzero" fill-opacity="1" /><path clip-path="url(#clip060)" d="M138.33 1431.51 Q134.719 1431.51 132.89 1435.08 Q131.084 1438.62 131.084 1445.75 Q131.084 1452.86 132.89 1456.42 Q134.719 1459.96 138.33 1459.96 Q141.964 1459.96 143.769 1456.42 Q145.598 1452.86 145.598 1445.75 Q145.598 1438.62 143.769 1435.08 Q141.964 1431.51 138.33 1431.51 M138.33 1427.81 Q144.14 1427.81 147.195 1432.42 Q150.274 1437 150.274 1445.75 Q150.274 1454.48 147.195 1459.08 Q144.14 1463.67 138.33 1463.67 Q132.519 1463.67 129.441 1459.08 Q126.385 1454.48 126.385 1445.75 Q126.385 1437 129.441 1432.42 Q132.519 1427.81 138.33 1427.81 Z" fill="#000000" fill-rule="nonzero" fill-opacity="1" /><path clip-path="url(#clip060)" d="M63.9319 1092.08 Q60.3208 1092.08 58.4921 1095.64 Q56.6865 1099.19 56.6865 1106.32 Q56.6865 1113.42 58.4921 1116.99 Q60.3208 1120.53 63.9319 1120.53 Q67.5661 1120.53 69.3717 1116.99 Q71.2004 1113.42 71.2004 1106.32 Q71.2004 1099.19 69.3717 1095.64 Q67.5661 1092.08 63.9319 1092.08 M63.9319 1088.38 Q69.742 1088.38 72.7976 1092.98 Q75.8763 1097.57 75.8763 1106.32 Q75.8763 1115.04 72.7976 1119.65 Q69.742 1124.23 63.9319 1124.23 Q58.1217 1124.23 55.043 1119.65 Q51.9875 1115.04 51.9875 1106.32 Q51.9875 1097.57 55.043 1092.98 Q58.1217 1088.38 63.9319 1088.38 Z" fill="#000000" fill-rule="nonzero" fill-opacity="1" /><path clip-path="url(#clip060)" d="M84.0938 1117.68 L88.978 1117.68 L88.978 1123.56 L84.0938 1123.56 L84.0938 1117.68 Z" fill="#000000" fill-rule="nonzero" fill-opacity="1" /><path clip-path="url(#clip060)" d="M103.191 1119.63 L119.51 1119.63 L119.51 1123.56 L97.566 1123.56 L97.566 1119.63 Q100.228 1116.87 104.811 1112.24 Q109.418 1107.59 110.598 1106.25 Q112.844 1103.72 113.723 1101.99 Q114.626 1100.23 114.626 1098.54 Q114.626 1095.78 112.682 1094.05 Q110.76 1092.31 107.658 1092.31 Q105.459 1092.31 103.006 1093.07 Q100.575 1093.84 97.7974 1095.39 L97.7974 1090.67 Q100.621 1089.53 103.075 1088.95 Q105.529 1088.38 107.566 1088.38 Q112.936 1088.38 116.131 1091.06 Q119.325 1093.75 119.325 1098.24 Q119.325 1100.37 118.515 1102.29 Q117.728 1104.19 115.621 1106.78 Q115.043 1107.45 111.941 1110.67 Q108.839 1113.86 103.191 1119.63 Z" fill="#000000" fill-rule="nonzero" fill-opacity="1" /><path clip-path="url(#clip060)" d="M129.371 1089 L147.728 1089 L147.728 1092.94 L133.654 1092.94 L133.654 1101.41 Q134.672 1101.06 135.691 1100.9 Q136.709 1100.71 137.728 1100.71 Q143.515 1100.71 146.894 1103.89 Q150.274 1107.06 150.274 1112.47 Q150.274 1118.05 146.802 1121.15 Q143.33 1124.23 137.01 1124.23 Q134.834 1124.23 132.566 1123.86 Q130.32 1123.49 127.913 1122.75 L127.913 1118.05 Q129.996 1119.19 132.219 1119.74 Q134.441 1120.3 136.918 1120.3 Q140.922 1120.3 143.26 1118.19 Q145.598 1116.08 145.598 1112.47 Q145.598 1108.86 143.26 1106.76 Q140.922 1104.65 136.918 1104.65 Q135.043 1104.65 133.168 1105.07 Q131.316 1105.48 129.371 1106.36 L129.371 1089 Z" fill="#000000" fill-rule="nonzero" fill-opacity="1" /><path clip-path="url(#clip060)" d="M62.9365 752.645 Q59.3254 752.645 57.4967 756.209 Q55.6912 759.751 55.6912 766.881 Q55.6912 773.987 57.4967 777.552 Q59.3254 781.094 62.9365 781.094 Q66.5707 781.094 68.3763 777.552 Q70.205 773.987 70.205 766.881 Q70.205 759.751 68.3763 756.209 Q66.5707 752.645 62.9365 752.645 M62.9365 748.941 Q68.7467 748.941 71.8022 753.547 Q74.8809 758.131 74.8809 766.881 Q74.8809 775.608 71.8022 780.214 Q68.7467 784.797 62.9365 784.797 Q57.1264 784.797 54.0477 780.214 Q50.9921 775.608 50.9921 766.881 Q50.9921 758.131 54.0477 753.547 Q57.1264 748.941 62.9365 748.941 Z" fill="#000000" fill-rule="nonzero" fill-opacity="1" /><path clip-path="url(#clip060)" d="M83.0984 778.246 L87.9827 778.246 L87.9827 784.126 L83.0984 784.126 L83.0984 778.246 Z" fill="#000000" fill-rule="nonzero" fill-opacity="1" /><path clip-path="url(#clip060)" d="M98.2141 749.566 L116.57 749.566 L116.57 753.501 L102.496 753.501 L102.496 761.973 Q103.515 761.626 104.534 761.464 Q105.552 761.279 106.571 761.279 Q112.358 761.279 115.737 764.45 Q119.117 767.621 119.117 773.038 Q119.117 778.617 115.645 781.719 Q112.172 784.797 105.853 784.797 Q103.677 784.797 101.409 784.427 Q99.1632 784.057 96.7558 783.316 L96.7558 778.617 Q98.8391 779.751 101.061 780.307 Q103.284 780.862 105.76 780.862 Q109.765 780.862 112.103 778.756 Q114.441 776.649 114.441 773.038 Q114.441 769.427 112.103 767.321 Q109.765 765.214 105.76 765.214 Q103.885 765.214 102.01 765.631 Q100.159 766.047 98.2141 766.927 L98.2141 749.566 Z" fill="#000000" fill-rule="nonzero" fill-opacity="1" /><path clip-path="url(#clip060)" d="M138.33 752.645 Q134.719 752.645 132.89 756.209 Q131.084 759.751 131.084 766.881 Q131.084 773.987 132.89 777.552 Q134.719 781.094 138.33 781.094 Q141.964 781.094 143.769 777.552 Q145.598 773.987 145.598 766.881 Q145.598 759.751 143.769 756.209 Q141.964 752.645 138.33 752.645 M138.33 748.941 Q144.14 748.941 147.195 753.547 Q150.274 758.131 150.274 766.881 Q150.274 775.608 147.195 780.214 Q144.14 784.797 138.33 784.797 Q132.519 784.797 129.441 780.214 Q126.385 775.608 126.385 766.881 Q126.385 758.131 129.441 753.547 Q132.519 748.941 138.33 748.941 Z" fill="#000000" fill-rule="nonzero" fill-opacity="1" /><path clip-path="url(#clip060)" d="M63.9319 413.21 Q60.3208 413.21 58.4921 416.775 Q56.6865 420.316 56.6865 427.446 Q56.6865 434.552 58.4921 438.117 Q60.3208 441.659 63.9319 441.659 Q67.5661 441.659 69.3717 438.117 Q71.2004 434.552 71.2004 427.446 Q71.2004 420.316 69.3717 416.775 Q67.5661 413.21 63.9319 413.21 M63.9319 409.506 Q69.742 409.506 72.7976 414.113 Q75.8763 418.696 75.8763 427.446 Q75.8763 436.173 72.7976 440.779 Q69.742 445.362 63.9319 445.362 Q58.1217 445.362 55.043 440.779 Q51.9875 436.173 51.9875 427.446 Q51.9875 418.696 55.043 414.113 Q58.1217 409.506 63.9319 409.506 Z" fill="#000000" fill-rule="nonzero" fill-opacity="1" /><path clip-path="url(#clip060)" d="M84.0938 438.812 L88.978 438.812 L88.978 444.691 L84.0938 444.691 L84.0938 438.812 Z" fill="#000000" fill-rule="nonzero" fill-opacity="1" /><path clip-path="url(#clip060)" d="M97.9826 410.131 L120.205 410.131 L120.205 412.122 L107.658 444.691 L102.774 444.691 L114.58 414.066 L97.9826 414.066 L97.9826 410.131 Z" fill="#000000" fill-rule="nonzero" fill-opacity="1" /><path clip-path="url(#clip060)" d="M129.371 410.131 L147.728 410.131 L147.728 414.066 L133.654 414.066 L133.654 422.538 Q134.672 422.191 135.691 422.029 Q136.709 421.844 137.728 421.844 Q143.515 421.844 146.894 425.015 Q150.274 428.187 150.274 433.603 Q150.274 439.182 146.802 442.284 Q143.33 445.362 137.01 445.362 Q134.834 445.362 132.566 444.992 Q130.32 444.622 127.913 443.881 L127.913 439.182 Q129.996 440.316 132.219 440.872 Q134.441 441.427 136.918 441.427 Q140.922 441.427 143.26 439.321 Q145.598 437.214 145.598 433.603 Q145.598 429.992 143.26 427.886 Q140.922 425.779 136.918 425.779 Q135.043 425.779 133.168 426.196 Q131.316 426.613 129.371 427.492 L129.371 410.131 Z" fill="#000000" fill-rule="nonzero" fill-opacity="1" /><path clip-path="url(#clip060)" d="M53.7467 101.321 L61.3856 101.321 L61.3856 74.9555 L53.0754 76.6222 L53.0754 72.3629 L61.3393 70.6963 L66.0152 70.6963 L66.0152 101.321 L73.654 101.321 L73.654 105.256 L53.7467 105.256 L53.7467 101.321 Z" fill="#000000" fill-rule="nonzero" fill-opacity="1" /><path clip-path="url(#clip060)" d="M83.0984 99.3767 L87.9827 99.3767 L87.9827 105.256 L83.0984 105.256 L83.0984 99.3767 Z" fill="#000000" fill-rule="nonzero" fill-opacity="1" /><path clip-path="url(#clip060)" d="M108.168 73.775 Q104.557 73.775 102.728 77.3398 Q100.922 80.8814 100.922 88.011 Q100.922 95.1174 102.728 98.6822 Q104.557 102.224 108.168 102.224 Q111.802 102.224 113.608 98.6822 Q115.436 95.1174 115.436 88.011 Q115.436 80.8814 113.608 77.3398 Q111.802 73.775 108.168 73.775 M108.168 70.0713 Q113.978 70.0713 117.033 74.6777 Q120.112 79.261 120.112 88.011 Q120.112 96.7378 117.033 101.344 Q113.978 105.928 108.168 105.928 Q102.358 105.928 99.2789 101.344 Q96.2234 96.7378 96.2234 88.011 Q96.2234 79.261 99.2789 74.6777 Q102.358 70.0713 108.168 70.0713 Z" fill="#000000" fill-rule="nonzero" fill-opacity="1" /><path clip-path="url(#clip060)" d="M138.33 73.775 Q134.719 73.775 132.89 77.3398 Q131.084 80.8814 131.084 88.011 Q131.084 95.1174 132.89 98.6822 Q134.719 102.224 138.33 102.224 Q141.964 102.224 143.769 98.6822 Q145.598 95.1174 145.598 88.011 Q145.598 80.8814 143.769 77.3398 Q141.964 73.775 138.33 73.775 M138.33 70.0713 Q144.14 70.0713 147.195 74.6777 Q150.274 79.261 150.274 88.011 Q150.274 96.7378 147.195 101.344 Q144.14 105.928 138.33 105.928 Q132.519 105.928 129.441 101.344 Q126.385 96.7378 126.385 88.011 Q126.385 79.261 129.441 74.6777 Q132.519 70.0713 138.33 70.0713 Z" fill="#000000" fill-rule="nonzero" fill-opacity="1" /><path clip-path="url(#clip062)" d="M2249.73 1445.72 L2249.73 87.9763 L2291.44 87.9763 L2291.44 1445.72 L2291.44 1445.72 L2291.44 1445.72 L2249.73 1445.72 L2249.73 1445.72  Z" fill="#191970" fill-rule="evenodd" fill-opacity="1"/>
<polyline clip-path="url(#clip062)" style="stroke:#000000; stroke-linecap:round; stroke-linejoin:round; stroke-width:4; stroke-opacity:1; fill:none" points="2249.73,1445.72 2249.73,87.9763 2291.44,87.9763 2291.44,1445.72 "/>
<path clip-path="url(#clip062)" d="M1874.33 1445.72 L1874.33 87.9763 L1916.04 87.9763 L1916.04 1445.72 L1916.04 1445.72 L1916.04 1445.72 L1874.33 1445.72 L1874.33 1445.72  Z" fill="#191970" fill-rule="evenodd" fill-opacity="1"/>
<polyline clip-path="url(#clip062)" style="stroke:#000000; stroke-linecap:round; stroke-linejoin:round; stroke-width:4; stroke-opacity:1; fill:none" points="1874.33,1445.72 1874.33,87.9763 1916.04,87.9763 1916.04,1445.72 "/>
<path clip-path="url(#clip062)" d="M2208.02 1445.72 L2208.02 87.9763 L2249.73 87.9763 L2249.73 1445.72 L2249.73 1445.72 L2249.73 1445.72 L2208.02 1445.72 L2208.02 1445.72  Z" fill="#191970" fill-rule="evenodd" fill-opacity="1"/>
<polyline clip-path="url(#clip062)" style="stroke:#000000; stroke-linecap:round; stroke-linejoin:round; stroke-width:4; stroke-opacity:1; fill:none" points="2208.02,1445.72 2208.02,87.9763 2249.73,87.9763 2249.73,1445.72 "/>
<path clip-path="url(#clip062)" d="M414.434 1445.72 L414.434 87.9763 L456.146 87.9763 L456.146 1445.72 L456.146 1445.72 L456.146 1445.72 L414.434 1445.72 L414.434 1445.72  Z" fill="#191970" fill-rule="evenodd" fill-opacity="1"/>
<polyline clip-path="url(#clip062)" style="stroke:#000000; stroke-linecap:round; stroke-linejoin:round; stroke-width:4; stroke-opacity:1; fill:none" points="414.434,1445.72 414.434,87.9763 456.146,87.9763 456.146,1445.72 "/>
<path clip-path="url(#clip062)" d="M1081.81 1445.72 L1081.81 87.9763 L1123.53 87.9763 L1123.53 1445.72 L1123.53 1445.72 L1123.53 1445.72 L1081.81 1445.72 L1081.81 1445.72  Z" fill="#191970" fill-rule="evenodd" fill-opacity="1"/>
<polyline clip-path="url(#clip062)" style="stroke:#000000; stroke-linecap:round; stroke-linejoin:round; stroke-width:4; stroke-opacity:1; fill:none" points="1081.81,1445.72 1081.81,87.9763 1123.53,87.9763 1123.53,1445.72 "/>
<path clip-path="url(#clip062)" d="M1999.46 1445.72 L1999.46 87.9763 L2041.17 87.9763 L2041.17 1445.72 L2041.17 1445.72 L2041.17 1445.72 L1999.46 1445.72 L1999.46 1445.72  Z" fill="#191970" fill-rule="evenodd" fill-opacity="1"/>
<polyline clip-path="url(#clip062)" style="stroke:#000000; stroke-linecap:round; stroke-linejoin:round; stroke-width:4; stroke-opacity:1; fill:none" points="1999.46,1445.72 1999.46,87.9763 2041.17,87.9763 2041.17,1445.72 "/>
<path clip-path="url(#clip062)" d="M1916.04 1445.72 L1916.04 87.9763 L1957.75 87.9763 L1957.75 1445.72 L1957.75 1445.72 L1957.75 1445.72 L1916.04 1445.72 L1916.04 1445.72  Z" fill="#191970" fill-rule="evenodd" fill-opacity="1"/>
<polyline clip-path="url(#clip062)" style="stroke:#000000; stroke-linecap:round; stroke-linejoin:round; stroke-width:4; stroke-opacity:1; fill:none" points="1916.04,1445.72 1916.04,87.9763 1957.75,87.9763 1957.75,1445.72 "/>
<path clip-path="url(#clip062)" d="M2041.17 1445.72 L2041.17 87.9763 L2082.88 87.9763 L2082.88 1445.72 L2082.88 1445.72 L2082.88 1445.72 L2041.17 1445.72 L2041.17 1445.72  Z" fill="#191970" fill-rule="evenodd" fill-opacity="1"/>
<polyline clip-path="url(#clip062)" style="stroke:#000000; stroke-linecap:round; stroke-linejoin:round; stroke-width:4; stroke-opacity:1; fill:none" points="2041.17,1445.72 2041.17,87.9763 2082.88,87.9763 2082.88,1445.72 "/>
<path clip-path="url(#clip062)" d="M1457.22 1445.72 L1457.22 87.9763 L1498.93 87.9763 L1498.93 1445.72 L1498.93 1445.72 L1498.93 1445.72 L1457.22 1445.72 L1457.22 1445.72  Z" fill="#191970" fill-rule="evenodd" fill-opacity="1"/>
<polyline clip-path="url(#clip062)" style="stroke:#000000; stroke-linecap:round; stroke-linejoin:round; stroke-width:4; stroke-opacity:1; fill:none" points="1457.22,1445.72 1457.22,87.9763 1498.93,87.9763 1498.93,1445.72 "/>
<path clip-path="url(#clip062)" d="M372.723 1445.72 L372.723 87.9763 L414.434 87.9763 L414.434 1445.72 L414.434 1445.72 L414.434 1445.72 L372.723 1445.72 L372.723 1445.72  Z" fill="#191970" fill-rule="evenodd" fill-opacity="1"/>
<polyline clip-path="url(#clip062)" style="stroke:#000000; stroke-linecap:round; stroke-linejoin:round; stroke-width:4; stroke-opacity:1; fill:none" points="372.723,1445.72 372.723,87.9763 414.434,87.9763 414.434,1445.72 "/>
<path clip-path="url(#clip062)" d="M831.547 1445.72 L831.547 87.9763 L873.258 87.9763 L873.258 1445.72 L873.258 1445.72 L873.258 1445.72 L831.547 1445.72 L831.547 1445.72  Z" fill="#191970" fill-rule="evenodd" fill-opacity="1"/>
<polyline clip-path="url(#clip062)" style="stroke:#000000; stroke-linecap:round; stroke-linejoin:round; stroke-width:4; stroke-opacity:1; fill:none" points="831.547,1445.72 831.547,87.9763 873.258,87.9763 873.258,1445.72 "/>
<path clip-path="url(#clip062)" d="M289.301 1445.72 L289.301 87.9763 L331.012 87.9763 L331.012 1445.72 L331.012 1445.72 L331.012 1445.72 L289.301 1445.72 L289.301 1445.72  Z" fill="#191970" fill-rule="evenodd" fill-opacity="1"/>
<polyline clip-path="url(#clip062)" style="stroke:#000000; stroke-linecap:round; stroke-linejoin:round; stroke-width:4; stroke-opacity:1; fill:none" points="289.301,1445.72 289.301,87.9763 331.012,87.9763 331.012,1445.72 "/>
<path clip-path="url(#clip062)" d="M998.392 1445.72 L998.392 87.9763 L1040.1 87.9763 L1040.1 1445.72 L1040.1 1445.72 L1040.1 1445.72 L998.392 1445.72 L998.392 1445.72  Z" fill="#191970" fill-rule="evenodd" fill-opacity="1"/>
<polyline clip-path="url(#clip062)" style="stroke:#000000; stroke-linecap:round; stroke-linejoin:round; stroke-width:4; stroke-opacity:1; fill:none" points="998.392,1445.72 998.392,87.9763 1040.1,87.9763 1040.1,1445.72 "/>
<path clip-path="url(#clip062)" d="M664.702 1445.72 L664.702 87.9763 L706.413 87.9763 L706.413 1445.72 L706.413 1445.72 L706.413 1445.72 L664.702 1445.72 L664.702 1445.72  Z" fill="#191970" fill-rule="evenodd" fill-opacity="1"/>
<polyline clip-path="url(#clip062)" style="stroke:#000000; stroke-linecap:round; stroke-linejoin:round; stroke-width:4; stroke-opacity:1; fill:none" points="664.702,1445.72 664.702,87.9763 706.413,87.9763 706.413,1445.72 "/>
<path clip-path="url(#clip062)" d="M1040.1 1445.72 L1040.1 87.9763 L1081.81 87.9763 L1081.81 1445.72 L1081.81 1445.72 L1081.81 1445.72 L1040.1 1445.72 L1040.1 1445.72  Z" fill="#191970" fill-rule="evenodd" fill-opacity="1"/>
<polyline clip-path="url(#clip062)" style="stroke:#000000; stroke-linecap:round; stroke-linejoin:round; stroke-width:4; stroke-opacity:1; fill:none" points="1040.1,1445.72 1040.1,87.9763 1081.81,87.9763 1081.81,1445.72 "/>
<path clip-path="url(#clip062)" d="M331.012 1445.72 L331.012 87.9763 L372.723 87.9763 L372.723 1445.72 L372.723 1445.72 L372.723 1445.72 L331.012 1445.72 L331.012 1445.72  Z" fill="#191970" fill-rule="evenodd" fill-opacity="1"/>
<polyline clip-path="url(#clip062)" style="stroke:#000000; stroke-linecap:round; stroke-linejoin:round; stroke-width:4; stroke-opacity:1; fill:none" points="331.012,1445.72 331.012,87.9763 372.723,87.9763 372.723,1445.72 "/>
<path clip-path="url(#clip062)" d="M1123.53 1445.72 L1123.53 87.9763 L1165.24 87.9763 L1165.24 1445.72 L1165.24 1445.72 L1165.24 1445.72 L1123.53 1445.72 L1123.53 1445.72  Z" fill="#191970" fill-rule="evenodd" fill-opacity="1"/>
<polyline clip-path="url(#clip062)" style="stroke:#000000; stroke-linecap:round; stroke-linejoin:round; stroke-width:4; stroke-opacity:1; fill:none" points="1123.53,1445.72 1123.53,87.9763 1165.24,87.9763 1165.24,1445.72 "/>
<path clip-path="url(#clip062)" d="M1707.48 1445.72 L1707.48 87.9763 L1749.19 87.9763 L1749.19 1445.72 L1749.19 1445.72 L1749.19 1445.72 L1707.48 1445.72 L1707.48 1445.72  Z" fill="#191970" fill-rule="evenodd" fill-opacity="1"/>
<polyline clip-path="url(#clip062)" style="stroke:#000000; stroke-linecap:round; stroke-linejoin:round; stroke-width:4; stroke-opacity:1; fill:none" points="1707.48,1445.72 1707.48,87.9763 1749.19,87.9763 1749.19,1445.72 "/>
<path clip-path="url(#clip062)" d="M1957.75 1445.72 L1957.75 87.9763 L1999.46 87.9763 L1999.46 1445.72 L1999.46 1445.72 L1999.46 1445.72 L1957.75 1445.72 L1957.75 1445.72  Z" fill="#191970" fill-rule="evenodd" fill-opacity="1"/>
<polyline clip-path="url(#clip062)" style="stroke:#000000; stroke-linecap:round; stroke-linejoin:round; stroke-width:4; stroke-opacity:1; fill:none" points="1957.75,1445.72 1957.75,87.9763 1999.46,87.9763 1999.46,1445.72 "/>
<path clip-path="url(#clip062)" d="M1498.93 1445.72 L1498.93 87.9763 L1540.64 87.9763 L1540.64 1445.72 L1540.64 1445.72 L1540.64 1445.72 L1498.93 1445.72 L1498.93 1445.72  Z" fill="#191970" fill-rule="evenodd" fill-opacity="1"/>
<polyline clip-path="url(#clip062)" style="stroke:#000000; stroke-linecap:round; stroke-linejoin:round; stroke-width:4; stroke-opacity:1; fill:none" points="1498.93,1445.72 1498.93,87.9763 1540.64,87.9763 1540.64,1445.72 "/>
<path clip-path="url(#clip062)" d="M706.413 1445.72 L706.413 87.9763 L748.124 87.9763 L748.124 1445.72 L748.124 1445.72 L748.124 1445.72 L706.413 1445.72 L706.413 1445.72  Z" fill="#191970" fill-rule="evenodd" fill-opacity="1"/>
<polyline clip-path="url(#clip062)" style="stroke:#000000; stroke-linecap:round; stroke-linejoin:round; stroke-width:4; stroke-opacity:1; fill:none" points="706.413,1445.72 706.413,87.9763 748.124,87.9763 748.124,1445.72 "/>
<path clip-path="url(#clip062)" d="M873.258 1445.72 L873.258 87.9763 L914.969 87.9763 L914.969 1445.72 L914.969 1445.72 L914.969 1445.72 L873.258 1445.72 L873.258 1445.72  Z" fill="#191970" fill-rule="evenodd" fill-opacity="1"/>
<polyline clip-path="url(#clip062)" style="stroke:#000000; stroke-linecap:round; stroke-linejoin:round; stroke-width:4; stroke-opacity:1; fill:none" points="873.258,1445.72 873.258,87.9763 914.969,87.9763 914.969,1445.72 "/>
<path clip-path="url(#clip062)" d="M1582.35 1445.72 L1582.35 87.9763 L1624.06 87.9763 L1624.06 1445.72 L1624.06 1445.72 L1624.06 1445.72 L1582.35 1445.72 L1582.35 1445.72  Z" fill="#191970" fill-rule="evenodd" fill-opacity="1"/>
<polyline clip-path="url(#clip062)" style="stroke:#000000; stroke-linecap:round; stroke-linejoin:round; stroke-width:4; stroke-opacity:1; fill:none" points="1582.35,1445.72 1582.35,87.9763 1624.06,87.9763 1624.06,1445.72 "/>
<path clip-path="url(#clip062)" d="M581.279 1445.72 L581.279 87.9763 L622.991 87.9763 L622.991 1445.72 L622.991 1445.72 L622.991 1445.72 L581.279 1445.72 L581.279 1445.72  Z" fill="#191970" fill-rule="evenodd" fill-opacity="1"/>
<polyline clip-path="url(#clip062)" style="stroke:#000000; stroke-linecap:round; stroke-linejoin:round; stroke-width:4; stroke-opacity:1; fill:none" points="581.279,1445.72 581.279,87.9763 622.991,87.9763 622.991,1445.72 "/>
<path clip-path="url(#clip062)" d="M1665.77 1445.72 L1665.77 87.9763 L1707.48 87.9763 L1707.48 1445.72 L1707.48 1445.72 L1707.48 1445.72 L1665.77 1445.72 L1665.77 1445.72  Z" fill="#191970" fill-rule="evenodd" fill-opacity="1"/>
<polyline clip-path="url(#clip062)" style="stroke:#000000; stroke-linecap:round; stroke-linejoin:round; stroke-width:4; stroke-opacity:1; fill:none" points="1665.77,1445.72 1665.77,87.9763 1707.48,87.9763 1707.48,1445.72 "/>
<path clip-path="url(#clip062)" d="M2082.88 1445.72 L2082.88 87.9763 L2124.6 87.9763 L2124.6 1445.72 L2124.6 1445.72 L2124.6 1445.72 L2082.88 1445.72 L2082.88 1445.72  Z" fill="#191970" fill-rule="evenodd" fill-opacity="1"/>
<polyline clip-path="url(#clip062)" style="stroke:#000000; stroke-linecap:round; stroke-linejoin:round; stroke-width:4; stroke-opacity:1; fill:none" points="2082.88,1445.72 2082.88,87.9763 2124.6,87.9763 2124.6,1445.72 "/>
<path clip-path="url(#clip062)" d="M1790.91 1445.72 L1790.91 87.9763 L1832.62 87.9763 L1832.62 1445.72 L1832.62 1445.72 L1832.62 1445.72 L1790.91 1445.72 L1790.91 1445.72  Z" fill="#191970" fill-rule="evenodd" fill-opacity="1"/>
<polyline clip-path="url(#clip062)" style="stroke:#000000; stroke-linecap:round; stroke-linejoin:round; stroke-width:4; stroke-opacity:1; fill:none" points="1790.91,1445.72 1790.91,87.9763 1832.62,87.9763 1832.62,1445.72 "/>
<path clip-path="url(#clip062)" d="M1415.5 1445.72 L1415.5 87.9763 L1457.22 87.9763 L1457.22 1445.72 L1457.22 1445.72 L1457.22 1445.72 L1415.5 1445.72 L1415.5 1445.72  Z" fill="#191970" fill-rule="evenodd" fill-opacity="1"/>
<polyline clip-path="url(#clip062)" style="stroke:#000000; stroke-linecap:round; stroke-linejoin:round; stroke-width:4; stroke-opacity:1; fill:none" points="1415.5,1445.72 1415.5,87.9763 1457.22,87.9763 1457.22,1445.72 "/>
<path clip-path="url(#clip062)" d="M539.568 1445.72 L539.568 87.9763 L581.279 87.9763 L581.279 1445.72 L581.279 1445.72 L581.279 1445.72 L539.568 1445.72 L539.568 1445.72  Z" fill="#191970" fill-rule="evenodd" fill-opacity="1"/>
<polyline clip-path="url(#clip062)" style="stroke:#000000; stroke-linecap:round; stroke-linejoin:round; stroke-width:4; stroke-opacity:1; fill:none" points="539.568,1445.72 539.568,87.9763 581.279,87.9763 581.279,1445.72 "/>
<path clip-path="url(#clip062)" d="M914.969 1445.72 L914.969 87.9763 L956.681 87.9763 L956.681 1445.72 L956.681 1445.72 L956.681 1445.72 L914.969 1445.72 L914.969 1445.72  Z" fill="#191970" fill-rule="evenodd" fill-opacity="1"/>
<polyline clip-path="url(#clip062)" style="stroke:#000000; stroke-linecap:round; stroke-linejoin:round; stroke-width:4; stroke-opacity:1; fill:none" points="914.969,1445.72 914.969,87.9763 956.681,87.9763 956.681,1445.72 "/>
<path clip-path="url(#clip062)" d="M956.681 1445.72 L956.681 87.9763 L998.392 87.9763 L998.392 1445.72 L998.392 1445.72 L998.392 1445.72 L956.681 1445.72 L956.681 1445.72  Z" fill="#191970" fill-rule="evenodd" fill-opacity="1"/>
<polyline clip-path="url(#clip062)" style="stroke:#000000; stroke-linecap:round; stroke-linejoin:round; stroke-width:4; stroke-opacity:1; fill:none" points="956.681,1445.72 956.681,87.9763 998.392,87.9763 998.392,1445.72 "/>
<path clip-path="url(#clip062)" d="M1373.79 1445.72 L1373.79 87.9763 L1415.5 87.9763 L1415.5 1445.72 L1415.5 1445.72 L1415.5 1445.72 L1373.79 1445.72 L1373.79 1445.72  Z" fill="#191970" fill-rule="evenodd" fill-opacity="1"/>
<polyline clip-path="url(#clip062)" style="stroke:#000000; stroke-linecap:round; stroke-linejoin:round; stroke-width:4; stroke-opacity:1; fill:none" points="1373.79,1445.72 1373.79,87.9763 1415.5,87.9763 1415.5,1445.72 "/>
<path clip-path="url(#clip062)" d="M1540.64 1445.72 L1540.64 87.9763 L1582.35 87.9763 L1582.35 1445.72 L1582.35 1445.72 L1582.35 1445.72 L1540.64 1445.72 L1540.64 1445.72  Z" fill="#191970" fill-rule="evenodd" fill-opacity="1"/>
<polyline clip-path="url(#clip062)" style="stroke:#000000; stroke-linecap:round; stroke-linejoin:round; stroke-width:4; stroke-opacity:1; fill:none" points="1540.64,1445.72 1540.64,87.9763 1582.35,87.9763 1582.35,1445.72 "/>
<path clip-path="url(#clip062)" d="M1290.37 1445.72 L1290.37 87.9763 L1332.08 87.9763 L1332.08 1445.72 L1332.08 1445.72 L1332.08 1445.72 L1290.37 1445.72 L1290.37 1445.72  Z" fill="#191970" fill-rule="evenodd" fill-opacity="1"/>
<polyline clip-path="url(#clip062)" style="stroke:#000000; stroke-linecap:round; stroke-linejoin:round; stroke-width:4; stroke-opacity:1; fill:none" points="1290.37,1445.72 1290.37,87.9763 1332.08,87.9763 1332.08,1445.72 "/>
<path clip-path="url(#clip062)" d="M1749.19 1445.72 L1749.19 87.9763 L1790.91 87.9763 L1790.91 1445.72 L1790.91 1445.72 L1790.91 1445.72 L1749.19 1445.72 L1749.19 1445.72  Z" fill="#191970" fill-rule="evenodd" fill-opacity="1"/>
<polyline clip-path="url(#clip062)" style="stroke:#000000; stroke-linecap:round; stroke-linejoin:round; stroke-width:4; stroke-opacity:1; fill:none" points="1749.19,1445.72 1749.19,87.9763 1790.91,87.9763 1790.91,1445.72 "/>
<path clip-path="url(#clip062)" d="M456.146 1445.72 L456.146 87.9763 L497.857 87.9763 L497.857 1445.72 L497.857 1445.72 L497.857 1445.72 L456.146 1445.72 L456.146 1445.72  Z" fill="#191970" fill-rule="evenodd" fill-opacity="1"/>
<polyline clip-path="url(#clip062)" style="stroke:#000000; stroke-linecap:round; stroke-linejoin:round; stroke-width:4; stroke-opacity:1; fill:none" points="456.146,1445.72 456.146,87.9763 497.857,87.9763 497.857,1445.72 "/>
<path clip-path="url(#clip062)" d="M2124.6 1445.72 L2124.6 87.9763 L2166.31 87.9763 L2166.31 1445.72 L2166.31 1445.72 L2166.31 1445.72 L2124.6 1445.72 L2124.6 1445.72  Z" fill="#191970" fill-rule="evenodd" fill-opacity="1"/>
<polyline clip-path="url(#clip062)" style="stroke:#000000; stroke-linecap:round; stroke-linejoin:round; stroke-width:4; stroke-opacity:1; fill:none" points="2124.6,1445.72 2124.6,87.9763 2166.31,87.9763 2166.31,1445.72 "/>
<path clip-path="url(#clip062)" d="M497.857 1445.72 L497.857 87.9763 L539.568 87.9763 L539.568 1445.72 L539.568 1445.72 L539.568 1445.72 L497.857 1445.72 L497.857 1445.72  Z" fill="#191970" fill-rule="evenodd" fill-opacity="1"/>
<polyline clip-path="url(#clip062)" style="stroke:#000000; stroke-linecap:round; stroke-linejoin:round; stroke-width:4; stroke-opacity:1; fill:none" points="497.857,1445.72 497.857,87.9763 539.568,87.9763 539.568,1445.72 "/>
<path clip-path="url(#clip062)" d="M1248.66 1445.72 L1248.66 87.9763 L1290.37 87.9763 L1290.37 1445.72 L1290.37 1445.72 L1290.37 1445.72 L1248.66 1445.72 L1248.66 1445.72  Z" fill="#191970" fill-rule="evenodd" fill-opacity="1"/>
<polyline clip-path="url(#clip062)" style="stroke:#000000; stroke-linecap:round; stroke-linejoin:round; stroke-width:4; stroke-opacity:1; fill:none" points="1248.66,1445.72 1248.66,87.9763 1290.37,87.9763 1290.37,1445.72 "/>
<path clip-path="url(#clip062)" d="M789.836 1445.72 L789.836 87.9763 L831.547 87.9763 L831.547 1445.72 L831.547 1445.72 L831.547 1445.72 L789.836 1445.72 L789.836 1445.72  Z" fill="#191970" fill-rule="evenodd" fill-opacity="1"/>
<polyline clip-path="url(#clip062)" style="stroke:#000000; stroke-linecap:round; stroke-linejoin:round; stroke-width:4; stroke-opacity:1; fill:none" points="789.836,1445.72 789.836,87.9763 831.547,87.9763 831.547,1445.72 "/>
<path clip-path="url(#clip062)" d="M1165.24 1445.72 L1165.24 87.9763 L1206.95 87.9763 L1206.95 1445.72 L1206.95 1445.72 L1206.95 1445.72 L1165.24 1445.72 L1165.24 1445.72  Z" fill="#191970" fill-rule="evenodd" fill-opacity="1"/>
<polyline clip-path="url(#clip062)" style="stroke:#000000; stroke-linecap:round; stroke-linejoin:round; stroke-width:4; stroke-opacity:1; fill:none" points="1165.24,1445.72 1165.24,87.9763 1206.95,87.9763 1206.95,1445.72 "/>
<path clip-path="url(#clip062)" d="M247.59 1445.72 L247.59 87.9763 L289.301 87.9763 L289.301 1445.72 L289.301 1445.72 L289.301 1445.72 L247.59 1445.72 L247.59 1445.72  Z" fill="#191970" fill-rule="evenodd" fill-opacity="1"/>
<polyline clip-path="url(#clip062)" style="stroke:#000000; stroke-linecap:round; stroke-linejoin:round; stroke-width:4; stroke-opacity:1; fill:none" points="247.59,1445.72 247.59,87.9763 289.301,87.9763 289.301,1445.72 "/>
<path clip-path="url(#clip062)" d="M1206.95 1445.72 L1206.95 87.9763 L1248.66 87.9763 L1248.66 1445.72 L1248.66 1445.72 L1248.66 1445.72 L1206.95 1445.72 L1206.95 1445.72  Z" fill="#191970" fill-rule="evenodd" fill-opacity="1"/>
<polyline clip-path="url(#clip062)" style="stroke:#000000; stroke-linecap:round; stroke-linejoin:round; stroke-width:4; stroke-opacity:1; fill:none" points="1206.95,1445.72 1206.95,87.9763 1248.66,87.9763 1248.66,1445.72 "/>
<path clip-path="url(#clip062)" d="M1624.06 1445.72 L1624.06 87.9763 L1665.77 87.9763 L1665.77 1445.72 L1665.77 1445.72 L1665.77 1445.72 L1624.06 1445.72 L1624.06 1445.72  Z" fill="#191970" fill-rule="evenodd" fill-opacity="1"/>
<polyline clip-path="url(#clip062)" style="stroke:#000000; stroke-linecap:round; stroke-linejoin:round; stroke-width:4; stroke-opacity:1; fill:none" points="1624.06,1445.72 1624.06,87.9763 1665.77,87.9763 1665.77,1445.72 "/>
<path clip-path="url(#clip062)" d="M1332.08 1445.72 L1332.08 87.9763 L1373.79 87.9763 L1373.79 1445.72 L1373.79 1445.72 L1373.79 1445.72 L1332.08 1445.72 L1332.08 1445.72  Z" fill="#191970" fill-rule="evenodd" fill-opacity="1"/>
<polyline clip-path="url(#clip062)" style="stroke:#000000; stroke-linecap:round; stroke-linejoin:round; stroke-width:4; stroke-opacity:1; fill:none" points="1332.08,1445.72 1332.08,87.9763 1373.79,87.9763 1373.79,1445.72 "/>
<path clip-path="url(#clip062)" d="M622.991 1445.72 L622.991 87.9763 L664.702 87.9763 L664.702 1445.72 L664.702 1445.72 L664.702 1445.72 L622.991 1445.72 L622.991 1445.72  Z" fill="#191970" fill-rule="evenodd" fill-opacity="1"/>
<polyline clip-path="url(#clip062)" style="stroke:#000000; stroke-linecap:round; stroke-linejoin:round; stroke-width:4; stroke-opacity:1; fill:none" points="622.991,1445.72 622.991,87.9763 664.702,87.9763 664.702,1445.72 "/>
<path clip-path="url(#clip062)" d="M1832.62 1445.72 L1832.62 87.9763 L1874.33 87.9763 L1874.33 1445.72 L1874.33 1445.72 L1874.33 1445.72 L1832.62 1445.72 L1832.62 1445.72  Z" fill="#191970" fill-rule="evenodd" fill-opacity="1"/>
<polyline clip-path="url(#clip062)" style="stroke:#000000; stroke-linecap:round; stroke-linejoin:round; stroke-width:4; stroke-opacity:1; fill:none" points="1832.62,1445.72 1832.62,87.9763 1874.33,87.9763 1874.33,1445.72 "/>
<path clip-path="url(#clip062)" d="M748.124 1445.72 L748.124 87.9763 L789.836 87.9763 L789.836 1445.72 L789.836 1445.72 L789.836 1445.72 L748.124 1445.72 L748.124 1445.72  Z" fill="#191970" fill-rule="evenodd" fill-opacity="1"/>
<polyline clip-path="url(#clip062)" style="stroke:#000000; stroke-linecap:round; stroke-linejoin:round; stroke-width:4; stroke-opacity:1; fill:none" points="748.124,1445.72 748.124,87.9763 789.836,87.9763 789.836,1445.72 "/>
<path clip-path="url(#clip062)" d="M2166.31 1445.72 L2166.31 87.9763 L2208.02 87.9763 L2208.02 1445.72 L2208.02 1445.72 L2208.02 1445.72 L2166.31 1445.72 L2166.31 1445.72  Z" fill="#191970" fill-rule="evenodd" fill-opacity="1"/>
<polyline clip-path="url(#clip062)" style="stroke:#000000; stroke-linecap:round; stroke-linejoin:round; stroke-width:4; stroke-opacity:1; fill:none" points="2166.31,1445.72 2166.31,87.9763 2208.02,87.9763 2208.02,1445.72 "/>
</svg>
