<?xml version="1.0" encoding="utf-8"?>
<svg xmlns="http://www.w3.org/2000/svg" xmlns:xlink="http://www.w3.org/1999/xlink" width="600" height="400" viewBox="0 0 2400 1600">
<defs>
  <clipPath id="clip760">
    <rect x="0" y="0" width="2400" height="1600"/>
  </clipPath>
</defs>
<path clip-path="url(#clip760)" d="M0 1600 L2400 1600 L2400 0 L0 0  Z" fill="#ffffff" fill-rule="evenodd" fill-opacity="1"/>
<defs>
  <clipPath id="clip761">
    <rect x="480" y="0" width="1681" height="1600"/>
  </clipPath>
</defs>
<path clip-path="url(#clip760)" d="M186.274 1474.16 L2352.76 1474.16 L2352.76 47.2441 L186.274 47.2441  Z" fill="#ffffff" fill-rule="evenodd" fill-opacity="1"/>
<defs>
  <clipPath id="clip762">
    <rect x="186" y="47" width="2167" height="1428"/>
  </clipPath>
</defs>
<polyline clip-path="url(#clip762)" style="stroke:#000000; stroke-linecap:round; stroke-linejoin:round; stroke-width:2; stroke-opacity:0.1; fill:none" points="2291.44,1474.16 2291.44,47.2441 "/>
<polyline clip-path="url(#clip762)" style="stroke:#000000; stroke-linecap:round; stroke-linejoin:round; stroke-width:2; stroke-opacity:0.1; fill:none" points="1950.8,1474.16 1950.8,47.2441 "/>
<polyline clip-path="url(#clip762)" style="stroke:#000000; stroke-linecap:round; stroke-linejoin:round; stroke-width:2; stroke-opacity:0.1; fill:none" points="1610.16,1474.16 1610.16,47.2441 "/>
<polyline clip-path="url(#clip762)" style="stroke:#000000; stroke-linecap:round; stroke-linejoin:round; stroke-width:2; stroke-opacity:0.1; fill:none" points="1269.51,1474.16 1269.51,47.2441 "/>
<polyline clip-path="url(#clip762)" style="stroke:#000000; stroke-linecap:round; stroke-linejoin:round; stroke-width:2; stroke-opacity:0.1; fill:none" points="928.873,1474.16 928.873,47.2441 "/>
<polyline clip-path="url(#clip762)" style="stroke:#000000; stroke-linecap:round; stroke-linejoin:round; stroke-width:2; stroke-opacity:0.1; fill:none" points="588.231,1474.16 588.231,47.2441 "/>
<polyline clip-path="url(#clip762)" style="stroke:#000000; stroke-linecap:round; stroke-linejoin:round; stroke-width:2; stroke-opacity:0.1; fill:none" points="247.59,1474.16 247.59,47.2441 "/>
<polyline clip-path="url(#clip762)" style="stroke:#000000; stroke-linecap:round; stroke-linejoin:round; stroke-width:2; stroke-opacity:0.1; fill:none" points="186.274,1433.78 2352.76,1433.78 "/>
<polyline clip-path="url(#clip762)" style="stroke:#000000; stroke-linecap:round; stroke-linejoin:round; stroke-width:2; stroke-opacity:0.1; fill:none" points="186.274,1097.24 2352.76,1097.24 "/>
<polyline clip-path="url(#clip762)" style="stroke:#000000; stroke-linecap:round; stroke-linejoin:round; stroke-width:2; stroke-opacity:0.1; fill:none" points="186.274,760.704 2352.76,760.704 "/>
<polyline clip-path="url(#clip762)" style="stroke:#000000; stroke-linecap:round; stroke-linejoin:round; stroke-width:2; stroke-opacity:0.1; fill:none" points="186.274,424.167 2352.76,424.167 "/>
<polyline clip-path="url(#clip762)" style="stroke:#000000; stroke-linecap:round; stroke-linejoin:round; stroke-width:2; stroke-opacity:0.1; fill:none" points="186.274,87.6286 2352.76,87.6286 "/>
<polyline clip-path="url(#clip760)" style="stroke:#000000; stroke-linecap:round; stroke-linejoin:round; stroke-width:4; stroke-opacity:1; fill:none" points="186.274,1474.16 2352.76,1474.16 "/>
<polyline clip-path="url(#clip760)" style="stroke:#000000; stroke-linecap:round; stroke-linejoin:round; stroke-width:4; stroke-opacity:1; fill:none" points="2291.44,1474.16 2291.44,1455.27 "/>
<polyline clip-path="url(#clip760)" style="stroke:#000000; stroke-linecap:round; stroke-linejoin:round; stroke-width:4; stroke-opacity:1; fill:none" points="1950.8,1474.16 1950.8,1455.27 "/>
<polyline clip-path="url(#clip760)" style="stroke:#000000; stroke-linecap:round; stroke-linejoin:round; stroke-width:4; stroke-opacity:1; fill:none" points="1610.16,1474.16 1610.16,1455.27 "/>
<polyline clip-path="url(#clip760)" style="stroke:#000000; stroke-linecap:round; stroke-linejoin:round; stroke-width:4; stroke-opacity:1; fill:none" points="1269.51,1474.16 1269.51,1455.27 "/>
<polyline clip-path="url(#clip760)" style="stroke:#000000; stroke-linecap:round; stroke-linejoin:round; stroke-width:4; stroke-opacity:1; fill:none" points="928.873,1474.16 928.873,1455.27 "/>
<polyline clip-path="url(#clip760)" style="stroke:#000000; stroke-linecap:round; stroke-linejoin:round; stroke-width:4; stroke-opacity:1; fill:none" points="588.231,1474.16 588.231,1455.27 "/>
<polyline clip-path="url(#clip760)" style="stroke:#000000; stroke-linecap:round; stroke-linejoin:round; stroke-width:4; stroke-opacity:1; fill:none" points="247.59,1474.16 247.59,1455.27 "/>
<path clip-path="url(#clip760)" d="M2241.71 1548.29 L2249.34 1548.29 L2249.34 1521.92 L2241.03 1523.59 L2241.03 1519.33 L2249.3 1517.66 L2253.97 1517.66 L2253.97 1548.29 L2261.61 1548.29 L2261.61 1552.22 L2241.71 1552.22 L2241.71 1548.29 Z" fill="#000000" fill-rule="nonzero" fill-opacity="1" /><path clip-path="url(#clip760)" d="M2281.06 1520.74 Q2277.45 1520.74 2275.62 1524.31 Q2273.81 1527.85 2273.81 1534.98 Q2273.81 1542.09 2275.62 1545.65 Q2277.45 1549.19 2281.06 1549.19 Q2284.69 1549.19 2286.5 1545.65 Q2288.33 1542.09 2288.33 1534.98 Q2288.33 1527.85 2286.5 1524.31 Q2284.69 1520.74 2281.06 1520.74 M2281.06 1517.04 Q2286.87 1517.04 2289.92 1521.65 Q2293 1526.23 2293 1534.98 Q2293 1543.71 2289.92 1548.31 Q2286.87 1552.9 2281.06 1552.9 Q2275.25 1552.9 2272.17 1548.31 Q2269.11 1543.71 2269.11 1534.98 Q2269.11 1526.23 2272.17 1521.65 Q2275.25 1517.04 2281.06 1517.04 Z" fill="#000000" fill-rule="nonzero" fill-opacity="1" /><path clip-path="url(#clip760)" d="M2293 1511.14 L2317.11 1511.14 L2317.11 1514.34 L2293 1514.34 L2293 1511.14 Z" fill="#000000" fill-rule="nonzero" fill-opacity="1" /><path clip-path="url(#clip760)" d="M2328.59 1521.62 L2341.85 1521.62 L2341.85 1524.81 L2324.02 1524.81 L2324.02 1521.62 Q2326.18 1519.38 2329.9 1515.62 Q2333.65 1511.84 2334.6 1510.75 Q2336.43 1508.7 2337.14 1507.29 Q2337.88 1505.86 2337.88 1504.48 Q2337.88 1502.24 2336.3 1500.83 Q2334.74 1499.42 2332.22 1499.42 Q2330.43 1499.42 2328.44 1500.04 Q2326.46 1500.67 2324.2 1501.93 L2324.2 1498.09 Q2326.5 1497.17 2328.49 1496.7 Q2330.49 1496.23 2332.14 1496.23 Q2336.5 1496.23 2339.1 1498.41 Q2341.7 1500.59 2341.7 1504.24 Q2341.7 1505.97 2341.04 1507.53 Q2340.4 1509.07 2338.69 1511.18 Q2338.22 1511.72 2335.7 1514.34 Q2333.18 1516.93 2328.59 1521.62 Z" fill="#000000" fill-rule="nonzero" fill-opacity="1" /><path clip-path="url(#clip760)" d="M1900.68 1548.29 L1908.32 1548.29 L1908.32 1521.92 L1900.01 1523.59 L1900.01 1519.33 L1908.27 1517.66 L1912.95 1517.66 L1912.95 1548.29 L1920.59 1548.29 L1920.59 1552.22 L1900.68 1552.22 L1900.68 1548.29 Z" fill="#000000" fill-rule="nonzero" fill-opacity="1" /><path clip-path="url(#clip760)" d="M1940.03 1520.74 Q1936.42 1520.74 1934.59 1524.31 Q1932.79 1527.85 1932.79 1534.98 Q1932.79 1542.09 1934.59 1545.65 Q1936.42 1549.19 1940.03 1549.19 Q1943.66 1549.19 1945.47 1545.65 Q1947.3 1542.09 1947.3 1534.98 Q1947.3 1527.85 1945.47 1524.31 Q1943.66 1520.74 1940.03 1520.74 M1940.03 1517.04 Q1945.84 1517.04 1948.9 1521.65 Q1951.97 1526.23 1951.97 1534.98 Q1951.97 1543.71 1948.9 1548.31 Q1945.84 1552.9 1940.03 1552.9 Q1934.22 1552.9 1931.14 1548.31 Q1928.09 1543.71 1928.09 1534.98 Q1928.09 1526.23 1931.14 1521.65 Q1934.22 1517.04 1940.03 1517.04 Z" fill="#000000" fill-rule="nonzero" fill-opacity="1" /><path clip-path="url(#clip760)" d="M1951.97 1511.14 L1976.09 1511.14 L1976.09 1514.34 L1951.97 1514.34 L1951.97 1511.14 Z" fill="#000000" fill-rule="nonzero" fill-opacity="1" /><path clip-path="url(#clip760)" d="M1995.8 1509.67 Q1998.52 1510.26 2000.05 1512.1 Q2001.59 1513.94 2001.59 1516.65 Q2001.59 1520.81 1998.73 1523.08 Q1995.87 1525.36 1990.61 1525.36 Q1988.84 1525.36 1986.96 1525 Q1985.1 1524.66 1983.1 1523.97 L1983.1 1520.3 Q1984.68 1521.22 1986.56 1521.69 Q1988.44 1522.16 1990.49 1522.16 Q1994.07 1522.16 1995.93 1520.75 Q1997.81 1519.34 1997.81 1516.65 Q1997.81 1514.17 1996.06 1512.78 Q1994.33 1511.37 1991.23 1511.37 L1987.95 1511.37 L1987.95 1508.24 L1991.38 1508.24 Q1994.18 1508.24 1995.67 1507.13 Q1997.15 1506.01 1997.15 1503.9 Q1997.15 1501.74 1995.61 1500.59 Q1994.09 1499.42 1991.23 1499.42 Q1989.67 1499.42 1987.88 1499.76 Q1986.09 1500.1 1983.95 1500.82 L1983.95 1497.43 Q1986.11 1496.83 1987.99 1496.53 Q1989.89 1496.23 1991.57 1496.23 Q1995.89 1496.23 1998.41 1498.2 Q2000.93 1500.16 2000.93 1503.51 Q2000.93 1505.84 1999.6 1507.45 Q1998.26 1509.05 1995.8 1509.67 Z" fill="#000000" fill-rule="nonzero" fill-opacity="1" /><path clip-path="url(#clip760)" d="M1559.58 1548.29 L1567.22 1548.29 L1567.22 1521.92 L1558.9 1523.59 L1558.9 1519.33 L1567.17 1517.66 L1571.84 1517.66 L1571.84 1548.29 L1579.48 1548.29 L1579.48 1552.22 L1559.58 1552.22 L1559.58 1548.29 Z" fill="#000000" fill-rule="nonzero" fill-opacity="1" /><path clip-path="url(#clip760)" d="M1598.93 1520.74 Q1595.32 1520.74 1593.49 1524.31 Q1591.68 1527.85 1591.68 1534.98 Q1591.68 1542.09 1593.49 1545.65 Q1595.32 1549.19 1598.93 1549.19 Q1602.56 1549.19 1604.37 1545.65 Q1606.2 1542.09 1606.2 1534.98 Q1606.2 1527.85 1604.37 1524.31 Q1602.56 1520.74 1598.93 1520.74 M1598.93 1517.04 Q1604.74 1517.04 1607.79 1521.65 Q1610.87 1526.23 1610.87 1534.98 Q1610.87 1543.71 1607.79 1548.31 Q1604.74 1552.9 1598.93 1552.9 Q1593.12 1552.9 1590.04 1548.31 Q1586.98 1543.71 1586.98 1534.98 Q1586.98 1526.23 1590.04 1521.65 Q1593.12 1517.04 1598.93 1517.04 Z" fill="#000000" fill-rule="nonzero" fill-opacity="1" /><path clip-path="url(#clip760)" d="M1610.87 1511.14 L1634.98 1511.14 L1634.98 1514.34 L1610.87 1514.34 L1610.87 1511.14 Z" fill="#000000" fill-rule="nonzero" fill-opacity="1" /><path clip-path="url(#clip760)" d="M1653.62 1500.04 L1644.03 1515.03 L1653.62 1515.03 L1653.62 1500.04 M1652.63 1496.73 L1657.4 1496.73 L1657.4 1515.03 L1661.41 1515.03 L1661.41 1518.19 L1657.4 1518.19 L1657.4 1524.81 L1653.62 1524.81 L1653.62 1518.19 L1640.95 1518.19 L1640.95 1514.53 L1652.63 1496.73 Z" fill="#000000" fill-rule="nonzero" fill-opacity="1" /><path clip-path="url(#clip760)" d="M1219.54 1548.29 L1227.18 1548.29 L1227.18 1521.92 L1218.86 1523.59 L1218.86 1519.33 L1227.13 1517.66 L1231.8 1517.66 L1231.8 1548.29 L1239.44 1548.29 L1239.44 1552.22 L1219.54 1552.22 L1219.54 1548.29 Z" fill="#000000" fill-rule="nonzero" fill-opacity="1" /><path clip-path="url(#clip760)" d="M1258.89 1520.74 Q1255.28 1520.74 1253.45 1524.31 Q1251.64 1527.85 1251.64 1534.98 Q1251.64 1542.09 1253.45 1545.65 Q1255.28 1549.19 1258.89 1549.19 Q1262.52 1549.19 1264.33 1545.65 Q1266.16 1542.09 1266.16 1534.98 Q1266.16 1527.85 1264.33 1524.31 Q1262.52 1520.74 1258.89 1520.74 M1258.89 1517.04 Q1264.7 1517.04 1267.75 1521.65 Q1270.83 1526.23 1270.83 1534.98 Q1270.83 1543.71 1267.75 1548.31 Q1264.7 1552.9 1258.89 1552.9 Q1253.08 1552.9 1250 1548.31 Q1246.94 1543.71 1246.94 1534.98 Q1246.94 1526.23 1250 1521.65 Q1253.08 1517.04 1258.89 1517.04 Z" fill="#000000" fill-rule="nonzero" fill-opacity="1" /><path clip-path="url(#clip760)" d="M1270.83 1511.14 L1294.94 1511.14 L1294.94 1514.34 L1270.83 1514.34 L1270.83 1511.14 Z" fill="#000000" fill-rule="nonzero" fill-opacity="1" /><path clip-path="url(#clip760)" d="M1303.18 1496.73 L1318.1 1496.73 L1318.1 1499.93 L1306.66 1499.93 L1306.66 1506.82 Q1307.49 1506.53 1308.32 1506.4 Q1309.14 1506.25 1309.97 1506.25 Q1314.67 1506.25 1317.42 1508.83 Q1320.17 1511.4 1320.17 1515.81 Q1320.17 1520.34 1317.34 1522.86 Q1314.52 1525.36 1309.39 1525.36 Q1307.62 1525.36 1305.78 1525.06 Q1303.95 1524.76 1302 1524.16 L1302 1520.34 Q1303.69 1521.26 1305.49 1521.71 Q1307.3 1522.16 1309.31 1522.16 Q1312.57 1522.16 1314.47 1520.45 Q1316.37 1518.74 1316.37 1515.81 Q1316.37 1512.87 1314.47 1511.16 Q1312.57 1509.45 1309.31 1509.45 Q1307.79 1509.45 1306.27 1509.79 Q1304.76 1510.13 1303.18 1510.84 L1303.18 1496.73 Z" fill="#000000" fill-rule="nonzero" fill-opacity="1" /><path clip-path="url(#clip760)" d="M878.424 1548.29 L886.063 1548.29 L886.063 1521.92 L877.753 1523.59 L877.753 1519.33 L886.017 1517.66 L890.693 1517.66 L890.693 1548.29 L898.331 1548.29 L898.331 1552.22 L878.424 1552.22 L878.424 1548.29 Z" fill="#000000" fill-rule="nonzero" fill-opacity="1" /><path clip-path="url(#clip760)" d="M917.776 1520.74 Q914.165 1520.74 912.336 1524.31 Q910.531 1527.85 910.531 1534.98 Q910.531 1542.09 912.336 1545.65 Q914.165 1549.19 917.776 1549.19 Q921.41 1549.19 923.216 1545.65 Q925.044 1542.09 925.044 1534.98 Q925.044 1527.85 923.216 1524.31 Q921.41 1520.74 917.776 1520.74 M917.776 1517.04 Q923.586 1517.04 926.642 1521.65 Q929.72 1526.23 929.72 1534.98 Q929.72 1543.71 926.642 1548.31 Q923.586 1552.9 917.776 1552.9 Q911.966 1552.9 908.887 1548.31 Q905.831 1543.71 905.831 1534.98 Q905.831 1526.23 908.887 1521.65 Q911.966 1517.04 917.776 1517.04 Z" fill="#000000" fill-rule="nonzero" fill-opacity="1" /><path clip-path="url(#clip760)" d="M929.72 1511.14 L953.832 1511.14 L953.832 1514.34 L929.72 1514.34 L929.72 1511.14 Z" fill="#000000" fill-rule="nonzero" fill-opacity="1" /><path clip-path="url(#clip760)" d="M970.627 1509.26 Q968.069 1509.26 966.565 1511.01 Q965.079 1512.76 965.079 1515.81 Q965.079 1518.83 966.565 1520.6 Q968.069 1522.35 970.627 1522.35 Q973.185 1522.35 974.671 1520.6 Q976.175 1518.83 976.175 1515.81 Q976.175 1512.76 974.671 1511.01 Q973.185 1509.26 970.627 1509.26 M978.169 1497.35 L978.169 1500.82 Q976.74 1500.14 975.273 1499.78 Q973.824 1499.42 972.395 1499.42 Q968.633 1499.42 966.64 1501.96 Q964.665 1504.5 964.383 1509.64 Q965.493 1508 967.166 1507.13 Q968.84 1506.25 970.853 1506.25 Q975.085 1506.25 977.53 1508.83 Q979.993 1511.39 979.993 1515.81 Q979.993 1520.13 977.436 1522.75 Q974.878 1525.36 970.627 1525.36 Q965.756 1525.36 963.179 1521.64 Q960.603 1517.89 960.603 1510.8 Q960.603 1504.14 963.762 1500.19 Q966.922 1496.23 972.245 1496.23 Q973.674 1496.23 975.122 1496.51 Q976.589 1496.79 978.169 1497.35 Z" fill="#000000" fill-rule="nonzero" fill-opacity="1" /><path clip-path="url(#clip760)" d="M538.215 1548.29 L545.854 1548.29 L545.854 1521.92 L537.544 1523.59 L537.544 1519.33 L545.808 1517.66 L550.483 1517.66 L550.483 1548.29 L558.122 1548.29 L558.122 1552.22 L538.215 1552.22 L538.215 1548.29 Z" fill="#000000" fill-rule="nonzero" fill-opacity="1" /><path clip-path="url(#clip760)" d="M577.567 1520.74 Q573.956 1520.74 572.127 1524.31 Q570.321 1527.85 570.321 1534.98 Q570.321 1542.09 572.127 1545.65 Q573.956 1549.19 577.567 1549.19 Q581.201 1549.19 583.006 1545.65 Q584.835 1542.09 584.835 1534.98 Q584.835 1527.85 583.006 1524.31 Q581.201 1520.74 577.567 1520.74 M577.567 1517.04 Q583.377 1517.04 586.432 1521.65 Q589.511 1526.23 589.511 1534.98 Q589.511 1543.71 586.432 1548.31 Q583.377 1552.9 577.567 1552.9 Q571.756 1552.9 568.678 1548.31 Q565.622 1543.71 565.622 1534.98 Q565.622 1526.23 568.678 1521.65 Q571.756 1517.04 577.567 1517.04 Z" fill="#000000" fill-rule="nonzero" fill-opacity="1" /><path clip-path="url(#clip760)" d="M589.511 1511.14 L613.623 1511.14 L613.623 1514.34 L589.511 1514.34 L589.511 1511.14 Z" fill="#000000" fill-rule="nonzero" fill-opacity="1" /><path clip-path="url(#clip760)" d="M620.864 1496.73 L638.919 1496.73 L638.919 1498.35 L628.725 1524.81 L624.757 1524.81 L634.349 1499.93 L620.864 1499.93 L620.864 1496.73 Z" fill="#000000" fill-rule="nonzero" fill-opacity="1" /><path clip-path="url(#clip760)" d="M197.244 1548.29 L204.883 1548.29 L204.883 1521.92 L196.573 1523.59 L196.573 1519.33 L204.837 1517.66 L209.512 1517.66 L209.512 1548.29 L217.151 1548.29 L217.151 1552.22 L197.244 1552.22 L197.244 1548.29 Z" fill="#000000" fill-rule="nonzero" fill-opacity="1" /><path clip-path="url(#clip760)" d="M236.596 1520.74 Q232.985 1520.74 231.156 1524.31 Q229.35 1527.85 229.35 1534.98 Q229.35 1542.09 231.156 1545.65 Q232.985 1549.19 236.596 1549.19 Q240.23 1549.19 242.035 1545.65 Q243.864 1542.09 243.864 1534.98 Q243.864 1527.85 242.035 1524.31 Q240.23 1520.74 236.596 1520.74 M236.596 1517.04 Q242.406 1517.04 245.461 1521.65 Q248.54 1526.23 248.54 1534.98 Q248.54 1543.71 245.461 1548.31 Q242.406 1552.9 236.596 1552.9 Q230.786 1552.9 227.707 1548.31 Q224.651 1543.71 224.651 1534.98 Q224.651 1526.23 227.707 1521.65 Q230.786 1517.04 236.596 1517.04 Z" fill="#000000" fill-rule="nonzero" fill-opacity="1" /><path clip-path="url(#clip760)" d="M248.54 1511.14 L272.652 1511.14 L272.652 1514.34 L248.54 1514.34 L248.54 1511.14 Z" fill="#000000" fill-rule="nonzero" fill-opacity="1" /><path clip-path="url(#clip760)" d="M288.977 1511.48 Q286.268 1511.48 284.707 1512.93 Q283.165 1514.38 283.165 1516.92 Q283.165 1519.45 284.707 1520.9 Q286.268 1522.35 288.977 1522.35 Q291.685 1522.35 293.246 1520.9 Q294.807 1519.44 294.807 1516.92 Q294.807 1514.38 293.246 1512.93 Q291.704 1511.48 288.977 1511.48 M285.178 1509.86 Q282.733 1509.26 281.36 1507.59 Q280.005 1505.91 280.005 1503.51 Q280.005 1500.14 282.394 1498.18 Q284.801 1496.23 288.977 1496.23 Q293.171 1496.23 295.559 1498.18 Q297.948 1500.14 297.948 1503.51 Q297.948 1505.91 296.575 1507.59 Q295.221 1509.26 292.795 1509.86 Q295.541 1510.5 297.064 1512.36 Q298.606 1514.23 298.606 1516.92 Q298.606 1521 296.105 1523.18 Q293.622 1525.36 288.977 1525.36 Q284.331 1525.36 281.83 1523.18 Q279.347 1521 279.347 1516.92 Q279.347 1514.23 280.889 1512.36 Q282.432 1510.5 285.178 1509.86 M283.786 1503.86 Q283.786 1506.04 285.14 1507.27 Q286.513 1508.49 288.977 1508.49 Q291.422 1508.49 292.795 1507.27 Q294.186 1506.04 294.186 1503.86 Q294.186 1501.68 292.795 1500.46 Q291.422 1499.24 288.977 1499.24 Q286.513 1499.24 285.14 1500.46 Q283.786 1501.68 283.786 1503.86 Z" fill="#000000" fill-rule="nonzero" fill-opacity="1" /><polyline clip-path="url(#clip760)" style="stroke:#000000; stroke-linecap:round; stroke-linejoin:round; stroke-width:4; stroke-opacity:1; fill:none" points="186.274,1474.16 186.274,47.2441 "/>
<polyline clip-path="url(#clip760)" style="stroke:#000000; stroke-linecap:round; stroke-linejoin:round; stroke-width:4; stroke-opacity:1; fill:none" points="186.274,1433.78 205.172,1433.78 "/>
<polyline clip-path="url(#clip760)" style="stroke:#000000; stroke-linecap:round; stroke-linejoin:round; stroke-width:4; stroke-opacity:1; fill:none" points="186.274,1097.24 205.172,1097.24 "/>
<polyline clip-path="url(#clip760)" style="stroke:#000000; stroke-linecap:round; stroke-linejoin:round; stroke-width:4; stroke-opacity:1; fill:none" points="186.274,760.704 205.172,760.704 "/>
<polyline clip-path="url(#clip760)" style="stroke:#000000; stroke-linecap:round; stroke-linejoin:round; stroke-width:4; stroke-opacity:1; fill:none" points="186.274,424.167 205.172,424.167 "/>
<polyline clip-path="url(#clip760)" style="stroke:#000000; stroke-linecap:round; stroke-linejoin:round; stroke-width:4; stroke-opacity:1; fill:none" points="186.274,87.6286 205.172,87.6286 "/>
<path clip-path="url(#clip760)" d="M62.9365 1419.58 Q59.3254 1419.58 57.4967 1423.14 Q55.6912 1426.69 55.6912 1433.81 Q55.6912 1440.92 57.4967 1444.49 Q59.3254 1448.03 62.9365 1448.03 Q66.5707 1448.03 68.3763 1444.49 Q70.205 1440.92 70.205 1433.81 Q70.205 1426.69 68.3763 1423.14 Q66.5707 1419.58 62.9365 1419.58 M62.9365 1415.88 Q68.7467 1415.88 71.8022 1420.48 Q74.8809 1425.06 74.8809 1433.81 Q74.8809 1442.54 71.8022 1447.15 Q68.7467 1451.73 62.9365 1451.73 Q57.1264 1451.73 54.0477 1447.15 Q50.9921 1442.54 50.9921 1433.81 Q50.9921 1425.06 54.0477 1420.48 Q57.1264 1415.88 62.9365 1415.88 Z" fill="#000000" fill-rule="nonzero" fill-opacity="1" /><path clip-path="url(#clip760)" d="M83.0984 1445.18 L87.9827 1445.18 L87.9827 1451.06 L83.0984 1451.06 L83.0984 1445.18 Z" fill="#000000" fill-rule="nonzero" fill-opacity="1" /><path clip-path="url(#clip760)" d="M108.168 1419.58 Q104.557 1419.58 102.728 1423.14 Q100.922 1426.69 100.922 1433.81 Q100.922 1440.92 102.728 1444.49 Q104.557 1448.03 108.168 1448.03 Q111.802 1448.03 113.608 1444.49 Q115.436 1440.92 115.436 1433.81 Q115.436 1426.69 113.608 1423.14 Q111.802 1419.58 108.168 1419.58 M108.168 1415.88 Q113.978 1415.88 117.033 1420.48 Q120.112 1425.06 120.112 1433.81 Q120.112 1442.54 117.033 1447.15 Q113.978 1451.73 108.168 1451.73 Q102.358 1451.73 99.2789 1447.15 Q96.2234 1442.54 96.2234 1433.81 Q96.2234 1425.06 99.2789 1420.48 Q102.358 1415.88 108.168 1415.88 Z" fill="#000000" fill-rule="nonzero" fill-opacity="1" /><path clip-path="url(#clip760)" d="M138.33 1419.58 Q134.719 1419.58 132.89 1423.14 Q131.084 1426.69 131.084 1433.81 Q131.084 1440.92 132.89 1444.49 Q134.719 1448.03 138.33 1448.03 Q141.964 1448.03 143.769 1444.49 Q145.598 1440.92 145.598 1433.81 Q145.598 1426.69 143.769 1423.14 Q141.964 1419.58 138.33 1419.58 M138.33 1415.88 Q144.14 1415.88 147.195 1420.48 Q150.274 1425.06 150.274 1433.81 Q150.274 1442.54 147.195 1447.15 Q144.14 1451.73 138.33 1451.73 Q132.519 1451.73 129.441 1447.15 Q126.385 1442.54 126.385 1433.81 Q126.385 1425.06 129.441 1420.48 Q132.519 1415.88 138.33 1415.88 Z" fill="#000000" fill-rule="nonzero" fill-opacity="1" /><path clip-path="url(#clip760)" d="M63.9319 1083.04 Q60.3208 1083.04 58.4921 1086.61 Q56.6865 1090.15 56.6865 1097.28 Q56.6865 1104.38 58.4921 1107.95 Q60.3208 1111.49 63.9319 1111.49 Q67.5661 1111.49 69.3717 1107.95 Q71.2004 1104.38 71.2004 1097.28 Q71.2004 1090.15 69.3717 1086.61 Q67.5661 1083.04 63.9319 1083.04 M63.9319 1079.34 Q69.742 1079.34 72.7976 1083.94 Q75.8763 1088.53 75.8763 1097.28 Q75.8763 1106 72.7976 1110.61 Q69.742 1115.19 63.9319 1115.19 Q58.1217 1115.19 55.043 1110.61 Q51.9875 1106 51.9875 1097.28 Q51.9875 1088.53 55.043 1083.94 Q58.1217 1079.34 63.9319 1079.34 Z" fill="#000000" fill-rule="nonzero" fill-opacity="1" /><path clip-path="url(#clip760)" d="M84.0938 1108.64 L88.978 1108.64 L88.978 1114.52 L84.0938 1114.52 L84.0938 1108.64 Z" fill="#000000" fill-rule="nonzero" fill-opacity="1" /><path clip-path="url(#clip760)" d="M103.191 1110.59 L119.51 1110.59 L119.51 1114.52 L97.566 1114.52 L97.566 1110.59 Q100.228 1107.83 104.811 1103.2 Q109.418 1098.55 110.598 1097.21 Q112.844 1094.68 113.723 1092.95 Q114.626 1091.19 114.626 1089.5 Q114.626 1086.74 112.682 1085.01 Q110.76 1083.27 107.658 1083.27 Q105.459 1083.27 103.006 1084.04 Q100.575 1084.8 97.7974 1086.35 L97.7974 1081.63 Q100.621 1080.49 103.075 1079.92 Q105.529 1079.34 107.566 1079.34 Q112.936 1079.34 116.131 1082.02 Q119.325 1084.71 119.325 1089.2 Q119.325 1091.33 118.515 1093.25 Q117.728 1095.15 115.621 1097.74 Q115.043 1098.41 111.941 1101.63 Q108.839 1104.82 103.191 1110.59 Z" fill="#000000" fill-rule="nonzero" fill-opacity="1" /><path clip-path="url(#clip760)" d="M129.371 1079.96 L147.728 1079.96 L147.728 1083.9 L133.654 1083.9 L133.654 1092.37 Q134.672 1092.02 135.691 1091.86 Q136.709 1091.68 137.728 1091.68 Q143.515 1091.68 146.894 1094.85 Q150.274 1098.02 150.274 1103.43 Q150.274 1109.01 146.802 1112.11 Q143.33 1115.19 137.01 1115.19 Q134.834 1115.19 132.566 1114.82 Q130.32 1114.45 127.913 1113.71 L127.913 1109.01 Q129.996 1110.15 132.219 1110.7 Q134.441 1111.26 136.918 1111.26 Q140.922 1111.26 143.26 1109.15 Q145.598 1107.05 145.598 1103.43 Q145.598 1099.82 143.26 1097.72 Q140.922 1095.61 136.918 1095.61 Q135.043 1095.61 133.168 1096.03 Q131.316 1096.44 129.371 1097.32 L129.371 1079.96 Z" fill="#000000" fill-rule="nonzero" fill-opacity="1" /><path clip-path="url(#clip760)" d="M62.9365 746.503 Q59.3254 746.503 57.4967 750.068 Q55.6912 753.61 55.6912 760.739 Q55.6912 767.846 57.4967 771.41 Q59.3254 774.952 62.9365 774.952 Q66.5707 774.952 68.3763 771.41 Q70.205 767.846 70.205 760.739 Q70.205 753.61 68.3763 750.068 Q66.5707 746.503 62.9365 746.503 M62.9365 742.799 Q68.7467 742.799 71.8022 747.406 Q74.8809 751.989 74.8809 760.739 Q74.8809 769.466 71.8022 774.072 Q68.7467 778.656 62.9365 778.656 Q57.1264 778.656 54.0477 774.072 Q50.9921 769.466 50.9921 760.739 Q50.9921 751.989 54.0477 747.406 Q57.1264 742.799 62.9365 742.799 Z" fill="#000000" fill-rule="nonzero" fill-opacity="1" /><path clip-path="url(#clip760)" d="M83.0984 772.105 L87.9827 772.105 L87.9827 777.984 L83.0984 777.984 L83.0984 772.105 Z" fill="#000000" fill-rule="nonzero" fill-opacity="1" /><path clip-path="url(#clip760)" d="M98.2141 743.424 L116.57 743.424 L116.57 747.36 L102.496 747.36 L102.496 755.832 Q103.515 755.485 104.534 755.322 Q105.552 755.137 106.571 755.137 Q112.358 755.137 115.737 758.309 Q119.117 761.48 119.117 766.896 Q119.117 772.475 115.645 775.577 Q112.172 778.656 105.853 778.656 Q103.677 778.656 101.409 778.285 Q99.1632 777.915 96.7558 777.174 L96.7558 772.475 Q98.8391 773.609 101.061 774.165 Q103.284 774.721 105.76 774.721 Q109.765 774.721 112.103 772.614 Q114.441 770.508 114.441 766.896 Q114.441 763.285 112.103 761.179 Q109.765 759.072 105.76 759.072 Q103.885 759.072 102.01 759.489 Q100.159 759.906 98.2141 760.785 L98.2141 743.424 Z" fill="#000000" fill-rule="nonzero" fill-opacity="1" /><path clip-path="url(#clip760)" d="M138.33 746.503 Q134.719 746.503 132.89 750.068 Q131.084 753.61 131.084 760.739 Q131.084 767.846 132.89 771.41 Q134.719 774.952 138.33 774.952 Q141.964 774.952 143.769 771.41 Q145.598 767.846 145.598 760.739 Q145.598 753.61 143.769 750.068 Q141.964 746.503 138.33 746.503 M138.33 742.799 Q144.14 742.799 147.195 747.406 Q150.274 751.989 150.274 760.739 Q150.274 769.466 147.195 774.072 Q144.14 778.656 138.33 778.656 Q132.519 778.656 129.441 774.072 Q126.385 769.466 126.385 760.739 Q126.385 751.989 129.441 747.406 Q132.519 742.799 138.33 742.799 Z" fill="#000000" fill-rule="nonzero" fill-opacity="1" /><path clip-path="url(#clip760)" d="M63.9319 409.965 Q60.3208 409.965 58.4921 413.53 Q56.6865 417.072 56.6865 424.201 Q56.6865 431.308 58.4921 434.872 Q60.3208 438.414 63.9319 438.414 Q67.5661 438.414 69.3717 434.872 Q71.2004 431.308 71.2004 424.201 Q71.2004 417.072 69.3717 413.53 Q67.5661 409.965 63.9319 409.965 M63.9319 406.262 Q69.742 406.262 72.7976 410.868 Q75.8763 415.451 75.8763 424.201 Q75.8763 432.928 72.7976 437.534 Q69.742 442.118 63.9319 442.118 Q58.1217 442.118 55.043 437.534 Q51.9875 432.928 51.9875 424.201 Q51.9875 415.451 55.043 410.868 Q58.1217 406.262 63.9319 406.262 Z" fill="#000000" fill-rule="nonzero" fill-opacity="1" /><path clip-path="url(#clip760)" d="M84.0938 435.567 L88.978 435.567 L88.978 441.447 L84.0938 441.447 L84.0938 435.567 Z" fill="#000000" fill-rule="nonzero" fill-opacity="1" /><path clip-path="url(#clip760)" d="M97.9826 406.887 L120.205 406.887 L120.205 408.877 L107.658 441.447 L102.774 441.447 L114.58 410.822 L97.9826 410.822 L97.9826 406.887 Z" fill="#000000" fill-rule="nonzero" fill-opacity="1" /><path clip-path="url(#clip760)" d="M129.371 406.887 L147.728 406.887 L147.728 410.822 L133.654 410.822 L133.654 419.294 Q134.672 418.947 135.691 418.785 Q136.709 418.599 137.728 418.599 Q143.515 418.599 146.894 421.771 Q150.274 424.942 150.274 430.359 Q150.274 435.937 146.802 439.039 Q143.33 442.118 137.01 442.118 Q134.834 442.118 132.566 441.747 Q130.32 441.377 127.913 440.636 L127.913 435.937 Q129.996 437.072 132.219 437.627 Q134.441 438.183 136.918 438.183 Q140.922 438.183 143.26 436.076 Q145.598 433.97 145.598 430.359 Q145.598 426.748 143.26 424.641 Q140.922 422.535 136.918 422.535 Q135.043 422.535 133.168 422.951 Q131.316 423.368 129.371 424.248 L129.371 406.887 Z" fill="#000000" fill-rule="nonzero" fill-opacity="1" /><path clip-path="url(#clip760)" d="M53.7467 100.973 L61.3856 100.973 L61.3856 74.6079 L53.0754 76.2745 L53.0754 72.0153 L61.3393 70.3486 L66.0152 70.3486 L66.0152 100.973 L73.654 100.973 L73.654 104.909 L53.7467 104.909 L53.7467 100.973 Z" fill="#000000" fill-rule="nonzero" fill-opacity="1" /><path clip-path="url(#clip760)" d="M83.0984 99.029 L87.9827 99.029 L87.9827 104.909 L83.0984 104.909 L83.0984 99.029 Z" fill="#000000" fill-rule="nonzero" fill-opacity="1" /><path clip-path="url(#clip760)" d="M108.168 73.4273 Q104.557 73.4273 102.728 76.9921 Q100.922 80.5338 100.922 87.6634 Q100.922 94.7698 102.728 98.3346 Q104.557 101.876 108.168 101.876 Q111.802 101.876 113.608 98.3346 Q115.436 94.7698 115.436 87.6634 Q115.436 80.5338 113.608 76.9921 Q111.802 73.4273 108.168 73.4273 M108.168 69.7236 Q113.978 69.7236 117.033 74.3301 Q120.112 78.9134 120.112 87.6634 Q120.112 96.3902 117.033 100.997 Q113.978 105.58 108.168 105.58 Q102.358 105.58 99.2789 100.997 Q96.2234 96.3902 96.2234 87.6634 Q96.2234 78.9134 99.2789 74.3301 Q102.358 69.7236 108.168 69.7236 Z" fill="#000000" fill-rule="nonzero" fill-opacity="1" /><path clip-path="url(#clip760)" d="M138.33 73.4273 Q134.719 73.4273 132.89 76.9921 Q131.084 80.5338 131.084 87.6634 Q131.084 94.7698 132.89 98.3346 Q134.719 101.876 138.33 101.876 Q141.964 101.876 143.769 98.3346 Q145.598 94.7698 145.598 87.6634 Q145.598 80.5338 143.769 76.9921 Q141.964 73.4273 138.33 73.4273 M138.33 69.7236 Q144.14 69.7236 147.195 74.3301 Q150.274 78.9134 150.274 87.6634 Q150.274 96.3902 147.195 100.997 Q144.14 105.58 138.33 105.58 Q132.519 105.58 129.441 100.997 Q126.385 96.3902 126.385 87.6634 Q126.385 78.9134 129.441 74.3301 Q132.519 69.7236 138.33 69.7236 Z" fill="#000000" fill-rule="nonzero" fill-opacity="1" /><path clip-path="url(#clip762)" d="M2261.42 1433.78 L2261.42 87.6286 L2265.07 87.6286 L2265.07 1433.78 L2265.07 1433.78 L2265.07 1433.78 L2261.42 1433.78 L2261.42 1433.78  Z" fill="#191970" fill-rule="evenodd" fill-opacity="1"/>
<polyline clip-path="url(#clip762)" style="stroke:#000000; stroke-linecap:round; stroke-linejoin:round; stroke-width:4; stroke-opacity:1; fill:none" points="2261.42,1433.78 2261.42,87.6286 2265.07,87.6286 2265.07,1433.78 "/>
<path clip-path="url(#clip762)" d="M1980.76 1433.78 L1980.76 87.6286 L2003.57 87.6286 L2003.57 1433.78 L2003.57 1433.78 L2003.57 1433.78 L1980.76 1433.78 L1980.76 1433.78  Z" fill="#191970" fill-rule="evenodd" fill-opacity="1"/>
<polyline clip-path="url(#clip762)" style="stroke:#000000; stroke-linecap:round; stroke-linejoin:round; stroke-width:4; stroke-opacity:1; fill:none" points="1980.76,1433.78 1980.76,87.6286 2003.57,87.6286 2003.57,1433.78 "/>
<path clip-path="url(#clip762)" d="M2040.74 1433.78 L2040.74 87.6286 L2056.33 87.6286 L2056.33 1433.78 L2056.33 1433.78 L2056.33 1433.78 L2040.74 1433.78 L2040.74 1433.78  Z" fill="#191970" fill-rule="evenodd" fill-opacity="1"/>
<polyline clip-path="url(#clip762)" style="stroke:#000000; stroke-linecap:round; stroke-linejoin:round; stroke-width:4; stroke-opacity:1; fill:none" points="2040.74,1433.78 2040.74,87.6286 2056.33,87.6286 2056.33,1433.78 "/>
<path clip-path="url(#clip762)" d="M2151.29 1433.78 L2151.29 87.6286 L2158.87 87.6286 L2158.87 1433.78 L2158.87 1433.78 L2158.87 1433.78 L2151.29 1433.78 L2151.29 1433.78  Z" fill="#191970" fill-rule="evenodd" fill-opacity="1"/>
<polyline clip-path="url(#clip762)" style="stroke:#000000; stroke-linecap:round; stroke-linejoin:round; stroke-width:4; stroke-opacity:1; fill:none" points="2151.29,1433.78 2151.29,87.6286 2158.87,87.6286 2158.87,1433.78 "/>
<path clip-path="url(#clip762)" d="M2213.84 1433.78 L2213.84 87.6286 L2218.86 87.6286 L2218.86 1433.78 L2218.86 1433.78 L2218.86 1433.78 L2213.84 1433.78 L2213.84 1433.78  Z" fill="#191970" fill-rule="evenodd" fill-opacity="1"/>
<polyline clip-path="url(#clip762)" style="stroke:#000000; stroke-linecap:round; stroke-linejoin:round; stroke-width:4; stroke-opacity:1; fill:none" points="2213.84,1433.78 2213.84,87.6286 2218.86,87.6286 2218.86,1433.78 "/>
<path clip-path="url(#clip762)" d="M1818.24 1433.78 L1818.24 87.6286 L1878.22 87.6286 L1878.22 1433.78 L1878.22 1433.78 L1878.22 1433.78 L1818.24 1433.78 L1818.24 1433.78  Z" fill="#191970" fill-rule="evenodd" fill-opacity="1"/>
<polyline clip-path="url(#clip762)" style="stroke:#000000; stroke-linecap:round; stroke-linejoin:round; stroke-width:4; stroke-opacity:1; fill:none" points="1818.24,1433.78 1818.24,87.6286 1878.22,87.6286 1878.22,1433.78 "/>
<path clip-path="url(#clip762)" d="M2095.15 1433.78 L2095.15 87.6286 L2106.11 87.6286 L2106.11 1433.78 L2106.11 1433.78 L2106.11 1433.78 L2095.15 1433.78 L2095.15 1433.78  Z" fill="#191970" fill-rule="evenodd" fill-opacity="1"/>
<polyline clip-path="url(#clip762)" style="stroke:#000000; stroke-linecap:round; stroke-linejoin:round; stroke-width:4; stroke-opacity:1; fill:none" points="2095.15,1433.78 2095.15,87.6286 2106.11,87.6286 2106.11,1433.78 "/>
<path clip-path="url(#clip762)" d="M2288.39 1433.78 L2288.39 87.6286 L2291.44 87.6286 L2291.44 1433.78 L2291.44 1433.78 L2291.44 1433.78 L2288.39 1433.78 L2288.39 1433.78  Z" fill="#191970" fill-rule="evenodd" fill-opacity="1"/>
<polyline clip-path="url(#clip762)" style="stroke:#000000; stroke-linecap:round; stroke-linejoin:round; stroke-width:4; stroke-opacity:1; fill:none" points="2288.39,1433.78 2288.39,87.6286 2291.44,87.6286 2291.44,1433.78 "/>
<path clip-path="url(#clip762)" d="M2179.55 1433.78 L2179.55 87.6286 L2185.85 87.6286 L2185.85 1433.78 L2185.85 1433.78 L2185.85 1433.78 L2179.55 1433.78 L2179.55 1433.78  Z" fill="#191970" fill-rule="evenodd" fill-opacity="1"/>
<polyline clip-path="url(#clip762)" style="stroke:#000000; stroke-linecap:round; stroke-linejoin:round; stroke-width:4; stroke-opacity:1; fill:none" points="2179.55,1433.78 2179.55,87.6286 2185.85,87.6286 2185.85,1433.78 "/>
<path clip-path="url(#clip762)" d="M2172.97 1433.78 L2172.97 87.6286 L2179.55 87.6286 L2179.55 1433.78 L2179.55 1433.78 L2179.55 1433.78 L2172.97 1433.78 L2172.97 1433.78  Z" fill="#191970" fill-rule="evenodd" fill-opacity="1"/>
<polyline clip-path="url(#clip762)" style="stroke:#000000; stroke-linecap:round; stroke-linejoin:round; stroke-width:4; stroke-opacity:1; fill:none" points="2172.97,1433.78 2172.97,87.6286 2179.55,87.6286 2179.55,1433.78 "/>
<path clip-path="url(#clip762)" d="M2185.85 1433.78 L2185.85 87.6286 L2191.89 87.6286 L2191.89 1433.78 L2191.89 1433.78 L2191.89 1433.78 L2185.85 1433.78 L2185.85 1433.78  Z" fill="#191970" fill-rule="evenodd" fill-opacity="1"/>
<polyline clip-path="url(#clip762)" style="stroke:#000000; stroke-linecap:round; stroke-linejoin:round; stroke-width:4; stroke-opacity:1; fill:none" points="2185.85,1433.78 2185.85,87.6286 2191.89,87.6286 2191.89,1433.78 "/>
<path clip-path="url(#clip762)" d="M2218.86 1433.78 L2218.86 87.6286 L2223.71 87.6286 L2223.71 1433.78 L2223.71 1433.78 L2223.71 1433.78 L2218.86 1433.78 L2218.86 1433.78  Z" fill="#191970" fill-rule="evenodd" fill-opacity="1"/>
<polyline clip-path="url(#clip762)" style="stroke:#000000; stroke-linecap:round; stroke-linejoin:round; stroke-width:4; stroke-opacity:1; fill:none" points="2218.86,1433.78 2218.86,87.6286 2223.71,87.6286 2223.71,1433.78 "/>
<path clip-path="url(#clip762)" d="M2268.64 1433.78 L2268.64 87.6286 L2272.12 87.6286 L2272.12 1433.78 L2272.12 1433.78 L2272.12 1433.78 L2268.64 1433.78 L2268.64 1433.78  Z" fill="#191970" fill-rule="evenodd" fill-opacity="1"/>
<polyline clip-path="url(#clip762)" style="stroke:#000000; stroke-linecap:round; stroke-linejoin:round; stroke-width:4; stroke-opacity:1; fill:none" points="2268.64,1433.78 2268.64,87.6286 2272.12,87.6286 2272.12,1433.78 "/>
<path clip-path="url(#clip762)" d="M2237.37 1433.78 L2237.37 87.6286 L2241.66 87.6286 L2241.66 1433.78 L2241.66 1433.78 L2241.66 1433.78 L2237.37 1433.78 L2237.37 1433.78  Z" fill="#191970" fill-rule="evenodd" fill-opacity="1"/>
<polyline clip-path="url(#clip762)" style="stroke:#000000; stroke-linecap:round; stroke-linejoin:round; stroke-width:4; stroke-opacity:1; fill:none" points="2237.37,1433.78 2237.37,87.6286 2241.66,87.6286 2241.66,1433.78 "/>
<path clip-path="url(#clip762)" d="M2070.43 1433.78 L2070.43 87.6286 L2083.3 87.6286 L2083.3 1433.78 L2083.3 1433.78 L2083.3 1433.78 L2070.43 1433.78 L2070.43 1433.78  Z" fill="#191970" fill-rule="evenodd" fill-opacity="1"/>
<polyline clip-path="url(#clip762)" style="stroke:#000000; stroke-linecap:round; stroke-linejoin:round; stroke-width:4; stroke-opacity:1; fill:none" points="2070.43,1433.78 2070.43,87.6286 2083.3,87.6286 2083.3,1433.78 "/>
<path clip-path="url(#clip762)" d="M2106.11 1433.78 L2106.11 87.6286 L2116.32 87.6286 L2116.32 1433.78 L2116.32 1433.78 L2116.32 1433.78 L2106.11 1433.78 L2106.11 1433.78  Z" fill="#191970" fill-rule="evenodd" fill-opacity="1"/>
<polyline clip-path="url(#clip762)" style="stroke:#000000; stroke-linecap:round; stroke-linejoin:round; stroke-width:4; stroke-opacity:1; fill:none" points="2106.11,1433.78 2106.11,87.6286 2116.32,87.6286 2116.32,1433.78 "/>
<path clip-path="url(#clip762)" d="M2278.84 1433.78 L2278.84 87.6286 L2282.09 87.6286 L2282.09 1433.78 L2282.09 1433.78 L2282.09 1433.78 L2278.84 1433.78 L2278.84 1433.78  Z" fill="#191970" fill-rule="evenodd" fill-opacity="1"/>
<polyline clip-path="url(#clip762)" style="stroke:#000000; stroke-linecap:round; stroke-linejoin:round; stroke-width:4; stroke-opacity:1; fill:none" points="2278.84,1433.78 2278.84,87.6286 2282.09,87.6286 2282.09,1433.78 "/>
<path clip-path="url(#clip762)" d="M2265.07 1433.78 L2265.07 87.6286 L2268.64 87.6286 L2268.64 1433.78 L2268.64 1433.78 L2268.64 1433.78 L2265.07 1433.78 L2265.07 1433.78  Z" fill="#191970" fill-rule="evenodd" fill-opacity="1"/>
<polyline clip-path="url(#clip762)" style="stroke:#000000; stroke-linecap:round; stroke-linejoin:round; stroke-width:4; stroke-opacity:1; fill:none" points="2265.07,1433.78 2265.07,87.6286 2268.64,87.6286 2268.64,1433.78 "/>
<path clip-path="url(#clip762)" d="M2083.3 1433.78 L2083.3 87.6286 L2095.15 87.6286 L2095.15 1433.78 L2095.15 1433.78 L2095.15 1433.78 L2083.3 1433.78 L2083.3 1433.78  Z" fill="#191970" fill-rule="evenodd" fill-opacity="1"/>
<polyline clip-path="url(#clip762)" style="stroke:#000000; stroke-linecap:round; stroke-linejoin:round; stroke-width:4; stroke-opacity:1; fill:none" points="2083.3,1433.78 2083.3,87.6286 2095.15,87.6286 2095.15,1433.78 "/>
<path clip-path="url(#clip762)" d="M1878.22 1433.78 L1878.22 87.6286 L1920.78 87.6286 L1920.78 1433.78 L1920.78 1433.78 L1920.78 1433.78 L1878.22 1433.78 L1878.22 1433.78  Z" fill="#191970" fill-rule="evenodd" fill-opacity="1"/>
<polyline clip-path="url(#clip762)" style="stroke:#000000; stroke-linecap:round; stroke-linejoin:round; stroke-width:4; stroke-opacity:1; fill:none" points="1878.22,1433.78 1878.22,87.6286 1920.78,87.6286 1920.78,1433.78 "/>
<path clip-path="url(#clip762)" d="M2134.83 1433.78 L2134.83 87.6286 L2143.29 87.6286 L2143.29 1433.78 L2143.29 1433.78 L2143.29 1433.78 L2134.83 1433.78 L2134.83 1433.78  Z" fill="#191970" fill-rule="evenodd" fill-opacity="1"/>
<polyline clip-path="url(#clip762)" style="stroke:#000000; stroke-linecap:round; stroke-linejoin:round; stroke-width:4; stroke-opacity:1; fill:none" points="2134.83,1433.78 2134.83,87.6286 2143.29,87.6286 2143.29,1433.78 "/>
<path clip-path="url(#clip762)" d="M2223.71 1433.78 L2223.71 87.6286 L2228.41 87.6286 L2228.41 1433.78 L2228.41 1433.78 L2228.41 1433.78 L2223.71 1433.78 L2223.71 1433.78  Z" fill="#191970" fill-rule="evenodd" fill-opacity="1"/>
<polyline clip-path="url(#clip762)" style="stroke:#000000; stroke-linecap:round; stroke-linejoin:round; stroke-width:4; stroke-opacity:1; fill:none" points="2223.71,1433.78 2223.71,87.6286 2228.41,87.6286 2228.41,1433.78 "/>
<path clip-path="url(#clip762)" d="M2241.66 1433.78 L2241.66 87.6286 L2245.83 87.6286 L2245.83 1433.78 L2245.83 1433.78 L2245.83 1433.78 L2241.66 1433.78 L2241.66 1433.78  Z" fill="#191970" fill-rule="evenodd" fill-opacity="1"/>
<polyline clip-path="url(#clip762)" style="stroke:#000000; stroke-linecap:round; stroke-linejoin:round; stroke-width:4; stroke-opacity:1; fill:none" points="2241.66,1433.78 2241.66,87.6286 2245.83,87.6286 2245.83,1433.78 "/>
<path clip-path="url(#clip762)" d="M2228.41 1433.78 L2228.41 87.6286 L2232.96 87.6286 L2232.96 1433.78 L2232.96 1433.78 L2232.96 1433.78 L2228.41 1433.78 L2228.41 1433.78  Z" fill="#191970" fill-rule="evenodd" fill-opacity="1"/>
<polyline clip-path="url(#clip762)" style="stroke:#000000; stroke-linecap:round; stroke-linejoin:round; stroke-width:4; stroke-opacity:1; fill:none" points="2228.41,1433.78 2228.41,87.6286 2232.96,87.6286 2232.96,1433.78 "/>
<path clip-path="url(#clip762)" d="M2203.27 1433.78 L2203.27 87.6286 L2208.65 87.6286 L2208.65 1433.78 L2208.65 1433.78 L2208.65 1433.78 L2203.27 1433.78 L2203.27 1433.78  Z" fill="#191970" fill-rule="evenodd" fill-opacity="1"/>
<polyline clip-path="url(#clip762)" style="stroke:#000000; stroke-linecap:round; stroke-linejoin:round; stroke-width:4; stroke-opacity:1; fill:none" points="2203.27,1433.78 2203.27,87.6286 2208.65,87.6286 2208.65,1433.78 "/>
<path clip-path="url(#clip762)" d="M2275.52 1433.78 L2275.52 87.6286 L2278.84 87.6286 L2278.84 1433.78 L2278.84 1433.78 L2278.84 1433.78 L2275.52 1433.78 L2275.52 1433.78  Z" fill="#191970" fill-rule="evenodd" fill-opacity="1"/>
<polyline clip-path="url(#clip762)" style="stroke:#000000; stroke-linecap:round; stroke-linejoin:round; stroke-width:4; stroke-opacity:1; fill:none" points="2275.52,1433.78 2275.52,87.6286 2278.84,87.6286 2278.84,1433.78 "/>
<path clip-path="url(#clip762)" d="M2285.28 1433.78 L2285.28 87.6286 L2288.39 87.6286 L2288.39 1433.78 L2288.39 1433.78 L2288.39 1433.78 L2285.28 1433.78 L2285.28 1433.78  Z" fill="#191970" fill-rule="evenodd" fill-opacity="1"/>
<polyline clip-path="url(#clip762)" style="stroke:#000000; stroke-linecap:round; stroke-linejoin:round; stroke-width:4; stroke-opacity:1; fill:none" points="2285.28,1433.78 2285.28,87.6286 2288.39,87.6286 2288.39,1433.78 "/>
<path clip-path="url(#clip762)" d="M2282.09 1433.78 L2282.09 87.6286 L2285.28 87.6286 L2285.28 1433.78 L2285.28 1433.78 L2285.28 1433.78 L2282.09 1433.78 L2282.09 1433.78  Z" fill="#191970" fill-rule="evenodd" fill-opacity="1"/>
<polyline clip-path="url(#clip762)" style="stroke:#000000; stroke-linecap:round; stroke-linejoin:round; stroke-width:4; stroke-opacity:1; fill:none" points="2282.09,1433.78 2282.09,87.6286 2285.28,87.6286 2285.28,1433.78 "/>
<path clip-path="url(#clip762)" d="M1920.78 1433.78 L1920.78 87.6286 L1953.79 87.6286 L1953.79 1433.78 L1953.79 1433.78 L1953.79 1433.78 L1920.78 1433.78 L1920.78 1433.78  Z" fill="#191970" fill-rule="evenodd" fill-opacity="1"/>
<polyline clip-path="url(#clip762)" style="stroke:#000000; stroke-linecap:round; stroke-linejoin:round; stroke-width:4; stroke-opacity:1; fill:none" points="1920.78,1433.78 1920.78,87.6286 1953.79,87.6286 1953.79,1433.78 "/>
<path clip-path="url(#clip762)" d="M2023.32 1433.78 L2023.32 87.6286 L2040.74 87.6286 L2040.74 1433.78 L2040.74 1433.78 L2040.74 1433.78 L2023.32 1433.78 L2023.32 1433.78  Z" fill="#191970" fill-rule="evenodd" fill-opacity="1"/>
<polyline clip-path="url(#clip762)" style="stroke:#000000; stroke-linecap:round; stroke-linejoin:round; stroke-width:4; stroke-opacity:1; fill:none" points="2023.32,1433.78 2023.32,87.6286 2040.74,87.6286 2040.74,1433.78 "/>
<path clip-path="url(#clip762)" d="M2257.67 1433.78 L2257.67 87.6286 L2261.42 87.6286 L2261.42 1433.78 L2261.42 1433.78 L2261.42 1433.78 L2257.67 1433.78 L2257.67 1433.78  Z" fill="#191970" fill-rule="evenodd" fill-opacity="1"/>
<polyline clip-path="url(#clip762)" style="stroke:#000000; stroke-linecap:round; stroke-linejoin:round; stroke-width:4; stroke-opacity:1; fill:none" points="2257.67,1433.78 2257.67,87.6286 2261.42,87.6286 2261.42,1433.78 "/>
<path clip-path="url(#clip762)" d="M2116.32 1433.78 L2116.32 87.6286 L2125.86 87.6286 L2125.86 1433.78 L2125.86 1433.78 L2125.86 1433.78 L2116.32 1433.78 L2116.32 1433.78  Z" fill="#191970" fill-rule="evenodd" fill-opacity="1"/>
<polyline clip-path="url(#clip762)" style="stroke:#000000; stroke-linecap:round; stroke-linejoin:round; stroke-width:4; stroke-opacity:1; fill:none" points="2116.32,1433.78 2116.32,87.6286 2125.86,87.6286 2125.86,1433.78 "/>
<path clip-path="url(#clip762)" d="M2003.57 1433.78 L2003.57 87.6286 L2023.32 87.6286 L2023.32 1433.78 L2023.32 1433.78 L2023.32 1433.78 L2003.57 1433.78 L2003.57 1433.78  Z" fill="#191970" fill-rule="evenodd" fill-opacity="1"/>
<polyline clip-path="url(#clip762)" style="stroke:#000000; stroke-linecap:round; stroke-linejoin:round; stroke-width:4; stroke-opacity:1; fill:none" points="2003.57,1433.78 2003.57,87.6286 2023.32,87.6286 2023.32,1433.78 "/>
<path clip-path="url(#clip762)" d="M2245.83 1433.78 L2245.83 87.6286 L2249.88 87.6286 L2249.88 1433.78 L2249.88 1433.78 L2249.88 1433.78 L2245.83 1433.78 L2245.83 1433.78  Z" fill="#191970" fill-rule="evenodd" fill-opacity="1"/>
<polyline clip-path="url(#clip762)" style="stroke:#000000; stroke-linecap:round; stroke-linejoin:round; stroke-width:4; stroke-opacity:1; fill:none" points="2245.83,1433.78 2245.83,87.6286 2249.88,87.6286 2249.88,1433.78 "/>
<path clip-path="url(#clip762)" d="M1953.79 1433.78 L1953.79 87.6286 L1980.76 87.6286 L1980.76 1433.78 L1980.76 1433.78 L1980.76 1433.78 L1953.79 1433.78 L1953.79 1433.78  Z" fill="#191970" fill-rule="evenodd" fill-opacity="1"/>
<polyline clip-path="url(#clip762)" style="stroke:#000000; stroke-linecap:round; stroke-linejoin:round; stroke-width:4; stroke-opacity:1; fill:none" points="1953.79,1433.78 1953.79,87.6286 1980.76,87.6286 1980.76,1433.78 "/>
<path clip-path="url(#clip762)" d="M2249.88 1433.78 L2249.88 87.6286 L2253.83 87.6286 L2253.83 1433.78 L2253.83 1433.78 L2253.83 1433.78 L2249.88 1433.78 L2249.88 1433.78  Z" fill="#191970" fill-rule="evenodd" fill-opacity="1"/>
<polyline clip-path="url(#clip762)" style="stroke:#000000; stroke-linecap:round; stroke-linejoin:round; stroke-width:4; stroke-opacity:1; fill:none" points="2249.88,1433.78 2249.88,87.6286 2253.83,87.6286 2253.83,1433.78 "/>
<path clip-path="url(#clip762)" d="M2125.86 1433.78 L2125.86 87.6286 L2134.83 87.6286 L2134.83 1433.78 L2134.83 1433.78 L2134.83 1433.78 L2125.86 1433.78 L2125.86 1433.78  Z" fill="#191970" fill-rule="evenodd" fill-opacity="1"/>
<polyline clip-path="url(#clip762)" style="stroke:#000000; stroke-linecap:round; stroke-linejoin:round; stroke-width:4; stroke-opacity:1; fill:none" points="2125.86,1433.78 2125.86,87.6286 2134.83,87.6286 2134.83,1433.78 "/>
<path clip-path="url(#clip762)" d="M2253.83 1433.78 L2253.83 87.6286 L2257.67 87.6286 L2257.67 1433.78 L2257.67 1433.78 L2257.67 1433.78 L2253.83 1433.78 L2253.83 1433.78  Z" fill="#191970" fill-rule="evenodd" fill-opacity="1"/>
<polyline clip-path="url(#clip762)" style="stroke:#000000; stroke-linecap:round; stroke-linejoin:round; stroke-width:4; stroke-opacity:1; fill:none" points="2253.83,1433.78 2253.83,87.6286 2257.67,87.6286 2257.67,1433.78 "/>
<path clip-path="url(#clip762)" d="M2143.29 1433.78 L2143.29 87.6286 L2151.29 87.6286 L2151.29 1433.78 L2151.29 1433.78 L2151.29 1433.78 L2143.29 1433.78 L2143.29 1433.78  Z" fill="#191970" fill-rule="evenodd" fill-opacity="1"/>
<polyline clip-path="url(#clip762)" style="stroke:#000000; stroke-linecap:round; stroke-linejoin:round; stroke-width:4; stroke-opacity:1; fill:none" points="2143.29,1433.78 2143.29,87.6286 2151.29,87.6286 2151.29,1433.78 "/>
<path clip-path="url(#clip762)" d="M1715.7 1433.78 L1715.7 87.6286 L1818.24 87.6286 L1818.24 1433.78 L1818.24 1433.78 L1818.24 1433.78 L1715.7 1433.78 L1715.7 1433.78  Z" fill="#191970" fill-rule="evenodd" fill-opacity="1"/>
<polyline clip-path="url(#clip762)" style="stroke:#000000; stroke-linecap:round; stroke-linejoin:round; stroke-width:4; stroke-opacity:1; fill:none" points="1715.7,1433.78 1715.7,87.6286 1818.24,87.6286 1818.24,1433.78 "/>
<path clip-path="url(#clip762)" d="M2232.96 1433.78 L2232.96 87.6286 L2237.37 87.6286 L2237.37 1433.78 L2237.37 1433.78 L2237.37 1433.78 L2232.96 1433.78 L2232.96 1433.78  Z" fill="#191970" fill-rule="evenodd" fill-opacity="1"/>
<polyline clip-path="url(#clip762)" style="stroke:#000000; stroke-linecap:round; stroke-linejoin:round; stroke-width:4; stroke-opacity:1; fill:none" points="2232.96,1433.78 2232.96,87.6286 2237.37,87.6286 2237.37,1433.78 "/>
<path clip-path="url(#clip762)" d="M2056.33 1433.78 L2056.33 87.6286 L2070.43 87.6286 L2070.43 1433.78 L2070.43 1433.78 L2070.43 1433.78 L2056.33 1433.78 L2056.33 1433.78  Z" fill="#191970" fill-rule="evenodd" fill-opacity="1"/>
<polyline clip-path="url(#clip762)" style="stroke:#000000; stroke-linecap:round; stroke-linejoin:round; stroke-width:4; stroke-opacity:1; fill:none" points="2056.33,1433.78 2056.33,87.6286 2070.43,87.6286 2070.43,1433.78 "/>
<path clip-path="url(#clip762)" d="M2191.89 1433.78 L2191.89 87.6286 L2197.69 87.6286 L2197.69 1433.78 L2197.69 1433.78 L2197.69 1433.78 L2191.89 1433.78 L2191.89 1433.78  Z" fill="#191970" fill-rule="evenodd" fill-opacity="1"/>
<polyline clip-path="url(#clip762)" style="stroke:#000000; stroke-linecap:round; stroke-linejoin:round; stroke-width:4; stroke-opacity:1; fill:none" points="2191.89,1433.78 2191.89,87.6286 2197.69,87.6286 2197.69,1433.78 "/>
<path clip-path="url(#clip762)" d="M2158.87 1433.78 L2158.87 87.6286 L2166.09 87.6286 L2166.09 1433.78 L2166.09 1433.78 L2166.09 1433.78 L2158.87 1433.78 L2158.87 1433.78  Z" fill="#191970" fill-rule="evenodd" fill-opacity="1"/>
<polyline clip-path="url(#clip762)" style="stroke:#000000; stroke-linecap:round; stroke-linejoin:round; stroke-width:4; stroke-opacity:1; fill:none" points="2158.87,1433.78 2158.87,87.6286 2166.09,87.6286 2166.09,1433.78 "/>
<path clip-path="url(#clip762)" d="M2272.12 1433.78 L2272.12 87.6286 L2275.52 87.6286 L2275.52 1433.78 L2275.52 1433.78 L2275.52 1433.78 L2272.12 1433.78 L2272.12 1433.78  Z" fill="#191970" fill-rule="evenodd" fill-opacity="1"/>
<polyline clip-path="url(#clip762)" style="stroke:#000000; stroke-linecap:round; stroke-linejoin:round; stroke-width:4; stroke-opacity:1; fill:none" points="2272.12,1433.78 2272.12,87.6286 2275.52,87.6286 2275.52,1433.78 "/>
<path clip-path="url(#clip762)" d="M247.59 1433.78 L247.59 87.6286 L1715.7 87.6286 L1715.7 1433.78 L1715.7 1433.78 L1715.7 1433.78 L247.59 1433.78 L247.59 1433.78  Z" fill="#191970" fill-rule="evenodd" fill-opacity="1"/>
<polyline clip-path="url(#clip762)" style="stroke:#000000; stroke-linecap:round; stroke-linejoin:round; stroke-width:4; stroke-opacity:1; fill:none" points="247.59,1433.78 247.59,87.6286 1715.7,87.6286 1715.7,1433.78 "/>
<path clip-path="url(#clip762)" d="M2197.69 1433.78 L2197.69 87.6286 L2203.27 87.6286 L2203.27 1433.78 L2203.27 1433.78 L2203.27 1433.78 L2197.69 1433.78 L2197.69 1433.78  Z" fill="#191970" fill-rule="evenodd" fill-opacity="1"/>
<polyline clip-path="url(#clip762)" style="stroke:#000000; stroke-linecap:round; stroke-linejoin:round; stroke-width:4; stroke-opacity:1; fill:none" points="2197.69,1433.78 2197.69,87.6286 2203.27,87.6286 2203.27,1433.78 "/>
<path clip-path="url(#clip762)" d="M2166.09 1433.78 L2166.09 87.6286 L2172.97 87.6286 L2172.97 1433.78 L2172.97 1433.78 L2172.97 1433.78 L2166.09 1433.78 L2166.09 1433.78  Z" fill="#191970" fill-rule="evenodd" fill-opacity="1"/>
<polyline clip-path="url(#clip762)" style="stroke:#000000; stroke-linecap:round; stroke-linejoin:round; stroke-width:4; stroke-opacity:1; fill:none" points="2166.09,1433.78 2166.09,87.6286 2172.97,87.6286 2172.97,1433.78 "/>
<path clip-path="url(#clip762)" d="M2208.65 1433.78 L2208.65 87.6286 L2213.84 87.6286 L2213.84 1433.78 L2213.84 1433.78 L2213.84 1433.78 L2208.65 1433.78 L2208.65 1433.78  Z" fill="#191970" fill-rule="evenodd" fill-opacity="1"/>
<polyline clip-path="url(#clip762)" style="stroke:#000000; stroke-linecap:round; stroke-linejoin:round; stroke-width:4; stroke-opacity:1; fill:none" points="2208.65,1433.78 2208.65,87.6286 2213.84,87.6286 2213.84,1433.78 "/>
</svg>
